<?xml version="1.0" standalone="no"?>
<!DOCTYPE svg PUBLIC "-//W3C//DTD SVG 20010904//EN"
 "http://www.w3.org/TR/2001/REC-SVG-20010904/DTD/svg10.dtd">
<svg version="1.0" xmlns="http://www.w3.org/2000/svg"
 width="800.000000pt" height="800.000000pt" viewBox="0 0 800.000000 800.000000"
 preserveAspectRatio="xMidYMid meet">
<metadata>
Created by potrace 1.16, written by Peter Selinger 2001-2019
</metadata>
<g transform="translate(0.000000,800.000000) scale(0.100000,-0.100000)"
fill="#000000" stroke="none">
<path d="M537 7563 c-4 -3 -7 -1585 -7 -3514 0 -1929 3 -3514 6 -3523 5 -14
27 -16 158 -14 l151 2 -150 6 -150 5 0 3515 0 3515 3440 0 3440 0 3 -3517 2
-3518 -1207 -3 -1208 -2 1213 -3 1212 -2 0 3524 c0 3204 -1 3524 -16 3530 -9
3 -1560 6 -3448 6 -1888 0 -3436 -3 -3439 -7z"/>
<path d="M2960 6614 c-19 -3 -82 -11 -140 -20 -58 -8 -152 -26 -210 -40 -58
-14 -148 -42 -200 -61 -52 -20 -120 -48 -151 -63 -30 -16 -98 -57 -149 -91
-52 -35 -133 -102 -180 -149 -47 -47 -111 -121 -142 -165 -30 -44 -78 -125
-106 -180 -27 -55 -68 -154 -90 -221 -22 -66 -54 -181 -71 -256 -16 -74 -39
-191 -51 -259 -11 -68 -29 -185 -40 -259 -10 -74 -21 -160 -25 -190 -3 -30
-13 -95 -22 -145 -8 -49 -26 -134 -39 -187 -13 -54 -38 -137 -56 -185 -17 -49
-64 -151 -103 -228 -39 -77 -118 -216 -174 -310 -57 -93 -121 -206 -143 -250
-21 -44 -53 -125 -71 -180 -31 -96 -32 -106 -32 -265 1 -153 3 -171 28 -247
16 -46 49 -114 76 -155 27 -40 63 -83 80 -96 22 -16 31 -31 31 -50 0 -16 9
-64 20 -108 11 -43 37 -113 57 -154 26 -55 55 -94 107 -145 41 -40 97 -83 131
-100 33 -16 62 -31 64 -32 2 -1 -7 -17 -21 -35 -14 -18 -43 -64 -66 -103 -23
-38 -62 -116 -87 -173 -25 -57 -75 -183 -111 -280 -37 -97 -87 -238 -111 -312
-25 -74 -60 -191 -79 -259 -19 -69 -34 -130 -34 -137 0 -11 130 -14 695 -14
l695 0 5 22 c3 13 18 113 34 223 16 110 35 248 41 306 7 58 11 112 8 119 -2 7
-12 14 -21 16 -11 1 -20 -9 -27 -34 -5 -21 -28 -138 -49 -262 -22 -124 -45
-260 -52 -302 l-12 -78 -619 0 -620 0 7 32 c4 18 22 85 41 148 18 63 61 196
94 295 34 99 78 221 97 270 19 50 42 106 51 125 8 19 37 82 64 139 27 57 69
135 94 172 24 37 77 102 116 144 39 42 108 105 152 139 45 34 113 82 151 106
39 24 142 80 230 125 88 44 211 105 274 134 l113 54 26 -34 c13 -19 84 -93
156 -164 72 -72 170 -161 217 -197 47 -37 132 -96 189 -133 58 -36 128 -72
156 -81 37 -11 58 -12 78 -5 16 7 43 37 69 78 24 38 65 107 91 156 26 48 50
87 54 87 4 0 18 -17 32 -38 13 -20 57 -93 96 -162 40 -69 80 -127 89 -128 9
-2 26 -1 38 2 13 3 40 32 63 68 23 35 57 95 77 133 19 39 47 102 61 140 15 39
31 80 37 93 l9 23 60 -42 c33 -23 108 -80 167 -127 59 -48 149 -127 199 -177
50 -49 114 -124 143 -165 29 -41 64 -96 77 -122 l24 -47 -15 -123 c-8 -68 -22
-158 -31 -201 -8 -43 -14 -81 -11 -83 3 -3 14 46 25 108 12 62 26 156 31 208
10 89 9 97 -13 145 -13 27 -46 82 -74 120 -27 39 -76 98 -107 133 -32 35 -113
109 -180 165 -67 56 -158 128 -202 160 -46 32 -87 55 -95 52 -8 -3 -23 -32
-32 -63 -10 -31 -40 -102 -68 -157 -28 -55 -69 -128 -91 -163 -26 -38 -51 -65
-65 -69 -13 -3 -27 -2 -32 3 -5 5 -36 59 -71 119 -34 61 -77 133 -96 160 -18
27 -39 50 -46 50 -6 0 -40 -51 -75 -114 -35 -63 -77 -134 -94 -158 -16 -24
-40 -49 -52 -54 -16 -7 -34 -6 -64 4 -23 8 -79 37 -123 63 -44 27 -128 84
-186 128 -57 43 -160 132 -228 198 -68 66 -141 141 -161 169 -21 27 -44 49
-51 49 -7 0 -86 -34 -176 -76 -89 -41 -214 -103 -277 -136 -63 -34 -144 -79
-180 -101 -36 -23 -101 -69 -146 -103 -44 -34 -113 -97 -152 -139 -39 -42 -92
-107 -117 -145 -25 -38 -65 -111 -89 -162 -24 -51 -68 -156 -99 -233 -30 -77
-84 -226 -120 -331 -36 -105 -80 -243 -97 -305 -17 -63 -35 -124 -40 -136 -7
-15 -18 -23 -35 -23 -14 0 -25 3 -25 8 0 4 11 50 25 102 14 52 42 147 62 210
19 63 59 180 88 260 29 80 70 188 90 240 21 52 61 145 90 207 29 61 76 145
104 187 28 42 51 82 50 89 0 6 -28 26 -62 42 -39 19 -88 56 -132 100 -46 45
-84 95 -107 140 -20 39 -46 106 -57 149 -12 44 -21 92 -21 108 0 19 -14 42
-47 76 -27 27 -65 78 -86 113 -21 35 -48 96 -60 134 -19 60 -22 92 -22 230 0
148 2 167 29 250 15 49 47 128 71 175 23 47 88 160 143 251 55 91 125 213 156
270 30 57 73 150 95 206 23 57 52 141 66 189 14 47 34 131 45 186 11 55 27
153 35 217 8 64 19 152 25 196 6 44 23 148 36 230 14 83 39 210 55 283 17 73
46 181 66 240 19 59 60 157 90 217 31 61 81 146 111 190 31 44 95 119 142 166
48 47 131 115 186 152 55 36 143 86 197 111 53 25 134 57 180 70 45 14 123 34
172 45 50 10 131 25 180 33 50 7 160 12 245 12 96 -1 193 -8 255 -18 55 -10
170 -22 255 -27 85 -5 220 -20 300 -34 80 -13 202 -40 271 -59 70 -19 164 -49
210 -67 46 -18 129 -56 185 -84 56 -29 144 -81 196 -116 51 -35 136 -106 189
-159 52 -52 118 -129 146 -170 28 -41 68 -111 91 -155 22 -45 52 -119 66 -165
14 -47 30 -114 36 -150 5 -36 10 -95 10 -131 0 -36 -5 -92 -11 -125 -6 -32
-23 -83 -37 -113 -15 -30 -48 -76 -73 -102 -25 -26 -65 -57 -88 -68 -34 -18
-57 -22 -117 -20 -41 1 -76 0 -79 -2 -2 -2 -13 -71 -24 -152 -12 -81 -21 -159
-21 -174 0 -23 9 -33 50 -55 30 -17 60 -44 75 -68 14 -22 32 -66 40 -97 8 -32
15 -78 15 -104 0 -25 -7 -86 -15 -135 -9 -53 -28 -115 -47 -153 -17 -35 -47
-82 -66 -103 -20 -22 -49 -46 -65 -54 -28 -15 -29 -17 -22 -72 4 -31 20 -124
35 -207 16 -82 47 -231 70 -330 23 -99 50 -236 60 -305 13 -78 20 -177 20
-263 0 -101 -6 -166 -21 -240 -11 -56 -34 -134 -51 -175 -16 -40 -51 -105 -78
-145 -26 -40 -72 -97 -103 -127 -30 -30 -78 -68 -106 -85 -28 -16 -52 -37 -54
-45 -1 -8 7 -29 20 -46 13 -18 51 -91 84 -163 33 -72 88 -218 124 -323 35
-106 77 -247 94 -313 16 -66 41 -178 55 -248 15 -71 26 -131 26 -133 0 -2 -11
-4 -24 -4 -14 0 -27 4 -30 9 -3 4 -19 73 -36 152 -17 79 -44 194 -60 254 -16
61 -43 151 -59 200 -16 50 -51 153 -78 231 -31 86 -54 139 -61 136 -7 -2 -12
-21 -12 -42 0 -21 -5 -74 -11 -117 -5 -43 -21 -122 -35 -175 l-26 -97 21 -103
c12 -57 30 -170 41 -252 11 -81 20 -159 20 -172 0 -19 -5 -24 -25 -24 -18 0
-26 6 -29 22 -3 13 -14 99 -26 191 -12 93 -35 242 -51 330 -16 89 -29 174 -29
190 0 15 4 27 9 27 5 0 16 -21 25 -47 9 -26 16 -56 17 -67 0 -13 3 -16 6 -7 3
7 -3 40 -12 72 -14 44 -23 59 -37 59 -14 0 -18 -8 -18 -32 0 -18 13 -107 30
-198 16 -91 38 -237 50 -325 11 -88 23 -175 26 -193 l5 -32 209 0 c116 1 210
5 210 10 0 5 -11 66 -26 137 -14 70 -39 182 -55 248 -17 66 -61 212 -99 325
-38 113 -89 252 -114 309 -25 57 -59 126 -76 152 -16 27 -30 53 -30 57 0 4 23
21 51 37 28 17 76 55 106 85 31 30 78 88 104 127 26 40 61 109 78 154 17 44
40 125 51 179 14 70 20 137 20 237 0 86 -7 185 -20 263 -10 69 -37 206 -60
305 -23 99 -54 248 -70 330 -15 83 -31 173 -35 202 -6 50 -6 52 22 67 16 8 45
32 65 54 19 21 47 64 61 95 15 30 34 84 42 119 8 35 18 99 21 143 5 60 2 97
-11 150 -10 39 -31 89 -46 112 -17 25 -46 50 -74 63 -37 18 -45 27 -45 48 0
15 9 90 20 166 11 77 22 141 25 144 3 3 36 4 75 3 51 -2 81 3 114 18 25 10 66
40 91 66 26 26 59 74 75 108 15 35 33 89 39 122 6 32 11 88 11 124 0 36 -5 95
-10 131 -6 36 -22 103 -36 150 -14 47 -43 121 -63 166 -21 44 -62 116 -91 160
-30 43 -97 122 -149 174 -53 53 -136 123 -186 156 -49 34 -124 79 -165 102
-41 22 -127 61 -190 86 -63 25 -173 61 -245 81 -71 19 -195 47 -275 60 -80 14
-217 30 -305 35 -88 5 -198 16 -245 24 -47 8 -148 17 -225 20 -77 2 -156 2
-175 0z m1800 -5415 c27 -81 63 -198 79 -260 17 -63 44 -178 61 -256 16 -79
30 -147 30 -153 0 -6 -51 -10 -133 -10 l-133 0 -18 148 c-9 81 -29 205 -42
276 l-25 128 26 99 c14 55 31 148 38 208 l11 109 28 -71 c16 -40 50 -138 78
-218z m-2440 -41 c0 -13 -9 -93 -20 -178 -11 -85 -30 -222 -43 -305 -22 -150
-22 -150 -49 -153 -16 -2 -28 2 -28 7 0 6 7 55 16 109 8 53 31 186 50 295 19
108 39 208 44 222 5 14 14 25 20 25 5 0 10 -10 10 -22z"/>
<path d="M6022 6564 c-12 -8 -22 -25 -22 -37 0 -12 4 -27 8 -33 4 -6 17 -14
29 -18 15 -5 28 -1 42 13 12 12 21 28 21 36 0 8 -9 24 -20 35 -11 11 -23 20
-28 20 -4 0 -18 -7 -30 -16z m50 -11 c10 -9 18 -21 18 -26 0 -6 -7 -19 -17
-29 -9 -10 -20 -18 -24 -18 -4 0 -15 7 -23 16 -9 8 -16 22 -16 29 0 7 7 21 16
29 8 9 18 16 21 16 4 0 15 -7 25 -17z"/>
<path d="M2805 6526 c-71 -12 -175 -36 -230 -51 -55 -16 -138 -43 -184 -61
-46 -18 -125 -58 -176 -88 -51 -31 -122 -79 -157 -108 -35 -29 -88 -79 -117
-111 -28 -32 -71 -85 -95 -117 -24 -32 -64 -99 -89 -148 -26 -49 -65 -139 -87
-199 -22 -60 -48 -143 -59 -184 -10 -41 -28 -119 -39 -174 -12 -55 -28 -138
-36 -185 -8 -47 -24 -148 -35 -225 -11 -77 -23 -165 -26 -195 -4 -30 -15 -109
-26 -175 -11 -66 -29 -154 -39 -195 -11 -42 -31 -112 -46 -155 -14 -44 -59
-147 -99 -230 -40 -82 -128 -242 -196 -355 -67 -113 -140 -244 -161 -293 -21
-48 -48 -124 -60 -170 -17 -62 -22 -110 -22 -197 0 -91 5 -131 23 -190 12 -41
41 -109 63 -152 25 -46 46 -74 53 -72 7 3 15 22 19 42 3 20 6 52 6 70 0 18 9
78 21 133 11 55 27 116 35 136 8 19 13 38 10 40 -3 3 -10 -7 -16 -23 -6 -16
-20 -66 -31 -113 -11 -46 -24 -124 -29 -174 -5 -49 -11 -91 -14 -94 -2 -2 -17
17 -32 44 -15 26 -33 57 -40 69 -7 12 -23 54 -35 95 -18 59 -23 98 -23 189 0
87 5 135 22 197 12 46 39 120 60 165 22 46 94 175 161 288 68 113 153 268 191
345 37 77 82 182 99 234 17 52 40 128 51 170 10 42 28 130 39 196 11 66 22
145 26 175 3 30 15 118 26 195 11 77 27 178 35 225 8 47 24 130 36 185 11 55
29 134 39 175 11 41 33 113 50 160 17 47 56 133 86 193 30 59 74 134 98 167
24 32 68 85 97 117 29 32 77 79 108 104 30 26 87 67 125 91 39 25 102 61 140
80 39 20 106 47 150 62 43 15 113 35 155 46 42 11 132 28 200 40 86 14 170 20
270 20 80 0 199 -7 265 -15 66 -8 188 -22 270 -30 83 -9 193 -23 245 -32 52
-8 146 -28 210 -44 63 -15 150 -39 194 -54 43 -14 99 -35 125 -46 25 -11 86
-40 134 -64 48 -25 118 -64 155 -88 37 -24 90 -63 119 -85 45 -36 51 -45 44
-64 -4 -12 -15 -27 -24 -32 -11 -7 -35 -6 -78 3 l-62 12 -37 -43 -37 -43 -59
14 c-33 7 -70 14 -84 15 -20 1 -26 -4 -28 -27 -2 -16 12 -69 33 -120 20 -51
46 -111 58 -134 12 -24 28 -43 35 -43 7 0 30 18 51 40 21 22 47 40 58 40 11 0
40 -7 63 -15 23 -8 53 -15 66 -15 14 0 30 10 39 24 9 13 23 27 31 30 9 3 27
-3 41 -14 14 -11 35 -20 47 -20 14 0 29 12 40 31 15 25 20 28 33 17 9 -7 35
-42 59 -78 24 -36 44 -60 44 -54 0 5 -14 32 -31 60 -17 27 -40 59 -52 72 -11
12 -26 22 -33 22 -8 0 -20 -13 -29 -30 -9 -16 -22 -30 -29 -30 -7 0 -25 9 -39
20 -14 11 -33 20 -42 20 -9 0 -29 -14 -45 -32 l-30 -32 -47 14 c-27 8 -66 14
-87 14 -33 0 -45 -6 -73 -39 -18 -21 -34 -36 -36 -34 -2 2 -13 22 -26 43 -12
21 -38 77 -57 124 -18 47 -34 96 -34 108 0 13 4 26 10 29 5 3 33 -1 62 -10 28
-8 63 -15 76 -15 16 0 38 14 63 41 36 39 38 40 76 30 21 -6 52 -11 69 -11 16
0 35 5 42 12 7 7 12 21 12 32 0 16 10 11 51 -29 28 -28 77 -84 108 -126 32
-42 78 -116 103 -165 26 -49 59 -132 75 -184 25 -84 28 -111 28 -235 0 -130
-2 -144 -26 -196 -15 -31 -43 -74 -63 -96 -19 -22 -55 -51 -80 -63 -38 -21
-50 -23 -92 -14 l-49 9 -3 48 c-3 42 2 55 37 108 23 34 50 90 61 126 11 36 20
79 20 97 0 17 -3 41 -6 53 -4 13 -10 20 -16 17 -5 -3 -4 -12 3 -20 8 -9 10
-34 6 -69 -3 -30 -17 -81 -32 -112 -14 -31 -38 -73 -53 -92 -20 -27 -27 -49
-30 -97 l-4 -62 38 -11 c22 -6 49 -11 62 -11 12 0 43 10 67 21 25 12 63 42 85
66 22 25 50 70 62 102 20 49 23 73 23 196 0 124 -3 151 -28 235 -16 52 -48
136 -72 186 -24 50 -70 126 -103 170 -32 43 -97 115 -143 159 -46 44 -122 106
-169 137 -47 32 -122 75 -165 97 -44 22 -119 55 -167 75 -49 19 -135 49 -193
65 -59 17 -159 42 -223 55 -64 14 -184 32 -267 41 -82 8 -202 23 -265 31 -63
9 -205 18 -315 20 -176 3 -216 1 -330 -20z"/>
<path d="M1994 6104 c-3 -19 -4 -52 -1 -72 4 -20 19 -48 35 -65 22 -22 41 -29
83 -34 45 -4 74 1 167 32 62 20 121 34 131 30 10 -3 23 -17 29 -30 7 -14 24
-30 39 -36 17 -6 55 -8 96 -4 44 4 79 2 102 -6 33 -12 36 -11 92 33 32 25 68
50 80 56 12 7 30 12 41 12 11 0 25 -7 32 -15 7 -8 17 -38 24 -67 10 -47 14
-53 39 -56 18 -2 67 15 136 48 62 29 115 48 124 44 9 -3 32 -26 52 -50 31 -38
42 -44 74 -44 29 0 50 10 95 45 32 25 66 45 76 45 10 0 23 -7 31 -16 7 -8 25
-22 40 -30 15 -7 36 -11 46 -7 10 4 38 22 62 40 24 18 54 33 67 33 13 0 39
-14 59 -31 29 -26 41 -30 67 -25 18 4 47 21 65 38 18 18 33 38 33 45 0 7 -16
-5 -36 -27 -20 -22 -47 -43 -60 -46 -18 -5 -33 2 -59 25 -22 19 -47 31 -63 31
-15 0 -37 -6 -49 -13 -12 -6 -41 -25 -63 -41 l-40 -29 -40 31 c-21 18 -50 32
-63 32 -14 0 -50 -20 -83 -45 -36 -28 -68 -45 -85 -45 -20 0 -37 12 -67 47
-33 40 -44 47 -74 46 -19 0 -75 -21 -127 -48 -51 -25 -103 -45 -114 -43 -18 2
-25 14 -35 58 -8 30 -18 61 -24 68 -6 6 -24 12 -40 12 -16 0 -39 -5 -51 -12
-12 -6 -48 -31 -80 -57 -52 -40 -61 -44 -79 -32 -15 9 -42 11 -99 6 -64 -6
-84 -4 -103 9 -14 8 -27 25 -31 36 -3 11 -17 23 -30 26 -14 3 -68 -9 -134 -30
-61 -20 -127 -36 -147 -36 -20 0 -50 7 -68 15 -18 9 -40 29 -50 46 -14 24 -17
44 -13 85 3 30 4 54 2 54 -2 0 -7 -16 -11 -36z"/>
<path d="M4018 6122 c-3 -10 1 -40 9 -67 7 -28 22 -88 32 -135 11 -47 22 -121
26 -165 3 -44 1 -121 -4 -171 -6 -50 -22 -131 -37 -180 -14 -49 -40 -118 -57
-153 -18 -35 -49 -83 -70 -106 -20 -24 -57 -53 -82 -65 -26 -13 -53 -19 -64
-15 -11 3 -30 20 -42 37 -16 22 -23 50 -27 103 -4 68 -2 78 36 161 22 49 45
105 51 125 6 20 9 43 5 52 -3 10 -12 17 -19 17 -7 0 -34 -39 -60 -87 -26 -49
-70 -121 -98 -161 -27 -40 -75 -95 -105 -123 -30 -27 -72 -59 -94 -70 -22 -11
-61 -23 -87 -26 -33 -4 -57 -1 -79 11 -17 9 -39 31 -48 48 -9 18 -17 50 -18
73 0 22 2 63 7 91 6 44 5 53 -9 58 -12 5 -49 -25 -133 -107 -64 -62 -146 -134
-182 -160 -36 -25 -100 -63 -142 -83 -52 -24 -92 -36 -125 -37 -29 -1 -56 4
-65 12 -10 7 -17 26 -17 41 0 15 18 55 40 89 22 33 60 82 85 106 25 25 45 52
45 60 0 8 -6 15 -13 15 -7 0 -33 -13 -58 -28 -24 -16 -70 -56 -101 -90 -34
-37 -61 -78 -67 -100 -6 -20 -11 -47 -11 -60 0 -12 7 -38 15 -58 10 -23 26
-39 49 -49 20 -8 51 -15 70 -15 19 0 38 -5 41 -10 4 -6 -1 -36 -10 -67 -9 -32
-28 -80 -42 -108 -14 -27 -41 -71 -60 -97 -19 -26 -57 -64 -84 -84 -51 -37
-51 -37 -80 -20 -16 9 -50 23 -76 31 -27 7 -69 17 -94 20 -30 5 -68 1 -110 -9
-35 -9 -82 -28 -106 -41 -23 -14 -58 -45 -79 -70 -20 -25 -48 -75 -61 -113
-14 -38 -27 -99 -30 -142 -3 -48 1 -101 10 -147 9 -40 30 -103 48 -140 22 -46
54 -90 100 -136 45 -45 88 -77 131 -97 34 -16 92 -37 128 -46 45 -11 83 -14
128 -10 34 4 86 16 115 27 l52 21 15 -24 c8 -12 42 -59 75 -103 33 -44 93
-114 135 -155 41 -42 101 -96 134 -120 l58 -44 -6 -61 c-4 -33 -18 -127 -33
-210 -14 -82 -29 -159 -33 -170 -6 -16 -23 -25 -62 -33 -34 -8 -73 -27 -108
-54 -30 -22 -99 -79 -153 -126 -76 -66 -120 -95 -195 -129 -53 -25 -117 -53
-142 -63 -25 -10 -123 -59 -218 -109 -95 -50 -218 -120 -272 -156 -54 -36
-137 -102 -184 -146 l-86 -81 -40 16 c-22 9 -57 27 -78 40 -21 13 -61 47 -89
76 -28 29 -66 79 -83 112 -17 32 -41 89 -52 126 -16 52 -21 106 -25 242 -3
101 -1 211 6 260 6 47 13 103 16 125 3 24 -2 14 -12 -25 -13 -51 -17 -116 -17
-295 -1 -198 2 -239 18 -295 11 -36 31 -92 46 -125 15 -33 44 -80 65 -105 20
-25 61 -62 89 -84 28 -21 70 -47 94 -57 24 -11 51 -19 61 -19 9 0 41 25 71 56
30 30 87 79 125 109 39 29 111 78 160 108 50 30 164 92 255 138 91 47 217 107
280 134 102 43 127 59 218 139 56 49 127 108 158 130 32 22 78 44 107 51 43
10 52 16 59 40 4 15 18 94 32 174 14 80 28 175 32 211 l6 66 -58 44 c-33 24
-97 83 -144 130 -47 47 -114 128 -150 178 -35 51 -70 92 -76 92 -6 0 -31 -9
-56 -19 -24 -11 -73 -23 -109 -27 -45 -4 -83 -2 -127 10 -34 8 -90 30 -124 47
-38 19 -89 58 -129 98 -47 47 -76 88 -102 142 -20 42 -41 107 -48 144 -6 38
-9 98 -6 134 3 36 15 92 27 124 12 31 39 79 61 107 22 27 63 63 92 80 28 16
76 35 105 41 39 8 71 8 115 0 34 -6 84 -22 113 -36 28 -14 57 -25 64 -25 7 0
34 16 61 35 26 20 64 58 83 84 20 26 47 72 60 101 14 29 32 82 42 117 15 55
15 66 3 74 -8 5 -29 9 -47 9 -18 0 -46 7 -62 15 -16 9 -36 29 -45 45 -8 16
-15 41 -15 55 0 14 7 41 15 60 8 20 38 60 67 91 29 31 72 70 96 86 24 17 46
28 48 25 3 -3 -15 -25 -39 -50 -25 -25 -62 -70 -82 -100 -21 -31 -39 -73 -42
-96 -3 -24 -1 -46 6 -55 6 -8 26 -17 44 -20 18 -3 58 1 90 9 32 8 81 27 110
41 28 15 81 47 117 72 36 25 117 97 181 160 65 62 120 109 123 104 3 -5 1 -38
-5 -74 -8 -54 -7 -73 8 -119 14 -43 25 -58 53 -72 26 -13 49 -17 87 -13 28 2
71 13 95 24 24 10 68 42 99 70 31 28 79 84 106 124 28 40 72 113 98 161 31 58
51 85 57 79 7 -7 6 -24 -2 -49 -7 -21 -29 -69 -49 -108 -33 -65 -36 -76 -36
-160 0 -68 5 -98 18 -123 10 -18 29 -37 43 -43 17 -6 39 -6 66 2 26 7 58 28
90 60 30 30 62 77 83 122 19 39 46 112 60 162 14 49 30 133 36 187 8 69 8 127
0 196 -6 54 -23 148 -39 209 -16 61 -26 117 -22 123 5 8 43 -36 103 -116 53
-70 119 -170 148 -221 28 -52 76 -149 106 -216 30 -67 66 -147 80 -177 14 -30
38 -82 53 -115 16 -33 47 -85 69 -116 21 -30 57 -67 78 -82 21 -14 57 -30 79
-35 29 -7 53 -5 80 4 22 7 52 28 68 46 15 18 36 51 46 73 10 22 27 72 38 110
11 39 23 79 27 90 6 15 5 17 -4 9 -7 -6 -21 -46 -32 -90 -11 -43 -32 -101 -48
-128 -15 -28 -44 -64 -64 -79 -27 -22 -46 -29 -76 -29 -22 0 -50 6 -63 13 -13
7 -38 23 -56 37 -17 13 -52 54 -76 91 -24 36 -95 179 -158 316 -63 138 -133
282 -156 321 -23 40 -83 126 -132 193 -50 67 -97 121 -104 121 -8 0 -16 -8
-18 -18z"/>
<path d="M4135 5878 c3 -18 9 -96 12 -173 4 -125 2 -152 -21 -253 -14 -61 -37
-140 -52 -175 -15 -34 -47 -92 -71 -128 -23 -37 -58 -78 -75 -91 -18 -14 -47
-32 -65 -42 -18 -9 -52 -16 -77 -16 -34 0 -52 6 -77 27 -17 15 -40 45 -50 68
-10 22 -19 56 -20 75 -2 31 -2 32 -6 7 -3 -15 3 -49 12 -76 8 -26 29 -60 45
-76 23 -22 42 -29 83 -33 34 -3 66 1 90 11 20 9 53 28 72 43 19 14 55 56 79
93 24 36 57 102 74 146 16 44 40 126 52 183 19 86 21 123 17 240 -3 75 -8 151
-12 167 -3 17 21 -19 54 -80 33 -60 88 -173 122 -250 34 -77 91 -200 126 -272
48 -99 78 -148 120 -194 31 -33 75 -70 97 -81 25 -13 68 -23 110 -26 l69 -5
-6 -76 c-3 -42 -18 -162 -32 -266 -14 -105 -30 -212 -36 -240 -6 -27 -15 -187
-20 -355 -5 -168 -13 -327 -18 -355 -5 -27 -17 -79 -26 -115 -9 -36 -26 -85
-37 -110 -11 -25 -40 -75 -64 -111 -24 -37 -74 -95 -112 -130 -37 -35 -93 -81
-125 -102 -32 -22 -96 -57 -142 -78 -46 -22 -117 -48 -157 -58 -40 -10 -107
-22 -148 -26 -43 -4 -109 -2 -154 4 -43 6 -136 27 -205 47 -69 20 -181 61
-248 91 -66 30 -164 81 -217 113 -53 32 -136 89 -184 127 -48 37 -123 104
-167 149 -44 44 -114 124 -154 177 -45 59 -81 97 -92 97 -10 0 -35 -10 -56
-22 -33 -20 -52 -23 -139 -23 -96 0 -103 2 -178 38 -48 24 -97 59 -130 92 -29
29 -67 80 -84 114 -17 34 -36 87 -43 119 -6 32 -9 91 -6 135 4 55 13 93 31
130 14 29 40 68 58 86 18 19 57 45 86 59 44 20 65 24 121 20 51 -3 84 -12 134
-36 39 -20 78 -47 93 -68 15 -19 35 -34 46 -34 18 0 20 5 15 33 -3 17 -8 39
-12 48 -4 12 4 23 29 38 19 12 56 45 81 73 25 27 61 82 80 122 19 39 45 111
58 161 l24 90 90 46 c50 25 110 60 134 79 24 18 72 61 107 94 34 33 62 65 62
70 0 6 -30 -19 -67 -55 -38 -36 -87 -80 -110 -98 -23 -17 -83 -54 -134 -80
l-92 -49 -23 -91 c-12 -50 -40 -123 -61 -163 -21 -41 -62 -98 -93 -129 -30
-30 -66 -62 -80 -71 -23 -14 -24 -16 -10 -57 7 -22 10 -44 7 -47 -3 -4 -26 14
-50 38 -28 29 -65 53 -103 68 -32 13 -88 25 -124 28 -49 3 -78 -1 -120 -17
-30 -11 -68 -32 -83 -47 -15 -14 -39 -42 -52 -62 -13 -20 -32 -66 -41 -102
-12 -47 -15 -88 -11 -145 3 -44 15 -108 27 -143 12 -34 41 -89 65 -121 24 -33
68 -75 102 -98 33 -22 92 -50 132 -63 57 -18 86 -22 149 -18 52 3 93 12 123
26 25 12 48 22 51 22 3 0 38 -44 79 -97 41 -54 113 -136 160 -184 48 -47 134
-122 192 -165 58 -43 144 -101 191 -128 47 -26 127 -66 178 -88 50 -21 125
-50 167 -64 42 -14 121 -37 176 -51 83 -22 120 -27 220 -26 87 0 141 6 195 21
41 11 116 37 165 59 50 21 117 56 150 78 33 22 90 69 127 104 38 35 88 93 112
130 25 37 54 90 65 118 11 28 27 80 36 115 10 34 21 86 26 113 5 28 13 187 18
355 5 168 14 328 20 355 6 28 22 136 36 240 15 105 29 227 32 273 l6 82 -59 0
c-41 0 -75 7 -109 24 -30 14 -73 47 -107 84 -42 45 -74 96 -122 194 -35 73
-86 183 -111 243 -26 61 -79 172 -118 247 -40 76 -78 138 -86 138 -10 0 -11
-8 -6 -32z"/>
<path d="M1885 5740 c-22 -11 -79 -57 -127 -103 -49 -45 -88 -87 -88 -92 0 -6
37 26 82 69 46 43 103 92 127 107 25 16 57 29 72 29 18 0 35 -9 48 -25 11 -14
23 -39 26 -56 4 -16 17 -36 29 -44 16 -11 30 -12 52 -6 16 5 58 21 93 35 36
14 73 26 82 26 10 0 31 -11 47 -25 17 -14 38 -25 49 -25 11 0 50 16 89 35 38
19 77 35 86 35 9 0 24 -3 33 -6 9 -4 27 -28 41 -55 22 -44 28 -49 58 -49 23 0
57 15 111 51 42 27 85 49 94 47 9 -2 28 -26 42 -53 14 -27 33 -51 42 -53 9 -2
29 3 44 11 16 8 58 33 95 56 37 22 79 41 93 41 19 0 34 -13 61 -50 30 -42 41
-50 67 -50 20 0 56 15 95 40 34 22 70 40 79 40 9 0 27 -10 39 -21 13 -12 34
-21 48 -21 15 0 50 18 81 41 30 22 61 41 70 41 9 0 25 -4 35 -10 10 -5 28 -27
41 -47 12 -21 29 -44 37 -50 9 -7 28 -13 43 -13 19 0 42 15 78 51 43 42 54 49
66 39 11 -9 15 -9 15 -1 0 6 -6 12 -12 12 -7 1 -20 0 -28 -1 -8 -1 -34 -21
-58 -46 -23 -24 -51 -44 -60 -44 -10 0 -25 6 -34 13 -8 6 -25 29 -37 50 -13
20 -31 42 -41 47 -10 6 -30 10 -44 10 -13 0 -44 -15 -69 -34 -24 -19 -54 -39
-65 -45 -17 -9 -26 -7 -50 14 -17 14 -40 25 -53 25 -12 0 -53 -18 -90 -40 -37
-22 -77 -40 -88 -40 -12 0 -31 16 -50 44 -17 24 -38 46 -46 50 -9 3 -25 6 -36
6 -11 0 -39 -10 -61 -21 -23 -12 -66 -37 -95 -56 -29 -20 -59 -33 -68 -30 -8
4 -25 28 -38 54 -17 37 -28 49 -48 51 -19 2 -51 -13 -104 -47 -43 -28 -88 -51
-101 -51 -18 0 -29 11 -48 49 -14 27 -32 51 -41 55 -9 3 -27 6 -39 6 -12 0
-54 -16 -95 -35 -40 -19 -78 -35 -85 -35 -7 0 -21 9 -31 20 -10 11 -32 22 -50
26 -22 4 -51 -2 -96 -21 -35 -15 -77 -31 -93 -36 -23 -7 -34 -5 -48 7 -9 9
-22 33 -29 53 -6 20 -18 44 -27 54 -8 9 -29 17 -46 17 -17 0 -49 -9 -71 -20z"/>
<path d="M6411 5396 c-7 -8 -11 -27 -9 -42 2 -15 11 -32 20 -37 12 -8 24 -7
42 1 19 8 26 19 26 40 0 15 -5 33 -12 40 -7 7 -22 12 -34 12 -12 0 -27 -6 -33
-14z m57 -8 c7 -7 12 -20 12 -29 0 -9 -7 -22 -16 -30 -11 -9 -20 -10 -32 -2
-10 5 -18 18 -20 27 -2 9 2 23 8 31 7 8 18 15 24 15 7 0 17 -5 24 -12z"/>
<path d="M3111 5205 c0 -11 4 -37 10 -58 5 -21 24 -53 41 -72 21 -25 47 -40
85 -51 46 -13 66 -14 112 -5 31 6 79 22 107 36 28 14 74 47 102 74 29 28 52
58 52 68 0 13 -6 9 -21 -14 -11 -17 -43 -49 -72 -72 -29 -22 -73 -49 -98 -60
-24 -10 -63 -22 -85 -26 -23 -3 -61 -1 -85 5 -29 8 -58 26 -85 55 -30 31 -44
56 -52 91 -5 27 -10 40 -11 29z"/>
<path d="M3253 4980 c-34 -5 -104 -23 -155 -41 -51 -17 -115 -42 -141 -56 -39
-19 -48 -28 -45 -46 2 -16 9 -22 28 -21 14 1 72 12 130 25 96 22 127 24 360
24 l255 0 3 26 c2 15 -4 31 -15 41 -10 8 -40 23 -68 32 -33 12 -92 19 -170 21
-66 2 -148 0 -182 -5z m348 -25 c26 -9 55 -25 64 -35 9 -10 15 -25 13 -32 -4
-10 -58 -13 -254 -13 -226 0 -259 -2 -354 -24 -58 -13 -114 -24 -124 -25 -10
0 -21 4 -23 10 -2 7 17 24 43 38 25 14 87 40 136 57 49 17 117 34 151 39 34 5
116 7 182 5 77 -2 137 -9 166 -20z"/>
<path d="M4397 4929 c-32 -5 -70 -14 -85 -21 -15 -7 -28 -21 -30 -31 -2 -10 1
-24 7 -31 8 -9 55 -15 159 -19 94 -4 179 -13 236 -26 50 -12 98 -21 108 -21
13 0 18 8 18 25 0 19 -11 33 -46 55 -26 16 -68 36 -93 45 -25 8 -80 19 -121
25 -41 5 -79 9 -85 8 -5 0 -36 -4 -68 -9z m218 -20 c28 -5 77 -24 109 -42 33
-18 64 -41 70 -50 6 -9 7 -19 3 -23 -3 -4 -53 3 -109 16 -65 14 -152 24 -238
27 -74 3 -141 10 -147 15 -7 6 -13 14 -13 19 0 5 11 15 24 24 12 8 50 19 82
24 32 5 84 7 114 4 30 -2 78 -9 105 -14z"/>
<path d="M3118 4646 c-36 -13 -79 -33 -95 -44 -15 -11 -43 -36 -61 -55 -19
-19 -39 -51 -46 -72 -8 -21 -11 -46 -9 -56 3 -11 13 -19 23 -19 10 0 31 20 49
49 18 27 48 60 69 74 20 15 59 36 87 48 37 17 70 22 137 23 48 1 88 5 88 10 0
5 -38 6 -90 3 -49 -4 -112 -15 -141 -26 -28 -11 -69 -32 -90 -47 -21 -14 -52
-48 -70 -75 -17 -27 -35 -49 -39 -49 -5 0 -10 5 -12 12 -3 7 -2 23 0 36 3 13
27 48 54 77 32 36 73 66 116 87 64 32 71 33 187 33 110 0 124 -2 175 -27 31
-15 75 -44 98 -64 24 -20 56 -59 72 -88 17 -28 30 -59 30 -68 0 -10 -3 -18 -7
-18 -5 0 -20 21 -35 48 -16 26 -35 56 -43 66 -11 14 -18 17 -26 9 -7 -7 -5
-26 7 -62 12 -38 15 -67 10 -109 -4 -31 -18 -75 -31 -99 -14 -23 -38 -51 -54
-62 -20 -14 -45 -21 -77 -21 -35 0 -56 6 -81 26 -18 14 -43 44 -55 67 -18 33
-23 59 -23 124 0 74 3 85 30 125 17 23 46 51 65 60 31 16 32 18 11 18 -15 0
-38 -15 -61 -39 -26 -27 -42 -56 -50 -91 -7 -29 -10 -77 -7 -107 3 -30 16 -76
29 -101 13 -26 38 -57 57 -69 24 -16 49 -23 85 -23 32 0 62 7 82 19 17 10 41
35 53 54 12 20 27 63 33 96 8 44 8 72 1 103 -6 24 -14 54 -18 68 -7 23 -5 22
17 -7 13 -17 33 -48 43 -67 11 -21 27 -36 37 -36 12 0 18 8 18 23 0 12 -9 40
-19 63 -10 22 -33 56 -50 76 -17 20 -53 50 -79 66 -26 17 -71 37 -101 46 -32
9 -91 16 -140 16 -64 0 -103 -6 -153 -24z"/>
<path d="M4413 4645 c-23 -7 -62 -24 -87 -39 -24 -14 -58 -45 -75 -68 -17 -23
-39 -67 -48 -96 -15 -46 -15 -55 -3 -63 8 -5 18 -9 21 -9 3 0 16 21 28 48 12
26 35 63 51 82 16 19 30 29 30 22 0 -7 -7 -24 -16 -37 -9 -13 -18 -51 -21 -83
-3 -34 0 -83 7 -112 7 -30 25 -67 42 -86 17 -20 46 -38 69 -44 21 -6 51 -8 66
-4 15 4 41 16 57 27 16 11 38 41 49 66 16 34 21 67 22 126 0 64 -5 89 -24 128
-13 28 -35 54 -52 62 -15 8 -34 15 -41 15 -7 -1 3 -9 22 -19 20 -11 46 -38 60
-63 21 -36 25 -55 24 -123 0 -62 -5 -89 -22 -122 -12 -23 -34 -50 -49 -61 -16
-11 -38 -23 -51 -26 -12 -4 -38 -2 -57 4 -19 6 -48 27 -64 45 -17 19 -35 54
-42 77 -6 24 -9 71 -6 105 3 41 12 72 26 92 20 28 21 33 7 46 -13 14 -18 12
-40 -18 -15 -19 -39 -58 -56 -88 -22 -41 -30 -49 -35 -37 -4 10 4 41 18 72 14
29 42 71 64 92 21 22 60 49 86 62 26 13 71 26 101 29 37 4 70 0 107 -12 32
-11 71 -35 99 -61 27 -25 52 -60 59 -82 7 -21 11 -49 9 -62 -1 -13 -8 -25 -14
-27 -6 -2 -21 21 -33 50 -12 30 -34 66 -49 80 -15 14 -51 35 -80 46 -29 12
-62 21 -74 21 -12 0 -19 -2 -17 -4 3 -3 20 -8 38 -11 18 -3 50 -14 71 -25 21
-11 52 -36 69 -57 17 -21 31 -41 31 -46 0 -4 7 -23 15 -43 13 -31 17 -34 35
-24 14 7 20 21 20 44 0 18 -5 48 -11 67 -7 19 -30 53 -52 76 -28 30 -59 48
-101 63 -33 11 -78 20 -100 19 -23 0 -60 -6 -83 -14z"/>
<path d="M4004 4413 c-4 -20 -4 -87 0 -149 4 -79 14 -137 31 -191 14 -43 25
-85 25 -94 0 -8 -15 -33 -34 -55 -19 -22 -36 -49 -38 -60 -2 -14 2 -18 17 -16
11 2 32 12 46 23 15 10 34 34 43 53 9 19 16 43 16 53 0 11 -9 46 -20 77 -11
32 -24 95 -30 139 -5 45 -10 114 -10 153 0 40 -3 79 -6 88 -3 9 -12 16 -20 16
-7 0 -16 -16 -20 -37z m39 -115 c4 -73 13 -155 20 -183 8 -27 20 -71 28 -98
12 -43 12 -51 -6 -83 -10 -19 -32 -45 -48 -56 -15 -11 -31 -18 -34 -15 -3 4
11 25 31 48 20 24 36 52 36 63 0 12 -12 56 -25 99 -18 56 -27 112 -32 196 -3
65 -3 130 1 145 4 15 10 25 15 22 4 -3 11 -65 14 -138z"/>
<path d="M4852 4421 c-6 -3 -16 -43 -22 -89 -7 -46 -10 -85 -8 -88 3 -2 10 33
16 78 7 45 16 86 20 90 5 5 21 -1 36 -13 14 -11 36 -40 48 -62 15 -29 23 -67
26 -122 3 -53 -2 -109 -13 -165 -10 -47 -28 -106 -41 -131 -12 -25 -35 -60
-49 -78 -15 -17 -30 -31 -33 -31 -4 0 -5 73 -4 162 3 154 5 166 30 212 15 26
32 51 39 53 7 3 13 9 13 14 0 6 -7 6 -18 0 -10 -5 -30 -31 -44 -58 -25 -45
-26 -57 -30 -221 -3 -155 -1 -172 14 -172 9 0 29 15 44 33 15 17 37 55 49 82
13 28 30 85 39 129 9 43 16 109 16 147 0 44 -7 91 -20 126 -11 31 -29 66 -41
79 -11 12 -29 24 -39 27 -10 2 -22 2 -28 -2z"/>
<path d="M2921 4354 c0 -17 6 -54 15 -83 8 -29 24 -61 35 -72 10 -10 25 -19
32 -19 6 0 2 8 -9 18 -12 9 -29 31 -38 49 -9 18 -20 56 -25 85 -6 36 -9 43
-10 22z"/>
<path d="M3638 4330 c2 -16 -1 -52 -8 -80 -8 -33 -24 -64 -46 -87 -19 -20 -32
-38 -30 -41 3 -2 18 9 35 25 16 17 36 53 45 83 9 30 16 68 16 86 0 18 -4 35
-8 38 -5 3 -6 -8 -4 -24z"/>
<path d="M4204 4290 c2 -41 12 -82 26 -113 12 -26 31 -52 41 -57 12 -7 7 6
-16 40 -19 29 -36 68 -39 93 -3 23 -8 56 -10 72 -3 17 -3 1 -2 -35z"/>
<path d="M2003 4310 c-13 -5 -23 -13 -23 -17 0 -4 4 -13 8 -20 4 -6 28 -11 53
-11 36 1 56 -6 93 -31 26 -18 50 -39 53 -46 2 -8 -9 -31 -26 -52 -17 -21 -37
-61 -46 -88 -8 -28 -15 -62 -15 -77 0 -14 3 -33 6 -42 3 -9 14 -16 23 -16 13
0 20 14 28 58 6 32 25 82 43 110 17 29 36 52 40 52 5 0 17 -12 28 -27 11 -16
33 -55 50 -89 18 -35 37 -61 46 -61 12 0 16 10 16 37 0 21 -13 62 -30 96 -16
32 -47 80 -69 105 -22 25 -64 62 -94 83 -41 29 -66 38 -108 42 -30 2 -64 0
-76 -6z m136 -22 c25 -12 72 -49 106 -82 33 -34 75 -89 93 -122 17 -34 32 -74
32 -88 0 -14 -4 -26 -8 -26 -5 0 -17 19 -28 42 -10 22 -31 61 -46 85 -18 27
-35 43 -48 43 -13 0 -29 -17 -50 -52 -16 -29 -35 -79 -41 -111 -7 -34 -16 -56
-23 -54 -6 2 -11 26 -11 53 1 29 9 67 23 94 12 25 32 57 46 71 21 23 23 29 12
50 -6 13 -33 37 -59 53 -35 21 -59 29 -92 28 -25 0 -47 4 -50 8 -3 5 3 13 12
19 10 6 33 11 52 11 19 0 55 -10 80 -22z"/>
<path d="M4852 4268 c-7 -7 -12 -16 -12 -22 0 -5 8 -2 18 6 9 9 26 18 37 21
16 4 15 5 -5 6 -15 0 -31 -4 -38 -11z"/>
<path d="M4692 4189 c-12 -21 -19 -39 -14 -39 5 0 17 16 27 35 11 19 17 36 14
39 -2 3 -15 -13 -27 -35z"/>
<path d="M3010 4150 c0 -11 11 -27 25 -36 13 -8 57 -27 97 -42 61 -21 90 -25
173 -25 69 1 119 7 160 20 41 13 61 25 63 37 3 16 -1 18 -35 12 -21 -4 -90 -9
-154 -12 -92 -5 -129 -3 -175 11 -33 9 -74 25 -92 36 -18 10 -40 19 -48 19 -8
0 -14 -9 -14 -20z m35 0 c3 -5 42 -21 86 -35 63 -20 101 -25 180 -25 55 0 120
5 144 11 24 6 50 9 57 6 7 -3 -3 -12 -24 -21 -21 -9 -72 -21 -114 -27 -54 -7
-96 -7 -147 1 -43 6 -98 24 -137 43 -35 17 -66 38 -68 45 -2 6 1 12 7 12 5 0
13 -4 16 -10z"/>
<path d="M4587 4112 c-35 -18 -65 -25 -110 -26 -34 0 -88 3 -119 8 -50 7 -58
6 -58 -7 0 -9 8 -21 19 -26 10 -6 50 -16 88 -22 58 -9 79 -9 133 5 35 9 79 26
97 37 20 13 33 28 31 38 -2 8 -10 16 -18 17 -8 1 -37 -10 -63 -24z m57 -10
c-10 -8 -39 -24 -64 -35 -34 -16 -64 -21 -120 -21 -47 1 -90 7 -114 18 -22 9
-37 19 -34 22 4 3 41 0 85 -7 67 -10 87 -9 143 5 36 9 74 23 85 30 11 8 24 11
29 8 5 -3 0 -12 -10 -20z"/>
<path d="M3837 3933 c-4 -3 -7 -10 -7 -15 0 -4 9 -17 20 -28 11 -11 33 -20 49
-20 25 0 28 3 23 26 -3 15 -14 29 -29 35 -13 5 -30 9 -37 9 -7 0 -16 -3 -19
-7z m54 -13 c10 -6 19 -17 19 -25 0 -8 -6 -15 -13 -15 -7 0 -23 7 -35 16 -12
8 -20 20 -17 25 4 5 11 9 16 9 6 0 19 -5 30 -10z"/>
<path d="M4761 3525 c0 -11 -10 -44 -21 -73 -11 -29 -34 -77 -50 -106 -17 -29
-56 -84 -88 -122 -32 -38 -91 -95 -132 -127 -41 -31 -118 -79 -170 -106 -52
-27 -135 -62 -185 -78 -83 -26 -102 -28 -259 -29 -134 -1 -170 -4 -176 -15 -4
-8 -15 -54 -24 -104 -9 -49 -16 -102 -16 -117 0 -18 7 -29 20 -33 11 -4 47
-31 79 -61 32 -29 87 -90 122 -135 50 -63 86 -96 164 -149 55 -38 147 -107
205 -153 58 -46 154 -135 213 -196 106 -110 109 -112 139 -102 16 6 52 27 79
46 26 20 67 57 90 83 22 26 58 76 80 112 21 36 50 99 64 139 14 41 32 108 41
150 10 49 15 128 15 226 0 115 -5 182 -25 290 -13 77 -45 230 -70 340 -26 110
-49 228 -53 263 -3 34 -10 65 -15 68 -5 3 -6 -14 -2 -38 3 -24 19 -104 35
-178 15 -74 40 -185 54 -245 14 -61 35 -166 46 -235 14 -85 21 -170 21 -266 0
-78 -6 -170 -12 -205 -6 -35 -22 -97 -36 -139 -13 -41 -45 -111 -70 -155 -26
-44 -75 -107 -108 -141 -34 -33 -82 -73 -108 -88 l-47 -27 -108 112 c-59 61
-155 150 -213 196 -58 46 -149 113 -202 149 -76 51 -111 83 -166 152 -38 48
-92 108 -120 135 -28 26 -63 52 -77 59 -15 7 -25 19 -25 32 0 12 7 62 16 111
9 50 20 94 24 99 5 4 84 9 177 10 165 2 170 3 276 39 59 20 143 55 185 77 42
22 114 69 158 104 45 35 106 95 136 133 30 37 66 88 80 113 13 25 35 73 47
107 13 34 21 70 18 80 -4 16 -5 16 -6 -2z"/>
<path d="M3850 3514 c-19 -3 -57 -9 -85 -15 -27 -5 -67 -14 -87 -20 -29 -7
-38 -15 -38 -30 0 -17 5 -20 23 -16 12 3 57 11 100 18 49 7 119 9 195 5 64 -3
134 -9 155 -12 29 -5 37 -3 37 9 0 8 -12 19 -27 25 -16 6 -46 15 -68 21 -22 5
-69 12 -105 14 -36 3 -81 3 -100 1z m144 -14 c37 -6 87 -19 110 -30 l41 -20
-35 5 c-19 3 -88 8 -152 11 -74 4 -147 2 -195 -5 -43 -7 -86 -15 -95 -17 -10
-3 -18 -1 -18 5 0 6 24 18 54 26 30 9 83 20 118 24 35 5 72 9 83 10 11 0 51
-4 89 -9z"/>
<path d="M2971 3173 c-5 -10 -14 -61 -21 -113 -6 -52 -20 -149 -31 -215 -10
-66 -27 -151 -35 -189 -10 -41 -13 -71 -7 -75 5 -3 65 -45 133 -92 69 -48 186
-123 260 -167 74 -45 145 -82 157 -84 16 -2 35 15 82 76 l62 79 -6 56 c-3 31
1 98 9 150 8 51 12 100 9 108 -3 8 -24 23 -47 35 -22 11 -75 45 -116 76 -41
30 -126 107 -188 170 -62 64 -143 135 -179 159 -36 24 -67 43 -69 43 -2 0 -7
-8 -13 -17z m251 -195 c62 -63 147 -140 188 -170 41 -31 94 -65 117 -77 23
-11 44 -24 47 -29 2 -4 -2 -53 -10 -107 -9 -55 -13 -121 -10 -146 6 -44 4 -49
-51 -122 -32 -42 -65 -76 -74 -77 -8 0 -82 40 -163 90 -81 49 -198 125 -259
167 -61 43 -115 81 -120 84 -4 3 -2 33 6 65 9 32 25 118 36 189 11 72 25 168
31 215 6 47 13 92 16 101 4 14 16 9 69 -25 35 -24 115 -94 177 -158z"/>
<path d="M2757 2681 c-20 -10 -65 -42 -99 -72 -35 -29 -89 -78 -120 -108 -32
-30 -58 -63 -58 -72 0 -9 55 -72 123 -140 67 -68 160 -155 207 -192 47 -37
117 -90 155 -116 39 -27 104 -68 145 -93 41 -24 83 -42 92 -40 9 2 54 68 102
153 47 83 86 158 86 168 0 13 -33 38 -107 81 -60 35 -162 99 -228 143 -66 44
-145 99 -175 122 -30 24 -68 56 -84 73 -27 29 -27 31 -8 41 11 6 22 8 24 5 3
-3 9 7 12 22 5 18 3 30 -6 35 -7 5 -15 9 -18 9 -3 0 -22 -8 -43 -19z m58 -12
c0 -8 -10 -18 -22 -24 -13 -5 -25 -16 -28 -24 -3 -8 5 -25 17 -39 13 -13 50
-45 83 -72 33 -26 114 -83 180 -127 66 -44 168 -108 228 -143 59 -34 107 -66
107 -71 0 -4 -39 -76 -86 -158 -47 -83 -91 -151 -96 -151 -6 0 -36 14 -67 32
-31 17 -99 60 -151 96 -52 36 -120 85 -150 111 -30 25 -89 76 -130 113 -41 37
-106 102 -144 143 l-69 76 34 36 c19 19 72 68 119 108 47 40 101 82 120 94 19
11 40 19 45 18 6 -2 10 -10 10 -18z"/>
<path d="M3627 2563 c-4 -3 -7 -21 -7 -40 0 -26 4 -33 20 -33 14 0 20 -7 20
-21 0 -12 -16 -48 -35 -80 -20 -32 -60 -90 -90 -128 -38 -50 -53 -76 -48 -88
4 -10 29 -48 55 -84 26 -36 67 -99 91 -140 24 -41 48 -75 54 -76 6 -1 16 3 21
10 6 7 35 60 66 118 31 59 70 146 86 193 16 48 26 95 23 104 -3 9 -31 49 -62
87 -30 39 -80 96 -110 128 -30 31 -59 57 -66 57 -6 0 -15 -3 -18 -7z m175
-177 c43 -54 77 -103 75 -110 -2 -6 -14 -40 -26 -76 -12 -36 -50 -119 -84
-184 -35 -66 -68 -121 -74 -123 -6 -2 -27 25 -46 59 -20 35 -62 101 -95 147
l-60 84 54 69 c29 38 69 95 88 126 19 31 36 71 38 87 2 25 -1 31 -19 33 -16 2
-23 10 -23 26 0 12 3 26 7 30 4 3 24 -11 46 -31 21 -21 75 -82 119 -137z"/>
<path d="M5350 1791 c0 -55 -3 -106 -6 -115 -5 -13 -22 -16 -83 -16 -42 0 -86
-3 -98 -6 -13 -4 -23 -12 -23 -19 0 -7 10 -15 23 -19 12 -3 56 -6 98 -6 61 0
78 -3 83 -16 3 -9 6 -63 6 -120 0 -97 1 -104 20 -104 18 0 20 8 22 118 l3 117
70 2 c39 2 85 5 103 8 18 4 32 12 32 20 0 8 -14 16 -32 20 -18 3 -64 6 -103 8
l-70 2 -3 113 c-2 104 -4 112 -22 112 -19 0 -20 -7 -20 -99z m30 -10 c0 -55 3
-106 6 -115 5 -13 23 -16 89 -16 46 0 91 -3 100 -6 13 -5 14 -8 3 -15 -7 -5
-52 -9 -99 -9 -70 0 -88 -3 -93 -16 -3 -9 -6 -63 -6 -120 0 -63 -4 -104 -10
-104 -6 0 -10 39 -10 98 0 53 -3 107 -6 120 -6 21 -12 22 -89 22 -46 0 -91 3
-100 6 -13 5 -14 8 -3 15 7 5 52 9 99 9 81 0 87 1 93 23 3 12 6 64 6 115 0 54
4 92 10 92 6 0 10 -40 10 -99z"/>
<path d="M1566 1814 c-4 -9 -5 -18 -4 -18 2 -1 27 -20 56 -41 30 -22 81 -71
114 -110 33 -38 93 -119 133 -180 40 -60 98 -162 129 -225 30 -63 63 -136 72
-162 9 -27 23 -48 30 -48 8 0 14 10 14 24 0 13 -16 67 -35 119 -19 53 -50 127
-69 165 -19 38 -68 118 -108 178 -40 60 -106 144 -146 186 -41 43 -89 87 -106
97 -17 10 -41 22 -52 25 -15 5 -24 2 -28 -10z m173 -119 c42 -44 109 -129 149
-189 40 -60 91 -145 113 -189 22 -43 54 -115 70 -160 16 -44 29 -90 27 -101
-2 -14 -12 2 -27 44 -14 36 -48 112 -77 170 -28 58 -83 152 -122 210 -39 58
-97 136 -128 173 -32 38 -84 88 -116 112 -31 23 -54 45 -51 49 3 3 24 -4 45
-17 22 -12 74 -58 117 -102z"/>
<path d="M3480 1580 c-6 -11 -11 -57 -11 -103 0 -46 3 -97 7 -113 4 -16 11
-35 17 -41 5 -7 23 -13 39 -13 24 0 32 6 45 37 11 27 14 59 11 114 -3 58 -10
84 -27 108 -14 20 -31 31 -46 31 -14 0 -29 -9 -35 -20z m72 -22 c17 -25 24
-50 26 -104 3 -52 0 -80 -13 -103 -12 -24 -22 -31 -38 -29 -12 2 -28 15 -35
31 -8 16 -13 63 -13 118 0 54 5 97 12 105 6 8 17 14 25 14 7 0 23 -15 36 -32z"/>
<path d="M2827 513 c320 -2 846 -2 1170 0 323 1 62 2 -582 2 -643 0 -908 -1
-588 -2z"/>
</g>
</svg>
