<?xml version="1.0" standalone="no"?>
<!DOCTYPE svg PUBLIC "-//W3C//DTD SVG 20010904//EN"
 "http://www.w3.org/TR/2001/REC-SVG-20010904/DTD/svg10.dtd">
<svg version="1.0" xmlns="http://www.w3.org/2000/svg"
 width="800.000000pt" height="800.000000pt" viewBox="0 0 800.000000 800.000000"
 preserveAspectRatio="xMidYMid meet">
<metadata>
Created by potrace 1.16, written by Peter Selinger 2001-2019
</metadata>
<g transform="translate(0.000000,800.000000) scale(0.100000,-0.100000)"
fill="#000000" stroke="none">
<path d="M5524 4848 c-4 -7 -7 -318 -5 -693 1 -374 6 -684 10 -688 4 -4 68 -6
142 -5 l134 3 0 695 0 695 -137 3 c-100 2 -139 -1 -144 -10z m271 -688 l0
-685 -124 -3 c-68 -1 -128 1 -132 5 -4 4 -9 310 -10 678 -2 369 1 676 5 683 5
9 41 12 134 10 l127 -3 0 -685z"/>
<path d="M5556 4798 c-3 -13 -6 -300 -6 -638 0 -338 3 -625 6 -638 6 -21 11
-22 110 -22 l104 0 -2 658 -3 657 -101 3 c-98 3 -102 2 -108 -20z m202 -640
l2 -648 -94 0 c-74 0 -95 3 -100 15 -3 8 -6 294 -6 634 0 340 3 626 6 635 5
14 20 16 98 14 l91 -3 3 -647z"/>
<path d="M1795 4790 c-33 -6 -82 -17 -110 -26 -27 -8 -83 -31 -123 -50 -47
-23 -97 -58 -142 -100 -38 -36 -88 -95 -110 -130 -22 -35 -55 -106 -72 -157
-29 -84 -32 -103 -32 -217 -1 -92 4 -143 18 -194 10 -38 37 -105 59 -149 23
-46 64 -106 99 -143 33 -34 83 -78 111 -97 29 -19 81 -47 116 -61 35 -14 97
-33 137 -41 40 -8 113 -15 161 -15 54 0 121 8 172 20 47 11 114 35 150 52 44
21 90 56 137 103 39 38 81 90 94 115 13 25 31 67 41 95 9 27 22 51 27 53 5 1
12 -16 15 -39 3 -23 22 -75 41 -115 22 -43 57 -93 90 -126 31 -31 83 -68 120
-87 36 -17 96 -38 133 -46 37 -8 88 -15 113 -15 25 0 75 7 112 14 36 8 92 27
123 41 31 15 83 52 116 82 33 31 71 75 84 98 14 23 34 68 45 100 11 32 19 72
19 89 -1 23 -4 18 -10 -18 -4 -28 -24 -82 -43 -122 -26 -51 -54 -89 -100 -131
-35 -33 -93 -74 -128 -91 -37 -19 -96 -37 -141 -44 -60 -9 -94 -9 -154 0 -51
8 -103 25 -151 49 -43 22 -95 58 -126 89 -29 30 -70 85 -90 124 -22 42 -43
100 -51 143 -8 45 -14 61 -15 42 -2 -29 -2 -29 -9 -5 -6 21 -8 18 -14 -23 -4
-27 -21 -78 -39 -115 -22 -45 -57 -91 -108 -142 -56 -56 -94 -85 -150 -112
-41 -20 -107 -44 -147 -52 -40 -9 -111 -16 -158 -16 -47 0 -121 7 -163 16 -42
8 -114 33 -159 56 -54 26 -107 63 -152 104 -38 36 -88 94 -111 130 -23 37 -52
94 -65 128 -12 33 -28 92 -35 130 -8 42 -11 104 -7 160 3 50 15 122 27 159 12
38 33 90 47 115 14 26 38 65 54 88 15 22 57 68 93 102 47 43 94 75 159 106 50
25 119 50 152 57 33 7 105 13 160 12 57 0 130 -7 170 -17 39 -9 97 -30 130
-47 33 -16 81 -46 108 -65 26 -19 47 -38 47 -43 0 -4 -29 -49 -65 -99 -37 -51
-71 -92 -76 -92 -6 0 -30 14 -55 31 -24 16 -70 39 -102 50 -31 11 -92 23 -135
26 -57 4 -94 1 -143 -12 -36 -10 -92 -35 -125 -57 -34 -23 -76 -63 -99 -96
-22 -31 -49 -85 -60 -120 -12 -39 -20 -93 -20 -137 0 -44 8 -98 19 -134 10
-33 30 -80 44 -104 14 -24 46 -62 70 -84 25 -23 63 -51 85 -62 22 -11 79 -28
126 -37 73 -15 96 -15 154 -5 38 7 91 23 118 35 27 13 63 35 81 50 17 14 43
49 57 77 13 28 22 57 19 65 -4 11 -36 14 -167 14 -113 0 -166 4 -174 12 -8 8
-12 48 -12 113 0 65 4 105 12 113 9 9 88 12 294 12 250 0 283 -2 295 -17 8 -9
17 -41 21 -72 l6 -56 -2 62 c-1 34 -8 68 -15 77 -12 14 -51 16 -298 16 -177 0
-292 -4 -304 -10 -17 -10 -19 -22 -19 -125 0 -103 2 -115 19 -125 11 -6 87
-10 175 -10 85 0 157 -4 160 -8 3 -5 -8 -31 -24 -59 -17 -29 -44 -63 -62 -76
-18 -14 -51 -34 -73 -45 -22 -11 -69 -26 -103 -32 -49 -10 -79 -10 -135 -1
-40 7 -95 22 -123 35 -28 13 -71 41 -94 62 -24 22 -58 62 -76 90 -18 28 -40
77 -49 109 -13 42 -16 82 -13 145 3 74 9 98 37 154 18 37 55 89 81 116 27 26
80 63 117 82 64 31 73 33 173 32 81 0 116 -5 156 -21 28 -11 72 -34 97 -51 25
-18 55 -32 66 -32 14 0 40 28 86 92 36 50 65 99 65 109 0 11 -21 34 -47 53
-27 19 -72 47 -101 61 -29 14 -86 35 -127 45 -40 10 -111 21 -157 24 -46 3
-110 1 -143 -4z"/>
<path d="M1801 4749 c-35 -5 -95 -21 -135 -35 -39 -13 -95 -39 -125 -57 -29
-17 -76 -55 -105 -82 -28 -28 -68 -77 -89 -108 -21 -32 -49 -88 -62 -125 -13
-37 -29 -95 -36 -130 -7 -39 -10 -98 -6 -152 4 -60 15 -117 35 -175 16 -47 45
-110 63 -141 19 -30 56 -78 84 -106 27 -28 73 -66 102 -85 28 -18 76 -42 105
-53 29 -10 82 -26 118 -35 36 -8 102 -15 147 -15 45 0 113 7 151 15 38 8 93
23 122 35 29 11 71 33 94 49 22 16 63 51 89 77 27 28 63 80 82 119 18 39 39
90 46 115 7 25 13 86 13 135 0 50 -3 102 -7 118 l-7 27 -259 0 c-143 0 -266
-3 -275 -6 -13 -5 -16 -23 -16 -89 0 -66 3 -84 16 -89 9 -3 90 -6 180 -6 124
0 164 -3 165 -12 1 -7 0 -22 -1 -33 -1 -11 -13 -41 -26 -68 -14 -26 -42 -65
-63 -85 -22 -21 -63 -50 -92 -65 -30 -14 -87 -32 -126 -38 -56 -9 -90 -9 -145
0 -40 6 -102 25 -136 41 -41 19 -84 50 -120 88 -32 32 -69 83 -84 113 -15 31
-32 76 -37 100 -6 24 -11 76 -11 115 0 39 7 95 16 125 9 30 29 77 45 105 16
28 53 73 82 101 30 28 76 62 103 76 27 13 73 30 102 36 29 6 79 11 110 11 32
0 85 -7 117 -15 33 -9 86 -31 118 -50 32 -19 64 -35 71 -35 7 0 33 29 59 65
26 36 47 71 47 79 0 7 -17 25 -37 39 -21 14 -63 37 -93 51 -30 14 -80 31 -110
39 -30 8 -91 17 -135 20 -44 3 -109 1 -144 -4z m279 -26 c30 -8 82 -28 115
-45 33 -16 73 -40 89 -53 l28 -23 -42 -58 c-24 -33 -46 -63 -50 -67 -4 -5 -25
2 -46 16 -22 13 -66 34 -99 46 -33 13 -92 25 -132 28 -41 3 -99 0 -134 -6 -34
-7 -86 -23 -116 -36 -29 -13 -78 -47 -108 -76 -30 -28 -65 -70 -79 -93 -13
-22 -34 -74 -46 -115 -19 -60 -22 -89 -18 -165 4 -73 12 -106 38 -170 25 -59
47 -93 91 -137 34 -36 79 -69 112 -85 31 -13 88 -32 129 -40 47 -10 95 -14
134 -10 34 4 86 13 115 22 30 9 77 32 105 50 28 19 64 52 79 75 16 22 36 63
46 90 9 28 14 59 12 70 -5 17 -19 19 -182 21 l-176 3 0 80 0 80 259 3 c198 2
261 -1 267 -10 4 -7 11 -40 14 -73 4 -33 1 -91 -5 -130 -6 -38 -26 -101 -44
-140 -18 -38 -50 -90 -71 -115 -20 -25 -61 -62 -89 -84 -28 -21 -76 -49 -106
-63 -30 -13 -86 -31 -123 -39 -38 -8 -104 -14 -148 -14 -44 0 -112 7 -152 16
-40 9 -104 32 -143 51 -38 18 -92 51 -118 73 -26 21 -65 61 -87 87 -22 26 -58
84 -80 128 -22 44 -46 112 -54 150 -8 39 -15 101 -15 138 0 37 7 100 16 140 9
40 29 99 45 133 15 33 51 90 78 125 28 36 77 85 108 109 32 23 90 58 128 75
39 18 97 38 130 44 33 6 71 13 85 15 14 2 61 2 105 -1 44 -3 105 -12 135 -20z"/>
<path d="M2908 4449 c-21 -5 -67 -22 -103 -38 -39 -18 -88 -52 -124 -85 -32
-31 -70 -79 -86 -107 -15 -28 -34 -74 -41 -103 -8 -28 -13 -60 -13 -71 0 -11
8 9 18 45 9 36 30 89 45 117 16 29 55 78 87 108 36 35 87 69 136 93 l78 37
136 0 135 0 80 -39 c54 -27 98 -59 140 -100 37 -37 73 -86 92 -126 18 -36 36
-85 41 -110 6 -29 9 -36 10 -19 1 14 -8 52 -19 84 -11 32 -34 80 -51 107 -17
26 -54 68 -81 93 -28 25 -78 58 -112 74 -34 17 -82 35 -106 40 -25 6 -85 10
-135 10 -49 -1 -107 -5 -127 -10z"/>
<path d="M3918 4449 c-21 -5 -66 -22 -100 -37 -35 -16 -84 -48 -110 -71 -25
-22 -62 -65 -81 -93 -19 -29 -44 -83 -56 -120 -13 -37 -21 -76 -19 -85 2 -10
11 12 20 50 10 37 30 88 45 115 15 26 53 73 85 105 39 39 81 69 134 94 70 33
86 37 183 41 76 3 124 0 167 -11 33 -9 88 -31 120 -51 33 -19 80 -56 105 -83
25 -27 58 -70 74 -97 16 -27 36 -76 46 -110 10 -34 18 -52 18 -40 1 11 -8 47
-19 79 -11 32 -34 80 -50 106 -17 26 -53 67 -79 92 -27 25 -71 57 -100 71 -28
15 -76 33 -108 41 -32 9 -96 15 -148 14 -49 -1 -107 -5 -127 -10z"/>
<path d="M4918 4450 c-25 -5 -75 -22 -110 -39 -42 -20 -84 -51 -121 -90 -33
-35 -70 -87 -87 -123 -16 -35 -32 -83 -35 -108 -5 -43 -4 -42 9 11 8 31 30 83
50 115 19 33 59 83 90 112 31 30 85 67 123 84 60 28 77 32 159 32 80 0 98 -4
149 -29 47 -23 62 -26 76 -16 11 6 61 11 119 11 88 0 100 -2 110 -19 6 -13 10
-168 10 -435 0 -241 -4 -447 -11 -492 -6 -43 -19 -101 -30 -129 -11 -29 -36
-76 -57 -106 -20 -29 -60 -70 -87 -91 -28 -21 -79 -47 -114 -58 -45 -14 -91
-20 -161 -20 -67 0 -117 6 -158 18 -32 11 -83 35 -113 55 -30 20 -67 52 -82
72 -16 19 -37 54 -47 78 -11 23 -20 50 -20 59 0 9 5 20 12 24 6 4 54 20 107
35 l96 29 20 -24 c11 -14 28 -35 37 -49 9 -13 32 -32 51 -41 20 -9 60 -16 90
-16 31 0 68 5 84 11 15 5 41 22 57 37 15 15 37 46 47 70 11 24 19 55 19 68 0
13 -3 24 -7 24 -4 0 -27 -10 -52 -22 -39 -20 -62 -23 -151 -23 -99 0 -110 2
-172 33 -45 22 -85 52 -124 95 -33 35 -72 88 -87 119 -16 31 -31 76 -35 100
-5 38 -7 40 -13 18 -7 -24 -7 -24 -9 5 -1 23 -5 17 -16 -29 -8 -32 -29 -86
-47 -119 -17 -34 -56 -85 -86 -114 -31 -31 -83 -68 -125 -88 -45 -22 -99 -39
-148 -47 -60 -9 -96 -9 -153 0 -41 6 -104 26 -140 43 -36 17 -93 56 -126 86
-33 31 -75 84 -94 118 -19 34 -41 91 -49 126 -8 35 -14 55 -15 44 -1 -12 6
-48 15 -80 8 -33 27 -80 41 -105 14 -25 44 -65 67 -88 22 -24 60 -57 84 -74
23 -16 73 -40 111 -53 38 -13 98 -27 133 -31 38 -4 94 -2 132 5 37 7 92 21
122 32 29 11 81 41 113 65 34 26 77 71 100 105 22 33 48 85 58 115 9 30 21 53
27 51 5 -2 17 -23 25 -48 9 -25 28 -66 43 -91 15 -25 54 -70 87 -101 39 -35
81 -63 118 -78 35 -13 90 -24 139 -27 59 -3 97 0 140 13 32 9 65 22 72 27 9 8
12 5 12 -11 0 -12 -7 -36 -16 -54 -9 -18 -28 -45 -43 -60 -14 -16 -38 -35 -53
-43 -15 -8 -53 -14 -85 -14 -46 0 -66 5 -95 25 -20 14 -46 42 -59 64 -16 28
-27 38 -43 36 -11 -1 -65 -15 -119 -30 -56 -16 -101 -35 -104 -43 -3 -8 1 -38
10 -66 9 -29 31 -71 49 -95 18 -23 56 -57 83 -75 28 -19 81 -43 119 -55 49
-15 95 -21 165 -21 68 0 116 6 166 21 39 11 92 36 118 55 26 19 63 55 82 82
19 26 46 79 60 117 14 39 29 102 35 140 5 39 10 258 10 487 0 247 -4 427 -10
442 -9 26 -10 26 -123 26 -62 0 -117 -4 -123 -10 -6 -6 -24 -3 -50 10 -23 11
-67 25 -100 30 -32 6 -68 9 -79 9 -11 -1 -41 -5 -67 -9z"/>
<path d="M6200 4450 c-20 -5 -58 -18 -85 -30 -28 -12 -73 -39 -100 -59 -28
-21 -68 -63 -89 -93 -21 -31 -49 -86 -62 -123 -16 -45 -27 -99 -30 -159 -4
-64 -1 -113 10 -164 8 -40 29 -102 47 -138 21 -43 53 -84 94 -123 35 -32 82
-68 106 -79 24 -12 73 -29 109 -38 36 -9 102 -17 146 -16 46 0 107 7 140 17
32 9 80 28 107 42 27 13 69 43 94 66 24 22 51 54 59 70 9 16 13 34 11 41 -3 7
-43 38 -90 69 -47 31 -94 57 -105 57 -10 0 -27 -9 -38 -21 -10 -12 -38 -32
-60 -45 -23 -14 -64 -27 -90 -30 -27 -4 -67 -1 -90 5 -22 6 -59 27 -82 47 -23
19 -42 40 -42 45 0 5 17 16 38 25 20 8 152 60 292 113 140 54 263 101 273 104
10 4 17 17 17 31 0 13 -8 51 -19 85 -10 33 -30 80 -44 103 -14 24 -48 64 -75
90 -27 25 -68 56 -90 67 -23 12 -67 28 -99 36 -31 8 -93 15 -138 14 -44 -1
-96 -5 -115 -9z m323 -43 c49 -24 91 -55 126 -92 28 -30 65 -84 82 -119 17
-35 31 -83 32 -107 l2 -43 -305 -118 c-168 -64 -308 -119 -312 -120 -4 -2 -2
-14 5 -27 7 -13 28 -37 47 -53 21 -17 59 -33 92 -40 43 -9 68 -9 111 1 32 7
74 26 98 44 23 18 47 36 54 41 8 6 41 -10 100 -50 49 -33 90 -65 92 -71 2 -6
-19 -36 -48 -67 -37 -41 -73 -67 -133 -96 -58 -29 -102 -43 -154 -49 -44 -6
-100 -6 -140 0 -37 5 -83 14 -102 20 -19 6 -55 23 -80 37 -25 14 -69 48 -98
76 -29 28 -69 78 -88 112 -19 34 -42 95 -50 136 -11 51 -14 100 -10 163 3 50
13 113 22 140 9 28 36 80 60 117 25 40 64 82 96 106 29 22 72 49 95 61 24 12
60 26 80 31 21 5 86 8 145 6 100 -2 112 -5 181 -39z"/>
<path d="M6168 4396 c-37 -13 -83 -33 -102 -45 -20 -12 -54 -43 -77 -69 -23
-26 -53 -71 -67 -100 -13 -30 -30 -77 -38 -105 -8 -29 -14 -89 -14 -134 0 -60
7 -103 25 -162 16 -50 41 -101 68 -138 24 -32 68 -75 98 -95 30 -20 86 -46
124 -58 45 -14 99 -22 150 -22 50 -1 103 5 140 16 33 10 77 27 98 38 22 11 58
37 82 59 23 22 45 48 48 58 3 13 -11 29 -57 59 -34 23 -67 42 -75 42 -8 0 -28
-11 -45 -24 -17 -12 -45 -30 -63 -39 -17 -9 -56 -19 -86 -23 -36 -4 -71 -1
-108 9 -31 10 -73 32 -97 53 -23 20 -50 50 -58 66 -9 17 -12 34 -7 38 4 5 145
61 313 125 168 65 309 121 314 126 5 5 0 34 -13 71 -13 35 -39 87 -58 116 -20
29 -56 67 -82 86 -25 19 -77 43 -115 55 -46 14 -95 21 -150 21 -59 0 -99 -7
-148 -24z m291 -5 c34 -11 86 -37 115 -59 29 -22 67 -63 85 -91 18 -28 42 -74
52 -102 13 -32 16 -56 11 -61 -5 -5 -54 -27 -108 -48 -55 -21 -191 -73 -304
-115 -113 -43 -209 -82 -214 -86 -4 -4 -3 -23 4 -43 6 -20 31 -53 57 -76 25
-22 62 -44 82 -50 20 -6 54 -13 77 -16 22 -4 66 -1 97 6 33 7 78 26 108 46
l50 35 49 -31 c27 -17 54 -38 61 -46 10 -12 7 -20 -17 -46 -16 -17 -52 -45
-80 -64 -28 -18 -77 -40 -110 -50 -36 -11 -90 -17 -139 -16 -51 0 -104 8 -147
21 -38 12 -91 40 -125 65 -36 26 -76 68 -101 106 -23 34 -51 91 -62 127 -13
43 -20 93 -20 147 0 44 6 104 14 131 7 28 24 73 38 100 14 28 45 71 68 98 23
26 63 60 88 74 26 15 69 35 97 45 31 11 81 17 132 18 53 0 103 -7 142 -19z"/>
<path d="M6257 4246 c-27 -7 -67 -26 -90 -43 -26 -18 -52 -49 -70 -84 -16 -31
-29 -73 -30 -99 -2 -39 1 -45 19 -48 11 -2 104 29 207 67 103 39 197 75 207
81 11 6 20 19 20 28 0 10 -15 33 -34 51 -24 23 -52 37 -93 47 -32 8 -65 13
-73 13 -8 0 -37 -6 -63 -13z m168 -21 c17 -7 44 -27 60 -45 l30 -32 -24 -17
c-13 -9 -105 -46 -203 -83 -99 -38 -186 -68 -194 -68 -8 0 -17 6 -20 14 -3 8
0 33 6 56 6 24 23 60 38 82 14 22 45 53 68 69 24 16 60 33 81 38 21 6 58 7 83
4 25 -3 59 -11 75 -18z"/>
<path d="M6261 4209 c-29 -7 -57 -24 -86 -54 -26 -25 -49 -60 -56 -84 -7 -23
-9 -44 -6 -47 3 -4 83 22 176 57 130 47 171 67 171 80 0 9 -15 24 -34 33 -19
9 -54 18 -78 21 -24 2 -63 -1 -87 -6z m119 -9 c19 -6 44 -17 54 -25 11 -8 17
-17 14 -21 -3 -3 -77 -32 -164 -65 -86 -33 -160 -57 -163 -53 -3 3 6 26 20 52
14 25 42 59 62 75 19 16 50 33 69 37 18 4 42 8 53 9 11 0 36 -4 55 -9z"/>
<path d="M2876 4396 c-37 -14 -85 -36 -105 -49 -20 -13 -55 -44 -79 -68 -24
-24 -56 -71 -73 -105 -17 -33 -36 -97 -44 -143 -11 -62 -12 -99 -5 -151 5 -38
19 -93 30 -123 11 -30 35 -76 52 -102 17 -26 56 -67 86 -90 30 -24 80 -53 111
-65 31 -12 90 -26 131 -32 62 -9 89 -8 154 5 44 9 103 28 132 42 29 14 78 50
108 80 31 31 67 77 80 103 14 27 32 76 40 109 9 34 16 96 16 140 0 45 -8 106
-18 145 -11 36 -33 89 -51 117 -18 28 -57 73 -86 100 -33 30 -80 59 -122 76
-57 23 -86 29 -178 32 -98 3 -118 1 -179 -21z m367 -29 c48 -24 91 -55 123
-89 28 -29 63 -74 78 -100 15 -26 34 -71 42 -100 7 -29 14 -89 14 -133 0 -44
-6 -102 -14 -130 -7 -27 -25 -74 -40 -102 -14 -29 -51 -78 -82 -108 -31 -30
-84 -68 -117 -85 -34 -16 -95 -35 -134 -41 -56 -9 -90 -9 -145 0 -40 6 -101
25 -136 42 -34 17 -87 55 -118 84 -36 36 -66 78 -89 127 -21 45 -39 101 -45
145 -7 55 -6 91 4 152 9 48 27 103 46 139 17 32 52 80 78 106 26 27 67 60 92
74 25 15 67 35 95 45 40 14 73 17 162 14 105 -3 116 -5 186 -40z"/>
<path d="M2946 4226 c-21 -8 -55 -28 -75 -44 -20 -16 -49 -55 -66 -87 -22 -43
-30 -75 -33 -128 -3 -48 1 -88 14 -129 12 -41 32 -76 61 -108 24 -27 62 -55
85 -65 24 -9 68 -17 98 -17 30 -1 73 4 96 11 22 6 59 27 81 46 24 20 53 60 69
92 16 35 29 82 32 118 3 40 -1 80 -11 116 -9 30 -28 72 -43 95 -14 22 -48 55
-75 74 -42 28 -59 33 -121 37 -47 2 -87 -2 -112 -11z m189 -15 c22 -10 56 -35
76 -54 19 -20 46 -58 60 -84 20 -40 24 -62 24 -133 0 -69 -5 -93 -23 -127 -12
-23 -36 -58 -53 -77 -16 -19 -50 -45 -75 -57 -32 -15 -64 -21 -108 -21 -43 0
-74 6 -103 20 -22 12 -59 42 -81 67 -22 25 -48 67 -56 92 -9 26 -16 73 -16
106 0 33 5 77 11 97 7 21 28 60 48 86 22 30 56 59 90 76 40 21 67 28 110 28
33 0 72 -8 96 -19z"/>
<path d="M2945 4182 c-23 -11 -54 -34 -69 -53 -16 -19 -38 -54 -48 -79 -11
-25 -20 -69 -20 -100 -1 -30 5 -73 12 -95 7 -22 24 -57 38 -78 14 -20 39 -46
56 -56 17 -11 53 -25 78 -30 34 -8 62 -8 99 0 37 8 64 22 95 51 29 26 50 59
65 96 15 42 20 73 17 119 -3 42 -13 79 -34 119 -19 39 -44 68 -72 88 -35 25
-54 31 -110 34 -50 2 -77 -2 -107 -16z m201 -24 c36 -25 57 -49 81 -96 26 -50
33 -76 33 -120 0 -35 -8 -74 -21 -102 -11 -25 -35 -60 -52 -78 -18 -19 -45
-41 -62 -49 -17 -9 -54 -16 -86 -16 -43 0 -67 6 -102 26 -26 16 -57 46 -76 75
-17 27 -35 71 -40 98 -5 27 -6 68 -2 91 5 22 19 61 34 85 14 23 36 53 49 64
12 12 37 29 53 37 17 9 55 16 86 17 48 0 64 -5 105 -32z"/>
<path d="M3888 4396 c-37 -13 -82 -33 -101 -45 -19 -11 -55 -43 -80 -70 -25
-26 -57 -71 -71 -100 -15 -28 -33 -76 -41 -108 -8 -31 -15 -89 -15 -128 0 -39
7 -98 15 -130 9 -33 28 -84 43 -114 14 -29 50 -77 78 -105 29 -28 77 -64 107
-79 31 -15 86 -34 124 -43 44 -10 91 -14 134 -11 36 3 91 13 122 22 30 9 82
33 114 54 33 21 75 58 95 82 20 24 45 62 56 84 11 22 27 64 36 94 9 32 16 91
16 142 0 60 -6 108 -21 155 -12 38 -32 88 -46 111 -13 23 -51 66 -83 96 -38
35 -82 64 -126 82 -58 24 -86 29 -179 32 -97 3 -118 1 -177 -21z m355 -23 c37
-18 92 -55 122 -84 31 -29 68 -75 84 -103 16 -28 36 -75 45 -105 9 -32 16 -91
16 -141 0 -48 -7 -109 -15 -137 -8 -28 -27 -73 -42 -99 -15 -27 -50 -72 -78
-100 -28 -28 -80 -65 -116 -83 -39 -19 -97 -37 -139 -44 -54 -8 -89 -8 -143 1
-40 7 -100 27 -135 44 -35 18 -85 54 -112 80 -26 26 -62 71 -79 101 -16 29
-37 80 -46 112 -8 33 -15 91 -15 130 0 39 7 96 15 127 8 30 30 82 49 115 19
32 57 80 84 105 27 25 69 56 93 69 24 12 62 28 84 35 26 9 79 13 150 11 100
-2 116 -5 178 -34z"/>
<path d="M3964 4230 c-18 -6 -54 -30 -82 -55 -30 -27 -58 -64 -71 -94 -12 -28
-24 -77 -27 -110 -5 -45 -2 -75 15 -131 18 -58 31 -81 70 -120 33 -33 63 -53
92 -61 24 -6 69 -12 99 -11 31 0 73 7 95 16 22 10 57 33 77 53 20 20 47 59 59
86 11 28 24 76 26 107 3 30 0 81 -6 112 -8 34 -26 76 -49 109 -25 36 -53 61
-86 78 -36 18 -68 26 -115 28 -36 1 -80 -2 -97 -7z m197 -28 c41 -21 64 -42
96 -90 31 -46 43 -76 49 -118 3 -30 4 -75 0 -100 -3 -24 -15 -63 -27 -87 -12
-23 -35 -57 -53 -75 -17 -19 -49 -43 -71 -54 -27 -14 -58 -20 -101 -20 -44 0
-76 6 -108 21 -25 12 -59 39 -77 59 -18 20 -41 56 -53 81 -16 35 -21 66 -21
126 1 65 5 89 25 128 13 27 44 66 68 88 24 22 57 47 75 54 18 8 57 14 88 15
43 0 70 -7 110 -28z"/>
<path d="M3951 4178 c-25 -12 -57 -40 -76 -67 -20 -27 -38 -68 -46 -104 -9
-45 -10 -73 -1 -120 6 -33 23 -77 36 -98 14 -20 40 -49 59 -63 19 -14 55 -30
80 -35 27 -5 67 -5 94 0 26 5 64 20 84 34 24 15 47 44 65 81 17 35 30 79 32
114 3 35 -2 79 -12 111 -8 30 -30 71 -47 93 -18 21 -51 47 -73 57 -24 11 -64
19 -96 19 -37 0 -70 -7 -99 -22z m194 -11 c21 -12 54 -41 72 -65 18 -23 37
-59 43 -80 5 -20 10 -60 10 -89 0 -38 -8 -67 -33 -114 -25 -48 -43 -70 -79
-92 -38 -24 -58 -29 -109 -29 -52 0 -68 5 -103 29 -22 16 -55 50 -73 76 -21
32 -34 65 -38 102 -5 33 -3 74 4 101 6 25 24 64 39 86 15 23 47 54 71 70 36
22 57 28 100 28 39 0 68 -7 96 -23z"/>
<path d="M4920 4410 c-24 -6 -69 -22 -99 -37 -31 -15 -77 -48 -102 -74 -26
-25 -57 -66 -69 -90 -13 -24 -31 -68 -42 -99 -10 -30 -21 -89 -25 -130 -4 -54
-1 -93 11 -140 9 -36 28 -89 41 -118 14 -30 39 -71 56 -93 17 -22 51 -54 77
-71 25 -17 72 -39 104 -50 33 -10 88 -18 121 -18 34 0 84 7 111 15 27 8 64 26
82 40 18 14 38 25 44 25 9 0 10 -16 5 -57 -4 -32 -16 -78 -26 -103 -11 -25
-32 -58 -47 -73 -15 -16 -44 -37 -64 -48 -25 -13 -58 -19 -99 -19 -44 0 -75 6
-107 23 -25 12 -57 39 -71 59 -14 21 -30 37 -35 38 -5 0 -45 -10 -89 -21 l-79
-22 6 -35 c3 -19 17 -52 31 -73 14 -22 46 -54 72 -73 25 -18 79 -44 118 -56
61 -19 87 -22 176 -18 76 4 120 11 163 28 33 12 79 41 103 63 25 23 55 59 68
81 13 23 34 73 46 111 23 68 24 81 26 495 2 234 0 444 -3 468 l-5 42 -85 0
c-60 0 -84 -3 -84 -12 0 -7 -4 -19 -9 -27 -7 -11 -15 -9 -43 12 -19 15 -53 33
-76 41 -23 8 -68 17 -99 20 -32 3 -78 1 -103 -4z m199 -26 c19 -8 51 -27 70
-42 20 -14 41 -27 47 -28 7 -1 15 11 18 27 5 29 6 29 80 29 l75 0 5 -32 c3
-18 5 -226 3 -463 -2 -385 -5 -436 -21 -485 -10 -30 -27 -72 -38 -93 -10 -21
-36 -56 -56 -79 -20 -22 -53 -51 -73 -64 -20 -12 -60 -29 -89 -38 -32 -10 -91
-16 -145 -16 -65 0 -108 6 -151 20 -32 11 -81 36 -107 56 -26 19 -61 56 -78
81 -16 26 -29 55 -29 65 0 13 14 22 53 32 28 8 63 18 77 21 21 5 28 0 43 -25
10 -17 37 -43 60 -57 32 -20 59 -27 113 -31 43 -3 86 1 109 8 21 7 55 28 76
47 23 21 46 55 58 87 11 29 23 80 27 114 6 54 4 60 -12 64 -11 2 -37 -10 -60
-27 -23 -18 -62 -37 -88 -45 -28 -8 -75 -11 -120 -8 -54 4 -90 13 -133 33 -32
16 -80 52 -108 80 -27 28 -62 76 -77 106 -15 30 -35 84 -44 119 -12 47 -15 86
-11 140 4 41 14 97 23 124 9 26 28 69 42 95 15 25 47 66 72 91 25 25 69 58 97
73 29 15 72 32 95 37 24 5 70 7 103 4 32 -3 75 -12 94 -20z"/>
<path d="M4975 4231 c-16 -4 -43 -15 -60 -23 -16 -9 -42 -29 -56 -45 -14 -15
-32 -39 -41 -53 -8 -14 -21 -49 -28 -79 -7 -31 -10 -77 -7 -110 3 -31 11 -73
17 -94 7 -23 33 -61 63 -92 35 -35 65 -57 92 -64 22 -6 54 -11 70 -11 17 0 48
5 70 11 25 7 58 29 86 58 37 36 51 61 68 115 11 37 21 85 21 106 0 21 -9 66
-20 101 -11 35 -33 81 -51 102 -17 21 -47 46 -68 56 -20 11 -57 21 -81 24 -25
3 -58 2 -75 -2z m157 -37 c21 -13 52 -43 68 -66 17 -23 38 -66 46 -97 11 -35
14 -73 11 -107 -3 -29 -15 -74 -27 -101 -11 -26 -35 -63 -53 -82 -18 -18 -50
-42 -72 -52 -22 -10 -58 -19 -80 -19 -22 0 -58 9 -80 19 -23 10 -60 40 -83 66
-27 31 -48 68 -58 103 -11 37 -15 77 -11 118 3 37 14 81 27 106 12 24 32 54
43 67 12 13 38 34 58 46 20 13 47 25 60 28 13 3 44 3 68 0 24 -3 61 -16 83
-29z"/>
<path d="M4975 4192 c-11 -4 -33 -15 -50 -25 -16 -10 -42 -35 -56 -55 -15 -20
-32 -55 -38 -77 -6 -22 -11 -60 -11 -85 0 -25 5 -63 11 -85 6 -22 24 -58 40
-81 15 -23 45 -49 65 -59 20 -9 54 -20 74 -22 23 -3 56 1 83 12 25 9 55 27 66
39 11 12 30 43 41 69 12 27 24 72 27 101 4 39 0 70 -16 118 -13 40 -33 76 -54
96 -17 17 -49 38 -69 46 -21 9 -50 16 -65 15 -15 -1 -37 -4 -48 -7z m99 -12
c14 -5 43 -25 65 -45 26 -23 48 -56 61 -91 11 -30 20 -71 20 -90 0 -19 -5 -54
-11 -77 -6 -23 -23 -60 -38 -82 -15 -22 -45 -50 -66 -62 -22 -13 -55 -23 -74
-23 -19 0 -54 10 -79 21 -30 15 -55 38 -80 77 -35 53 -37 59 -37 141 0 72 4
92 22 122 13 20 34 48 48 61 14 14 40 33 58 42 17 8 44 16 59 16 15 0 38 -4
52 -10z"/>
</g>
</svg>
