<?xml version="1.0" standalone="no"?>
<!DOCTYPE svg PUBLIC "-//W3C//DTD SVG 20010904//EN"
 "http://www.w3.org/TR/2001/REC-SVG-20010904/DTD/svg10.dtd">
<svg version="1.0" xmlns="http://www.w3.org/2000/svg"
 width="800.000000pt" height="800.000000pt" viewBox="0 0 800.000000 800.000000"
 preserveAspectRatio="xMidYMid meet">
<metadata>
Created by potrace 1.16, written by Peter Selinger 2001-2019
</metadata>
<g transform="translate(0.000000,800.000000) scale(0.100000,-0.100000)"
fill="#000000" stroke="none">
<path d="M350 7993 c0 -7 63 -83 141 -170 77 -87 154 -170 170 -184 27 -24 30
-31 27 -80 l-3 -54 -60 -5 -60 -5 -2 -2077 c-2 -1142 1 -2079 6 -2082 4 -3 38
19 74 49 37 30 96 90 133 132 36 43 98 125 136 183 38 58 108 184 155 280 47
96 93 191 104 211 10 20 19 39 19 42 0 3 -16 25 -37 49 -20 23 -45 63 -56 88
-13 29 -19 64 -19 102 1 34 9 76 20 102 11 24 39 63 62 85 29 28 60 46 98 57
33 10 71 14 96 11 23 -4 51 -9 61 -12 18 -6 18 -5 3 4 -9 6 -36 14 -61 17 -28
4 -65 0 -103 -11 -47 -13 -69 -27 -110 -69 -34 -35 -54 -66 -63 -97 -7 -25
-13 -66 -13 -90 -1 -25 7 -68 16 -96 9 -28 35 -72 57 -96 l39 -45 -30 -59
c-17 -32 -61 -123 -99 -203 -38 -80 -101 -194 -141 -255 -40 -60 -102 -144
-137 -187 -36 -42 -88 -95 -116 -119 -29 -23 -60 -49 -69 -57 -17 -14 -17 95
-15 2059 l2 2074 60 5 60 5 3 63 3 62 3292 -2 3292 -3 5 -60 5 -60 60 -3 c33
-2 63 -9 67 -15 5 -8 8 -7 8 5 0 14 -11 18 -62 20 l-63 3 -3 40 c-1 22 -5 50
-7 63 l-5 22 -3303 0 -3304 0 -149 166 c-82 92 -157 176 -166 188 -10 11 -18
16 -18 9z"/>
<path d="M420 5450 l0 -2170 23 0 c12 0 39 8 60 18 l38 17 -1 2103 0 2103 -42
50 c-22 27 -49 49 -60 49 -17 0 -18 -68 -18 -2170z m68 2111 l42 -50 1 -2093
0 -2093 -33 -17 c-18 -10 -41 -18 -50 -18 -17 0 -18 110 -18 2160 0 1188 4
2160 8 2160 5 0 28 -22 50 -49z"/>
<path d="M7492 7572 l-43 -37 0 -2075 0 -2075 43 -32 c24 -18 49 -33 56 -33 9
0 12 271 13 1318 1 724 3 1560 5 1857 2 297 0 669 -3 828 -4 202 -9 287 -17
287 -6 0 -30 -17 -54 -38z m60 -2262 c-3 -1086 -5 -1976 -6 -1978 -2 -1 -22
11 -44 28 l-42 30 -2 2066 -3 2067 45 38 45 39 5 -158 c3 -86 4 -1046 2 -2132z"/>
<path d="M7425 5400 c0 -1092 1 -1538 2 -992 2 545 2 1439 0 1985 -1 545 -2
99 -2 -993z"/>
<path d="M6632 4721 c-29 -10 -69 -34 -88 -52 -20 -19 -40 -43 -46 -54 -6 -11
6 -1 26 22 20 23 55 51 79 62 23 11 67 25 97 30 43 7 48 9 20 10 -19 0 -59 -8
-88 -18z"/>
<path d="M6761 4726 c2 -2 18 -6 34 -10 22 -5 26 -4 15 4 -8 5 -24 10 -34 10
-11 0 -17 -2 -15 -4z"/>
<path d="M1256 4700 c-15 -5 -46 -21 -67 -36 -25 -17 -49 -47 -66 -83 -22 -43
-28 -70 -28 -116 1 -43 8 -74 26 -109 13 -27 41 -63 61 -79 31 -25 48 -30 106
-35 39 -2 92 1 120 7 31 8 62 24 82 44 17 17 39 45 48 61 12 22 17 56 17 112
0 72 -3 86 -30 130 -18 29 -49 60 -77 77 -33 21 -62 30 -105 33 -32 2 -71 -1
-87 -6z m191 -42 c45 -32 48 -37 45 -74 -2 -21 -10 -46 -18 -54 -11 -11 -19
-12 -32 -4 -9 6 -24 23 -32 37 -11 20 -12 31 -4 44 6 10 22 21 35 24 l24 7
-25 1 c-15 1 -31 -4 -38 -11 -7 -7 -12 -24 -12 -39 0 -14 9 -38 21 -53 11 -15
31 -26 44 -26 12 0 27 6 33 13 6 6 12 28 14 47 l3 34 20 -29 c16 -24 20 -47
20 -110 0 -73 -3 -84 -30 -121 -16 -23 -45 -52 -64 -65 -30 -21 -46 -24 -126
-24 -85 0 -94 2 -128 28 -20 15 -48 47 -62 71 -14 24 -28 66 -32 94 -4 40 -1
60 20 106 14 31 38 68 54 82 15 15 46 35 68 46 30 14 55 18 97 14 46 -3 68
-11 105 -38z"/>
<path d="M1208 4637 c-15 -12 -34 -39 -43 -59 -8 -21 -15 -41 -15 -46 0 -5 11
-14 25 -20 18 -8 25 -20 25 -39 0 -16 10 -48 21 -73 11 -25 30 -56 42 -68 12
-13 45 -35 72 -48 28 -14 41 -18 30 -9 -11 9 -36 26 -55 38 -19 12 -47 40 -62
62 -15 22 -30 56 -33 75 -3 19 -10 43 -16 53 -7 13 -4 30 9 60 11 23 29 50 40
61 12 10 19 23 16 27 -3 5 -11 9 -17 9 -7 0 -24 -10 -39 -23z m25 -9 c-11 -13
-30 -43 -41 -67 -10 -24 -22 -39 -26 -33 -3 6 -2 21 3 34 5 13 21 38 36 56 15
18 32 32 38 32 6 0 1 -10 -10 -22z"/>
<path d="M6646 4698 c-23 -7 -58 -29 -86 -57 -36 -34 -52 -60 -64 -100 -9 -30
-16 -64 -16 -76 0 -12 7 -46 16 -75 10 -35 29 -67 53 -91 22 -22 54 -42 81
-49 25 -7 71 -13 103 -12 41 0 72 7 105 24 32 17 56 39 77 72 22 36 30 63 33
110 2 34 -1 81 -8 105 -8 29 -27 59 -58 90 -34 34 -61 51 -94 59 -26 7 -59 12
-75 11 -15 -1 -46 -6 -67 -11z m135 -10 c22 -6 57 -26 78 -45 22 -18 49 -53
61 -78 18 -37 21 -59 18 -113 -3 -53 -10 -76 -32 -110 -16 -23 -44 -52 -64
-64 -19 -11 -53 -25 -76 -29 -22 -4 -66 -3 -97 3 -38 6 -69 20 -93 40 -20 16
-46 49 -58 71 -16 30 -22 60 -22 102 0 42 6 72 22 101 12 23 40 58 64 78 23
20 56 40 73 45 16 5 43 10 59 10 16 1 46 -4 67 -11z"/>
<path d="M6785 4651 c-3 -5 8 -24 25 -42 16 -19 35 -48 41 -67 6 -18 13 -31
16 -29 2 3 -4 26 -15 50 -11 25 -30 55 -42 67 -18 18 -19 21 -4 18 9 -1 30
-20 47 -40 19 -24 30 -49 30 -68 0 -19 4 -27 10 -21 6 6 5 23 -3 45 -6 20 -25
50 -42 66 -16 17 -36 30 -43 30 -8 0 -16 -4 -20 -9z"/>
<path d="M6566 4609 c-14 -17 -26 -37 -26 -45 0 -9 5 -24 10 -35 7 -12 21 -19
39 -19 15 0 35 8 44 18 8 9 18 29 22 44 5 19 1 32 -14 47 -12 12 -27 21 -35
21 -8 0 -26 -14 -40 -31z m70 0 c17 -18 17 -23 4 -46 -8 -14 -23 -31 -32 -37
-13 -8 -23 -8 -35 0 -10 6 -19 20 -21 31 -2 10 7 31 18 46 12 15 27 27 34 27
7 0 21 -9 32 -21z"/>
<path d="M6836 4488 c-3 -13 -6 -32 -6 -44 0 -11 -13 -41 -30 -67 -21 -33 -45
-55 -87 -77 -32 -17 -47 -28 -33 -24 14 4 41 15 62 25 20 10 45 31 55 46 11
16 24 42 30 58 7 17 14 47 18 68 3 20 4 37 2 37 -3 0 -7 -10 -11 -22z"/>
<path d="M6877 4664 c28 -27 61 -69 72 -94 13 -29 21 -66 21 -106 0 -45 -6
-73 -26 -112 -14 -28 -38 -62 -54 -75 -15 -13 -31 -33 -34 -44 -5 -14 1 -30
17 -49 13 -16 48 -74 77 -129 29 -55 64 -119 77 -142 14 -24 27 -43 29 -43 2
0 -15 35 -37 78 -23 42 -61 114 -85 158 -25 45 -51 87 -59 94 -8 7 -15 16 -15
21 0 5 19 29 42 54 24 25 50 65 60 88 9 23 17 67 17 98 1 30 -6 76 -14 100 -9
25 -28 61 -44 80 -16 19 -44 43 -62 53 -29 16 -26 12 18 -30z"/>
<path d="M1490 4669 c20 -19 43 -45 53 -59 10 -14 15 -18 11 -10 -4 8 -18 30
-31 47 -13 18 -34 38 -46 44 -14 7 -10 0 13 -22z"/>
<path d="M1567 4555 c5 -16 8 -57 8 -90 0 -33 -4 -73 -8 -90 -5 -19 -2 -16 9
10 11 27 14 59 11 101 -2 34 -10 70 -16 80 -9 16 -10 14 -4 -11z"/>
<path d="M6460 4517 c-8 -39 -8 -67 0 -101 6 -27 18 -62 26 -80 9 -17 32 -48
52 -68 l36 -38 -23 -52 c-12 -29 -25 -60 -27 -68 -3 -8 8 10 25 40 17 30 30
64 31 76 0 11 -13 30 -30 42 -16 13 -39 40 -50 61 -11 22 -24 61 -30 87 -8 34
-8 62 0 97 6 28 8 52 6 54 -2 3 -9 -20 -16 -50z"/>
<path d="M2243 4503 c9 -2 23 -2 30 0 6 3 -1 5 -18 5 -16 0 -22 -2 -12 -5z"/>
<path d="M2203 4493 c4 -3 10 -3 14 0 3 4 0 7 -7 7 -7 0 -10 -3 -7 -7z"/>
<path d="M5733 4493 c4 -3 10 -3 14 0 3 4 0 7 -7 7 -7 0 -10 -3 -7 -7z"/>
<path d="M5823 4493 c4 -3 10 -3 14 0 3 4 0 7 -7 7 -7 0 -10 -3 -7 -7z"/>
<path d="M2141 4454 c-11 -15 -26 -45 -32 -67 -6 -22 -8 -56 -4 -76 4 -20 19
-52 33 -71 15 -19 30 -53 33 -75 l6 -40 1 46 c2 37 -3 50 -23 69 -13 12 -29
38 -36 57 -6 19 -8 51 -4 71 4 20 18 52 32 70 14 18 23 36 20 38 -3 3 -14 -7
-26 -22z"/>
<path d="M2193 4469 c-6 -6 -9 -17 -7 -23 3 -7 -2 -31 -10 -54 -8 -23 -11 -42
-6 -42 4 0 11 -13 15 -30 4 -17 24 -45 48 -66 36 -30 47 -35 77 -30 19 3 43
15 52 26 10 12 22 38 28 58 6 24 6 49 0 73 -6 20 -24 51 -42 68 -28 27 -39 31
-88 31 -31 0 -61 -5 -67 -11z m134 -18 c15 -12 20 -25 16 -40 -3 -11 -9 -21
-13 -21 -4 0 -13 7 -20 15 -10 12 -10 18 1 32 12 14 12 16 -1 11 -8 -2 -16
-12 -18 -22 -2 -9 2 -23 8 -31 7 -8 21 -15 31 -15 13 0 19 7 19 21 0 17 3 19
14 10 8 -6 16 -24 19 -39 3 -15 3 -40 0 -55 -3 -15 -18 -41 -33 -57 -16 -17
-38 -30 -52 -30 -15 0 -38 15 -61 38 -20 20 -41 52 -48 69 -8 24 -8 42 1 70 6
21 13 44 15 51 3 7 22 12 52 12 31 -1 56 -7 70 -19z"/>
<path d="M2365 4460 c10 -11 20 -20 23 -20 3 0 -3 9 -13 20 -10 11 -20 20 -23
20 -3 0 3 -9 13 -20z"/>
<path d="M5709 4457 c-22 -14 -39 -37 -47 -62 -8 -24 -10 -55 -6 -79 4 -24 18
-51 34 -68 17 -17 39 -28 56 -28 15 0 42 11 60 25 19 15 38 42 48 70 11 35 13
53 5 73 -6 15 -12 35 -14 45 -3 14 0 17 13 13 11 -4 9 1 -7 14 -15 13 -38 20
-66 20 -27 0 -54 -8 -76 -23z m116 5 c6 -4 10 -14 10 -22 -1 -8 5 -30 12 -47
11 -27 11 -39 -3 -72 -8 -21 -28 -51 -45 -65 -16 -14 -40 -26 -53 -26 -15 0
-34 12 -49 30 -14 16 -28 43 -32 60 -4 16 -1 46 5 65 6 19 26 46 43 60 20 16
45 25 67 25 19 0 40 -4 45 -8z"/>
<path d="M5736 4426 c4 -19 2 -28 -11 -32 -10 -4 -21 -1 -26 7 -7 11 -9 11 -9
-2 0 -9 9 -19 19 -22 11 -2 24 0 30 6 6 6 11 21 11 33 0 13 -5 26 -10 29 -7 4
-9 -2 -4 -19z"/>
<path d="M5870 4472 c0 -6 5 -14 10 -17 6 -4 19 -24 30 -45 11 -22 20 -54 20
-72 0 -18 -10 -48 -23 -67 -12 -19 -28 -44 -34 -55 -7 -12 -12 -32 -12 -46 1
-21 2 -19 9 8 4 18 17 43 28 55 11 12 25 35 31 50 6 16 11 43 11 60 0 18 -9
50 -19 72 -10 22 -25 46 -34 54 -10 8 -17 9 -17 3z"/>
<path d="M2400 4400 c0 -7 3 -10 7 -7 3 4 3 10 0 14 -4 3 -7 0 -7 -7z"/>
<path d="M5640 4400 c0 -7 3 -10 7 -7 3 4 3 10 0 14 -4 3 -7 0 -7 -7z"/>
<path d="M5900 4380 c0 -7 3 -10 7 -7 3 4 3 10 0 14 -4 3 -7 0 -7 -7z"/>
<path d="M5633 4345 c0 -22 2 -30 4 -17 2 12 2 30 0 40 -3 9 -5 -1 -4 -23z"/>
<path d="M2412 4340 c0 -14 2 -19 5 -12 2 6 2 18 0 25 -3 6 -5 1 -5 -13z"/>
<path d="M5906 4328 c-4 -21 -18 -51 -32 -67 -13 -16 -35 -32 -47 -34 -22 -4
-22 -4 1 -6 14 0 33 10 47 27 13 15 29 42 35 60 7 18 10 38 7 45 -2 6 -7 -5
-11 -25z"/>
<path d="M1505 4280 c-27 -32 -57 -59 -65 -59 -12 -1 -15 -17 -14 -84 1 -45 2
-88 3 -94 1 -7 9 -13 19 -13 9 0 25 7 35 14 9 7 17 22 17 32 0 10 -9 43 -20
72 -11 29 -20 58 -20 65 1 6 7 1 15 -13 8 -14 14 -21 15 -17 0 5 -5 17 -11 28
-9 17 -4 28 35 69 25 27 46 52 46 55 0 3 -1 5 -2 5 -2 -1 -25 -27 -53 -60z
m-15 -201 c0 -10 -9 -23 -21 -30 -12 -6 -24 -7 -28 -2 -4 4 -6 44 -3 87 l4 80
24 -59 c13 -32 24 -66 24 -76z"/>
<path d="M1450 4105 c0 -5 4 -17 10 -25 5 -8 11 -12 14 -9 3 3 -1 14 -9 25 -8
10 -14 15 -15 9z"/>
<path d="M2681 4316 c-12 -13 -25 -42 -28 -64 -4 -30 1 -53 17 -87 19 -38 22
-58 17 -108 -3 -37 -1 -54 3 -42 5 11 9 44 9 72 1 36 -5 63 -19 85 -11 18 -20
47 -20 64 0 16 11 45 25 64 14 19 25 35 25 37 0 2 -1 3 -3 3 -2 0 -14 -11 -26
-24z"/>
<path d="M5352 4331 c-24 -4 -53 -17 -65 -30 -17 -16 -22 -33 -22 -71 0 -33 6
-55 17 -66 9 -9 28 -16 43 -16 14 0 36 9 48 20 12 12 27 34 33 49 8 21 7 36
-3 58 l-13 30 6 -40 c5 -32 1 -46 -16 -68 -12 -15 -30 -32 -41 -37 -15 -9 -24
-6 -44 14 -16 16 -25 36 -25 55 0 18 10 41 25 58 19 22 24 24 25 11 0 -9 -8
-22 -17 -28 -16 -10 -16 -10 2 -8 14 2 21 12 23 32 3 26 6 28 38 23 20 -4 32
-2 29 4 -4 5 -2 9 4 9 5 0 20 -14 32 -32 13 -17 23 -46 23 -65 0 -18 -9 -45
-20 -60 -11 -16 -24 -37 -28 -48 -4 -14 1 -11 18 10 14 17 30 45 35 64 6 18 7
46 4 62 -3 16 -16 40 -29 54 -13 14 -27 24 -31 24 -4 -1 -27 -5 -51 -8z"/>
<path d="M2131 4312 c-1 -13 13 -37 32 -56 20 -22 45 -37 67 -40 34 -6 33 -5
-7 10 -24 9 -51 28 -62 42 -10 15 -21 36 -24 47 -4 18 -5 18 -6 -3z"/>
<path d="M2719 4328 c0 -2 -3 -16 -6 -33 -3 -16 -6 -45 -6 -62 0 -21 8 -42 23
-58 16 -17 34 -25 57 -25 24 0 37 7 49 25 12 18 15 38 11 72 -3 32 -12 53 -27
65 -13 10 -39 18 -61 18 -21 0 -39 -1 -40 -2z m89 -24 c12 -8 20 -20 17 -25
-4 -5 -11 -9 -16 -9 -5 0 -14 10 -19 23 -10 22 -10 22 -7 -3 2 -20 7 -25 30
-25 24 1 27 -3 27 -34 0 -19 -7 -43 -17 -53 -9 -10 -26 -18 -39 -18 -13 0 -33
13 -48 31 -14 17 -26 35 -26 41 0 6 5 28 12 49 9 32 16 39 37 39 15 0 37 -7
49 -16z"/>
<path d="M5264 4318 c-4 -7 -3 -8 4 -4 7 4 12 9 12 12 0 2 -2 4 -4 4 -3 0 -8
-5 -12 -12z"/>
<path d="M2400 4290 c0 -7 3 -10 7 -7 3 4 3 10 0 14 -4 3 -7 0 -7 -7z"/>
<path d="M2860 4270 c0 -7 3 -10 7 -7 3 4 3 10 0 14 -4 3 -7 0 -7 -7z"/>
<path d="M5242 4235 c0 -16 2 -22 5 -12 2 9 2 23 0 30 -3 6 -5 -1 -5 -18z"/>
<path d="M2360 4225 l-23 -25 22 -75 c13 -42 20 -79 17 -82 -3 -4 -6 -3 -6 1
0 4 -9 2 -19 -4 -17 -8 -19 -18 -15 -63 2 -28 4 -65 4 -80 0 -16 14 -56 31
-88 16 -33 46 -78 66 -100 20 -22 49 -47 64 -55 16 -8 40 -14 54 -14 14 0 38
6 53 14 15 8 36 25 47 37 l20 24 -25 -21 c-14 -12 -35 -27 -47 -33 -12 -6 -35
-11 -51 -11 -21 0 -44 13 -79 45 -30 26 -65 72 -87 114 -20 38 -36 75 -36 82
1 8 8 2 16 -13 8 -16 16 -28 19 -28 2 0 -7 25 -21 55 -14 30 -24 64 -22 76 2
13 18 -14 46 -78 23 -54 58 -119 77 -145 19 -26 46 -55 61 -64 14 -10 40 -17
57 -17 23 0 39 9 64 38 22 26 43 70 64 133 16 53 31 111 32 131 2 29 -2 37
-19 39 -17 2 -23 -8 -43 -75 -12 -43 -36 -100 -52 -126 -16 -26 -39 -51 -51
-56 -12 -4 -31 -6 -41 -3 -10 3 -32 23 -49 46 -16 23 -41 63 -54 90 -13 28
-24 54 -24 60 0 5 7 1 15 -10 8 -11 5 7 -9 41 -13 33 -34 95 -46 138 l-23 77
23 25 c13 14 21 25 18 25 -2 0 -15 -11 -28 -25z m45 -266 c-4 -11 7 -46 24
-81 16 -35 43 -78 58 -96 23 -27 36 -34 65 -34 20 0 42 3 48 7 6 4 22 24 35
44 13 21 36 77 51 125 15 51 31 85 38 83 6 -2 10 -18 9 -35 -2 -17 -14 -66
-28 -110 -14 -43 -38 -97 -55 -120 -16 -22 -38 -46 -50 -52 -15 -8 -27 -7 -49
5 -16 8 -45 34 -64 57 -19 24 -46 66 -60 93 -14 28 -38 77 -52 110 -14 33 -26
62 -26 65 0 2 4 6 9 8 5 1 16 -14 25 -35 9 -21 15 -29 13 -18 -3 11 -7 31 -11
45 -4 16 -1 13 10 -9 8 -19 13 -42 10 -52z"/>
<path d="M1264 4215 c27 -10 55 -13 88 -9 47 6 48 6 48 -20 0 -24 -3 -26 -42
-26 -29 0 -49 7 -67 23 l-25 22 16 -25 c13 -21 24 -25 72 -28 l56 -3 0 36 0
36 -62 -3 c-35 -1 -76 1 -93 5 -19 5 -16 2 9 -8z"/>
<path d="M3085 4220 c3 -5 8 -10 11 -10 3 0 2 5 -1 10 -3 6 -8 10 -11 10 -3 0
-2 -4 1 -10z"/>
<path d="M5140 4222 c0 -5 7 -17 15 -28 8 -10 14 -30 14 -44 1 -14 -8 -36 -19
-50 -11 -14 -20 -31 -20 -37 0 -7 -3 -12 -7 -12 -5 1 -14 1 -20 0 -7 0 -13
-14 -13 -31 0 -23 4 -30 20 -30 15 0 20 7 20 28 0 15 12 45 25 67 14 22 25 50
25 63 0 13 -7 36 -15 52 -9 17 -18 30 -20 30 -3 0 -5 -4 -5 -8z m-20 -202 c0
-11 -4 -20 -10 -20 -5 0 -10 9 -10 20 0 11 5 20 10 20 6 0 10 -9 10 -20z"/>
<path d="M6765 4219 c-16 -5 -56 -7 -87 -3 l-58 6 0 -31 c0 -18 5 -31 13 -32
6 -1 36 -3 65 -4 43 -3 54 0 62 15 6 11 26 22 45 26 20 3 35 12 35 20 0 8 -10
14 -22 13 -13 0 -36 -5 -53 -10z m40 -11 c-16 -6 -39 -18 -50 -28 -14 -12 -34
-16 -65 -15 -25 1 -48 3 -52 4 -5 0 -8 10 -8 22 0 19 4 20 53 14 28 -3 66 -1
82 4 17 5 39 9 50 9 14 0 10 -3 -10 -10z"/>
<path d="M2961 4207 c-6 -8 -13 -27 -17 -43 -3 -16 0 -40 6 -54 6 -14 17 -36
25 -50 12 -20 15 -21 15 -7 0 11 -9 30 -20 44 -11 14 -20 34 -20 45 0 10 7 32
15 48 9 17 14 30 11 30 -2 0 -9 -6 -15 -13z"/>
<path d="M2995 4208 c-2 -7 -8 -31 -14 -52 -9 -33 -8 -41 7 -52 9 -8 31 -14
47 -14 17 0 36 5 43 12 7 7 12 29 12 49 0 21 -7 45 -16 53 -8 9 -29 16 -45 16
-16 0 -31 -6 -34 -12z m45 -18 c0 -12 7 -20 18 -20 14 0 15 2 2 10 -8 5 -11
12 -7 17 5 4 12 1 17 -7 6 -8 10 -26 10 -40 0 -15 -5 -31 -12 -38 -7 -7 -20
-12 -30 -12 -10 0 -27 5 -37 12 -16 10 -17 17 -9 47 6 20 12 39 15 44 2 4 11
7 19 7 8 0 14 -9 14 -20z"/>
<path d="M5047 4208 c-9 -7 -20 -27 -23 -45 -5 -25 -1 -37 19 -57 17 -16 32
-23 46 -19 11 3 25 10 30 17 5 6 10 29 12 51 2 22 0 46 -5 53 -4 7 -20 12 -35
12 -15 0 -35 -6 -44 -12z m71 -45 c2 -33 -1 -44 -19 -57 -21 -15 -25 -14 -46
6 -13 12 -23 30 -23 41 0 14 5 18 20 14 15 -4 22 1 26 19 4 16 12 24 23 22 11
-2 17 -16 19 -45z m-53 27 c-3 -5 -11 -10 -16 -10 -6 0 -7 5 -4 10 3 6 11 10
16 10 6 0 7 -4 4 -10z"/>
<path d="M5430 4210 c0 -7 3 -10 7 -7 3 4 3 10 0 14 -4 3 -7 0 -7 -7z"/>
<path d="M5695 4208 c4 -9 -8 -67 -25 -130 -18 -62 -35 -120 -37 -128 -4 -13
-4 -13 6 0 8 12 11 12 11 1 0 -7 -14 -42 -31 -76 -17 -35 -44 -75 -59 -90 -17
-16 -35 -25 -44 -22 -8 3 -27 24 -40 46 -14 22 -35 73 -46 113 -11 40 -20 79
-19 88 0 10 3 9 9 -5 5 -12 6 1 3 35 -3 30 -7 57 -9 59 -2 2 -4 -13 -4 -35 0
-33 -3 -40 -21 -41 -12 -1 -24 -4 -27 -7 -3 -3 0 -32 7 -63 7 -32 21 -87 32
-123 11 -36 30 -79 42 -97 12 -18 32 -37 45 -42 13 -6 34 -8 46 -5 13 3 37 24
54 47 16 23 37 56 46 74 9 18 30 72 47 120 18 48 36 93 41 100 6 8 2 14 -12
18 -12 4 -23 5 -24 3 -2 -1 -8 -16 -14 -33 -6 -16 -11 -23 -11 -15 0 8 6 35
13 60 8 25 15 37 15 28 1 -9 5 -19 9 -22 4 -2 8 28 7 69 0 40 -4 77 -8 81 -4
5 -5 1 -2 -8z m2 -100 c-3 -8 -6 -5 -6 6 -1 11 2 17 5 13 3 -3 4 -12 1 -19z
m-19 -161 c-16 -45 -43 -107 -59 -138 -17 -31 -43 -70 -59 -87 -16 -18 -35
-32 -43 -32 -8 0 -29 14 -46 32 -17 17 -40 55 -51 84 -10 29 -26 83 -35 119
-8 36 -15 70 -15 76 0 5 6 9 14 9 8 0 20 -25 30 -67 10 -38 26 -88 37 -113 11
-24 27 -52 36 -62 9 -10 24 -18 33 -18 10 0 30 10 45 22 15 12 43 53 61 92 25
50 33 80 29 101 -3 20 -2 24 3 11 7 -15 10 -11 21 23 6 23 16 39 21 36 5 -3
-5 -42 -22 -88z"/>
<path d="M2293 4203 c-12 -2 -27 -11 -35 -20 -12 -15 -11 -15 9 -5 12 7 26 12
32 12 6 0 11 -4 11 -9 0 -5 -10 -12 -22 -14 -20 -4 -19 -4 5 -6 23 -1 27 3 27
24 0 14 -1 24 -2 24 -2 -1 -13 -4 -25 -6z"/>
<path d="M2860 4190 c0 -7 3 -10 7 -7 3 4 3 10 0 14 -4 3 -7 0 -7 -7z"/>
<path d="M3100 4190 c0 -7 3 -10 7 -7 3 4 3 10 0 14 -4 3 -7 0 -7 -7z"/>
<path d="M5730 4179 c0 -15 5 -20 22 -17 13 2 24 11 26 21 3 12 -3 17 -22 17
-20 0 -26 -5 -26 -21z m40 1 c0 -5 -7 -10 -15 -10 -8 0 -15 5 -15 10 0 6 7 10
15 10 8 0 15 -4 15 -10z"/>
<path d="M1188 4178 c-9 -7 -28 -41 -42 -75 -14 -34 -26 -69 -26 -78 0 -8 8
-15 19 -15 10 0 30 -9 44 -20 14 -11 32 -18 39 -15 8 3 24 34 36 68 12 34 22
72 22 85 0 12 -9 31 -20 42 -11 11 -28 20 -38 20 -10 0 -25 -6 -34 -12z m67
-18 c13 -14 16 -29 12 -54 -3 -19 -15 -56 -26 -81 l-21 -47 -26 21 c-15 12
-35 21 -45 21 -11 0 -19 4 -19 9 0 4 13 38 30 74 16 36 35 67 42 70 7 3 18 6
24 6 6 1 19 -8 29 -19z"/>
<path d="M1206 4152 c-2 -4 -14 -32 -25 -62 -11 -29 -19 -55 -17 -58 2 -2 12
18 22 45 9 26 24 56 32 66 9 10 11 17 4 17 -6 0 -13 -3 -16 -8z"/>
<path d="M1243 4113 c-3 -10 -14 -38 -24 -62 -11 -24 -17 -46 -14 -49 2 -3 10
8 16 24 6 16 17 46 25 67 7 20 11 37 8 37 -2 0 -7 -8 -11 -17z"/>
<path d="M6780 4160 c-11 -11 -20 -25 -20 -31 0 -5 14 -46 31 -90 l32 -79 31
21 c17 11 43 26 59 32 15 6 27 15 27 19 0 4 -14 31 -31 60 -17 29 -38 61 -47
71 -8 9 -26 17 -39 17 -12 0 -32 -9 -43 -20z m72 -7 c9 -10 29 -41 46 -69 l30
-51 -37 -16 c-35 -16 -37 -16 -55 6 l-18 22 16 -27 c9 -16 12 -29 6 -33 -5 -3
-21 18 -34 48 -13 30 -27 65 -31 77 -4 14 -1 28 11 41 9 10 25 19 34 19 9 0
24 -8 32 -17z"/>
<path d="M6843 4095 c17 -36 33 -61 35 -56 2 5 -8 32 -22 60 -14 27 -30 52
-35 55 -5 4 5 -23 22 -59z"/>
<path d="M2200 4144 c-6 -14 -10 -35 -10 -47 0 -12 9 -28 20 -34 10 -7 26 -10
34 -7 8 3 17 15 20 27 3 12 6 30 6 39 0 9 -7 24 -16 32 -8 9 -22 16 -30 16 -8
0 -19 -12 -24 -26z m48 4 c7 -7 12 -20 12 -31 0 -10 -5 -27 -10 -38 -9 -15
-15 -17 -30 -9 -11 6 -20 20 -20 31 0 11 5 29 10 40 6 10 14 19 18 19 5 0 13
-5 20 -12z"/>
<path d="M2705 4160 c3 -5 11 -10 16 -10 6 0 7 5 4 10 -3 6 -11 10 -16 10 -6
0 -7 -4 -4 -10z"/>
<path d="M5386 4155 c-16 -12 -17 -15 -4 -15 9 0 18 7 22 15 3 8 4 15 3 15 -1
0 -11 -7 -21 -15z"/>
<path d="M5791 4156 c-8 -10 -10 -30 -5 -61 3 -26 12 -49 19 -52 8 -2 23 0 34
7 12 6 21 21 21 34 0 13 -5 37 -11 55 -7 19 -18 31 -29 31 -10 0 -23 -6 -29
-14z m47 -21 c7 -14 12 -34 12 -44 0 -10 -7 -24 -15 -31 -8 -6 -18 -9 -23 -6
-6 3 -13 22 -16 42 -5 22 -3 41 5 50 6 8 15 14 19 14 4 0 12 -11 18 -25z"/>
<path d="M6546 4102 c-26 -60 -27 -69 -14 -92 7 -14 24 -27 37 -28 13 -2 27 0
31 5 5 4 11 26 14 48 l6 40 -11 -35 c-6 -19 -14 -39 -19 -44 -5 -5 -16 -6 -25
-2 -14 5 -13 13 14 63 17 31 31 67 31 79 0 13 -4 26 -10 29 -6 4 -7 -6 -4 -25
5 -21 2 -36 -9 -48 -9 -10 -23 -33 -31 -52 -11 -26 -16 -31 -21 -19 -3 9 6 41
20 72 15 31 25 61 23 66 -1 6 -16 -20 -32 -57z"/>
<path d="M3146 4138 c-9 -12 -16 -36 -16 -53 0 -16 10 -41 21 -55 11 -14 19
-20 17 -15 -2 6 -10 22 -17 37 -8 15 -11 38 -7 52 3 13 13 32 22 40 8 9 11 16
5 16 -5 0 -17 -10 -25 -22z"/>
<path d="M4864 4148 c-4 -7 -3 -8 4 -4 7 4 12 9 12 12 0 2 -2 4 -4 4 -3 0 -8
-5 -12 -12z"/>
<path d="M4938 4153 c7 -3 19 -18 27 -34 14 -26 14 -32 -2 -61 -12 -22 -18
-55 -18 -95 0 -35 4 -56 8 -50 5 7 6 -2 3 -21 -3 -19 -1 -43 6 -55 6 -12 17
-26 25 -30 7 -5 11 -12 8 -18 -4 -5 -10 -9 -15 -9 -5 0 -16 12 -23 28 -8 15
-20 51 -27 81 -10 42 -10 55 0 61 8 5 7 9 -6 14 -15 6 -16 1 -11 -37 4 -24 14
-68 24 -98 12 -37 24 -55 37 -58 12 -2 27 6 37 20 10 13 19 18 19 12 0 -7 -9
-22 -19 -32 -12 -12 -27 -17 -40 -14 -16 4 -21 -1 -25 -29 -4 -18 -5 -62 -5
-98 1 -36 4 -127 6 -203 l5 -139 54 4 54 3 0 -103 c0 -57 3 -101 8 -99 4 3 4
58 0 124 -3 65 -8 222 -9 348 l-3 230 -6 -245 -5 -245 -41 -3 -42 -3 -5 123
c-2 68 -5 159 -6 203 0 44 1 90 4 101 3 15 12 22 31 22 14 0 31 5 37 11 6 6
12 23 14 38 1 16 5 48 7 73 l5 45 -9 -44 c-5 -24 -15 -50 -21 -57 -10 -12 -15
-12 -30 2 -11 10 -19 21 -19 27 0 5 7 4 14 -3 13 -10 17 -3 30 42 8 29 20 74
26 99 7 25 10 59 7 75 -4 27 -4 27 -6 -6 -1 -19 -10 -68 -21 -109 -10 -40 -23
-78 -29 -84 -8 -8 -11 -7 -11 3 0 13 -2 13 -11 0 -8 -12 -9 -9 -5 11 3 15 1
51 -4 80 -9 45 -7 58 10 94 12 25 18 50 14 61 -4 10 -14 27 -22 37 -8 9 -20
17 -26 16 -6 0 -5 -3 2 -6z"/>
<path d="M2822 4138 c-7 -9 -4 -39 9 -99 10 -47 29 -118 41 -159 13 -40 29
-75 37 -78 10 -3 9 1 -2 19 -9 13 -23 51 -33 84 -9 33 -25 96 -35 140 -12 55
-14 84 -7 93 6 6 8 12 5 12 -2 0 -9 -6 -15 -12z"/>
<path d="M3193 4143 c-12 -2 -24 -12 -28 -21 -5 -14 -4 -15 6 -4 7 6 22 12 34
11 20 0 20 0 0 -10 -18 -8 -18 -8 5 -6 19 1 26 -3 28 -19 2 -11 -4 -27 -13
-34 -12 -10 -21 -10 -40 -2 -14 7 -25 8 -25 3 0 -5 7 -12 16 -15 9 -3 24 -6
34 -6 11 0 24 9 30 19 5 11 10 26 10 34 0 8 -8 23 -17 34 -11 11 -27 18 -40
16z"/>
<path d="M5278 4139 c10 -13 8 -33 -7 -98 -11 -45 -27 -106 -37 -134 -9 -29
-21 -57 -25 -63 -5 -6 -5 -14 -1 -19 4 -4 0 -6 -8 -3 -9 3 -14 15 -12 29 1 17
0 20 -7 10 -7 -11 -10 -9 -15 7 -4 11 -4 33 -1 49 4 23 4 24 -4 8 -7 -14 -10
-15 -10 -5 -1 8 -4 26 -7 40 -5 20 -3 22 5 10 8 -11 9 -7 5 20 -4 19 -8 37
-10 39 -2 2 -4 -8 -4 -22 0 -15 -4 -27 -9 -27 -4 0 -2 -21 6 -47 8 -27 20 -64
27 -83 7 -22 19 -36 32 -38 17 -2 23 10 47 90 14 51 34 122 43 157 14 60 14
65 -2 80 -16 15 -17 15 -6 0z"/>
<path d="M2317 4115 c1 -11 3 -28 3 -37 0 -11 8 -18 20 -18 13 0 20 6 19 18 0
9 -5 26 -10 37 -7 15 -8 12 -3 -12 3 -18 2 -33 -3 -33 -5 0 -14 15 -20 33 -5
17 -8 23 -6 12z"/>
<path d="M4875 4116 c-10 -15 -14 -33 -10 -45 3 -12 17 -24 31 -27 13 -3 31
-4 39 0 8 3 15 10 15 16 0 7 -7 6 -19 -1 -10 -7 -26 -9 -35 -6 -9 4 -19 14
-22 22 -4 9 2 25 11 35 10 11 24 20 31 20 7 0 18 -8 23 -19 6 -10 7 -22 3 -26
-4 -5 -2 -5 5 -1 8 4 9 14 4 29 -5 13 -18 23 -34 25 -19 2 -30 -4 -42 -22z"/>
<path d="M5723 4100 c0 -25 2 -35 4 -22 2 12 2 32 0 45 -2 12 -4 2 -4 -23z"/>
<path d="M5871 4124 c0 -11 3 -14 6 -6 3 7 2 16 -1 19 -3 4 -6 -2 -5 -13z"/>
<path d="M1319 4128 c0 -2 -3 -169 -6 -373 -2 -203 -8 -786 -11 -1293 -4 -508
-4 -926 0 -928 4 -3 26 1 48 7 23 7 46 21 52 32 7 14 9 397 5 1286 -3 696 -6
1267 -7 1269 0 1 -18 2 -40 2 -22 0 -40 -1 -41 -2z m71 -10 c1 -2 4 -573 7
-1269 l6 -1267 -24 -15 c-13 -8 -35 -18 -48 -22 l-24 -7 8 1128 c5 621 9 1201
11 1289 1 88 3 161 3 163 1 1 15 2 31 2 17 0 30 -1 30 -2z"/>
<path d="M1510 4120 c0 -7 3 -10 7 -7 3 4 3 10 0 14 -4 3 -7 0 -7 -7z"/>
<path d="M2765 4120 c-3 -5 -15 -10 -25 -10 -12 0 -21 -10 -25 -30 -4 -16 -4
-34 0 -40 3 -5 15 -10 26 -10 14 0 21 9 26 31 3 17 12 33 19 36 8 3 14 11 14
19 0 8 -6 14 -14 14 -8 0 -18 -4 -21 -10z m12 -18 c-10 -10 -17 -26 -17 -35 0
-9 -5 -19 -11 -23 -6 -3 -15 -2 -21 4 -5 5 -7 20 -3 32 4 12 12 19 20 16 7 -2
16 2 19 10 3 8 11 14 17 14 8 0 6 -7 -4 -18z"/>
<path d="M3328 4123 c7 -3 16 -2 19 1 4 3 -2 6 -13 5 -11 0 -14 -3 -6 -6z"/>
<path d="M6636 4114 c-3 -9 -6 -587 -6 -1285 l0 -1269 28 -11 c15 -6 40 -13
56 -16 l29 -6 -6 1279 -6 1279 24 -50 c13 -27 24 -47 24 -43 1 4 -11 37 -26
73 l-27 65 -42 0 c-29 0 -44 -5 -48 -16z m90 -1286 c5 -975 4 -1288 -5 -1288
-6 0 -27 7 -46 14 l-35 15 0 1269 c0 698 3 1272 7 1276 4 4 22 6 40 4 l32 -3
7 -1287z"/>
<path d="M2156 4079 c-4 -23 -5 -44 -2 -46 2 -2 7 14 11 37 4 23 5 43 2 46 -2
3 -7 -14 -11 -37z"/>
<path d="M3284 4108 c-4 -7 -3 -8 4 -4 7 4 12 9 12 12 0 2 -2 4 -4 4 -3 0 -8
-5 -12 -12z"/>
<path d="M4905 4109 c-4 -6 -5 -12 -2 -15 2 -3 7 2 10 11 4 8 5 15 2 15 -2 0
-7 -5 -10 -11z"/>
<path d="M5310 4112 c0 -6 5 -14 11 -17 6 -4 12 -5 15 -2 2 2 -2 10 -11 17 -9
8 -15 8 -15 2z"/>
<path d="M3290 4083 c-15 -19 -19 -33 -14 -48 5 -11 7 -51 6 -89 -1 -38 -6
-74 -11 -79 -6 -6 -16 11 -26 48 -9 31 -15 70 -13 85 2 16 1 27 -4 24 -4 -3
-8 -18 -8 -33 0 -15 7 -52 16 -82 9 -30 17 -55 19 -57 1 -1 10 0 19 4 9 4 16
17 16 34 0 15 3 41 6 59 4 17 11 28 16 25 5 -3 0 9 -12 28 -11 18 -20 40 -19
48 0 10 2 11 6 2 2 -7 14 -17 25 -23 14 -7 23 -7 34 2 8 6 14 21 14 33 0 12
-5 27 -12 34 -7 7 -18 12 -24 12 -7 0 -22 -12 -34 -27z m60 -24 c0 -10 -5 -21
-11 -25 -6 -3 -21 3 -32 15 -21 20 -21 21 -2 35 14 10 24 11 32 4 7 -6 13 -19
13 -29z"/>
<path d="M3314 4068 c-4 -7 -3 -8 4 -4 7 4 12 9 12 12 0 2 -2 4 -4 4 -3 0 -8
-5 -12 -12z"/>
<path d="M4751 4088 c-4 -12 -6 -30 -4 -39 3 -10 12 -20 20 -24 9 -3 26 2 39
10 13 9 24 22 24 30 0 7 -7 21 -16 29 -8 9 -24 16 -35 16 -11 0 -23 -10 -28
-22z m55 -2 c19 -15 19 -15 -4 -38 -22 -22 -24 -22 -37 -4 -10 13 -11 24 -4
37 5 11 13 19 17 19 5 0 17 -6 28 -14z"/>
<path d="M4771 4076 c-7 -8 -8 -17 -3 -20 6 -3 13 1 16 10 4 9 5 19 3 21 -2 2
-10 -3 -16 -11z"/>
<path d="M5355 4094 c-9 -9 -14 -23 -11 -31 3 -8 6 -18 6 -23 0 -4 7 -7 15 -6
8 1 20 7 26 13 7 7 9 23 5 37 -3 14 -10 26 -15 26 -5 0 -17 -7 -26 -16z m30
-41 c-5 -15 -7 -15 -22 0 -14 13 -14 19 -3 32 12 15 14 15 23 0 5 -9 6 -23 2
-32z"/>
<path d="M1520 4095 c0 -3 7 -19 15 -35 9 -17 17 -30 20 -30 2 0 -1 14 -7 30
-5 17 -14 33 -19 36 -5 3 -9 2 -9 -1z"/>
<path d="M3150 4090 c0 -7 3 -10 7 -7 3 4 3 10 0 14 -4 3 -7 0 -7 -7z"/>
<path d="M3174 4088 c-4 -7 -3 -8 4 -4 7 4 12 9 12 12 0 2 -2 4 -4 4 -3 0 -8
-5 -12 -12z"/>
<path d="M5742 3278 c-2 -783 -1 -828 16 -828 12 0 13 3 5 8 -10 6 -13 187
-16 828 l-2 819 -3 -827z"/>
<path d="M5765 4075 c2 -16 9 -59 15 -95 7 -41 12 -336 13 -797 1 -481 -1
-734 -8 -737 -5 -3 -3 -5 5 -5 13 -1 15 86 13 737 -1 445 -6 763 -13 802 -5
36 -14 79 -20 95 l-10 30 5 -30z"/>
<path d="M5881 4080 c0 -14 7 -41 14 -60 7 -19 14 -30 14 -25 0 6 -6 33 -14
60 -8 29 -14 39 -14 25z"/>
<path d="M2300 3275 l-5 -820 -22 -3 -23 -3 0 728 c0 589 3 742 14 803 8 41
13 76 11 79 -2 2 -6 -7 -9 -20 -3 -13 -10 -48 -16 -77 -6 -34 -10 -317 -10
-787 l0 -735 30 0 c17 0 33 6 35 13 3 6 4 379 3 827 l-3 815 -5 -820z"/>
<path d="M6507 4078 c-3 -7 -12 -30 -21 -50 -9 -21 -14 -38 -11 -38 4 0 15 21
26 46 12 25 19 48 16 50 -2 3 -7 -1 -10 -8z"/>
<path d="M3066 4071 c-4 -5 1 -42 9 -83 9 -40 21 -90 27 -110 6 -21 14 -38 18
-38 3 0 11 5 18 12 8 8 12 8 12 1 0 -6 -6 -16 -13 -22 -8 -6 -17 -9 -21 -6 -3
3 -2 -1 4 -7 8 -9 14 -9 26 3 12 13 13 23 6 50 -7 24 -10 28 -11 12 -1 -12 -5
-24 -10 -28 -5 -3 -14 9 -20 27 -6 18 -17 66 -26 106 -8 41 -13 78 -9 83 3 5
3 9 0 9 -3 0 -7 -4 -10 -9z"/>
<path d="M4720 4070 c0 -7 3 -10 7 -7 3 4 3 10 0 14 -4 3 -7 0 -7 -7z"/>
<path d="M5310 4061 c0 -11 -6 -22 -12 -24 -8 -3 -6 -6 5 -6 12 -1 17 7 17 24
0 14 -2 25 -5 25 -3 0 -5 -9 -5 -19z"/>
<path d="M2785 4015 c-4 -32 -6 -287 -5 -569 1 -281 2 -516 1 -523 -1 -6 -9
-14 -18 -16 -14 -4 -12 -5 5 -6 14 -1 22 5 23 17 1 9 0 256 -1 547 -1 330 2
540 8 556 6 14 7 31 2 38 -4 8 -10 -10 -15 -44z"/>
<path d="M3000 4044 c-6 -14 -10 -29 -10 -34 0 -4 7 -11 16 -14 9 -3 19 -4 24
-1 4 3 6 14 3 25 -3 11 0 20 6 20 6 0 11 5 11 12 0 9 -3 9 -12 0 -7 -7 -16
-12 -21 -12 -5 0 -7 7 -3 15 3 8 3 15 0 15 -2 0 -9 -12 -14 -26z m20 -30 c0
-8 -5 -12 -10 -9 -6 4 -8 11 -5 16 4 5 8 9 11 9 2 0 4 -7 4 -16z"/>
<path d="M1259 3983 l-34 -78 0 -1179 0 -1180 28 -7 c15 -4 27 -5 27 -3 0 3
-11 9 -25 14 l-25 10 2 1172 3 1173 33 74 c18 41 31 76 29 78 -2 2 -19 -32
-38 -74z"/>
<path d="M2182 4046 c-5 -6 -22 -49 -37 -96 -15 -47 -43 -116 -61 -155 -18
-38 -47 -89 -64 -113 -17 -23 -45 -51 -63 -62 -18 -11 -46 -20 -63 -20 -16 0
-50 13 -75 28 -25 16 -65 53 -91 83 -25 30 -61 79 -80 109 -20 30 -54 93 -78
140 -23 47 -44 87 -46 89 -1 2 -15 -6 -30 -18 -15 -11 -33 -21 -40 -21 -8 0
-14 -8 -14 -17 0 -9 23 -59 51 -112 28 -53 70 -125 94 -161 23 -36 63 -89 90
-118 26 -29 67 -66 91 -83 24 -16 58 -31 76 -34 l33 -5 -34 11 c-19 6 -53 23
-76 39 -23 16 -58 47 -79 70 -21 23 -62 79 -91 123 -29 45 -74 123 -101 174
-27 51 -46 94 -44 96 3 3 14 7 26 11 18 5 25 -4 57 -71 20 -43 60 -116 87
-162 28 -47 68 -109 91 -138 22 -30 61 -69 87 -88 26 -18 66 -39 88 -45 24 -7
56 -9 75 -5 19 4 51 26 78 54 27 26 66 84 93 136 25 50 60 139 77 199 17 60
31 118 31 130 0 13 -10 26 -25 32 -18 9 -27 9 -33 0z m-520 -274 c18 -26 57
-72 88 -104 37 -36 71 -60 97 -68 23 -7 57 -10 77 -6 19 4 49 18 66 32 17 15
48 56 70 93 21 36 57 120 80 186 22 66 44 123 49 128 4 4 16 5 25 1 15 -6 17
-14 12 -46 -4 -21 -20 -82 -37 -135 -17 -54 -50 -131 -73 -172 -22 -42 -62
-97 -88 -123 -25 -26 -58 -50 -73 -54 -15 -4 -44 -1 -65 5 -21 6 -61 29 -89
51 -27 22 -70 68 -94 102 -25 35 -69 104 -97 153 -29 50 -65 115 -80 145 -15
30 -25 61 -22 69 2 7 31 -37 63 -99 32 -61 73 -132 91 -158z"/>
<path d="M5070 4050 c0 -7 3 -10 7 -7 3 4 3 10 0 14 -4 3 -7 0 -7 -7z"/>
<path d="M4818 4023 c-14 -16 -14 -27 0 -110 12 -71 20 -93 32 -92 10 0 11 2
3 6 -7 2 -13 9 -13 14 0 5 5 8 12 7 7 -2 17 22 24 62 7 36 13 77 14 91 0 15
-7 29 -15 33 -12 4 -13 2 -4 -12 9 -14 8 -37 -1 -90 -6 -40 -16 -72 -21 -72
-5 0 -11 10 -14 23 -3 12 -9 45 -14 72 -8 41 -6 53 6 68 9 9 14 17 11 17 -3 0
-12 -8 -20 -17z"/>
<path d="M5823 4025 c-15 -10 -20 -22 -16 -37 3 -13 17 -61 30 -108 14 -47 45
-125 69 -175 23 -49 57 -106 73 -127 17 -20 50 -45 73 -57 38 -18 49 -19 88
-9 25 6 69 27 99 46 30 20 80 68 112 109 32 41 76 104 97 141 21 37 47 86 57
110 12 29 23 41 33 37 7 -3 18 -5 23 -5 6 0 8 -10 4 -22 -5 -18 -4 -20 4 -8 6
8 11 20 11 26 0 7 -11 15 -25 18 -14 4 -25 11 -25 16 0 6 -8 10 -17 10 -12 0
-30 -23 -52 -66 -19 -36 -51 -92 -72 -124 -20 -32 -55 -77 -76 -100 -21 -24
-55 -54 -76 -67 -23 -14 -54 -24 -76 -25 -21 0 -47 5 -58 11 -12 6 -38 30 -60
55 -21 24 -52 68 -68 97 -16 30 -45 101 -66 159 -20 58 -43 106 -50 108 -8 1
-24 -4 -36 -13z m87 -126 c25 -68 56 -142 70 -163 13 -22 37 -55 54 -73 16
-19 43 -41 59 -50 17 -8 47 -15 68 -15 20 0 55 10 76 21 21 10 58 40 81 65 23
25 60 73 81 105 21 33 53 89 72 125 19 36 38 66 43 66 4 0 5 -8 2 -17 -4 -10
-30 -59 -58 -110 -27 -50 -78 -127 -113 -170 -35 -45 -85 -94 -116 -115 -30
-20 -71 -40 -92 -46 -25 -7 -48 -7 -63 -2 -13 5 -43 29 -67 52 -23 24 -61 79
-84 123 -22 44 -55 122 -72 174 -17 52 -31 104 -31 116 0 11 5 26 12 33 7 7
17 11 22 9 6 -2 31 -59 56 -128z"/>
<path d="M1560 4014 c0 -6 7 -19 16 -30 14 -18 14 -18 3 6 -6 14 -13 27 -15
29 -2 2 -4 0 -4 -5z"/>
<path d="M2131 3979 c-7 -22 -11 -43 -8 -45 2 -2 9 14 16 37 7 22 11 43 8 45
-2 2 -9 -14 -16 -37z"/>
<path d="M2812 3961 c-2 -49 4 -77 25 -125 14 -33 36 -71 46 -83 11 -13 30
-23 42 -23 12 0 29 8 38 18 9 10 26 54 37 97 11 43 20 90 20 106 0 15 -7 29
-15 33 -9 3 -15 0 -15 -10 0 -8 5 -12 10 -9 6 3 10 -3 10 -15 0 -12 -7 -52
-16 -90 -8 -38 -24 -81 -35 -95 -11 -14 -26 -25 -33 -25 -7 0 -22 10 -33 23
-11 12 -31 42 -43 67 -14 27 -26 75 -30 120 l-7 75 -1 -64z"/>
<path d="M3187 4008 c7 -8 10 -17 7 -21 -3 -3 -7 -32 -8 -64 -1 -32 -9 -75
-18 -95 -10 -21 -23 -38 -30 -38 -7 0 -19 4 -27 9 -7 5 -20 31 -27 57 -11 38
-13 41 -10 14 2 -19 8 -44 12 -54 5 -14 4 -17 -4 -12 -9 6 -9 1 0 -18 6 -14
18 -26 27 -26 14 1 13 2 -1 11 -10 5 -18 14 -18 19 0 5 14 2 30 -6 17 -9 30
-18 30 -20 0 -3 -6 -2 -12 2 -10 6 -10 4 0 -7 9 -9 12 -71 12 -236 l0 -223
-39 0 -39 0 -6 283 c-3 155 -6 311 -7 347 l-1 65 -7 -60 c-4 -33 -3 -91 2
-130 5 -38 6 -187 4 -330 -3 -143 -7 -286 -9 -317 -2 -31 0 -52 4 -45 5 7 8
28 7 47 0 19 -1 58 0 85 l1 50 50 -3 51 -4 -1 246 c-1 135 1 250 5 256 3 5 12
31 20 57 7 27 15 75 17 107 2 46 0 60 -12 64 -12 4 -13 3 -3 -10z"/>
<path d="M4758 3693 c2 -234 -1 -329 -9 -339 -6 -8 -19 -14 -29 -14 -9 0 -25
-9 -35 -20 -18 -20 -31 -20 -630 -20 -601 0 -612 0 -630 20 -15 16 -26 19 -54
14 -20 -4 -40 -11 -46 -16 -7 -7 -3 -8 10 -5 11 3 29 8 41 11 14 4 27 -1 39
-14 10 -11 14 -20 9 -20 -6 0 -15 5 -21 11 -8 8 -19 8 -40 1 l-28 -11 32 2
c18 1 33 -2 35 -8 2 -5 -16 -13 -40 -18 -25 -5 -62 -4 -88 1 -24 5 -44 6 -44
2 0 -4 24 -10 53 -14 28 -3 69 -2 91 3 21 5 43 14 49 20 8 8 201 11 632 11
529 -1 623 -3 639 -15 13 -10 43 -15 87 -15 37 0 74 3 83 6 9 3 16 10 16 15 0
6 -9 5 -20 -1 -11 -6 -51 -10 -88 -8 -46 2 -66 7 -65 15 2 8 -4 10 -15 6 -15
-6 -15 -5 -3 11 10 12 17 14 25 6 5 -5 18 -10 27 -10 10 0 25 7 33 16 15 14
17 13 26 -10 5 -14 12 -26 16 -26 3 0 4 6 2 12 -3 7 1 19 8 26 8 7 19 12 26
11 7 -1 18 -1 25 0 9 1 13 60 16 229 3 125 7 247 10 272 3 25 3 34 1 20 -3
-14 -7 -35 -9 -47 -3 -13 -10 -23 -15 -23 -6 0 -8 12 -5 28 5 26 5 26 -6 -3
-7 -16 -17 -34 -23 -38 -6 -5 -1 -5 12 -2 l22 6 0 -215 c0 -118 -4 -217 -9
-220 -5 -3 -19 2 -30 12 -21 17 -22 23 -19 220 2 111 0 202 -4 202 -5 0 -8
-90 -8 -201 0 -115 4 -208 10 -219 6 -12 6 -21 1 -25 -5 -3 -13 -1 -16 5 -4 6
-14 8 -23 6 -16 -5 -17 20 -14 331 1 185 -1 340 -5 344 -4 4 -7 -139 -5 -318z
m-9 -381 c-5 -2 -17 -1 -27 3 -15 6 -15 8 3 15 12 4 23 3 27 -4 4 -6 3 -13 -3
-14z"/>
<path d="M5325 3470 l0 -555 23 -3 23 -4 -4 509 c-2 359 -7 517 -15 538 l-12
30 7 -30 c3 -16 8 -257 10 -534 3 -411 2 -502 -9 -499 -10 4 -14 114 -18 554
l-5 549 0 -555z"/>
<path d="M3342 3678 c-2 -316 -1 -338 16 -338 12 0 13 3 5 8 -10 6 -13 89 -16
338 l-2 329 -3 -337z"/>
<path d="M4908 4003 c7 -3 16 -2 19 1 4 3 -2 6 -13 5 -11 0 -14 -3 -6 -6z"/>
<path d="M5292 3950 c-2 -41 -11 -72 -25 -96 -12 -20 -36 -52 -53 -71 l-31
-36 -22 36 c-12 19 -30 73 -41 119 -10 46 -19 75 -19 65 -1 -10 6 -50 15 -90
9 -40 23 -84 32 -99 9 -15 21 -29 28 -32 6 -2 21 2 33 10 12 9 31 34 42 57 12
22 28 47 35 55 8 7 14 32 14 55 0 23 3 52 6 65 4 12 2 22 -2 22 -5 0 -11 -27
-12 -60z"/>
<path d="M2971 3984 c0 -11 3 -14 6 -6 3 7 2 16 -1 19 -3 4 -6 -2 -5 -13z"/>
<path d="M3153 3962 c-2 -21 1 -50 6 -67 6 -23 8 -16 6 33 -1 34 -4 64 -6 66
-2 3 -5 -12 -6 -32z"/>
<path d="M6915 3991 c-11 -3 -27 -10 -36 -16 -9 -5 -21 -20 -28 -32 -10 -20
-4 -37 49 -138 32 -63 90 -164 126 -223 37 -59 98 -148 136 -198 37 -51 101
-123 142 -161 68 -63 84 -73 178 -107 57 -20 130 -41 163 -46 39 -6 81 -6 122
0 35 6 87 19 116 30 29 11 68 31 87 45 20 15 28 25 18 25 -8 0 -21 -6 -27 -14
-6 -7 -37 -25 -69 -39 -31 -14 -86 -31 -122 -36 -45 -7 -85 -7 -129 0 -35 5
-106 26 -158 46 -81 31 -105 46 -169 106 -41 38 -105 110 -143 161 -38 50 -98
139 -134 197 -36 59 -93 158 -126 220 -58 110 -59 115 -43 136 9 12 29 27 44
32 20 8 31 7 38 -2 6 -7 41 -64 78 -127 38 -64 88 -143 112 -175 24 -33 73
-96 109 -139 36 -44 108 -114 160 -157 64 -54 117 -88 170 -111 67 -28 87 -32
166 -33 70 0 103 5 150 23 33 13 71 32 85 43 19 14 20 17 5 11 -11 -4 -47 -21
-80 -38 -54 -26 -70 -29 -155 -29 -88 0 -100 2 -170 36 -41 20 -114 68 -162
108 -48 39 -123 115 -168 168 -44 54 -106 136 -138 183 -31 47 -77 123 -102
167 -25 45 -52 83 -60 85 -8 3 -24 2 -35 -1z"/>
<path d="M1092 3978 c-5 -7 -24 -42 -42 -78 -18 -36 -57 -105 -87 -154 -30
-49 -75 -116 -101 -150 -25 -34 -67 -85 -92 -114 -25 -30 -74 -78 -110 -107
-36 -30 -95 -68 -130 -84 -55 -26 -77 -31 -141 -31 -71 0 -84 3 -165 45 -49
24 -115 67 -147 95 -32 27 -64 50 -70 50 -7 0 1 -11 18 -25 17 -14 53 -43 80
-65 28 -21 82 -54 120 -72 57 -27 85 -33 150 -36 63 -3 92 1 136 17 31 12 78
36 104 53 26 17 78 61 114 97 37 36 99 109 138 161 39 52 93 133 120 180 28
47 66 114 84 150 25 48 40 66 57 68 15 2 33 -5 48 -19 13 -12 24 -30 24 -38 0
-9 -24 -66 -54 -126 -29 -61 -79 -155 -111 -210 -31 -55 -89 -144 -127 -198
-38 -54 -102 -130 -142 -170 -39 -40 -98 -88 -130 -107 -48 -28 -72 -35 -127
-38 -37 -2 -99 1 -137 8 -39 6 -97 24 -131 40 -33 16 -86 47 -118 69 -32 23
-70 51 -85 63 -15 12 -30 19 -33 16 -3 -2 30 -31 72 -63 43 -32 105 -71 139
-87 33 -16 94 -35 135 -44 46 -10 104 -14 155 -12 71 4 90 9 140 39 32 19 91
66 130 106 40 40 104 116 142 170 38 54 97 146 131 205 34 59 84 154 111 212
28 58 50 117 50 130 0 15 -11 33 -26 45 -15 12 -39 21 -54 21 -15 0 -32 -6
-38 -12z"/>
<path d="M2666 3964 c-4 -14 -5 -28 -3 -31 3 -2 8 8 11 23 4 14 5 28 3 31 -3
2 -8 -8 -11 -23z"/>
<path d="M2756 3953 c-3 -21 -5 -263 -4 -538 l2 -500 6 535 c3 294 4 536 4
538 -1 1 -4 -14 -8 -35z"/>
<path d="M4903 3983 c4 -3 10 -3 14 0 3 4 0 7 -7 7 -7 0 -10 -3 -7 -7z"/>
<path d="M5431 3964 c0 -11 3 -14 6 -6 3 7 2 16 -1 19 -3 4 -6 -2 -5 -13z"/>
<path d="M5910 3970 c0 -7 3 -10 7 -7 3 4 3 10 0 14 -4 3 -7 0 -7 -7z"/>
<path d="M4780 3959 c0 -5 5 -7 10 -4 6 3 10 8 10 11 0 2 -4 4 -10 4 -5 0 -10
-5 -10 -11z"/>
<path d="M5069 3963 c0 -5 -1 -70 0 -147 0 -76 2 -140 5 -143 2 -3 4 63 4 146
0 83 -2 151 -4 151 -2 0 -4 -3 -5 -7z"/>
<path d="M5710 3950 c0 -11 -7 -36 -15 -56 -8 -19 -10 -32 -4 -28 8 4 9 -1 4
-17 -4 -13 -18 -45 -31 -70 -12 -25 -39 -60 -59 -77 -19 -18 -46 -34 -58 -37
-13 -4 -35 -1 -50 4 -15 6 -27 8 -27 6 0 -3 12 -10 27 -16 14 -5 40 -7 55 -3
16 3 45 20 64 37 19 16 44 48 56 70 11 22 26 58 34 79 9 26 10 37 2 32 -8 -5
-9 -2 -3 12 4 10 10 34 13 52 2 17 1 32 -2 32 -3 0 -6 -9 -6 -20z"/>
<path d="M6790 3963 c0 -7 5 -15 10 -18 7 -4 10 -413 10 -1196 l0 -1189 -32
-15 -33 -14 30 6 c17 3 33 8 38 10 4 2 7 541 7 1196 -1 1032 -3 1195 -15 1211
-8 11 -15 15 -15 9z"/>
<path d="M2965 3938 c-4 -15 -4 -32 0 -38 3 -6 3 -24 0 -42 -6 -23 -9 -27 -17
-17 -8 11 -9 10 -4 -4 3 -10 1 -27 -5 -39 -7 -13 -16 -17 -27 -13 -13 5 -14 3
-5 -6 6 -6 19 -9 27 -6 8 3 25 38 37 77 16 53 19 77 11 93 -10 22 -10 22 -17
-5z m12 -30 c-3 -7 -5 -2 -5 12 0 14 2 19 5 13 2 -7 2 -19 0 -25z"/>
<path d="M3171 3944 c0 -11 3 -14 6 -6 3 7 2 16 -1 19 -3 4 -6 -2 -5 -13z"/>
<path d="M1440 3926 c5 -13 23 -53 41 -88 17 -35 55 -100 85 -144 29 -45 79
-106 109 -137 31 -31 77 -66 102 -78 25 -12 67 -24 92 -27 30 -2 58 2 81 12
21 10 25 14 10 10 -14 -4 -44 -9 -68 -11 -33 -4 -55 1 -97 21 -29 15 -78 51
-108 80 -30 30 -79 91 -109 137 -31 46 -74 121 -97 167 -23 45 -43 82 -46 82
-2 0 0 -11 5 -24z"/>
<path d="M5920 3940 c0 -7 3 -10 7 -7 3 4 3 10 0 14 -4 3 -7 0 -7 -7z"/>
<path d="M6561 3868 c-22 -46 -59 -112 -82 -147 -24 -35 -69 -92 -102 -127
-37 -40 -81 -74 -119 -94 -39 -19 -76 -30 -102 -30 -23 0 -61 10 -86 21 -25
11 -61 34 -81 52 -19 18 -14 12 11 -13 27 -27 64 -51 87 -58 22 -7 54 -12 71
-12 17 0 55 9 84 20 29 11 77 40 106 66 28 25 72 71 95 102 24 31 63 89 86
129 23 39 51 94 62 122 10 28 17 51 15 51 -2 0 -22 -37 -45 -82z"/>
<path d="M4791 3917 c0 -16 4 -48 10 -72 6 -25 17 -50 25 -56 8 -6 14 -8 14
-5 0 4 -7 17 -15 29 -8 13 -19 47 -24 77 -5 31 -9 43 -10 27z"/>
<path d="M5440 3930 c0 -7 3 -10 7 -7 3 4 3 10 0 14 -4 3 -7 0 -7 -7z"/>
<path d="M1425 3615 l0 -320 378 -3 c298 -2 377 0 377 10 0 7 2 107 5 222 2
115 2 207 -1 204 -2 -3 -7 -97 -9 -209 -3 -112 -5 -207 -5 -212 0 -4 -165 -6
-367 -5 l-368 3 -5 315 -6 315 1 -320z"/>
<path d="M5607 3895 c-9 -19 -15 -35 -12 -35 2 0 12 14 20 31 9 17 15 33 13
35 -3 2 -12 -12 -21 -31z"/>
<path d="M2101 3889 c-6 -18 -9 -34 -7 -36 2 -2 9 10 15 28 6 18 9 34 7 36 -2
2 -9 -10 -15 -28z"/>
<path d="M2650 3910 c0 -7 3 -10 7 -7 3 4 3 10 0 14 -4 3 -7 0 -7 -7z"/>
<path d="M5930 3910 c0 -7 3 -10 7 -7 3 4 3 10 0 14 -4 3 -7 0 -7 -7z"/>
<path d="M3310 3890 c0 -11 -7 -36 -14 -55 -8 -19 -20 -35 -26 -35 -5 0 -19
15 -30 33 -11 17 -20 28 -20 24 0 -5 5 -17 10 -28 6 -11 8 -25 4 -31 -5 -7
-13 1 -21 23 -7 18 -10 23 -6 9 4 -14 8 -132 10 -262 3 -177 7 -238 16 -238 7
0 22 3 35 6 22 6 22 7 22 225 l0 219 -22 -1 c-17 -1 -19 -2 -5 -6 15 -4 17
-23 17 -213 0 -180 -2 -209 -16 -214 -9 -3 -20 -6 -25 -6 -6 0 -8 90 -7 227
l3 226 33 1 c17 1 32 -3 32 -8 0 -5 2 -7 5 -4 3 2 7 32 10 66 3 34 3 62 0 62
-3 0 -5 -9 -5 -20z"/>
<path d="M1630 3880 c6 -11 13 -20 16 -20 2 0 0 9 -6 20 -6 11 -13 20 -16 20
-2 0 0 -9 6 -20z"/>
<path d="M2450 3894 c0 -6 7 -19 16 -30 14 -18 14 -18 3 6 -6 14 -13 27 -15
29 -2 2 -4 0 -4 -5z"/>
<path d="M5094 3590 l-1 -315 7 273 c3 150 4 292 1 315 -4 23 -7 -100 -7 -273z"/>
<path d="M5170 3890 c0 -7 3 -10 7 -7 3 4 3 10 0 14 -4 3 -7 0 -7 -7z"/>
<path d="M5450 3891 c0 -6 4 -13 10 -16 6 -3 7 1 4 9 -3 9 -8 16 -10 16 -2 0
-4 -4 -4 -9z"/>
<path d="M6410 3880 c-6 -11 -8 -20 -6 -20 3 0 10 9 16 20 6 11 8 20 6 20 -3
0 -10 -9 -16 -20z"/>
<path d="M6496 3800 c-33 -55 -90 -133 -128 -174 -37 -41 -83 -84 -102 -95
-18 -11 -50 -25 -72 -30 -27 -6 -32 -9 -15 -10 14 -1 44 8 68 20 24 11 70 47
102 79 32 32 81 91 108 131 27 41 62 96 77 122 15 27 26 50 24 52 -2 2 -30
-41 -62 -95z"/>
<path d="M2636 3873 c-6 -14 -5 -15 5 -6 7 7 10 15 7 18 -3 3 -9 -2 -12 -12z"/>
<path d="M2950 3880 c0 -7 3 -10 7 -7 3 4 3 10 0 14 -4 3 -7 0 -7 -7z"/>
<path d="M5940 3889 c0 -4 9 -27 20 -53 12 -25 23 -46 26 -46 2 0 -2 16 -10
35 -8 19 -20 43 -25 52 -6 10 -11 15 -11 12z"/>
<path d="M6610 3600 l-5 -295 -367 -3 -368 -2 -3 215 -3 215 1 -217 0 -218
372 -3 373 -2 5 22 c3 13 4 149 3 303 l-3 280 -5 -295z"/>
<path d="M3017 3825 c-5 -33 -7 -154 -5 -270 1 -115 2 -262 2 -325 -2 -102 -1
-107 5 -42 4 40 5 185 2 322 -3 138 -2 267 2 287 4 21 6 49 5 63 -2 14 -7 -2
-11 -35z"/>
<path d="M2325 3583 l0 -288 184 -3 c141 -2 186 1 193 10 4 7 8 113 8 236 0
123 3 221 8 219 4 -3 8 11 9 31 l1 37 -11 -30 c-6 -17 -13 -128 -17 -260 l-5
-230 -182 -3 -183 -2 -3 285 -2 285 0 -287z"/>
<path d="M5470 3850 c0 -7 3 -10 7 -7 3 4 3 10 0 14 -4 3 -7 0 -7 -7z"/>
<path d="M7081 3823 c12 -21 43 -67 67 -103 25 -36 74 -99 108 -140 34 -41 84
-95 110 -120 26 -25 15 -9 -26 35 -40 44 -105 123 -144 175 -39 52 -84 116
-99 143 -15 26 -30 47 -33 47 -3 0 4 -17 17 -37z"/>
<path d="M1655 3840 c3 -5 8 -10 11 -10 3 0 2 5 -1 10 -3 6 -8 10 -11 10 -3 0
-2 -4 1 -10z"/>
<path d="M3275 3840 c-4 -6 -11 -7 -17 -4 -7 4 -8 2 -4 -4 4 -7 11 -12 16 -12
4 0 10 7 14 15 3 8 4 15 1 15 -2 0 -7 -5 -10 -10z"/>
<path d="M5280 3835 c0 -9 -9 -34 -20 -56 -12 -22 -31 -44 -43 -48 -12 -5 -31
-5 -42 1 -19 9 -19 8 -2 -5 12 -10 27 -13 45 -8 15 4 35 21 45 38 10 18 22 45
27 62 5 19 5 31 -1 31 -5 0 -9 -7 -9 -15z"/>
<path d="M6380 3830 c-6 -11 -8 -20 -6 -20 3 0 10 9 16 20 6 11 8 20 6 20 -3
0 -10 -9 -16 -20z"/>
<path d="M6833 3830 c4 -14 7 -141 7 -282 l0 -258 180 0 c99 0 180 3 180 6 0
4 -15 25 -34 48 -18 23 -66 91 -106 151 -40 61 -90 143 -112 183 -22 39 -42
72 -45 72 -3 0 14 -35 38 -77 23 -43 73 -125 112 -183 38 -58 85 -124 104
-147 l34 -43 -170 0 -171 0 -1 260 c-1 143 -2 264 -3 269 0 5 -5 13 -10 18 -5
5 -6 -2 -3 -17z"/>
<path d="M2485 3830 c3 -5 8 -10 11 -10 3 0 2 5 -1 10 -3 6 -8 10 -11 10 -3 0
-2 -4 1 -10z"/>
<path d="M2203 3789 c-4 -22 -7 -335 -5 -695 2 -613 3 -654 20 -654 12 0 13 3
5 8 -10 6 -13 156 -13 673 0 365 3 674 6 687 4 12 4 22 1 22 -3 0 -9 -18 -14
-41z"/>
<path d="M2820 3821 c0 -6 7 -28 15 -48 9 -21 23 -45 32 -55 9 -10 30 -18 48
-18 18 0 38 6 45 14 10 13 7 13 -20 3 -21 -8 -36 -8 -48 -1 -9 5 -29 34 -44
64 -16 29 -28 48 -28 41z"/>
<path d="M5564 3818 c-4 -7 -3 -8 4 -4 7 4 12 9 12 12 0 2 -2 4 -4 4 -3 0 -8
-5 -12 -12z"/>
<path d="M5720 3570 l-5 -265 -147 -3 -148 -3 0 218 c-1 176 -3 222 -15 237
-13 17 -15 17 -15 4 0 -9 5 -20 10 -23 6 -4 10 -90 10 -226 l0 -219 155 0
c116 0 157 3 160 13 3 7 4 129 3 272 l-3 260 -5 -265z"/>
<path d="M5824 3822 c4 -7 12 -34 17 -60 l8 -47 -3 48 c-2 27 -9 54 -16 60
-10 9 -11 9 -6 -1z"/>
<path d="M1680 3801 c5 -11 15 -23 21 -27 6 -3 3 5 -6 20 -10 14 -19 26 -22
26 -2 0 1 -9 7 -19z"/>
<path d="M2410 3800 c6 -11 13 -20 16 -20 2 0 0 9 -6 20 -6 11 -13 20 -16 20
-2 0 0 -9 6 -20z"/>
<path d="M4792 3790 c0 -19 2 -27 5 -17 2 9 2 25 0 35 -3 9 -5 1 -5 -18z"/>
<path d="M1199 3807 c-1 -4 -3 -11 -4 -17 -1 -5 -3 -118 -4 -250 l-1 -240
-144 0 -144 0 75 113 c41 61 86 133 99 160 13 26 23 47 20 47 -2 0 -26 -39
-54 -87 -28 -49 -74 -119 -102 -158 -27 -38 -50 -73 -50 -77 0 -5 70 -8 155
-8 l154 0 3 258 c2 141 2 259 1 261 -2 2 -4 1 -4 -2z"/>
<path d="M2500 3806 c0 -2 8 -10 18 -17 15 -13 16 -12 3 4 -7 9 -15 17 -17 17
-2 0 -4 -2 -4 -4z"/>
<path d="M4924 3530 c0 -157 2 -221 3 -142 2 78 2 206 0 285 -1 78 -3 14 -3
-143z"/>
<path d="M6870 3804 c0 -6 7 -19 16 -30 14 -18 14 -18 3 6 -6 14 -13 27 -15
29 -2 2 -4 0 -4 -5z"/>
<path d="M3181 3570 c0 -129 -4 -259 -7 -287 -5 -40 -11 -53 -23 -52 -10 0
-12 2 -3 6 6 2 12 11 12 19 0 10 -12 14 -47 12 l-48 -1 43 -4 c43 -4 44 -5 26
-24 -9 -10 -25 -19 -35 -19 -10 0 -20 -4 -23 -9 -3 -4 6 -6 19 -3 14 2 28 8
31 13 2 4 16 4 29 -1 17 -7 25 -6 25 1 0 6 7 9 15 5 12 -4 15 5 13 52 -2 57
-2 57 -5 10 -2 -27 -7 -48 -11 -48 -4 0 -5 114 -4 253 2 139 2 266 -1 283 -2
16 -5 -77 -6 -206z"/>
<path d="M5505 3790 c3 -5 8 -10 11 -10 3 0 2 5 -1 10 -3 6 -8 10 -11 10 -3 0
-2 -4 1 -10z"/>
<path d="M6334 3763 c-15 -20 -23 -33 -16 -29 6 3 21 20 32 36 12 17 19 30 17
30 -3 0 -17 -17 -33 -37z"/>
<path d="M5302 3547 l-2 -248 -77 3 -78 3 -5 230 -6 230 1 -235 0 -235 83 -3
c61 -2 84 1 87 10 3 7 4 121 2 253 l-2 240 -3 -248z"/>
<path d="M2548 3773 c7 -3 16 -2 19 1 4 3 -2 6 -13 5 -11 0 -14 -3 -6 -6z"/>
<path d="M2804 3545 c0 -132 2 -185 3 -117 2 68 2 176 0 240 -1 64 -3 9 -3
-123z"/>
<path d="M2435 3760 c3 -5 8 -10 11 -10 3 0 2 5 -1 10 -3 6 -8 10 -11 10 -3 0
-2 -4 1 -10z"/>
<path d="M1132 3695 c-17 -36 -30 -65 -27 -65 3 0 19 27 36 61 16 34 29 63 27
65 -2 2 -18 -26 -36 -61z"/>
<path d="M1725 3740 c10 -11 20 -20 23 -20 3 0 -3 9 -13 20 -10 11 -20 20 -23
20 -3 0 3 -9 13 -20z"/>
<path d="M3313 3710 c0 -30 2 -43 4 -27 2 15 2 39 0 55 -2 15 -4 2 -4 -28z"/>
<path d="M6005 3750 c3 -5 8 -10 11 -10 3 0 2 5 -1 10 -3 6 -8 10 -11 10 -3 0
-2 -4 1 -10z"/>
<path d="M2980 3530 l-5 -225 -85 -6 -85 -5 87 -2 c83 -2 88 -1 93 21 3 12 4
117 3 232 l-3 210 -5 -225z"/>
<path d="M2024 3728 c-4 -7 -3 -8 4 -4 7 4 12 9 12 12 0 2 -2 4 -4 4 -3 0 -8
-5 -12 -12z"/>
<path d="M6025 3720 c3 -5 8 -10 11 -10 3 0 2 5 -1 10 -3 6 -8 10 -11 10 -3 0
-2 -4 1 -10z"/>
<path d="M6284 3698 l-19 -23 23 19 c12 11 22 21 22 23 0 1 -2 3 -3 3 -2 0
-12 -10 -23 -22z"/>
<path d="M1999 3693 c-13 -16 -12 -17 4 -4 9 7 17 15 17 17 0 2 -2 4 -4 4 -2
0 -10 -8 -17 -17z"/>
<path d="M6060 3677 c14 -16 34 -33 45 -39 11 -6 16 -6 10 -2 -5 5 -26 23 -45
39 l-35 30 25 -28z"/>
<path d="M1800 3666 c0 -2 8 -10 18 -17 15 -13 16 -12 3 4 -7 9 -15 17 -17 17
-2 0 -4 -2 -4 -4z"/>
<path d="M6220 3649 c-22 -18 -22 -19 -3 -10 12 6 25 16 28 21 3 6 5 10 3 10
-2 0 -14 -10 -28 -21z"/>
<path d="M1845 3631 c6 -5 24 -13 40 -17 17 -4 28 -5 25 -2 -3 3 -21 10 -40
17 -19 6 -30 7 -25 2z"/>
<path d="M1930 3630 c-9 -6 -10 -10 -3 -10 6 0 15 5 18 10 3 6 5 10 3 10 -2 0
-10 -5 -18 -10z"/>
<path d="M5915 3630 c3 -5 8 -10 11 -10 3 0 2 5 -1 10 -3 6 -8 10 -11 10 -3 0
-2 -4 1 -10z"/>
<path d="M2100 3595 c-12 -19 -42 -53 -68 -76 -26 -23 -38 -37 -26 -31 11 6
39 31 61 55 22 24 46 54 52 66 7 11 10 21 7 21 -2 0 -14 -16 -26 -35z"/>
<path d="M6143 3623 c9 -2 25 -2 35 0 9 3 1 5 -18 5 -19 0 -27 -2 -17 -5z"/>
<path d="M5935 3600 c3 -5 8 -10 11 -10 3 0 2 5 -1 10 -3 6 -8 10 -11 10 -3 0
-2 -4 1 -10z"/>
<path d="M4794 3445 c0 -55 1 -76 3 -47 2 29 2 74 0 100 -2 26 -3 2 -3 -53z"/>
<path d="M5 3480 c3 -5 11 -10 16 -10 6 0 7 5 4 10 -3 6 -11 10 -16 10 -6 0
-7 -4 -4 -10z"/>
<path d="M75 3430 c3 -5 8 -10 11 -10 3 0 2 5 -1 10 -3 6 -8 10 -11 10 -3 0
-2 -4 1 -10z"/>
<path d="M3310 3360 c0 -7 3 -10 7 -7 3 4 3 10 0 14 -4 3 -7 0 -7 -7z"/>
<path d="M3275 3320 c3 -6 -1 -13 -10 -17 -10 -3 -21 0 -26 8 -7 11 -9 11 -9
-3 0 -13 8 -18 25 -18 14 0 25 5 25 10 0 6 8 10 18 10 14 0 15 2 2 10 -8 5
-19 10 -23 10 -5 0 -5 -5 -2 -10z"/>
<path d="M4890 3285 c0 -19 4 -35 8 -35 4 0 6 16 4 35 -2 19 -6 35 -8 35 -2 0
-4 -16 -4 -35z"/>
<path d="M7595 3300 c3 -5 8 -10 11 -10 3 0 2 5 -1 10 -3 6 -8 10 -11 10 -3 0
-2 -4 1 -10z"/>
<path d="M293 3293 c4 -3 10 -3 14 0 3 4 0 7 -7 7 -7 0 -10 -3 -7 -7z"/>
<path d="M5394 3135 c0 -93 2 -133 3 -88 2 45 2 122 0 170 -1 48 -3 12 -3 -82z"/>
<path d="M5844 3075 c0 -126 2 -177 3 -112 2 65 2 168 0 230 -1 62 -3 9 -3
-118z"/>
<path d="M328 3283 c7 -3 16 -2 19 1 4 3 -2 6 -13 5 -11 0 -14 -3 -6 -6z"/>
<path d="M2717 3230 c3 -36 7 -67 9 -69 2 -2 3 13 3 35 -1 21 -5 53 -9 69 -5
19 -6 6 -3 -35z"/>
<path d="M2990 3280 c0 -7 3 -10 7 -7 3 4 3 10 0 14 -4 3 -7 0 -7 -7z"/>
<path d="M5122 3265 c0 -16 2 -22 5 -12 2 9 2 23 0 30 -3 6 -5 -1 -5 -18z"/>
<path d="M7623 3283 c4 -3 10 -3 14 0 3 4 0 7 -7 7 -7 0 -10 -3 -7 -7z"/>
<path d="M7863 3283 c4 -3 10 -3 14 0 3 4 0 7 -7 7 -7 0 -10 -3 -7 -7z"/>
<path d="M1800 3270 l-375 -5 375 -5 375 -5 1 -58 c0 -37 -4 -64 -13 -72 -10
-10 -10 -14 0 -18 9 -3 12 -78 12 -326 0 -177 -3 -330 -6 -339 -5 -13 -27 -21
-77 -30 -39 -6 -95 -23 -125 -36 -43 -19 -57 -31 -66 -56 -6 -18 -11 -52 -11
-75 0 -34 5 -46 24 -58 13 -9 49 -23 80 -32 32 -9 60 -15 62 -12 3 2 -17 10
-43 16 -26 7 -63 22 -80 33 -28 17 -33 25 -33 58 0 22 5 51 12 65 7 15 32 37
60 51 26 13 80 29 120 36 40 6 77 15 82 19 5 5 10 189 11 416 2 224 0 415 -4
423 -5 13 -54 14 -381 10z"/>
<path d="M2688 3275 c-3 -3 -86 -7 -184 -8 -127 -1 -146 -2 -66 -4 85 -3 111
-7 105 -16 -4 -8 -1 -7 10 1 11 9 37 13 82 10 47 -2 65 0 65 10 0 6 -1 12 -3
12 -2 0 -6 -2 -9 -5z"/>
<path d="M4955 3253 c5 -20 2 -21 -30 -16 -24 4 -35 2 -35 -7 0 -7 -7 -10 -17
-6 -9 4 -31 1 -50 -5 -19 -6 -32 -16 -30 -22 2 -7 23 -15 48 -19 24 -4 49 -6
54 -4 6 2 -15 7 -45 11 l-54 8 33 16 c31 14 34 14 46 -2 10 -13 23 -17 47 -14
l33 4 -32 1 c-18 1 -33 7 -33 12 0 6 7 13 16 17 9 3 19 2 23 -4 3 -5 21 -10
40 -11 18 -1 41 -6 49 -11 11 -6 1 -12 -39 -19 -31 -6 -42 -10 -24 -10 17 0
41 3 54 7 14 4 26 12 29 19 2 7 -12 14 -38 18 -24 4 -37 10 -30 14 9 6 9 10
-1 16 -10 6 0 11 31 14 l45 6 -48 5 c-45 4 -48 3 -42 -18z"/>
<path d="M6235 3270 l-370 -5 0 -424 0 -425 71 -12 c40 -6 88 -17 107 -23 20
-7 47 -21 61 -32 21 -16 26 -29 26 -62 0 -23 4 -46 8 -52 4 -6 94 -10 232 -10
l225 0 0 -32 c0 -17 3 -29 7 -26 5 2 7 149 6 326 l-3 322 -2 -290 -3 -290
-228 2 -227 2 -3 48 c-2 26 -10 56 -19 65 -8 9 -37 24 -63 33 -26 9 -79 22
-116 29 l-69 12 0 138 0 138 147 -1 c82 -1 164 1 184 5 19 4 38 14 42 23 3 9
10 19 16 23 7 5 3 8 -9 8 -20 1 -20 1 0 16 18 13 0 15 -180 14 l-200 -2 -3
236 -2 236 370 -2 c291 -2 370 0 370 10 0 6 -1 11 -2 10 -2 -2 -169 -5 -373
-8z m0 -511 c4 -12 2 -26 -4 -33 -8 -7 -67 -12 -163 -14 -83 -2 -161 -1 -174
2 -17 5 -24 13 -24 30 0 14 6 27 13 29 6 3 87 6 179 6 161 1 167 0 173 -20z"/>
<path d="M6842 2390 l3 -885 109 -22 c60 -12 132 -33 160 -47 29 -14 63 -37
75 -50 18 -19 25 -40 28 -81 2 -30 -1 -64 -7 -75 -6 -11 -29 -32 -50 -45 -22
-14 -63 -30 -91 -36 -28 -6 -48 -13 -46 -15 2 -3 26 0 52 6 26 6 67 22 91 36
24 14 49 38 57 52 l12 27 385 5 385 6 -388 -1 c-251 0 -387 4 -388 10 0 6 -2
30 -4 55 -3 37 -10 51 -41 78 -23 20 -67 42 -113 56 -42 13 -98 27 -126 31
-27 4 -60 12 -72 16 l-23 9 0 305 0 305 163 0 c128 0 167 3 183 15 16 12 85
15 414 17 l395 3 -400 5 -400 5 370 5 370 5 -363 2 c-363 3 -364 3 -382 26
-17 21 -26 22 -184 25 l-166 3 0 510 0 509 168 1 c92 0 175 0 184 1 9 1 15 4
13 8 -2 3 -28 4 -57 1 -29 -3 -113 -4 -186 -1 l-132 5 2 -885z m336 -176 c12
-8 22 -23 22 -33 0 -9 -5 -22 -12 -29 -8 -8 -60 -12 -170 -12 -119 0 -158 3
-159 13 0 6 -2 21 -5 32 -2 11 -2 26 1 33 3 9 43 12 152 12 118 0 153 -3 171
-16z"/>
<path d="M7658 3273 c7 -3 16 -2 19 1 4 3 -2 6 -13 5 -11 0 -14 -3 -6 -6z"/>
<path d="M849 3253 c-12 -16 -12 -17 2 -6 8 7 56 14 110 16 l94 3 -96 2 c-82
2 -99 -1 -110 -15z"/>
<path d="M1125 3260 c-14 -6 -6 -7 23 -3 l42 6 0 -302 c0 -191 -4 -301 -10
-301 -5 0 -65 -26 -132 -59 -68 -32 -143 -68 -168 -79 -25 -11 -148 -70 -274
-131 -126 -61 -230 -111 -232 -111 -2 0 -81 -38 -176 -84 -95 -46 -180 -86
-188 -89 -11 -4 -11 -6 3 -6 10 -1 96 37 190 83 95 46 215 104 267 129 52 25
145 68 205 97 61 29 192 92 292 140 99 49 191 91 202 95 l21 6 -2 -572 -3
-573 -75 -13 c-41 -7 -106 -24 -145 -38 -38 -14 -83 -36 -99 -49 -27 -21 -31
-31 -37 -97 -4 -41 -3 -84 2 -96 5 -13 15 -23 24 -23 12 0 11 4 -4 19 -16 16
-18 29 -14 83 3 34 11 73 19 85 7 12 42 35 76 52 35 17 99 38 143 47 44 8 90
17 103 20 l22 4 0 885 0 885 -27 -1 c-16 0 -37 -4 -48 -9z"/>
<path d="M2894 3263 l89 -4 -5 -87 c-4 -62 -3 -78 4 -54 5 19 8 59 6 90 l-3
57 -90 1 -90 0 89 -3z"/>
<path d="M3743 3263 c175 -2 459 -2 630 0 172 1 29 2 -318 2 -346 0 -487 -1
-312 -2z"/>
<path d="M5233 3263 c15 -2 37 -2 50 0 12 2 0 4 -28 4 -27 0 -38 -2 -22 -4z"/>
<path d="M5410 3160 c0 -60 3 -110 8 -110 4 0 6 47 4 105 l-3 104 153 4 153 3
-157 2 -158 2 0 -110z"/>
<path d="M4750 3225 c13 -14 26 -23 28 -20 3 3 -3 14 -13 25 -10 11 -23 20
-28 20 -6 0 0 -11 13 -25z"/>
<path d="M3314 3229 c-4 -6 -20 -9 -39 -6 -21 3 -41 0 -55 -10 -12 -8 -32 -13
-45 -11 -17 4 -22 1 -17 -10 4 -13 -3 -14 -44 -10 l-49 6 38 -12 c21 -6 35
-15 31 -19 -4 -4 17 -6 47 -5 l54 1 -45 6 c-42 6 -44 7 -23 19 12 6 27 12 34
12 7 0 20 6 28 14 10 9 27 12 44 9 15 -3 27 -9 27 -13 0 -5 -24 -12 -52 -16
-29 -4 -46 -9 -37 -11 9 -2 34 0 57 6 33 7 42 6 42 -5 0 -7 -10 -19 -22 -25
-13 -7 -65 -13 -120 -13 -53 -1 -88 -4 -78 -8 10 -4 52 -5 94 -3 41 2 91 8
110 15 33 11 34 12 24 41 -9 25 -7 32 8 44 11 8 14 15 7 15 -6 0 -15 -5 -19
-11z"/>
<path d="M5098 3170 c-2 -39 0 -70 5 -70 4 0 7 32 7 70 0 39 -2 70 -4 70 -2 0
-6 -32 -8 -70z"/>
<path d="M5135 3210 c-4 -6 -5 -39 -3 -73 3 -57 1 -62 -17 -59 -11 2 -22 4
-25 5 -3 0 -23 -3 -45 -7 -22 -4 -56 -12 -76 -17 -29 -7 -38 -15 -42 -36 -3
-15 -1 -35 4 -45 5 -9 31 -21 59 -27 28 -6 74 -11 103 -10 29 0 61 4 72 9 13
6 15 9 5 9 -13 1 -13 2 0 11 13 8 12 10 -2 10 -10 0 -18 -7 -18 -16 0 -15 -11
-16 -85 -12 -54 4 -94 12 -110 22 -14 9 -25 21 -25 27 0 8 12 9 38 3 20 -5 82
-9 137 -9 55 0 113 4 128 8 21 6 27 5 21 -4 -4 -7 -3 -9 4 -6 5 4 9 13 8 20
-1 6 -5 18 -9 25 -5 6 -4 12 0 12 5 0 14 -5 21 -12 8 -8 12 -9 12 -1 0 6 -19
18 -42 27 -24 8 -56 19 -73 24 -29 9 -30 11 -30 70 0 34 -1 62 -2 62 -1 0 -5
-5 -8 -10z m-25 -152 c0 -6 -9 -8 -20 -5 -11 3 -20 1 -20 -4 0 -5 8 -9 17 -9
9 0 27 10 39 21 21 20 26 20 74 9 30 -7 47 -16 40 -20 -8 -5 -6 -9 7 -15 15
-6 12 -9 -17 -20 -19 -8 -72 -14 -118 -14 -46 -1 -103 4 -128 10 -24 6 -44 15
-44 19 0 5 14 13 31 19 18 6 40 11 50 11 11 0 19 -7 19 -15 0 -8 9 -19 19 -25
11 -5 39 -9 63 -8 23 1 38 3 31 5 -6 2 -9 13 -6 23 3 10 12 21 22 23 11 3 10
5 -5 6 -15 1 -24 -6 -28 -24 -5 -19 -13 -25 -34 -25 -15 0 -33 5 -40 12 -7 7
-12 18 -12 24 0 7 8 14 18 16 9 3 23 2 30 0 6 -2 12 -9 12 -14z"/>
<path d="M5198 3053 c7 -3 16 -2 19 1 4 3 -2 6 -13 5 -11 0 -14 -3 -6 -6z"/>
<path d="M2699 3198 c-1 -7 -2 -17 -4 -23 -1 -5 -3 -24 -3 -42 -2 -31 -3 -32
-54 -36 l-53 -3 53 -2 53 -2 -3 -96 -3 -96 -75 -19 c-41 -11 -80 -25 -87 -32
-7 -7 -17 -27 -22 -45 -6 -21 -6 -32 0 -32 6 0 8 -4 4 -9 -3 -5 7 -19 21 -30
14 -11 42 -23 63 -27 20 -3 45 -8 56 -10 l20 -4 -20 9 c-11 5 -37 12 -57 16
-23 3 -45 16 -58 32 -11 14 -20 36 -20 49 0 12 12 32 26 43 15 12 34 21 42 21
13 0 12 -3 -4 -14 -17 -13 -15 -13 19 -3 34 11 35 13 15 18 -18 5 -13 8 23 13
25 4 50 11 56 14 7 4 12 68 14 165 2 86 3 157 2 157 -2 0 -4 -6 -4 -12z"/>
<path d="M7320 3162 c30 -29 86 -73 123 -98 38 -26 99 -57 135 -69 37 -13 92
-26 122 -30 35 -4 81 -1 128 9 40 8 96 27 125 41 29 14 43 22 32 19 -11 -4
-51 -18 -90 -32 -51 -18 -91 -25 -150 -26 -47 0 -103 7 -135 17 -31 9 -96 42
-145 72 -50 31 -106 71 -125 89 -19 18 -44 38 -55 46 -11 8 5 -9 35 -38z"/>
<path d="M36 3161 c22 -17 69 -46 103 -65 35 -20 94 -45 132 -57 53 -16 89
-20 149 -17 47 2 84 8 92 16 11 11 8 11 -15 3 -16 -6 -59 -11 -96 -11 -37 0
-92 7 -121 16 -30 9 -86 34 -125 56 -38 22 -84 51 -102 64 -17 13 -37 24 -44
24 -7 0 5 -13 27 -29z"/>
<path d="M4783 3166 c1 -13 13 -23 32 -27 17 -4 76 -9 133 -11 56 -2 102 0
102 4 0 3 -47 7 -105 7 -57 1 -115 5 -129 10 -13 6 -27 16 -30 23 -3 7 -5 4
-3 -6z"/>
<path d="M764 3158 c-4 -7 -3 -8 4 -4 7 4 12 9 12 12 0 2 -2 4 -4 4 -3 0 -8
-5 -12 -12z"/>
<path d="M1422 3145 c0 -16 2 -22 5 -12 2 9 2 23 0 30 -3 6 -5 -1 -5 -18z"/>
<path d="M4948 3153 c6 -2 18 -2 25 0 6 3 1 5 -13 5 -14 0 -19 -2 -12 -5z"/>
<path d="M32 3126 c19 -13 64 -39 99 -59 35 -20 98 -45 139 -56 41 -12 100
-21 130 -21 31 0 81 7 111 16 30 9 74 27 99 39 25 13 54 30 65 39 11 9 -11 0
-50 -19 -38 -20 -92 -42 -119 -50 -27 -8 -75 -15 -106 -15 -30 0 -88 9 -127
20 -42 11 -110 43 -164 75 -50 30 -96 55 -102 55 -5 0 6 -11 25 -24z"/>
<path d="M6603 3115 c0 -22 2 -30 4 -17 2 12 2 30 0 40 -3 9 -5 -1 -4 -23z"/>
<path d="M714 3118 l-19 -23 23 19 c12 11 22 21 22 23 0 1 -2 3 -3 3 -2 0 -12
-10 -23 -22z"/>
<path d="M4890 3113 c0 -5 10 -19 23 -31 16 -15 27 -18 37 -12 13 8 13 10 1
10 -8 0 -25 10 -38 22 -13 12 -23 17 -23 11z"/>
<path d="M7445 3096 c17 -14 53 -36 80 -50 28 -14 77 -32 110 -41 32 -8 80
-15 105 -15 25 0 73 7 105 16 33 8 83 26 110 40 28 13 41 22 30 20 -11 -3 -49
-17 -85 -32 -56 -25 -78 -28 -160 -28 -72 0 -107 5 -146 21 -28 11 -76 36
-106 56 -30 21 -59 37 -64 37 -5 0 5 -11 21 -24z"/>
<path d="M3013 3103 c4 -3 10 -3 14 0 3 4 0 7 -7 7 -7 0 -10 -3 -7 -7z"/>
<path d="M3165 3099 c-4 -6 -5 -12 -3 -14 1 -2 12 3 22 11 17 12 17 14 4 14
-9 0 -20 -5 -23 -11z"/>
<path d="M5034 3098 c-4 -7 -3 -8 4 -4 7 4 12 9 12 12 0 2 -2 4 -4 4 -3 0 -8
-5 -12 -12z"/>
<path d="M1427 3093 c-4 -3 -7 -338 -7 -745 0 -597 3 -738 13 -738 7 0 53 34
103 77 49 42 153 132 232 200 78 69 142 127 142 129 0 3 -104 -85 -232 -195
-127 -110 -235 -198 -240 -195 -4 3 -8 260 -8 572 l1 567 46 19 c26 11 42 21
35 24 -6 2 -22 -4 -34 -12 -12 -9 -28 -16 -36 -16 -10 0 -12 32 -10 160 2 88
3 160 2 160 0 0 -4 -3 -7 -7z"/>
<path d="M2324 3088 c-4 -7 -3 -8 4 -4 7 4 12 9 12 12 0 2 -2 4 -4 4 -3 0 -8
-5 -12 -12z"/>
<path d="M2823 3093 c9 -2 23 -2 30 0 6 3 -1 5 -18 5 -16 0 -22 -2 -12 -5z"/>
<path d="M3070 3092 c0 -5 -13 -9 -30 -9 -16 0 -32 -2 -35 -5 -3 -3 -3 -13 1
-22 3 -9 11 -16 17 -16 6 0 19 7 29 17 10 9 18 12 18 7 0 -6 -5 -15 -12 -22
-7 -7 -24 -12 -39 -12 -15 0 -29 7 -33 16 -3 9 -4 19 -2 22 2 4 -17 6 -42 6
-26 -1 -56 -2 -67 -3 l-20 -2 20 -9 c16 -7 16 -9 4 -9 -9 -1 -20 -8 -23 -17
-3 -9 -6 -17 -6 -19 0 -2 23 -8 50 -14 28 -6 78 -11 110 -11 32 0 83 5 112 11
29 6 56 17 60 23 4 6 8 14 8 18 0 3 -14 11 -31 17 -18 6 -45 11 -60 11 -21 0
-27 4 -23 15 4 8 3 15 0 15 -3 0 -6 -4 -6 -8z m-28 -34 c-6 -6 -16 -7 -22 -3
-9 6 -9 9 1 16 7 4 17 5 22 2 5 -3 4 -10 -1 -15z m-91 2 c9 0 20 -7 23 -16 3
-8 -1 -22 -9 -30 -13 -13 -21 -13 -62 -1 l-48 14 34 15 c22 10 30 18 20 20 -8
3 -5 4 6 2 11 -2 27 -4 36 -4z m209 -15 l25 -13 -30 -12 c-16 -7 -66 -14 -109
-17 -58 -5 -77 -3 -72 5 4 7 25 12 47 12 28 0 42 6 51 20 8 12 23 20 38 20 14
-1 36 -7 50 -15z"/>
<path d="M3135 3090 c-3 -5 -1 -10 4 -10 6 0 11 5 11 10 0 6 -2 10 -4 10 -3 0
-8 -4 -11 -10z"/>
<path d="M2836 3044 c-3 -9 -6 -29 -6 -44 0 -18 7 -33 19 -39 10 -6 37 -14 60
-20 22 -5 41 -6 41 -2 0 3 39 6 88 7 55 0 100 6 123 16 21 9 36 23 36 33 0 15
-2 15 -11 3 -6 -8 -22 -21 -36 -28 -16 -9 -67 -15 -139 -17 -87 -2 -120 1
-143 13 -28 14 -30 19 -25 55 3 21 4 39 2 39 -2 0 -6 -7 -9 -16z"/>
<path d="M2322 2737 c-2 -280 0 -318 14 -324 8 -3 26 -1 39 5 18 9 25 8 29 -4
3 -8 14 -14 24 -14 10 0 40 -7 65 -16 26 -9 54 -26 62 -37 9 -13 15 -44 15
-78 0 -41 -5 -60 -17 -71 -10 -8 -38 -23 -63 -31 -25 -9 -74 -22 -110 -28 -36
-6 -120 -9 -186 -7 l-122 3 -183 -161 c-101 -88 -234 -203 -295 -256 -61 -53
-123 -103 -138 -113 -21 -14 -26 -25 -26 -56 0 -22 2 -39 4 -39 3 0 39 -5 81
-11 43 -6 105 -19 139 -29 36 -12 79 -34 104 -56 41 -34 42 -37 42 -95 0 -33
-4 -69 -10 -79 -5 -10 -31 -30 -56 -44 -26 -14 -69 -33 -98 -41 -28 -9 -94
-22 -146 -30 -52 -8 -138 -15 -190 -15 -52 0 -135 5 -185 11 -49 6 -120 21
-157 34 l-68 23 -237 -201 c-130 -111 -317 -271 -416 -355 -99 -84 -193 -164
-211 -177 -17 -14 -26 -25 -20 -25 6 0 186 150 400 333 215 182 412 350 439
373 l50 41 66 -23 c36 -12 106 -27 155 -33 49 -6 132 -11 184 -11 52 0 138 7
190 15 52 8 120 22 150 31 30 9 76 27 102 40 26 13 52 33 58 43 5 11 10 51 10
90 0 69 0 70 -40 104 -26 22 -65 41 -113 55 -39 12 -89 24 -109 27 -21 3 -54
7 -73 10 -31 5 -35 9 -35 35 0 16 6 33 14 37 7 4 151 127 320 273 l307 265
122 -3 c82 -2 148 2 201 12 44 9 100 26 125 38 l46 23 3 70 c3 64 0 73 -22 94
-13 12 -49 30 -80 40 -32 10 -58 20 -59 23 -1 3 36 39 83 80 47 40 115 99 153
131 37 31 62 57 55 57 -7 0 -79 -59 -160 -130 -82 -72 -148 -127 -148 -123 0
3 8 16 18 27 9 11 0 6 -21 -12 -22 -18 -44 -31 -50 -29 -9 3 -13 93 -17 318
l-5 314 -3 -318z"/>
<path d="M4902 3010 c0 -19 2 -27 5 -17 2 9 2 25 0 35 -3 9 -5 1 -5 -18z"/>
<path d="M5260 2980 c-9 -6 -10 -10 -3 -10 6 0 15 5 18 10 3 6 5 10 3 10 -2 0
-10 -5 -18 -10z"/>
<path d="M5410 2945 c0 -32 5 -47 18 -53 9 -6 37 -13 62 -17 34 -6 40 -10 26
-15 -19 -6 -19 -7 2 -12 12 -4 20 -2 16 3 -3 5 1 9 8 9 7 0 26 -10 41 -23 15
-12 29 -31 29 -42 2 -18 7 -20 57 -15 l56 5 -48 3 c-40 3 -49 7 -57 28 -6 15
-27 32 -53 44 -24 11 -62 22 -85 26 -23 3 -47 13 -53 20 -7 8 -9 29 -6 49 3
19 2 35 -4 35 -5 0 -9 -20 -9 -45z"/>
<path d="M2953 2973 c9 -2 23 -2 30 0 6 3 -1 5 -18 5 -16 0 -22 -2 -12 -5z"/>
<path d="M5223 2963 c4 -3 10 -3 14 0 3 4 0 7 -7 7 -7 0 -10 -3 -7 -7z"/>
<path d="M5220 2949 c-36 -10 -57 -18 -47 -18 10 -1 38 4 63 10 24 6 47 15 50
20 3 5 4 8 2 8 -2 -1 -32 -10 -68 -20z"/>
<path d="M5298 2917 c-3 -19 -2 -25 4 -19 6 6 8 18 6 28 -3 14 -5 12 -10 -9z"/>
<path d="M5386 2925 c-3 -8 -1 -15 4 -15 6 0 10 7 10 15 0 8 -2 15 -4 15 -2 0
-6 -7 -10 -15z"/>
<path d="M2720 2915 c0 -8 4 -15 10 -15 5 0 7 7 4 15 -4 8 -8 15 -10 15 -2 0
-4 -7 -4 -15z"/>
<path d="M2947 2905 c-15 -14 -27 -21 -27 -16 0 6 -8 7 -17 4 -15 -6 -14 -7 3
-14 13 -4 29 1 49 16 17 12 39 25 50 28 16 4 15 5 -5 6 -14 1 -37 -10 -53 -24z"/>
<path d="M5094 2918 c11 -6 29 -21 40 -33 16 -18 27 -21 46 -15 l25 8 -26 1
c-14 1 -35 12 -47 26 -12 14 -30 25 -39 25 -16 -1 -16 -2 1 -12z"/>
<path d="M2808 2891 c-1 -6 -36 -12 -77 -15 -40 -3 -76 -7 -79 -10 -3 -4 4 -6
15 -6 15 0 22 -8 25 -30 2 -16 0 -31 -6 -34 -6 -2 15 -3 48 -2 44 2 62 7 72
21 8 10 14 25 14 32 0 8 12 13 33 12 17 0 48 -5 67 -12 19 -7 35 -19 35 -27 0
-8 -17 -21 -40 -29 -26 -9 -85 -14 -165 -15 -82 0 -139 4 -165 13 -22 8 -43
18 -46 24 -4 5 -9 5 -13 -2 -4 -6 3 -15 18 -21 14 -5 56 -15 93 -21 37 -7 102
-9 148 -6 45 3 102 11 128 18 26 6 52 19 57 29 7 12 6 21 -3 28 -6 5 -30 15
-52 21 -22 6 -54 11 -72 11 -25 0 -31 4 -27 15 4 8 4 15 1 15 -3 0 -7 -4 -9
-9z m-75 -71 c8 0 7 4 -1 12 -7 7 -12 18 -12 25 0 7 7 13 15 13 9 0 15 -9 15
-25 0 -16 6 -25 15 -25 9 0 21 12 27 28 10 24 12 25 16 7 3 -12 -4 -26 -18
-37 -12 -10 -32 -18 -44 -18 -12 0 -27 5 -34 12 -7 7 -12 23 -11 38 l1 25 10
-27 c5 -16 15 -28 21 -28z m50 30 c-3 -11 -9 -20 -14 -20 -5 0 -9 6 -9 13 0 8
3 17 7 20 3 4 10 7 14 7 4 0 5 -9 2 -20z"/>
<path d="M5320 2869 c0 -17 6 -32 15 -35 8 -4 26 -3 39 0 13 3 27 13 30 23 4
9 2 21 -4 27 -7 7 -10 3 -10 -12 0 -12 -5 -22 -11 -22 -6 0 -9 7 -6 15 4 8 2
17 -3 20 -6 3 -19 8 -30 10 -16 3 -20 -2 -20 -26z m43 -9 c3 -13 0 -20 -8 -20
-8 0 -17 5 -20 10 -4 6 -4 18 -1 26 3 8 10 13 15 10 5 -3 11 -15 14 -26z"/>
<path d="M5196 2857 c-21 -7 -44 -20 -50 -30 -8 -14 -8 -20 4 -27 8 -6 31 -15
50 -21 19 -5 81 -13 136 -16 64 -4 126 -1 167 7 36 6 74 18 83 25 12 8 14 14
6 19 -7 4 -12 3 -12 -3 0 -5 -17 -15 -37 -23 -24 -8 -85 -13 -168 -13 -103 0
-140 4 -178 19 -40 15 -46 21 -35 31 7 7 28 17 47 24 19 6 44 11 56 11 13 0
26 -9 33 -24 7 -17 22 -27 46 -31 19 -4 43 -4 54 -1 11 4 23 17 26 31 3 13 14
26 24 28 14 4 14 5 -3 6 -14 1 -24 -8 -32 -29 -9 -24 -17 -30 -40 -30 -16 0
-39 7 -51 16 -12 8 -22 22 -22 30 0 9 -10 14 -32 13 -18 0 -51 -6 -72 -12z"/>
<path d="M6601 2854 c0 -11 3 -14 6 -6 3 7 2 16 -1 19 -3 4 -6 -2 -5 -13z"/>
<path d="M5116 2828 c-3 -13 -5 -39 -5 -58 1 -27 3 -22 9 20 5 30 7 56 5 58
-1 1 -5 -8 -9 -20z"/>
<path d="M2992 2810 c0 -19 2 -27 5 -17 2 9 2 25 0 35 -3 9 -5 1 -5 -18z"/>
<path d="M5410 2796 c0 -2 7 -6 15 -10 8 -3 15 -1 15 4 0 6 -7 10 -15 10 -8 0
-15 -2 -15 -4z"/>
<path d="M5134 2776 c-3 -9 -1 -23 6 -31 7 -8 36 -22 64 -30 28 -8 74 -16 101
-17 28 -1 76 -1 108 0 32 1 57 7 57 13 0 6 -9 8 -20 4 -12 -4 -56 -7 -98 -8
-42 0 -100 5 -129 12 -28 7 -60 22 -70 33 -18 21 -18 21 2 14 11 -4 52 -15 90
-23 47 -10 101 -13 165 -10 52 2 114 11 138 20 23 8 42 11 42 7 0 -4 -6 -12
-12 -18 -7 -5 -33 -15 -58 -21 l-45 -11 44 6 c24 2 52 9 62 15 11 5 19 19 19
30 0 16 -4 19 -17 14 -10 -4 -43 -14 -73 -21 -30 -8 -89 -14 -130 -14 -41 0
-106 7 -144 15 -37 8 -74 20 -82 26 -11 9 -15 8 -20 -5z"/>
<path d="M5843 2720 c0 -41 2 -58 4 -37 2 20 2 54 0 75 -2 20 -4 3 -4 -38z"/>
<path d="M2535 2770 c3 -4 29 -14 57 -21 29 -7 98 -13 153 -13 63 0 124 7 164
17 35 10 66 15 68 13 3 -3 -8 -11 -24 -19 -15 -8 -57 -21 -91 -27 -36 -8 -96
-11 -140 -8 -44 3 -64 2 -47 -2 17 -4 56 -8 88 -9 32 0 89 6 126 15 38 8 77
21 87 29 14 10 16 17 8 25 -7 7 -28 6 -75 -7 -44 -12 -98 -17 -174 -16 -66 1
-129 7 -157 16 -27 8 -46 11 -43 7z"/>
<path d="M5615 2749 c-4 -6 -5 -12 -2 -15 2 -3 7 2 10 11 4 8 5 15 2 15 -2 0
-7 -5 -10 -11z"/>
<path d="M2608 2723 c7 -3 16 -2 19 1 4 3 -2 6 -13 5 -11 0 -14 -3 -6 -6z"/>
<path d="M5512 2702 c-40 -8 -71 -17 -68 -19 2 -2 33 1 67 7 35 7 71 16 79 21
8 4 11 8 5 7 -5 0 -43 -8 -83 -16z"/>
<path d="M2913 2703 c4 -3 10 -3 14 0 3 4 0 7 -7 7 -7 0 -10 -3 -7 -7z"/>
<path d="M5190 2695 c19 -7 44 -14 55 -14 11 0 0 7 -25 15 -25 7 -49 13 -55
13 -5 0 6 -7 25 -14z"/>
<path d="M5620 2704 c8 -1 34 -4 58 -6 23 -2 42 0 42 4 0 5 -26 7 -57 7 -32
-1 -51 -3 -43 -5z"/>
<path d="M6990 2700 c8 -6 62 -34 120 -64 58 -30 272 -138 475 -241 204 -103
374 -191 380 -196 5 -5 16 -9 25 -9 11 0 9 4 -6 13 -12 6 -99 52 -195 101 -96
49 -315 160 -486 247 -172 88 -316 159 -320 159 -5 0 -1 -5 7 -10z"/>
<path d="M2878 2693 c7 -3 16 -2 19 1 4 3 -2 6 -13 5 -11 0 -14 -3 -6 -6z"/>
<path d="M2818 2683 c6 -2 18 -2 25 0 6 3 1 5 -13 5 -14 0 -19 -2 -12 -5z"/>
<path d="M5320 2671 c27 -5 62 -32 158 -125 67 -66 122 -123 122 -127 0 -5
-11 -11 -25 -15 -14 -4 -24 -8 -22 -11 3 -2 16 -1 31 3 14 3 26 12 26 19 0 7
-57 69 -126 139 -117 118 -127 126 -162 125 l-37 -2 35 -6z"/>
<path d="M5720 2555 l-5 -130 -34 -3 c-26 -3 -40 3 -64 25 l-30 28 23 -32 c21
-28 30 -33 67 -33 36 0 43 4 48 23 3 12 4 74 3 137 l-3 115 -5 -130z"/>
<path d="M5430 2625 c19 -19 36 -35 39 -35 3 0 -10 16 -29 35 -19 19 -36 35
-39 35 -3 0 10 -16 29 -35z"/>
<path d="M2574 2608 c-4 -7 -3 -8 4 -4 7 4 12 9 12 12 0 2 -2 4 -4 4 -3 0 -8
-5 -12 -12z"/>
<path d="M5480 2577 c0 -2 15 -16 33 -33 l32 -29 -29 33 c-17 17 -31 32 -33
32 -2 0 -3 -1 -3 -3z"/>
<path d="M2494 2538 l-19 -23 23 19 c12 11 22 21 22 23 0 1 -2 3 -3 3 -2 0
-12 -10 -23 -22z"/>
<path d="M5830 2450 c0 -7 3 -10 7 -7 3 4 3 10 0 14 -4 3 -7 0 -7 -7z"/>
<path d="M5744 2428 c-4 -7 -7 -28 -5 -47 1 -20 7 -39 14 -43 7 -4 26 -8 44
-8 22 0 36 6 43 20 6 12 10 33 8 48 -3 23 -7 27 -30 24 -15 -2 -36 2 -47 7
-15 8 -22 8 -27 -1z m47 -51 l1 -32 7 30 c3 17 14 31 24 33 12 3 17 -3 17 -21
0 -14 -6 -30 -14 -36 -8 -7 -27 -11 -43 -9 -22 2 -29 9 -34 33 -3 17 -3 36 -1
42 3 9 9 10 23 2 12 -6 19 -21 20 -42z"/>
<path d="M2238 2423 c-37 -4 -38 -5 -38 -47 0 -40 2 -44 30 -50 17 -3 41 -1
55 4 22 8 25 16 25 55 0 37 -3 45 -17 43 -10 -1 -35 -3 -55 -5z m62 -38 c0
-22 -6 -38 -18 -44 -9 -5 -30 -7 -45 -4 -23 5 -27 10 -27 40 0 23 4 33 13 31
6 -3 15 -18 18 -34 l7 -29 1 32 c0 17 7 34 14 36 6 3 18 6 25 6 7 1 12 -12 12
-34z"/>
<path d="M2169 2358 c4 -24 12 -43 21 -46 12 -4 13 -2 3 9 -7 7 -13 28 -13 46
0 18 -4 33 -8 33 -5 0 -6 -19 -3 -42z"/>
<path d="M2330 2376 c0 -13 -8 -34 -18 -46 -11 -14 -33 -23 -62 -27 -25 -3
-50 -10 -57 -15 -6 -5 -24 -13 -40 -18 -21 -6 -23 -8 -8 -9 11 -1 29 5 40 13
11 7 42 16 69 20 27 3 55 11 62 17 8 6 16 27 20 46 6 30 9 34 33 29 14 -3 44
-8 66 -12 22 -3 55 -15 73 -26 17 -11 32 -26 32 -34 0 -8 -19 -24 -43 -34 -23
-10 -71 -24 -107 -29 -36 -6 -110 -11 -166 -11 -55 0 -127 5 -160 11 -32 6
-78 21 -101 34 -24 13 -43 19 -43 14 0 -5 20 -18 44 -29 25 -10 72 -24 106
-31 39 -7 110 -10 198 -7 108 5 152 11 207 29 61 21 70 27 73 50 2 19 -4 31
-23 43 -14 9 -60 24 -101 32 -42 8 -80 14 -85 14 -5 0 -9 -11 -9 -24z"/>
<path d="M5588 2381 c-36 -9 -74 -23 -83 -31 -9 -7 -15 -23 -13 -34 2 -13 18
-28 39 -39 20 -10 68 -24 105 -32 38 -8 121 -15 185 -15 83 0 138 6 194 20 43
11 84 25 91 31 8 6 14 16 14 21 0 5 -12 -1 -27 -12 -16 -11 -59 -27 -98 -35
-38 -8 -119 -15 -180 -15 -60 0 -141 7 -179 15 -37 8 -82 22 -99 32 -17 10
-32 23 -34 30 -2 6 7 19 21 28 14 9 51 23 83 30 32 8 68 14 81 15 18 0 22 -5
22 -29 0 -16 7 -34 15 -41 9 -7 37 -15 63 -17 29 -2 53 1 63 9 9 7 19 31 23
53 4 22 4 36 0 32 -5 -4 -10 -20 -12 -35 -2 -14 -8 -32 -14 -39 -6 -7 -27 -13
-47 -13 -20 0 -47 7 -59 16 -14 10 -22 25 -22 45 0 26 -3 29 -32 28 -18 0 -63
-8 -100 -18z"/>
<path d="M2083 2383 c9 -2 23 -2 30 0 6 3 -1 5 -18 5 -16 0 -22 -2 -12 -5z"/>
<path d="M5498 2373 c-15 -9 -29 -26 -32 -37 -3 -12 -6 -44 -6 -72 0 -37 5
-56 18 -67 10 -9 44 -26 76 -37 32 -11 97 -25 145 -31 47 -6 114 -9 148 -7
l62 3 218 -210 c120 -116 263 -253 317 -305 55 -52 91 -84 80 -70 -10 14 -143
144 -294 290 -151 146 -283 275 -292 286 -16 19 -25 21 -80 17 -35 -3 -104 0
-154 6 -50 6 -118 20 -150 31 -32 11 -65 28 -71 37 -7 9 -13 39 -13 66 0 26 5
57 10 67 6 11 23 26 38 34 15 9 23 15 17 15 -5 0 -22 -7 -37 -16z"/>
<path d="M5948 2383 c7 -3 16 -2 19 1 4 3 -2 6 -13 5 -11 0 -14 -3 -6 -6z"/>
<path d="M2043 2373 c4 -3 10 -3 14 0 3 4 0 7 -7 7 -7 0 -10 -3 -7 -7z"/>
<path d="M5983 2373 c4 -3 10 -3 14 0 3 4 0 7 -7 7 -7 0 -10 -3 -7 -7z"/>
<path d="M6075 2340 c3 -5 8 -10 11 -10 3 0 2 5 -1 10 -3 6 -8 10 -11 10 -3 0
-2 -4 1 -10z"/>
<path d="M1944 2328 c-4 -7 -3 -8 4 -4 7 4 12 9 12 12 0 2 -2 4 -4 4 -3 0 -8
-5 -12 -12z"/>
<path d="M5855 2289 c3 -4 21 -13 41 -19 19 -7 37 -10 39 -8 2 2 -16 11 -40
19 -25 9 -42 13 -40 8z"/>
<path d="M1922 2242 c2 -21 13 -32 48 -49 25 -12 79 -28 120 -34 46 -7 126 -9
205 -6 92 4 146 12 184 25 30 11 60 27 67 36 6 10 10 26 7 36 -5 18 -7 19 -42
4 -20 -9 -69 -22 -109 -30 -41 -8 -127 -14 -193 -14 -107 0 -119 -2 -118 -17
0 -11 3 -13 6 -5 3 8 37 12 118 12 62 0 146 6 187 14 40 8 86 19 102 26 16 6
33 7 38 2 5 -5 1 -15 -9 -24 -10 -8 -38 -23 -63 -32 -31 -12 -86 -20 -175 -23
-78 -3 -160 -1 -204 6 -41 7 -94 20 -118 31 -26 11 -43 26 -43 36 0 11 5 14
18 9 9 -4 37 -14 61 -21 24 -8 51 -14 60 -13 9 0 -9 8 -39 16 -30 8 -59 18
-65 22 -5 4 -18 11 -28 14 -15 6 -18 2 -15 -21z"/>
<path d="M5484 2248 c3 -13 6 -26 6 -29 0 -4 24 -16 53 -28 28 -12 79 -26 112
-31 33 -5 97 -10 142 -10 45 0 117 5 160 11 43 6 97 19 121 29 36 16 42 23 42
49 0 29 0 29 -29 15 -16 -8 -63 -22 -103 -30 -54 -12 -109 -15 -208 -11 -112
4 -148 9 -211 31 -41 14 -79 26 -83 26 -5 0 -6 -10 -2 -22z m101 -20 c42 -14
100 -22 190 -25 101 -4 150 -2 215 11 46 10 92 22 103 28 16 8 18 6 15 -9 -1
-10 -19 -26 -38 -35 -19 -9 -78 -22 -130 -29 -52 -6 -142 -9 -200 -6 -58 3
-128 13 -157 23 -29 9 -61 25 -73 36 -11 10 -20 24 -20 29 0 7 7 8 18 4 9 -4
44 -16 77 -27z"/>
<path d="M6084 2168 c-4 -7 -3 -8 4 -4 7 4 12 9 12 12 0 2 -2 4 -4 4 -3 0 -8
-5 -12 -12z"/>
<path d="M5946 2141 c-2 -3 144 -6 325 -6 l329 0 0 -307 c0 -170 -3 -308 -8
-308 -4 0 -146 133 -315 296 -170 163 -309 295 -310 293 -2 -2 65 -69 148
-148 82 -80 220 -214 306 -298 86 -84 163 -153 172 -153 16 0 17 29 17 318 l0
317 -330 1 c-182 1 -332 -1 -334 -5z"/>
<path d="M2014 2108 c-4 -7 -3 -8 4 -4 7 4 12 9 12 12 0 2 -2 4 -4 4 -3 0 -8
-5 -12 -12z"/>
<path d="M35 2084 c-32 -9 77 -11 545 -11 l585 2 -539 2 c-297 2 -542 7 -545
11 -4 5 -24 3 -46 -4z"/>
<path d="M1939 2043 l-24 -28 28 24 c15 14 27 26 27 28 0 2 -1 3 -3 3 -2 0
-14 -12 -28 -27z"/>
<path d="M6629 1517 c0 -12 0 -47 1 -77 1 -30 5 -58 9 -63 4 -4 34 -12 67 -18
40 -7 68 -7 86 0 23 9 27 16 30 68 1 32 2 68 0 80 -3 19 -7 21 -28 13 -14 -6
-38 -10 -53 -10 -16 0 -47 7 -70 15 -40 14 -41 14 -42 -8z m60 -8 l36 -11 -1
-61 -2 -62 7 59 c6 58 7 60 40 69 21 5 36 5 40 -1 3 -6 4 -35 3 -66 -3 -41 -9
-59 -22 -66 -9 -5 -41 -7 -69 -3 -28 3 -57 11 -65 17 -9 7 -15 31 -16 61 -1
28 -1 56 -1 63 1 6 4 12 7 12 4 0 23 -5 43 -11z"/>
<path d="M1345 1519 c-16 -5 -51 -7 -77 -3 l-48 6 0 -76 c0 -67 2 -77 22 -87
13 -7 43 -9 77 -6 41 4 61 12 74 28 12 15 17 39 17 85 0 55 -3 64 -17 63 -10
0 -31 -5 -48 -10z m55 -57 c0 -46 -4 -63 -20 -77 -11 -10 -42 -20 -70 -23 -32
-3 -55 0 -65 8 -10 9 -15 32 -15 76 0 56 2 64 19 64 10 0 23 -6 29 -13 6 -7
13 -40 15 -72 l3 -60 2 67 2 66 38 10 c20 5 43 10 50 11 8 1 12 -17 12 -57z"/>
<path d="M6423 1490 c-39 -10 -89 -28 -111 -39 -23 -11 -48 -31 -56 -43 -11
-15 -16 -45 -16 -93 0 -65 2 -74 28 -97 15 -14 37 -31 50 -38 13 -6 59 -22
101 -35 43 -13 118 -28 167 -34 49 -6 130 -11 179 -11 50 0 119 5 155 10 l64
9 81 -78 c44 -43 269 -257 499 -475 231 -218 423 -396 428 -396 5 0 -31 37
-79 83 -48 46 -252 238 -453 428 -200 189 -389 368 -419 397 -42 41 -60 52
-75 47 -12 -3 -75 -8 -141 -12 -72 -3 -162 -1 -224 6 -57 7 -133 22 -170 33
-36 11 -82 28 -101 38 -19 10 -45 28 -57 40 -19 17 -23 31 -23 84 0 47 5 70
19 87 10 14 40 35 65 48 26 12 86 31 134 41 48 10 74 19 57 19 -16 0 -62 -9
-102 -19z"/>
<path d="M1448 1482 c-13 -2 -18 -16 -20 -54 -2 -41 -8 -55 -28 -70 -14 -10
-50 -22 -80 -27 -45 -8 -60 -6 -85 8 -27 15 -31 23 -35 76 -3 40 -10 60 -20
63 -12 4 -13 2 -3 -9 6 -8 13 -39 15 -69 3 -52 5 -56 38 -71 l34 -16 -54 -25
c-30 -14 -62 -28 -70 -31 -13 -5 -12 -6 1 -6 9 -1 32 6 50 14 19 8 48 23 64
35 17 11 42 20 56 20 14 0 41 5 60 11 19 6 42 20 52 31 10 13 17 37 17 63 0
24 5 45 12 47 6 2 37 1 67 -3 31 -5 85 -17 121 -28 36 -11 80 -33 98 -48 22
-19 31 -33 27 -44 -3 -9 -28 -28 -55 -43 -27 -15 -88 -36 -137 -47 -54 -12
-146 -22 -239 -26 -98 -4 -179 -2 -234 6 -46 7 -107 21 -136 32 -29 11 -64 29
-78 40 -21 17 -24 24 -16 40 6 10 34 32 63 49 29 16 47 30 41 30 -5 0 -31 -13
-56 -29 -26 -16 -52 -40 -59 -52 -10 -20 -8 -26 14 -45 14 -12 54 -31 89 -43
35 -11 97 -26 138 -32 47 -7 132 -9 230 -6 98 4 187 14 243 26 48 11 106 29
130 39 23 10 50 27 60 36 9 10 17 26 17 36 0 11 -15 31 -34 45 -19 14 -65 35
-102 46 -38 11 -94 23 -124 27 -30 4 -63 6 -72 4z"/>
<path d="M6510 1480 c-30 -5 -83 -17 -117 -28 -34 -11 -76 -30 -92 -42 -20
-13 -31 -30 -31 -45 0 -15 12 -33 33 -48 17 -14 61 -34 97 -45 36 -12 92 -26
125 -32 33 -6 122 -14 197 -17 90 -4 164 -2 215 7 43 7 107 21 143 32 36 11
77 29 92 39 14 11 25 26 24 35 -1 9 -12 27 -24 39 -12 13 -43 33 -68 44 -25
12 -48 20 -50 18 -2 -2 18 -13 44 -25 27 -12 59 -33 71 -46 l23 -25 -27 -25
c-16 -15 -56 -35 -89 -45 -34 -10 -96 -24 -139 -31 -53 -9 -125 -11 -220 -7
-78 4 -173 13 -212 21 -38 8 -90 22 -115 32 -25 9 -60 28 -77 41 -18 13 -33
30 -33 38 0 8 17 26 38 39 20 14 66 34 102 45 36 11 90 21 120 23 l55 3 3 -50
c2 -27 10 -57 18 -66 8 -9 35 -22 59 -28 24 -6 58 -11 75 -11 17 0 46 6 65 14
32 14 34 17 37 72 3 52 6 59 28 65 l25 7 -26 1 c-16 1 -29 -5 -33 -15 -3 -9
-6 -35 -6 -60 0 -39 -3 -45 -32 -60 -23 -12 -46 -15 -87 -11 -30 3 -66 14 -80
25 -21 15 -27 30 -31 73 -4 45 -8 54 -25 55 -11 1 -45 -2 -75 -6z"/>
<path d="M1062 1458 c-24 -5 -42 -11 -40 -13 2 -3 35 2 74 9 38 8 56 14 39 14
-16 0 -50 -5 -73 -10z"/>
<path d="M6928 1463 c6 -2 18 -2 25 0 6 3 1 5 -13 5 -14 0 -19 -2 -12 -5z"/>
<path d="M6990 1450 c14 -4 32 -8 40 -8 9 0 7 3 -5 8 -11 5 -29 8 -40 8 -16 0
-15 -2 5 -8z"/>
<path d="M993 1433 c4 -3 10 -3 14 0 3 4 0 7 -7 7 -7 0 -10 -3 -7 -7z"/>
<path d="M6272 1280 c2 -21 12 -40 28 -52 14 -10 58 -30 97 -43 40 -14 116
-32 170 -40 54 -8 136 -15 183 -15 47 0 132 7 190 15 58 7 128 22 155 31 28 9
62 26 78 36 17 12 27 28 27 44 0 13 -6 24 -13 24 -7 0 -32 -9 -55 -20 -22 -11
-69 -27 -104 -36 -35 -8 -124 -18 -199 -21 -84 -3 -174 -1 -234 6 -53 7 -128
21 -167 32 -39 11 -91 32 -115 46 l-44 26 3 -33z m124 -40 c38 -11 112 -28
164 -35 52 -8 141 -15 198 -15 61 0 101 -4 97 -9 -3 -5 -1 -13 5 -16 6 -4 9
-1 8 7 -2 8 14 16 47 21 28 5 85 18 129 28 43 10 92 25 109 34 16 8 32 15 34
15 1 0 3 -7 3 -15 0 -8 -17 -26 -37 -39 -21 -14 -63 -31 -93 -40 -30 -8 -99
-20 -152 -26 -54 -5 -130 -10 -170 -10 -40 0 -117 7 -170 15 -53 8 -125 24
-160 35 -35 12 -78 33 -95 46 -18 14 -33 32 -33 41 0 14 2 14 23 0 13 -8 55
-25 93 -37z"/>
<path d="M6790 1305 c0 -2 22 -16 50 -30 27 -14 57 -25 67 -25 10 0 -11 14
-45 30 -35 17 -66 30 -68 30 -2 0 -4 -2 -4 -5z"/>
<path d="M1720 1274 c-30 -14 -93 -35 -140 -45 -58 -14 -138 -22 -255 -26
-135 -4 -188 -2 -260 11 -49 10 -114 28 -144 42 -29 13 -57 24 -62 24 -5 0 -9
-11 -9 -23 0 -13 8 -31 18 -39 9 -8 39 -23 67 -33 27 -10 77 -25 110 -32 33
-7 123 -16 200 -19 105 -5 165 -2 240 10 55 9 134 28 176 42 42 13 86 34 97
45 12 11 22 31 22 44 0 14 -1 25 -2 25 -2 0 -28 -12 -58 -26z m50 -4 c0 -5
-10 -18 -22 -30 -12 -11 -47 -29 -77 -41 -31 -12 -105 -30 -166 -41 -87 -15
-139 -18 -250 -14 -77 2 -172 11 -212 20 -39 8 -93 26 -119 38 -26 13 -52 31
-58 40 -6 9 -8 19 -5 22 3 3 24 -4 46 -15 23 -11 83 -29 135 -40 64 -13 133
-19 223 -20 72 0 164 5 205 11 41 6 101 17 135 25 33 7 80 23 105 34 25 11 48
20 53 20 4 1 7 -3 7 -9z"/>
<path d="M705 1053 c-76 -65 -267 -228 -424 -362 -157 -134 -281 -242 -274
-240 6 2 109 87 229 189 119 102 299 254 398 338 100 85 190 162 201 173 11
10 17 19 13 19 -3 0 -68 -53 -143 -117z"/>
<path d="M7363 1143 c120 -2 314 -2 430 0 117 1 19 2 -218 2 -236 0 -332 -1
-212 -2z"/>
<path d="M7066 1073 c22 -21 235 -222 473 -448 239 -226 441 -414 450 -418 9
-5 -4 11 -29 34 -25 24 -238 226 -474 449 -236 223 -436 409 -445 413 -9 5 2
-9 25 -30z"/>
</g>
</svg>
