<?xml version="1.0" standalone="no"?>
<!DOCTYPE svg PUBLIC "-//W3C//DTD SVG 20010904//EN"
 "http://www.w3.org/TR/2001/REC-SVG-20010904/DTD/svg10.dtd">
<svg version="1.0" xmlns="http://www.w3.org/2000/svg"
 width="800.000000pt" height="800.000000pt" viewBox="0 0 800.000000 800.000000"
 preserveAspectRatio="xMidYMid meet">
<metadata>
Created by potrace 1.16, written by Peter Selinger 2001-2019
</metadata>
<g transform="translate(0.000000,800.000000) scale(0.100000,-0.100000)"
fill="#000000" stroke="none">
<path d="M3150 6420 c-155 -9 -234 -31 -389 -107 -246 -121 -298 -275 -247
-723 16 -135 45 -428 71 -720 18 -195 50 -539 69 -735 26 -260 54 -549 85
-880 17 -176 38 -385 46 -465 8 -80 27 -266 41 -415 70 -746 71 -755 103 -848
24 -69 64 -129 124 -184 110 -102 226 -120 547 -88 80 8 179 19 220 25 41 5
188 22 325 36 731 74 1117 137 1212 195 59 37 120 115 145 187 21 63 23 82 22
292 0 156 -8 317 -27 525 -14 165 -40 458 -57 650 -17 193 -37 421 -45 507 -8
87 -22 229 -30 315 -47 500 -67 703 -115 1148 -37 349 -91 747 -110 820 -70
263 -177 363 -425 399 -274 39 -1285 82 -1565 66z m735 -21 c354 -13 701 -37
830 -55 185 -27 290 -98 362 -246 67 -135 96 -325 198 -1293 15 -137 50 -502
80 -820 9 -88 22 -230 30 -315 8 -85 28 -312 45 -505 17 -192 43 -485 57 -650
19 -212 27 -367 27 -530 1 -218 0 -233 -22 -287 -27 -67 -97 -149 -156 -182
-103 -58 -461 -116 -1191 -190 -137 -14 -284 -31 -325 -36 -159 -22 -369 -40
-460 -40 -140 0 -216 27 -301 107 -56 52 -102 120 -124 182 -27 77 -30 104
-99 836 -14 149 -33 335 -41 415 -8 80 -29 289 -46 465 -31 331 -59 620 -85
880 -19 196 -51 540 -69 735 -27 295 -55 585 -71 720 -19 167 -22 370 -5 430
34 125 107 209 247 282 229 120 324 128 1119 97z"/>
<path d="M3054 6355 c-116 -21 -193 -85 -235 -195 -27 -69 -36 -257 -20 -410
5 -58 20 -195 31 -305 42 -410 61 -589 95 -920 19 -187 50 -491 70 -675 33
-313 54 -512 90 -855 138 -1318 140 -1339 159 -1391 63 -179 205 -276 406
-277 47 0 173 10 280 22 107 11 260 28 340 37 633 68 936 117 1037 165 125 60
182 216 170 469 -5 101 -45 585 -92 1115 -8 94 -24 272 -35 397 -36 404 -102
1096 -135 1398 -114 1048 -138 1161 -271 1279 -102 90 -270 112 -1104 146
-423 18 -689 18 -786 0z m796 -10 c358 -15 715 -38 856 -55 197 -25 308 -126
363 -330 31 -118 64 -367 136 -1030 33 -304 99 -994 135 -1398 11 -125 27
-303 35 -397 92 -1035 102 -1190 86 -1306 -20 -134 -65 -211 -155 -264 -94
-55 -469 -113 -1226 -190 -80 -8 -208 -21 -285 -29 -165 -18 -250 -10 -334 32
-95 46 -177 136 -210 232 -16 45 -22 99 -156 1385 -36 343 -57 542 -90 855
-20 184 -51 488 -70 675 -34 331 -53 510 -95 920 -11 110 -26 247 -31 305 -6
58 -9 161 -7 230 4 107 8 134 30 180 49 108 121 167 228 186 91 17 363 17 790
-1z"/>
<path d="M3230 6254 c-110 -19 -150 -29 -190 -49 -147 -75 -164 -182 -110
-680 39 -363 67 -628 85 -815 26 -263 49 -485 160 -1527 34 -327 62 -582 90
-848 9 -77 22 -207 31 -290 30 -288 67 -410 153 -496 112 -111 231 -123 736
-75 630 61 942 111 1055 168 75 38 120 95 147 187 24 83 25 54 -42 861 -65
779 -92 1085 -175 1925 -44 449 -115 1055 -140 1199 -37 212 -116 321 -262
364 -127 38 -260 51 -643 61 -502 14 -865 20 -895 15z m895 -25 c520 -14 656
-37 753 -124 124 -112 138 -171 227 -970 32 -289 44 -405 95 -930 56 -567 121
-1316 170 -1950 11 -143 23 -272 26 -286 9 -43 -22 -162 -57 -219 -37 -61
-108 -111 -190 -134 -130 -37 -488 -86 -964 -132 -508 -49 -627 -35 -735 82
-80 86 -116 207 -144 479 -9 83 -22 213 -31 290 -28 266 -56 521 -90 848 -111
1042 -134 1264 -160 1527 -18 187 -46 452 -85 815 -47 435 -39 548 47 626 59
54 97 68 243 93 30 5 394 -1 895 -15z"/>
<path d="M3230 6200 c-197 -18 -260 -75 -280 -254 -10 -86 -6 -143 30 -416 6
-41 19 -160 31 -265 20 -187 28 -265 68 -655 12 -107 29 -278 40 -380 20 -181
50 -470 91 -860 12 -107 27 -253 35 -325 8 -71 24 -218 35 -325 45 -434 62
-583 80 -742 49 -413 131 -490 503 -475 310 12 1076 105 1262 152 125 33 190
97 215 216 11 52 11 91 -4 258 -9 108 -23 275 -31 371 -34 407 -71 845 -95
1105 -28 306 -81 874 -95 1005 -8 80 -17 170 -20 200 -20 203 -89 807 -105
910 -34 220 -79 325 -162 373 -107 63 -243 79 -793 96 -527 17 -714 19 -805
11z m805 -21 c555 -17 680 -32 784 -96 52 -32 102 -107 127 -188 23 -77 50
-267 93 -665 22 -201 43 -390 46 -420 3 -30 12 -120 20 -200 14 -131 67 -699
95 -1005 24 -260 61 -698 95 -1105 8 -96 22 -264 31 -372 20 -223 15 -272 -36
-351 -34 -53 -108 -101 -185 -117 -230 -50 -954 -135 -1242 -147 -235 -9 -334
22 -403 125 -66 100 -69 121 -170 1082 -11 107 -27 254 -35 325 -8 72 -23 218
-35 325 -41 390 -71 679 -91 860 -11 102 -28 273 -40 380 -40 390 -48 468 -68
655 -12 105 -25 224 -31 265 -36 274 -40 330 -30 416 13 116 43 167 123 208
93 48 170 50 952 25z"/>
<path d="M3760 5941 c-21 -6 -26 -14 -28 -49 -3 -38 0 -43 24 -53 18 -6 119
-9 271 -7 264 3 263 3 263 59 0 51 -14 54 -269 56 -130 1 -247 -1 -261 -6z
m503 -20 c21 -17 22 -45 1 -65 -13 -14 -50 -16 -250 -16 -143 0 -243 4 -255
10 -28 15 -26 68 4 80 12 5 126 8 253 7 179 -1 235 -5 247 -16z"/>
<path d="M3770 5890 c0 -19 7 -20 240 -20 198 0 240 2 240 14 0 22 -34 26
-262 26 -211 0 -218 -1 -218 -20z m460 0 c10 -6 -64 -10 -217 -10 -149 0 -233
4 -233 10 0 13 430 13 450 0z"/>
<path d="M3597 5933 c-12 -11 -8 -68 5 -81 7 -7 22 -12 35 -12 39 0 53 69 19
92 -14 10 -50 10 -59 1z m57 -19 c20 -19 20 -25 2 -50 -25 -33 -68 9 -52 52 7
19 31 18 50 -2z"/>
<path d="M4362 2255 c-118 -37 -182 -130 -182 -266 0 -84 24 -150 75 -207 54
-60 115 -87 196 -86 192 3 302 215 210 407 -39 82 -92 129 -170 151 -67 19
-73 19 -129 1z m124 -10 c67 -20 123 -70 164 -146 28 -52 33 -73 33 -128 1
-151 -102 -265 -237 -265 -74 1 -126 25 -179 83 -63 70 -72 95 -72 202 0 93 1
98 34 146 37 54 80 88 138 109 49 17 59 17 119 -1z"/>
<path d="M4342 2189 c-49 -25 -79 -63 -98 -126 -18 -59 -18 -87 1 -151 37
-125 163 -192 272 -147 48 20 71 41 95 89 99 193 -88 425 -270 335z m142 1
c44 -16 103 -78 126 -132 66 -154 -50 -323 -203 -294 -43 8 -112 67 -139 120
-34 63 -32 157 5 218 46 79 136 117 211 88z"/>
<path d="M4353 2060 c-28 -12 -36 -39 -28 -105 10 -75 22 -88 78 -88 109 2
132 23 121 111 -10 78 -25 92 -92 91 -31 0 -67 -4 -79 -9z m139 -17 c22 -26
32 -114 15 -137 -18 -24 -103 -38 -137 -22 -21 9 -26 21 -34 75 -9 60 -8 65
13 83 31 25 122 25 143 1z"/>
<path d="M4365 2020 c-4 -6 -4 -33 0 -60 l7 -50 53 0 c59 0 64 7 55 75 l-5 40
-52 3 c-29 2 -54 -2 -58 -8z m105 -40 c9 -52 3 -60 -45 -60 -43 0 -43 1 -50
40 -9 52 -1 62 48 58 39 -3 42 -5 47 -38z"/>
<path d="M2790 6272 c-8 -4 -39 -22 -67 -40 -107 -68 -160 -164 -170 -303 -7
-95 -1 -99 104 -55 l78 32 7 89 c8 111 28 185 63 231 32 42 25 64 -15 46z m7
-34 c-33 -44 -67 -173 -67 -253 0 -72 -7 -81 -85 -105 -22 -7 -45 -17 -52 -22
-26 -21 -36 3 -30 78 6 81 36 157 82 212 26 31 151 121 168 122 4 0 -3 -15
-16 -32z"/>
<path d="M2646 6029 c-32 -17 -56 -32 -54 -35 6 -6 105 43 113 56 8 13 9 14
-59 -21z"/>
<path d="M2636 5821 c-37 -15 -72 -34 -76 -42 -4 -8 -3 -48 1 -89 5 -41 25
-241 45 -445 19 -203 41 -435 49 -515 8 -80 23 -239 34 -355 11 -115 30 -307
41 -425 12 -118 28 -282 36 -365 8 -82 23 -242 34 -355 11 -113 27 -275 35
-360 16 -161 44 -450 70 -725 37 -391 42 -427 53 -434 7 -4 55 2 107 13 l95
19 0 44 c0 24 -7 103 -15 176 -16 150 -35 332 -65 622 -11 110 -27 261 -35
335 -9 74 -33 311 -55 525 -23 215 -56 536 -75 715 -19 179 -50 487 -69 685
-20 198 -42 419 -51 490 -8 72 -20 180 -25 240 -6 61 -15 142 -20 180 -5 39
-10 76 -10 83 0 18 -28 14 -104 -17z m94 12 c0 -5 5 -39 10 -78 5 -38 14 -119
20 -180 5 -60 17 -168 25 -240 9 -71 31 -292 51 -490 19 -198 50 -506 69 -685
19 -179 52 -500 75 -715 22 -214 46 -451 55 -525 8 -74 24 -225 35 -335 30
-290 49 -472 65 -622 8 -73 15 -150 15 -172 l0 -40 -57 -11 c-32 -6 -72 -15
-90 -20 -22 -5 -35 -4 -41 3 -5 7 -14 71 -21 142 -6 72 -18 200 -26 285 -9 85
-24 247 -35 360 -11 113 -27 275 -35 360 -8 85 -24 247 -35 360 -11 113 -26
273 -34 355 -8 83 -24 247 -36 365 -11 118 -30 310 -41 425 -11 116 -26 275
-34 355 -8 80 -30 312 -49 515 -20 204 -40 404 -45 445 -10 88 -9 90 74 124
63 26 85 31 85 19z"/>
<path d="M2673 5340 c-12 -5 -25 -21 -29 -35 -9 -36 24 -403 39 -435 17 -36
65 -39 97 -5 l24 25 -19 198 c-10 108 -22 208 -27 222 -15 40 -39 48 -85 30z
m61 -15 c21 -21 22 -29 42 -238 l17 -187 -23 -25 c-13 -14 -32 -25 -42 -25
-35 0 -46 40 -62 218 -20 220 -20 228 4 252 24 24 43 25 64 5z"/>
<path d="M2682 5290 c-7 -19 21 -368 32 -397 7 -17 35 -17 42 1 7 17 -24 369
-34 394 -10 25 -31 25 -40 2z m32 -8 c2 -4 12 -90 21 -191 12 -128 14 -186 6
-194 -7 -7 -12 -5 -17 6 -8 21 -41 362 -36 376 4 13 19 14 26 3z"/>
<path d="M3085 1685 c-27 -7 -67 -16 -89 -20 -38 -6 -38 -6 -32 -46 22 -138
118 -259 236 -297 64 -21 240 -35 240 -19 0 4 -40 7 -90 7 -115 0 -180 23
-255 91 -57 53 -109 143 -121 211 -5 33 -4 38 17 42 97 20 136 30 149 37 20
11 5 10 -55 -6z"/>
<path d="M3161 1694 c-2 -19 40 -146 61 -187 40 -79 162 -187 212 -187 12 0
-1 10 -31 25 -59 30 -141 113 -174 176 -12 24 -33 76 -45 114 -12 39 -23 65
-23 59z"/>
<path d="M5220 1410 c307 -23 572 -68 607 -103 14 -13 13 -17 -8 -30 -118 -76
-789 -127 -1689 -127 -645 0 -1114 23 -1405 70 -145 24 -186 35 -216 59 l-23
18 25 16 c37 24 131 45 304 67 87 11 160 22 163 25 7 7 18 8 -162 -15 -175
-22 -301 -51 -323 -73 -104 -104 574 -177 1637 -177 1095 0 1796 72 1710 175
-30 36 -361 90 -610 99 l-135 5 125 -9z"/>
</g>
</svg>
