<?xml version="1.0" standalone="no"?>
<!DOCTYPE svg PUBLIC "-//W3C//DTD SVG 20010904//EN"
 "http://www.w3.org/TR/2001/REC-SVG-20010904/DTD/svg10.dtd">
<svg version="1.0" xmlns="http://www.w3.org/2000/svg"
 width="1200.000000pt" height="885.000000pt" viewBox="0 0 1200.000000 885.000000"
 preserveAspectRatio="xMidYMid meet">
<metadata>
Created by potrace 1.16, written by Peter Selinger 2001-2019
</metadata>
<g transform="translate(0.000000,885.000000) scale(0.100000,-0.100000)"
fill="#000000" stroke="none">
<path d="M4830 8719 c-80 -9 -192 -26 -250 -38 -58 -12 -143 -33 -190 -47 -47
-14 -107 -34 -135 -44 -27 -11 -72 -27 -100 -36 -27 -9 -70 -25 -95 -36 -25
-11 -88 -42 -140 -67 -52 -26 -120 -64 -150 -84 -30 -20 -58 -37 -63 -37 -4 0
-47 -26 -94 -57 -47 -32 -93 -62 -102 -68 -9 -5 -34 -25 -56 -42 -22 -18 -53
-44 -70 -58 -16 -14 -53 -44 -81 -68 -28 -23 -94 -87 -146 -142 -53 -55 -116
-125 -140 -155 -25 -30 -64 -82 -87 -115 -24 -33 -67 -97 -97 -143 -30 -46
-72 -118 -93 -160 -21 -42 -62 -127 -90 -188 -28 -61 -51 -115 -51 -121 0 -6
-10 -33 -23 -60 -12 -26 -32 -64 -44 -84 -22 -35 -25 -36 -85 -38 -35 0 -108
-7 -163 -15 -55 -8 -145 -24 -200 -36 -55 -11 -122 -29 -150 -39 -27 -11 -81
-29 -120 -41 -38 -12 -86 -30 -105 -39 -19 -10 -66 -33 -105 -51 -38 -19 -99
-51 -134 -72 -34 -21 -65 -38 -67 -38 -2 0 -43 -29 -90 -65 -48 -36 -90 -65
-94 -65 -4 0 -43 -31 -85 -70 -42 -38 -81 -70 -86 -70 -6 0 -47 38 -92 84 -45
46 -107 112 -137 146 -30 35 -87 97 -127 139 -39 42 -82 90 -95 106 -12 17
-69 86 -126 153 -57 68 -108 135 -114 148 -6 13 -14 24 -18 24 -3 0 -16 17
-27 38 -12 20 -34 48 -48 62 -15 14 -36 42 -46 63 -11 21 -36 59 -55 85 -20
26 -41 52 -48 57 -7 6 -32 43 -56 83 -24 39 -47 72 -51 72 -5 0 5 -22 21 -50
16 -27 37 -62 47 -77 10 -15 23 -32 30 -38 6 -5 27 -31 47 -57 19 -25 42 -61
52 -80 9 -18 34 -52 55 -75 22 -24 39 -46 39 -51 0 -4 8 -17 19 -28 10 -11 30
-38 43 -60 14 -21 45 -61 70 -89 24 -27 73 -86 108 -130 35 -44 98 -116 140
-161 41 -45 100 -109 130 -143 30 -35 93 -102 140 -150 47 -47 92 -86 100 -86
8 0 43 26 77 58 34 32 92 79 130 104 37 25 86 61 109 79 23 19 44 34 48 34 5
0 20 8 34 19 15 10 53 33 84 49 31 17 65 36 75 41 10 6 52 26 93 44 41 19 113
46 160 61 47 15 94 31 105 36 11 5 65 19 120 30 55 12 145 28 200 36 55 8 130
15 167 15 65 1 67 2 91 38 13 20 29 52 37 71 7 19 16 40 20 45 4 6 10 23 14
39 4 16 30 77 57 135 27 58 65 136 83 172 19 36 59 104 89 150 30 46 74 111
98 144 23 33 68 92 100 130 32 39 95 109 141 157 46 47 106 105 133 127 28 22
64 52 80 66 17 14 48 40 70 58 22 18 86 63 142 100 56 37 105 67 109 67 4 0
37 19 73 43 36 24 124 71 194 105 71 34 130 62 133 62 3 0 46 15 97 34 51 18
130 45 177 59 47 15 130 36 185 47 55 11 172 29 260 39 126 14 211 17 400 14
191 -3 273 -9 400 -29 88 -14 176 -29 196 -34 20 -6 53 -10 74 -10 20 0 69 -7
109 -16 39 -8 103 -22 141 -29 39 -8 151 -33 250 -55 99 -23 207 -48 240 -56
33 -8 79 -18 102 -23 24 -5 40 -5 38 -1 -2 4 -21 10 -42 13 -21 3 -65 13 -98
21 -33 8 -141 33 -240 56 -99 22 -211 47 -250 55 -38 7 -102 21 -141 29 -40 9
-89 16 -109 16 -21 0 -54 4 -74 10 -20 5 -108 20 -196 34 -130 20 -207 25
-410 28 -190 3 -285 0 -395 -13z"/>
<path d="M4880 8604 c-14 -2 -63 -9 -110 -15 -47 -6 -103 -14 -125 -19 -22 -5
-76 -18 -120 -29 -44 -10 -132 -37 -195 -59 -63 -22 -141 -50 -172 -61 -31
-12 -83 -34 -115 -50 -32 -16 -74 -36 -94 -44 -20 -8 -77 -39 -125 -67 -49
-29 -123 -75 -164 -103 -41 -28 -129 -94 -195 -148 -66 -53 -166 -143 -223
-200 -56 -57 -110 -116 -120 -130 -9 -15 -51 -72 -92 -127 -41 -55 -93 -129
-115 -164 -22 -35 -45 -76 -50 -93 -6 -16 -24 -55 -40 -85 -16 -30 -40 -82
-52 -114 -13 -33 -42 -98 -64 -145 -23 -47 -57 -118 -76 -158 -34 -69 -37 -72
-77 -78 -22 -3 -75 -7 -116 -9 -41 -2 -115 -9 -165 -15 -49 -7 -130 -21 -180
-33 -49 -11 -126 -34 -170 -51 -44 -16 -97 -36 -118 -43 -22 -8 -55 -23 -75
-33 -21 -10 -49 -21 -63 -24 -15 -4 -49 -21 -75 -39 -27 -18 -60 -38 -74 -44
-14 -6 -61 -37 -104 -68 -44 -31 -95 -70 -113 -87 -19 -16 -37 -29 -41 -29 -4
0 -72 -65 -152 -145 -80 -79 -157 -160 -172 -179 -16 -18 -28 -37 -28 -41 0
-4 -26 -46 -58 -93 -31 -48 -85 -143 -119 -212 -34 -69 -80 -179 -102 -245
-22 -66 -48 -147 -56 -179 -9 -33 -20 -65 -24 -70 -5 -6 -14 -45 -20 -86 -7
-41 -16 -97 -21 -125 -5 -27 -14 -88 -19 -135 -6 -47 -16 -166 -22 -266 -10
-141 -10 -220 0 -358 6 -97 16 -188 21 -202 6 -14 10 -39 10 -57 0 -17 5 -58
11 -91 7 -34 23 -95 36 -136 14 -41 27 -92 30 -113 3 -20 9 -40 14 -43 5 -3 9
-12 9 -21 0 -9 16 -55 36 -102 20 -47 44 -102 54 -121 10 -19 41 -80 70 -135
29 -55 69 -122 89 -150 20 -27 41 -57 46 -66 6 -9 19 -29 30 -45 10 -16 33
-45 51 -64 18 -19 79 -89 137 -155 58 -66 145 -157 194 -201 48 -45 102 -93
118 -106 17 -14 86 -67 155 -119 69 -52 148 -107 175 -123 28 -16 59 -36 70
-46 11 -9 47 -32 80 -50 33 -18 85 -46 115 -62 30 -16 73 -40 95 -53 22 -13
47 -27 55 -31 8 -3 42 -19 75 -34 33 -16 65 -29 70 -30 6 -1 17 -7 25 -14 8
-7 60 -30 115 -51 55 -21 112 -44 128 -51 15 -7 53 -20 84 -29 31 -9 65 -23
77 -30 12 -8 59 -24 106 -35 47 -12 99 -25 115 -30 17 -5 93 -24 170 -43 77
-19 176 -40 220 -46 44 -7 105 -19 135 -27 30 -9 68 -20 84 -25 18 -5 35 -5
45 2 14 9 14 10 -1 5 -9 -2 -29 -1 -45 4 -15 4 -53 15 -83 24 -30 8 -91 20
-135 27 -44 6 -143 27 -220 46 -77 19 -153 38 -170 43 -16 5 -67 18 -113 30
-45 11 -93 26 -105 34 -12 8 -44 21 -72 29 -27 8 -68 23 -90 32 -22 9 -49 20
-60 24 -11 5 -40 17 -65 26 -25 10 -97 43 -160 72 -63 30 -122 59 -130 64 -8
5 -28 16 -45 25 -16 8 -57 29 -90 47 -33 18 -87 48 -120 66 -33 19 -69 42 -80
51 -11 10 -42 30 -70 46 -27 16 -106 71 -175 123 -69 51 -150 115 -180 140
-30 25 -111 103 -180 172 -69 69 -150 156 -180 194 -30 38 -63 76 -72 84 -9 9
-28 32 -42 51 -14 19 -33 49 -42 65 -9 17 -30 46 -45 65 -15 19 -48 73 -72
120 -25 47 -56 108 -70 135 -14 28 -35 73 -47 100 -12 28 -25 57 -30 66 -5 9
-14 36 -21 60 -7 24 -14 54 -15 66 -2 12 -9 37 -18 55 -8 18 -21 58 -30 88 -8
30 -19 79 -25 108 -6 30 -11 69 -11 87 0 19 -4 45 -10 59 -5 14 -15 105 -21
202 -10 138 -10 217 0 358 6 100 16 219 22 266 5 47 14 108 19 135 5 28 14 84
21 125 6 41 15 80 20 86 4 5 15 37 24 70 8 32 34 113 57 179 22 66 72 179 109
252 37 73 85 158 106 190 21 32 44 64 51 71 6 7 12 18 12 24 0 6 12 25 28 44
15 19 63 71 107 117 45 45 114 113 155 150 41 37 83 74 92 81 9 8 58 45 109
81 51 37 105 72 119 79 13 6 47 26 74 44 26 18 60 35 75 38 14 4 36 12 47 20
12 7 63 29 113 48 50 20 97 36 105 36 8 0 17 4 20 9 4 5 54 21 114 35 59 14
148 31 197 37 50 6 124 13 165 15 41 2 95 6 119 8 42 3 46 6 72 57 16 30 46
92 68 139 21 47 49 110 61 140 12 30 45 102 72 160 28 58 54 112 59 120 5 8
25 42 46 75 20 33 69 102 107 154 39 51 79 105 88 120 10 14 64 73 120 130 57
57 157 147 223 201 66 53 154 119 195 147 41 28 113 73 160 100 47 28 130 71
185 97 55 26 127 58 160 71 33 13 101 37 150 55 50 17 97 34 105 37 8 2 47 13
85 22 39 10 95 23 125 29 30 6 84 16 120 22 36 7 187 14 335 17 165 3 305 1
360 -6 50 -6 137 -17 195 -25 58 -8 134 -20 170 -26 36 -6 90 -15 120 -20 30
-5 87 -16 125 -25 39 -8 117 -24 175 -35 58 -11 150 -31 205 -44 55 -14 127
-31 160 -39 33 -8 96 -25 140 -37 44 -12 141 -40 215 -62 74 -22 169 -51 210
-65 41 -13 102 -33 135 -45 33 -11 98 -34 145 -51 47 -16 126 -45 175 -62 50
-18 148 -56 220 -84 71 -28 133 -51 137 -51 4 0 38 -14 75 -31 37 -17 93 -43
123 -56 30 -14 82 -39 115 -56 33 -17 94 -47 135 -67 41 -20 95 -45 120 -55
25 -11 56 -27 70 -36 14 -9 66 -37 115 -61 50 -25 152 -79 227 -121 75 -42
140 -77 143 -77 4 0 19 -8 33 -19 15 -10 50 -31 77 -46 28 -15 66 -37 85 -49
19 -13 48 -31 64 -42 16 -10 45 -30 66 -44 21 -14 50 -34 66 -44 16 -11 83
-56 149 -100 66 -44 145 -100 175 -124 30 -23 79 -62 109 -85 30 -23 95 -78
145 -122 50 -44 155 -144 233 -222 78 -78 177 -184 219 -235 42 -51 92 -112
112 -136 20 -24 44 -56 53 -72 10 -15 26 -38 36 -50 10 -13 35 -43 56 -67 20
-24 37 -48 37 -53 0 -5 27 -49 59 -97 33 -49 78 -122 100 -163 23 -41 55 -104
72 -140 17 -36 39 -83 49 -105 10 -22 23 -53 29 -69 7 -15 27 -76 45 -135 19
-58 39 -131 46 -161 6 -30 16 -71 20 -90 5 -19 17 -82 27 -140 13 -83 17 -166
18 -390 0 -177 -5 -312 -12 -355 -7 -38 -17 -99 -23 -135 -7 -36 -16 -83 -20
-105 -4 -22 -13 -65 -18 -95 -6 -30 -20 -85 -33 -123 -17 -53 -27 -69 -46 -73
-13 -4 -66 -1 -117 5 -52 6 -118 11 -146 11 -28 0 -61 -5 -73 -11 -12 -7 -25
-17 -29 -23 -4 -6 -8 -25 -8 -42 0 -21 6 -34 18 -39 9 -4 49 -11 87 -16 39 -5
122 -13 185 -19 63 -5 158 -16 210 -24 52 -9 124 -20 160 -26 36 -6 109 -20
164 -31 54 -11 110 -25 125 -31 14 -6 37 -13 51 -15 14 -2 39 -8 55 -14 17 -6
39 -15 50 -19 11 -4 40 -15 65 -24 25 -9 52 -16 60 -16 8 1 -10 10 -40 20 -30
11 -64 24 -75 29 -11 4 -36 13 -55 19 -19 5 -78 22 -130 36 -52 14 -135 33
-185 41 -49 9 -135 23 -190 31 -55 8 -107 16 -115 19 -8 2 -71 9 -140 15 -69
6 -150 13 -180 16 -30 3 -67 10 -82 16 -20 7 -28 17 -28 34 0 13 10 34 21 45
21 21 27 22 138 14 64 -5 143 -9 175 -9 l59 -1 23 70 c13 39 29 97 35 130 6
33 14 78 19 100 4 22 13 69 20 105 6 36 16 97 23 135 7 43 12 178 12 355 -1
224 -5 307 -18 390 -10 58 -22 121 -27 140 -4 19 -14 60 -20 90 -7 30 -28 107
-47 170 -20 63 -39 119 -44 125 -5 5 -9 16 -9 24 0 9 -11 38 -25 66 -13 27
-36 75 -49 105 -14 30 -44 89 -67 130 -22 41 -67 114 -100 162 -32 48 -59 91
-59 97 0 5 -21 33 -46 63 -26 29 -59 72 -74 96 -16 24 -44 62 -63 85 -19 23
-70 84 -112 135 -42 51 -140 157 -218 235 -78 78 -183 178 -233 222 -50 44
-115 99 -145 122 -30 23 -79 62 -110 86 -30 25 -114 83 -185 131 -71 47 -142
95 -159 106 -16 12 -72 48 -122 81 -51 32 -112 69 -135 81 -24 12 -57 32 -74
45 -17 13 -34 23 -38 23 -4 0 -74 37 -154 82 -81 45 -183 99 -227 121 -44 21
-91 47 -105 57 -14 10 -50 26 -80 36 -30 11 -57 22 -60 25 -3 3 -75 40 -160
81 -85 42 -181 87 -212 102 -31 14 -114 49 -185 76 -70 27 -132 50 -137 50 -5
0 -32 11 -60 23 -28 13 -69 29 -91 36 -22 7 -80 28 -130 46 -49 18 -128 46
-175 63 -47 16 -137 45 -200 65 -63 20 -160 49 -215 66 -55 16 -136 40 -180
52 -44 12 -107 28 -140 36 -33 8 -105 25 -160 39 -55 13 -147 33 -205 44 -58
11 -136 27 -175 35 -38 9 -97 20 -130 26 -33 5 -85 14 -115 19 -30 5 -107 17
-170 25 -63 9 -146 20 -185 25 -38 5 -180 9 -315 8 -135 0 -256 -2 -270 -4z"/>
<path d="M6845 8444 c28 -9 79 -25 115 -36 36 -11 74 -24 85 -28 11 -5 38 -12
60 -15 21 -4 51 -13 66 -20 14 -8 48 -19 75 -26 27 -6 90 -27 139 -46 50 -19
108 -43 130 -53 22 -10 56 -21 75 -25 19 -4 46 -16 59 -26 13 -10 27 -17 31
-14 4 3 39 -7 76 -21 38 -14 87 -33 109 -43 22 -10 65 -28 95 -41 30 -12 78
-32 106 -46 28 -13 56 -24 62 -24 6 0 23 -6 39 -14 15 -8 111 -55 213 -105
102 -50 190 -91 195 -91 6 0 28 -10 50 -21 22 -12 65 -35 95 -50 30 -16 58
-29 62 -29 4 0 46 -22 94 -50 48 -27 91 -50 96 -50 4 0 27 -12 51 -27 23 -15
80 -47 125 -70 46 -24 114 -63 150 -87 37 -24 78 -49 92 -56 14 -7 50 -30 80
-52 30 -21 79 -54 107 -73 29 -19 55 -35 58 -35 3 0 42 -25 87 -56 45 -31 86
-61 92 -65 6 -5 47 -37 91 -71 44 -34 122 -99 173 -145 51 -46 96 -83 101 -83
4 0 55 -45 112 -100 57 -54 105 -97 108 -94 3 2 -41 50 -98 104 -57 55 -108
100 -113 100 -4 0 -34 24 -66 53 -32 28 -74 66 -93 82 -19 17 -70 59 -114 93
-44 34 -85 66 -91 71 -6 4 -47 34 -92 65 -45 31 -84 56 -87 56 -3 0 -29 16
-58 35 -28 19 -77 53 -108 74 -31 22 -65 44 -75 48 -10 3 -50 28 -89 54 -38
26 -110 68 -160 94 -49 26 -117 62 -150 80 -33 18 -86 46 -117 63 -31 17 -65
36 -75 41 -10 5 -65 32 -123 59 -58 28 -172 82 -255 122 -82 40 -152 76 -155
80 -3 4 -23 13 -45 20 -22 7 -60 21 -85 32 -25 11 -58 25 -75 33 -16 7 -70 30
-120 50 -49 20 -99 40 -110 45 -11 5 -42 18 -69 29 -27 12 -55 21 -62 21 -8 0
-14 5 -14 12 0 9 -3 9 -11 1 -9 -9 -17 -7 -31 7 -11 10 -32 20 -46 23 -15 3
-36 7 -47 10 -11 3 -38 13 -60 22 -22 10 -49 21 -60 25 -11 5 -40 17 -65 28
-25 11 -76 28 -114 37 -37 9 -79 23 -93 30 -15 8 -45 17 -67 20 -23 3 -50 10
-61 15 -11 4 -47 17 -80 28 -33 11 -73 23 -90 26 -16 3 -41 8 -55 11 -14 3 -2
-2 25 -11z"/>
<path d="M5050 8439 c-36 -4 -101 -18 -145 -30 -46 -12 -98 -34 -124 -53 -23
-17 -51 -47 -61 -66 -9 -19 -20 -55 -24 -80 -4 -31 -2 -60 9 -90 9 -25 28 -58
43 -73 15 -16 44 -37 64 -48 22 -11 57 -19 85 -19 26 0 77 10 113 21 41 13
105 22 175 26 98 4 121 2 210 -22 54 -15 144 -49 200 -77 92 -46 105 -50 157
-46 47 3 64 10 102 42 26 21 53 50 60 65 8 15 18 44 21 65 5 23 2 60 -5 93
-12 46 -21 61 -64 97 -28 23 -72 55 -98 69 -26 15 -55 27 -65 27 -11 0 -23 4
-29 9 -5 5 -38 18 -74 29 -36 11 -103 30 -150 41 -53 13 -131 22 -210 24 -69
3 -154 1 -190 -4z m400 -30 c47 -11 112 -29 145 -40 33 -11 71 -24 85 -30 14
-6 48 -22 75 -36 28 -15 73 -45 101 -69 35 -29 54 -55 62 -82 7 -22 12 -52 12
-68 0 -16 -9 -48 -19 -71 -11 -24 -40 -58 -71 -82 -46 -36 -58 -41 -104 -41
-37 0 -61 6 -86 23 -19 13 -63 35 -98 51 -34 15 -106 39 -160 52 -84 22 -111
25 -207 21 -71 -4 -133 -13 -175 -26 -36 -11 -86 -21 -113 -21 -33 0 -59 7
-85 24 -20 13 -49 37 -63 52 -15 16 -32 45 -38 65 -7 21 -9 54 -5 80 4 24 16
57 26 74 10 18 38 46 63 64 25 18 77 41 115 52 39 10 100 23 138 28 37 5 123
7 192 4 79 -2 157 -11 210 -24z"/>
<path d="M7490 7950 c-8 -5 -24 -10 -34 -10 -11 0 -36 -17 -57 -38 -22 -23
-42 -57 -50 -83 -6 -24 -12 -55 -12 -69 0 -14 6 -45 13 -70 7 -28 26 -57 48
-79 20 -19 51 -40 69 -47 20 -9 74 -14 145 -14 62 -1 138 -7 168 -14 30 -7
102 -37 159 -67 78 -40 126 -73 189 -132 47 -43 96 -83 109 -88 13 -5 48 -9
76 -9 29 0 70 9 93 19 23 10 53 34 67 53 14 18 31 54 38 78 7 28 9 67 5 101
-7 52 -12 60 -80 131 -40 41 -100 94 -132 116 -33 22 -111 63 -174 92 -63 29
-151 66 -195 82 -44 16 -104 36 -133 44 -33 8 -100 14 -175 14 -67 0 -129 -5
-137 -10z m312 -14 c29 -8 82 -26 118 -39 36 -13 88 -34 115 -47 28 -12 84
-38 125 -58 41 -19 101 -53 134 -75 32 -22 92 -74 132 -115 62 -64 74 -83 80
-120 4 -24 4 -60 0 -80 -3 -20 -18 -55 -34 -77 -15 -22 -46 -50 -67 -62 -28
-16 -57 -23 -96 -23 -43 0 -63 5 -85 22 -16 12 -61 52 -100 88 -53 50 -98 80
-178 119 -59 29 -133 59 -164 67 -31 7 -109 13 -173 14 -112 0 -117 1 -162 31
-26 17 -55 43 -65 57 -11 15 -24 46 -29 69 -7 29 -7 56 0 89 8 33 23 60 52 89
22 22 54 46 70 52 17 6 85 11 152 12 78 1 141 -4 175 -13z"/>
<path d="M4220 7600 c-11 -11 -20 -27 -20 -35 0 -9 7 -31 14 -50 8 -19 17 -35
19 -35 3 0 -3 20 -11 44 -15 42 -15 46 2 65 10 11 28 22 40 24 21 4 20 4 -1 6
-13 0 -32 -8 -43 -19z"/>
<path d="M4290 7618 c0 -4 19 -32 41 -62 23 -31 50 -58 60 -61 11 -4 72 -1
136 6 71 7 174 9 267 5 83 -3 194 -13 246 -21 52 -9 162 -36 243 -61 82 -25
195 -68 250 -95 56 -27 107 -53 113 -57 6 -4 31 -20 55 -36 24 -16 92 -77 150
-136 96 -97 109 -115 144 -196 36 -84 39 -95 39 -194 1 -89 -2 -112 -21 -150
-12 -25 -38 -60 -57 -77 -20 -18 -64 -47 -99 -64 -58 -30 -68 -32 -157 -30
-53 1 -117 8 -145 17 -27 9 -63 22 -80 29 -16 7 -48 20 -69 29 -22 9 -76 40
-120 70 -45 29 -101 64 -126 76 -24 12 -56 26 -70 31 -14 4 -48 16 -76 27 -28
10 -83 27 -123 37 -56 14 -96 16 -179 12 -59 -3 -156 -11 -217 -17 -60 -7
-155 -10 -210 -6 -55 3 -127 14 -160 25 -33 10 -89 32 -126 49 -36 17 -80 45
-98 64 -18 18 -45 56 -59 83 -22 42 -26 62 -25 130 1 67 6 91 33 150 17 38 37
77 44 85 7 8 16 25 18 37 4 15 -4 30 -28 54 -19 18 -34 41 -34 52 0 10 5 27
10 38 7 12 21 19 38 19 20 0 40 -12 67 -41 37 -37 43 -40 80 -35 23 3 54 12
70 20 17 9 35 16 42 16 7 0 24 5 38 12 14 6 25 16 25 21 0 6 -5 6 -12 0 -7 -6
-31 -16 -53 -23 -22 -6 -54 -18 -72 -26 -17 -8 -40 -14 -50 -14 -10 0 -37 18
-58 40 -32 33 -46 40 -77 40 -27 0 -40 -5 -48 -19 -5 -11 -10 -33 -10 -48 0
-19 10 -39 30 -58 17 -16 30 -36 30 -46 0 -9 -6 -22 -14 -28 -8 -7 -29 -48
-47 -93 -26 -65 -32 -94 -33 -157 0 -61 5 -87 26 -131 14 -30 42 -71 62 -91
20 -20 58 -45 84 -54 26 -10 52 -21 57 -25 6 -5 44 -18 85 -30 43 -13 115 -24
170 -27 52 -3 145 0 205 7 61 6 160 14 221 17 101 5 120 3 210 -23 55 -15 124
-38 154 -51 30 -13 71 -31 90 -41 19 -9 57 -34 85 -54 27 -21 54 -38 59 -38 5
0 17 -6 25 -13 9 -8 50 -27 91 -45 41 -17 98 -38 125 -46 28 -9 93 -16 145
-18 88 -1 100 1 162 30 37 17 84 48 106 69 25 24 48 59 61 96 14 37 21 81 21
125 0 37 -7 93 -15 125 -8 31 -28 86 -44 121 -23 51 -52 88 -133 169 -56 57
-123 117 -147 133 -24 16 -49 32 -55 36 -6 3 -58 29 -116 57 -58 28 -172 71
-255 95 -82 25 -193 52 -245 61 -52 8 -163 18 -245 21 -95 4 -197 2 -275 -6
l-125 -13 -25 33 c-14 18 -37 47 -52 64 -15 17 -28 28 -28 24z"/>
<path d="M4420 7375 c-58 -8 -115 -17 -127 -20 -13 -3 -23 -10 -23 -16 0 -8 4
-8 13 -1 6 6 71 17 142 26 72 9 196 16 275 16 80 0 190 -5 245 -10 55 -6 120
-15 145 -21 25 -5 90 -24 145 -41 55 -17 118 -39 140 -49 22 -9 79 -36 127
-58 48 -22 118 -64 155 -94 38 -30 91 -77 118 -105 28 -27 65 -76 84 -107 19
-31 40 -80 48 -108 7 -28 13 -67 13 -87 0 -20 -10 -56 -22 -80 -14 -26 -41
-57 -66 -75 -40 -27 -49 -29 -135 -29 -79 0 -103 5 -170 31 -43 18 -122 58
-175 91 -53 33 -129 76 -168 95 -40 20 -118 50 -175 68 -85 25 -127 32 -229
36 -84 4 -169 0 -257 -11 -73 -9 -160 -17 -195 -18 -61 -2 -61 -2 -13 -6 28
-2 118 4 202 14 104 11 189 15 270 11 76 -3 145 -13 193 -27 41 -12 116 -41
167 -65 50 -24 138 -71 194 -105 56 -35 138 -76 183 -91 44 -16 104 -32 131
-35 28 -3 77 -1 109 5 34 6 73 22 92 36 19 15 41 40 50 56 8 17 18 51 21 77 3
30 -1 72 -11 112 -9 36 -31 89 -49 118 -18 30 -61 82 -97 117 -36 35 -89 82
-118 105 -30 23 -88 57 -130 77 -42 19 -97 44 -122 55 -24 11 -103 38 -175 60
-71 22 -164 44 -205 49 -41 5 -169 11 -285 14 -145 3 -242 0 -315 -10z"/>
<path d="M4297 7294 c23 -15 55 -50 73 -80 30 -49 32 -61 32 -134 0 -68 -4
-87 -26 -124 -14 -24 -42 -57 -63 -74 -21 -18 -46 -39 -56 -47 -10 -9 -15 -21
-10 -28 5 -8 9 -7 11 6 2 9 8 14 14 11 7 -4 8 -2 4 4 -4 7 -3 12 3 12 6 0 26
14 45 31 19 17 45 46 56 65 12 18 25 60 30 91 4 32 4 82 -1 111 -4 29 -20 73
-35 96 -15 23 -41 52 -59 64 -17 12 -37 22 -45 22 -8 0 4 -12 27 -26z"/>
<path d="M4 7266 c1 -7 15 -31 31 -52 17 -21 32 -44 35 -50 3 -7 45 -67 95
-134 50 -66 124 -162 165 -212 41 -50 96 -119 122 -154 26 -34 76 -93 110
-130 35 -36 77 -83 93 -102 17 -20 77 -85 135 -146 58 -60 114 -120 126 -132
11 -12 20 -31 19 -44 -1 -12 -15 -34 -31 -49 -16 -15 -49 -56 -74 -90 -25 -34
-71 -103 -103 -154 -31 -50 -76 -130 -99 -177 -23 -47 -52 -110 -65 -140 -13
-30 -39 -102 -58 -159 -19 -58 -35 -112 -35 -121 0 -9 -4 -20 -8 -26 -4 -5
-14 -26 -21 -47 -7 -21 -10 -41 -8 -44 3 -3 11 15 18 39 7 23 16 47 21 52 4 6
8 17 8 26 0 9 9 46 21 81 11 35 32 93 46 129 14 36 49 115 79 175 29 61 80
152 111 202 32 51 78 120 103 154 25 34 57 74 73 88 16 16 29 40 32 59 3 31
-4 42 -98 138 -56 58 -118 124 -137 146 -19 23 -65 73 -102 112 -36 39 -84 93
-105 120 -21 26 -60 76 -88 109 -27 33 -72 88 -100 123 -27 34 -76 98 -107
141 -31 43 -66 88 -77 99 -11 12 -28 37 -38 55 -10 19 -30 50 -45 70 -16 20
-28 41 -28 47 0 7 -4 12 -9 12 -5 0 -8 -6 -7 -14z"/>
<path d="M6980 6904 c-41 -7 -109 -21 -150 -32 -41 -11 -122 -40 -180 -65 -84
-36 -116 -56 -159 -98 -29 -30 -63 -67 -75 -84 -13 -16 -28 -49 -34 -71 -7
-23 -12 -75 -12 -115 0 -52 6 -87 20 -117 11 -24 45 -70 76 -102 31 -33 61
-60 65 -60 5 0 32 -11 61 -24 29 -12 61 -26 71 -29 9 -4 61 -14 115 -22 69
-12 148 -16 277 -14 99 2 216 -1 260 -5 61 -6 105 -19 185 -53 58 -25 126 -58
153 -74 26 -16 51 -29 56 -29 4 0 27 -13 49 -30 23 -16 45 -30 49 -30 4 0 16
-9 27 -19 12 -11 53 -35 91 -54 39 -19 95 -42 125 -51 30 -8 98 -20 151 -25
65 -7 123 -8 175 -1 58 7 98 20 152 47 43 22 92 57 117 84 24 25 52 64 63 85
10 21 22 51 26 67 5 19 13 27 29 27 12 0 38 -5 58 -10 24 -7 46 -7 62 -1 17 7
27 20 32 41 4 20 2 38 -8 54 -9 14 -37 29 -75 40 -33 10 -66 16 -73 13 -9 -3
-6 -6 7 -6 11 -1 41 -8 66 -17 25 -8 54 -24 63 -34 12 -13 15 -28 11 -44 -3
-14 -15 -30 -26 -36 -13 -7 -36 -6 -80 4 -55 13 -61 13 -68 -2 -5 -10 -14 -36
-22 -59 -7 -23 -35 -67 -62 -97 -30 -34 -76 -70 -122 -96 -58 -31 -91 -42
-151 -50 -52 -7 -109 -6 -174 1 -53 5 -114 15 -136 21 -22 5 -76 28 -121 50
-46 22 -90 48 -100 59 -9 10 -21 19 -26 19 -4 0 -27 14 -50 30 -22 17 -45 30
-50 30 -4 0 -25 11 -46 24 -20 12 -71 38 -112 56 -41 17 -88 39 -105 47 -16 8
-64 19 -105 25 -41 5 -165 9 -275 9 -141 -2 -229 3 -297 14 -53 8 -113 22
-135 31 -21 9 -56 24 -78 34 -23 10 -64 43 -92 73 -28 29 -61 73 -73 97 -19
37 -21 55 -18 129 2 55 10 99 21 121 9 20 46 66 82 103 44 44 84 75 123 92 31
15 73 33 92 41 19 9 52 22 75 29 22 7 69 20 105 29 36 9 94 20 130 25 36 5
135 7 220 5 85 -1 178 -5 205 -8 28 -4 77 -11 110 -17 33 -6 114 -23 180 -39
66 -16 170 -45 230 -65 61 -20 133 -47 160 -59 28 -13 70 -33 95 -45 25 -12
63 -35 85 -52 22 -16 56 -41 76 -54 20 -13 78 -63 129 -111 59 -57 99 -88 113
-87 12 0 47 12 77 26 30 15 64 27 76 27 11 0 25 -5 32 -12 7 -7 12 -26 12 -43
0 -23 -6 -34 -22 -42 -13 -6 -41 -19 -63 -30 -35 -17 -40 -23 -39 -51 1 -17
12 -47 24 -67 12 -20 24 -34 26 -32 2 2 -7 24 -21 49 -14 25 -23 53 -19 62 3
8 20 22 37 31 16 8 35 15 42 15 7 0 19 8 28 18 10 10 17 34 17 53 0 19 -5 40
-12 47 -7 7 -23 12 -37 12 -15 0 -53 -12 -86 -25 -33 -14 -66 -25 -74 -25 -7
0 -54 38 -103 86 -50 47 -105 95 -123 107 -18 12 -64 43 -103 70 -39 26 -74
47 -78 47 -3 0 -34 13 -68 29 -33 15 -111 45 -173 65 -61 20 -167 49 -235 65
-68 16 -150 34 -183 40 -33 6 -82 13 -110 16 -27 3 -124 7 -215 9 -98 1 -196
-3 -240 -10z"/>
<path d="M6945 6773 c-38 -7 -83 -17 -99 -20 -16 -3 -37 -13 -47 -22 -11 -8
-19 -18 -19 -22 0 -4 12 -10 26 -13 14 -4 48 -28 76 -53 27 -26 58 -66 69 -89
13 -29 19 -65 19 -111 0 -57 -5 -76 -30 -121 -17 -28 -46 -62 -65 -75 -19 -12
-35 -28 -35 -34 0 -9 7 -7 22 5 12 9 34 29 49 45 15 15 37 47 48 70 15 31 21
63 21 110 0 38 -7 85 -16 109 -9 24 -35 62 -58 86 -23 24 -54 50 -69 58 -20
11 -26 19 -18 27 5 7 29 18 53 24 24 7 70 17 102 23 33 5 139 10 235 10 97 -1
219 -7 271 -14 52 -7 138 -23 190 -36 52 -12 136 -35 185 -51 50 -15 119 -40
155 -55 36 -14 87 -38 115 -51 27 -14 86 -50 130 -79 44 -29 117 -90 163 -136
45 -46 105 -117 132 -158 46 -70 50 -79 50 -137 0 -56 -3 -65 -40 -112 -22
-27 -60 -62 -85 -76 -26 -16 -74 -31 -114 -38 -50 -7 -95 -7 -158 1 -48 6
-110 18 -138 27 -27 9 -68 26 -90 37 -22 12 -78 47 -125 79 -47 31 -110 69
-140 84 -30 15 -68 33 -85 40 -16 7 -58 25 -93 39 -34 14 -90 33 -125 43 -51
14 -106 17 -304 18 -132 0 -239 -4 -236 -8 3 -5 109 -7 237 -5 174 2 244 0
286 -11 30 -8 93 -29 139 -48 47 -19 116 -50 155 -69 39 -20 110 -62 157 -94
47 -32 104 -67 126 -79 23 -11 73 -29 113 -40 39 -11 108 -23 153 -27 49 -3
108 -1 147 6 36 6 84 22 107 36 23 13 59 45 80 71 37 45 38 48 38 127 l0 81
-51 75 c-29 41 -92 114 -140 161 -49 47 -123 108 -164 134 -41 26 -108 63
-148 82 -40 18 -92 40 -115 49 -23 8 -82 27 -132 43 -49 16 -133 39 -185 51
-52 13 -138 29 -190 36 -52 7 -178 13 -280 12 -119 0 -210 -5 -255 -15z"/>
<path d="M3513 6448 c-19 -9 -23 -19 -23 -53 0 -41 4 -46 73 -106 40 -35 91
-90 112 -122 22 -32 53 -84 69 -115 16 -31 37 -95 47 -142 10 -48 18 -127 18
-180 0 -62 -6 -120 -18 -165 -10 -38 -24 -83 -31 -100 -7 -16 -17 -41 -23 -55
-6 -14 -27 -47 -46 -75 -19 -27 -55 -72 -80 -99 -25 -26 -70 -66 -98 -87 -29
-22 -73 -50 -99 -64 -25 -13 -80 -37 -123 -52 -71 -25 -86 -27 -226 -26 -140
1 -156 3 -237 32 -49 17 -101 31 -118 31 -23 0 -31 -5 -36 -24 -3 -13 -4 -38
-2 -57 3 -32 7 -35 78 -61 41 -15 105 -34 142 -43 38 -8 114 -15 177 -15 63 0
139 7 178 15 37 9 97 25 132 37 36 11 93 36 127 54 l61 32 45 -46 c24 -26 57
-67 74 -92 17 -25 38 -58 46 -75 8 -16 22 -43 31 -60 8 -16 30 -81 48 -143
l32 -112 -6 -233 c-4 -127 -11 -270 -17 -317 -5 -47 -15 -159 -20 -250 -6 -91
-15 -262 -20 -380 -5 -120 -5 -327 0 -470 6 -172 14 -278 24 -325 9 -38 24
-99 32 -135 9 -36 29 -98 45 -138 16 -39 46 -107 68 -150 22 -42 59 -100 83
-128 23 -28 56 -69 72 -90 16 -22 61 -66 101 -99 40 -33 92 -70 115 -82 23
-12 63 -34 88 -48 26 -15 65 -33 87 -41 22 -8 65 -24 95 -35 30 -12 82 -25
115 -30 33 -5 101 -15 150 -23 50 -9 133 -15 185 -15 52 0 147 8 210 18 63 10
149 28 190 39 41 11 113 39 160 61 47 23 92 45 100 51 8 5 39 23 69 41 30 17
72 47 93 68 22 20 59 57 84 82 24 25 64 72 89 103 25 32 45 62 45 66 0 4 13
24 29 44 16 20 50 78 75 129 24 51 56 128 71 172 15 44 30 85 34 90 4 6 15 37
25 70 10 33 29 92 42 130 13 39 30 97 39 130 9 33 25 92 36 130 10 39 31 113
45 165 14 52 30 110 35 128 5 17 13 47 18 65 5 17 14 46 19 62 6 17 17 55 26
85 9 30 22 78 30 107 8 29 40 104 71 167 40 82 79 141 135 208 43 52 94 106
113 121 20 15 39 27 42 27 4 0 30 16 59 35 29 19 58 35 63 35 6 0 26 -19 46
-42 19 -24 59 -68 89 -99 29 -31 81 -74 114 -97 34 -22 97 -59 140 -80 44 -22
117 -50 164 -62 67 -18 120 -24 250 -27 123 -3 171 0 190 9 19 10 26 23 28 51
2 21 -2 45 -9 53 -9 11 -44 14 -163 14 -122 0 -168 4 -232 21 -43 11 -83 24
-89 28 -5 5 -22 11 -36 15 -15 3 -69 33 -120 67 -53 35 -128 97 -172 142 -59
62 -87 101 -122 171 -24 50 -46 102 -49 116 -2 14 -10 47 -17 74 -8 33 -10 90
-6 181 l6 134 50 103 c34 71 69 126 113 175 34 40 94 95 131 124 38 28 89 60
115 71 26 10 65 28 87 38 22 10 75 26 118 35 42 10 80 22 84 29 5 6 8 26 9 44
1 25 -5 37 -23 49 -18 12 -39 14 -90 10 -41 -4 -104 -21 -162 -44 -53 -21 -98
-40 -101 -43 -3 -3 -25 -16 -50 -29 -25 -14 -81 -56 -124 -94 -43 -38 -89 -81
-101 -96 -12 -14 -42 -58 -67 -96 -25 -39 -51 -89 -59 -110 -7 -22 -16 -44
-20 -50 -4 -5 -16 -46 -28 -90 -12 -44 -27 -91 -34 -104 -11 -22 -15 -23 -81
-18 -38 3 -72 10 -75 15 -3 5 -17 12 -31 16 -14 4 -50 17 -80 28 -30 12 -91
46 -136 75 -44 29 -105 80 -135 114 -30 33 -77 99 -106 147 -28 48 -62 100
-74 116 -13 16 -40 55 -61 88 -21 32 -38 61 -38 63 0 3 -6 13 -14 22 -8 10
-41 54 -74 98 -33 44 -91 112 -130 151 -38 39 -110 99 -159 132 -49 33 -122
74 -160 91 -39 17 -78 31 -86 31 -7 0 -17 3 -21 7 -3 4 -14 8 -22 9 -9 2 -39
9 -68 16 -33 8 -114 13 -231 13 -144 0 -193 -4 -245 -18 -36 -10 -78 -25 -95
-33 -16 -7 -52 -19 -80 -25 -27 -7 -52 -15 -55 -19 -3 -4 -36 -24 -75 -45 -38
-21 -95 -51 -125 -68 -30 -16 -70 -40 -89 -55 -19 -14 -58 -41 -85 -60 -28
-19 -87 -53 -131 -76 -44 -23 -99 -47 -121 -54 -23 -7 -65 -12 -93 -12 -38 0
-53 4 -58 16 -3 8 3 45 13 82 13 48 18 100 18 182 0 63 -6 140 -13 170 -7 30
-19 78 -27 106 -8 28 -35 90 -62 139 -34 63 -74 116 -148 194 -80 84 -108 107
-130 108 -16 1 -39 -3 -51 -9z m162 -100 c62 -64 116 -130 141 -173 22 -38 50
-91 63 -117 12 -26 27 -77 32 -113 5 -37 14 -76 20 -88 8 -13 10 -58 6 -131
-3 -61 -13 -141 -23 -177 -10 -36 -15 -73 -11 -82 5 -13 19 -17 65 -17 32 0
86 9 119 20 34 11 90 35 125 54 34 18 86 49 113 68 28 18 70 48 95 66 24 18
63 42 85 52 22 11 63 33 90 50 28 17 62 35 78 41 15 6 27 15 27 19 0 4 24 14
53 20 28 7 63 18 77 25 14 7 54 21 90 32 53 15 99 18 250 18 147 -1 197 -4
245 -19 33 -9 74 -21 90 -25 17 -5 57 -21 89 -36 32 -15 100 -54 150 -88 50
-34 128 -99 174 -147 45 -47 106 -119 134 -160 29 -41 56 -76 60 -78 4 -2 8
-8 8 -12 0 -5 17 -36 38 -68 21 -33 48 -72 61 -88 12 -16 46 -68 74 -116 29
-48 76 -114 106 -147 30 -34 91 -85 135 -114 45 -29 97 -58 116 -66 19 -7 55
-19 79 -27 24 -8 50 -19 57 -24 7 -6 43 -14 81 -17 58 -5 70 -3 84 13 8 11 23
51 33 89 9 39 30 102 47 142 16 39 48 100 71 135 23 35 51 75 63 89 12 15 58
58 101 96 43 38 99 80 124 94 25 13 47 27 50 30 3 4 46 23 97 43 54 22 118 39
156 43 57 5 67 3 86 -16 11 -11 21 -27 21 -34 0 -7 -6 -21 -13 -31 -8 -10 -44
-24 -94 -35 -44 -10 -96 -26 -114 -35 -19 -10 -55 -25 -80 -35 -25 -10 -77
-41 -115 -70 -38 -29 -97 -84 -131 -122 -34 -39 -73 -94 -87 -122 -14 -29 -37
-79 -51 -112 -23 -51 -27 -79 -32 -195 -5 -116 -2 -147 16 -218 11 -46 39
-120 60 -166 31 -62 59 -102 118 -162 43 -44 112 -103 153 -131 41 -27 92 -58
112 -67 20 -10 42 -18 50 -20 7 -1 18 -5 23 -8 6 -4 46 -16 90 -27 62 -17 109
-21 225 -21 100 0 150 -4 158 -12 7 -7 12 -24 12 -40 0 -18 -8 -33 -25 -44
-21 -14 -49 -15 -187 -12 -123 4 -182 10 -239 26 -43 11 -106 34 -142 51 -35
17 -105 57 -153 90 -50 33 -114 87 -147 124 -31 35 -66 76 -78 91 -11 14 -30
26 -42 26 -12 0 -44 -16 -71 -35 -27 -19 -55 -35 -62 -35 -6 0 -34 -21 -61
-47 -27 -27 -68 -70 -92 -98 -24 -27 -58 -72 -75 -100 -18 -27 -42 -70 -53
-95 -12 -25 -31 -66 -42 -91 -12 -25 -28 -70 -36 -100 -9 -30 -22 -79 -31
-109 -9 -30 -20 -68 -26 -85 -5 -16 -14 -45 -19 -62 -5 -18 -13 -48 -18 -65
-5 -18 -21 -76 -35 -128 -14 -52 -45 -165 -70 -250 -24 -85 -52 -180 -61 -210
-9 -30 -35 -101 -56 -157 -21 -56 -39 -106 -39 -112 0 -6 -4 -19 -9 -29 -5 -9
-25 -52 -44 -94 -20 -42 -61 -116 -93 -165 -32 -48 -71 -104 -87 -123 -16 -19
-59 -66 -96 -104 -36 -37 -91 -85 -121 -105 -31 -20 -64 -42 -75 -49 -11 -7
-40 -21 -65 -33 -25 -11 -72 -33 -105 -49 -33 -16 -87 -37 -120 -46 -33 -9
-112 -25 -175 -35 -63 -10 -158 -18 -210 -18 -52 0 -135 6 -185 15 -49 8 -117
18 -150 23 -33 5 -80 16 -105 25 -25 9 -61 23 -80 32 -19 8 -48 22 -65 30 -16
9 -55 29 -85 45 -30 15 -76 43 -101 61 -26 18 -65 50 -88 71 -23 20 -57 58
-77 84 -20 26 -55 70 -79 98 -26 31 -65 101 -103 185 -33 74 -68 164 -76 200
-8 36 -23 97 -32 135 -10 47 -18 153 -24 325 -5 143 -5 350 0 470 5 118 14
289 20 380 5 91 15 203 20 250 6 47 13 191 17 321 l6 235 -30 100 c-17 54 -34
112 -38 128 -3 17 -15 42 -26 57 -10 15 -19 31 -19 36 0 6 -19 36 -41 69 -23
32 -60 78 -82 101 -22 23 -48 41 -56 40 -9 -1 -23 -7 -31 -12 -8 -5 -35 -20
-60 -33 -25 -13 -70 -32 -100 -42 -30 -11 -86 -26 -123 -35 -39 -8 -115 -15
-178 -15 -65 0 -139 7 -181 16 -38 9 -100 28 -136 43 -52 21 -68 33 -70 50 -2
13 -1 34 2 47 5 17 13 24 30 24 12 0 62 -13 109 -30 71 -24 107 -31 207 -35
88 -4 142 -1 197 11 41 8 91 22 111 31 21 9 60 27 87 41 28 14 73 42 100 63
28 20 71 59 96 85 25 27 62 72 82 100 21 29 37 58 37 66 0 8 4 18 9 23 4 6 14
26 20 45 7 19 21 67 32 105 12 44 19 103 19 161 0 53 -8 132 -19 186 -11 52
-33 120 -48 151 -15 31 -46 82 -68 114 -21 32 -72 87 -112 122 -61 52 -73 68
-73 94 0 17 8 36 18 43 9 7 26 14 37 14 12 0 58 -39 120 -102z"/>
<path d="M5008 5795 c-42 -7 -108 -23 -145 -35 -37 -12 -100 -37 -139 -55 -39
-19 -74 -41 -78 -50 -3 -9 -6 -33 -6 -53 0 -20 6 -71 14 -112 7 -41 21 -97 30
-125 9 -27 33 -72 52 -98 19 -26 49 -57 67 -68 18 -10 61 -28 96 -39 40 -13
90 -20 140 -20 51 1 97 8 141 23 l65 22 -4 98 c-2 67 0 102 9 112 7 8 22 15
35 15 12 0 29 -8 37 -17 8 -10 21 -47 27 -83 7 -36 19 -87 29 -115 9 -27 31
-72 48 -100 17 -27 54 -71 80 -97 27 -26 70 -56 96 -67 26 -11 83 -26 125 -34
54 -10 104 -12 164 -7 48 4 115 17 150 29 35 11 84 35 109 51 25 16 39 30 32
30 -7 0 -30 -11 -51 -25 -21 -14 -62 -35 -92 -46 -29 -11 -95 -24 -147 -28
-51 -5 -114 -4 -140 0 -26 5 -74 16 -107 26 -52 15 -70 27 -135 92 -49 49 -86
97 -104 135 -15 32 -35 98 -44 146 -10 48 -23 94 -31 103 -7 10 -28 17 -46 17
-18 0 -38 -7 -45 -15 -9 -11 -11 -42 -8 -111 l5 -96 -46 -21 c-38 -18 -65 -21
-156 -22 -101 0 -115 2 -173 29 -39 18 -77 45 -98 70 -19 22 -46 64 -60 93
-13 29 -32 93 -40 142 -8 49 -14 107 -12 128 3 36 6 40 73 74 39 19 80 39 90
42 11 4 40 14 65 22 25 8 86 22 135 30 50 8 122 15 160 15 39 0 106 -6 150
-14 44 -8 109 -25 145 -36 35 -12 87 -33 115 -47 27 -14 80 -48 117 -75 36
-27 104 -89 151 -137 46 -49 96 -109 111 -133 15 -23 53 -83 83 -133 31 -49
63 -99 73 -110 9 -11 28 -39 41 -63 13 -24 25 -39 27 -33 2 6 -5 23 -15 38
-10 16 -22 35 -28 44 -5 9 -35 54 -65 100 -31 46 -71 110 -90 143 -19 32 -74
100 -123 151 -48 52 -118 116 -155 143 -37 27 -89 61 -117 75 -27 13 -88 36
-135 50 -47 14 -115 30 -151 36 -36 6 -101 11 -145 10 -43 -1 -114 -7 -156
-14z"/>
<path d="M4481 5562 c-21 -2 -41 -13 -53 -27 -10 -14 -31 -31 -46 -39 -15 -8
-38 -21 -52 -28 -13 -7 -34 -23 -46 -35 -12 -12 -41 -27 -65 -33 -24 -7 -46
-15 -49 -19 -3 -4 -34 -15 -68 -25 -36 -10 -108 -19 -163 -20 l-100 -3 -36
-52 c-20 -29 -60 -77 -89 -107 -29 -30 -53 -56 -53 -57 0 -1 -3 -10 -7 -20 -3
-10 -4 -21 0 -24 3 -4 6 0 6 8 0 8 29 45 65 84 36 38 65 73 65 77 0 5 8 16 19
27 10 10 23 26 28 36 8 13 29 17 105 20 52 2 115 9 139 15 24 7 56 14 72 17
15 3 27 9 27 13 0 5 25 16 55 24 30 9 60 24 67 34 7 9 24 23 38 30 14 7 37 20
52 28 15 8 36 26 46 39 13 17 30 25 50 25 25 0 31 -5 36 -27 2 -16 8 -49 11
-75 3 -26 10 -50 16 -53 5 -4 9 -23 9 -43 0 -21 6 -46 14 -57 7 -11 17 -31 21
-45 4 -14 29 -50 55 -80 32 -36 72 -68 119 -93 49 -27 96 -43 149 -51 42 -7
104 -12 137 -11 33 1 81 6 107 10 26 4 53 14 59 21 6 8 27 14 45 14 26 0 36
-6 48 -28 8 -15 23 -36 35 -46 12 -11 21 -23 21 -27 0 -4 21 -28 46 -52 25
-25 60 -52 77 -60 18 -8 52 -24 77 -35 25 -11 65 -26 90 -33 30 -9 90 -13 183
-12 121 1 146 5 210 28 39 14 100 39 135 56 34 16 68 29 75 29 6 0 32 -22 57
-48 25 -27 63 -62 85 -78 22 -16 61 -46 86 -66 25 -21 51 -38 58 -38 6 0 31
-10 54 -22 23 -11 51 -22 62 -23 11 -1 39 -5 63 -9 23 -5 45 -13 48 -17 3 -5
18 -9 33 -9 16 0 47 -6 69 -14 22 -8 43 -12 46 -9 3 3 12 0 21 -7 8 -7 15 -27
15 -44 1 -17 7 -57 14 -88 8 -31 22 -78 32 -103 15 -40 15 -48 3 -60 -8 -8
-30 -25 -49 -39 -19 -14 -58 -36 -85 -49 -28 -13 -63 -39 -77 -58 -15 -19 -42
-51 -60 -73 -18 -21 -45 -52 -60 -68 -16 -16 -28 -33 -28 -38 0 -5 -8 -15 -19
-22 -10 -7 -35 -44 -55 -83 -21 -38 -44 -94 -51 -123 -8 -30 -19 -59 -24 -66
-5 -6 -19 -36 -30 -66 -12 -30 -21 -62 -20 -70 0 -8 10 12 23 45 13 33 30 74
39 90 9 17 17 38 17 48 0 9 18 56 40 102 22 47 52 95 65 107 14 12 25 26 25
31 0 5 10 20 23 32 12 12 39 42 60 66 21 24 50 59 64 78 15 19 50 45 78 58 27
13 66 35 85 49 19 13 41 32 48 42 8 10 10 28 6 47 -3 16 -10 35 -14 40 -5 6
-16 41 -24 78 -9 38 -16 83 -16 101 0 19 -6 39 -14 45 -8 7 -20 11 -28 9 -7
-1 -35 3 -63 10 -27 7 -63 17 -80 22 -16 4 -55 14 -85 20 -30 7 -71 21 -91 31
-20 11 -43 19 -50 19 -7 0 -33 17 -58 38 -25 21 -62 49 -81 62 -19 12 -58 48
-85 77 -43 46 -55 54 -80 51 -17 -2 -52 -16 -80 -30 -27 -14 -83 -37 -123 -53
-66 -25 -86 -27 -215 -28 -109 -1 -153 3 -187 15 -25 9 -75 30 -111 46 -40 18
-84 48 -112 77 -26 26 -47 51 -47 55 0 4 -9 15 -21 26 -12 10 -27 31 -35 46
-13 24 -21 28 -59 28 -26 0 -47 -5 -52 -14 -4 -7 -28 -17 -53 -21 -25 -4 -72
-9 -105 -10 -33 -1 -94 3 -135 10 -55 9 -94 24 -147 54 -42 25 -89 63 -116 94
-25 29 -53 71 -63 92 -9 22 -19 56 -21 75 -3 19 -9 40 -14 46 -5 6 -13 44 -19
85 -6 40 -14 76 -18 79 -4 3 -22 4 -41 2z"/>
<path d="M3675 5091 c-3 -6 -2 -11 4 -11 6 0 27 -25 48 -55 21 -30 41 -54 45
-55 4 0 -2 16 -13 35 -12 19 -25 35 -30 35 -5 0 -9 6 -9 13 0 8 -9 22 -19 31
-12 11 -21 14 -26 7z"/>
<path d="M3776 4941 c12 -9 36 -44 53 -76 17 -32 36 -64 42 -72 6 -7 8 -13 4
-13 -5 0 -1 -8 8 -18 9 -10 21 -47 26 -82 l10 -65 -4 62 c-3 35 -10 73 -16 85
-7 13 -16 30 -20 38 -4 8 -22 42 -39 75 -18 32 -40 65 -49 72 -9 7 -20 12 -26
12 -5 0 0 -8 11 -18z"/>
<path d="M3935 4605 c4 -11 14 -60 22 -110 11 -75 12 -128 2 -314 -6 -123 -15
-235 -20 -248 -5 -14 -9 -46 -9 -73 0 -27 -4 -82 -9 -122 -5 -40 -12 -194 -16
-343 -4 -148 -6 -322 -6 -385 1 -63 4 -197 7 -298 4 -126 10 -193 20 -217 8
-19 17 -35 19 -35 3 0 -1 16 -9 35 -10 24 -16 91 -20 217 -3 101 -6 235 -7
298 0 63 2 237 6 385 4 149 11 303 16 343 5 40 9 95 9 122 0 27 4 59 9 73 5
13 14 125 20 248 10 183 9 240 -2 314 -8 50 -19 100 -26 110 -12 20 -12 20 -6
0z"/>
<path d="M5580 3649 c-87 -6 -137 -15 -165 -28 -22 -11 -53 -23 -70 -27 -16
-4 -34 -10 -40 -14 -5 -4 -26 -13 -46 -19 -20 -6 -45 -21 -54 -31 -10 -11 -25
-20 -32 -20 -8 0 -26 -9 -40 -20 -14 -11 -21 -20 -16 -20 5 0 18 7 29 15 10 8
26 15 35 15 8 0 26 11 39 25 13 14 31 25 39 25 9 0 28 6 43 14 14 8 43 19 65
26 21 7 47 19 58 26 13 8 95 17 222 25 157 10 219 10 280 1 43 -7 96 -12 118
-12 22 0 51 -8 65 -17 13 -9 37 -18 52 -20 16 -2 72 -24 124 -49 63 -30 103
-44 122 -41 25 4 25 4 -5 6 -17 0 -34 5 -38 10 -3 5 -22 15 -43 22 -20 6 -43
16 -51 22 -7 6 -50 24 -95 40 -44 16 -112 33 -151 38 -38 5 -126 11 -195 13
-69 2 -181 0 -250 -5z"/>
<path d="M5581 3525 c-18 -8 -47 -15 -64 -15 -17 0 -72 -14 -121 -31 -50 -18
-114 -47 -143 -65 -28 -19 -57 -34 -63 -34 -6 0 -37 -20 -68 -44 -31 -24 -88
-76 -127 -114 -38 -39 -81 -83 -95 -99 -13 -15 -41 -59 -62 -98 -21 -38 -51
-97 -67 -130 -15 -33 -39 -85 -51 -115 -13 -30 -27 -75 -31 -100 -4 -25 -17
-71 -28 -104 -11 -32 -18 -68 -15 -81 3 -12 30 -46 60 -76 30 -29 54 -49 54
-44 0 6 -22 31 -49 58 -28 26 -52 55 -55 65 -4 10 3 45 15 78 11 32 24 79 28
104 4 25 16 65 28 90 11 25 34 74 51 110 17 36 49 97 70 135 21 39 49 83 62
98 14 16 57 60 95 99 39 38 96 90 127 114 31 24 62 44 68 44 6 0 37 16 68 37
31 20 93 49 137 65 44 15 94 28 111 28 17 0 48 7 67 15 27 11 76 15 185 15
107 0 161 -4 192 -15 23 -8 55 -15 70 -15 14 0 60 -11 101 -25 41 -14 110 -43
154 -65 45 -22 86 -40 93 -40 6 0 16 -9 22 -20 7 -13 7 -33 -1 -67 -6 -26 -15
-61 -21 -78 -5 -16 -18 -57 -28 -90 -10 -33 -30 -100 -45 -150 -15 -49 -36
-126 -46 -170 -10 -44 -39 -134 -65 -200 -25 -66 -48 -131 -51 -145 -3 -14
-15 -47 -28 -75 -12 -27 -32 -70 -44 -95 -12 -25 -29 -58 -39 -75 -10 -16 -24
-40 -32 -52 -8 -13 -20 -23 -27 -23 -7 0 -30 15 -50 33 -21 18 -68 48 -105 65
-36 18 -90 37 -119 43 -30 7 -91 9 -148 5 -53 -3 -118 -10 -146 -15 -49 -10
-49 -10 10 -3 33 3 114 6 180 7 120 0 120 0 200 -39 44 -22 97 -55 118 -73 20
-18 47 -33 58 -33 12 0 28 8 36 18 7 9 36 64 64 122 28 58 57 119 64 135 7 17
25 68 40 115 16 47 38 108 51 137 12 28 30 87 39 130 9 43 25 105 35 138 10
33 30 101 45 150 15 50 33 104 41 122 8 17 14 42 14 56 0 14 5 38 10 52 6 15
8 36 4 48 -3 15 -28 33 -82 58 -42 20 -95 44 -117 53 -22 10 -67 27 -100 37
-33 10 -72 19 -86 19 -15 0 -46 7 -69 15 -31 11 -84 15 -194 15 -110 -1 -160
-5 -185 -15z"/>
<path d="M5025 3422 c-33 -26 -85 -74 -115 -106 -30 -33 -64 -69 -75 -81 -11
-12 -38 -48 -60 -81 -22 -32 -52 -80 -68 -106 -15 -26 -24 -48 -19 -48 5 0 21
21 36 48 14 26 47 76 71 111 25 35 70 89 100 120 30 31 60 64 67 72 7 9 41 37
76 64 34 26 62 50 62 51 0 2 -3 4 -7 4 -5 0 -35 -22 -68 -48z"/>
<path d="M4645 2918 c-10 -24 -24 -50 -30 -58 -7 -8 -18 -37 -25 -65 -7 -27
-17 -54 -21 -60 -5 -5 -9 -26 -9 -46 0 -20 -6 -42 -14 -48 -8 -6 -16 -24 -18
-39 -3 -15 -8 -36 -12 -47 -8 -20 -7 -20 8 -1 9 11 16 32 16 47 0 14 7 32 15
39 9 7 15 29 15 51 0 21 4 40 9 43 5 3 11 20 15 38 3 18 24 68 46 111 22 42
36 77 31 77 -4 0 -16 -19 -26 -42z"/>
<path d="M4387 2564 c-4 -4 -33 -9 -64 -11 -32 -2 -75 -10 -95 -18 -21 -8 -38
-11 -38 -7 0 4 -6 0 -13 -9 -7 -9 -34 -33 -60 -53 -26 -20 -51 -36 -55 -36 -5
0 -18 -13 -30 -30 -13 -16 -29 -30 -36 -30 -8 0 -22 12 -31 28 -10 15 -24 31
-32 35 -7 4 -13 14 -13 22 0 8 -4 17 -10 20 -6 4 -7 -1 -3 -12 3 -10 14 -27
23 -38 10 -11 23 -30 29 -42 7 -14 21 -23 36 -23 14 0 33 12 47 28 13 15 49
45 81 67 31 21 57 41 57 45 0 4 19 14 43 23 23 9 69 19 102 22 33 4 74 7 90 7
17 0 44 -3 60 -6 21 -5 18 -2 -10 8 -22 9 -47 16 -56 16 -9 0 -19 -3 -22 -6z"/>
<path d="M4333 2440 c-23 -5 -66 -20 -95 -34 -35 -17 -80 -52 -126 -100 -48
-49 -72 -82 -72 -97 0 -13 11 -48 25 -78 14 -29 46 -81 71 -115 25 -33 77 -89
116 -124 38 -34 88 -75 111 -90 23 -14 66 -39 96 -54 29 -15 103 -44 163 -63
61 -20 159 -42 221 -50 61 -8 160 -15 220 -15 60 0 139 5 176 11 36 6 91 18
121 26 30 8 84 26 121 38 36 13 96 40 135 60 38 21 85 49 104 63 19 14 65 55
103 91 50 48 67 71 67 91 0 20 -12 39 -40 64 -22 20 -59 44 -82 55 -24 10 -65
24 -91 31 -29 8 -75 11 -116 7 -37 -3 -93 -15 -124 -26 -32 -11 -75 -33 -96
-50 -21 -17 -56 -61 -77 -98 -33 -57 -44 -69 -69 -71 -19 -3 -33 2 -42 14 -7
10 -13 29 -13 43 0 14 13 49 29 76 16 28 41 62 56 78 15 16 25 36 23 49 -2 13
-24 32 -64 54 -34 18 -87 40 -120 49 -32 8 -79 15 -104 15 -25 0 -64 -6 -88
-13 -23 -7 -70 -33 -104 -57 -33 -25 -89 -76 -124 -114 -35 -39 -61 -72 -59
-75 3 -3 35 28 71 67 36 40 94 92 128 116 33 24 79 49 100 56 25 8 65 11 110
7 56 -5 89 -15 154 -48 46 -23 86 -48 89 -55 3 -7 -9 -28 -26 -46 -17 -18 -42
-55 -56 -82 -14 -28 -25 -64 -25 -81 0 -17 6 -38 13 -47 6 -9 26 -18 42 -19
17 -2 36 0 42 4 7 4 29 37 48 72 20 36 53 77 73 93 20 16 53 36 72 45 19 9 55
21 80 26 25 6 68 11 96 11 28 0 66 -5 85 -11 19 -6 53 -20 77 -30 23 -11 60
-35 82 -55 22 -20 40 -44 40 -54 0 -9 -30 -46 -67 -81 -38 -36 -84 -77 -103
-91 -19 -14 -65 -42 -101 -62 -37 -19 -95 -46 -130 -60 -35 -13 -89 -31 -119
-39 -30 -9 -85 -20 -121 -26 -37 -6 -116 -11 -176 -11 -60 0 -159 7 -219 14
-60 8 -148 27 -194 41 -47 15 -119 43 -160 62 -41 20 -97 52 -125 71 -27 19
-78 61 -113 92 -34 32 -85 88 -112 126 -28 37 -60 88 -70 112 -11 25 -20 51
-20 59 0 8 33 49 72 90 50 50 92 83 133 103 33 16 87 32 121 35 53 6 67 4 115
-19 30 -14 75 -42 102 -61 26 -19 47 -42 47 -51 0 -9 -31 -50 -70 -92 -38 -42
-74 -89 -79 -103 -7 -20 -5 -34 10 -58 14 -24 25 -31 46 -30 24 2 24 2 6 6
-13 2 -31 17 -42 32 -19 27 -19 28 -2 57 10 16 45 58 78 94 33 36 62 75 65 87
4 14 -1 28 -16 41 -11 10 -42 33 -67 50 -26 17 -66 38 -90 46 -24 9 -57 15
-74 15 -16 -1 -49 -5 -72 -9z"/>
<path d="M4835 2395 c-27 -8 -54 -14 -59 -15 -5 0 -7 -2 -4 -5 3 -3 34 2 69
11 46 12 89 15 152 11 74 -4 98 -10 161 -41 41 -20 80 -36 87 -36 7 0 27 -11
45 -25 18 -14 37 -25 42 -25 6 0 13 -6 15 -12 3 -8 6 -6 6 5 1 9 -4 17 -10 17
-6 0 -25 11 -43 25 -18 14 -40 25 -49 25 -9 0 -19 5 -22 10 -4 6 -12 9 -18 8
-7 -1 -23 5 -37 14 -14 9 -52 24 -85 32 -32 9 -91 16 -130 15 -38 0 -92 -7
-120 -14z"/>
<path d="M51 5418 c31 -29 78 -73 105 -97 27 -24 89 -80 139 -124 50 -44 92
-83 95 -86 3 -3 12 -7 20 -9 13 -3 13 -2 0 11 -8 8 -55 50 -105 93 -50 44
-112 99 -139 124 -26 25 -71 66 -99 93 -28 26 -55 47 -61 47 -6 0 15 -24 45
-52z"/>
<path d="M7 5294 c-3 -3 11 -20 31 -37 20 -18 109 -98 198 -179 l161 -147 -13
-83 c-7 -46 -19 -130 -26 -188 -8 -62 -13 -216 -13 -380 0 -176 5 -306 13
-360 7 -47 20 -116 28 -155 8 -38 26 -113 39 -165 13 -52 33 -120 45 -150 12
-30 30 -82 40 -115 11 -33 36 -94 56 -135 20 -41 43 -86 51 -100 7 -14 23 -43
33 -65 11 -22 25 -49 32 -60 7 -11 40 -60 73 -110 33 -49 81 -119 107 -154 26
-35 48 -67 48 -72 0 -4 28 -36 63 -71 34 -35 85 -88 114 -118 28 -30 86 -86
128 -125 42 -38 93 -86 113 -105 21 -20 58 -51 85 -69 26 -19 47 -42 47 -50
-1 -9 -7 -27 -15 -41 -8 -14 -14 -34 -14 -45 -1 -12 8 -2 21 25 11 25 22 53
23 63 1 10 -19 33 -54 59 -31 23 -70 55 -87 72 -16 17 -46 43 -65 58 -18 15
-77 71 -129 125 -52 53 -123 125 -156 160 -34 34 -74 82 -88 105 -15 24 -60
90 -101 148 -42 58 -81 116 -88 130 -6 14 -15 27 -18 30 -4 3 -31 55 -61 115
-30 61 -67 135 -81 164 -15 30 -27 63 -27 73 0 11 -7 33 -16 50 -9 17 -31 79
-50 137 -19 58 -38 134 -43 168 -5 34 -12 66 -15 71 -3 5 -13 58 -23 118 -13
84 -17 173 -18 389 0 171 5 321 13 385 7 58 19 141 26 185 7 45 11 86 8 93 -2
6 -72 74 -155 150 -84 76 -170 155 -193 175 -23 20 -44 34 -47 31z"/>
<path d="M10905 2673 c-27 -2 -87 -8 -131 -13 -45 -6 -108 -17 -140 -26 -33
-8 -97 -27 -144 -41 -47 -14 -123 -45 -170 -69 -47 -23 -112 -62 -145 -87 -33
-25 -85 -71 -115 -103 -30 -31 -65 -73 -77 -93 -12 -20 -31 -53 -42 -73 -12
-20 -27 -56 -35 -80 -7 -24 -21 -68 -29 -98 -9 -30 -21 -99 -28 -153 -7 -57
-9 -133 -5 -180 4 -44 11 -101 17 -126 5 -26 19 -77 31 -116 11 -38 27 -83 35
-100 8 -16 20 -39 26 -50 7 -11 24 -38 38 -60 15 -23 50 -67 79 -98 29 -32 84
-79 123 -105 38 -26 83 -55 99 -65 15 -11 28 -15 28 -10 0 4 -11 15 -24 23
-12 8 -55 36 -93 62 -39 26 -94 73 -123 105 -29 32 -76 93 -104 137 -28 44
-57 100 -64 125 -7 25 -22 80 -32 121 -11 41 -23 113 -26 160 -4 48 -1 126 5
180 7 52 19 120 27 150 9 30 26 81 39 113 13 31 36 78 52 103 15 25 55 75 88
111 33 35 91 88 130 117 38 29 104 68 145 88 41 20 103 45 137 57 34 11 97 30
140 41 43 11 110 25 148 31 39 5 210 13 382 16 l311 6 26 -26 c14 -14 26 -32
26 -40 0 -8 -9 -22 -20 -32 -18 -16 -46 -18 -312 -20 -207 -2 -325 -7 -402
-18 -59 -9 -161 -33 -225 -53 -64 -20 -142 -50 -174 -66 -32 -16 -90 -53 -129
-83 -44 -34 -97 -89 -140 -145 -37 -49 -68 -99 -68 -109 0 -10 -12 -44 -26
-75 -18 -39 -29 -87 -36 -158 -6 -57 -8 -144 -5 -193 4 -67 14 -118 40 -195
20 -58 44 -121 54 -141 10 -20 41 -63 68 -96 28 -33 61 -67 75 -76 14 -8 58
-38 98 -67 60 -42 98 -59 210 -94 75 -24 175 -49 223 -55 47 -6 135 -11 197
-11 61 0 146 5 189 11 43 7 83 15 88 19 6 4 26 11 45 14 19 4 55 15 80 26 25
10 60 24 79 31 19 7 66 38 105 69 39 31 86 73 104 94 18 20 41 56 52 79 10 23
28 71 40 106 13 40 20 82 18 115 l-3 51 -230 6 c-126 4 -275 12 -330 18 -55 7
-120 16 -145 21 -25 5 -74 14 -110 20 -36 6 -90 15 -120 20 -30 4 -67 13 -82
19 -15 5 -32 20 -38 31 -9 17 -8 26 5 46 12 19 24 24 60 24 24 0 77 -7 117
-14 40 -8 105 -19 143 -25 39 -6 108 -15 155 -21 47 -5 123 -12 170 -15 47 -2
138 -7 202 -11 74 -4 158 -2 225 5 60 7 139 20 176 28 38 8 67 17 64 19 -2 2
-33 -2 -68 -10 -35 -8 -112 -20 -172 -27 -67 -7 -151 -9 -225 -5 -64 4 -155 9
-202 11 -47 3 -123 10 -170 15 -47 6 -116 15 -155 21 -38 6 -103 17 -143 25
-40 7 -94 14 -121 14 -32 0 -53 -5 -61 -16 -8 -8 -13 -29 -13 -45 0 -16 7 -37
16 -46 9 -9 24 -18 34 -19 10 -1 45 -7 78 -13 33 -5 89 -15 125 -21 36 -6 85
-15 110 -20 25 -5 90 -14 145 -21 55 -6 201 -14 325 -18 l225 -6 3 -39 c2 -22
-1 -59 -7 -83 -6 -24 -25 -72 -41 -107 -16 -35 -44 -81 -62 -102 -18 -21 -65
-63 -105 -95 -39 -31 -93 -65 -120 -75 -26 -10 -57 -23 -68 -30 -11 -7 -41
-16 -67 -19 -27 -4 -48 -11 -48 -15 0 -4 -37 -12 -82 -18 -46 -7 -132 -12
-192 -12 -61 0 -148 5 -195 11 -48 7 -120 22 -161 34 -41 13 -105 34 -142 48
-37 14 -80 35 -95 47 -15 12 -52 39 -82 60 -29 22 -56 40 -60 42 -3 2 -29 30
-57 63 -28 33 -65 89 -82 125 -16 36 -40 97 -52 135 -12 39 -24 111 -27 160
-3 50 -1 135 5 190 7 68 18 119 36 159 14 32 26 65 26 72 0 8 31 55 68 104 44
57 96 111 141 146 40 30 103 70 139 89 37 18 113 47 169 64 56 18 150 39 210
48 76 11 196 16 406 18 260 2 301 4 315 18 9 9 17 30 18 46 1 19 -5 36 -18 48
-18 16 -44 18 -282 19 -143 0 -283 -1 -311 -3z"/>
<path d="M3462 1657 c-12 -13 -21 -34 -21 -48 1 -20 2 -21 6 -4 3 11 14 30 26
43 12 12 26 21 33 20 6 -2 76 -65 155 -140 79 -75 167 -154 194 -174 28 -21
51 -41 53 -45 2 -4 35 -27 74 -50 38 -24 92 -59 119 -76 27 -18 53 -33 59 -33
5 0 10 -4 10 -9 0 -5 10 -13 23 -17 12 -4 44 -17 71 -30 28 -13 55 -24 60 -24
6 0 34 -11 61 -25 28 -13 59 -25 69 -25 11 0 45 -9 75 -19 31 -11 115 -30 186
-42 102 -18 165 -22 295 -21 119 1 199 7 285 23 66 11 134 23 150 26 17 3 35
9 41 14 6 5 33 12 60 16 26 3 71 15 99 25 27 11 82 30 120 43 39 13 100 37
137 54 37 17 72 31 77 31 6 0 27 11 47 25 20 14 49 25 64 25 15 0 35 -9 45
-20 11 -12 15 -27 11 -42 -3 -14 -30 -38 -67 -61 -34 -21 -59 -40 -57 -43 3
-2 33 12 67 33 49 31 62 44 67 71 5 24 2 38 -11 52 -10 11 -31 20 -46 20 -15
0 -41 -5 -56 -12 -15 -6 -35 -17 -43 -24 -8 -6 -33 -17 -55 -24 -22 -7 -58
-22 -80 -33 -22 -11 -76 -33 -120 -49 -44 -16 -89 -32 -100 -34 -11 -3 -29 -9
-40 -14 -11 -4 -42 -12 -70 -18 -27 -5 -75 -16 -105 -25 -30 -8 -101 -22 -156
-31 -61 -10 -167 -17 -265 -18 -129 -1 -192 3 -294 21 -71 12 -155 30 -185 41
-30 10 -68 21 -85 24 -16 4 -48 15 -70 26 -22 10 -71 31 -108 46 -38 15 -75
33 -82 40 -7 8 -16 14 -20 14 -3 0 -27 15 -54 33 -27 17 -81 52 -119 76 -39
23 -72 46 -74 50 -2 4 -30 28 -63 53 -33 26 -92 77 -132 115 -39 37 -101 96
-137 131 -35 34 -73 62 -83 62 -11 0 -29 -10 -41 -23z"/>
<path d="M3450 1577 c0 -5 31 -43 70 -86 38 -42 83 -85 100 -94 16 -10 30 -13
30 -8 0 6 -5 11 -12 11 -7 0 -52 42 -100 93 -48 50 -88 88 -88 84z"/>
<path d="M1410 1353 c-36 -13 -121 -46 -190 -73 -69 -27 -137 -52 -153 -55
-15 -4 -30 -11 -33 -16 -3 -5 -12 -9 -19 -9 -8 0 -38 -11 -67 -24 -29 -13 -96
-39 -148 -59 -52 -19 -117 -45 -145 -57 -27 -12 -97 -38 -155 -57 -58 -20
-109 -39 -115 -44 -5 -4 -45 -21 -88 -38 -42 -17 -110 -47 -149 -67 -39 -20
-89 -47 -110 -61 -21 -14 -36 -28 -34 -31 3 -2 27 9 53 26 26 17 90 51 141 76
51 24 102 48 115 52 12 4 47 18 77 32 30 14 93 38 140 54 47 15 128 46 180 67
52 22 131 54 175 71 44 18 109 43 145 57 36 13 83 31 105 40 22 8 58 21 80 29
22 8 54 21 70 28 17 8 67 26 112 41 46 14 85 31 88 36 4 5 3 9 -2 8 -4 0 -37
-12 -73 -26z"/>
<path d="M1565 1277 c-11 -6 -47 -21 -80 -33 -33 -12 -87 -32 -120 -44 -33
-12 -64 -26 -70 -31 -5 -5 -15 -9 -22 -9 -7 0 -36 -11 -65 -24 -29 -14 -84
-36 -123 -49 -38 -13 -92 -32 -120 -42 -27 -10 -75 -28 -105 -40 -30 -13 -93
-39 -140 -58 -47 -20 -99 -38 -115 -42 -17 -4 -43 -13 -60 -20 -16 -7 -61 -25
-100 -39 -38 -15 -97 -38 -130 -52 -33 -14 -78 -35 -100 -46 -22 -12 -47 -27
-55 -33 -8 -7 -37 -25 -65 -41 -27 -15 -60 -35 -73 -45 -12 -9 -19 -20 -13
-23 5 -3 14 1 21 9 7 8 38 29 69 46 31 18 63 37 71 44 8 7 33 21 55 32 22 12
65 32 95 46 30 14 87 37 125 52 39 14 84 32 100 40 17 7 46 17 65 20 19 4 59
18 88 32 29 14 58 26 65 27 7 1 30 10 52 20 22 10 76 31 120 48 44 16 112 41
150 54 39 14 78 29 87 34 10 6 22 10 27 10 5 0 35 12 67 27 33 14 82 35 109
45 28 11 82 31 120 44 39 14 74 30 80 35 5 5 33 9 61 9 29 0 56 -5 59 -10 4
-6 32 -29 63 -52 31 -23 61 -47 65 -55 4 -7 13 -13 20 -13 7 -1 28 -14 47 -30
19 -17 38 -30 43 -30 4 0 29 -16 54 -35 25 -19 51 -35 58 -35 7 0 18 -7 25
-15 7 -8 46 -32 86 -52 41 -20 79 -42 85 -50 6 -7 20 -13 30 -13 10 0 42 -14
71 -31 29 -16 72 -39 95 -50 23 -11 44 -23 47 -27 3 -5 -10 -15 -27 -24 -18
-9 -54 -26 -82 -38 -27 -12 -66 -29 -85 -37 -19 -8 -47 -21 -62 -29 -14 -8
-35 -14 -46 -14 -12 0 -23 -4 -27 -9 -3 -6 6 -8 20 -5 14 2 51 16 83 30 31 14
71 31 87 38 17 7 44 19 60 26 17 7 44 20 62 28 18 9 31 23 30 32 -1 10 -28 30
-72 50 -38 19 -72 36 -75 39 -3 4 -15 12 -27 19 -13 6 -30 12 -40 12 -9 0 -24
6 -32 14 -9 7 -48 30 -88 50 -39 21 -77 44 -83 52 -7 8 -18 14 -25 14 -7 0
-33 16 -58 35 -25 19 -50 35 -56 35 -6 0 -26 14 -44 30 -19 17 -39 30 -45 30
-6 0 -15 6 -19 14 -4 7 -28 27 -53 44 -25 17 -54 40 -64 51 -15 17 -31 21 -75
21 -31 0 -65 -6 -76 -13z"/>
<path d="M11793 1247 c-14 -23 -42 -66 -61 -95 -20 -30 -68 -84 -107 -120 -39
-37 -88 -76 -110 -87 -22 -11 -59 -32 -82 -47 -23 -16 -51 -28 -62 -28 -11 0
-29 -14 -42 -32 -12 -18 -32 -44 -44 -58 -12 -14 -27 -40 -33 -58 -10 -29 -9
-34 11 -46 12 -7 60 -35 107 -63 47 -27 103 -65 125 -84 22 -19 60 -54 86 -79
25 -25 67 -75 93 -112 26 -38 63 -105 82 -151 18 -46 38 -108 43 -138 l10 -54
-4 55 c-3 31 -20 95 -39 143 -19 47 -55 117 -82 154 -26 38 -68 88 -93 113
-26 25 -64 60 -86 79 -22 19 -71 53 -110 76 -38 23 -85 50 -103 59 -29 15 -33
21 -27 44 3 15 17 38 29 52 13 14 33 40 45 58 12 17 30 32 39 32 10 0 33 10
52 23 19 13 57 35 85 48 27 13 82 54 121 92 39 37 91 97 115 135 24 37 49 76
55 87 7 12 22 20 37 20 14 -1 24 2 21 6 -2 4 -13 9 -24 12 -16 4 -26 -4 -47
-36z"/>
<path d="M9450 1150 c-8 -5 -27 -15 -42 -22 -15 -7 -61 -30 -102 -50 -41 -21
-96 -43 -122 -48 -26 -6 -68 -22 -93 -35 -25 -13 -80 -34 -121 -46 -41 -11
-93 -27 -115 -35 -23 -8 -57 -14 -77 -14 -20 0 -48 -4 -63 -10 -14 -5 -70 -19
-124 -30 -55 -11 -146 -25 -202 -30 -57 -6 -147 -16 -199 -22 -52 -7 -234 -12
-405 -12 -183 -1 -358 4 -427 12 -65 6 -171 16 -235 22 -65 5 -179 17 -253 25
-74 9 -166 20 -205 26 -38 6 -117 15 -175 20 -58 5 -132 13 -165 18 -33 4 -96
13 -140 20 -44 6 -108 16 -141 21 -34 6 -74 10 -90 10 -16 1 -40 7 -54 14
l-25 14 25 10 c14 6 43 16 64 24 22 7 42 20 44 28 4 12 1 12 -14 -2 -10 -9
-32 -19 -49 -23 -16 -4 -42 -11 -57 -17 -15 -6 -25 -15 -22 -23 3 -7 16 -17
30 -24 14 -6 39 -11 56 -11 17 0 58 -4 92 -10 33 -5 97 -15 141 -21 44 -7 107
-16 140 -20 33 -5 107 -13 165 -18 58 -5 137 -14 175 -20 39 -6 131 -17 205
-26 74 -8 188 -20 253 -25 64 -6 170 -16 235 -22 69 -8 244 -13 427 -12 171 0
353 5 405 12 52 6 142 16 199 22 56 5 147 19 202 30 54 11 110 25 124 30 15 6
43 10 63 10 20 0 54 6 77 14 22 8 76 24 120 37 44 12 94 30 110 38 17 8 32 15
35 16 3 0 11 4 17 8 7 4 38 15 69 23 31 8 91 32 133 54 42 22 81 40 86 40 4 0
16 7 26 16 17 15 20 14 48 -6 17 -12 31 -28 31 -36 0 -9 -5 -24 -10 -35 -6
-10 -48 -36 -93 -58 -45 -21 -92 -42 -104 -45 -11 -4 -27 -13 -33 -21 -7 -8
-10 -25 -6 -37 3 -13 27 -57 53 -98 26 -42 80 -114 119 -160 39 -47 102 -114
140 -150 38 -36 85 -76 104 -89 19 -13 51 -33 70 -44 19 -11 64 -35 100 -54
36 -18 75 -33 87 -33 12 0 24 -4 27 -9 3 -5 38 -16 78 -26 55 -12 102 -15 188
-12 63 3 131 8 150 12 19 4 37 11 40 14 3 4 25 13 50 20 25 7 65 22 90 33 25
11 64 29 87 39 23 11 53 29 67 40 14 11 26 27 26 35 0 10 -7 7 -22 -10 -13
-14 -45 -37 -73 -51 -27 -15 -84 -40 -125 -56 -41 -16 -83 -29 -92 -29 -10 0
-18 -4 -18 -9 0 -5 -15 -12 -32 -16 -18 -4 -85 -9 -148 -12 -86 -3 -133 0
-188 12 -40 10 -75 21 -78 26 -3 5 -14 9 -24 9 -10 0 -47 15 -82 33 -35 18
-81 43 -103 56 -22 13 -53 33 -70 44 -16 12 -61 51 -99 87 -37 36 -100 103
-140 150 -39 47 -95 122 -125 168 -29 47 -50 90 -47 98 3 8 23 22 43 30 21 8
71 31 111 51 50 24 76 43 83 60 5 13 9 33 9 44 0 11 -14 28 -32 39 -18 11 -35
20 -38 19 -3 0 -12 -4 -20 -9z"/>
<path d="M10308 887 c2 -9 46 -53 96 -96 50 -43 138 -129 195 -190 57 -61 112
-122 123 -136 11 -14 24 -25 30 -25 5 0 -8 21 -30 48 -22 26 -94 101 -159 167
-65 66 -150 149 -189 185 -39 36 -69 57 -66 47z"/>
<path d="M9120 852 c0 -5 -36 -26 -79 -47 -44 -22 -82 -47 -84 -57 -4 -13 10
-25 52 -47 31 -16 74 -38 96 -50 22 -11 66 -32 97 -46 31 -14 60 -30 63 -35 3
-6 13 -10 22 -10 8 0 26 -9 40 -20 14 -11 31 -20 37 -20 6 0 -5 10 -24 23 -20
12 -44 28 -55 34 -11 7 -36 20 -55 29 -19 9 -46 21 -60 26 -14 6 -34 15 -45
21 -11 6 -46 26 -78 44 -33 18 -63 33 -68 33 -5 0 -9 6 -9 13 0 7 32 29 72 48
39 19 77 40 85 47 7 8 20 11 28 8 8 -3 21 -19 30 -36 9 -18 44 -70 77 -116 33
-47 76 -101 95 -120 19 -20 38 -33 41 -29 3 3 -8 18 -26 33 -17 15 -61 70 -99
123 -37 53 -76 111 -85 128 -12 22 -24 31 -43 31 -14 0 -25 -4 -25 -8z"/>
<path d="M10586 825 c-10 -10 -16 -11 -25 -2 -8 8 -11 8 -11 -1 0 -7 3 -12 8
-12 4 0 25 -17 47 -38 22 -21 66 -68 97 -103 31 -35 76 -88 99 -116 32 -40 49
-53 70 -53 21 0 46 20 110 87 46 48 107 111 135 140 28 29 48 56 44 58 -5 3
-44 -34 -87 -82 -43 -49 -103 -112 -133 -140 -30 -29 -62 -53 -71 -53 -8 0
-35 24 -58 53 -23 28 -68 81 -99 116 -31 36 -73 79 -92 97 -22 22 -31 37 -25
43 6 6 40 5 90 -2 44 -6 171 -11 283 -12 111 -1 200 1 196 4 -3 3 -85 4 -182
3 -100 -2 -197 1 -222 7 -25 5 -71 12 -103 15 -40 3 -61 1 -71 -9z"/>
<path d="M2635 701 c-3 -5 -18 -12 -35 -16 -16 -3 -39 -14 -52 -24 -13 -10
-35 -21 -50 -25 -15 -3 -67 -24 -115 -47 -48 -22 -102 -47 -120 -55 -17 -8
-34 -14 -38 -14 -4 0 -26 -9 -49 -20 -23 -10 -101 -46 -175 -80 -74 -33 -143
-60 -152 -60 -10 0 -21 -5 -24 -10 -4 -6 -21 -17 -38 -25 l-32 -15 30 6 c17 3
37 11 45 18 8 8 28 16 43 20 16 4 76 29 133 56 57 28 106 50 109 50 3 0 24 9
48 19 23 11 71 32 107 46 36 15 102 44 148 66 45 21 86 39 90 39 5 0 40 16 79
35 39 19 81 35 93 35 12 0 56 -12 98 -26 42 -14 82 -30 89 -36 7 -6 13 -8 13
-4 0 3 24 -3 53 -15 28 -11 81 -29 117 -39 36 -10 162 -45 280 -78 118 -32
269 -71 335 -86 66 -15 136 -31 155 -36 19 -5 53 -12 75 -16 22 -3 63 -10 90
-14 28 -4 88 -15 135 -24 47 -8 119 -20 160 -27 41 -6 98 -15 125 -20 28 -6
84 -12 125 -15 41 -3 88 -10 104 -15 16 -5 56 -8 90 -7 58 2 59 2 11 5 -27 1
-72 7 -100 13 -27 5 -75 12 -105 14 -30 2 -116 13 -190 25 -74 12 -173 29
-220 37 -47 9 -109 20 -137 25 -29 5 -77 13 -105 18 -29 5 -82 16 -118 24 -36
8 -99 23 -140 33 -41 9 -149 37 -240 61 -91 24 -203 55 -250 70 -47 14 -103
31 -125 38 -22 7 -98 34 -170 59 -71 25 -144 46 -162 46 -17 0 -34 -4 -38 -9z"/>
<path d="M8760 664 c-25 -7 -94 -29 -155 -50 -60 -20 -119 -40 -130 -45 -11
-4 -54 -19 -95 -34 -41 -15 -84 -30 -95 -35 -11 -5 -74 -22 -140 -39 -66 -17
-154 -39 -195 -50 -41 -10 -132 -29 -202 -42 -70 -12 -126 -24 -124 -27 3 -2
71 8 153 23 81 15 173 33 203 41 30 9 66 19 80 24 14 5 39 12 55 14 17 3 62
14 100 25 39 11 102 31 140 46 39 14 79 29 90 31 11 3 29 9 40 14 11 4 58 20
105 35 47 15 105 36 129 47 29 13 57 18 80 15 20 -3 68 -23 106 -44 39 -22 79
-44 90 -50 11 -6 45 -22 75 -35 30 -14 87 -42 125 -61 39 -20 122 -63 185 -95
63 -33 129 -66 145 -75 17 -8 79 -39 140 -69 60 -29 114 -55 119 -57 5 -2 6 1
2 7 -4 6 -58 36 -121 66 -63 31 -121 56 -129 56 -8 0 -18 4 -21 10 -3 5 -56
35 -118 66 -62 31 -117 60 -124 66 -6 5 -44 25 -85 44 -40 20 -93 45 -118 56
-25 12 -56 27 -70 35 -14 7 -63 33 -110 57 -84 43 -86 43 -130 30z"/>
<path d="M2080 595 c-7 -8 -17 -15 -22 -15 -5 0 -42 -16 -82 -35 -40 -19 -76
-35 -79 -35 -4 0 -40 -16 -81 -35 -41 -19 -78 -35 -81 -35 -4 0 -36 -13 -72
-30 -35 -16 -68 -30 -73 -30 -4 0 -21 -7 -36 -15 -16 -8 -41 -15 -55 -15 -14
0 -48 7 -75 15 -27 8 -60 15 -72 15 -13 0 -36 6 -50 14 -15 7 -48 19 -75 25
-26 6 -62 11 -80 11 -18 0 -38 -5 -45 -12 -7 -7 -12 -22 -12 -34 0 -12 -3 -29
-6 -38 -3 -9 -14 -16 -24 -16 -10 0 -23 -7 -30 -15 -7 -8 -16 -15 -21 -15 -5
0 -39 -14 -76 -32 -38 -17 -92 -47 -120 -65 -29 -18 -87 -67 -129 -108 -44
-43 -73 -79 -69 -85 5 -8 14 -1 25 17 9 15 46 54 82 86 36 32 85 70 109 86 24
15 87 48 140 74 52 26 100 47 107 47 6 0 14 17 18 38 4 20 11 43 17 50 5 6 22
12 38 12 16 0 50 -5 76 -11 27 -6 60 -18 75 -25 14 -8 34 -14 45 -14 10 0 49
-8 86 -17 l68 -18 72 27 c40 15 104 40 143 56 38 16 95 41 126 56 30 14 58 26
63 26 4 0 51 21 104 47 53 27 107 51 121 54 23 6 23 7 -6 8 -17 0 -37 -6 -44
-14z"/>
<path d="M11070 524 c-36 -37 -107 -102 -159 -145 -52 -43 -109 -86 -125 -94
-17 -9 -38 -20 -46 -25 -8 -5 -60 -31 -116 -57 -62 -30 -99 -53 -97 -60 3 -7
-1 -13 -9 -13 -7 0 10 -12 37 -26 28 -14 78 -44 113 -66 34 -22 65 -38 68 -36
3 3 -27 26 -67 52 -40 25 -85 51 -101 58 -16 7 -27 19 -26 27 2 8 10 17 18 22
8 4 51 24 95 44 44 20 87 41 95 46 8 5 29 15 46 24 16 8 73 51 125 94 52 43
123 108 159 145 35 36 71 66 80 66 9 0 26 -7 39 -17 13 -9 53 -31 88 -50 36
-19 85 -50 110 -69 25 -19 59 -47 75 -62 16 -15 50 -54 76 -87 26 -33 53 -70
60 -82 6 -13 16 -31 21 -40 6 -10 17 -33 25 -52 9 -19 16 -46 17 -60 0 -14 4
-35 9 -46 6 -13 7 -2 3 30 -3 28 -21 84 -41 125 -19 41 -56 102 -83 135 -26
33 -61 72 -77 87 -16 15 -50 43 -75 62 -25 19 -74 50 -110 69 -35 19 -75 41
-88 50 -13 10 -35 17 -49 17 -18 0 -44 -19 -90 -66z"/>
<path d="M1751 286 c2 -2 58 -19 124 -38 66 -20 172 -48 235 -62 63 -15 151
-36 195 -48 44 -11 96 -24 115 -29 19 -4 55 -12 80 -18 25 -5 70 -17 100 -25
30 -8 88 -24 129 -36 41 -11 91 -19 110 -19 27 1 20 4 -24 10 -33 5 -87 17
-120 28 -33 10 -109 31 -170 45 -60 15 -132 33 -160 40 -27 8 -70 19 -95 24
-25 6 -97 23 -160 37 -63 15 -165 42 -227 61 -61 19 -117 34 -124 34 -7 0 -10
-2 -8 -4z"/>
<path d="M1182 224 c-52 -13 -139 -46 -195 -73 -56 -26 -126 -67 -154 -90 -29
-23 -53 -46 -53 -51 0 -6 28 13 63 40 34 28 87 62 117 76 30 14 72 34 93 45
21 11 81 31 134 44 52 14 122 25 154 25 33 0 101 -11 152 -24 50 -14 175 -45
277 -70 102 -25 211 -50 242 -54 32 -5 55 -6 53 -2 -2 4 -29 10 -60 14 -31 3
-138 27 -238 52 -100 25 -224 56 -274 70 -54 14 -119 24 -155 24 -35 -1 -105
-12 -156 -26z"/>
<path d="M9715 153 c-27 -3 -56 -9 -63 -16 -8 -6 -38 -12 -67 -13 -29 -1 -67
-6 -86 -12 -19 -6 -77 -16 -129 -22 -52 -6 -111 -15 -130 -20 -19 -5 -82 -17
-140 -26 -58 -9 -136 -20 -175 -24 -69 -7 -69 -7 -17 -8 29 -1 92 5 140 13 48
9 121 22 162 30 41 8 116 19 165 25 50 6 105 16 124 22 19 6 58 11 87 12 30 1
59 7 66 14 7 7 36 12 64 12 29 0 56 5 59 10 3 6 3 9 -2 8 -4 -1 -30 -3 -58 -5z"/>
<path d="M10140 89 c-19 -4 -66 -13 -105 -18 -38 -6 -110 -18 -160 -27 -49 -8
-135 -19 -190 -23 l-100 -8 82 -1 c46 -1 102 2 125 8 24 5 84 16 133 24 50 8
136 22 192 32 97 16 105 16 175 -1 40 -9 91 -26 113 -36 22 -10 58 -22 79 -28
22 -6 41 -9 43 -7 2 2 -31 16 -74 31 -43 14 -109 35 -147 46 -38 10 -83 19
-100 18 -17 -1 -47 -5 -66 -10z"/>
<path d="M2005 60 c-22 -5 -82 -16 -132 -26 -51 -11 -93 -22 -93 -25 0 -4 21
-2 48 2 26 5 73 16 105 24 32 8 71 15 85 15 15 0 34 5 42 10 13 9 13 10 0 9
-8 -1 -33 -5 -55 -9z"/>
</g>
</svg>
