<?xml version="1.0" standalone="no"?>
<!DOCTYPE svg PUBLIC "-//W3C//DTD SVG 20010904//EN"
 "http://www.w3.org/TR/2001/REC-SVG-20010904/DTD/svg10.dtd">
<svg version="1.0" xmlns="http://www.w3.org/2000/svg"
 width="1200.000000pt" height="1200.000000pt" viewBox="0 0 1200.000000 1200.000000"
 preserveAspectRatio="xMidYMid meet">
<metadata>
Created by potrace 1.16, written by Peter Selinger 2001-2019
</metadata>
<g transform="translate(0.000000,1200.000000) scale(0.100000,-0.100000)"
fill="#000000" stroke="none">
<path d="M1037 7184 c-16 -16 9 -24 74 -24 l69 0 0 -29 c0 -16 -11 -136 -25
-267 -29 -280 -29 -274 -10 -274 20 0 21 8 50 295 14 138 27 256 30 263 3 8
28 12 80 12 60 0 75 3 75 15 0 13 -25 15 -168 15 -93 0 -172 -3 -175 -6z"/>
<path d="M1446 7168 c-8 -34 -56 -509 -56 -546 0 -21 5 -32 14 -32 14 0 26 42
26 94 0 39 49 144 83 174 15 14 34 22 49 20 23 -3 23 -4 23 -129 0 -135 8
-159 50 -159 28 0 43 18 95 113 23 42 44 77 47 77 3 0 2 -32 -2 -70 -8 -81 8
-120 49 -120 29 0 44 17 96 113 23 42 45 77 50 77 18 0 120 -74 126 -92 8 -26
-22 -68 -49 -68 -12 0 -40 9 -61 21 -29 15 -41 18 -50 9 -15 -15 23 -46 75
-60 71 -19 95 0 167 132 61 114 94 208 57 163 -9 -11 -34 -55 -56 -97 -22 -43
-41 -78 -44 -78 -2 0 -15 10 -27 23 -13 12 -45 37 -71 54 -54 37 -61 67 -22
85 19 8 35 8 61 0 29 -9 36 -8 41 5 8 22 -15 33 -70 33 -38 0 -53 -5 -72 -25
-14 -13 -25 -33 -25 -45 0 -23 -92 -191 -115 -210 -25 -21 -29 14 -16 147 7
68 10 127 7 130 -9 10 -36 -6 -36 -21 0 -16 -113 -221 -137 -248 -29 -33 -35
-9 -28 111 6 109 6 118 -15 144 -37 46 -85 34 -136 -34 -23 -32 -24 -32 -24
-8 0 13 7 85 15 159 18 170 18 180 0 180 -8 0 -17 -10 -19 -22z"/>
<path d="M3010 7180 c0 -14 -30 -221 -35 -247 -4 -19 -12 -23 -41 -23 -45 0
-41 -24 4 -28 27 -3 31 -7 27 -25 -2 -12 -9 -59 -15 -105 -14 -102 -2 -149 37
-158 38 -10 51 2 105 97 l49 84 -7 -92 c-6 -79 -5 -93 8 -93 16 0 28 39 28 94
0 39 49 144 83 174 15 14 34 22 49 20 23 -3 23 -4 23 -129 0 -135 8 -159 50
-159 26 0 42 17 84 93 18 31 34 57 36 57 1 0 1 -19 -2 -42 -11 -118 102 -153
195 -60 45 45 126 183 137 231 11 51 -5 33 -76 -85 -66 -111 -104 -150 -156
-160 -29 -6 -63 14 -63 36 0 5 24 29 54 55 129 110 150 195 48 195 -62 0 -103
-39 -171 -159 -94 -169 -107 -169 -96 2 7 105 6 114 -15 140 -37 46 -85 34
-136 -34 -23 -32 -24 -32 -24 -8 0 13 7 85 15 159 18 170 18 180 0 180 -18 0
-21 -12 -39 -188 l-15 -143 -61 -108 c-70 -125 -81 -138 -100 -115 -11 13 -11
34 -1 122 7 59 15 110 18 115 2 4 22 7 44 7 28 0 39 4 39 15 0 10 -10 15 -34
15 -19 0 -37 3 -39 8 -3 4 4 63 14 131 10 69 16 128 13 133 -7 11 -34 10 -34
-2z m648 -323 c3 -17 -116 -152 -126 -143 -12 12 23 109 49 137 31 33 71 37
77 6z"/>
<path d="M4037 7179 c-30 -18 -45 -62 -56 -162 -6 -53 -11 -99 -11 -102 0 -3
-21 -5 -46 -5 -57 0 -56 -23 2 -30 l40 -5 -28 -255 c-29 -269 -30 -301 -11
-307 17 -6 18 4 49 305 l27 262 79 0 c56 0 78 -4 78 -12 0 -7 -5 -61 -11 -120
-10 -95 -9 -111 5 -133 19 -29 56 -33 78 -7 8 9 32 47 52 85 21 37 39 67 40
67 1 0 -2 -36 -7 -81 -9 -84 -7 -95 16 -86 10 4 17 29 22 74 5 50 16 87 43
138 l37 70 71 0 72 0 -5 -30 c-5 -36 16 -63 88 -106 55 -35 67 -60 45 -94 -20
-31 -49 -32 -100 -4 -29 15 -41 18 -50 9 -15 -15 23 -46 75 -60 63 -17 98 4
142 86 55 104 60 108 52 46 -8 -71 8 -120 42 -128 14 -4 33 -3 41 2 23 15 142
226 142 252 0 37 -14 19 -80 -97 -70 -125 -81 -138 -100 -115 -11 13 -11 34
-1 122 7 59 15 110 18 115 2 4 22 7 44 7 28 0 39 4 39 15 0 10 -10 15 -34 15
-19 0 -37 3 -39 8 -3 4 4 63 14 131 10 69 16 128 13 133 -7 11 -34 10 -34 -2
0 -14 -30 -221 -35 -247 -4 -19 -12 -23 -41 -23 -42 0 -43 -23 -1 -28 15 -2
27 -5 27 -8 0 -8 -80 -164 -85 -164 -2 0 -15 10 -27 23 -13 12 -45 37 -71 54
-54 37 -61 67 -22 85 19 8 35 8 61 0 29 -9 36 -8 41 5 3 8 0 19 -8 24 -19 12
-96 11 -120 -1 -10 -6 -19 -7 -19 -2 0 4 -17 8 -37 8 -21 0 -52 4 -70 8 -34 9
-57 -7 -95 -64 -16 -25 -16 -25 -11 19 5 38 4 43 -13 39 -11 -2 -21 -15 -24
-34 -8 -35 -112 -225 -135 -244 -25 -21 -29 13 -16 147 7 68 10 127 7 130 -3
3 -46 5 -97 4 l-91 -2 7 83 c4 46 12 99 19 118 10 33 14 35 59 38 39 3 48 6
45 20 -4 20 -73 28 -101 11z"/>
<path d="M5217 7158 c-4 -18 -18 -139 -33 -268 -29 -258 -27 -284 22 -296 38
-10 53 3 100 84 22 40 44 75 48 79 4 5 4 -20 1 -54 -9 -73 9 -113 49 -113 28
0 42 16 90 100 l37 65 -6 -82 c-6 -72 -5 -83 9 -83 16 0 21 15 30 93 10 84 79
197 121 197 34 0 41 -36 27 -132 -16 -112 4 -158 71 -158 27 0 56 29 85 85 36
68 40 71 36 24 -12 -119 101 -154 194 -61 45 45 126 183 137 231 11 51 -5 33
-76 -85 -66 -111 -104 -150 -156 -160 -29 -6 -63 14 -63 36 0 5 24 29 54 55
129 110 150 195 48 195 -61 0 -97 -34 -169 -162 -36 -64 -73 -120 -81 -123 -9
-3 -25 3 -36 14 -18 19 -19 25 -8 98 16 106 15 126 -9 157 -36 46 -90 30 -142
-44 l-17 -25 2 40 c2 30 -1 41 -13 43 -12 2 -18 -7 -22 -32 -6 -38 -106 -225
-132 -246 -25 -21 -29 13 -16 147 7 68 10 127 7 130 -12 12 -36 -8 -36 -29 0
-24 -109 -227 -133 -246 -11 -10 -17 -9 -28 4 -11 14 -9 55 14 263 15 135 27
256 27 269 0 34 -27 26 -33 -10z m851 -301 c3 -17 -116 -152 -126 -143 -12 12
23 109 49 137 31 33 71 37 77 6z"/>
<path d="M6747 7179 c-29 -17 -45 -61 -56 -157 -5 -51 -12 -96 -15 -101 -9
-14 -129 -22 -168 -11 -96 27 -169 -65 -172 -217 -1 -57 2 -67 23 -84 53 -43
117 -9 170 90 17 33 34 82 38 109 l5 49 52 10 c28 6 51 10 52 9 0 0 -12 -116
-28 -256 -29 -268 -30 -301 -11 -307 17 -6 18 4 49 304 l27 262 90 3 c61 2 92
7 95 16 3 9 -19 12 -88 12 l-92 0 7 83 c4 45 12 98 19 117 10 33 14 35 59 38
39 3 48 6 45 20 -4 20 -73 28 -101 11z m-236 -309 c41 -22 15 -129 -51 -203
-56 -65 -98 -38 -86 55 17 124 71 183 137 148z"/>
<path d="M7060 7180 c0 -14 -30 -221 -35 -247 -4 -19 -12 -23 -41 -23 -45 0
-41 -24 4 -28 27 -3 31 -7 27 -25 -2 -12 -9 -59 -15 -105 -14 -102 -2 -149 37
-158 38 -10 51 2 105 97 l49 84 -7 -92 c-6 -79 -5 -93 8 -93 16 0 28 39 28 94
0 39 49 144 83 174 15 14 34 22 49 20 23 -3 23 -4 23 -129 0 -135 8 -159 50
-159 26 0 42 17 84 93 18 31 34 57 36 57 1 0 1 -19 -2 -42 -11 -118 102 -153
195 -60 45 45 126 183 137 231 11 51 -5 33 -76 -85 -66 -111 -104 -150 -156
-160 -29 -6 -63 14 -63 36 0 5 24 29 54 55 129 110 150 195 48 195 -62 0 -103
-39 -171 -159 -94 -169 -107 -169 -96 2 7 105 6 114 -15 140 -37 46 -85 34
-136 -34 -23 -32 -24 -32 -24 -8 0 13 7 85 15 159 18 170 18 180 0 180 -18 0
-21 -12 -39 -188 l-15 -143 -61 -108 c-70 -125 -81 -138 -100 -115 -11 13 -11
34 -1 122 7 59 15 110 18 115 2 4 22 7 44 7 28 0 39 4 39 15 0 10 -10 15 -34
15 -19 0 -37 3 -39 8 -3 4 4 63 14 131 10 69 16 128 13 133 -7 11 -34 10 -34
-2z m648 -323 c3 -17 -116 -152 -126 -143 -12 12 23 109 49 137 31 33 71 37
77 6z"/>
<path d="M10606 7168 c-3 -13 -12 -93 -21 -178 l-16 -155 -42 -53 c-69 -89
-77 -97 -77 -91 0 3 5 31 10 62 8 40 8 68 0 96 -23 86 -72 95 -136 26 l-42
-46 5 42 c5 36 4 41 -13 37 -11 -2 -21 -15 -25 -35 -7 -35 -110 -223 -132
-242 -11 -9 -17 -8 -27 4 -12 15 -11 66 7 223 l6 52 -76 0 c-70 0 -77 -2 -105
-30 -37 -37 -62 -107 -62 -176 0 -68 13 -102 45 -114 34 -13 69 4 105 53 l29
39 11 -41 c8 -31 17 -42 37 -47 38 -10 53 4 102 90 24 42 45 75 47 74 1 -2 -8
-100 -20 -218 -22 -203 -21 -249 4 -224 5 5 14 54 20 109 18 176 13 165 70
165 73 0 98 14 178 98 l72 77 -6 -87 c-6 -75 -5 -88 8 -88 16 0 28 39 28 94 0
39 49 144 83 174 15 14 34 22 49 20 23 -3 23 -4 23 -129 0 -135 8 -159 50
-159 29 0 41 16 109 136 50 91 72 155 47 140 -4 -3 -36 -54 -69 -114 -95 -170
-108 -170 -97 1 7 105 6 114 -15 140 -37 46 -85 34 -136 -34 -23 -32 -24 -32
-24 -8 0 13 7 85 15 159 18 170 18 180 0 180 -8 0 -17 -10 -19 -22z m-550
-350 c-8 -69 -36 -126 -85 -173 -25 -23 -35 -27 -48 -19 -38 24 -38 114 -2
186 24 48 55 68 103 68 l39 0 -7 -62z m364 43 c24 -45 3 -164 -36 -206 -19
-20 -32 -25 -73 -25 l-50 0 6 53 c10 89 75 197 118 197 14 0 29 -8 35 -19z"/>
<path d="M1803 7024 c-3 -8 -1 -20 5 -26 16 -16 42 -2 42 22 0 24 -38 28 -47
4z"/>
<path d="M2393 7024 c-3 -8 -1 -20 5 -26 16 -16 42 -2 42 22 0 24 -38 28 -47
4z"/>
<path d="M4173 7024 c-3 -8 -1 -20 5 -26 16 -16 42 -2 42 22 0 24 -38 28 -47
4z"/>
<path d="M5383 7024 c-3 -8 -1 -20 5 -26 16 -16 42 -2 42 22 0 24 -38 28 -47
4z"/>
<path d="M8074 6875 l-42 -46 5 42 c5 36 4 41 -13 37 -12 -2 -20 -13 -22 -28
-31 -264 -58 -557 -51 -564 18 -20 29 11 39 109 18 176 13 165 70 165 73 0 98
14 178 98 l72 77 0 -57 c0 -72 13 -106 45 -118 34 -13 69 4 105 53 l29 39 11
-41 c8 -31 17 -42 37 -47 37 -10 53 3 101 87 61 106 64 109 58 74 -3 -16 -8
-61 -12 -98 -6 -64 -5 -69 12 -65 15 3 21 18 29 78 8 52 22 95 46 140 l34 65
55 -3 c67 -3 100 4 100 21 0 8 -14 13 -37 13 -21 0 -52 4 -70 8 -34 9 -57 -7
-95 -64 -16 -25 -16 -25 -11 19 5 38 4 43 -13 39 -10 -2 -20 -11 -22 -21 -4
-22 -118 -225 -140 -249 -12 -15 -18 -16 -30 -6 -15 13 -13 68 5 226 l6 52
-72 0 c-91 0 -114 -14 -206 -131 -38 -48 -71 -87 -72 -85 -2 1 2 28 7 59 8 40
8 68 0 96 -23 86 -72 95 -136 26z m96 -14 c24 -45 3 -164 -36 -206 -19 -20
-32 -25 -73 -25 l-50 0 6 53 c10 89 75 197 118 197 14 0 29 -8 35 -19z m336
-43 c-8 -69 -36 -126 -85 -173 -25 -23 -35 -27 -48 -19 -38 24 -38 114 -2 186
24 48 55 68 103 68 l39 0 -7 -62z"/>
<path d="M9728 6899 c-13 -13 -30 -35 -40 -49 -16 -25 -16 -25 -11 19 5 38 4
43 -13 39 -16 -3 -21 -21 -36 -133 -22 -173 -22 -187 -1 -183 14 2 20 20 28
78 8 52 22 95 46 140 l34 65 55 -3 c67 -3 100 4 100 21 0 8 -14 13 -37 13 -21
0 -52 4 -70 8 -26 7 -36 4 -55 -15z"/>
<path d="M2385 6898 c-2 -7 -9 -68 -15 -136 -11 -109 -10 -125 4 -147 19 -29
56 -33 78 -7 9 9 34 52 58 95 23 42 45 77 50 77 18 0 120 -74 126 -92 8 -26
-22 -68 -49 -68 -12 0 -40 9 -61 21 -29 15 -41 18 -50 9 -15 -15 23 -46 75
-60 71 -19 95 0 167 132 61 114 94 208 57 163 -9 -11 -34 -55 -56 -97 -22 -43
-41 -78 -44 -78 -2 0 -15 10 -27 23 -13 12 -45 37 -71 54 -54 37 -61 67 -22
85 19 8 35 8 61 0 29 -9 36 -8 41 5 8 22 -15 33 -70 33 -38 0 -53 -5 -72 -25
-14 -13 -25 -33 -25 -45 0 -23 -92 -191 -115 -210 -25 -21 -29 14 -17 135 7
62 12 120 12 129 0 19 -29 22 -35 4z"/>
<path d="M8992 6880 c-37 -37 -62 -107 -62 -176 0 -68 13 -102 45 -114 34 -13
69 4 105 53 l29 39 11 -41 c8 -31 17 -42 37 -47 37 -10 53 4 100 87 l43 74 0
-53 c0 -127 80 -157 149 -56 13 19 26 32 28 30 8 -7 -17 -212 -29 -248 -6 -18
-18 -41 -26 -50 -20 -24 -79 -34 -116 -20 -38 15 -58 0 -33 -25 21 -21 113
-24 150 -4 57 31 77 118 112 504 l7 77 -74 0 c-64 0 -79 -3 -99 -22 -14 -13
-29 -23 -34 -24 -6 -1 -37 -49 -70 -106 -76 -133 -83 -142 -103 -126 -15 13
-14 67 5 226 l6 52 -76 0 c-70 0 -77 -2 -105 -30z m134 -62 c-8 -69 -36 -126
-85 -173 -25 -23 -35 -27 -48 -19 -38 24 -38 114 -2 186 24 48 55 68 103 68
l39 0 -7 -62z m371 7 c-9 -93 -97 -222 -134 -199 -25 16 -34 63 -23 117 20 97
57 137 124 137 l39 0 -6 -55z"/>
<path d="M10920 6635 c-18 -21 -5 -47 22 -43 26 3 37 36 16 49 -18 12 -24 11
-38 -6z"/>
<path d="M1047 6334 c-16 -16 9 -24 74 -24 l69 0 0 -29 c0 -16 -11 -136 -25
-267 -29 -280 -29 -274 -10 -274 20 0 21 8 50 295 14 138 27 256 30 263 3 8
28 12 80 12 60 0 75 3 75 15 0 13 -25 15 -168 15 -93 0 -172 -3 -175 -6z"/>
<path d="M1456 6318 c-8 -34 -56 -509 -56 -546 0 -21 5 -32 14 -32 14 0 26 42
26 94 0 39 49 144 83 174 15 14 34 22 49 20 23 -3 23 -4 23 -129 0 -135 8
-159 50 -159 28 0 43 18 95 113 23 42 44 77 47 77 3 0 2 -32 -2 -70 -8 -81 8
-120 49 -120 29 0 44 17 96 113 23 42 45 77 50 77 18 0 120 -74 126 -92 8 -26
-22 -68 -49 -68 -12 0 -40 9 -61 21 -29 15 -41 18 -50 9 -15 -15 23 -46 75
-60 71 -19 95 0 167 132 61 114 94 208 57 163 -9 -11 -34 -55 -56 -97 -22 -43
-41 -78 -44 -78 -2 0 -15 10 -27 23 -13 12 -45 37 -71 54 -54 37 -61 67 -22
85 19 8 35 8 61 0 29 -9 36 -8 41 5 8 22 -15 33 -70 33 -38 0 -53 -5 -72 -25
-14 -13 -25 -33 -25 -45 0 -23 -92 -191 -115 -210 -25 -21 -29 14 -16 147 7
68 10 127 7 130 -9 10 -36 -6 -36 -21 0 -16 -113 -221 -137 -248 -29 -33 -35
-9 -28 111 6 109 6 118 -15 144 -37 46 -85 34 -136 -34 -23 -32 -24 -32 -24
-8 0 13 7 85 15 159 18 170 18 180 0 180 -8 0 -17 -10 -19 -22z"/>
<path d="M3020 6330 c0 -14 -30 -221 -35 -247 -4 -19 -12 -23 -41 -23 -45 0
-41 -24 4 -28 27 -3 31 -7 27 -25 -2 -12 -9 -59 -15 -105 -14 -102 -2 -149 37
-158 38 -10 51 2 105 97 l49 84 -7 -92 c-6 -79 -5 -93 8 -93 16 0 28 39 28 94
0 39 49 144 83 174 15 14 34 22 49 20 23 -3 23 -4 23 -129 0 -135 8 -159 50
-159 26 0 42 17 84 93 18 31 34 57 36 57 1 0 1 -19 -2 -42 -11 -118 102 -153
195 -60 45 45 126 183 137 231 11 51 -5 33 -76 -85 -66 -111 -104 -150 -156
-160 -29 -6 -63 14 -63 36 0 5 24 29 54 55 129 110 150 195 48 195 -62 0 -103
-39 -171 -159 -94 -169 -107 -169 -96 2 7 105 6 114 -15 140 -37 46 -85 34
-136 -34 -23 -32 -24 -32 -24 -8 0 13 7 85 15 159 18 170 18 180 0 180 -18 0
-21 -12 -39 -188 l-15 -143 -61 -108 c-70 -125 -81 -138 -100 -115 -11 13 -11
34 -1 122 7 59 15 110 18 115 2 4 22 7 44 7 28 0 39 4 39 15 0 10 -10 15 -34
15 -19 0 -37 3 -39 8 -3 4 4 63 14 131 10 69 16 128 13 133 -7 11 -34 10 -34
-2z m648 -323 c3 -17 -116 -152 -126 -143 -12 12 23 109 49 137 31 33 71 37
77 6z"/>
<path d="M5709 6338 c-1 -2 -9 -64 -18 -138 l-16 -135 -57 -3 c-43 -2 -62 -9
-83 -28 -14 -13 -30 -22 -35 -19 -5 3 -39 -49 -76 -114 -37 -66 -74 -123 -82
-126 -9 -3 -25 3 -36 14 -18 19 -19 25 -8 98 16 106 15 126 -9 157 -36 46 -90
30 -142 -44 l-17 -25 2 40 3 39 -105 3 c-58 1 -118 3 -133 4 -16 1 -41 -8 -57
-19 -24 -18 -29 -19 -32 -6 -2 8 -28 -27 -58 -78 -90 -152 -154 -208 -209
-179 -29 16 -35 62 -17 133 21 81 61 123 111 114 23 -5 34 -2 38 8 3 8 3 17 0
20 -12 12 -99 6 -120 -9 -16 -11 -22 -12 -26 -2 -2 6 -17 -10 -33 -37 -114
-190 -169 -247 -228 -232 -48 12 -40 36 38 111 66 62 96 105 96 135 0 37 -86
54 -128 24 -17 -12 -22 -12 -22 -2 -1 21 -28 -19 -71 -104 -22 -43 -41 -78
-44 -78 -2 0 -15 10 -27 23 -13 12 -45 37 -71 54 -54 37 -61 67 -22 85 19 8
35 8 61 0 29 -9 36 -8 41 5 8 22 -15 33 -70 33 -38 0 -53 -5 -72 -25 -47 -46
-28 -89 66 -146 55 -35 67 -60 45 -94 -20 -31 -49 -32 -100 -4 -29 15 -41 18
-50 9 -15 -15 23 -46 75 -60 64 -17 98 4 143 89 20 39 38 71 39 71 2 0 3 -27
2 -60 0 -76 24 -105 85 -104 56 2 110 41 159 116 l41 63 0 -63 c0 -35 4 -72
10 -82 15 -28 66 -42 110 -30 47 13 79 43 129 120 l39 61 -1 -72 c-2 -63 0
-73 22 -90 53 -43 117 -9 170 90 17 33 34 82 38 109 l5 49 48 9 48 10 -4 -30
c-27 -206 -28 -256 -9 -256 15 0 20 15 29 93 10 84 79 197 121 197 34 0 41
-36 27 -132 -16 -113 4 -158 72 -158 28 0 53 27 102 115 l33 60 1 -57 c0 -72
13 -106 45 -118 34 -13 69 4 105 53 l29 39 11 -41 c8 -31 17 -42 37 -47 14 -4
33 -2 42 3 23 14 140 224 141 251 0 37 -14 19 -79 -96 -69 -125 -82 -140 -102
-116 -11 13 -9 53 10 237 12 122 25 243 28 270 5 39 3 47 -11 47 -9 0 -17 -1
-17 -2z m-1351 -331 c3 -17 -116 -152 -126 -143 -12 12 23 109 49 137 31 33
71 37 77 6z m583 13 c41 -22 15 -129 -51 -203 -56 -65 -98 -38 -86 55 17 124
71 183 137 148z m725 -52 c-8 -69 -36 -126 -85 -173 -25 -23 -35 -27 -49 -19
-46 30 -29 168 28 225 22 23 38 29 71 29 l42 0 -7 -62z"/>
<path d="M6037 6308 c-4 -18 -18 -139 -33 -268 -29 -258 -27 -284 22 -296 38
-10 53 3 100 84 22 40 44 75 48 79 4 5 4 -20 1 -54 -9 -73 9 -113 49 -113 28
0 42 16 90 100 l37 65 -6 -82 c-6 -72 -5 -83 9 -83 16 0 21 15 30 93 10 84 79
197 121 197 34 0 41 -36 27 -132 -16 -112 4 -158 71 -158 27 0 56 29 85 85 36
68 40 71 36 24 -12 -119 101 -154 194 -61 45 45 126 183 137 231 11 51 -5 33
-76 -85 -66 -111 -104 -150 -156 -160 -29 -6 -63 14 -63 36 0 5 24 29 54 55
129 110 150 195 48 195 -61 0 -97 -34 -169 -162 -36 -64 -73 -120 -81 -123 -9
-3 -25 3 -36 14 -18 19 -19 25 -8 98 16 106 15 126 -9 157 -36 46 -90 30 -142
-44 l-17 -25 2 40 c2 30 -1 41 -13 43 -12 2 -18 -7 -22 -32 -6 -38 -106 -225
-132 -246 -25 -21 -29 13 -16 147 7 68 10 127 7 130 -12 12 -36 -8 -36 -29 0
-24 -109 -227 -133 -246 -11 -10 -17 -9 -28 4 -11 14 -9 55 14 263 15 135 27
256 27 269 0 34 -27 26 -33 -10z m851 -301 c3 -17 -116 -152 -126 -143 -12 12
23 109 49 137 31 33 71 37 77 6z"/>
<path d="M1813 6174 c-3 -8 -1 -20 5 -26 16 -16 42 -2 42 22 0 24 -38 28 -47
4z"/>
<path d="M2403 6174 c-3 -8 -1 -20 5 -26 16 -16 42 -2 42 22 0 24 -38 28 -47
4z"/>
<path d="M6203 6174 c-3 -8 -1 -20 5 -26 16 -16 42 -2 42 22 0 24 -38 28 -47
4z"/>
<path d="M2395 6048 c-2 -7 -9 -68 -15 -136 -11 -109 -10 -125 4 -147 19 -29
56 -33 78 -7 9 9 34 52 58 95 23 42 45 77 50 77 18 0 120 -74 126 -92 8 -26
-22 -68 -49 -68 -12 0 -40 9 -61 21 -29 15 -41 18 -50 9 -15 -15 23 -46 75
-60 71 -19 95 0 167 132 61 114 94 208 57 163 -9 -11 -34 -55 -56 -97 -22 -43
-41 -78 -44 -78 -2 0 -15 10 -27 23 -13 12 -45 37 -71 54 -54 37 -61 67 -22
85 19 8 35 8 61 0 29 -9 36 -8 41 5 8 22 -15 33 -70 33 -38 0 -53 -5 -72 -25
-14 -13 -25 -33 -25 -45 0 -23 -92 -191 -115 -210 -25 -21 -29 14 -17 135 7
62 12 120 12 129 0 19 -29 22 -35 4z"/>
<path d="M7000 5785 c-18 -21 -5 -47 22 -43 26 3 37 36 16 49 -18 12 -24 11
-38 -6z"/>
<path d="M1237 5483 c-3 -5 -62 -136 -131 -292 -86 -194 -123 -288 -116 -295
16 -16 25 -1 93 154 l64 145 69 0 69 0 22 -150 c12 -82 22 -151 22 -152 1 -2
8 -3 16 -3 9 0 15 9 15 25 0 28 -78 542 -85 563 -5 13 -31 17 -38 5z m27 -128
c4 -36 9 -79 13 -95 l6 -30 -61 0 -60 0 41 95 c22 52 43 95 47 95 4 0 10 -29
14 -65z"/>
<path d="M2079 5488 c-1 -2 -9 -64 -18 -138 l-16 -135 -57 -3 c-43 -2 -62 -9
-83 -28 -14 -13 -30 -22 -35 -19 -5 3 -39 -49 -76 -114 -37 -66 -74 -123 -82
-126 -9 -3 -25 3 -36 14 -18 19 -19 25 -8 98 16 106 15 126 -9 157 -36 46 -90
30 -142 -44 l-17 -25 2 40 c2 31 -1 40 -15 43 -9 2 -17 0 -17 -5 0 -4 -7 -66
-15 -138 -18 -164 -18 -175 0 -175 15 0 20 15 29 93 10 84 79 197 121 197 34
0 41 -36 27 -132 -16 -113 4 -158 72 -158 28 0 53 27 102 115 l33 60 1 -57 c0
-72 13 -106 45 -118 34 -13 69 4 105 53 l29 39 11 -41 c8 -31 17 -42 37 -47
14 -4 33 -2 42 3 23 14 140 224 141 251 0 37 -14 19 -79 -96 -69 -125 -82
-140 -102 -116 -11 13 -9 53 10 237 12 122 25 243 28 270 5 39 3 47 -11 47 -9
0 -17 -1 -17 -2z m-43 -370 c-8 -69 -36 -126 -85 -173 -25 -23 -35 -27 -49
-19 -46 30 -29 168 28 225 22 23 38 29 71 29 l42 0 -7 -62z"/>
<path d="M2420 5480 c0 -14 -30 -221 -35 -247 -4 -19 -12 -23 -41 -23 -45 0
-41 -24 4 -28 27 -3 31 -7 27 -25 -2 -12 -9 -59 -15 -105 -14 -102 -2 -149 37
-158 38 -10 51 2 105 97 l49 84 -7 -92 c-6 -79 -5 -93 8 -93 16 0 28 39 28 94
0 39 49 144 83 174 15 14 34 22 49 20 23 -3 23 -4 23 -129 0 -135 8 -159 50
-159 28 0 43 18 95 113 23 42 44 77 47 77 3 0 2 -32 -2 -70 -8 -81 8 -120 49
-120 29 0 44 17 96 113 23 42 45 77 50 77 18 0 120 -74 126 -92 8 -26 -22 -68
-49 -68 -12 0 -40 9 -61 21 -29 15 -41 18 -50 9 -15 -15 23 -46 75 -60 71 -19
95 0 167 132 61 114 94 208 57 163 -9 -11 -34 -55 -56 -97 -22 -43 -41 -78
-44 -78 -2 0 -15 10 -27 23 -13 12 -45 37 -71 54 -54 37 -61 67 -22 85 19 8
35 8 61 0 29 -9 36 -8 41 5 8 22 -15 33 -70 33 -38 0 -53 -5 -72 -25 -14 -13
-25 -33 -25 -45 0 -23 -92 -191 -115 -210 -25 -21 -29 14 -16 147 7 68 10 127
7 130 -9 10 -36 -6 -36 -21 0 -16 -113 -221 -137 -248 -29 -33 -35 -9 -28 111
6 109 6 118 -15 144 -37 46 -85 34 -136 -34 -23 -32 -24 -32 -24 -8 0 13 7 85
15 159 18 170 18 180 0 180 -18 0 -21 -12 -39 -188 l-15 -143 -61 -108 c-70
-125 -81 -138 -100 -115 -11 13 -11 34 -1 122 7 59 15 110 18 115 2 4 22 7 44
7 28 0 39 4 39 15 0 10 -10 15 -34 15 -19 0 -37 3 -39 8 -3 4 4 63 14 131 10
69 16 128 13 133 -7 11 -34 10 -34 -2z"/>
<path d="M4160 5480 c0 -14 -30 -221 -35 -247 -4 -19 -12 -23 -41 -23 -45 0
-41 -24 4 -28 27 -3 31 -7 27 -25 -2 -12 -9 -59 -15 -105 -14 -102 -2 -149 37
-158 38 -10 51 2 105 97 l49 84 -7 -92 c-6 -79 -5 -93 8 -93 16 0 28 39 28 94
0 39 49 144 83 174 15 14 34 22 49 20 23 -3 23 -4 23 -129 0 -135 8 -159 50
-159 26 0 42 17 84 93 18 31 34 57 36 57 1 0 1 -19 -2 -42 -11 -118 102 -153
195 -60 45 45 126 183 137 231 11 51 -5 33 -76 -85 -66 -111 -104 -150 -156
-160 -29 -6 -63 14 -63 36 0 5 24 29 54 55 129 110 150 195 48 195 -62 0 -103
-39 -171 -159 -94 -169 -107 -169 -96 2 7 105 6 114 -15 140 -37 46 -85 34
-136 -34 -23 -32 -24 -32 -24 -8 0 13 7 85 15 159 18 170 18 180 0 180 -18 0
-21 -12 -39 -188 l-15 -143 -61 -108 c-70 -125 -81 -138 -100 -115 -11 13 -11
34 -1 122 7 59 15 110 18 115 2 4 22 7 44 7 28 0 39 4 39 15 0 10 -10 15 -34
15 -19 0 -37 3 -39 8 -3 4 4 63 14 131 10 69 16 128 13 133 -7 11 -34 10 -34
-2z m648 -323 c3 -17 -116 -152 -126 -143 -12 12 23 109 49 137 31 33 71 37
77 6z"/>
<path d="M5140 5480 c0 -14 -30 -221 -35 -247 -4 -19 -12 -23 -41 -23 -45 0
-41 -24 4 -28 27 -3 31 -7 27 -25 -2 -12 -9 -59 -15 -105 -14 -102 -2 -149 37
-158 38 -10 51 2 105 97 l49 84 -7 -92 c-6 -79 -5 -93 8 -93 16 0 28 39 28 94
0 39 49 144 83 174 15 14 34 22 49 20 23 -3 23 -4 23 -129 0 -135 8 -159 50
-159 28 0 43 18 95 113 23 42 44 77 47 77 3 0 2 -32 -2 -70 -8 -81 8 -120 49
-120 28 0 43 17 90 103 21 37 39 67 40 67 1 0 -2 -36 -7 -81 -9 -84 -7 -95 16
-86 10 4 17 29 22 74 5 50 16 87 43 138 l37 70 55 -3 c67 -3 100 4 100 21 0 8
-14 13 -37 13 -21 0 -52 4 -70 8 -34 9 -57 -7 -95 -64 -16 -25 -16 -25 -11 19
5 38 4 43 -13 39 -11 -2 -21 -15 -24 -34 -8 -35 -112 -225 -135 -244 -25 -21
-29 13 -16 147 7 68 10 127 7 130 -9 10 -36 -6 -36 -21 0 -16 -113 -221 -137
-248 -29 -33 -35 -9 -28 111 6 109 6 118 -15 144 -37 46 -85 34 -136 -34 -23
-32 -24 -32 -24 -8 0 13 7 85 15 159 18 170 18 180 0 180 -18 0 -21 -12 -39
-188 l-15 -143 -61 -108 c-70 -125 -81 -138 -100 -115 -11 13 -11 34 -1 122 7
59 15 110 18 115 2 4 22 7 44 7 28 0 39 4 39 15 0 10 -10 15 -34 15 -19 0 -37
3 -39 8 -3 4 4 63 14 131 10 69 16 128 13 133 -7 11 -34 10 -34 -2z"/>
<path d="M6299 5488 c-1 -2 -9 -64 -18 -138 l-16 -135 -57 -3 c-48 -2 -62 -8
-87 -32 -36 -37 -61 -108 -61 -176 0 -68 13 -102 45 -114 34 -13 69 4 105 53
l29 39 11 -41 c8 -31 17 -42 37 -47 14 -4 33 -2 42 3 23 14 140 224 141 251 0
37 -14 19 -79 -96 -69 -125 -82 -140 -102 -116 -11 13 -9 53 10 237 12 122 25
243 28 270 5 39 3 47 -11 47 -9 0 -17 -1 -17 -2z m-43 -370 c-8 -69 -36 -126
-85 -173 -25 -23 -35 -27 -49 -19 -46 30 -29 168 28 225 22 23 38 29 71 29
l42 0 -7 -62z"/>
<path d="M2953 5324 c-3 -8 -1 -20 5 -26 16 -16 42 -2 42 22 0 24 -38 28 -47
4z"/>
<path d="M3543 5324 c-3 -8 -1 -20 5 -26 16 -16 42 -2 42 22 0 24 -38 28 -47
4z"/>
<path d="M5673 5324 c-3 -8 -1 -20 5 -26 16 -16 42 -2 42 22 0 24 -38 28 -47
4z"/>
<path d="M3535 5198 c-2 -7 -9 -68 -15 -136 -11 -109 -10 -125 4 -147 19 -29
56 -33 78 -7 9 9 34 52 58 95 23 42 45 77 50 77 18 0 120 -74 126 -92 8 -26
-22 -68 -49 -68 -12 0 -40 9 -61 21 -29 15 -41 18 -50 9 -15 -15 23 -46 75
-60 71 -19 95 0 167 132 61 114 94 208 57 163 -9 -11 -34 -55 -56 -97 -22 -43
-41 -78 -44 -78 -2 0 -15 10 -27 23 -13 12 -45 37 -71 54 -54 37 -61 67 -22
85 19 8 35 8 61 0 29 -9 36 -8 41 5 8 22 -15 33 -70 33 -38 0 -53 -5 -72 -25
-14 -13 -25 -33 -25 -45 0 -23 -92 -191 -115 -210 -25 -21 -29 14 -17 135 7
62 12 120 12 129 0 19 -29 22 -35 4z"/>
<path d="M6420 4935 c-18 -21 -5 -47 22 -43 26 3 37 36 16 49 -18 12 -24 11
-38 -6z"/>
</g>
</svg>
