<?xml version="1.0" standalone="no"?>
<!DOCTYPE svg PUBLIC "-//W3C//DTD SVG 20010904//EN"
 "http://www.w3.org/TR/2001/REC-SVG-20010904/DTD/svg10.dtd">
<svg version="1.0" xmlns="http://www.w3.org/2000/svg"
 width="1200.000000pt" height="1200.000000pt" viewBox="0 0 1200.000000 1200.000000"
 preserveAspectRatio="xMidYMid meet">
<metadata>
Created by potrace 1.16, written by Peter Selinger 2001-2019
</metadata>
<g transform="translate(0.000000,1200.000000) scale(0.100000,-0.100000)"
fill="#000000" stroke="none">
<path d="M1037 7184 c-4 -4 -4 -11 -1 -15 3 -5 36 -9 75 -9 l69 0 0 -29 c0
-16 -11 -136 -25 -267 -14 -131 -25 -246 -25 -256 0 -10 7 -18 15 -18 8 0 17
10 20 23 3 12 16 135 30 272 14 138 27 256 30 263 3 8 28 12 80 12 60 0 75 3
75 15 0 13 -25 15 -168 15 -93 0 -172 -3 -175 -6z"/>
<path d="M1446 7168 c-3 -13 -17 -134 -31 -269 -14 -135 -25 -260 -25 -277 0
-21 5 -32 14 -32 7 0 16 14 20 31 3 17 6 46 6 63 0 17 13 58 29 91 15 33 40
70 54 83 15 14 34 22 49 20 23 -3 23 -4 23 -129 0 -92 4 -130 14 -142 7 -9 23
-17 36 -17 12 0 29 8 37 18 9 9 34 52 58 95 23 42 44 77 47 77 3 0 2 -32 -2
-70 -6 -57 -4 -75 9 -95 10 -15 26 -25 40 -25 12 0 30 8 38 18 9 9 34 52 58
95 23 42 45 77 50 77 4 0 33 -16 64 -36 30 -20 58 -45 62 -56 3 -10 -2 -30
-10 -43 -10 -14 -26 -25 -39 -25 -12 0 -40 9 -61 21 -29 15 -41 18 -50 9 -8
-8 -5 -16 12 -31 13 -10 41 -23 63 -29 29 -8 46 -7 71 3 27 12 44 34 96 129
34 63 65 130 68 149 5 33 5 33 -11 14 -9 -11 -34 -55 -56 -97 -22 -43 -41 -78
-44 -78 -2 0 -15 10 -27 23 -13 12 -45 37 -71 54 -30 21 -47 40 -47 53 0 12
10 25 25 32 19 8 35 8 61 0 29 -9 36 -8 41 5 3 8 0 19 -8 24 -8 5 -36 9 -62 9
-38 0 -53 -5 -72 -25 -14 -13 -25 -33 -25 -45 0 -11 -22 -60 -50 -109 -27 -49
-57 -94 -65 -101 -12 -10 -16 -9 -21 5 -4 10 -2 74 5 142 7 68 10 127 7 130
-3 3 -12 3 -21 0 -8 -4 -15 -13 -15 -21 0 -8 -28 -63 -61 -123 -34 -59 -68
-116 -76 -125 -9 -10 -20 -15 -25 -12 -6 4 -7 51 -3 123 6 109 6 118 -15 144
-14 18 -31 27 -48 27 -15 0 -35 -7 -45 -15 -10 -7 -30 -28 -43 -46 -23 -32
-24 -32 -24 -8 0 13 7 85 15 159 8 74 15 145 15 158 0 13 -6 22 -15 22 -8 0
-17 -10 -19 -22z"/>
<path d="M3010 7180 c0 -5 -7 -58 -15 -117 -9 -59 -18 -118 -20 -130 -4 -19
-12 -23 -41 -23 -24 0 -34 -4 -32 -12 3 -7 19 -14 36 -16 27 -3 31 -7 27 -25
-2 -12 -9 -59 -15 -105 -8 -61 -8 -92 0 -118 8 -23 19 -36 37 -40 14 -4 33 -3
41 3 8 5 37 47 64 94 l49 84 -7 -92 c-6 -79 -5 -93 8 -93 9 0 18 13 22 31 3
17 6 46 6 63 0 17 13 58 29 91 15 33 40 70 54 83 15 14 34 22 49 20 23 -3 23
-4 23 -129 0 -92 4 -130 14 -142 7 -9 23 -17 36 -17 12 0 29 8 37 18 8 9 29
43 47 75 18 31 34 57 36 57 1 0 1 -19 -2 -42 -2 -25 2 -54 9 -68 8 -14 26 -31
41 -38 20 -10 36 -10 67 -2 24 6 57 27 78 48 21 21 58 74 84 117 25 44 49 95
53 114 4 20 3 31 -2 28 -5 -3 -38 -54 -74 -113 -35 -59 -78 -117 -95 -130 -17
-13 -44 -27 -61 -30 -21 -4 -35 -1 -46 11 -10 9 -17 20 -17 25 0 5 24 29 54
55 30 25 66 61 80 79 14 18 28 44 31 58 4 17 1 31 -10 42 -9 9 -32 16 -53 16
-22 0 -50 -10 -73 -26 -26 -18 -55 -57 -98 -133 -33 -59 -66 -113 -74 -120
-11 -9 -17 -9 -22 -1 -4 6 -4 62 0 123 7 105 6 114 -15 140 -14 17 -31 27 -48
27 -15 0 -35 -7 -45 -15 -10 -7 -30 -28 -43 -46 -23 -32 -24 -32 -24 -8 0 13
7 85 15 159 8 74 15 145 15 158 0 13 -6 22 -15 22 -8 0 -17 -10 -19 -22 -3
-13 -12 -87 -20 -166 l-15 -143 -61 -108 c-33 -60 -67 -114 -74 -120 -10 -8
-17 -7 -26 5 -11 13 -11 34 -1 122 7 59 15 110 18 115 2 4 22 7 44 7 28 0 39
4 39 15 0 10 -10 15 -34 15 -19 0 -37 3 -39 8 -3 4 4 63 14 131 10 69 16 128
13 133 -3 4 -12 8 -20 8 -8 0 -14 -4 -14 -10z m648 -323 c2 -10 -20 -42 -59
-82 -34 -36 -64 -63 -67 -61 -2 3 1 28 8 55 7 30 24 64 41 82 19 20 36 29 51
27 13 -2 24 -11 26 -21z"/>
<path d="M4037 7179 c-9 -5 -23 -22 -31 -38 -8 -15 -19 -70 -25 -124 -6 -53
-11 -99 -11 -102 0 -3 -21 -5 -46 -5 -32 0 -44 -4 -42 -12 3 -7 22 -15 44 -18
l40 -5 -28 -255 c-15 -140 -27 -266 -25 -279 1 -14 7 -26 14 -28 7 -3 14 6 17
19 3 13 17 141 32 286 l27 262 79 0 c56 0 78 -4 78 -12 0 -7 -5 -61 -11 -120
-10 -95 -9 -111 5 -133 10 -15 26 -25 40 -25 12 0 30 8 38 18 8 9 32 47 52 85
21 37 39 67 40 67 1 0 -2 -36 -7 -81 -5 -44 -7 -83 -3 -86 3 -3 12 -3 19 0 10
4 17 29 22 74 5 50 16 87 43 138 l37 70 71 0 72 0 -5 -30 c-3 -22 2 -37 17
-53 12 -13 44 -37 71 -53 26 -17 51 -39 54 -50 4 -11 0 -30 -9 -44 -10 -14
-26 -25 -39 -25 -12 0 -40 9 -61 21 -29 15 -41 18 -50 9 -8 -8 -5 -16 12 -31
13 -10 41 -23 63 -29 29 -8 46 -7 72 3 25 11 42 31 70 83 20 38 42 76 48 84 8
11 9 2 4 -38 -3 -31 -1 -68 5 -88 8 -23 20 -36 37 -40 14 -4 33 -3 41 2 8 6
43 59 78 119 35 61 64 120 64 133 0 13 -4 21 -9 18 -5 -4 -37 -55 -71 -115
-33 -60 -67 -114 -74 -120 -10 -8 -17 -7 -26 5 -11 13 -11 34 -1 122 7 59 15
110 18 115 2 4 22 7 44 7 28 0 39 4 39 15 0 10 -10 15 -34 15 -19 0 -37 3 -39
8 -3 4 4 63 14 131 10 69 16 128 13 133 -3 4 -12 8 -20 8 -8 0 -14 -4 -14 -10
0 -5 -7 -58 -15 -117 -9 -59 -18 -118 -20 -130 -4 -19 -12 -23 -41 -23 -24 0
-34 -4 -32 -12 3 -7 17 -14 31 -16 15 -2 27 -5 27 -8 0 -2 -18 -40 -40 -84
-22 -44 -42 -80 -45 -80 -2 0 -15 10 -27 23 -13 12 -45 37 -71 54 -30 21 -47
40 -47 53 0 12 10 25 25 32 19 8 35 8 61 0 29 -9 36 -8 41 5 3 8 0 19 -8 24
-8 5 -33 9 -57 9 -24 0 -52 -5 -63 -10 -10 -6 -19 -7 -19 -2 0 4 -17 8 -37 8
-21 0 -52 4 -70 8 -26 7 -36 4 -55 -15 -13 -13 -30 -35 -40 -49 -16 -25 -16
-25 -11 19 5 38 4 43 -13 39 -11 -2 -21 -15 -24 -34 -4 -16 -32 -75 -63 -131
-31 -55 -63 -106 -72 -113 -12 -10 -16 -9 -21 5 -4 10 -2 74 5 142 7 68 10
127 7 130 -3 3 -46 5 -97 4 l-91 -2 7 83 c4 46 12 99 19 118 10 33 14 35 59
38 39 3 48 6 45 20 -2 12 -15 18 -43 19 -22 2 -48 -2 -58 -8z"/>
<path d="M5217 7158 c-4 -18 -18 -139 -33 -268 -19 -178 -23 -242 -15 -262 6
-17 21 -30 37 -34 15 -4 34 -2 43 3 9 5 34 42 57 81 22 40 44 75 48 79 4 5 4
-20 1 -54 -6 -50 -4 -68 9 -88 10 -15 26 -25 40 -25 12 0 30 8 38 18 8 9 32
46 52 82 l37 65 -6 -82 c-6 -72 -5 -83 9 -83 8 0 18 10 20 23 3 12 7 43 10 70
3 26 15 66 27 90 12 23 32 57 46 75 15 21 33 32 48 32 18 0 26 -7 31 -27 4
-15 2 -63 -4 -105 -8 -55 -8 -86 -1 -108 6 -17 19 -35 29 -40 10 -6 29 -10 43
-10 13 0 33 10 44 23 11 12 30 40 41 62 12 22 25 46 31 54 6 9 7 -1 5 -30 -3
-26 1 -55 8 -69 8 -14 26 -31 41 -38 20 -10 36 -10 67 -2 24 6 57 27 78 48 21
21 58 74 84 117 25 44 49 95 53 114 4 20 3 31 -2 28 -5 -3 -38 -54 -74 -113
-35 -59 -78 -117 -95 -130 -17 -13 -44 -27 -61 -30 -21 -4 -35 -1 -46 11 -10
9 -17 20 -17 25 0 5 24 29 54 55 30 25 66 61 80 79 14 18 28 44 31 58 4 17 1
31 -10 42 -9 9 -32 16 -53 16 -20 0 -50 -10 -69 -22 -23 -16 -55 -60 -100
-140 -36 -64 -73 -120 -81 -123 -9 -3 -25 3 -36 14 -18 19 -19 25 -8 98 7 43
12 90 12 104 0 15 -9 38 -21 53 -13 17 -30 26 -48 26 -16 0 -39 -10 -52 -23
-13 -12 -32 -33 -42 -47 l-17 -25 2 40 c2 30 -1 41 -13 43 -12 2 -18 -7 -22
-32 -3 -20 -31 -80 -61 -134 -31 -55 -62 -105 -71 -112 -12 -10 -16 -9 -21 5
-4 10 -2 74 5 142 7 68 10 127 7 130 -3 3 -12 3 -21 0 -8 -4 -15 -17 -15 -29
0 -13 -27 -71 -60 -129 -32 -58 -65 -111 -73 -117 -11 -10 -17 -9 -28 4 -11
14 -9 55 14 263 15 135 27 256 27 269 0 12 -6 22 -14 22 -8 0 -16 -14 -19 -32z
m851 -301 c2 -10 -20 -42 -59 -82 -34 -36 -64 -63 -67 -61 -2 3 1 28 8 55 7
30 24 64 41 82 19 20 36 29 51 27 13 -2 24 -11 26 -21z"/>
<path d="M6747 7179 c-9 -5 -23 -22 -31 -37 -8 -16 -19 -69 -25 -120 -5 -51
-12 -96 -15 -101 -3 -4 -34 -11 -68 -15 -35 -3 -80 -1 -100 4 -28 8 -45 7 -71
-4 -19 -7 -43 -27 -54 -42 -11 -16 -26 -46 -33 -68 -7 -21 -13 -68 -14 -103
-1 -57 2 -67 23 -84 13 -10 35 -19 49 -19 14 0 39 11 57 24 17 13 46 51 64 85
17 33 34 82 38 109 l5 49 52 10 c28 6 51 10 52 9 0 0 -12 -116 -28 -256 -15
-140 -27 -266 -25 -279 1 -14 7 -26 14 -28 7 -3 14 6 17 19 3 13 17 141 32
285 l27 262 90 3 c61 2 92 7 95 16 3 9 -19 12 -88 12 l-92 0 7 83 c4 45 12 98
19 117 10 33 14 35 59 38 39 3 48 6 45 20 -2 12 -15 18 -43 19 -22 2 -48 -2
-58 -8z m-236 -309 c14 -8 19 -21 19 -48 0 -20 -9 -55 -19 -78 -10 -22 -33
-57 -51 -77 -18 -20 -40 -37 -51 -37 -10 0 -23 10 -30 21 -7 14 -9 41 -5 71 4
28 14 68 23 89 8 22 25 46 36 54 12 8 30 15 40 15 10 0 27 -5 38 -10z"/>
<path d="M7060 7180 c0 -5 -7 -58 -15 -117 -9 -59 -18 -118 -20 -130 -4 -19
-12 -23 -41 -23 -24 0 -34 -4 -32 -12 3 -7 19 -14 36 -16 27 -3 31 -7 27 -25
-2 -12 -9 -59 -15 -105 -8 -61 -8 -92 0 -118 8 -23 19 -36 37 -40 14 -4 33 -3
41 3 8 5 37 47 64 94 l49 84 -7 -92 c-6 -79 -5 -93 8 -93 9 0 18 13 22 31 3
17 6 46 6 63 0 17 13 58 29 91 15 33 40 70 54 83 15 14 34 22 49 20 23 -3 23
-4 23 -129 0 -92 4 -130 14 -142 7 -9 23 -17 36 -17 12 0 29 8 37 18 8 9 29
43 47 75 18 31 34 57 36 57 1 0 1 -19 -2 -42 -2 -25 2 -54 9 -68 8 -14 26 -31
41 -38 20 -10 36 -10 67 -2 24 6 57 27 78 48 21 21 58 74 84 117 25 44 49 95
53 114 4 20 3 31 -2 28 -5 -3 -38 -54 -74 -113 -35 -59 -78 -117 -95 -130 -17
-13 -44 -27 -61 -30 -21 -4 -35 -1 -46 11 -10 9 -17 20 -17 25 0 5 24 29 54
55 30 25 66 61 80 79 14 18 28 44 31 58 4 17 1 31 -10 42 -9 9 -32 16 -53 16
-22 0 -50 -10 -73 -26 -26 -18 -55 -57 -98 -133 -33 -59 -66 -113 -74 -120
-11 -9 -17 -9 -22 -1 -4 6 -4 62 0 123 7 105 6 114 -15 140 -14 17 -31 27 -48
27 -15 0 -35 -7 -45 -15 -10 -7 -30 -28 -43 -46 -23 -32 -24 -32 -24 -8 0 13
7 85 15 159 8 74 15 145 15 158 0 13 -6 22 -15 22 -8 0 -17 -10 -19 -22 -3
-13 -12 -87 -20 -166 l-15 -143 -61 -108 c-33 -60 -67 -114 -74 -120 -10 -8
-17 -7 -26 5 -11 13 -11 34 -1 122 7 59 15 110 18 115 2 4 22 7 44 7 28 0 39
4 39 15 0 10 -10 15 -34 15 -19 0 -37 3 -39 8 -3 4 4 63 14 131 10 69 16 128
13 133 -3 4 -12 8 -20 8 -8 0 -14 -4 -14 -10z m648 -323 c2 -10 -20 -42 -59
-82 -34 -36 -64 -63 -67 -61 -2 3 1 28 8 55 7 30 24 64 41 82 19 20 36 29 51
27 13 -2 24 -11 26 -21z"/>
<path d="M10606 7168 c-3 -13 -12 -93 -21 -178 l-16 -155 -42 -53 c-23 -30
-50 -63 -59 -75 -10 -12 -18 -19 -18 -16 0 3 5 31 10 62 8 40 8 68 0 96 -6 22
-17 47 -26 56 -8 8 -27 15 -42 15 -18 0 -39 -14 -68 -45 l-42 -46 5 42 c5 36
4 41 -13 37 -11 -2 -21 -15 -25 -35 -3 -18 -32 -76 -62 -131 -31 -55 -63 -104
-70 -111 -11 -9 -17 -8 -27 4 -9 11 -11 36 -6 93 4 42 10 101 13 130 l6 52
-76 0 c-70 0 -77 -2 -105 -30 -17 -16 -37 -51 -46 -77 -9 -25 -16 -70 -16 -99
0 -29 4 -64 10 -79 5 -14 21 -30 35 -35 17 -6 33 -6 51 2 14 6 38 29 54 51
l29 39 11 -41 c8 -31 17 -42 37 -47 14 -4 33 -2 42 3 9 5 36 44 60 87 24 42
45 75 47 74 1 -2 -8 -100 -20 -218 -14 -124 -20 -219 -15 -225 6 -5 13 -5 19
1 5 5 14 54 20 109 6 55 13 115 16 133 5 31 6 32 54 32 27 0 61 5 77 10 15 6
61 46 101 88 l72 77 -6 -87 c-6 -75 -5 -88 8 -88 9 0 18 13 22 31 3 17 6 46 6
63 0 17 13 58 29 91 15 33 40 70 54 83 15 14 34 22 49 20 23 -3 23 -4 23 -129
0 -92 4 -130 14 -142 7 -9 23 -17 36 -17 12 0 29 8 37 18 8 9 41 63 72 118 31
56 56 112 56 124 0 11 -4 19 -9 16 -4 -3 -36 -54 -69 -114 -33 -60 -67 -114
-75 -121 -11 -9 -17 -9 -22 -1 -4 6 -4 62 0 123 7 105 6 114 -15 140 -14 17
-31 27 -48 27 -15 0 -35 -7 -45 -15 -10 -7 -30 -28 -43 -46 -23 -32 -24 -32
-24 -8 0 13 7 85 15 159 8 74 15 145 15 158 0 13 -6 22 -15 22 -8 0 -17 -10
-19 -22z m-550 -350 c-4 -37 -17 -80 -31 -103 -13 -22 -37 -53 -54 -70 -25
-23 -35 -27 -48 -19 -9 6 -21 24 -25 40 -5 16 -5 47 -2 69 4 22 15 57 25 77
10 20 29 44 41 52 12 9 40 16 62 16 l39 0 -7 -62z m364 43 c5 -11 10 -36 10
-56 0 -20 -5 -56 -11 -80 -6 -25 -22 -56 -35 -70 -19 -20 -32 -25 -73 -25
l-50 0 6 53 c3 28 15 70 26 92 10 22 30 55 44 73 15 20 33 32 48 32 14 0 29
-8 35 -19z"/>
<path d="M1803 7024 c-3 -8 -1 -20 5 -26 6 -6 18 -8 26 -5 9 4 16 16 16 27 0
13 -7 20 -20 20 -11 0 -23 -7 -27 -16z"/>
<path d="M2393 7024 c-3 -8 -1 -20 5 -26 6 -6 18 -8 26 -5 9 4 16 16 16 27 0
13 -7 20 -20 20 -11 0 -23 -7 -27 -16z"/>
<path d="M4173 7024 c-3 -8 -1 -20 5 -26 6 -6 18 -8 26 -5 9 4 16 16 16 27 0
13 -7 20 -20 20 -11 0 -23 -7 -27 -16z"/>
<path d="M5383 7024 c-3 -8 -1 -20 5 -26 6 -6 18 -8 26 -5 9 4 16 16 16 27 0
13 -7 20 -20 20 -11 0 -23 -7 -27 -16z"/>
<path d="M8074 6875 l-42 -46 5 42 c5 36 4 41 -13 37 -12 -2 -20 -13 -22 -28
-2 -14 -16 -144 -31 -290 -17 -153 -25 -269 -20 -274 6 -6 13 -6 19 0 5 5 14
54 20 109 6 55 13 115 16 133 5 31 6 32 54 32 27 0 61 5 77 10 15 6 61 46 101
88 l72 77 0 -57 c0 -31 4 -68 10 -83 5 -14 21 -30 35 -35 17 -6 33 -6 51 2 14
6 38 29 54 51 l29 39 11 -41 c8 -31 17 -42 37 -47 14 -4 33 -2 42 3 9 5 35 43
59 84 23 41 47 81 53 89 7 11 9 7 5 -15 -3 -16 -8 -61 -12 -98 -6 -64 -5 -69
12 -65 15 3 21 18 29 78 8 52 22 95 46 140 l34 65 55 -3 c30 -1 65 0 78 3 12
3 22 11 22 18 0 8 -14 13 -37 13 -21 0 -52 4 -70 8 -26 7 -36 4 -55 -15 -13
-13 -30 -35 -40 -49 -16 -25 -16 -25 -11 19 5 38 4 43 -13 39 -10 -2 -20 -11
-22 -21 -2 -10 -31 -67 -64 -125 -33 -59 -67 -115 -76 -124 -12 -15 -18 -16
-30 -6 -12 10 -13 28 -8 93 4 44 9 104 13 133 l6 52 -72 0 c-56 0 -78 -5 -104
-21 -17 -12 -63 -61 -102 -110 -38 -48 -71 -87 -72 -85 -2 1 2 28 7 59 8 40 8
68 0 96 -6 22 -17 47 -26 56 -8 8 -27 15 -42 15 -18 0 -39 -14 -68 -45z m96
-14 c5 -11 10 -36 10 -56 0 -20 -5 -56 -11 -80 -6 -25 -22 -56 -35 -70 -19
-20 -32 -25 -73 -25 l-50 0 6 53 c3 28 15 70 26 92 10 22 30 55 44 73 15 20
33 32 48 32 14 0 29 -8 35 -19z m336 -43 c-4 -37 -17 -80 -31 -103 -13 -22
-37 -53 -54 -70 -25 -23 -35 -27 -48 -19 -9 6 -21 24 -25 40 -5 16 -5 47 -2
69 4 22 15 57 25 77 10 20 29 44 41 52 12 9 40 16 62 16 l39 0 -7 -62z"/>
<path d="M9728 6899 c-13 -13 -30 -35 -40 -49 -16 -25 -16 -25 -11 19 5 38 4
43 -13 39 -16 -3 -21 -21 -36 -133 -9 -72 -17 -143 -17 -158 -1 -22 3 -28 16
-25 14 2 20 20 28 78 8 52 22 95 46 140 l34 65 55 -3 c30 -1 65 0 78 3 12 3
22 11 22 18 0 8 -14 13 -37 13 -21 0 -52 4 -70 8 -26 7 -36 4 -55 -15z"/>
<path d="M2385 6898 c-2 -7 -9 -68 -15 -136 -11 -109 -10 -125 4 -147 10 -15
26 -25 40 -25 12 0 30 8 38 18 9 9 34 52 58 95 23 42 45 77 50 77 4 0 33 -16
64 -36 30 -20 58 -45 62 -56 3 -10 -2 -30 -10 -43 -10 -14 -26 -25 -39 -25
-12 0 -40 9 -61 21 -29 15 -41 18 -50 9 -8 -8 -5 -16 12 -31 13 -10 41 -23 63
-29 29 -8 46 -7 71 3 27 12 44 34 96 129 34 63 65 130 68 149 5 33 5 33 -11
14 -9 -11 -34 -55 -56 -97 -22 -43 -41 -78 -44 -78 -2 0 -15 10 -27 23 -13 12
-45 37 -71 54 -30 21 -47 40 -47 53 0 12 10 25 25 32 19 8 35 8 61 0 29 -9 36
-8 41 5 3 8 0 19 -8 24 -8 5 -36 9 -62 9 -38 0 -53 -5 -72 -25 -14 -13 -25
-33 -25 -45 0 -11 -22 -60 -50 -109 -27 -49 -57 -94 -65 -101 -12 -10 -16 -9
-22 5 -3 10 -1 69 5 130 7 62 12 120 12 129 0 9 -7 16 -15 16 -9 0 -17 -6 -20
-12z"/>
<path d="M8992 6880 c-17 -16 -37 -51 -46 -77 -9 -25 -16 -70 -16 -99 0 -29 4
-64 10 -79 5 -14 21 -30 35 -35 17 -6 33 -6 51 2 14 6 38 29 54 51 l29 39 11
-41 c8 -31 17 -42 37 -47 14 -4 33 -2 42 3 9 5 35 43 58 84 l43 74 0 -53 c0
-29 7 -66 15 -81 8 -16 24 -31 36 -34 13 -3 34 1 49 9 14 9 36 31 49 50 13 19
26 32 28 30 3 -3 0 -52 -6 -110 -7 -58 -17 -120 -23 -138 -6 -18 -18 -41 -26
-50 -8 -10 -31 -21 -50 -24 -20 -4 -49 -2 -66 4 -20 8 -34 8 -40 2 -7 -7 -4
-16 7 -27 11 -12 34 -17 70 -17 30 -1 66 5 80 13 15 8 36 34 48 57 15 31 26
91 39 206 10 90 21 198 25 241 l7 77 -74 0 c-64 0 -79 -3 -99 -22 -14 -13 -29
-23 -34 -24 -6 -1 -37 -49 -70 -106 -33 -58 -66 -113 -74 -122 -11 -13 -17
-14 -29 -4 -12 10 -13 28 -8 93 4 44 9 104 13 133 l6 52 -76 0 c-70 0 -77 -2
-105 -30z m134 -62 c-4 -37 -17 -80 -31 -103 -13 -22 -37 -53 -54 -70 -25 -23
-35 -27 -48 -19 -9 6 -21 24 -25 40 -5 16 -5 47 -2 69 4 22 15 57 25 77 10 20
29 44 41 52 12 9 40 16 62 16 l39 0 -7 -62z m371 7 c-3 -35 -17 -75 -36 -108
-16 -29 -42 -63 -56 -77 -20 -19 -30 -22 -42 -14 -10 6 -21 24 -25 40 -5 16
-4 50 2 77 5 26 17 61 25 77 8 16 25 36 37 44 12 9 40 16 62 16 l39 0 -6 -55z"/>
<path d="M10920 6635 c-7 -8 -10 -22 -6 -31 3 -9 15 -14 28 -12 13 2 24 11 26
22 2 10 -2 22 -10 27 -7 5 -16 9 -19 9 -4 0 -12 -7 -19 -15z"/>
<path d="M1047 6334 c-4 -4 -4 -11 -1 -15 3 -5 36 -9 75 -9 l69 0 0 -29 c0
-16 -11 -136 -25 -267 -14 -131 -25 -246 -25 -256 0 -10 7 -18 15 -18 8 0 17
10 20 23 3 12 16 135 30 272 14 138 27 256 30 263 3 8 28 12 80 12 60 0 75 3
75 15 0 13 -25 15 -168 15 -93 0 -172 -3 -175 -6z"/>
<path d="M1456 6318 c-3 -13 -17 -134 -31 -269 -14 -135 -25 -260 -25 -277 0
-21 5 -32 14 -32 7 0 16 14 20 31 3 17 6 46 6 63 0 17 13 58 29 91 15 33 40
70 54 83 15 14 34 22 49 20 23 -3 23 -4 23 -129 0 -92 4 -130 14 -142 7 -9 23
-17 36 -17 12 0 29 8 37 18 9 9 34 52 58 95 23 42 44 77 47 77 3 0 2 -32 -2
-70 -6 -57 -4 -75 9 -95 10 -15 26 -25 40 -25 12 0 30 8 38 18 9 9 34 52 58
95 23 42 45 77 50 77 4 0 33 -16 64 -36 30 -20 58 -45 62 -56 3 -10 -2 -30
-10 -43 -10 -14 -26 -25 -39 -25 -12 0 -40 9 -61 21 -29 15 -41 18 -50 9 -8
-8 -5 -16 12 -31 13 -10 41 -23 63 -29 29 -8 46 -7 71 3 27 12 44 34 96 129
34 63 65 130 68 149 5 33 5 33 -11 14 -9 -11 -34 -55 -56 -97 -22 -43 -41 -78
-44 -78 -2 0 -15 10 -27 23 -13 12 -45 37 -71 54 -30 21 -47 40 -47 53 0 12
10 25 25 32 19 8 35 8 61 0 29 -9 36 -8 41 5 3 8 0 19 -8 24 -8 5 -36 9 -62 9
-38 0 -53 -5 -72 -25 -14 -13 -25 -33 -25 -45 0 -11 -22 -60 -50 -109 -27 -49
-57 -94 -65 -101 -12 -10 -16 -9 -21 5 -4 10 -2 74 5 142 7 68 10 127 7 130
-3 3 -12 3 -21 0 -8 -4 -15 -13 -15 -21 0 -8 -28 -63 -61 -123 -34 -59 -68
-116 -76 -125 -9 -10 -20 -15 -25 -12 -6 4 -7 51 -3 123 6 109 6 118 -15 144
-14 18 -31 27 -48 27 -15 0 -35 -7 -45 -15 -10 -7 -30 -28 -43 -46 -23 -32
-24 -32 -24 -8 0 13 7 85 15 159 8 74 15 145 15 158 0 13 -6 22 -15 22 -8 0
-17 -10 -19 -22z"/>
<path d="M3020 6330 c0 -5 -7 -58 -15 -117 -9 -59 -18 -118 -20 -130 -4 -19
-12 -23 -41 -23 -24 0 -34 -4 -32 -12 3 -7 19 -14 36 -16 27 -3 31 -7 27 -25
-2 -12 -9 -59 -15 -105 -8 -61 -8 -92 0 -118 8 -23 19 -36 37 -40 14 -4 33 -3
41 3 8 5 37 47 64 94 l49 84 -7 -92 c-6 -79 -5 -93 8 -93 9 0 18 13 22 31 3
17 6 46 6 63 0 17 13 58 29 91 15 33 40 70 54 83 15 14 34 22 49 20 23 -3 23
-4 23 -129 0 -92 4 -130 14 -142 7 -9 23 -17 36 -17 12 0 29 8 37 18 8 9 29
43 47 75 18 31 34 57 36 57 1 0 1 -19 -2 -42 -2 -25 2 -54 9 -68 8 -14 26 -31
41 -38 20 -10 36 -10 67 -2 24 6 57 27 78 48 21 21 58 74 84 117 25 44 49 95
53 114 4 20 3 31 -2 28 -5 -3 -38 -54 -74 -113 -35 -59 -78 -117 -95 -130 -17
-13 -44 -27 -61 -30 -21 -4 -35 -1 -46 11 -10 9 -17 20 -17 25 0 5 24 29 54
55 30 25 66 61 80 79 14 18 28 44 31 58 4 17 1 31 -10 42 -9 9 -32 16 -53 16
-22 0 -50 -10 -73 -26 -26 -18 -55 -57 -98 -133 -33 -59 -66 -113 -74 -120
-11 -9 -17 -9 -22 -1 -4 6 -4 62 0 123 7 105 6 114 -15 140 -14 17 -31 27 -48
27 -15 0 -35 -7 -45 -15 -10 -7 -30 -28 -43 -46 -23 -32 -24 -32 -24 -8 0 13
7 85 15 159 8 74 15 145 15 158 0 13 -6 22 -15 22 -8 0 -17 -10 -19 -22 -3
-13 -12 -87 -20 -166 l-15 -143 -61 -108 c-33 -60 -67 -114 -74 -120 -10 -8
-17 -7 -26 5 -11 13 -11 34 -1 122 7 59 15 110 18 115 2 4 22 7 44 7 28 0 39
4 39 15 0 10 -10 15 -34 15 -19 0 -37 3 -39 8 -3 4 4 63 14 131 10 69 16 128
13 133 -3 4 -12 8 -20 8 -8 0 -14 -4 -14 -10z m648 -323 c2 -10 -20 -42 -59
-82 -34 -36 -64 -63 -67 -61 -2 3 1 28 8 55 7 30 24 64 41 82 19 20 36 29 51
27 13 -2 24 -11 26 -21z"/>
<path d="M5709 6338 c-1 -2 -9 -64 -18 -138 l-16 -135 -57 -3 c-43 -2 -62 -9
-83 -28 -14 -13 -30 -22 -35 -19 -5 3 -39 -49 -76 -114 -37 -66 -74 -123 -82
-126 -9 -3 -25 3 -36 14 -18 19 -19 25 -8 98 7 43 12 90 12 104 0 15 -9 38
-21 53 -13 17 -30 26 -48 26 -16 0 -39 -10 -52 -23 -13 -12 -32 -33 -42 -47
l-17 -25 2 40 3 39 -105 3 c-58 1 -118 3 -133 4 -16 1 -41 -8 -57 -19 -24 -18
-29 -19 -32 -6 -2 8 -28 -27 -58 -78 -30 -51 -72 -112 -93 -135 -21 -23 -51
-45 -67 -48 -16 -3 -38 -2 -49 4 -10 6 -22 24 -26 40 -4 17 1 58 9 93 12 46
25 71 47 91 26 24 37 28 64 23 23 -5 34 -2 38 8 3 8 3 17 0 20 -4 3 -27 6 -52
6 -26 0 -56 -7 -68 -15 -16 -11 -22 -12 -26 -2 -2 6 -17 -10 -33 -37 -16 -26
-51 -82 -79 -124 -35 -53 -61 -82 -88 -95 -22 -11 -47 -17 -61 -13 -13 3 -27
13 -30 22 -5 12 14 37 68 89 41 39 80 83 85 99 6 15 11 31 11 36 0 5 -7 16
-16 24 -8 9 -32 16 -52 16 -21 0 -48 -7 -60 -16 -17 -12 -22 -12 -22 -2 -1 8
-7 5 -16 -7 -9 -11 -33 -55 -55 -97 -22 -43 -41 -78 -44 -78 -2 0 -15 10 -27
23 -13 12 -45 37 -71 54 -30 21 -47 40 -47 53 0 12 10 25 25 32 19 8 35 8 61
0 29 -9 36 -8 41 5 3 8 0 19 -8 24 -8 5 -36 9 -62 9 -38 0 -53 -5 -72 -25 -14
-13 -25 -35 -25 -48 0 -13 10 -33 21 -46 12 -12 43 -36 70 -52 26 -17 51 -39
54 -50 4 -11 0 -30 -9 -44 -10 -14 -26 -25 -39 -25 -12 0 -40 9 -61 21 -29 15
-41 18 -50 9 -8 -8 -5 -16 12 -31 13 -10 41 -23 63 -29 29 -8 46 -7 72 3 26
11 42 31 71 86 20 39 38 71 39 71 2 0 3 -27 2 -60 0 -49 4 -63 23 -82 16 -17
33 -22 62 -22 25 1 55 11 79 27 21 14 57 54 80 89 l41 63 0 -63 c0 -35 4 -72
10 -82 5 -10 24 -23 41 -29 22 -8 43 -8 69 -1 20 5 49 21 63 34 15 14 44 52
66 86 l39 61 -1 -72 c-2 -63 0 -73 22 -90 13 -10 35 -19 49 -19 14 0 39 11 57
24 17 13 46 51 64 85 17 33 34 82 38 109 l5 49 48 9 48 10 -4 -30 c-2 -17 -8
-71 -14 -121 -5 -49 -10 -100 -10 -112 0 -14 6 -23 15 -23 8 0 17 10 19 23 3
12 7 43 10 70 3 26 15 66 27 90 12 23 32 57 46 75 15 21 33 32 48 32 18 0 26
-7 31 -27 4 -15 2 -63 -4 -105 -8 -55 -8 -86 -1 -108 6 -17 19 -35 29 -40 10
-6 30 -10 44 -10 15 0 33 11 46 28 12 15 37 54 56 87 l33 60 1 -57 c0 -31 4
-68 10 -83 5 -14 21 -30 35 -35 17 -6 33 -6 51 2 14 6 38 29 54 51 l29 39 11
-41 c8 -31 17 -42 37 -47 14 -4 33 -2 42 3 9 5 44 59 78 119 34 60 63 119 63
132 0 13 -4 21 -9 18 -5 -4 -37 -55 -70 -114 -33 -60 -66 -114 -74 -121 -11
-9 -17 -8 -28 5 -11 13 -9 53 10 237 12 122 25 243 28 270 5 39 3 47 -11 47
-9 0 -17 -1 -17 -2z m-1351 -331 c2 -10 -20 -42 -59 -82 -34 -36 -64 -63 -67
-61 -2 3 1 28 8 55 7 30 24 64 41 82 19 20 36 29 51 27 13 -2 24 -11 26 -21z
m583 13 c14 -8 19 -21 19 -48 0 -20 -9 -55 -19 -78 -10 -22 -33 -57 -51 -77
-18 -20 -40 -37 -51 -37 -10 0 -23 10 -30 21 -7 14 -9 41 -5 71 4 28 14 68 23
89 8 22 25 46 36 54 12 8 30 15 40 15 10 0 27 -5 38 -10z m725 -52 c-4 -37
-17 -80 -31 -103 -13 -22 -37 -53 -54 -70 -25 -23 -35 -27 -49 -19 -9 6 -21
27 -25 47 -6 25 -4 52 8 93 9 33 28 69 45 85 22 23 38 29 71 29 l42 0 -7 -62z"/>
<path d="M6037 6308 c-4 -18 -18 -139 -33 -268 -19 -178 -23 -242 -15 -262 6
-17 21 -30 37 -34 15 -4 34 -2 43 3 9 5 34 42 57 81 22 40 44 75 48 79 4 5 4
-20 1 -54 -6 -50 -4 -68 9 -88 10 -15 26 -25 40 -25 12 0 30 8 38 18 8 9 32
46 52 82 l37 65 -6 -82 c-6 -72 -5 -83 9 -83 8 0 18 10 20 23 3 12 7 43 10 70
3 26 15 66 27 90 12 23 32 57 46 75 15 21 33 32 48 32 18 0 26 -7 31 -27 4
-15 2 -63 -4 -105 -8 -55 -8 -86 -1 -108 6 -17 19 -35 29 -40 10 -6 29 -10 43
-10 13 0 33 10 44 23 11 12 30 40 41 62 12 22 25 46 31 54 6 9 7 -1 5 -30 -3
-26 1 -55 8 -69 8 -14 26 -31 41 -38 20 -10 36 -10 67 -2 24 6 57 27 78 48 21
21 58 74 84 117 25 44 49 95 53 114 4 20 3 31 -2 28 -5 -3 -38 -54 -74 -113
-35 -59 -78 -117 -95 -130 -17 -13 -44 -27 -61 -30 -21 -4 -35 -1 -46 11 -10
9 -17 20 -17 25 0 5 24 29 54 55 30 25 66 61 80 79 14 18 28 44 31 58 4 17 1
31 -10 42 -9 9 -32 16 -53 16 -20 0 -50 -10 -69 -22 -23 -16 -55 -60 -100
-140 -36 -64 -73 -120 -81 -123 -9 -3 -25 3 -36 14 -18 19 -19 25 -8 98 7 43
12 90 12 104 0 15 -9 38 -21 53 -13 17 -30 26 -48 26 -16 0 -39 -10 -52 -23
-13 -12 -32 -33 -42 -47 l-17 -25 2 40 c2 30 -1 41 -13 43 -12 2 -18 -7 -22
-32 -3 -20 -31 -80 -61 -134 -31 -55 -62 -105 -71 -112 -12 -10 -16 -9 -21 5
-4 10 -2 74 5 142 7 68 10 127 7 130 -3 3 -12 3 -21 0 -8 -4 -15 -17 -15 -29
0 -13 -27 -71 -60 -129 -32 -58 -65 -111 -73 -117 -11 -10 -17 -9 -28 4 -11
14 -9 55 14 263 15 135 27 256 27 269 0 12 -6 22 -14 22 -8 0 -16 -14 -19 -32z
m851 -301 c2 -10 -20 -42 -59 -82 -34 -36 -64 -63 -67 -61 -2 3 1 28 8 55 7
30 24 64 41 82 19 20 36 29 51 27 13 -2 24 -11 26 -21z"/>
<path d="M1813 6174 c-3 -8 -1 -20 5 -26 6 -6 18 -8 26 -5 9 4 16 16 16 27 0
13 -7 20 -20 20 -11 0 -23 -7 -27 -16z"/>
<path d="M2403 6174 c-3 -8 -1 -20 5 -26 6 -6 18 -8 26 -5 9 4 16 16 16 27 0
13 -7 20 -20 20 -11 0 -23 -7 -27 -16z"/>
<path d="M6203 6174 c-3 -8 -1 -20 5 -26 6 -6 18 -8 26 -5 9 4 16 16 16 27 0
13 -7 20 -20 20 -11 0 -23 -7 -27 -16z"/>
<path d="M2395 6048 c-2 -7 -9 -68 -15 -136 -11 -109 -10 -125 4 -147 10 -15
26 -25 40 -25 12 0 30 8 38 18 9 9 34 52 58 95 23 42 45 77 50 77 4 0 33 -16
64 -36 30 -20 58 -45 62 -56 3 -10 -2 -30 -10 -43 -10 -14 -26 -25 -39 -25
-12 0 -40 9 -61 21 -29 15 -41 18 -50 9 -8 -8 -5 -16 12 -31 13 -10 41 -23 63
-29 29 -8 46 -7 71 3 27 12 44 34 96 129 34 63 65 130 68 149 5 33 5 33 -11
14 -9 -11 -34 -55 -56 -97 -22 -43 -41 -78 -44 -78 -2 0 -15 10 -27 23 -13 12
-45 37 -71 54 -30 21 -47 40 -47 53 0 12 10 25 25 32 19 8 35 8 61 0 29 -9 36
-8 41 5 3 8 0 19 -8 24 -8 5 -36 9 -62 9 -38 0 -53 -5 -72 -25 -14 -13 -25
-33 -25 -45 0 -11 -22 -60 -50 -109 -27 -49 -57 -94 -65 -101 -12 -10 -16 -9
-22 5 -3 10 -1 69 5 130 7 62 12 120 12 129 0 9 -7 16 -15 16 -9 0 -17 -6 -20
-12z"/>
<path d="M7000 5785 c-7 -8 -10 -22 -6 -31 3 -9 15 -14 28 -12 13 2 24 11 26
22 2 10 -2 22 -10 27 -7 5 -16 9 -19 9 -4 0 -12 -7 -19 -15z"/>
<path d="M1237 5483 c-3 -5 -62 -136 -131 -292 -86 -194 -123 -288 -116 -295
6 -6 13 -7 20 0 5 5 38 75 73 154 l64 145 69 0 69 0 22 -150 c12 -82 22 -151
22 -152 1 -2 8 -3 16 -3 9 0 15 9 15 25 0 14 -18 144 -40 288 -22 144 -42 268
-45 275 -2 6 -11 12 -19 12 -8 0 -17 -3 -19 -7z m27 -128 c4 -36 9 -79 13 -95
l6 -30 -61 0 -60 0 41 95 c22 52 43 95 47 95 4 0 10 -29 14 -65z"/>
<path d="M2079 5488 c-1 -2 -9 -64 -18 -138 l-16 -135 -57 -3 c-43 -2 -62 -9
-83 -28 -14 -13 -30 -22 -35 -19 -5 3 -39 -49 -76 -114 -37 -66 -74 -123 -82
-126 -9 -3 -25 3 -36 14 -18 19 -19 25 -8 98 7 43 12 90 12 104 0 15 -9 38
-21 53 -13 17 -30 26 -48 26 -16 0 -39 -10 -52 -23 -13 -12 -32 -33 -42 -47
l-17 -25 2 40 c2 31 -1 40 -15 43 -9 2 -17 0 -17 -5 0 -4 -7 -66 -15 -138 -8
-71 -15 -140 -15 -152 0 -14 6 -23 15 -23 8 0 17 10 19 23 3 12 7 43 10 70 3
26 15 66 27 90 12 23 32 57 46 75 15 21 33 32 48 32 18 0 26 -7 31 -27 4 -15
2 -63 -4 -105 -8 -55 -8 -86 -1 -108 6 -17 19 -35 29 -40 10 -6 30 -10 44 -10
15 0 33 11 46 28 12 15 37 54 56 87 l33 60 1 -57 c0 -31 4 -68 10 -83 5 -14
21 -30 35 -35 17 -6 33 -6 51 2 14 6 38 29 54 51 l29 39 11 -41 c8 -31 17 -42
37 -47 14 -4 33 -2 42 3 9 5 44 59 78 119 34 60 63 119 63 132 0 13 -4 21 -9
18 -5 -4 -37 -55 -70 -114 -33 -60 -66 -114 -74 -121 -11 -9 -17 -8 -28 5 -11
13 -9 53 10 237 12 122 25 243 28 270 5 39 3 47 -11 47 -9 0 -17 -1 -17 -2z
m-43 -370 c-4 -37 -17 -80 -31 -103 -13 -22 -37 -53 -54 -70 -25 -23 -35 -27
-49 -19 -9 6 -21 27 -25 47 -6 25 -4 52 8 93 9 33 28 69 45 85 22 23 38 29 71
29 l42 0 -7 -62z"/>
<path d="M2420 5480 c0 -5 -7 -58 -15 -117 -9 -59 -18 -118 -20 -130 -4 -19
-12 -23 -41 -23 -24 0 -34 -4 -32 -12 3 -7 19 -14 36 -16 27 -3 31 -7 27 -25
-2 -12 -9 -59 -15 -105 -8 -61 -8 -92 0 -118 8 -23 19 -36 37 -40 14 -4 33 -3
41 3 8 5 37 47 64 94 l49 84 -7 -92 c-6 -79 -5 -93 8 -93 9 0 18 13 22 31 3
17 6 46 6 63 0 17 13 58 29 91 15 33 40 70 54 83 15 14 34 22 49 20 23 -3 23
-4 23 -129 0 -92 4 -130 14 -142 7 -9 23 -17 36 -17 12 0 29 8 37 18 9 9 34
52 58 95 23 42 44 77 47 77 3 0 2 -32 -2 -70 -6 -57 -4 -75 9 -95 10 -15 26
-25 40 -25 12 0 30 8 38 18 9 9 34 52 58 95 23 42 45 77 50 77 4 0 33 -16 64
-36 30 -20 58 -45 62 -56 3 -10 -2 -30 -10 -43 -10 -14 -26 -25 -39 -25 -12 0
-40 9 -61 21 -29 15 -41 18 -50 9 -8 -8 -5 -16 12 -31 13 -10 41 -23 63 -29
29 -8 46 -7 71 3 27 12 44 34 96 129 34 63 65 130 68 149 5 33 5 33 -11 14 -9
-11 -34 -55 -56 -97 -22 -43 -41 -78 -44 -78 -2 0 -15 10 -27 23 -13 12 -45
37 -71 54 -30 21 -47 40 -47 53 0 12 10 25 25 32 19 8 35 8 61 0 29 -9 36 -8
41 5 3 8 0 19 -8 24 -8 5 -36 9 -62 9 -38 0 -53 -5 -72 -25 -14 -13 -25 -33
-25 -45 0 -11 -22 -60 -50 -109 -27 -49 -57 -94 -65 -101 -12 -10 -16 -9 -21
5 -4 10 -2 74 5 142 7 68 10 127 7 130 -3 3 -12 3 -21 0 -8 -4 -15 -13 -15
-21 0 -8 -28 -63 -61 -123 -34 -59 -68 -116 -76 -125 -9 -10 -20 -15 -25 -12
-6 4 -7 51 -3 123 6 109 6 118 -15 144 -14 18 -31 27 -48 27 -15 0 -35 -7 -45
-15 -10 -7 -30 -28 -43 -46 -23 -32 -24 -32 -24 -8 0 13 7 85 15 159 8 74 15
145 15 158 0 13 -6 22 -15 22 -8 0 -17 -10 -19 -22 -3 -13 -12 -87 -20 -166
l-15 -143 -61 -108 c-33 -60 -67 -114 -74 -120 -10 -8 -17 -7 -26 5 -11 13
-11 34 -1 122 7 59 15 110 18 115 2 4 22 7 44 7 28 0 39 4 39 15 0 10 -10 15
-34 15 -19 0 -37 3 -39 8 -3 4 4 63 14 131 10 69 16 128 13 133 -3 4 -12 8
-20 8 -8 0 -14 -4 -14 -10z"/>
<path d="M4160 5480 c0 -5 -7 -58 -15 -117 -9 -59 -18 -118 -20 -130 -4 -19
-12 -23 -41 -23 -24 0 -34 -4 -32 -12 3 -7 19 -14 36 -16 27 -3 31 -7 27 -25
-2 -12 -9 -59 -15 -105 -8 -61 -8 -92 0 -118 8 -23 19 -36 37 -40 14 -4 33 -3
41 3 8 5 37 47 64 94 l49 84 -7 -92 c-6 -79 -5 -93 8 -93 9 0 18 13 22 31 3
17 6 46 6 63 0 17 13 58 29 91 15 33 40 70 54 83 15 14 34 22 49 20 23 -3 23
-4 23 -129 0 -92 4 -130 14 -142 7 -9 23 -17 36 -17 12 0 29 8 37 18 8 9 29
43 47 75 18 31 34 57 36 57 1 0 1 -19 -2 -42 -2 -25 2 -54 9 -68 8 -14 26 -31
41 -38 20 -10 36 -10 67 -2 24 6 57 27 78 48 21 21 58 74 84 117 25 44 49 95
53 114 4 20 3 31 -2 28 -5 -3 -38 -54 -74 -113 -35 -59 -78 -117 -95 -130 -17
-13 -44 -27 -61 -30 -21 -4 -35 -1 -46 11 -10 9 -17 20 -17 25 0 5 24 29 54
55 30 25 66 61 80 79 14 18 28 44 31 58 4 17 1 31 -10 42 -9 9 -32 16 -53 16
-22 0 -50 -10 -73 -26 -26 -18 -55 -57 -98 -133 -33 -59 -66 -113 -74 -120
-11 -9 -17 -9 -22 -1 -4 6 -4 62 0 123 7 105 6 114 -15 140 -14 17 -31 27 -48
27 -15 0 -35 -7 -45 -15 -10 -7 -30 -28 -43 -46 -23 -32 -24 -32 -24 -8 0 13
7 85 15 159 8 74 15 145 15 158 0 13 -6 22 -15 22 -8 0 -17 -10 -19 -22 -3
-13 -12 -87 -20 -166 l-15 -143 -61 -108 c-33 -60 -67 -114 -74 -120 -10 -8
-17 -7 -26 5 -11 13 -11 34 -1 122 7 59 15 110 18 115 2 4 22 7 44 7 28 0 39
4 39 15 0 10 -10 15 -34 15 -19 0 -37 3 -39 8 -3 4 4 63 14 131 10 69 16 128
13 133 -3 4 -12 8 -20 8 -8 0 -14 -4 -14 -10z m648 -323 c2 -10 -20 -42 -59
-82 -34 -36 -64 -63 -67 -61 -2 3 1 28 8 55 7 30 24 64 41 82 19 20 36 29 51
27 13 -2 24 -11 26 -21z"/>
<path d="M5140 5480 c0 -5 -7 -58 -15 -117 -9 -59 -18 -118 -20 -130 -4 -19
-12 -23 -41 -23 -24 0 -34 -4 -32 -12 3 -7 19 -14 36 -16 27 -3 31 -7 27 -25
-2 -12 -9 -59 -15 -105 -8 -61 -8 -92 0 -118 8 -23 19 -36 37 -40 14 -4 33 -3
41 3 8 5 37 47 64 94 l49 84 -7 -92 c-6 -79 -5 -93 8 -93 9 0 18 13 22 31 3
17 6 46 6 63 0 17 13 58 29 91 15 33 40 70 54 83 15 14 34 22 49 20 23 -3 23
-4 23 -129 0 -92 4 -130 14 -142 7 -9 23 -17 36 -17 12 0 29 8 37 18 9 9 34
52 58 95 23 42 44 77 47 77 3 0 2 -32 -2 -70 -6 -57 -4 -75 9 -95 10 -15 26
-25 40 -25 12 0 30 8 38 18 8 9 32 47 52 85 21 37 39 67 40 67 1 0 -2 -36 -7
-81 -5 -44 -7 -83 -3 -86 3 -3 12 -3 19 0 10 4 17 29 22 74 5 50 16 87 43 138
l37 70 55 -3 c30 -1 65 0 78 3 12 3 22 11 22 18 0 8 -14 13 -37 13 -21 0 -52
4 -70 8 -26 7 -36 4 -55 -15 -13 -13 -30 -35 -40 -49 -16 -25 -16 -25 -11 19
5 38 4 43 -13 39 -11 -2 -21 -15 -24 -34 -4 -16 -32 -75 -63 -131 -31 -55 -63
-106 -72 -113 -12 -10 -16 -9 -21 5 -4 10 -2 74 5 142 7 68 10 127 7 130 -3 3
-12 3 -21 0 -8 -4 -15 -13 -15 -21 0 -8 -28 -63 -61 -123 -34 -59 -68 -116
-76 -125 -9 -10 -20 -15 -25 -12 -6 4 -7 51 -3 123 6 109 6 118 -15 144 -14
18 -31 27 -48 27 -15 0 -35 -7 -45 -15 -10 -7 -30 -28 -43 -46 -23 -32 -24
-32 -24 -8 0 13 7 85 15 159 8 74 15 145 15 158 0 13 -6 22 -15 22 -8 0 -17
-10 -19 -22 -3 -13 -12 -87 -20 -166 l-15 -143 -61 -108 c-33 -60 -67 -114
-74 -120 -10 -8 -17 -7 -26 5 -11 13 -11 34 -1 122 7 59 15 110 18 115 2 4 22
7 44 7 28 0 39 4 39 15 0 10 -10 15 -34 15 -19 0 -37 3 -39 8 -3 4 4 63 14
131 10 69 16 128 13 133 -3 4 -12 8 -20 8 -8 0 -14 -4 -14 -10z"/>
<path d="M6299 5488 c-1 -2 -9 -64 -18 -138 l-16 -135 -57 -3 c-48 -2 -62 -8
-87 -32 -16 -16 -36 -51 -45 -77 -9 -25 -16 -70 -16 -99 0 -29 4 -64 10 -79 5
-14 21 -30 35 -35 17 -6 33 -6 51 2 14 6 38 29 54 51 l29 39 11 -41 c8 -31 17
-42 37 -47 14 -4 33 -2 42 3 9 5 44 59 78 119 34 60 63 119 63 132 0 13 -4 21
-9 18 -5 -4 -37 -55 -70 -114 -33 -60 -66 -114 -74 -121 -11 -9 -17 -8 -28 5
-11 13 -9 53 10 237 12 122 25 243 28 270 5 39 3 47 -11 47 -9 0 -17 -1 -17
-2z m-43 -370 c-4 -37 -17 -80 -31 -103 -13 -22 -37 -53 -54 -70 -25 -23 -35
-27 -49 -19 -9 6 -21 27 -25 47 -6 25 -4 52 8 93 9 33 28 69 45 85 22 23 38
29 71 29 l42 0 -7 -62z"/>
<path d="M2953 5324 c-3 -8 -1 -20 5 -26 6 -6 18 -8 26 -5 9 4 16 16 16 27 0
13 -7 20 -20 20 -11 0 -23 -7 -27 -16z"/>
<path d="M3543 5324 c-3 -8 -1 -20 5 -26 6 -6 18 -8 26 -5 9 4 16 16 16 27 0
13 -7 20 -20 20 -11 0 -23 -7 -27 -16z"/>
<path d="M5673 5324 c-3 -8 -1 -20 5 -26 6 -6 18 -8 26 -5 9 4 16 16 16 27 0
13 -7 20 -20 20 -11 0 -23 -7 -27 -16z"/>
<path d="M3535 5198 c-2 -7 -9 -68 -15 -136 -11 -109 -10 -125 4 -147 10 -15
26 -25 40 -25 12 0 30 8 38 18 9 9 34 52 58 95 23 42 45 77 50 77 4 0 33 -16
64 -36 30 -20 58 -45 62 -56 3 -10 -2 -30 -10 -43 -10 -14 -26 -25 -39 -25
-12 0 -40 9 -61 21 -29 15 -41 18 -50 9 -8 -8 -5 -16 12 -31 13 -10 41 -23 63
-29 29 -8 46 -7 71 3 27 12 44 34 96 129 34 63 65 130 68 149 5 33 5 33 -11
14 -9 -11 -34 -55 -56 -97 -22 -43 -41 -78 -44 -78 -2 0 -15 10 -27 23 -13 12
-45 37 -71 54 -30 21 -47 40 -47 53 0 12 10 25 25 32 19 8 35 8 61 0 29 -9 36
-8 41 5 3 8 0 19 -8 24 -8 5 -36 9 -62 9 -38 0 -53 -5 -72 -25 -14 -13 -25
-33 -25 -45 0 -11 -22 -60 -50 -109 -27 -49 -57 -94 -65 -101 -12 -10 -16 -9
-22 5 -3 10 -1 69 5 130 7 62 12 120 12 129 0 9 -7 16 -15 16 -9 0 -17 -6 -20
-12z"/>
<path d="M6420 4935 c-7 -8 -10 -22 -6 -31 3 -9 15 -14 28 -12 13 2 24 11 26
22 2 10 -2 22 -10 27 -7 5 -16 9 -19 9 -4 0 -12 -7 -19 -15z"/>
</g>
</svg>
