<?xml version="1.0" standalone="no"?>
<!DOCTYPE svg PUBLIC "-//W3C//DTD SVG 20010904//EN"
 "http://www.w3.org/TR/2001/REC-SVG-20010904/DTD/svg10.dtd">
<svg version="1.0" xmlns="http://www.w3.org/2000/svg"
 width="800.000000pt" height="800.000000pt" viewBox="0 0 800.000000 800.000000"
 preserveAspectRatio="xMidYMid meet">
<metadata>
Created by potrace 1.16, written by Peter Selinger 2001-2019
</metadata>
<g transform="translate(0.000000,800.000000) scale(0.100000,-0.100000)"
fill="#000000" stroke="none">
<path d="M548 6718 c-40 -14 -39 -54 2 -63 16 -4 32 -11 35 -16 7 -10 -11
-1025 -21 -1281 l-7 -158 -53 0 -54 0 0 74 0 74 -50 11 c-28 6 -91 11 -141 11
-87 0 -90 -1 -99 -26 -6 -14 -10 -52 -10 -84 l0 -59 -77 -4 -78 -3 83 -2 82
-2 0 68 c0 103 4 106 136 100 60 -3 117 -9 127 -13 14 -6 17 -20 17 -81 l0
-74 64 0 63 0 7 178 c6 158 25 1080 26 1224 0 56 0 57 -35 68 -76 25 -23 60
90 60 117 0 164 -35 89 -66 l-37 -15 7 -97 c3 -53 11 -223 16 -377 14 -395 29
-574 49 -584 9 -5 56 -14 104 -21 48 -8 95 -19 105 -26 14 -10 17 -34 20 -156
4 -210 -20 -187 194 -190 l181 -3 88 -285 c82 -266 88 -291 87 -370 0 -47 -1
-191 -2 -320 l-2 -235 7 235 c9 317 9 421 -1 440 -4 8 -29 85 -55 170 -25 85
-62 206 -82 267 l-35 113 -181 2 -182 3 -5 162 c-3 94 -10 167 -16 173 -6 6
-51 17 -100 25 -49 9 -98 17 -110 20 -20 4 -22 15 -33 152 -6 82 -16 276 -21
433 -6 157 -13 324 -16 372 l-7 88 37 15 c48 20 51 58 5 74 -39 13 -174 13
-211 -1z"/>
<path d="M3745 6021 c-122 -21 -247 -63 -355 -121 -128 -68 -287 -251 -361
-415 -71 -158 -139 -408 -170 -630 -18 -130 -20 -182 -16 -395 3 -135 7 -254
8 -265 4 -18 -4 -20 -71 -27 -169 -17 -328 -61 -530 -148 l-116 -50 -98 25
c-167 42 -267 36 -471 -29 -149 -47 -418 -247 -520 -386 -34 -46 -37 -48 -97
-54 -185 -20 -551 -147 -788 -273 -41 -22 -95 -50 -118 -62 -24 -12 -42 -25
-39 -27 2 -3 74 30 158 73 184 94 244 121 369 168 118 45 333 102 420 111 56
6 68 11 90 38 57 70 190 196 267 253 98 73 261 155 363 183 108 29 238 27 370
-6 l102 -26 92 43 c185 86 380 142 541 156 41 3 79 11 84 17 5 6 5 32 1 61
-17 101 -11 480 10 627 32 225 104 487 171 620 73 146 185 287 288 362 76 56
200 114 306 143 90 25 116 27 260 27 146 0 167 -2 240 -27 161 -54 336 -177
447 -316 111 -139 166 -257 189 -402 14 -91 7 -290 -16 -413 -8 -49 -13 -91
-11 -93 3 -3 26 6 53 18 45 23 77 51 218 198 33 34 71 64 85 67 14 3 81 18
150 35 376 89 575 98 979 44 125 -17 163 -12 222 28 25 17 35 33 42 64 6 32
19 52 54 83 26 22 57 43 70 46 33 9 80 -14 100 -47 10 -16 23 -29 29 -29 22 0
120 89 152 138 17 27 38 54 45 60 29 24 231 132 247 132 9 0 29 -12 44 -26 20
-21 26 -36 26 -72 0 -61 -29 -103 -106 -152 -52 -33 -68 -50 -108 -121 -26
-46 -45 -90 -43 -98 7 -37 217 2 297 55 51 34 196 85 247 87 32 2 48 -4 68
-23 59 -55 80 -133 51 -189 -23 -43 -59 -61 -144 -71 -42 -6 -93 -14 -112 -20
-53 -15 -149 -64 -149 -76 -1 -12 39 -43 84 -66 17 -9 75 -28 129 -42 150 -40
206 -92 206 -192 0 -47 -3 -55 -37 -84 -34 -30 -39 -32 -103 -28 -64 3 -71 6
-141 60 -41 31 -96 66 -123 78 -27 11 -65 33 -85 49 -20 15 -52 33 -71 40 -40
14 -55 1 -66 -55 -8 -46 33 -133 80 -169 47 -36 86 -102 86 -147 0 -97 -138
-184 -207 -130 -20 16 -73 109 -73 129 0 5 -16 28 -36 51 -24 28 -67 58 -133
92 -54 28 -107 60 -119 73 -11 12 -39 59 -61 105 -29 57 -47 82 -60 82 -27 0
-155 -46 -238 -85 -100 -47 -209 -118 -379 -246 -293 -220 -426 -279 -662
-296 -81 -5 -94 -9 -104 -27 -33 -62 -278 -372 -350 -442 -98 -97 -245 -213
-380 -301 -54 -35 -98 -65 -98 -68 0 -2 -20 -84 -45 -182 -78 -305 -181 -589
-304 -833 -133 -264 -210 -370 -325 -445 -76 -50 -77 -50 -130 -160 -65 -137
-135 -215 -274 -308 l-98 -66 -32 -103 c-40 -131 -58 -221 -76 -383 -22 -189
-26 -285 -14 -285 5 0 51 14 102 31 551 185 1157 227 1813 128 45 -7 85 -10
89 -6 4 3 2 266 -4 584 -8 459 -8 583 2 603 27 53 279 506 288 518 8 8 50 12
145 12 l135 0 -3 143 c-3 89 0 143 6 145 6 1 11 -45 12 -120 3 -141 8 -168 28
-168 13 0 15 24 15 145 l0 145 185 0 c102 0 186 3 186 8 1 4 3 182 4 396 3
352 8 431 28 399 8 -13 25 -263 37 -533 6 -135 13 -251 15 -257 3 -9 52 -13
182 -15 l178 -3 3 -142 3 -143 348 0 348 0 6 -87 c3 -47 4 -90 1 -95 -3 -4
-414 -8 -914 -8 l-909 0 -4 93 -3 92 -2 -97 -2 -98 920 0 920 0 0 -147 c0 -82
7 -503 15 -938 8 -434 15 -860 17 -945 1 -85 3 -132 6 -105 4 50 -25 1941 -33
2150 -2 61 -4 129 -4 153 l-1 42 -350 0 -349 0 -3 143 -3 142 -178 3 c-130 2
-179 6 -182 15 -2 6 -11 158 -20 337 -17 332 -40 587 -45 500 l-3 -45 -6 45
c-13 88 -24 -132 -25 -495 l-1 -350 -187 -3 -188 -2 0 -146 c0 -94 -4 -143
-10 -139 -6 4 -10 64 -10 146 0 119 -2 141 -16 146 -29 11 -34 -19 -28 -160
l7 -137 -136 0 -137 0 -23 -38 c-13 -20 -81 -143 -153 -272 l-129 -235 0 -85
c0 -47 4 -311 8 -587 l8 -503 -28 0 c-70 0 -69 -2 -60 132 5 70 5 124 0 129
-5 5 -168 14 -362 20 -296 10 -355 9 -362 -2 -5 -8 -8 -59 -7 -114 l3 -100
-75 -2 c-304 -10 -715 -85 -1006 -182 -51 -17 -94 -31 -97 -31 -14 0 27 376
54 505 11 50 31 125 45 168 l26 78 99 66 c140 92 210 171 275 308 l53 110 76
50 c82 53 142 119 212 235 152 249 319 666 408 1015 19 77 40 157 45 178 9 32
24 45 108 100 135 88 282 204 380 301 73 71 317 380 351 444 10 18 20 22 59
22 81 0 230 29 315 61 108 42 219 109 391 238 164 123 271 193 376 246 74 37
201 85 227 85 7 0 33 -40 58 -89 50 -100 69 -118 188 -177 94 -46 137 -90 181
-188 26 -57 40 -75 64 -85 43 -18 114 -6 151 24 87 74 77 197 -22 278 -74 61
-105 156 -66 203 13 16 48 4 98 -35 20 -15 61 -39 91 -53 30 -14 81 -46 114
-71 73 -57 111 -70 189 -65 52 4 64 9 88 36 24 27 29 41 29 82 0 120 -48 164
-230 210 -52 13 -104 35 -137 57 l-54 35 63 33 c73 37 92 42 193 55 93 12 132
31 151 75 19 46 18 85 -5 137 -28 64 -62 91 -113 91 -54 0 -218 -55 -278 -93
-68 -43 -249 -86 -264 -62 -3 5 15 47 41 92 39 70 55 87 107 121 78 50 99 79
104 147 5 61 -8 94 -45 111 -39 18 -51 14 -171 -51 -92 -50 -121 -71 -146
-107 -33 -48 -119 -136 -148 -152 -14 -7 -20 -3 -32 20 -18 34 -72 56 -116 46
-48 -11 -113 -76 -125 -126 -9 -35 -20 -50 -55 -74 -54 -36 -100 -37 -280 -9
-84 13 -172 18 -330 18 -232 0 -313 -10 -570 -74 -63 -16 -131 -31 -151 -34
-26 -5 -50 -22 -95 -68 -129 -135 -172 -174 -214 -197 l-43 -23 6 23 c39 145
45 440 12 564 -76 281 -342 554 -625 641 -68 21 -111 26 -215 29 -71 2 -152 0
-180 -4z m879 -5081 c160 -5 294 -14 298 -18 5 -5 5 -60 1 -123 -7 -106 -9
-114 -28 -112 -11 1 -102 11 -202 23 -100 11 -227 20 -283 20 l-101 0 3 43 c3
42 3 42 43 42 39 0 40 -1 46 -40 l7 -40 -2 45 -1 45 -50 0 -50 0 -3 -48 -3
-48 -37 3 -37 3 -9 92 c-5 50 -6 99 -3 107 8 19 14 19 411 6z"/>
<path d="M3780 5973 c-14 -2 -57 -10 -95 -19 l-71 -14 3 -38 c2 -34 1 -35 -5
-7 -7 26 -12 30 -37 27 -17 -2 -72 -23 -124 -48 -195 -95 -357 -309 -441 -585
-12 -37 -14 -62 -8 -73 5 -9 6 -20 3 -26 -3 -5 3 -27 14 -49 l21 -40 -25 -64
c-24 -65 -59 -226 -46 -210 4 4 13 40 20 78 7 39 24 99 38 134 l25 63 -21 38
c-23 41 -26 54 -12 45 6 -3 15 4 21 16 7 11 14 18 17 15 3 -3 -2 -16 -10 -30
-15 -23 -15 -26 2 -47 l18 -22 31 45 c17 24 56 64 86 87 31 24 56 50 56 58 0
12 3 13 13 4 8 -6 17 -8 21 -4 4 4 3 -13 -1 -37 -17 -96 -11 -143 28 -206 21
-32 43 -60 49 -62 7 -3 -1 16 -19 41 -36 52 -36 54 -17 54 8 0 19 -11 25 -24
9 -20 14 -21 36 -13 35 13 54 13 35 -1 -24 -17 27 0 90 29 32 15 83 53 122 91
79 78 67 100 99 -183 l22 -200 -47 -43 c-26 -24 -56 -43 -65 -43 -10 0 -32 22
-51 51 -18 29 -69 93 -113 143 -84 96 -102 126 -83 138 8 6 8 8 -1 8 -18 0
-24 -16 -14 -42 5 -12 44 -64 88 -113 43 -50 95 -116 115 -147 32 -47 42 -55
60 -51 22 5 22 5 4 -9 -18 -14 -17 -16 7 -64 32 -65 64 -164 77 -244 6 -36 18
-80 28 -98 l17 -33 -32 -30 c-18 -16 -33 -33 -33 -39 0 -5 -6 -10 -13 -10 -8
0 -38 -23 -68 -51 -30 -28 -64 -57 -76 -66 -26 -17 -30 -38 -9 -46 7 -3 28
-28 46 -56 19 -28 34 -51 36 -51 11 0 -16 48 -47 84 l-39 44 63 54 c97 84 95
82 112 68 25 -20 18 -47 -35 -137 -28 -47 -48 -88 -46 -90 2 -3 12 9 21 27 9
18 19 30 22 27 2 -3 -12 -35 -32 -72 -21 -36 -39 -64 -42 -61 -3 2 -1 12 5 22
6 11 6 24 -2 38 -19 37 -68 96 -79 96 -6 0 3 -15 19 -32 66 -72 67 -73 18
-164 -24 -44 -44 -85 -44 -90 1 -5 15 17 31 50 17 32 33 56 35 53 3 -3 -6 -28
-20 -56 -15 -28 -24 -51 -21 -51 2 0 16 21 29 48 14 26 25 42 26 35 0 -7 12 0
26 14 24 24 29 25 99 19 59 -5 76 -4 89 9 12 13 20 14 36 5 19 -10 21 -19 19
-106 -2 -93 -5 -104 -25 -84 -17 17 -146 50 -197 50 l-48 0 5 38 5 37 -10 -37
c-10 -33 -15 -38 -42 -39 l-32 -1 30 -8 30 -8 -33 -1 c-25 -1 -35 -7 -43 -27
-5 -15 -12 -24 -15 -21 -3 3 2 20 11 37 9 18 12 29 7 26 -6 -3 -24 16 -42 43
-17 27 -47 62 -66 76 -20 15 -33 29 -30 32 10 10 70 -44 102 -92 19 -27 34
-45 34 -39 0 27 -94 132 -132 147 -8 4 17 34 67 82 50 48 61 62 30 37 -76 -61
-118 -108 -109 -123 5 -8 2 -11 -8 -6 -16 6 -45 -21 -111 -105 l-38 -47 39
-20 c47 -24 116 -98 137 -147 22 -54 18 -55 -11 -4 -33 58 -89 117 -136 141
l-37 19 -27 -45 c-14 -25 -29 -44 -31 -41 -3 3 7 26 22 51 23 40 25 50 16 77
-16 46 -13 58 5 18 l15 -35 25 30 c14 17 43 51 65 77 21 26 39 57 39 70 0 17
3 20 9 9 7 -11 26 1 85 55 42 38 76 75 76 82 0 7 4 11 9 8 5 -3 28 13 52 35
l44 41 -45 -35 -46 -35 -11 24 c-10 22 -8 24 39 40 53 17 141 64 122 64 -6 0
-31 -11 -55 -24 -24 -13 -63 -30 -87 -37 -36 -10 -41 -15 -37 -33 5 -18 4 -19
-7 -6 -10 12 -33 16 -93 16 -56 0 -90 5 -114 17 -19 9 -36 15 -39 12 -3 -2 3
-8 12 -11 13 -5 14 -9 5 -14 -9 -6 -1 -25 30 -70 22 -34 41 -70 41 -79 0 -9
-13 7 -30 34 -52 89 -62 98 -94 85 -39 -14 -44 -6 -6 10 42 18 40 49 -8 87
-34 27 -68 72 -128 168 -24 39 -54 131 -54 170 0 17 -5 37 -11 45 -14 20 -3
-59 17 -122 16 -49 13 -68 -11 -68 -11 0 -15 19 -18 73 l-3 72 -2 -79 -2 -78
30 6 c19 3 29 2 25 -4 -3 -6 -2 -10 3 -10 6 0 25 -26 42 -57 18 -32 57 -81 86
-110 30 -29 54 -56 54 -62 0 -5 -24 -21 -52 -36 -29 -15 -62 -34 -73 -41 -31
-22 -6 -16 32 7 19 12 36 19 39 16 3 -3 -16 -18 -43 -34 -27 -15 -68 -41 -91
-58 -40 -28 -43 -32 -37 -67 7 -47 98 -274 125 -310 11 -15 20 -31 20 -35 0
-16 98 -160 153 -224 104 -123 198 -169 345 -169 63 0 77 4 131 35 70 41 76
49 61 72 -10 17 -10 17 -8 -1 2 -15 -13 -30 -57 -57 -54 -34 -67 -38 -131 -38
-39 -1 -95 6 -125 15 -53 16 -86 34 -60 34 6 0 23 25 37 55 30 66 31 154 2
152 -15 -1 -16 -3 -3 -17 21 -23 18 -79 -6 -125 -37 -70 -42 -72 -86 -37 l-39
31 39 82 39 82 121 -6 c85 -3 139 -11 177 -25 88 -32 110 -44 110 -63 0 -10 4
-20 10 -24 5 -3 6 -13 3 -22 -6 -15 -7 -14 -14 3 -5 12 -8 14 -8 4 0 -8 5 -25
12 -37 12 -22 13 -21 67 24 149 123 381 378 366 402 -4 5 0 13 8 18 7 4 27 28
44 53 36 54 142 250 142 261 0 16 -22 9 -59 -19 -48 -37 -103 -55 -166 -54
-70 0 -132 20 -169 54 -17 15 -35 28 -41 28 -5 0 -23 20 -38 45 -33 51 -48 55
-81 20 -25 -27 -41 -31 -51 -14 -4 6 -1 9 6 7 8 -1 27 10 43 25 26 24 28 30
18 53 -18 39 -15 75 7 81 11 3 36 30 57 61 66 100 133 179 184 218 40 30 49
42 44 58 -6 18 -5 19 10 7 14 -12 25 -8 83 29 270 171 295 193 321 282 9 32
19 58 22 58 15 0 59 -115 61 -159 2 -32 28 102 28 145 1 19 -5 34 -14 37 -18
7 -27 -6 -19 -26 3 -9 2 -23 -4 -32 -7 -14 -11 -12 -22 14 -18 44 -46 41 -53
-7 -7 -41 -56 -124 -69 -116 -15 10 -65 117 -89 192 l-23 73 24 45 c17 30 25
59 24 90 -1 28 2 40 7 32 6 -9 9 -9 9 -1 0 27 -20 22 -34 -9 -7 -18 -22 -51
-31 -73 -24 -55 -26 -91 -8 -155 18 -65 35 -107 69 -173 14 -26 23 -51 20 -56
-5 -7 -57 -42 -230 -152 l-60 -38 -16 27 c-22 35 -32 79 -21 86 17 11 211 351
210 371 0 6 -6 -1 -15 -15 l-15 -25 7 25 c3 14 10 29 15 35 15 15 10 31 -13
43 -22 11 -22 11 6 9 27 -2 31 3 64 82 28 64 38 79 43 65 4 -11 8 -14 8 -7 1
6 4 20 7 30 5 15 4 16 -6 3 -9 -12 -10 -8 -5 19 11 51 56 173 50 132 -6 -41 2
-37 15 8 5 19 5 29 -1 26 -5 -4 -9 8 -9 24 0 17 -4 31 -10 31 -5 0 -7 -7 -3
-16 8 -21 -28 -139 -38 -122 -4 7 -9 53 -12 101 -3 49 -9 92 -13 96 -19 17
-210 158 -237 175 -16 10 -26 20 -24 23 3 2 18 -3 34 -13 53 -34 228 -167 263
-201 35 -33 50 -41 50 -24 0 5 3 16 6 25 9 24 -125 157 -226 225 -99 66 -195
107 -298 127 -68 13 -203 17 -262 7z m260 -16 c59 -11 65 -14 68 -39 3 -24 -1
-27 -48 -37 -64 -14 -171 -30 -230 -34 -38 -3 -35 -4 20 -7 l65 -3 -70 -7
c-38 -4 -104 -8 -145 -9 l-75 -1 -1 -48 c-2 -43 -1 -44 5 -12 7 33 8 31 15
-28 4 -35 5 -66 2 -69 -3 -4 -6 9 -7 28 0 19 -3 29 -5 22 -3 -6 6 -94 20 -195
15 -101 26 -194 26 -207 0 -33 -140 -169 -210 -203 -30 -15 -49 -28 -41 -28
32 0 131 69 196 136 67 69 70 75 68 116 -2 40 1 36 13 -19 4 -21 10 -23 68
-23 34 0 98 9 141 20 43 11 80 18 83 16 11 -12 -113 -38 -199 -43 -83 -5 -96
-8 -92 -22 2 -9 16 -117 31 -241 l27 -225 42 -3 c28 -2 64 5 105 22 34 14 64
24 65 22 5 -5 -84 -46 -99 -46 -6 0 -9 -3 -5 -6 3 -4 25 1 48 10 23 9 44 14
47 11 5 -5 -38 -178 -58 -229 -6 -18 -21 -28 -50 -36 -23 -6 -47 -13 -54 -16
-9 -3 -13 10 -15 48 -1 29 -4 54 -5 56 -2 1 -7 -64 -11 -145 -4 -85 -12 -154
-19 -162 -9 -11 -8 -13 4 -9 11 3 16 26 21 89 l5 84 2 -77 2 -78 29 0 c20 0
31 6 34 18 4 13 5 11 6 -5 1 -22 -12 -28 -47 -24 -7 1 -22 -5 -34 -14 -13 -8
-17 -15 -11 -15 7 0 15 5 18 10 11 18 105 -1 105 -21 0 -14 25 0 39 24 13 20
13 21 -2 8 -27 -22 -20 -5 28 67 42 62 44 68 28 80 -10 7 -26 19 -35 27 -10 8
-18 10 -18 4 0 -5 13 -17 29 -26 l29 -17 -42 -63 c-39 -60 -58 -74 -71 -53 -3
5 6 44 20 86 13 43 23 80 20 82 -2 2 -7 -8 -11 -24 -6 -23 -8 -25 -13 -11 -5
13 -14 -4 -29 -52 -18 -56 -27 -71 -43 -71 -17 0 -19 7 -19 63 0 34 -3 73 -7
86 -5 20 -3 23 11 18 10 -4 38 -2 64 5 37 9 42 13 26 19 -15 6 -16 8 -2 8 9 1
21 13 27 29 l10 27 -2 -26 c-1 -15 4 -37 11 -51 15 -27 65 -61 76 -51 3 3 6
-3 6 -15 0 -12 -5 -22 -11 -22 -5 0 -7 -5 -3 -12 5 -8 12 -2 20 17 16 39 121
206 129 206 4 0 15 -13 25 -29 l18 -30 -45 -33 c-46 -34 -139 -144 -190 -224
-15 -24 -38 -48 -50 -54 -17 -8 -23 -19 -22 -43 0 -18 4 -42 8 -53 6 -14 2
-28 -13 -45 -20 -26 -21 -26 -66 -10 -25 8 -50 22 -57 30 -10 12 -11 11 -7
-10 5 -20 3 -22 -5 -10 -9 13 -11 13 -11 -2 0 -14 6 -16 28 -12 15 3 38 1 52
-5 23 -11 23 -11 -11 -8 l-35 3 24 -51 c15 -30 27 -76 30 -114 5 -60 4 -64
-14 -56 -10 4 -53 10 -95 12 l-77 5 59 99 c32 55 54 99 50 99 -5 0 -23 -27
-41 -61 -17 -33 -34 -58 -37 -56 -2 3 8 27 23 54 25 45 50 128 35 118 -4 -2
-13 0 -20 4 -10 6 -4 17 23 41 39 36 44 58 22 93 -8 12 -20 50 -26 85 -10 59
-10 64 10 80 25 21 27 28 32 177 3 68 2 94 -2 60 l-7 -60 -2 50 c-2 28 -3 55
-2 62 1 6 -2 14 -7 17 -5 3 -8 -7 -6 -22 2 -15 6 -70 10 -122 6 -94 6 -95 -20
-120 -26 -24 -27 -24 -32 -4 -3 12 -20 58 -38 102 -32 79 -32 82 -13 88 16 5
17 8 6 15 -8 5 -9 9 -3 9 6 0 31 18 56 40 34 30 44 45 41 62 -2 13 -14 114
-28 225 -13 111 -26 207 -30 213 -4 6 -33 -17 -68 -53 -66 -68 -174 -132 -206
-122 -10 3 -29 1 -42 -3 -22 -9 -26 -5 -51 52 -15 34 -28 66 -28 73 0 6 -5 15
-12 19 -8 5 -9 2 -4 -12 5 -10 10 -28 13 -39 4 -16 3 -17 -6 -5 -13 18 -13 3
-1 -25 l9 -20 1 20 1 20 9 -20 c12 -27 12 -43 0 -25 -9 13 -10 13 -10 0 -1 -8
-8 -2 -17 14 -15 29 -14 77 3 165 6 27 4 32 -11 29 -14 -2 -22 16 -46 97 -16
55 -29 101 -29 102 0 0 21 13 48 29 115 67 377 252 368 261 -2 3 -28 -15 -58
-39 -61 -49 -300 -210 -339 -228 -25 -11 -26 -16 -23 -69 1 -31 10 -81 18
-111 l16 -55 -38 -30 c-48 -38 -93 -84 -114 -115 -14 -20 -19 -22 -27 -11 -6
10 -3 22 10 40 24 33 111 239 107 252 -2 6 -12 -13 -23 -42 -10 -30 -20 -49
-22 -44 -1 6 10 45 26 88 16 42 27 87 24 100 -4 17 -2 19 5 8 9 -12 21 -8 74
24 91 55 245 162 302 209 48 40 53 41 140 47 l91 6 -71 1 c-65 2 -72 4 -78 25
-10 38 -7 67 8 73 79 30 287 41 396 21z m87 -54 c-3 -10 -5 -4 -5 12 0 17 2
24 5 18 2 -7 2 -21 0 -30z m87 -4 c33 -17 93 -53 132 -80 80 -55 219 -193 210
-208 -4 -5 -80 45 -169 112 -90 67 -182 132 -205 145 -27 15 -42 30 -42 43 0
25 2 25 74 -12z m-610 -20 c5 -34 3 -43 -16 -59 -13 -11 -31 -17 -40 -14 -24
7 -99 -28 -172 -80 -64 -46 -147 -126 -111 -108 11 5 29 20 40 32 59 66 285
195 235 135 -11 -13 -291 -203 -338 -229 -8 -5 -16 3 -22 20 -9 23 -6 33 32
81 23 30 68 79 101 108 68 62 221 146 278 154 4 1 9 -17 13 -40z m468 -15
c-24 -7 -71 -16 -105 -18 -60 -6 -59 -5 18 9 44 9 85 17 90 19 6 3 17 4 25 4
8 0 -4 -6 -28 -14z m99 -5 c23 -11 39 -23 36 -26 -3 -3 -25 7 -49 21 -52 31
-43 34 13 5z m-544 -11 c-3 -8 -6 -5 -6 6 -1 11 2 17 5 13 3 -3 4 -12 1 -19z
m630 -71 c59 -42 132 -96 162 -119 l54 -43 5 -85 c2 -47 8 -93 13 -103 13 -23
-2 -75 -51 -182 l-39 -86 -38 16 c-57 24 -101 57 -176 133 l-69 69 11 94 c15
128 19 369 6 366 -6 -1 -10 -61 -9 -157 1 -103 -1 -130 -5 -80 l-6 75 -7 -110
c-12 -177 -12 -176 -70 -203 -78 -36 -199 -63 -265 -60 l-58 3 -26 180 c-15
99 -27 169 -28 155 0 -14 6 -70 14 -125 18 -127 17 -178 -1 -65 -8 47 -16 139
-18 205 -2 66 -7 128 -11 138 -6 15 -1 17 46 17 80 0 265 19 334 34 96 21 113
17 232 -67z m-120 -59 c-2 -24 -4 -5 -4 42 0 47 2 66 4 43 2 -24 2 -62 0 -85z
m-967 -144 c0 -8 -5 -12 -10 -9 -6 4 -8 11 -5 16 9 14 15 11 15 -7z m-11 -33
c8 -14 4 -34 -15 -82 -14 -35 -27 -82 -29 -104 -3 -39 -42 -141 -51 -132 -2 2
7 29 21 61 36 82 30 82 -11 1 -44 -86 -47 -89 -61 -67 -17 29 50 212 124 335
7 11 11 9 22 -12z m957 -98 l-7 -78 74 -72 c41 -39 99 -85 128 -102 30 -17 47
-31 38 -31 -26 0 -131 75 -182 129 -26 28 -47 46 -47 42 0 -5 33 -40 74 -78
69 -63 98 -83 169 -112 l28 -11 -47 -87 c-62 -117 -121 -219 -156 -270 -27
-39 -30 -41 -58 -32 -40 14 -112 94 -108 121 2 16 23 28 94 53 95 34 204 91
204 106 0 4 -27 -7 -59 -26 -60 -35 -199 -95 -221 -95 -8 0 -10 9 -7 23 4 12
19 90 35 172 33 169 47 265 32 225 -8 -21 -9 -18 -5 15 2 22 7 73 11 113 4 39
9 72 12 72 2 0 2 -35 -2 -77z m-877 -108 c0 -11 -9 9 -19 45 -11 36 -19 70
-19 75 2 17 38 -99 38 -120z m845 29 c-8 -3 -8 -19 -1 -53 8 -41 3 -79 -33
-257 -23 -115 -43 -211 -45 -213 -2 -2 16 -23 40 -47 44 -46 112 -82 125 -67
13 12 101 159 149 246 24 43 45 76 48 73 5 -5 -122 -234 -169 -303 -28 -41
-28 -43 -14 -85 9 -23 13 -44 11 -47 -3 -2 -10 10 -16 28 -16 45 -19 41 -124
-127 -14 -24 -29 -42 -31 -39 -3 3 27 55 65 117 39 62 71 114 71 116 0 2 -23
13 -50 25 -28 12 -62 35 -75 51 -14 16 -25 26 -25 21 0 -17 65 -72 98 -84 17
-6 32 -15 32 -20 0 -5 -31 -59 -69 -120 l-69 -110 -34 33 c-29 30 -33 40 -32
83 1 28 12 85 24 128 12 43 19 86 15 95 -5 13 -4 14 6 5 10 -10 7 -34 -15
-114 -15 -56 -25 -103 -23 -105 8 -8 50 163 52 211 2 28 21 139 44 248 22 110
40 211 40 225 l-2 27 -4 -25 c-13 -80 -76 -386 -83 -406 -5 -13 -15 -24 -21
-24 -8 0 -8 4 1 15 7 9 8 15 2 15 -5 0 -17 -11 -25 -24 -20 -30 -93 -59 -138
-54 l-34 3 -27 210 c-14 116 -27 220 -27 231 -1 20 5 22 87 26 84 5 233 46
257 71 7 7 4 8 -10 2 -46 -17 -57 -15 -20 4 22 11 45 20 50 20 6 0 5 -3 -1 -5z
m374 -203 c-12 -28 -25 -46 -28 -40 -4 5 5 34 19 64 14 30 27 48 29 40 2 -8
-7 -37 -20 -64z m57 -301 c14 -23 24 -47 22 -53 -5 -16 -81 144 -101 215 -28
98 -17 87 19 -19 19 -56 46 -121 60 -143z m199 44 c-6 -51 -8 -55 -16 -34 -7
17 -6 36 2 57 6 18 8 39 4 45 -5 10 -4 10 5 2 9 -8 11 -29 5 -70z m-854 -384
c-34 -11 -60 -11 -35 0 11 5 29 8 40 8 16 0 15 -2 -5 -8z m-115 -40 c-10 -11
-23 -20 -28 -20 -6 0 -2 9 8 20 10 11 23 20 28 20 6 0 2 -9 -8 -20z m135 -80
c-6 -23 -14 -40 -16 -37 -3 3 0 24 7 46 16 54 24 46 9 -9z m16 -95 c10 -8 14
-15 8 -15 -5 0 -19 7 -30 15 -10 8 -14 15 -8 15 5 0 19 -7 30 -15z m68 -226
c31 -46 58 -114 49 -123 -4 -3 -14 -6 -22 -6 -22 0 -91 -48 -91 -62 0 -6 10
-2 23 9 27 25 61 43 79 42 7 0 2 -6 -13 -12 -14 -7 -46 -30 -73 -51 l-47 -39
-37 18 c-21 10 -75 21 -122 25 l-85 7 66 2 c36 0 89 -6 117 -14 29 -9 55 -16
58 -15 4 0 7 48 7 108 l0 107 7 -100 6 -100 2 104 c2 81 6 109 19 123 23 25
27 23 57 -23z m-586 7 c59 -1 76 -5 87 -19 10 -14 14 -15 18 -5 4 10 6 9 6 -1
1 -8 -33 -48 -74 -89 -63 -62 -76 -71 -81 -55 -18 52 -47 110 -69 139 -27 36
-22 48 15 38 14 -4 58 -8 98 -8z m465 -8 c21 -17 30 -219 10 -211 -8 3 -13 24
-13 52 0 43 -14 102 -35 154 -9 20 13 23 38 5z m-564 -110 c21 -41 31 -52 35
-40 2 9 2 -1 -1 -23 -3 -26 -17 -52 -37 -75 -18 -19 -44 -50 -58 -67 l-27 -33
-12 38 c-23 71 -104 212 -122 212 -4 0 3 -15 16 -32 39 -52 87 -155 81 -173
-4 -8 -1 -28 6 -44 10 -26 8 -34 -18 -76 -23 -37 -27 -51 -18 -61 8 -9 18 -2
41 36 l31 48 36 -19 c43 -22 91 -77 128 -145 l26 -49 -35 -75 c-20 -41 -37
-77 -39 -79 -9 -15 -147 180 -211 299 -46 87 -107 236 -117 284 -5 30 -2 37
21 52 27 17 28 17 46 -7 11 -13 36 -55 55 -93 19 -37 38 -66 41 -62 6 6 -48
106 -83 153 -13 17 -24 34 -24 37 0 3 37 25 83 50 l82 45 22 -22 c12 -12 35
-48 52 -79z m746 53 c-3 -5 4 -13 15 -16 18 -6 19 -9 8 -23 -11 -13 -11 -15 4
-9 10 3 41 -1 70 -9 29 -9 78 -16 110 -16 32 0 58 -3 58 -7 0 -3 -16 -15 -36
-26 -39 -21 -144 -119 -144 -135 0 -5 21 13 46 40 25 27 68 63 95 81 27 17 49
37 49 44 0 13 37 31 46 22 9 -8 -8 -37 -18 -31 -6 4 -2 -5 7 -20 10 -15 20
-24 23 -21 3 3 1 10 -6 17 -16 16 8 58 53 92 l36 28 -32 -58 c-78 -143 -122
-214 -146 -238 -35 -36 -41 -25 -9 17 14 19 26 37 26 41 0 17 54 85 63 79 6
-3 7 -1 3 5 -4 7 -11 12 -16 12 -12 0 -111 -170 -105 -180 3 -5 -1 -11 -7 -14
-7 -3 -2 -3 12 1 24 6 23 4 -11 -38 -19 -24 -48 -61 -64 -81 -22 -28 -32 -34
-42 -26 -9 7 -17 7 -26 0 -7 -6 -18 -7 -26 -3 -10 6 -4 11 19 16 l32 7 -7 72
c-3 39 -10 75 -15 80 -14 14 -98 -14 -154 -52 -28 -20 -52 -39 -54 -44 -6 -14
-30 -9 -93 18 -34 14 -95 29 -138 33 l-76 8 60 1 c41 1 82 -6 130 -24 39 -13
77 -27 86 -30 15 -5 17 7 18 92 1 54 4 100 6 103 3 2 5 -38 5 -89 0 -51 3 -90
6 -87 4 4 6 47 5 97 -2 87 -1 91 26 115 39 35 104 68 113 58 9 -8 50 -143 50
-161 0 -6 -8 -13 -17 -15 -14 -4 -12 -5 5 -6 15 -1 22 5 22 17 0 9 3 28 5 42
5 21 4 22 -3 5 -8 -18 -10 -16 -17 13 -4 18 -4 36 -1 39 3 4 6 -2 6 -12 0 -10
3 -16 6 -12 3 3 -2 29 -11 57 -13 41 -14 54 -5 66 11 12 10 13 -4 8 -9 -3 -17
-16 -17 -28 -1 -16 -2 -17 -6 -4 -3 11 -11 15 -21 12 -14 -5 -14 -4 -3 4 12 9
13 15 3 37 -15 32 -15 45 -1 45 5 0 8 -4 4 -9z m44 -151 c0 -9 -4 -8 -9 5 -5
11 -9 27 -9 35 0 9 4 8 9 -5 5 -11 9 -27 9 -35z m-273 -13 c17 -17 -23 -26
-84 -20 -55 5 -67 3 -93 -16 -16 -12 -29 -20 -29 -17 0 2 -3 13 -6 23 -4 13
-3 14 4 5 7 -10 13 -7 26 13 17 26 21 27 96 23 43 -1 82 -7 86 -11z m-379 -79
c17 -18 40 -48 51 -66 l20 -33 -36 -72 c-20 -40 -37 -89 -38 -109 l-2 -38 82
1 c101 1 192 -15 270 -47 33 -13 63 -24 68 -24 4 0 8 17 9 38 1 32 2 34 8 12
7 -24 8 -23 14 10 3 19 9 65 12 101 7 65 8 67 54 102 44 33 145 77 155 67 2
-3 7 -35 11 -71 l7 -66 -62 -22 c-60 -22 -159 -93 -168 -120 -3 -8 13 2 34 23
59 58 120 91 146 79 20 -9 13 -18 -87 -116 -60 -59 -114 -106 -120 -104 -5 2
-11 14 -12 28 l-2 24 8 -25 9 -25 1 25 c1 31 82 113 155 159 28 17 45 31 39
31 -19 0 -106 -63 -158 -114 l-49 -49 -96 34 c-83 29 -111 34 -215 37 l-120 4
-40 -81 c-21 -45 -42 -81 -45 -81 -4 0 12 39 35 87 49 103 50 133 6 201 -36
57 -63 83 -112 109 l-36 19 60 71 61 72 25 -19 c14 -10 40 -33 58 -52z m143
-115 c0 -4 -12 -49 -27 -100 l-27 -93 -41 0 c-42 0 -42 0 -40 34 2 18 15 55
29 82 32 63 33 49 1 -22 -36 -78 -30 -81 8 -4 51 102 57 110 77 110 11 0 20
-3 20 -7z m230 -29 l62 -28 -7 -55 c-3 -31 -9 -77 -12 -102 l-5 -47 -82 29
c-46 16 -115 32 -154 35 -40 4 -72 9 -72 12 0 3 12 48 27 100 l27 95 77 -6
c54 -3 96 -13 139 -33z m74 -105 c-4 -41 -9 -68 -12 -61 -5 16 8 145 14 139 2
-2 1 -37 -2 -78z m246 3 c0 -9 -171 -180 -215 -214 -71 -55 -69 -55 -59 -36 5
9 46 49 91 90 45 40 100 94 123 121 39 44 60 58 60 39z"/>
<path d="M3798 4773 c12 -2 32 -2 45 0 12 2 2 4 -23 4 -25 0 -35 -2 -22 -4z"/>
<path d="M3664 4675 c-10 -8 -14 -15 -8 -15 6 0 17 7 24 15 16 19 9 19 -16 0z"/>
<path d="M4265 3894 c-52 -35 -99 -79 -137 -129 -18 -24 -7 -15 28 22 33 35
84 78 114 98 30 19 50 35 45 35 -6 0 -28 -12 -50 -26z"/>
<path d="M3991 3729 c-39 -15 -93 -51 -87 -57 3 -3 14 3 25 12 10 9 41 26 67
36 27 11 42 19 34 19 -8 0 -26 -5 -39 -10z"/>
<path d="M4112 3695 c0 -16 4 -43 8 -60 11 -42 11 -1 1 50 -7 34 -9 35 -9 10z"/>
<path d="M4164 3658 l-29 -33 33 29 c17 17 32 31 32 33 0 8 -8 1 -36 -29z"/>
<path d="M4161 3625 c-22 -24 -41 -50 -41 -56 0 -7 1 -10 3 -8 2 2 22 28 46
57 52 64 48 68 -8 7z"/>
<path d="M4570 5581 c-10 -24 -9 -33 4 -54 21 -31 78 -187 73 -200 -2 -6 -18
31 -36 82 -18 51 -35 90 -37 88 -3 -2 11 -47 30 -98 19 -52 41 -116 50 -144 9
-27 13 -37 10 -21 -14 77 -14 91 1 46 9 -25 17 -63 20 -85 4 -32 3 -35 -4 -15
-7 20 -9 21 -9 5 0 -11 4 -33 8 -50 l8 -30 2 30 2 30 8 -30 c4 -16 8 -46 8
-65 l-1 -35 -7 30 c-7 27 -7 26 -5 -9 4 -45 19 -66 36 -49 8 8 10 53 7 145 -5
113 -10 147 -36 226 -24 76 -103 232 -116 232 -2 0 -9 -13 -16 -29z m84 -111
c48 -91 68 -178 73 -313 4 -93 2 -132 -6 -140 -10 -9 -11 -4 -6 24 4 22 0 71
-10 120 -20 102 -90 322 -116 367 -10 17 -16 39 -12 48 7 18 30 -15 77 -106z"/>
<path d="M4681 5315 c1 -19 18 -51 18 -35 0 8 -4 22 -9 30 -5 8 -9 11 -9 5z"/>
<path d="M4701 5244 c0 -11 3 -14 6 -6 3 7 2 16 -1 19 -3 4 -6 -2 -5 -13z"/>
<path d="M7160 5558 c-13 -5 -27 -12 -30 -16 -3 -4 -45 -27 -94 -51 -73 -37
-91 -51 -103 -79 -18 -43 -107 -132 -156 -158 -22 -10 -55 -27 -75 -38 l-37
-18 31 -27 c17 -14 39 -38 48 -53 15 -23 23 -26 49 -22 28 4 29 3 9 -6 -22 -9
-22 -10 -6 -42 36 -71 51 -85 86 -81 l33 3 -35 -11 c-32 -10 -36 -9 -57 17
-12 15 -29 45 -39 66 -13 30 -23 38 -43 38 -19 0 -22 3 -12 9 12 8 12 12 0 28
-20 29 -75 73 -90 73 -8 0 1 8 19 17 18 8 31 17 29 20 -2 2 -17 -3 -33 -11
-15 -9 -40 -13 -54 -10 -22 4 -21 3 5 -9 l30 -14 -23 -12 c-12 -6 -27 -9 -32
-6 -5 3 -18 1 -27 -4 -14 -8 -15 -10 -3 -11 13 0 13 -1 0 -10 -8 -5 -18 -10
-22 -10 -12 0 -2 31 13 41 9 6 10 9 2 9 -15 0 -104 -62 -98 -68 2 -3 16 3 30
12 14 9 31 14 37 10 7 -5 3 -10 -12 -16 l-23 -8 33 -30 c19 -17 39 -30 46 -30
6 0 11 -6 11 -12 -1 -7 9 -36 21 -63 22 -49 24 -51 60 -48 34 2 35 1 7 -5
l-30 -7 3 -72 c3 -62 1 -74 -17 -92 -42 -42 -21 -59 38 -30 23 11 66 22 94 24
l52 4 -53 -10 c-78 -16 -57 -22 24 -8 56 10 64 14 44 20 -21 6 -19 7 15 8 l40
1 -53 -51 c-30 -27 -62 -69 -73 -92 -11 -26 -19 -35 -19 -22 0 26 35 84 69
113 22 19 23 21 4 12 -31 -14 -72 -70 -79 -108 -7 -36 -15 -39 -36 -14 -15 17
-48 76 -48 86 0 3 12 12 28 20 15 8 22 15 16 16 -7 0 -22 -8 -34 -18 -21 -17
-22 -19 -6 -57 24 -56 55 -88 73 -74 10 9 13 7 13 -10 0 -15 10 -26 33 -36 28
-13 33 -12 42 2 18 30 87 103 98 103 5 0 -11 -22 -37 -50 -25 -27 -46 -53 -46
-57 0 -4 17 11 36 35 57 68 164 110 164 65 0 -10 3 -28 6 -40 5 -18 -1 -25
-34 -42 -22 -11 -50 -33 -64 -49 l-24 -29 -34 24 c-19 12 -41 23 -49 23 -8 0
6 -14 32 -30 l48 -30 38 40 c21 22 44 40 52 40 8 0 -1 -12 -19 -26 -52 -41
-58 -61 -29 -93 13 -14 32 -47 43 -72 l18 -46 44 34 c24 18 50 33 59 33 8 0
-7 -15 -33 -32 -51 -34 -64 -59 -44 -83 16 -19 73 -19 109 0 41 21 57 65 49
140 -2 16 -88 104 -88 89 0 -6 16 -25 35 -44 19 -18 32 -37 29 -42 -3 -4 1 -8
8 -8 9 0 9 -3 -2 -10 -8 -5 -24 -9 -35 -9 l-20 0 20 9 c11 5 14 9 7 9 -21 1
-85 -29 -109 -51 l-22 -20 -16 38 c-16 39 -16 39 13 64 16 14 37 30 48 37 10
6 14 12 8 12 -6 1 -29 -15 -52 -35 -23 -19 -42 -31 -42 -26 0 13 71 72 85 72
27 0 34 23 17 52 -9 15 -19 28 -23 28 -12 0 -21 80 -15 125 4 25 17 54 31 69
l25 27 42 -22 c24 -12 63 -36 88 -54 25 -17 61 -38 80 -45 19 -7 61 -33 93
-57 l57 -43 20 32 c11 18 20 37 20 42 0 5 3 7 6 4 3 -4 -4 -25 -15 -48 l-20
-41 35 -15 c39 -16 63 -7 65 25 0 13 2 12 8 -3 6 -15 12 -4 26 45 10 35 17 71
16 79 -5 31 28 -25 35 -58 8 -41 -13 -75 -58 -90 l-33 -11 35 5 c19 3 42 12
50 20 30 29 9 154 -25 154 -7 0 -15 -22 -19 -51 -4 -28 -9 -49 -12 -46 -3 3
-1 29 5 58 8 46 7 56 -7 67 -9 7 -26 12 -37 10 -11 -1 -29 3 -40 9 -11 6 -40
16 -65 23 -67 18 -110 39 -162 83 -33 27 -49 35 -52 25 -13 -39 -15 -40 -13
-5 1 31 -6 44 -41 80 -47 47 -58 75 -14 36 40 -37 76 -52 103 -44 41 13 47 22
39 65 -10 57 -19 60 -13 6 5 -42 3 -46 -21 -57 -32 -15 -41 -7 -49 44 -5 30
-3 37 11 37 9 0 24 5 32 10 10 7 4 8 -20 4 -32 -5 -37 -3 -48 20 -11 24 -9 26
21 34 28 8 34 6 49 -17 12 -17 18 -21 19 -11 1 22 28 -41 29 -67 0 -12 4 -25
10 -28 10 -6 75 23 67 31 -2 2 -17 -2 -33 -11 -28 -15 -29 -14 -35 13 -6 31
-3 37 28 46 17 6 22 2 26 -16 4 -20 4 -20 6 5 1 29 -5 32 -42 18 -21 -8 -26
-6 -40 24 -15 32 -15 34 8 49 24 16 25 15 44 -21 11 -21 20 -33 21 -28 0 6 -9
25 -20 43 -11 17 -15 32 -9 32 14 0 49 -79 49 -112 0 -34 13 -42 54 -34 29 6
33 10 30 34 l-4 27 11 -27 c11 -28 25 -33 67 -22 15 4 22 14 23 33 2 23 2 24
6 4 3 -14 12 -23 22 -23 52 0 70 99 28 161 -19 28 -30 35 -65 37 -32 2 -42 0
-42 -12 0 -8 5 -18 10 -21 6 -3 10 -12 10 -18 -1 -7 -10 -1 -20 12 -17 19 -26
22 -56 17 -19 -4 -37 -13 -40 -20 -3 -7 -15 -11 -27 -9 -12 2 -45 -10 -75 -27
-48 -28 -53 -34 -48 -58 6 -27 6 -27 -10 -5 -13 19 -19 20 -52 11 -20 -6 -38
-11 -40 -13 -1 -1 5 -19 13 -40 22 -51 13 -55 -10 -5 l-18 40 -72 0 c-66 0
-76 3 -132 39 -33 21 -76 44 -97 51 -20 6 -35 14 -33 16 2 3 16 0 31 -6 33
-12 57 -13 38 -2 -10 7 -8 15 8 35 12 15 18 27 14 27 -5 0 -18 -12 -29 -26
-20 -26 -21 -26 -59 -10 -47 20 -60 20 -26 1 14 -8 19 -14 10 -14 -8 0 -25 5
-38 12 -22 13 -22 13 20 32 24 10 49 27 56 36 12 18 14 18 45 -3 18 -11 46
-39 61 -60 22 -31 25 -42 16 -53 -10 -12 -15 -12 -38 2 l-27 15 25 -21 c32
-27 34 -26 56 7 24 37 72 131 65 129 -3 -1 -25 17 -49 40 -52 52 -38 57 18 7
l40 -36 35 28 c20 16 46 38 59 50 13 11 27 19 33 17 12 -4 53 69 53 97 0 26
-15 56 -32 63 -7 2 -24 0 -38 -5z m60 -55 c0 -13 -11 -41 -25 -61 -14 -20 -25
-32 -25 -26 0 6 -9 20 -19 31 -19 20 -19 21 4 31 15 7 26 8 30 2 4 -6 11 -10
17 -10 6 0 -1 10 -16 21 -15 12 -25 24 -22 27 3 3 15 -3 26 -13 12 -11 20 -13
20 -6 0 6 -11 17 -25 23 -27 12 -32 24 -12 31 19 7 47 -23 47 -50z m-65 27 c3
-5 1 -10 -4 -10 -6 0 -11 5 -11 10 0 6 2 10 4 10 3 0 8 -4 11 -10z m-10 -22
l25 -11 -23 -12 c-14 -7 -27 -8 -34 -3 -7 6 -21 7 -33 3 -29 -9 -25 2 8 19 33
19 26 18 57 4z m-6 -62 l26 -27 -28 -22 c-15 -12 -41 -33 -58 -47 l-31 -26
-37 34 c-27 25 -42 32 -61 27 -19 -4 -21 -3 -10 5 8 5 11 10 7 10 -18 0 17 41
51 59 51 27 106 21 141 -13z m-180 -91 c16 -8 38 -26 48 -41 19 -26 19 -26 -5
-76 l-24 -50 -24 35 c-13 19 -39 44 -57 56 l-34 21 31 34 c17 19 32 35 34 35
2 1 16 -6 31 -14z m645 -158 c33 -43 35 -105 6 -132 -23 -21 -28 -19 -36 21
-5 26 -2 31 23 41 l28 11 -30 -4 c-28 -4 -32 -1 -52 46 l-22 50 29 0 c21 0 36
-9 54 -33z m-799 -11 c65 -28 125 -60 125 -67 0 -7 -64 -19 -95 -18 -11 1 3 7
30 14 65 17 36 18 -35 2 l-55 -13 -46 48 -45 48 25 8 c15 5 33 6 41 2 8 -4 33
-15 55 -24z m713 -21 c21 -38 22 -38 17 -10 l-5 30 16 -34 c22 -49 11 -109
-23 -117 -27 -7 -37 0 -47 32 -5 17 0 22 28 31 30 9 36 8 39 -6 3 -10 5 -7 6
8 1 17 -3 22 -15 17 -54 -21 -63 -19 -77 17 -8 19 -20 37 -25 41 -6 3 -1 -12
10 -35 27 -57 15 -112 -25 -117 -23 -3 -27 0 -27 22 0 25 30 44 50 31 16 -10
12 18 -9 59 -21 41 -19 62 7 69 37 11 57 1 80 -38z m-823 -25 c44 -45 47 -41
-69 -64 l-78 -16 -30 25 c-16 14 -24 25 -18 25 7 0 28 7 47 16 26 13 31 19 21
26 -9 6 -6 7 9 3 14 -4 32 0 45 9 12 9 25 16 28 16 3 0 23 -18 45 -40z m722
-5 c20 -37 21 -41 5 -47 -31 -12 -37 -8 -54 33 -30 72 10 83 49 14z m-440 -40
c19 -8 64 -15 100 -15 l64 0 24 -51 c17 -37 24 -46 28 -32 3 12 5 9 6 -9 1
-34 -3 -35 -41 -3 -60 51 -68 11 -9 -50 31 -33 39 -49 44 -90 2 -27 3 -43 0
-34 -2 9 -22 21 -43 28 -39 12 -40 13 -40 59 0 26 -3 58 -7 71 -6 23 -7 23
-14 5 -7 -16 -8 -17 -8 -1 -1 12 -9 17 -28 16 -22 -1 -23 -2 -8 -6 28 -7 35
-21 35 -77 0 -46 -1 -48 -24 -42 -14 3 -60 11 -103 17 -43 6 -79 12 -80 13 -2
1 -4 13 -5 27 -3 22 2 25 77 41 62 13 72 17 45 19 -27 1 -19 5 35 14 39 7 57
13 40 14 -16 0 -71 -8 -121 -17 l-91 -18 -20 30 c-47 70 -47 74 -6 82 33 5
103 20 111 23 1 1 19 -6 39 -14z m-250 -21 c22 -4 37 -17 53 -47 13 -23 29
-49 37 -58 12 -14 7 -16 -39 -15 -29 0 -78 -3 -108 -8 l-55 -7 -22 50 -22 51
27 1 c26 2 26 2 -3 7 -27 5 -24 6 25 17 70 16 72 16 107 9z m226 -101 c-7 -2
-21 -2 -30 0 -10 3 -4 5 12 5 17 0 24 -2 18 -5z m138 -145 l-11 -33 5 40 c3
22 6 60 7 85 l2 45 3 -52 c2 -28 -1 -66 -6 -85z m-260 101 c5 -8 9 -46 9 -85
l0 -72 -77 -11 c-43 -6 -95 -20 -115 -30 -45 -22 -54 -17 -28 17 15 18 20 40
20 85 l0 60 98 -5 c65 -4 82 -3 52 2 -25 5 -72 9 -105 10 -71 2 -66 5 40 25
l80 15 -65 -4 c-47 -3 -57 -2 -35 4 41 12 116 5 126 -11z m28 -89 c-1 -88 -7
-75 -11 27 -2 40 0 67 4 60 4 -7 7 -46 7 -87z m106 30 c39 -6 78 -13 88 -16
24 -7 21 -38 -7 -98 -14 -28 -27 -59 -30 -68 -3 -12 -15 -18 -33 -18 -65 0
-193 -91 -193 -138 0 -10 -7 -9 -30 3 -16 9 -30 21 -30 28 1 32 42 97 86 136
48 41 50 42 104 36 30 -4 66 -8 80 -11 22 -4 23 -3 5 5 -19 9 -19 10 4 10 42
2 17 10 -62 22 l-77 11 0 54 c0 37 4 54 13 54 6 0 44 -5 82 -10z m324 -69 c0
-3 -3 -14 -7 -23 -6 -15 -11 -14 -39 10 -25 21 -31 32 -27 49 l6 22 34 -26
c19 -14 34 -28 33 -32z m-140 28 c35 -12 37 -17 16 -45 -8 -10 -14 -23 -15
-29 0 -5 9 4 20 20 11 17 20 23 20 15 -1 -8 -7 -23 -14 -33 -13 -17 -15 -17
-47 0 -19 10 -35 18 -37 19 -6 2 11 64 18 64 4 0 21 -5 39 -11z m-72 -51 c-3
-8 -6 -5 -6 6 -1 11 2 17 5 13 3 -3 4 -12 1 -19z m177 -50 c-19 -36 -18 -47 2
-22 15 18 15 18 9 -3 -9 -34 4 -28 16 7 9 26 13 28 25 15 8 -7 23 -17 34 -20
22 -7 26 -20 10 -30 -5 -3 -10 -14 -9 -23 0 -12 3 -11 9 6 5 12 12 22 15 22 4
0 4 -10 0 -22 -6 -22 -5 -22 9 -4 8 10 17 23 18 27 2 5 22 3 46 -3 48 -12 52
-26 22 -76 l-20 -33 -42 33 c-23 18 -45 33 -48 34 -17 2 -119 57 -142 76 -26
22 -27 26 -16 55 l12 31 32 -21 c31 -21 32 -23 18 -49z m37 25 c-11 -21 -20
-33 -21 -27 0 15 31 76 37 71 2 -3 -5 -22 -16 -44z m73 17 c24 -9 26 -12 15
-32 -6 -13 -13 -24 -14 -26 -4 -5 -65 27 -65 34 0 14 22 44 29 40 4 -3 20 -10
35 -16z m-375 -26 c8 -7 -63 -2 -94 7 -20 5 -9 6 30 2 33 -3 62 -7 64 -9z
m406 -29 c-9 -20 -18 -35 -21 -33 -2 3 3 22 11 43 9 20 18 35 21 33 2 -3 -3
-22 -11 -43z m69 25 c20 -7 26 -17 26 -39 l0 -29 -39 12 c-50 15 -55 20 -41
45 12 24 18 25 54 11z m43 -67 c-2 -27 -3 -40 0 -30 5 18 8 19 37 8 13 -5 19
-19 21 -51 1 -25 0 -36 -3 -25 -4 16 -7 14 -17 -15 -10 -28 -17 -34 -36 -32
-36 4 -42 17 -25 50 8 16 15 40 14 53 -3 42 2 89 8 89 4 0 4 -21 1 -47z m61
10 c3 -30 2 -32 -20 -24 -15 5 -24 18 -26 35 -3 24 0 27 20 24 18 -2 24 -10
26 -35z m-588 -33 c-19 -5 -46 -11 -60 -14 -21 -5 -20 -4 5 8 17 9 44 15 60
14 30 0 30 0 -5 -8z m64 -125 c20 -30 20 -45 3 -45 -8 0 -33 -14 -57 -31 -37
-27 -44 -29 -57 -17 -12 13 -9 19 25 49 21 19 47 39 58 46 17 10 17 11 -6 6
-20 -4 -22 -2 -10 6 21 15 26 14 44 -14z m127 -178 c-1 -4 -1 -16 -1 -26 0
-11 -14 -33 -31 -50 -35 -35 -87 -42 -110 -15 -12 15 -9 21 26 51 46 40 118
65 116 40z"/>
<path d="M7084 5462 c3 -6 -14 -27 -39 -48 -25 -20 -43 -39 -40 -42 3 -3 27
13 53 36 l49 41 24 -22 23 -22 -19 23 c-21 25 -63 53 -51 34z"/>
<path d="M6954 5315 c-10 -15 -23 -24 -30 -21 -43 18 -45 16 -10 -11 21 -16
45 -41 52 -54 7 -13 13 -19 14 -13 0 7 -9 22 -19 35 -19 23 -19 24 1 52 11 15
18 31 15 33 -3 3 -13 -6 -23 -21z"/>
<path d="M7051 5043 c7 -12 15 -20 18 -17 3 2 -3 12 -13 22 -17 16 -18 16 -5
-5z"/>
<path d="M7020 5046 c0 -2 8 -10 18 -17 15 -13 16 -12 3 4 -13 16 -21 21 -21
13z"/>
<path d="M6650 5060 c-20 -6 -21 -8 -5 -8 11 0 34 4 50 8 27 7 27 8 5 8 -14 0
-36 -4 -50 -8z"/>
<path d="M775 5378 c4 -90 8 -169 10 -175 3 -9 32 -13 101 -13 l97 0 -8 158
c-4 91 -11 160 -17 164 -11 6 -145 28 -174 28 -14 0 -15 -20 -9 -162z m146
133 l34 -7 7 -84 c3 -47 6 -115 7 -152 l1 -68 -85 0 c-60 0 -87 4 -90 13 -2 6
-6 81 -10 165 l-7 154 55 -7 c30 -4 69 -10 88 -14z"/>
<path d="M4521 5399 c-7 -22 -11 -43 -8 -45 2 -2 9 14 16 37 7 22 11 43 8 45
-2 2 -9 -14 -16 -37z"/>
<path d="M6571 5284 c-35 -29 -40 -50 -13 -57 13 -4 11 -5 -5 -6 -25 -1 -33
-31 -9 -31 8 0 23 -2 33 -5 10 -3 5 1 -10 8 l-29 14 66 17 c37 10 75 16 87 13
11 -3 18 -2 16 1 -2 4 -9 22 -16 40 -11 28 -17 32 -51 32 -27 0 -48 -8 -69
-26z m103 1 c4 -10 -1 -15 -17 -16 -12 0 -38 -7 -57 -15 -20 -8 -24 -12 -10
-9 14 3 43 8 65 11 35 4 33 3 -14 -11 -30 -8 -63 -13 -73 -9 -19 6 -18 8 8 35
31 32 87 41 98 14z"/>
<path d="M2967 5142 c-20 -81 -57 -259 -57 -278 0 -7 10 -19 23 -25 22 -12 22
-12 4 9 -18 20 -18 24 6 144 14 68 32 142 40 166 8 23 12 44 8 46 -4 3 -15
-25 -24 -62z"/>
<path d="M678 5123 c526 -3 682 -6 682 -15 0 -16 145 -467 171 -533 30 -76 16
-27 -41 150 -71 217 -110 345 -117 378 l-5 27 -687 -2 -686 -3 683 -2z"/>
<path d="M5595 5104 c-170 -23 -274 -46 -268 -61 3 -7 11 -13 18 -13 6 0 42
-16 78 -35 36 -19 67 -30 69 -25 2 6 21 13 43 15 l40 5 -40 -13 c-22 -7 -40
-15 -40 -17 0 -3 39 -44 85 -91 84 -84 86 -85 115 -73 17 7 37 13 45 13 8 0
-2 -7 -22 -16 -21 -8 -38 -21 -38 -28 0 -7 11 -37 25 -68 14 -30 33 -91 43
-135 l17 -81 58 36 c32 19 60 33 63 30 3 -3 -24 -23 -60 -44 l-66 -38 0 -52
c0 -28 3 -54 8 -57 4 -2 65 39 135 91 118 88 127 98 126 127 -2 29 -2 29 -6 4
-3 -20 -31 -46 -116 -110 -149 -112 -137 -107 -137 -55 l0 45 98 58 c53 31
107 64 120 71 12 8 20 18 17 23 -3 5 3 11 14 15 15 4 19 13 17 38 -2 18 -1 21
1 8 4 -20 9 -22 36 -18 31 6 31 5 7 -6 -32 -15 -40 -26 -40 -59 0 -35 11 -35
63 1 23 15 62 38 87 51 25 12 51 27 59 33 14 12 43 24 151 62 l64 24 -1 48 c0
31 1 36 4 16 l4 -33 67 2 67 2 -61 3 -62 4 -6 37 c-3 20 -9 47 -12 59 -5 17
-1 23 18 27 12 3 -35 3 -107 1 -87 -2 -117 0 -90 5 22 5 61 9 88 9 26 1 47 4
47 7 0 14 -73 104 -83 104 -8 0 -8 -3 -2 -8 6 -4 25 -25 42 -48 l32 -41 -72
-7 c-40 -3 -81 -8 -92 -11 -15 -4 -30 7 -62 50 l-43 55 93 2 92 2 -88 3 c-55
3 -94 0 -102 -7 -9 -8 -15 -8 -20 0 -3 5 -23 10 -43 10 -35 1 -36 1 -14 13 19
11 21 15 9 31 -12 16 -32 19 -178 21 l-164 3 158 -7 c99 -5 163 -13 170 -20
20 -20 -7 -28 -121 -34 -103 -6 -107 -5 -140 19 -18 15 -35 24 -38 21 -2 -2
11 -16 30 -30 33 -26 38 -27 148 -23 109 4 106 3 -30 -10 -35 -3 -62 -8 -59
-10 2 -2 60 1 128 6 l124 11 37 -43 c20 -23 36 -44 34 -45 -2 -2 -47 -12 -100
-22 -54 -11 -100 -22 -103 -25 -3 -3 -23 17 -44 44 -21 26 -44 52 -51 56 -7 4
10 -20 36 -54 69 -87 53 -86 -20 1 l-60 72 -49 -2 c-46 -1 -47 -1 -15 6 22 5
27 9 14 10 -27 1 -171 -24 -243 -43 -53 -13 -54 -13 -124 19 l-70 32 74 17
c41 9 121 22 179 29 l105 14 36 -29 c52 -40 59 -35 9 7 -23 19 -43 35 -43 34
-1 -1 -47 -7 -102 -15z m591 -140 c29 -50 57 -58 168 -48 l73 7 11 -39 11 -39
-4 40 c-4 32 -3 36 5 17 5 -12 7 -42 4 -66 l-6 -44 -62 -15 c-33 -9 -71 -19
-83 -23 -15 -4 -24 -2 -27 7 -29 106 -39 131 -46 119 -6 -9 -10 -7 -15 9 -3
11 -14 21 -23 21 -16 -1 -16 -1 0 -10 18 -11 47 -90 51 -138 2 -33 17 -45 17
-14 0 10 3 13 8 6 9 -14 54 -26 45 -11 -4 6 2 8 15 5 12 -4 20 -2 17 2 -3 5
18 13 45 19 62 13 60 13 60 1 0 -5 -6 -10 -13 -10 -7 0 -42 -12 -78 -26 -77
-31 -92 -34 -100 -22 -4 6 -37 -4 -79 -22 -39 -17 -74 -29 -77 -26 -3 3 5 10
18 15 75 29 109 44 106 47 -4 4 -108 -35 -122 -46 -5 -4 -20 -10 -31 -14 -19
-6 -22 -1 -34 56 -6 34 -21 80 -31 100 -23 45 -27 42 86 62 66 12 73 15 40 16
-41 2 -38 4 27 15 28 4 36 9 31 21 -5 15 -7 15 -15 0 -5 -9 -20 -16 -33 -16
-36 0 -168 -29 -179 -40 -5 -5 -1 -8 10 -6 10 2 14 1 7 -1 -8 -3 -4 -18 13
-50 13 -25 24 -53 24 -61 0 -8 -13 10 -28 39 -22 42 -35 55 -58 60 -22 5 -24
7 -7 8 12 0 26 8 31 17 5 10 43 22 105 34 54 10 102 22 108 25 6 4 0 20 -15
40 -15 19 -26 37 -26 41 0 14 32 -21 56 -62z m-334 10 c21 -22 47 -52 58 -67
l20 -26 -54 -15 c-65 -19 -95 -20 -46 -1 55 21 28 17 -67 -10 -96 -28 -124
-38 -79 -30 83 17 91 17 76 5 -13 -10 -12 -11 5 -5 11 3 34 8 50 11 26 4 24 2
-9 -11 -22 -8 -48 -12 -59 -9 -10 3 -31 1 -47 -6 -27 -11 -31 -9 -109 69 l-80
80 42 12 c23 6 74 18 112 25 57 11 61 13 20 9 -27 -2 -66 -6 -85 -9 -22 -3
-16 0 15 8 28 8 83 13 124 12 74 -1 75 -1 113 -42z m223 -84 c-16 -4 -41 -8
-55 -8 -22 0 -22 1 5 8 17 4 41 8 55 8 22 0 22 -1 -5 -8z m184 -110 c0 -14 -6
-4 -14 25 -18 63 -18 81 0 35 7 -19 14 -46 14 -60z m-302 57 c20 -21 53 -91
54 -117 1 -23 2 -23 9 5 7 24 8 19 7 -25 l-2 -55 -59 -32 c-77 -42 -97 -63
-28 -28 30 14 56 25 58 22 9 -8 -95 -57 -110 -51 -9 3 -35 -7 -61 -25 -25 -17
-48 -31 -49 -31 -2 0 -11 33 -20 73 -9 39 -28 99 -41 132 -14 33 -21 63 -16
68 5 5 55 24 112 43 63 20 88 32 64 29 -31 -4 -35 -3 -20 5 24 11 85 3 102
-13z m-160 7 c-3 -3 -12 -4 -19 -1 -8 3 -5 6 6 6 11 1 17 -2 13 -5z m448 -154
c-3 -5 -30 -22 -58 -37 -29 -14 -71 -39 -95 -55 l-44 -30 4 28 c3 25 14 32 98
69 52 23 97 41 99 39 1 -1 0 -8 -4 -14z"/>
<path d="M6228 4903 c7 -3 16 -2 19 1 4 3 -2 6 -13 5 -11 0 -14 -3 -6 -6z"/>
<path d="M6278 4723 c7 -3 16 -2 19 1 4 3 -2 6 -13 5 -11 0 -14 -3 -6 -6z"/>
<path d="M6083 5097 c-2 -4 -1 -7 4 -5 23 6 220 -15 232 -25 11 -10 13 -9 9 3
-3 11 -33 17 -122 25 -65 6 -120 7 -123 2z"/>
<path d="M6390 5090 c-41 -7 -39 -7 15 -5 42 3 66 -1 80 -11 18 -14 13 -15
-56 -12 l-77 3 28 -36 c16 -19 34 -47 40 -61 11 -23 19 -26 83 -31 40 -4 76
-2 80 2 5 5 -2 29 -15 54 l-23 46 -85 3 c-84 2 -84 2 -17 5 37 2 67 8 67 12 0
12 -47 41 -62 39 -7 0 -33 -4 -58 -8z m168 -101 c13 -22 22 -43 20 -45 -7 -7
-138 9 -138 17 0 4 -12 21 -26 38 l-26 31 74 0 73 0 23 -41z"/>
<path d="M6090 5075 c0 -2 10 -10 23 -16 20 -11 21 -11 8 4 -13 16 -31 23 -31
12z"/>
<path d="M6167 5063 c18 -2 50 -2 70 0 21 2 7 4 -32 4 -38 0 -55 -2 -38 -4z"/>
<path d="M5171 5021 c-70 -13 -90 -22 -127 -54 -24 -21 -60 -63 -80 -93 -21
-31 -55 -67 -76 -81 -37 -25 -38 -27 -21 -45 40 -45 48 -43 135 32 106 89 191
134 315 164 54 13 91 25 83 25 -36 2 -191 -43 -255 -74 -38 -19 -106 -65 -151
-103 l-81 -70 -24 18 c-13 10 -22 20 -19 23 3 2 19 13 37 25 17 12 47 46 67
76 20 30 56 72 81 94 40 35 56 41 135 56 85 16 91 15 137 -3 91 -35 89 -35 78
-23 -12 13 -122 53 -139 51 -6 -1 -49 -9 -95 -18z"/>
<path d="M668 4953 l672 -3 2 -48 1 -47 6 50 c7 59 17 51 43 -35 35 -116 138
-414 146 -422 4 -4 -21 76 -56 180 -35 103 -72 216 -82 250 -9 35 -23 68 -31
73 -8 5 -309 8 -694 6 l-680 -2 673 -2z"/>
<path d="M5345 4936 c-143 -37 -214 -71 -303 -142 -45 -36 -87 -74 -93 -85
-12 -23 -67 -59 -89 -59 -8 1 2 10 23 21 20 11 37 21 37 24 0 5 -31 -5 -45
-16 -5 -4 -45 -20 -87 -37 -67 -26 -78 -27 -78 -13 0 33 26 65 74 91 l49 26
25 -23 c14 -13 29 -23 34 -23 5 0 -7 14 -26 30 l-34 31 -54 -29 c-40 -22 -56
-38 -67 -65 -23 -62 -12 -70 60 -41 33 14 65 24 71 22 5 -2 -28 -19 -74 -38
l-82 -35 -28 -90 c-27 -86 -27 -91 -12 -124 22 -45 29 -203 15 -321 -22 -182
-109 -447 -183 -557 -46 -69 -33 -84 30 -33 20 16 75 60 122 97 159 126 253
234 508 582 35 47 81 118 103 156 51 92 50 67 -1 -35 -22 -44 -40 -85 -40 -91
0 -23 239 18 330 57 57 24 158 78 182 96 21 16 23 24 23 125 -1 115 -15 180
-64 283 -27 59 -180 225 -216 234 -11 3 -60 -6 -110 -18z m196 -73 l89 -87
-30 -13 c-77 -32 -212 -73 -290 -88 -148 -29 -201 -50 -253 -103 -61 -62 -66
-106 -19 -171 71 -97 43 -143 -223 -374 -82 -72 -152 -135 -154 -141 -6 -15
10 -2 175 140 184 160 231 212 239 268 8 53 1 80 -33 125 -37 49 -31 86 21
140 54 55 100 76 228 102 57 11 149 36 204 56 150 53 137 54 172 -19 45 -94
58 -152 58 -261 0 -115 6 -108 -140 -181 -94 -47 -205 -79 -313 -91 l-62 -7
36 78 c42 91 50 119 36 128 -6 3 -28 -27 -50 -66 -22 -40 -69 -112 -104 -159
-256 -349 -349 -456 -508 -582 -47 -37 -102 -81 -122 -98 -21 -16 -38 -26 -38
-21 0 5 7 15 16 22 34 29 113 227 163 410 44 162 53 409 18 492 -15 35 -14 42
9 118 28 92 29 92 162 145 80 31 103 46 155 99 69 70 159 134 227 160 41 16
212 64 234 66 5 0 49 -39 97 -87z"/>
<path d="M5175 4848 c-32 -17 -93 -78 -142 -141 -53 -69 -106 -109 -177 -136
-78 -29 -166 -72 -166 -82 0 -4 28 6 63 24 34 18 91 44 127 57 67 25 107 59
204 174 27 32 67 71 89 87 40 29 41 39 2 17z"/>
<path d="M5290 4469 c-14 -6 -51 -9 -83 -7 -31 3 -52 1 -45 -4 10 -6 9 -8 -4
-8 -9 0 -19 6 -21 13 -4 9 -6 9 -6 -1 -1 -19 43 -32 102 -31 69 1 101 11 105
32 4 19 -11 21 -48 6z m32 -11 c-7 -7 -44 -13 -85 -14 l-72 -2 67 7 c38 4 71
11 75 14 3 4 11 7 17 7 6 0 5 -5 -2 -12z"/>
<path d="M6226 4951 c-3 -4 6 -6 19 -3 14 2 25 6 25 8 0 8 -39 4 -44 -5z"/>
<path d="M6598 4910 c4 -14 7 -50 7 -80 0 -51 -2 -55 -22 -54 -13 0 -23 -3
-23 -8 0 -15 48 -8 54 8 11 28 6 98 -9 129 -11 23 -13 24 -7 5z"/>
<path d="M6538 4913 c6 -2 18 -2 25 0 6 3 1 5 -13 5 -14 0 -19 -2 -12 -5z"/>
<path d="M3094 4875 c-3 -8 -4 -79 -2 -157 4 -128 7 -150 31 -208 52 -125 160
-217 299 -255 69 -18 112 -17 192 6 36 10 38 12 32 42 -21 104 -147 287 -267
388 -93 79 -256 199 -268 199 -6 0 -14 -7 -17 -15z m120 -72 c154 -117 203
-160 273 -242 67 -79 160 -248 150 -274 -9 -24 -122 -42 -184 -29 -133 28
-258 126 -316 249 -31 66 -32 73 -35 221 -2 83 -1 152 4 152 4 0 52 -35 108
-77z"/>
<path d="M4682 4815 c0 -16 2 -22 5 -12 2 9 2 23 0 30 -3 6 -5 -1 -5 -18z"/>
<path d="M2906 4814 c-13 -35 -18 -393 -7 -514 15 -158 50 -350 65 -350 6 1
24 11 39 24 23 19 28 29 24 57 l-4 34 -2 -35 c-1 -25 -9 -41 -27 -53 -14 -11
-27 -17 -29 -15 -9 9 -45 218 -51 294 -6 77 -6 81 15 87 18 4 21 13 22 64 0
32 4 132 9 223 8 162 8 165 -13 182 -27 22 -33 22 -41 2z m50 -64 c-3 -25 -8
-125 -12 -222 -6 -171 -7 -178 -27 -178 -20 0 -20 3 -14 225 3 124 9 230 12
235 4 6 14 5 26 -3 17 -10 19 -19 15 -57z"/>
<path d="M4465 4514 c-154 -60 -286 -131 -385 -207 -52 -40 -95 -80 -95 -88
-1 -34 147 -99 225 -99 70 0 170 40 216 85 45 45 113 174 143 272 26 88 26 88
-104 37z m95 -31 c-24 -75 -91 -208 -130 -255 -65 -78 -201 -116 -302 -84 -57
19 -128 60 -128 75 0 18 194 155 289 204 93 48 254 116 277 117 8 0 6 -18 -6
-57z"/>
<path d="M2935 4329 c-19 -7 -19 -8 2 -8 19 -1 26 -12 43 -71 11 -38 24 -95
29 -127 l9 -58 2 45 c2 41 4 38 12 -28 6 -40 12 -71 15 -68 3 2 0 43 -6 91
-13 94 -51 228 -59 206 -3 -11 -7 -9 -16 6 -8 15 -16 18 -31 12z m84 -159 c0
-14 -9 7 -19 45 -11 39 -19 75 -19 80 2 20 38 -100 38 -125z"/>
<path d="M2978 4333 c7 -3 16 -2 19 1 4 3 -2 6 -13 5 -11 0 -14 -3 -6 -6z"/>
<path d="M4625 4204 c0 -90 -5 -146 -12 -159 -10 -15 -12 -16 -13 -4 0 8 -11
37 -24 63 l-24 48 29 79 c16 44 29 85 28 92 0 7 -5 -1 -11 -18 -57 -168 -194
-466 -240 -522 -6 -7 -8 -19 -5 -27 3 -8 0 -19 -7 -25 -7 -6 -19 -29 -26 -51
-8 -25 -17 -37 -23 -31 -5 5 -2 19 8 35 10 15 16 29 13 31 -3 3 -27 -30 -55
-72 -67 -102 -187 -241 -264 -306 -46 -37 -70 -68 -91 -112 -16 -33 -26 -49
-23 -35 3 14 7 30 8 35 2 6 6 16 10 23 18 28 -17 5 -95 -63 -10 -8 -21 -15
-25 -16 -5 0 -51 -31 -103 -68 -86 -61 -95 -70 -93 -97 3 -27 2 -27 -7 -6 -5
12 -12 22 -16 22 -11 0 -68 -42 -105 -77 -25 -24 -39 -31 -44 -23 -10 16 37
64 103 106 46 30 53 39 50 62 -3 24 -8 27 -43 30 -22 2 -42 7 -45 10 -12 16
-70 30 -77 19 -4 -7 -8 -6 -12 4 -6 16 -154 159 -164 159 -3 0 -28 -40 -56
-89 -32 -55 -57 -88 -66 -87 -8 1 -27 14 -42 28 -16 14 -41 33 -56 43 -15 10
-25 20 -23 23 7 6 53 -23 88 -55 l26 -25 -8 37 c-5 20 -23 79 -41 130 -32 90
-32 94 -16 119 17 26 50 34 73 18 7 -4 32 -34 56 -67 l44 -59 -48 -81 c-26
-44 -48 -84 -48 -90 0 -5 25 32 55 83 l54 93 -45 62 c-25 34 -50 64 -54 67 -4
3 -9 14 -11 25 -5 22 -30 27 -36 8 -3 -7 0 -13 7 -13 6 0 8 5 4 12 -4 7 -3 8
4 4 22 -13 12 -26 -18 -24 -24 2 -34 11 -56 51 -14 26 -24 51 -21 54 3 3 15
-13 27 -36 23 -45 23 -46 48 -30 17 11 15 19 -32 114 -28 57 -53 104 -56 104
-3 0 -18 -11 -35 -25 -20 -18 -23 -22 -8 -15 12 6 25 16 28 21 5 8 104 -170
105 -187 0 -2 -6 -3 -14 -3 -8 0 -28 24 -44 53 -17 28 -38 61 -47 72 -11 13
-9 6 4 -19 30 -54 18 -57 -15 -4 -15 23 -30 45 -34 48 -8 6 -30 68 -30 84 0 6
5 4 11 -4 9 -12 10 -12 5 3 -3 10 -6 24 -7 30 0 7 -4 4 -8 -6 -5 -14 -13 1
-31 57 -13 42 -25 76 -27 76 -2 0 -35 -16 -74 -36 -39 -19 -73 -34 -75 -31 -2
2 29 21 69 42 39 20 87 49 105 62 40 30 55 24 16 -6 -15 -11 -23 -21 -19 -21
5 0 17 7 27 16 14 14 18 14 22 3 57 -177 58 -181 40 -200 -10 -11 -15 -21 -12
-24 3 -3 13 4 23 15 17 19 17 23 -8 102 -37 117 -57 198 -57 230 0 15 -4 28
-9 28 -4 0 -4 -23 1 -51 7 -40 6 -54 -4 -60 -9 -6 -15 -1 -20 14 -6 15 -6 12
-3 -10 2 -18 0 -33 -5 -33 -13 0 -13 45 1 93 12 46 8 53 -21 37 -11 -6 -26 -9
-33 -7 -7 2 7 10 31 17 61 19 57 43 -5 35 -174 -24 -279 -50 -478 -119 -67
-23 -155 -66 -155 -76 0 -5 15 -17 33 -26 17 -9 40 -23 50 -32 9 -8 20 -13 23
-9 9 9 -6 28 -17 22 -5 -4 -9 -1 -9 4 0 6 6 11 14 11 8 0 21 8 28 18 12 16 21
18 46 13 4 -1 -5 -9 -20 -17 -21 -11 -28 -22 -28 -44 0 -34 -7 -37 -36 -15
-28 21 -31 19 -50 -30 -9 -25 -19 -43 -22 -41 -2 3 3 24 12 47 9 23 13 45 9
49 -16 16 -154 59 -233 74 -45 9 -109 16 -142 16 -58 0 -60 -1 -54 -22 16 -55
15 -80 0 -35 -15 41 -20 47 -45 47 -44 0 -206 -56 -283 -99 l-69 -37 0 -80 c0
-64 -1 -67 -4 -19 -2 33 -6 66 -8 73 -12 34 -255 -187 -347 -314 -62 -88 -122
-193 -113 -202 6 -7 -25 -42 -38 -42 -5 0 -7 9 -4 20 3 11 1 18 -4 14 -5 -3
-9 -14 -9 -25 0 -39 39 -18 119 62 45 45 81 76 81 70 0 -16 79 -58 171 -90 97
-34 209 -64 215 -58 2 2 -35 14 -83 27 -106 28 -211 69 -264 105 l-39 26 57
51 c32 28 102 80 156 116 l99 65 51 -54 c61 -63 116 -161 133 -239 7 -30 12
-55 11 -55 -150 -75 -259 -124 -269 -120 -7 3 -62 9 -122 15 -84 7 -138 6
-245 -6 -146 -16 -329 -41 -373 -50 -24 -6 -27 -3 -34 31 -3 20 -3 40 2 45 7
7 94 30 239 63 l20 5 -20 1 c-11 0 -72 -12 -135 -28 -67 -17 -119 -26 -124
-21 -13 13 5 18 121 40 66 12 87 19 63 20 l-35 2 40 8 c22 5 74 12 116 15 l76
7 21 47 c11 25 31 63 43 83 13 21 20 40 17 44 -12 11 -213 -38 -380 -92 -71
-23 -78 -28 -79 -52 -2 -24 -2 -24 -6 -4 -2 12 -7 22 -10 22 -6 0 -208 -87
-244 -105 -21 -12 -25 -19 -21 -50 3 -29 8 -35 21 -29 9 3 25 8 36 10 11 2 3
-4 -18 -13 -40 -17 -40 -15 -22 -83 4 -14 -3 -6 -14 17 -14 31 -24 41 -35 37
-9 -3 -16 -8 -16 -11 0 -3 6 -3 14 0 9 4 19 -8 30 -36 9 -22 14 -42 12 -44 -2
-3 -30 -11 -63 -19 -75 -20 -172 -55 -178 -65 -3 -4 22 3 56 16 49 19 425 115
452 115 4 0 8 12 8 28 2 25 2 25 6 3 4 -20 9 -22 36 -17 76 13 253 36 382 50
157 17 258 12 437 -24 140 -28 212 -53 353 -122 66 -32 121 -58 122 -58 2 0 3
6 3 13 0 8 -6 14 -13 14 -7 0 -62 22 -123 50 -125 58 -244 97 -322 108 -28 4
-49 11 -46 16 3 6 13 8 22 5 10 -3 42 8 72 24 30 16 51 29 47 30 -4 0 -30 -12
-58 -26 -28 -14 -53 -23 -56 -20 -7 6 149 81 187 91 20 4 18 1 -10 -15 -27
-16 -29 -19 -10 -14 14 3 30 10 35 15 6 4 38 -12 77 -41 65 -48 129 -122 163
-189 12 -25 19 -30 25 -20 6 9 10 5 15 -17 14 -61 24 -82 90 -179 38 -55 88
-140 111 -190 42 -88 106 -273 124 -358 l9 -42 -3 41 c-5 52 -78 277 -121 370
-18 39 -53 103 -79 142 -26 40 -49 77 -51 84 -3 8 47 52 116 105 l120 92 36
-17 35 -17 -73 -67 c-41 -38 -100 -87 -131 -110 -32 -23 -55 -44 -53 -46 8 -9
79 44 176 131 l96 85 64 -48 c72 -52 112 -96 147 -162 l24 -43 -86 -137 c-96
-153 -206 -347 -206 -363 1 -5 12 12 26 38 14 27 28 46 31 43 3 -3 -11 -35
-31 -71 -33 -61 -35 -69 -26 -108 15 -65 50 -413 50 -499 0 -64 -35 -354 -55
-455 -5 -28 -5 -28 5 -3 15 34 13 33 61 7 90 -48 88 -45 72 -87 l-15 -38 -36
40 c-19 21 -45 44 -56 49 -13 6 -10 0 9 -15 17 -14 42 -40 57 -58 l27 -33 21
50 c38 87 61 131 56 110 -2 -11 -7 -29 -11 -40 -5 -11 -5 -17 0 -13 4 4 22 46
40 95 21 54 40 90 52 94 50 20 175 -3 238 -43 40 -27 40 -26 17 -56 -16 -21
-33 -25 -162 -39 -80 -8 -149 -20 -155 -25 -7 -7 -7 -9 0 -5 9 4 152 21 266
31 20 2 41 6 48 10 24 15 9 -12 -50 -89 -34 -44 -49 -69 -34 -55 15 14 54 66
88 117 57 87 64 94 131 126 72 36 120 51 191 63 32 5 36 8 20 14 l-20 7 20 6
c11 3 0 3 -25 0 -61 -7 -171 -39 -195 -57 -11 -9 -22 -16 -25 -16 -3 0 11 35
32 78 21 42 38 82 38 87 0 6 47 10 120 10 97 0 123 -3 136 -17 15 -15 14 -19
-11 -52 -15 -20 -32 -36 -38 -36 -6 0 -8 -3 -5 -6 4 -3 16 -1 27 6 14 7 21 7
21 0 0 -5 -4 -10 -10 -10 -5 0 -15 -10 -21 -23 -11 -21 -11 -21 15 3 15 13 24
30 21 38 -2 7 2 24 11 37 12 18 13 28 4 44 -13 25 -6 23 -142 25 -58 0 -109 4
-112 7 -4 3 6 27 20 53 22 40 37 53 88 76 78 35 126 51 190 60 l51 8 -45 2
-45 2 55 9 c30 4 69 6 86 3 25 -5 35 -1 52 20 14 18 22 22 26 14 3 -7 3 -3 0
10 -4 15 -1 22 8 20 42 -9 165 371 198 612 l12 85 62 63 c72 76 154 141 214
171 24 12 41 25 38 28 -11 11 -154 -88 -235 -165 -68 -64 -85 -86 -91 -118 -6
-27 -7 -10 -5 56 1 52 1 73 -2 45 l-4 -50 -67 -1 c-37 -1 -84 -6 -106 -12 -35
-10 -40 -9 -56 11 -15 18 -16 25 -6 37 27 31 39 152 17 173 -10 9 -10 6 -1
-17 12 -33 -3 -118 -27 -147 -17 -21 -16 -29 5 -52 12 -14 13 -21 5 -24 -7 -3
-29 -16 -49 -29 -29 -20 -35 -22 -30 -8 18 47 25 105 17 145 -6 28 -9 35 -10
19 -1 -21 -14 -74 -42 -179 -2 -7 1 -15 8 -18 6 -2 10 4 9 14 -2 10 -1 12 1 6
5 -16 20 -17 29 -2 9 15 109 59 132 59 9 -1 -3 -9 -28 -19 -68 -26 -138 -70
-143 -89 -4 -16 -5 -16 -6 0 0 9 -20 30 -43 47 -23 17 -36 31 -28 31 7 0 22
-7 32 -17 10 -9 21 -14 24 -10 3 3 -18 19 -48 36 -63 36 -164 61 -248 61 -72
0 -72 -20 4 172 l53 133 74 -1 c84 -1 146 -25 204 -79 33 -29 35 -36 31 -76
-5 -38 -4 -40 4 -14 7 24 8 18 5 -30 l-4 -60 15 69 c14 70 38 111 58 99 6 -3
8 -3 4 2 -9 10 64 69 118 95 77 38 92 27 96 -75 l1 -50 7 55 c6 41 7 30 5 -45
-2 -74 -1 -88 5 -55 6 34 7 22 5 -45 -4 -86 -3 -88 6 -30 6 39 6 99 -1 170
-10 108 -9 110 15 147 28 42 91 92 144 114 19 8 32 17 28 20 -3 3 -15 0 -27
-6 -12 -6 -24 -9 -27 -6 -4 3 10 13 30 21 44 18 50 19 41 3 -4 -6 -3 -8 3 -5
10 6 85 -108 128 -192 23 -46 14 -74 -32 -90 -21 -7 -63 -29 -94 -47 -64 -38
-199 -160 -198 -177 0 -8 2 -8 6 1 19 47 268 222 317 222 15 0 24 33 24 94 0
28 -48 120 -95 182 -22 29 -22 33 -9 71 46 129 138 231 213 235 37 1 37 1 6 5
l-33 4 68 77 c37 42 83 98 101 124 19 26 38 45 42 42 5 -3 6 3 2 13 -5 14 -3
15 7 6 10 -9 9 -20 -4 -55 -16 -41 -16 -42 -11 -8 3 25 2 30 -5 19 -14 -25
-33 -157 -25 -186 l6 -26 -78 5 c-43 3 -67 2 -53 -2 14 -5 50 -9 80 -9 69 -1
130 -11 130 -21 0 -4 -12 -6 -27 -3 -20 2 -23 1 -10 -5 15 -6 13 -12 -23 -47
-22 -21 -42 -36 -45 -33 -3 2 2 24 10 48 8 23 15 44 15 46 0 2 -26 3 -57 2
l-58 -2 51 -3 51 -4 -13 -37 c-7 -20 -13 -45 -14 -54 0 -10 -16 -35 -36 -55
-39 -41 -174 -305 -173 -338 1 -16 2 -15 8 5 19 60 143 288 175 323 20 20 36
42 36 47 0 6 6 10 14 10 8 0 50 38 94 84 64 68 90 106 130 188 46 93 134 329
130 346 -1 4 4 24 11 44 11 34 10 44 -13 102 -34 84 -32 97 3 23 l28 -58 11
83 c13 87 14 193 3 242 -3 16 -6 -33 -6 -110z m-65 -90 c0 -8 -5 -14 -10 -14
-6 0 -4 -13 5 -30 21 -40 20 -44 -22 -63 -45 -20 -52 -15 -32 21 9 15 21 46
29 69 12 40 30 50 30 17z m-1745 -19 c-27 -13 -43 -24 -35 -24 13 -1 13 -2 0
-11 -8 -5 -22 -10 -30 -10 -13 0 -13 1 0 10 21 14 9 12 -40 -5 -54 -19 -52
-20 -38 10 12 27 26 33 111 45 82 12 85 10 32 -15z m-145 -15 c0 -3 -5 -11
-12 -18 -20 -20 4 -35 37 -22 15 6 35 8 45 5 9 -3 39 4 65 15 43 19 47 19 40
3 -4 -10 -9 -42 -12 -71 -6 -59 3 -51 -157 -137 l-69 -37 7 29 c3 15 9 54 13
86 6 62 19 75 87 91 15 4 26 10 23 13 -4 3 -32 -4 -64 -16 l-58 -22 1 -47 c1
-46 1 -46 -3 -4 -3 35 -8 42 -26 43 -21 2 -21 2 1 6 13 3 32 19 43 36 27 46
23 58 -5 16 -20 -28 -36 -39 -73 -48 -129 -31 -196 -55 -177 -62 16 -6 16 -8
2 -8 -26 -1 -30 15 -10 50 20 35 43 46 184 83 91 23 118 27 118 16z m1923
-143 c-6 -24 -27 -42 -101 -86 -58 -35 -91 -61 -89 -71 1 -9 -5 -14 -15 -14
-10 1 -15 -2 -12 -7 3 -5 0 -9 -5 -9 -15 0 -16 -2 32 81 23 41 51 94 61 117
10 23 23 39 27 36 5 -2 25 4 46 15 l38 19 14 -25 c9 -18 10 -35 4 -56z m-2248
26 c-15 -26 -15 -27 -9 -3 5 21 2 19 -20 -11 -14 -20 -32 -39 -41 -42 -17 -7
-65 11 -65 24 0 11 89 50 117 52 13 1 23 6 23 11 0 5 3 7 6 4 3 -4 -2 -19 -11
-35z m253 13 c2 -3 4 -41 5 -85 0 -45 2 -81 4 -81 2 0 18 7 34 16 17 8 33 13
36 10 3 -3 -12 -13 -33 -23 -22 -9 -40 -18 -42 -19 -1 -1 12 -25 29 -53 18
-28 30 -53 27 -56 -3 -3 -19 17 -36 45 -28 45 -34 50 -59 45 l-28 -6 24 14
c14 8 25 21 27 28 16 102 15 111 -6 32 -10 -40 -13 -43 -128 -99 -64 -32 -126
-58 -137 -58 -11 0 -41 15 -66 33 l-46 33 21 50 c16 38 24 48 38 44 61 -20 58
-20 58 17 0 40 3 42 155 87 55 16 93 29 84 29 -9 1 -47 -8 -84 -20 -36 -11
-72 -18 -78 -16 -21 7 137 46 167 41 16 -2 31 -6 34 -8z m-546 -45 c42 -11 97
-29 122 -40 l45 -21 -21 -50 c-23 -56 -27 -57 -108 -35 -31 8 -99 15 -157 15
-102 0 -103 0 -103 24 0 13 -3 38 -7 56 l-6 33 119 -6 c65 -3 143 -13 172 -22
30 -9 56 -14 58 -12 13 12 -135 40 -236 45 -107 4 -129 11 -130 36 0 14 167
-1 252 -23z m-273 -8 c7 -16 15 -51 18 -79 l5 -51 -59 -12 c-65 -12 -186 -50
-248 -76 -22 -10 -51 -21 -64 -26 -13 -5 -21 -12 -18 -15 3 -3 19 2 37 11 17
9 37 14 43 12 6 -2 -10 -12 -36 -22 -26 -10 -47 -23 -47 -29 0 -7 18 -30 41
-51 45 -45 80 -99 116 -183 13 -32 21 -43 18 -27 -12 57 -69 158 -117 207 -26
27 -48 51 -48 53 0 16 254 105 343 121 33 6 42 3 69 -22 53 -50 98 -131 113
-202 20 -94 20 -98 -17 -111 -69 -24 -327 -136 -328 -143 0 -4 24 -23 54 -43
29 -19 74 -57 98 -83 46 -49 104 -139 95 -148 -2 -3 -17 17 -33 43 -37 64
-105 135 -170 178 -49 33 -53 39 -64 93 -7 31 -25 85 -42 120 -34 72 -143 196
-165 187 -51 -19 -229 -153 -323 -242 -61 -58 -113 -103 -116 -100 -6 5 60
117 114 192 53 73 166 189 252 258 l75 60 3 -44 c6 -77 -4 -103 -46 -123 -47
-22 -101 -58 -179 -118 -59 -46 -62 -48 -66 -26 -4 20 -4 19 -6 -4 -1 -34 18
-37 45 -7 25 27 126 99 197 139 33 18 57 39 57 48 0 13 2 14 9 4 13 -22 21 10
21 87 l0 67 82 44 c86 46 206 89 249 90 19 0 29 -8 38 -27z m1085 -131 l34
-101 -91 -80 c-80 -69 -92 -76 -95 -57 -6 48 -46 155 -71 192 l-27 39 105 56
c58 31 107 55 109 54 1 -1 18 -48 36 -103z m1709 82 c-7 -3 -10 -11 -7 -18 14
-37 -121 -347 -191 -439 -29 -38 -37 -43 -64 -39 -17 2 -31 9 -31 14 0 5 -4 6
-10 3 -16 -10 -22 39 -11 101 l10 59 -4 -70 -4 -70 13 70 c14 79 41 165 66
210 10 19 55 54 118 94 56 36 100 67 97 69 -2 2 -29 -12 -59 -32 -56 -37 -100
-58 -81 -38 20 21 140 92 155 91 9 0 11 -2 3 -5z m-2647 -84 c64 0 130 -6 171
-17 51 -12 70 -14 84 -4 11 6 19 7 19 2 0 -5 -5 -11 -12 -13 -7 -3 9 -18 34
-36 101 -70 224 -229 258 -335 l12 -37 101 79 c114 88 114 89 80 194 -8 27
-13 50 -11 53 7 6 38 -94 38 -120 0 -13 3 -26 8 -30 4 -4 7 -11 7 -14 0 -4 23
-29 52 -55 29 -28 66 -76 85 -113 18 -35 35 -64 38 -64 3 1 36 44 74 96 37 52
70 93 73 90 3 -3 -3 -17 -14 -32 l-19 -26 32 -87 c18 -47 36 -99 40 -115 l7
-29 -39 31 c-44 35 -132 66 -149 52 -7 -6 -20 11 -39 50 -28 60 -102 152 -138
171 -16 9 -35 -2 -124 -68 -139 -105 -139 -108 21 -180 66 -30 134 -61 152
-69 l32 -14 36 51 c21 27 40 48 42 45 3 -3 -11 -28 -32 -56 l-37 -50 49 -20
c84 -36 307 -151 339 -175 17 -13 50 -47 74 -74 58 -70 26 -68 -46 3 -56 55
-166 122 -184 111 -6 -3 -10 -2 -10 4 0 6 -35 27 -77 47 -43 20 -138 65 -211
101 -73 36 -136 62 -139 59 -3 -3 -19 2 -35 10 -17 9 -51 22 -77 30 -42 13
-48 12 -71 -4 -13 -10 -35 -38 -48 -63 -14 -24 -40 -65 -58 -91 -19 -27 -29
-48 -24 -48 6 0 28 28 50 63 21 34 47 75 57 91 33 54 50 58 118 31 66 -27 115
-74 153 -147 l23 -45 -82 -117 c-45 -64 -79 -119 -77 -121 2 -3 42 50 87 117
l83 121 -16 35 c-9 19 -15 37 -12 40 3 2 10 -7 15 -21 5 -14 14 -28 19 -31 10
-6 57 52 49 60 -3 3 -13 -8 -23 -25 l-18 -30 -28 49 c-27 48 -51 72 -28 29 21
-38 4 -29 -28 15 -30 42 -24 57 10 28 8 -6 43 -24 76 -40 l62 -28 -31 -42
c-20 -27 -26 -42 -17 -43 7 0 4 -4 -7 -9 -16 -6 -177 -225 -193 -261 -2 -4 5
-9 15 -12 15 -4 14 -5 -4 -6 -12 0 -30 -13 -41 -28 -26 -37 -184 -299 -206
-341 -10 -19 -20 -31 -23 -29 -7 8 155 288 220 381 l20 28 -20 42 c-41 84
-145 180 -263 243 -30 16 -56 33 -57 38 -1 6 -4 28 -7 50 l-5 40 11 -38 c7
-23 17 -36 24 -33 17 7 213 156 220 168 6 9 -63 -40 -177 -127 l-46 -35 -13
48 c-13 48 -64 160 -81 176 -15 16 -11 25 24 42 40 21 119 85 113 92 -3 2 -24
-10 -46 -28 -23 -18 -57 -43 -75 -56 l-33 -22 -37 38 -38 39 29 6 c16 4 43 11
59 15 28 8 29 8 5 10 l-25 2 25 8 c14 4 39 8 55 8 l30 0 -30 -9 c-26 -7 -25
-8 10 -4 22 3 54 6 70 6 23 2 19 4 -15 8 -41 6 -37 8 45 15 113 9 118 11 106
33 -18 35 -147 173 -189 204 -57 42 -134 59 -252 57 l-95 -1 121 -7 c141 -8
187 -25 262 -99 43 -42 47 -50 46 -91 -3 -95 2 -87 -66 -94 -35 -3 -95 -14
-134 -24 l-72 -18 -16 85 c-10 47 -28 105 -41 128 -31 52 -74 103 -87 103 -5
0 5 -14 22 -31 17 -17 42 -54 56 -81 25 -50 58 -180 51 -202 -2 -6 -9 21 -16
59 -15 88 -49 157 -106 219 -43 48 -45 48 -90 41 -26 -3 -94 -22 -153 -40 -58
-19 -108 -33 -109 -31 -10 10 247 86 289 86 15 0 18 9 20 48 l1 47 4 -42 4
-43 105 0z m686 -65 c33 -45 65 -127 69 -177 3 -35 0 -39 -86 -107 -50 -39
-93 -71 -96 -71 -4 0 -10 12 -14 27 -13 54 -58 136 -106 193 l-48 58 105 52
c58 29 103 55 100 57 -3 3 -53 -20 -111 -51 -58 -31 -108 -56 -109 -56 -2 0
-7 7 -10 16 -4 12 -2 15 9 11 8 -4 57 16 108 42 116 61 149 62 189 6z m240
-106 c-68 -62 -121 -103 -127 -97 -3 2 23 27 58 55 34 28 73 63 86 77 14 14
27 23 30 20 3 -3 -18 -28 -47 -55z m145 -86 c27 -43 30 -54 19 -69 -15 -20
-17 -17 -41 64 -10 34 -20 60 -23 58 -5 -5 24 -102 39 -128 7 -14 -1 -32 -38
-80 -25 -35 -50 -67 -53 -71 -4 -5 -20 13 -35 40 -37 64 -69 102 -113 136 -19
15 -31 27 -25 27 6 0 51 33 99 74 l88 73 26 -36 c14 -20 40 -59 57 -88z m-667
17 l42 -50 -49 0 -49 0 -2 55 c-1 31 3 53 7 50 5 -3 28 -28 51 -55z m428 -117
c26 -27 62 -75 79 -109 l32 -60 -38 -51 -38 -51 -74 38 c-41 20 -96 45 -124
55 -66 25 -97 45 -93 62 3 14 186 162 201 163 4 0 29 -21 55 -47z m-1813 -3
c-14 -22 -32 -58 -41 -80 -13 -32 -21 -40 -43 -40 -39 0 -282 -38 -316 -50
l-30 -10 30 5 c17 3 53 7 80 10 35 4 26 0 -32 -13 -45 -10 -85 -21 -89 -25 -4
-4 -2 -19 5 -33 15 -33 4 -92 -18 -98 -72 -20 -203 -46 -210 -41 -5 3 -11 0
-13 -6 -2 -7 -5 3 -5 22 -1 19 -3 42 -5 53 -2 14 10 24 57 42 33 13 51 24 40
24 l-20 1 20 9 c11 5 29 9 40 9 l20 0 -20 -9 c-30 -13 -8 -12 38 2 32 10 36
13 21 19 -17 7 -17 8 4 10 12 1 27 3 32 4 6 1 15 3 21 4 5 0 7 5 4 11 -6 9 13
88 24 102 13 14 359 111 419 117 7 1 3 -14 -13 -39z m1101 9 c-22 -5 -42 -11
-44 -14 -2 -2 20 -32 49 -67 63 -76 111 -173 104 -208 -3 -14 -1 -39 4 -56 8
-28 6 -33 -20 -48 -16 -9 -72 -51 -125 -93 -92 -73 -97 -76 -111 -57 -8 10
-16 30 -19 44 -18 85 -97 207 -174 268 -28 22 -56 43 -63 46 -9 3 -8 7 3 15 8
6 10 11 5 11 -6 0 -16 -5 -23 -12 -7 -7 -12 -8 -12 -2 0 26 381 184 440 182
17 0 13 -3 -14 -9z m-1546 -168 c-9 -24 -9 -23 -5 9 l5 35 -13 -34 c-10 -25
-23 -38 -48 -46 -22 -8 -29 -14 -19 -17 8 -3 5 -3 -8 -1 -12 2 -41 -2 -64 -9
-33 -10 -37 -13 -22 -20 14 -6 11 -7 -9 -3 -15 3 -36 1 -47 -5 -18 -10 -20 -8
-20 18 0 26 8 32 88 70 156 74 156 74 165 50 4 -12 3 -33 -3 -47z m2873 -111
c4 -4 1 -23 -7 -42 l-15 -36 -39 20 c-22 10 -57 21 -78 24 -37 4 -36 4 9 -9
26 -8 51 -18 55 -22 4 -4 -4 -5 -18 -1 -14 4 -56 13 -95 21 -63 12 -66 13 -30
16 32 2 35 3 12 6 -16 3 -27 8 -25 11 2 4 21 39 43 79 l40 72 70 -67 c38 -36
73 -69 78 -72z m-423 84 c26 -11 28 -13 8 -9 -14 3 -34 7 -45 10 -18 6 6 -7
62 -32 17 -7 50 -30 73 -51 42 -36 43 -38 31 -65 -11 -25 -14 -27 -20 -10 -3
10 -2 26 3 36 5 10 5 17 0 17 -14 0 -22 -41 -12 -60 5 -10 6 -21 2 -25 -4 -5
-1 -5 6 -1 7 4 21 24 32 44 15 26 19 30 14 12 -3 -14 -13 -36 -21 -50 -14 -25
-14 -25 4 -4 10 12 23 30 29 40 10 17 16 18 80 5 38 -7 83 -14 99 -16 17 -1
38 -6 47 -10 13 -5 20 -2 24 11 3 11 10 28 15 39 7 16 7 14 3 -7 -6 -27 8 -39
21 -18 3 6 16 10 28 10 16 0 10 -6 -21 -20 -23 -10 -46 -29 -52 -42 -5 -15 -9
-17 -9 -7 -1 9 -13 21 -28 28 -28 11 -28 11 -7 -6 20 -17 20 -22 10 -121 l-11
-103 -52 60 c-44 49 -73 70 -175 122 -68 35 -152 77 -188 93 -36 15 -66 30
-68 31 -5 4 71 115 78 114 3 0 21 -7 40 -15z m930 -34 c-6 -12 -8 -29 -5 -39
3 -10 1 -31 -5 -45 -8 -23 -6 -34 18 -69 42 -62 95 -158 90 -162 -3 -3 -15 14
-28 37 -13 23 -52 85 -87 137 -35 52 -60 98 -56 102 8 8 76 57 81 58 1 1 -2
-8 -8 -19z m-115 -138 c-80 -40 -149 -105 -140 -132 3 -10 1 -21 -5 -25 -5 -3
-11 -21 -11 -38 -1 -25 -3 -21 -10 18 -5 28 -6 69 -3 93 6 40 11 46 98 106
l91 64 22 -26 23 -27 -65 -33z m-290 45 c6 -6 -3 -6 -23 -2 -21 4 -38 2 -47
-5 -17 -14 -19 -6 -5 20 9 17 14 18 38 8 15 -7 32 -16 37 -21z m83 -32 c2 -15
-10 -27 -47 -47 -53 -30 -111 -89 -111 -114 0 -30 31 -27 68 8 46 43 102 82
102 71 1 -4 4 -27 9 -49 8 -41 8 -42 -24 -47 -49 -8 -120 -45 -170 -89 -25
-22 -49 -38 -52 -34 -8 8 -5 113 6 191 7 48 8 36 6 -60 l-4 -120 10 110 c5 61
13 120 19 133 24 55 181 94 188 47z m-637 -48 c57 -29 105 -59 107 -67 3 -12
2 -12 -6 -2 -9 14 -11 11 -37 -63 -6 -16 -5 -17 4 -5 23 32 9 -14 -54 -175
-36 -91 -65 -170 -65 -176 0 -5 29 -9 65 -9 70 0 149 -14 203 -37 55 -23 31
-25 -29 -2 -69 27 -236 39 -250 18 -7 -11 -9 -11 -9 2 0 9 -27 42 -61 73 -58
54 -123 94 -199 122 -23 8 -28 13 -15 13 37 2 159 -65 218 -119 32 -29 61 -50
65 -46 4 4 33 73 64 154 l57 147 -42 37 c-23 21 -68 51 -102 67 -33 17 -54 31
-47 31 18 0 111 -48 151 -79 19 -14 31 -20 27 -13 -15 25 -123 89 -173 102
-26 7 -49 14 -51 16 -2 1 7 18 20 38 27 42 22 43 159 -27z m-751 8 c0 -2 -46
-39 -101 -82 -56 -43 -112 -86 -125 -96 -13 -10 -24 -15 -24 -10 0 5 33 34 73
65 39 31 92 73 117 92 42 33 60 42 60 31z m1570 -11 c-14 -10 -44 -35 -67 -58
-24 -22 -43 -36 -43 -31 1 24 93 105 120 105 9 0 5 -7 -10 -16z m-980 -34
c-18 -6 -20 -8 -7 -9 30 -2 122 -51 169 -90 l44 -36 -51 -138 c-29 -76 -55
-140 -58 -144 -4 -3 -23 9 -43 27 -58 51 -136 97 -198 118 -31 10 -59 22 -62
25 -4 4 72 121 146 223 17 23 35 33 65 32 16 0 15 -2 -5 -8z m422 -103 c15
-12 28 -28 30 -36 3 -17 64 -51 89 -51 10 0 20 -11 23 -25 6 -24 7 -24 71 28
70 55 134 86 175 85 18 0 14 -3 -13 -9 -50 -12 -68 -22 -154 -87 -49 -36 -73
-62 -74 -76 l-1 -21 -6 22 c-21 69 -127 129 -251 142 -74 8 -75 8 -20 10 31 0
78 -6 104 -14 27 -8 51 -12 53 -10 9 8 -104 35 -149 35 -52 0 -65 14 -48 52 8
21 9 20 5 -7 -4 -28 -4 -27 11 7 l16 38 56 -30 c31 -17 68 -40 83 -53z m-559
-207 c74 -31 175 -102 201 -142 14 -21 10 -35 -43 -183 -67 -182 -78 -218 -62
-195 17 24 13 -8 -5 -45 l-14 -30 6 30 c12 60 -8 14 -59 -141 l-53 -158 -34
49 c-73 107 -244 253 -317 271 -12 3 -25 14 -28 23 -7 23 128 265 296 529 18
28 26 28 112 -8z m667 -165 c-6 -31 -14 -54 -17 -52 -3 3 1 31 8 61 7 31 14
54 16 52 3 -2 -1 -30 -7 -61z m286 -3 c7 -4 -23 -7 -65 -8 -58 -1 -67 1 -36 6
57 10 88 11 101 2z m-529 -12 c49 -12 139 -53 169 -78 12 -10 24 -29 28 -43 3
-13 3 -19 0 -12 -4 8 -15 8 -42 -4 -72 -29 -99 -71 -83 -128 12 -46 -10 -53
-55 -19 -39 30 -40 39 -14 118 25 74 26 99 3 94 -22 -4 -70 -99 -79 -155 -4
-27 -11 -43 -20 -43 -17 0 -13 21 22 124 31 89 31 108 2 104 -18 -2 -29 -19
-50 -75 -15 -39 -31 -97 -34 -127 l-7 -55 37 -22 c20 -11 36 -24 36 -28 0 -8
-26 -23 -82 -45 -23 -9 -43 -27 -53 -46 -21 -41 -45 -152 -45 -212 0 -41 3
-48 19 -48 22 0 25 7 45 111 20 106 39 145 81 170 49 29 44 36 -7 7 -47 -26
-59 -52 -86 -187 -19 -94 -42 -121 -42 -49 0 61 25 172 46 204 11 15 45 39 81
55 71 32 74 45 16 79 -35 21 -35 21 -29 71 8 56 38 144 60 175 28 38 29 2 3
-79 -40 -123 -40 -125 19 -167 50 -35 51 -36 36 -60 -11 -20 -9 -19 12 5 29
33 35 24 10 -15 l-16 -25 21 24 c12 13 21 29 21 35 0 15 -35 49 -69 66 -20 10
-22 17 -17 52 10 63 76 181 76 135 0 -8 -9 -40 -20 -73 -27 -82 -26 -97 15
-128 26 -20 41 -25 61 -20 20 5 24 11 20 28 -3 11 -9 30 -12 41 -10 40 74 113
115 100 64 -20 80 -89 32 -140 l-30 -30 15 -55 c20 -73 13 -124 -25 -204 -38
-77 -112 -148 -178 -170 -41 -14 -44 -14 -72 9 -34 29 -50 85 -40 142 9 47 44
130 67 156 12 13 13 20 4 29 -9 9 -18 6 -38 -13 -33 -31 -51 -75 -71 -169 -8
-41 -19 -79 -24 -84 -17 -18 -22 27 -10 92 14 74 34 119 65 145 l21 18 -23
-11 c-32 -16 -49 -47 -67 -124 -19 -83 -17 -130 7 -134 18 -3 25 16 48 130 10
51 66 155 77 144 3 -2 -6 -24 -19 -48 -41 -73 -58 -155 -44 -214 8 -36 1 -43
-67 -68 -30 -11 -52 -15 -60 -9 -16 12 -80 30 -139 38 -27 4 -48 11 -48 15 0
4 27 86 60 182 33 95 58 180 55 188 -6 14 104 334 112 327 2 -3 -21 -74 -52
-158 -30 -85 -55 -158 -55 -164 1 -13 31 64 80 203 22 63 42 118 45 123 8 12
128 11 182 -1z m533 -10 c36 -23 -2 -274 -74 -480 -29 -82 -87 -212 -93 -207
-2 2 13 39 32 82 61 133 147 451 144 532 -1 15 -7 -6 -14 -47 -35 -201 -89
-378 -162 -524 -54 -107 -55 -108 -84 -102 -61 12 -280 -38 -324 -74 -6 -5
-16 -6 -20 -2 -5 4 -5 2 -2 -5 5 -8 17 -6 45 7 50 24 129 50 150 50 9 -1 -14
-11 -53 -24 -38 -12 -85 -30 -104 -40 -47 -25 -60 -9 -36 45 11 23 21 37 23
31 2 -6 -2 -20 -8 -31 -6 -12 -8 -21 -6 -21 3 0 12 13 21 30 11 21 27 32 55
40 27 7 60 30 98 68 47 46 64 71 85 130 31 83 32 107 14 178 -13 50 -13 52 15
83 38 42 39 100 3 134 -33 30 -26 48 33 86 57 36 93 50 152 61 64 11 93 11
110 0z m-564 -291 c19 -11 34 -25 34 -30 0 -5 -18 3 -40 17 -22 15 -40 28 -40
30 0 8 14 3 46 -17z m-718 -100 c66 -37 194 -158 247 -233 22 -30 44 -54 49
-52 6 1 31 65 57 142 26 76 48 133 48 125 1 -7 -21 -77 -48 -156 l-50 -143 61
-6 c34 -4 84 -16 112 -27 48 -18 54 -18 101 -3 27 9 55 22 60 28 8 10 15 6 32
-14 21 -26 21 -27 3 -68 -11 -25 -15 -42 -8 -44 6 -2 -3 -30 -20 -63 -67 -131
-120 -255 -113 -260 5 -2 30 6 57 19 65 30 135 49 165 43 19 -3 18 -5 -8 -6
-80 -3 -252 -87 -277 -134 -9 -18 -14 -23 -10 -12 3 11 8 27 11 35 3 10 -13
24 -50 43 -68 34 -152 51 -211 43 l-45 -7 -21 -65 c-12 -36 -24 -63 -27 -60
-3 2 5 31 17 65 l22 60 -21 33 c-21 33 -81 97 -136 144 l-30 26 38 -21 c21
-12 41 -21 44 -21 9 0 -40 36 -59 43 -15 5 -18 19 -18 84 0 43 -9 163 -21 266
-11 104 -19 193 -17 199 2 5 38 -13 80 -41 82 -55 179 -152 233 -234 33 -50
34 -54 23 -96 l-11 -44 -116 7 c-64 3 -127 8 -141 11 l-25 6 23 -11 c13 -5 75
-13 139 -17 l114 -6 -6 -41 c-4 -23 -16 -62 -27 -88 l-20 -48 -57 0 c-31 0
-61 -4 -68 -8 -7 -5 8 -27 45 -67 l57 -61 60 1 c33 0 78 -3 100 -7 34 -7 36
-6 15 3 -14 7 -57 12 -96 13 l-71 1 12 35 c33 91 22 85 158 87 117 2 212 16
222 33 3 4 -15 2 -39 -5 -24 -7 -101 -17 -171 -21 l-128 -7 7 24 c4 13 15 54
24 90 l17 66 80 11 c88 11 139 27 130 41 -6 11 -131 41 -169 41 -17 0 -27 -8
-35 -27 -11 -27 -11 -27 -6 7 4 30 -2 44 -45 102 -68 90 -194 206 -266 245
-32 18 -52 33 -44 33 8 0 39 -14 68 -31z m425 -355 l72 -17 -35 -12 c-50 -17
-170 -29 -170 -16 0 5 4 21 10 35 11 31 25 32 123 10z m-157 -105 c-8 -35 -33
-109 -56 -164 -23 -55 -39 -86 -35 -70 4 17 20 60 36 96 15 37 36 101 46 144
9 43 18 74 20 68 2 -6 -3 -39 -11 -74z m-275 -125 c12 -14 11 -16 -5 -13 -11
2 -21 10 -24 17 -5 17 13 15 29 -4z m59 -49 c18 -16 45 -49 62 -73 l30 -43
-23 -62 c-12 -34 -31 -79 -41 -100 l-19 -38 -27 20 c-16 11 -47 27 -70 36 -36
15 -41 20 -36 43 6 35 34 234 34 241 0 3 13 6 29 6 19 0 41 -11 61 -30z m134
3 c-3 -13 -12 -35 -18 -50 l-11 -26 -38 49 -38 49 56 0 c54 0 56 -1 49 -22z"/>
<path d="M1025 3388 l-50 -53 55 50 c30 28 57 51 59 53 2 1 0 2 -5 2 -5 0 -32
-24 -59 -52z"/>
<path d="M1592 3315 c0 -16 2 -22 5 -12 2 9 2 23 0 30 -3 6 -5 -1 -5 -18z"/>
<path d="M2325 3479 l-60 -6 63 -1 63 -2 25 -55 c20 -42 25 -68 22 -105 -1
-28 0 -50 5 -50 27 0 -12 186 -46 215 -7 6 -37 8 -72 4z"/>
<path d="M2956 3344 c-21 -31 -36 -57 -34 -59 2 -2 21 21 42 51 21 31 36 57
34 59 -2 2 -21 -21 -42 -51z"/>
<path d="M2485 3256 c17 -7 32 -11 35 -9 8 7 -24 23 -45 22 -15 0 -13 -3 10
-13z"/>
<path d="M2285 3130 c-44 -34 -81 -64 -82 -68 -3 -9 58 -44 65 -38 2 3 -7 11
-22 17 -14 7 -26 15 -26 19 0 4 34 33 75 64 64 48 84 66 73 66 -2 0 -39 -27
-83 -60z"/>
<path d="M2336 2977 c70 -52 141 -129 161 -176 8 -18 16 -31 19 -28 11 11 -41
93 -90 142 -46 47 -125 105 -142 105 -3 0 20 -19 52 -43z"/>
<path d="M2372 3630 c14 -22 24 -19 15 5 -4 8 -11 15 -17 15 -6 0 -6 -7 2 -20z"/>
<path d="M2550 3310 c55 -48 79 -56 33 -11 -23 23 -48 41 -55 41 -7 0 3 -14
22 -30z"/>
<path d="M483 3214 c4 -20 -5 -24 -102 -49 -58 -15 -110 -31 -115 -35 -4 -5
41 5 100 21 131 35 134 35 135 7 1 -14 3 -17 6 -7 2 8 -3 31 -12 50 -9 18 -14
24 -12 13z"/>
<path d="M1970 3415 c0 -6 22 -32 49 -57 32 -30 63 -75 90 -128 23 -45 41 -77
41 -70 0 28 -79 158 -127 209 -29 31 -52 51 -53 46z"/>
<path d="M1832 3361 c-62 -27 -116 -51 -118 -54 -3 -2 2 -7 11 -11 11 -4 14
-2 9 6 -5 8 -2 9 10 5 10 -4 37 -2 60 4 22 7 84 15 136 19 l95 7 -75 1 c-41 1
-104 -5 -139 -13 -35 -9 -65 -14 -67 -12 -2 1 27 16 64 31 119 51 147 64 137
65 -5 0 -61 -21 -123 -48z"/>
<path d="M3829 3147 c21 -23 26 -25 34 -12 4 9 6 21 3 28 -2 7 -5 4 -5 -5 -1
-23 -9 -23 -35 -1 -15 13 -14 10 3 -10z"/>
<path d="M3602 2950 c0 -14 2 -19 5 -12 2 6 2 18 0 25 -3 6 -5 1 -5 -13z"/>
<path d="M3290 2796 c0 -2 8 -10 18 -17 15 -13 16 -12 3 4 -13 16 -21 21 -21
13z"/>
<path d="M3387 2450 c3 -11 7 -20 9 -20 2 0 4 9 4 20 0 11 -4 20 -9 20 -5 0
-7 -9 -4 -20z"/>
<path d="M3454 2320 l-29 -121 -52 -24 c-29 -13 -53 -20 -53 -16 0 5 20 16 44
25 51 20 50 18 66 118 9 57 9 80 1 97 -22 41 -39 25 -51 -51 -6 -40 -13 -82
-15 -93 -2 -11 -25 -32 -50 -47 -27 -16 -45 -35 -45 -45 1 -17 1 -17 11 0 5 9
22 24 37 32 15 8 33 18 40 23 7 5 19 48 27 96 7 49 16 90 18 92 2 3 10 -2 17
-11 10 -12 10 -31 0 -95 l-13 -81 -48 -25 c-27 -13 -49 -31 -49 -39 0 -21 18
-18 75 13 l50 27 28 118 c18 72 33 115 39 111 22 -14 -12 -213 -42 -249 -6 -7
-31 -18 -55 -25 -52 -15 -60 -39 -19 -60 42 -23 47 -43 23 -102 -41 -105 -109
-211 -109 -169 0 5 20 54 45 111 25 56 43 110 40 119 -3 10 -20 31 -37 47 -18
16 -26 21 -19 12 7 -9 10 -22 7 -27 -4 -6 -1 -19 5 -30 11 -16 6 -32 -28 -102
-40 -84 -82 -145 -83 -121 0 7 8 29 19 50 10 20 30 67 45 105 25 62 26 69 12
95 -9 15 -15 21 -16 12 0 -9 5 -21 11 -27 11 -11 -26 -118 -63 -178 -22 -37
-24 -75 -3 -75 34 0 131 201 121 249 l-6 26 15 -27 c14 -25 13 -32 -30 -124
-50 -107 -55 -134 -26 -134 23 0 51 45 97 157 38 91 36 118 -10 142 -14 8 -26
18 -26 21 0 4 23 16 52 26 51 19 52 21 70 79 25 80 29 208 7 213 -12 2 -21
-24 -45 -118z"/>
<path d="M3330 2255 c-7 -9 -11 -18 -8 -20 3 -3 11 1 18 10 7 9 11 18 8 20 -3
3 -11 -1 -18 -10z"/>
<path d="M3281 2124 c0 -11 3 -14 6 -6 3 7 2 16 -1 19 -3 4 -6 -2 -5 -13z"/>
<path d="M2890 1705 c29 -20 55 -34 57 -32 4 5 -90 67 -101 67 -5 0 16 -16 44
-35z"/>
<path d="M2856 1699 c85 -54 86 -56 64 -98 -11 -20 -29 -58 -41 -86 -22 -53
-41 -93 -77 -163 l-23 -43 -27 19 c-15 11 -38 22 -52 26 -14 4 -1 -7 29 -23
30 -17 56 -30 57 -28 13 12 164 330 164 344 0 5 -124 83 -133 83 -6 0 11 -14
39 -31z"/>
<path d="M2861 4034 c0 -11 3 -14 6 -6 3 7 2 16 -1 19 -3 4 -6 -2 -5 -13z"/>
<path d="M2851 3905 c1 -19 18 -51 18 -35 0 8 -4 22 -9 30 -5 8 -9 11 -9 5z"/>
<path d="M6012 3668 c-27 -27 -7 -78 30 -78 27 0 52 44 38 69 -12 23 -49 28
-68 9z m58 -14 c11 -13 10 -19 -8 -36 -17 -18 -23 -19 -36 -8 -19 15 -20 32
-4 48 16 16 33 15 48 -4z"/>
<path d="M4258 3355 c-3 -11 -9 -29 -13 -40 -3 -11 1 -7 10 8 9 16 15 33 12
40 -2 6 -6 3 -9 -8z"/>
<path d="M833 3283 c9 -2 23 -2 30 0 6 3 -1 5 -18 5 -16 0 -22 -2 -12 -5z"/>
<path d="M775 3269 c51 -10 92 -10 50 1 -16 4 -43 8 -60 8 -25 0 -24 -2 10 -9z"/>
<path d="M4218 3208 c-20 -19 -61 -85 -97 -157 -56 -113 -96 -202 -238 -546
-136 -329 -257 -551 -408 -755 -39 -52 -85 -115 -102 -140 -17 -25 -60 -82
-97 -127 -36 -46 -61 -83 -56 -83 12 0 97 107 205 260 49 69 98 136 111 150
58 66 217 361 298 555 26 61 51 119 56 130 5 11 30 72 56 135 63 157 169 389
222 482 38 68 78 115 89 104 13 -13 -172 -571 -232 -703 -8 -17 -15 -34 -15
-38 0 -13 -147 -303 -197 -387 -48 -81 -166 -211 -247 -272 -27 -20 -49 -50
-72 -100 -52 -113 -105 -186 -185 -257 -41 -36 -85 -73 -99 -82 -13 -9 -19
-17 -12 -17 17 0 154 113 197 163 20 23 59 88 86 144 38 79 58 109 91 135 89
69 203 195 250 274 147 250 266 536 388 934 23 74 48 155 56 179 8 25 12 47 9
49 -3 3 -5 -1 -5 -9 0 -11 -2 -11 -9 -1 -6 10 -16 6 -43 -20z"/>
<path d="M101 3168 c-56 -29 -98 -54 -93 -56 6 -2 40 13 76 32 36 20 82 42
101 50 34 15 35 14 35 -8 0 -19 -11 -28 -52 -46 -115 -48 -169 -75 -159 -78 7
-2 23 4 38 13 20 14 30 15 50 6 18 -8 22 -8 17 0 -4 7 0 9 13 5 13 -4 20 -2
20 8 0 11 -6 12 -24 5 -36 -14 -42 -10 -10 7 16 8 38 12 50 9 16 -5 18 -4 8 3
-10 7 -4 13 23 22 33 11 37 15 34 43 -2 17 -8 32 -13 34 -6 2 -57 -20 -114
-49z"/>
<path d="M7880 3150 c-63 -4 -195 -11 -293 -15 -223 -10 -222 -10 -208 -110 6
-38 15 -302 21 -585 5 -283 12 -614 15 -735 3 -121 10 -434 15 -695 16 -762
22 -1005 28 -1010 2 -3 2 116 -2 265 -3 149 -10 484 -16 745 -5 261 -12 572
-15 690 -3 118 -10 451 -16 740 -5 289 -14 552 -19 584 -14 90 -11 92 168 99
380 17 433 21 438 29 3 4 4 7 2 6 -2 -1 -55 -4 -118 -8z"/>
<path d="M945 3130 c-33 -4 -112 -13 -175 -19 -63 -7 -153 -20 -200 -31 -47
-10 -157 -35 -245 -54 -155 -35 -329 -86 -320 -94 2 -2 37 7 77 21 40 14 147
41 238 61 91 21 203 45 250 56 47 10 132 24 190 30 58 6 147 15 199 21 191 22
566 -42 748 -127 88 -40 143 -79 143 -98 0 -8 21 -44 46 -81 25 -36 44 -68 42
-69 -62 -46 -194 -125 -225 -134 -26 -8 -43 -19 -43 -28 0 -31 71 -297 104
-387 48 -132 80 -197 133 -268 57 -76 127 -128 224 -169 73 -30 77 -34 83 -68
8 -50 7 -90 -1 -95 -14 -9 -198 69 -257 108 -129 85 -252 317 -335 629 -33
125 -39 141 -60 144 -21 3 -22 1 -16 -35 32 -186 97 -390 173 -538 97 -187
196 -269 398 -326 44 -12 83 -25 87 -29 10 -8 -1 -121 -13 -141 -12 -18 -69 0
-199 63 -82 40 -119 65 -171 117 -36 36 -78 87 -92 113 -33 60 -101 228 -118
291 -7 27 -18 47 -26 47 -8 0 -14 -3 -14 -8 0 -4 -21 -31 -47 -61 l-46 -53 12
-81 c17 -105 42 -148 154 -264 50 -51 86 -93 81 -93 -18 0 -193 186 -229 243
-20 32 -34 61 -32 64 3 3 -1 23 -9 45 -8 22 -14 50 -13 62 0 11 8 -4 19 -34
21 -64 26 -56 6 9 -7 25 -19 47 -26 49 -13 5 -12 -24 4 -98 5 -23 5 -23 -6 3
-7 15 -17 27 -23 27 -24 0 -108 -251 -117 -349 -4 -43 -25 -51 -38 -16 -26 67
-96 531 -113 750 -3 33 -4 31 -5 -13 -3 -79 15 -221 58 -478 45 -260 54 -294
80 -294 20 0 30 19 30 59 0 43 35 172 71 256 l31 76 47 -83 c75 -134 281 -336
281 -275 0 7 -32 44 -71 82 -114 112 -154 176 -169 268 l-13 78 30 32 c16 18
39 45 51 60 l21 28 16 -55 c19 -65 77 -212 110 -276 32 -63 104 -141 173 -186
52 -35 251 -123 279 -124 20 0 23 -15 12 -78 -11 -59 -12 -61 -36 -51 -42 16
-86 10 -151 -21 -39 -18 -96 -34 -149 -42 l-86 -12 -71 75 c-67 72 -136 184
-136 223 0 9 -7 16 -15 16 -8 0 -15 -6 -15 -13 0 -25 33 -112 58 -152 33 -54
151 -185 166 -185 6 0 -20 33 -60 73 -69 70 -134 166 -134 197 0 8 15 -11 32
-44 18 -32 63 -91 100 -131 l67 -72 88 13 c49 8 120 28 161 45 57 25 82 30
113 26 23 -3 45 -9 50 -14 10 -10 -9 -107 -66 -342 -79 -322 -66 -286 -105
-283 -18 1 -80 21 -137 44 -85 34 -101 43 -94 57 15 28 20 104 9 125 -28 54
-97 130 -169 186 -79 62 -90 78 -66 99 11 8 30 4 78 -15 81 -33 189 -44 210
-21 8 9 40 24 72 33 33 10 57 22 57 30 0 18 -17 18 -70 -1 -23 -8 -54 -16 -69
-16 -22 -1 -20 -3 9 -8 33 -7 31 -8 -25 -14 -33 -4 -73 -3 -90 2 -29 9 -29 9
15 12 l45 2 -44 6 c-41 5 -49 12 -97 74 -60 80 -128 201 -151 270 -18 55 -25
60 -18 15 l5 -33 -14 35 c-17 42 -21 27 -5 -21 35 -108 94 -214 176 -316 27
-32 45 -44 84 -53 27 -7 66 -9 85 -5 24 4 34 3 29 -4 -3 -6 -30 -11 -58 -11
-47 1 -93 13 -185 51 -31 13 -35 12 -48 -5 -26 -36 -16 -54 66 -117 92 -71
183 -183 175 -214 -2 -11 -5 -31 -5 -45 -1 -53 -13 -56 -82 -20 -142 74 -327
197 -421 281 -44 38 -48 46 -43 73 4 17 16 93 27 169 l20 138 -26 82 c-61 191
-102 464 -112 738 l-6 175 94 28 c52 15 130 41 175 57 50 18 100 29 133 29 43
0 52 3 49 17 -2 9 -21 22 -43 30 -36 13 -46 12 -100 -6 -147 -50 -511 -143
-715 -182 -97 -19 -159 -23 -402 -26 -245 -4 -289 -7 -300 -21 -11 -13 -11
-14 7 -5 12 7 130 13 300 16 235 3 298 8 395 26 206 40 573 133 715 182 59 21
62 21 100 3 l40 -18 -60 -6 c-33 -4 -105 -23 -160 -42 -55 -19 -131 -43 -169
-54 l-69 -19 6 -180 c9 -275 51 -550 111 -741 l26 -81 -20 -139 c-11 -76 -22
-155 -26 -175 -6 -33 -3 -38 42 -78 57 -50 212 -160 301 -214 139 -84 441
-208 475 -194 9 3 20 32 28 69 7 34 35 151 62 258 45 183 119 613 107 625 -4
3 -46 17 -95 31 -222 64 -333 172 -450 439 -50 112 -134 428 -118 444 11 12
25 -23 58 -144 84 -314 206 -547 329 -628 28 -19 101 -53 161 -76 86 -34 111
-40 117 -29 17 26 -9 362 -42 548 -23 126 -111 405 -158 498 -16 32 -55 96
-86 143 -31 46 -65 101 -76 122 -16 30 -35 45 -109 82 -111 56 -223 89 -406
120 -164 28 -314 37 -399 25z m1066 -502 c54 -105 133 -348 158 -490 32 -179
52 -398 36 -398 -20 0 -148 68 -192 101 -92 69 -174 199 -237 377 -33 93 -98
351 -93 366 3 7 29 19 58 29 30 10 88 42 129 71 87 63 77 67 141 -56z m-462
-1188 c0 -9 -4 -8 -9 5 -5 11 -9 27 -9 35 0 9 4 8 9 -5 5 -11 9 -27 9 -35z
m14 -158 c25 -39 62 -89 82 -111 21 -23 33 -41 27 -41 -37 0 -214 278 -212
333 1 7 14 -16 30 -50 15 -34 48 -93 73 -131z m352 -137 c-16 -8 -39 -14 -50
-14 -13 0 -8 5 15 14 46 18 74 17 35 0z"/>
<path d="M4193 3117 c-12 -12 -44 -92 -71 -177 -75 -227 -130 -385 -154 -438
-98 -220 -200 -409 -293 -544 -44 -65 -49 -74 -20 -43 42 46 119 168 192 305
81 151 160 345 249 614 52 154 92 258 106 273 12 12 19 25 16 28 -2 3 -14 -5
-25 -18z"/>
<path d="M3583 3105 c-8 -23 4 -30 29 -16 l23 12 -22 -5 c-13 -2 -23 0 -23 4
0 5 10 11 23 13 l22 4 -23 2 c-12 0 -25 -6 -29 -14z"/>
<path d="M995 3053 c111 -65 265 -171 265 -184 0 -32 -367 -117 -886 -204
l-161 -27 -88 65 c-49 36 -98 68 -109 71 -18 4 -18 2 4 -12 13 -9 61 -44 105
-76 l80 -59 165 27 c381 63 718 134 828 172 80 29 90 47 45 80 -132 96 -291
194 -315 194 -7 0 23 -21 67 -47z"/>
<path d="M66 3072 c-3 -4 4 -9 15 -9 23 -2 25 3 4 10 -8 4 -16 3 -19 -1z"/>
<path d="M8 3043 c7 -3 16 -2 19 1 4 3 -2 6 -13 5 -11 0 -14 -3 -6 -6z"/>
<path d="M3856 2532 c-156 -374 -329 -692 -393 -718 -17 -8 -35 -19 -39 -25
-4 -8 0 -7 16 1 39 21 33 3 -22 -63 -29 -35 -85 -109 -125 -163 -39 -54 -81
-109 -92 -121 -12 -12 -21 -28 -21 -35 0 -7 -39 -55 -85 -106 -47 -51 -96
-110 -110 -132 -14 -22 -32 -40 -40 -40 -23 0 -19 9 33 69 58 67 135 171 130
176 -1 2 -32 -34 -68 -78 -41 -52 -73 -83 -88 -85 -12 -2 -51 4 -86 12 -34 9
-69 16 -77 15 -18 -2 85 -30 133 -36 l37 -5 -25 -34 c-20 -26 -34 -34 -58 -34
-52 0 -256 -76 -256 -96 0 -2 9 0 21 6 11 7 23 9 26 7 7 -8 -36 -29 -50 -24
-7 2 -26 -21 -44 -52 -18 -31 -32 -51 -33 -46 0 6 12 30 25 54 14 24 24 45 23
45 -2 1 -14 7 -28 14 -24 12 -24 12 6 7 29 -6 35 -1 95 77 35 46 56 77 47 70
-9 -7 -38 -42 -65 -77 -42 -56 -51 -63 -73 -57 -14 4 -67 7 -118 7 -50 0 -92
1 -92 1 0 1 7 18 16 39 8 20 13 39 11 41 -2 3 -13 -18 -25 -45 l-20 -50 26 -4
27 -4 -28 -2 c-21 -1 -32 -9 -43 -33 l-14 -33 6 36 c5 33 1 40 -45 87 -51 53
-81 66 -81 35 0 -10 -16 -79 -35 -153 -31 -123 -32 -136 -17 -145 9 -5 32 -25
51 -43 22 -22 37 -29 41 -22 5 8 9 7 13 -4 5 -12 21 -16 65 -16 63 0 118 -14
142 -36 19 -19 0 -17 -24 1 -11 8 -27 15 -35 15 -9 0 3 -10 27 -22 23 -12 42
-25 42 -30 0 -4 -20 -91 -45 -192 -25 -102 -44 -194 -44 -203 1 -10 5 -4 9 12
5 22 8 24 9 9 2 -35 12 -35 54 1 22 19 45 35 51 35 12 0 7 -5 -59 -59 -27 -23
-56 -41 -65 -40 -11 0 -12 2 -2 6 35 14 -139 93 -204 93 -13 0 -24 5 -24 10 0
28 83 338 96 357 12 19 24 23 77 25 l62 2 -57 3 c-32 2 -67 -1 -78 -7 -15 -8
-20 -8 -20 1 0 18 -78 91 -93 87 -6 -3 -20 -38 -30 -79 -9 -41 -23 -94 -30
-119 l-13 -45 -45 2 c-24 1 -60 3 -79 5 -34 3 -35 2 -41 -42 l-7 -45 1 54 c1
38 -3 57 -13 62 -32 17 -186 79 -197 79 -6 0 -16 -12 -22 -27 -11 -27 -11 -27
-6 7 5 35 4 37 -62 75 -38 21 -94 56 -126 77 -50 33 -61 37 -74 26 -14 -11
-15 -10 -10 7 5 15 -2 26 -30 45 -20 14 -57 42 -82 62 -25 21 -47 35 -50 32
-6 -5 47 -51 110 -95 l45 -32 -24 -62 -25 -63 -71 71 -71 72 13 59 c7 32 10
61 8 63 -2 3 -11 -24 -19 -59 l-14 -63 52 -50 c29 -27 60 -63 70 -78 11 -17
24 -26 33 -22 10 4 13 0 9 -14 -3 -11 0 -22 7 -25 6 -2 4 -5 -4 -5 -8 0 -36
28 -62 63 -26 35 -60 73 -77 85 l-30 22 -7 -28 c-3 -15 -13 -55 -21 -87 l-14
-59 63 -64 c35 -36 95 -89 135 -119 75 -56 220 -140 229 -131 3 2 -29 23 -71
46 -112 60 -226 148 -218 168 6 15 7 15 12 0 6 -17 14 -5 41 66 8 23 14 27 33
21 92 -28 236 -135 238 -177 1 -20 2 -20 9 3 20 69 23 75 30 56 4 -13 12 1 24
48 10 36 22 68 26 71 15 9 61 -17 51 -29 -5 -6 -14 -37 -21 -68 l-13 -58 -41
5 c-35 4 -37 3 -11 -4 l30 -9 -31 -1 c-28 -1 -33 -5 -39 -38 -6 -31 -9 -34
-15 -18 -6 17 -7 17 -13 -7 -4 -14 -10 -34 -13 -45 -5 -15 -4 -16 5 -3 9 12
11 9 9 -14 -3 -27 2 -31 77 -63 44 -19 102 -43 128 -54 l48 -19 9 23 c9 22 9
22 9 -3 1 -23 10 -28 111 -59 61 -19 113 -38 116 -43 3 -4 10 -8 15 -8 6 0 7
4 4 10 -3 5 -57 26 -120 46 -126 40 -121 35 -101 119 l12 50 53 -1 c37 -1 70
-11 110 -31 l56 -29 -2 -75 -1 -74 12 75 12 75 -41 22 c-49 27 -35 29 20 3 22
-11 56 -20 75 -21 l35 -2 -40 -6 c-38 -6 -40 -8 -41 -41 l-2 -35 5 34 4 34 51
-6 c28 -4 74 -19 102 -33 28 -15 60 -32 71 -38 16 -9 19 -17 14 -36 l-7 -25
-2 25 c-2 24 -2 24 -11 -5 -5 -16 -13 -52 -17 -80 -4 -27 -12 -48 -17 -46 -6
2 -51 24 -102 49 -92 46 -92 46 -95 87 l-3 40 -5 -43 -6 -44 106 -53 c91 -46
108 -51 130 -41 25 11 299 214 416 308 58 47 62 53 68 101 7 50 25 100 26 68
0 -7 22 7 50 33 27 25 54 46 60 46 11 0 12 -36 2 -62 -9 -21 -117 -100 -126
-91 -3 4 -6 2 -6 -4 0 -24 16 -19 73 24 62 45 74 64 76 116 1 40 -27 35 -84
-15 l-48 -42 7 35 c3 20 13 55 21 80 l15 44 -5 -40 c-4 -38 -3 -38 13 13 13
40 25 57 51 73 l34 20 -7 -32 c-3 -17 -6 -42 -6 -55 0 -17 -9 -27 -34 -38 -18
-8 -37 -20 -41 -26 -5 -9 2 -7 21 3 16 8 36 18 45 20 11 4 18 23 23 68 3 34 4
64 1 67 -2 2 -38 -13 -79 -34 -41 -21 -77 -36 -80 -33 -3 3 4 30 15 60 12 30
23 61 25 69 2 8 27 74 56 146 29 72 54 137 56 144 5 23 43 72 120 155 41 44
79 91 86 105 6 14 19 34 29 45 10 11 51 65 90 119 40 54 96 127 125 162 28 35
52 70 52 78 0 7 6 16 13 19 31 12 233 376 297 537 18 47 44 108 56 135 40 87
115 278 111 281 -1 2 -47 -103 -101 -234z m-1592 -1442 c25 -27 46 -54 46 -60
0 -5 -18 -59 -40 -119 -22 -60 -40 -114 -40 -120 0 -17 -10 -13 -45 18 -18 16
-37 30 -43 32 -10 4 58 299 69 299 3 0 27 -22 53 -50z m657 -88 c-43 -108 -50
-118 -84 -135 -21 -10 -35 -22 -32 -27 3 -6 2 -10 -4 -10 -5 0 -11 3 -14 8 -2
4 -2 2 -1 -5 2 -6 -2 -13 -8 -15 -6 -2 -19 -24 -30 -48 -13 -33 -17 -37 -13
-15 22 107 -59 -119 -101 -281 l-18 -72 -53 -16 c-29 -9 -55 -22 -59 -28 -5
-8 -1 -9 12 -4 46 19 49 19 38 7 -6 -7 -27 -14 -47 -15 -37 -3 -96 -39 -98
-59 0 -7 -5 3 -10 20 -8 26 -1 66 31 200 22 92 38 173 36 180 -3 7 1 13 8 13
8 0 13 8 11 18 -1 9 0 11 2 5 6 -17 4 -18 62 19 28 17 54 29 57 26 5 -5 -73
-55 -108 -70 -10 -4 -18 -17 -17 -30 0 -18 2 -20 7 -6 10 25 123 95 190 117
31 11 50 20 42 20 -8 0 -33 -6 -55 -14 -47 -17 -66 -19 -45 -4 36 25 -38 -5
-79 -33 -30 -20 -42 -24 -37 -13 3 9 14 51 25 93 30 118 61 166 129 198 91 42
180 74 207 74 l25 0 -23 -37 c-26 -41 -103 -198 -111 -224 -3 -11 -21 -18 -55
-23 -27 -4 -53 -11 -57 -17 -4 -8 1 -9 17 -3 13 4 39 10 58 13 38 7 39 8 82
105 16 37 32 66 35 63 3 -3 -7 -28 -21 -57 -14 -29 -24 -54 -22 -56 2 -3 25
35 50 83 65 128 80 152 97 157 8 2 5 4 -7 5 -13 0 -23 -5 -23 -12 0 -7 -7 -22
-16 -33 -16 -20 -16 -13 2 31 10 24 -45 19 -123 -11 -37 -14 -77 -28 -88 -30
-18 -5 -19 -4 -2 6 54 35 210 71 263 62 21 -4 20 -8 -25 -120z m-413 51 c-21
-2 -57 -2 -80 0 -24 2 -7 4 37 4 44 0 63 -2 43 -4z m353 -45 c-24 -39 -28 -30
-5 13 8 17 18 28 21 25 3 -3 -4 -20 -16 -38z m-308 21 l25 -11 -25 -36 c-13
-20 -22 -45 -19 -55 5 -21 -35 -198 -41 -180 -3 7 5 47 17 89 11 42 19 79 17
81 -4 3 -31 -91 -52 -179 l-7 -27 -29 21 c-21 16 -48 22 -108 26 -65 4 -82 8
-86 22 -3 10 10 60 29 111 43 117 47 106 5 -14 -17 -49 -29 -90 -27 -92 2 -3
19 39 37 93 43 126 56 150 83 155 48 9 158 7 181 -4z m292 -179 c-27 -12 -43
-12 -25 0 8 5 22 9 30 9 10 0 8 -3 -5 -9z m-1274 -114 l66 -38 -3 -60 c-1 -33
-5 -63 -9 -66 -4 -4 -5 11 -2 33 6 37 5 36 -11 -12 -9 -28 -20 -55 -25 -59 -4
-4 -26 10 -50 33 -55 52 -93 78 -153 102 -27 11 -42 20 -34 20 31 2 142 -60
190 -105 27 -26 50 -42 50 -36 0 30 -187 152 -234 152 -21 0 -25 48 -9 97 8
24 18 42 20 39 3 -3 -2 -24 -11 -47 -9 -23 -15 -43 -13 -46 4 -3 15 19 37 80
l10 27 57 -38 c32 -21 88 -56 124 -76z m-350 56 c46 -51 70 -80 82 -99 7 -12
-22 -98 -30 -89 -2 2 3 21 11 41 26 60 17 55 -13 -8 l-27 -57 -56 57 -56 58
16 73 c9 39 20 72 23 72 3 0 26 -22 50 -48z m1612 -18 c-14 -36 -22 -68 -19
-72 4 -3 20 -1 37 5 23 9 29 9 26 0 -3 -7 -13 -45 -23 -86 -15 -61 -22 -75
-44 -83 -54 -21 -89 -41 -119 -68 -17 -16 -31 -25 -31 -21 0 18 60 215 85 281
19 51 35 74 58 89 53 34 57 27 30 -45z m-653 -10 c32 -34 40 -51 36 -67 -4
-12 -25 -95 -47 -185 -23 -89 -44 -161 -46 -159 -2 3 14 76 36 163 51 200 55
217 38 174 -8 -19 -31 -103 -52 -187 l-37 -152 -24 16 c-13 8 -31 13 -39 10
-8 -4 -28 -2 -44 4 -16 6 -51 14 -78 19 -45 7 -45 8 -12 9 20 0 56 -6 79 -14
24 -8 45 -13 47 -11 8 8 -91 36 -127 36 l-37 0 -16 -67 c-9 -38 -15 -50 -12
-28 3 22 7 49 10 60 5 16 -7 28 -63 62 -38 24 -82 45 -98 47 -16 2 -24 2 -18
-1 8 -3 8 -14 -1 -41 -7 -20 -15 -55 -18 -77 -5 -35 -5 -36 3 -10 5 17 14 49
20 73 6 23 16 42 23 42 12 0 124 -63 139 -78 3 -4 0 -37 -9 -74 -14 -62 -16
-66 -36 -58 -67 26 -166 69 -191 82 -23 12 -29 23 -31 54 -2 25 -1 32 4 20 6
-16 10 -10 20 26 12 44 15 46 55 52 l42 7 14 67 c14 62 17 67 40 65 14 -1 47
-11 74 -22 l49 -22 -5 -77 c-2 -42 -2 -63 1 -47 5 29 5 29 11 -10 5 -36 7 -32
14 38 l9 79 31 -7 c17 -4 53 -8 80 -8 l49 -2 12 45 c7 25 21 80 30 123 9 42
20 77 24 77 5 0 27 -21 51 -46z m525 -120 c-38 -115 -57 -193 -50 -205 4 -5
26 8 50 29 24 21 59 43 78 49 33 10 34 9 32 -16 -1 -14 -3 -36 -3 -47 -1 -14
-31 -44 -84 -85 -44 -35 -92 -74 -106 -86 -29 -27 -32 -28 -32 -8 0 8 5 14 12
13 6 -2 18 18 25 44 15 51 90 129 154 161 19 9 26 17 17 17 -9 0 -50 -27 -91
-60 -68 -55 -76 -65 -88 -113 -7 -28 -14 -47 -16 -41 -7 21 113 441 123 431 3
-2 -7 -40 -21 -83z m192 64 c-3 -8 -6 -5 -6 6 -1 11 2 17 5 13 3 -3 4 -12 1
-19z m-297 -328 c-8 -5 -22 -9 -30 -9 -10 0 -8 3 5 9 27 12 43 12 25 0z m-10
-71 c-16 -61 -16 -61 -129 -145 -62 -46 -115 -84 -117 -84 -7 0 -2 54 7 80 7
19 8 15 4 -17 -8 -63 2 -52 16 17 10 54 17 66 64 108 44 39 145 101 166 102 3
0 -1 -27 -11 -61z m-318 -6 c51 -20 91 -44 84 -50 -3 -3 -21 5 -41 17 -20 12
-55 28 -78 36 -23 7 -34 13 -25 13 10 1 37 -7 60 -16z"/>
<path d="M2435 485 c-20 -86 -35 -158 -33 -161 3 -2 21 67 42 152 20 86 35
158 33 161 -3 2 -21 -67 -42 -152z"/>
<path d="M1748 486 c30 -14 67 -35 83 -47 16 -11 29 -18 29 -15 0 11 -106 75
-135 81 -20 5 -13 -2 23 -19z"/>
<path d="M920 2359 c-63 -16 -187 -41 -275 -55 -151 -24 -173 -26 -386 -19
l-225 7 -19 -41 c-10 -23 -16 -43 -13 -46 3 -3 13 14 24 36 l18 42 150 -7 c82
-3 189 -6 238 -6 l88 0 0 -215 0 -215 66 0 c37 0 84 5 105 12 l39 11 -2 216
-3 216 -2 -212 -3 -211 -32 -11 c-17 -6 -59 -11 -94 -11 l-63 0 -3 213 -3 213
121 18 c66 9 183 32 260 51 76 18 142 31 146 28 5 -2 8 -63 8 -134 0 -248 47
-561 114 -759 23 -70 30 -103 25 -125 -4 -16 -14 -68 -23 -115 -8 -47 -27
-150 -42 -230 l-27 -145 -86 0 -86 0 -2 -283 -2 -283 -126 -140 c-69 -76 -125
-144 -125 -150 0 -6 21 13 48 42 26 30 97 109 159 177 88 96 114 131 119 160
3 20 30 138 59 262 54 226 89 398 120 585 10 55 21 110 26 122 6 15 -1 47 -22
108 -69 198 -108 440 -118 735 -5 154 -9 185 -21 186 -8 1 -67 -11 -130 -27z
m180 -1511 c0 -6 -23 -109 -51 -227 -28 -119 -52 -225 -55 -236 -2 -11 -15
-33 -28 -50 l-25 -30 -1 271 c0 149 3 274 7 277 12 13 153 8 153 -5z"/>
<path d="M1133 2335 c0 -33 2 -45 4 -27 2 18 2 45 0 60 -2 15 -4 0 -4 -33z"/>
<path d="M5305 1850 c3 -179 10 -531 16 -784 5 -252 8 -460 6 -462 -4 -4 -45
4 -200 40 l-49 11 -3 65 c-2 36 -7 277 -10 536 -7 457 -6 472 13 510 11 22 63
115 116 208 53 93 96 172 94 177 -2 5 -56 -85 -121 -199 l-118 -207 6 -485 c3
-267 8 -508 11 -537 4 -41 2 -53 -11 -60 -12 -7 3 -14 62 -27 170 -37 412 -98
491 -123 77 -24 85 -29 103 -66 45 -87 60 -257 35 -377 -15 -73 -13 -93 3 -33
31 108 22 286 -20 399 -17 45 -25 53 -62 67 -51 19 -191 60 -268 78 l-56 13
-7 210 c-4 116 -11 469 -16 785 -6 316 -12 577 -15 580 -3 3 -3 -141 0 -319z"/>
<path d="M3403 1760 c-12 -5 -38 -34 -58 -66 -20 -31 -39 -54 -42 -51 -3 3 4
18 14 34 33 47 35 53 20 53 -7 0 -14 -6 -14 -13 0 -7 -27 -53 -60 -102 -77
-116 -81 -124 -55 -101 26 22 29 11 5 -16 -9 -10 -14 -20 -12 -23 3 -2 43 52
90 121 46 70 98 137 114 150 32 26 32 28 -2 14z m-133 -180 c-18 -28 -35 -49
-38 -46 -2 3 10 28 28 56 18 28 35 49 38 46 2 -3 -10 -28 -28 -56z"/>
<path d="M3288 1733 c7 -3 16 -2 19 1 4 3 -2 6 -13 5 -11 0 -14 -3 -6 -6z"/>
<path d="M132 1433 l3 -188 2 183 3 182 89 0 89 0 6 -31 c3 -17 6 -118 6 -223
l0 -192 -34 -15 c-33 -15 -35 -15 -47 9 -14 24 -102 82 -127 82 -11 0 -79 28
-117 48 -6 2 -3 -2 5 -10 8 -9 42 -25 75 -37 119 -44 137 -60 195 -173 28 -57
63 -117 76 -135 31 -41 31 -86 -1 -149 -37 -75 -80 -120 -140 -150 -71 -34
-134 -28 -176 17 -29 31 -51 41 -28 12 8 -9 10 -14 4 -11 -6 4 -10 -26 -10
-82 0 -53 3 -83 8 -74 5 8 7 44 5 80 -3 59 3 77 17 55 3 -5 29 -15 59 -22 46
-10 61 -9 106 6 93 31 176 138 188 240 4 38 -1 52 -35 107 -45 73 -83 144 -83
158 0 5 16 16 35 24 l35 15 0 193 c0 106 -3 210 -6 231 l-7 37 -98 0 -99 0 2
-187z"/>
<path d="M16 1216 c19 -15 19 -15 -1 -31 -18 -16 -18 -16 8 0 39 23 45 12 8
-14 -33 -24 -32 -42 4 -61 21 -11 28 -11 42 2 10 9 29 19 43 23 18 5 14 0 -15
-20 -22 -15 -52 -43 -68 -62 -15 -21 -27 -30 -27 -21 0 9 7 21 15 28 8 7 15
17 15 23 0 29 -34 -27 -36 -60 -3 -36 -2 -37 12 -18 8 11 20 28 27 39 12 17
14 16 39 -16 l27 -35 -55 -57 c-35 -36 -52 -61 -47 -69 4 -6 8 -18 10 -26 5
-37 26 -119 36 -144 22 -52 119 -55 190 -5 32 23 87 113 87 145 0 12 -8 24
-18 26 -13 4 -11 5 6 6 31 1 28 17 -16 81 -36 54 -38 55 -82 54 l-45 -2 40 7
c45 7 45 9 13 83 -18 42 -24 47 -56 50 -36 4 -37 4 -12 15 24 11 24 12 3 12
-12 1 -25 6 -28 11 -3 6 -14 10 -23 10 -10 0 -35 9 -57 20 -46 23 -67 26 -39
6z m93 -37 c17 -6 31 -14 31 -17 -1 -4 -21 -16 -45 -28 -36 -17 -46 -18 -61
-7 -17 13 -17 15 6 38 30 28 28 28 69 14z m110 -98 c26 -62 26 -61 -4 -61 -14
0 -41 -6 -60 -14 -34 -15 -34 -14 -55 19 -11 18 -26 35 -33 38 -19 6 74 67
103 67 23 0 31 -7 49 -49z m8 -91 c28 0 38 -7 68 -52 l35 -53 -32 -8 c-18 -5
-51 -15 -73 -23 -36 -13 -41 -13 -59 6 -11 11 -25 38 -32 59 -11 39 -11 40 20
55 17 9 25 16 18 16 -26 0 -71 -30 -111 -76 -23 -26 -43 -45 -46 -42 -9 9 67
89 104 108 20 11 45 18 56 15 11 -3 35 -5 52 -5z m-98 -97 c1 -12 14 -31 30
-42 27 -19 31 -20 65 -6 41 17 65 19 86 5 13 -8 11 -17 -14 -65 -47 -90 -126
-137 -193 -114 -18 6 -33 14 -33 18 0 12 93 98 130 120 19 12 30 21 23 21 -16
0 -103 -67 -135 -104 -30 -35 -28 -37 -51 62 l-15 62 46 51 c40 45 47 49 53
33 4 -11 8 -29 8 -41z"/>
<path d="M245 840 c-8 -13 18 -23 47 -17 17 3 14 5 -12 7 l-35 2 30 8 30 8
-27 1 c-15 0 -30 -4 -33 -9z"/>
<path d="M111 784 c-28 -25 -51 -51 -51 -57 0 -6 12 2 28 18 15 17 43 42 62
57 19 15 30 28 24 28 -7 0 -35 -21 -63 -46z"/>
<path d="M3046 1198 c-18 -28 -166 -398 -166 -415 0 -20 27 -15 70 13 44 30
44 28 64 144 16 96 48 217 66 250 6 12 10 24 7 26 -13 14 -68 -171 -88 -299
-12 -76 -13 -79 -56 -108 -24 -17 -47 -29 -50 -26 -6 7 118 324 153 390 26 48
26 64 0 25z"/>
<path d="M2952 715 c0 -16 2 -22 5 -12 2 9 2 23 0 30 -3 6 -5 -1 -5 -18z"/>
<path d="M3991 669 c-289 -21 -606 -83 -887 -173 -87 -29 -135 -40 -137 -32
-2 6 -8 8 -12 4 -10 -9 -2 -19 17 -22 7 -1 18 -5 25 -9 6 -4 82 9 169 28 476
107 727 138 1094 138 441 0 811 -56 1100 -165 36 -13 98 -30 138 -37 39 -7 81
-20 92 -29 29 -25 43 -117 38 -257 -2 -66 -1 -107 3 -90 20 89 2 331 -26 355
-8 6 -57 20 -111 31 -54 11 -104 24 -113 28 -34 18 -208 73 -291 91 -427 95
-976 110 -1445 39 -146 -22 -250 -43 -480 -94 -87 -20 -160 -33 -163 -31 -16
16 337 116 543 155 623 115 1166 90 1851 -84 284 -72 274 -66 295 -182 10 -54
7 -238 -5 -308 -3 -17 1 -5 10 25 20 73 13 284 -11 352 -19 54 -20 55 -290
123 -512 131 -957 176 -1404 144z"/>
<path d="M1114 632 c-6 -4 -26 -68 -44 -142 -38 -151 -34 -145 -229 -370 -50
-58 -91 -109 -91 -115 0 -11 10 -1 131 140 136 158 169 200 169 217 0 17 60
251 66 257 2 2 25 -18 51 -45 78 -81 210 -172 338 -234 184 -89 208 -98 396
-160 96 -31 229 -83 293 -114 65 -31 125 -56 132 -56 28 0 652 471 634 478 -5
2 -91 -61 -192 -140 -173 -136 -433 -328 -443 -328 -3 0 -52 22 -109 50 -57
27 -184 76 -282 109 -363 120 -609 252 -759 408 -28 29 -55 49 -61 45z"/>
<path d="M1156 427 l-27 -102 -145 -155 c-79 -85 -144 -159 -144 -165 1 -6 22
13 48 41 26 28 92 100 148 160 l100 109 28 103 c16 57 27 105 24 107 -2 2 -16
-42 -32 -98z"/>
<path d="M2842 500 c0 -14 2 -19 5 -12 2 6 2 18 0 25 -3 6 -5 1 -5 -13z"/>
<path d="M5260 204 c0 -9 9 -27 19 -40 16 -20 18 -31 10 -57 -11 -39 -12 -94
-1 -101 4 -2 6 10 4 28 -2 18 1 50 7 72 10 34 8 43 -10 67 -29 39 -17 45 14 8
24 -29 25 -36 20 -108 -3 -43 -3 -76 -1 -73 3 3 8 40 11 82 6 72 5 79 -19 107
-28 34 -54 41 -54 15z"/>
</g>
</svg>
