<?xml version="1.0" standalone="yes"?>
<svg xmlns="http://www.w3.org/2000/svg" width="1200" height="1200">
<path style="stroke:#1f1f1f; fill:none;" d="M123 510L123 555"/>
<path style="stroke:#030303; fill:none;" d="M127 510L127 523"/>
<path style="stroke:#1f1f1f; fill:none;" d="M301 510L301 555"/>
<path style="stroke:#030303; fill:none;" d="M305 510L305 523"/>
<path style="stroke:#1f1f1f; fill:none;" d="M514 510L514 555"/>
<path style="stroke:#fbfbfb; fill:none;" d="M519 510L519 555"/>
<path style="stroke:#1f1f1f; fill:none;" d="M724 510L724 555"/>
<path style="stroke:#030303; fill:none;" d="M728 510L728 523"/>
<path style="stroke:#1f1f1f; fill:none;" d="M1067 510L1067 555"/>
<path style="stroke:#030303; fill:none;" d="M1071 510L1071 523"/>
<path style="stroke:#000000; fill:none;" d="M125 511L126 531C128.239 529.36 130.46 527.461 133.002 526.302C149.889 518.596 147 545.125 147 554M303 511L304 531C306.239 529.361 308.46 527.461 311.002 526.302C327.889 518.596 325 545.125 325 554M726 511L727 531C729.239 529.361 731.461 527.461 734.002 526.302C750.889 518.596 748 545.125 748 554M1069 511L1070 531C1072.24 529.36 1074.46 527.461 1077 526.302C1093.89 518.596 1091 545.125 1091 554M392 553C392 539.424 385.508 512.053 404 512M517 512L517 553M671 553C671 539.424 664.508 512.053 683 512"/>
<path style="stroke:#878787; fill:none;" d="M85 513L85 516"/>
<path style="stroke:#8f8f8f; fill:none;" d="M117 513L117 516"/>
<path style="stroke:#000000; fill:none;" d="M162 514L162 515M222 514L222 515M410 514L410 515M531 514L531 515M87 515L115 515M101 516L101 553"/>
<path style="stroke:#9b9b9b; fill:none;" d="M86 517L98 517M105 517L116 517"/>
<path style="stroke:#979797; fill:none;" d="M285 517L285 523M482 517L482 523M708 517L708 523"/>
<path style="stroke:#fbfbfb; fill:none;" d="M104 518L104 555"/>
<path style="stroke:#000000; fill:none;" d="M284 518C281.22 529.676 278.278 553.858 294 554M481 518C478.22 529.676 475.278 553.858 491 554M707 518C704.22 529.677 701.278 553.858 717 554"/>
<path style="stroke:#939393; fill:none;" d="M394 522L394 523M673 522L673 523"/>
<path style="stroke:#1f1f1f; fill:none;" d="M160 524L160 555"/>
<path style="stroke:#030303; fill:none;" d="M164 524L164 555"/>
<path style="stroke:#1f1f1f; fill:none;" d="M220 524L220 555"/>
<path style="stroke:#030303; fill:none;" d="M224 524L224 555"/>
<path style="stroke:#2f2f2f; fill:none;" d="M294 524L286 527"/>
<path style="stroke:#939393; fill:none;" d="M402 524L402 526"/>
<path style="stroke:#1f1f1f; fill:none;" d="M408 524L408 555"/>
<path style="stroke:#030303; fill:none;" d="M412 524L412 555"/>
<path style="stroke:#1f1f1f; fill:none;" d="M423 524L423 555"/>
<path style="stroke:#2f2f2f; fill:none;" d="M491 524L483 527"/>
<path style="stroke:#1f1f1f; fill:none;" d="M529 524L529 555"/>
<path style="stroke:#030303; fill:none;" d="M533 524L533 555"/>
<path style="stroke:#1f1f1f; fill:none;" d="M544 524L544 555"/>
<path style="stroke:#939393; fill:none;" d="M681 524L681 526"/>
<path style="stroke:#2f2f2f; fill:none;" d="M717 524L709 527"/>
<path style="stroke:#1f1f1f; fill:none;" d="M811 524L811 569M881 524L881 555"/>
<path style="stroke:#131313; fill:none;" d="M955 524L964 524"/>
<path style="stroke:#1f1f1f; fill:none;" d="M972 524L972 555M1030 524L1030 569"/>
<path style="stroke:#000000; fill:none;" d="M162 525L162 554M175 553C180.199 553.965 197.424 554.575 191.806 544.188C188.896 538.81 181.157 539.194 177.333 534.775C169.445 525.66 187.289 525.125 192 526M222 525L222 554M235 553C240.199 553.965 257.424 554.575 251.806 544.188C248.896 538.81 241.157 539.194 237.333 534.775C229.445 525.66 247.289 525.125 252 526M277 526L293 525M339 538C339.724 524.784 360.477 519.824 360.153 534.941C359.986 542.74 344.685 536.768 340.604 540.028C337.053 542.864 340.651 548.474 343.109 550.606C348.487 555.27 354.839 553.953 361 552M384 526L401 525M410 525L410 554M425 525L426 532L439 525M448 553C453.199 553.965 470.424 554.575 464.806 544.188C461.896 538.81 454.157 539.194 450.333 534.775C442.445 525.66 460.289 525.125 465 526M474 526L490 525M531 525L531 554M546 525L547 531C549.239 529.361 551.46 527.461 554.002 526.302C570.889 518.596 568 545.125 568 554M582 538C582.724 524.783 603.477 519.824 603.153 534.941C602.986 542.74 587.685 536.768 583.604 540.028C580.053 542.864 583.651 548.474 586.109 550.606C591.487 555.269 597.839 553.953 604 552M641 525.576C657.032 521.168 661.605 549.292 646.999 553.427C630.589 558.072 625.859 529.74 641 525.576M663 526L680 525M700 526L716 525M762 538C762.724 524.783 783.477 519.824 783.153 534.941C782.986 542.74 767.685 536.768 763.604 540.028C760.053 542.864 763.651 548.474 766.109 550.606C771.487 555.269 777.839 553.953 784 552M813 525L814 531C816.777 528.967 819.59 526.456 823 525.586C840.975 521.003 841.024 558.812 822.015 553.427C818.816 552.522 816.478 550.077 814 548L814 567M851 527C855.265 525.403 860.76 523.788 864.856 526.742C872.764 532.446 869.824 548.513 861.911 552.558C855.791 555.686 843.85 551.14 849.604 543.133C853.576 537.607 862.105 539 868 539M883 525L884 532L897 525M909 527C913.265 525.403 918.76 523.788 922.856 526.742C930.764 532.446 927.824 548.513 919.911 552.558C913.791 555.686 901.85 551.14 907.604 543.133C911.576 537.607 920.105 539 926 539M946.015 525.654C957.416 522.025 963.492 538.705 951.985 542.346C941.075 545.799 934.968 529.169 946.015 525.654"/>
<path style="stroke:#9f9f9f; fill:none;" d="M965 525L965 526"/>
<path style="stroke:#000000; fill:none;" d="M974 525L975 532L988 525M1000 527C1004.26 525.403 1009.76 523.788 1013.86 526.742C1021.76 532.446 1018.82 548.513 1010.91 552.558C1004.79 555.686 992.85 551.14 998.604 543.133C1002.58 537.607 1011.1 539 1017 539M1032 525L1033 531C1035.78 528.966 1038.59 526.456 1042 525.586C1059.98 521.003 1060.02 558.812 1041.01 553.427C1037.82 552.522 1035.48 550.077 1033 548L1033 567M957 527L964 526"/>
<path style="stroke:#2f2f2f; fill:none;" d="M276 527L279 527M384 527L388 527M395 527L401 527M473 527L476 527M663 527L667 527M674 527L680 527M699 527L702 527"/>
<path style="stroke:#838383; fill:none;" d="M280 528L280 546"/>
<path style="stroke:#979797; fill:none;" d="M285 528L285 545"/>
<path style="stroke:#8f8f8f; fill:none;" d="M389 528L389 555"/>
<path style="stroke:#939393; fill:none;" d="M394 528L394 555"/>
<path style="stroke:#838383; fill:none;" d="M477 528L477 546"/>
<path style="stroke:#979797; fill:none;" d="M482 528L482 545"/>
<path style="stroke:#8f8f8f; fill:none;" d="M668 528L668 555"/>
<path style="stroke:#939393; fill:none;" d="M673 528L673 555"/>
<path style="stroke:#838383; fill:none;" d="M703 528L703 546"/>
<path style="stroke:#979797; fill:none;" d="M708 528L708 545"/>
<path style="stroke:#cbcbcb; fill:none;" d="M830 529L831 530M1049 529L1050 530"/>
<path style="stroke:#000000; fill:none;" d="M126 531L125 554M304 531L303 554M547 531L546 554M727 531L726 554M814 531L814 548M1033 531L1033 548M1070 531L1069 554M426 532L426 553M884 532L884 553M975 532L975 553"/>
<path style="stroke:#8b8b8b; fill:none;" d="M871 534L871 555M929 534L929 555M1020 534L1020 555"/>
<path style="stroke:#171717; fill:none;" d="M149 535L149 555M327 535L327 555M570 535L570 555M750 535L750 555"/>
<path style="stroke:#b3b3b3; fill:none;" d="M866 535L866 536M924 535L924 536M1015 535L1015 536"/>
<path style="stroke:#171717; fill:none;" d="M1093 535L1093 555M145 536L145 555M323 536L323 555M566 536L566 555M746 536L746 555M1089 536L1089 555M342 537L357 537M585 537L600 537M765 537L780 537"/>
<path style="stroke:#6f6f6f; fill:none;" d="M363 538L363 540M606 538L606 540M786 538L786 540"/>
<path style="stroke:#030303; fill:none;" d="M127 539L127 555M305 539L305 555"/>
<path style="stroke:#fbfbfb; fill:none;" d="M428 539L428 555"/>
<path style="stroke:#030303; fill:none;" d="M548 539L548 555"/>
<path style="stroke:#595959; fill:none;" d="M629 539L629 540"/>
<path style="stroke:#9d9d9d; fill:none;" d="M634 539L634 540"/>
<path style="stroke:#313131; fill:none;" d="M658 539L658 540"/>
<path style="stroke:#030303; fill:none;" d="M728 539L728 555"/>
<path style="stroke:#fbfbfb; fill:none;" d="M886 539L886 555"/>
<path style="stroke:#0d0d0d; fill:none;" d="M955 539L954 540"/>
<path style="stroke:#fbfbfb; fill:none;" d="M977 539L977 555"/>
<path style="stroke:#030303; fill:none;" d="M1071 539L1071 555"/>
<path style="stroke:#c9c9c9; fill:none;" d="M848 540L847 541M906 540L905 541M997 540L996 541"/>
<path style="stroke:#a3a3a3; fill:none;" d="M866 541L866 542M924 541L924 542"/>
<path style="stroke:#ededed; fill:none;" d="M959 541L958 542"/>
<path style="stroke:#a3a3a3; fill:none;" d="M1015 541L1015 542"/>
<path style="stroke:#000000; fill:none;" d="M943 544C938.021 558.869 960.238 547.423 961.338 559.015C962.673 573.084 930.287 568.426 939.298 557.194C940.596 555.575 942.413 554.307 944 553M869 549L869 554M927 549L927 554M1018 549L1018 554"/>
<path style="stroke:#030303; fill:none;" d="M173 551L173 553M233 551L233 553"/>
<path style="stroke:#dfdfdf; fill:none;" d="M362 551L362 553"/>
<path style="stroke:#030303; fill:none;" d="M446 551L446 553"/>
<path style="stroke:#dfdfdf; fill:none;" d="M605 551L605 553M785 551L785 553"/>
<path style="stroke:#fbfbfb; fill:none;" d="M295 552L295 554M492 552L492 554"/>
<path style="stroke:#6f6f6f; fill:none;" d="M643 552L644 552"/>
<path style="stroke:#fbfbfb; fill:none;" d="M718 552L718 554"/>
<path style="stroke:#838383; fill:none;" d="M856 552L857 552M914 552L915 552M1005 552L1006 552"/>
<path style="stroke:#737373; fill:none;" d="M947 555L951 555"/>
<path style="stroke:#818181; fill:none;" d="M643 556L644 556"/>
<path style="stroke:#838383; fill:none;" d="M855 556L856 556M913 556L914 556M1004 556L1005 556"/>
<path style="stroke:#fbfbfb; fill:none;" d="M816 557L816 569M1035 557L1035 569"/>
<path style="stroke:#1f1f1f; fill:none;" d="M123 579L123 624"/>
<path style="stroke:#030303; fill:none;" d="M127 579L127 592"/>
<path style="stroke:#1f1f1f; fill:none;" d="M301 579L301 624"/>
<path style="stroke:#030303; fill:none;" d="M305 579L305 592"/>
<path style="stroke:#afafaf; fill:none;" d="M574 579L574 591"/>
<path style="stroke:#737373; fill:none;" d="M579 579L579 624"/>
<path style="stroke:#1f1f1f; fill:none;" d="M606 579L606 624"/>
<path style="stroke:#fbfbfb; fill:none;" d="M611 579L611 624"/>
<path style="stroke:#000000; fill:none;" d="M125 580L126 600C128.239 598.36 130.46 596.461 133.002 595.302C149.889 587.596 147 614.125 147 623M303 580L304 600C306.239 598.361 308.46 596.461 311.002 595.302C327.889 587.596 325 614.125 325 623M577 581L577 623M609 581L609 622"/>
<path style="stroke:#878787; fill:none;" d="M85 582L85 585"/>
<path style="stroke:#8f8f8f; fill:none;" d="M117 582L117 585"/>
<path style="stroke:#000000; fill:none;" d="M162 583L162 584M222 583L222 584M623 583L623 584M87 584L115 584M101 585L101 622"/>
<path style="stroke:#9b9b9b; fill:none;" d="M86 586L98 586M105 586L116 586"/>
<path style="stroke:#979797; fill:none;" d="M285 586L285 592"/>
<path style="stroke:#fbfbfb; fill:none;" d="M104 587L104 624"/>
<path style="stroke:#000000; fill:none;" d="M284 587C281.22 598.677 278.278 622.858 294 623"/>
<path style="stroke:#1f1f1f; fill:none;" d="M160 593L160 624"/>
<path style="stroke:#030303; fill:none;" d="M164 593L164 624"/>
<path style="stroke:#1f1f1f; fill:none;" d="M220 593L220 624"/>
<path style="stroke:#030303; fill:none;" d="M224 593L224 624"/>
<path style="stroke:#2f2f2f; fill:none;" d="M294 593L286 596"/>
<path style="stroke:#1f1f1f; fill:none;" d="M516 593L516 624M621 593L621 624"/>
<path style="stroke:#030303; fill:none;" d="M625 593L625 624"/>
<path style="stroke:#1f1f1f; fill:none;" d="M636 593L636 624"/>
<path style="stroke:#000000; fill:none;" d="M162 594L162 623M175 622C180.199 622.965 197.424 623.576 191.806 613.188C188.896 607.81 181.157 608.194 177.333 603.775C169.445 594.66 187.289 594.125 192 595M222 594L222 623M235 622C240.199 622.965 257.424 623.576 251.806 613.188C248.896 607.81 241.157 608.194 237.333 603.775C229.445 594.66 247.289 594.125 252 595M277 595L293 594M339 607C339.724 593.783 360.477 588.824 360.153 603.941C359.986 611.74 344.685 605.768 340.604 609.028C337.053 611.864 340.651 617.474 343.109 619.606C348.487 624.269 354.839 622.953 361 621M388 622C393.199 622.965 410.424 623.576 404.806 613.188C401.896 607.81 394.157 608.194 390.333 603.775C382.445 594.66 400.289 594.125 405 595M418 607C418.724 593.783 439.477 588.824 439.153 603.941C438.986 611.74 423.685 605.768 419.604 609.028C416.053 611.864 419.651 617.474 422.109 619.606C427.487 624.269 433.839 622.953 440 621M471 622C465.754 622.662 460.752 623.65 456.189 620.146C443.046 610.051 456.185 592.444 470 595M490 594.576C506.033 590.168 510.605 618.292 495.999 622.427C479.589 627.072 474.859 598.74 490 594.576M518 594L519 600C521.239 598.361 523.46 596.461 526.002 595.302C542.889 587.596 540 614.125 540 623M576 618C572.341 619.735 569.288 622.747 565 622.801C547.489 623.021 551.621 588.926 567.998 594.896C570.807 595.92 572.865 598.008 575 600M623 594L623 623M638 594L639 600C641.239 598.361 643.46 596.461 646.002 595.302C662.889 587.596 660 614.125 660 623M674 607C674.724 593.783 695.477 588.824 695.153 603.941C694.986 611.74 679.685 605.768 675.604 609.028C672.053 611.864 675.651 617.474 678.109 619.606C683.487 624.269 689.839 622.953 696 621"/>
<path style="stroke:#2f2f2f; fill:none;" d="M276 596L279 596"/>
<path style="stroke:#838383; fill:none;" d="M280 597L280 615"/>
<path style="stroke:#979797; fill:none;" d="M285 597L285 614"/>
<path style="stroke:#000000; fill:none;" d="M126 600L125 623M304 600L303 623M519 600L518 623M639 600L638 623"/>
<path style="stroke:#171717; fill:none;" d="M149 604L149 624M327 604L327 624M542 604L542 624M662 604L662 624M145 605L145 624M323 605L323 624M538 605L538 624M658 605L658 624M342 606L357 606M421 606L436 606M677 606L692 606"/>
<path style="stroke:#6f6f6f; fill:none;" d="M363 607L363 609M442 607L442 609M698 607L698 609"/>
<path style="stroke:#030303; fill:none;" d="M127 608L127 624M305 608L305 624"/>
<path style="stroke:#595959; fill:none;" d="M478 608L478 609"/>
<path style="stroke:#9d9d9d; fill:none;" d="M483 608L483 609"/>
<path style="stroke:#313131; fill:none;" d="M507 608L507 609"/>
<path style="stroke:#030303; fill:none;" d="M520 608L520 624M640 608L640 624M173 620L173 622M233 620L233 622"/>
<path style="stroke:#dfdfdf; fill:none;" d="M362 620L362 622"/>
<path style="stroke:#030303; fill:none;" d="M386 620L386 622"/>
<path style="stroke:#dfdfdf; fill:none;" d="M441 620L441 622"/>
<path style="stroke:#b7b7b7; fill:none;" d="M472 620L472 622"/>
<path style="stroke:#dfdfdf; fill:none;" d="M697 620L697 622"/>
<path style="stroke:#fbfbfb; fill:none;" d="M295 621L295 623"/>
<path style="stroke:#3f3f3f; fill:none;" d="M463 621L464 621"/>
<path style="stroke:#6f6f6f; fill:none;" d="M492 621L493 621"/>
<path style="stroke:#818181; fill:none;" d="M492 625L493 625"/>
<path style="stroke:#afafaf; fill:none;" d="M186 648L186 660"/>
<path style="stroke:#737373; fill:none;" d="M191 648L191 693"/>
<path style="stroke:#1f1f1f; fill:none;" d="M239 648L239 693"/>
<path style="stroke:#030303; fill:none;" d="M243 648L243 661"/>
<path style="stroke:#1f1f1f; fill:none;" d="M417 648L417 693"/>
<path style="stroke:#030303; fill:none;" d="M421 648L421 661"/>
<path style="stroke:#1f1f1f; fill:none;" d="M525 648L525 693"/>
<path style="stroke:#030303; fill:none;" d="M529 648L529 661"/>
<path style="stroke:#afafaf; fill:none;" d="M623 648L623 660"/>
<path style="stroke:#737373; fill:none;" d="M628 648L628 693"/>
<path style="stroke:#000000; fill:none;" d="M241 649L242 669C244.239 667.36 246.46 665.461 249.002 664.302C265.889 656.596 263 683.125 263 692M419 649L420 669C422.239 667.361 424.46 665.461 427.002 664.302C443.889 656.596 441 683.125 441 692M527 649L528 669C530.239 667.361 532.461 665.461 535.002 664.302C551.889 656.596 549 683.125 549 692M189 650L189 692M626 650L626 692M278 652L278 653M338 652L338 653M564 652L564 653M95 677C95.4119 668.975 99.3971 659.522 104 653C106.363 656.806 115.11 673.388 110.508 676.972C106.556 680.051 99.6821 676.755 95.2245 678.028C90.8546 679.276 89.0523 688.153 88 692"/>
<path style="stroke:#979797; fill:none;" d="M223 655L223 661M401 655L401 661M509 655L509 661"/>
<path style="stroke:#000000; fill:none;" d="M222 656C219.22 667.677 216.278 691.858 232 692M400 656C397.22 667.677 394.278 691.858 410 692M508 656C505.22 667.677 502.278 691.858 518 692"/>
<path style="stroke:#1f1f1f; fill:none;" d="M128 662L128 693"/>
<path style="stroke:#2f2f2f; fill:none;" d="M232 662L224 665"/>
<path style="stroke:#1f1f1f; fill:none;" d="M276 662L276 693"/>
<path style="stroke:#030303; fill:none;" d="M280 662L280 693"/>
<path style="stroke:#1f1f1f; fill:none;" d="M336 662L336 693"/>
<path style="stroke:#030303; fill:none;" d="M340 662L340 693"/>
<path style="stroke:#2f2f2f; fill:none;" d="M410 662L402 665M518 662L510 665"/>
<path style="stroke:#1f1f1f; fill:none;" d="M562 662L562 693"/>
<path style="stroke:#030303; fill:none;" d="M566 662L566 693"/>
<path style="stroke:#1f1f1f; fill:none;" d="M577 662L577 693"/>
<path style="stroke:#000000; fill:none;" d="M130 663L131 669C133.239 667.36 135.46 665.461 138.002 664.302C154.889 656.596 152 683.125 152 692M188 687C184.341 688.735 181.288 691.747 177 691.801C159.489 692.021 163.621 657.926 179.998 663.896C182.807 664.92 184.865 667.008 187 669M215 664L231 663M278 663L278 692M291 691C296.199 691.965 313.424 692.576 307.806 682.188C304.896 676.81 297.157 677.194 293.333 672.775C285.445 663.66 303.289 663.125 308 664M338 663L338 692M351 691C356.199 691.965 373.424 692.576 367.806 682.188C364.896 676.81 357.157 677.194 353.333 672.775C345.445 663.66 363.289 663.125 368 664M393 664L409 663M455 676C455.724 662.784 476.477 657.824 476.153 672.941C475.986 680.74 460.685 674.768 456.604 678.028C453.053 680.864 456.651 686.474 459.109 688.606C464.487 693.27 470.839 691.953 477 690M501 664L517 663M564 663L564 692M579 663L580 670L593 663M625 687C621.341 688.735 618.288 691.747 614 691.801C596.49 692.021 600.621 657.926 616.998 663.896C619.807 664.92 621.865 667.008 624 669"/>
<path style="stroke:#2f2f2f; fill:none;" d="M214 665L217 665M392 665L395 665M500 665L503 665"/>
<path style="stroke:#838383; fill:none;" d="M218 666L218 684"/>
<path style="stroke:#979797; fill:none;" d="M223 666L223 683"/>
<path style="stroke:#838383; fill:none;" d="M396 666L396 684"/>
<path style="stroke:#979797; fill:none;" d="M401 666L401 683"/>
<path style="stroke:#838383; fill:none;" d="M504 666L504 684"/>
<path style="stroke:#979797; fill:none;" d="M509 666L509 683"/>
<path style="stroke:#000000; fill:none;" d="M131 669L130 692M242 669L241 692M420 669L419 692M528 669L527 692M580 670L580 691"/>
<path style="stroke:#171717; fill:none;" d="M154 673L154 693M265 673L265 693M443 673L443 693M551 673L551 693M150 674L150 693M261 674L261 693M439 674L439 693M547 674L547 693"/>
<path style="stroke:#939393; fill:none;" d="M98 675L109 675"/>
<path style="stroke:#171717; fill:none;" d="M458 675L473 675"/>
<path style="stroke:#6f6f6f; fill:none;" d="M479 676L479 678"/>
<path style="stroke:#000000; fill:none;" d="M112 677L119 692"/>
<path style="stroke:#030303; fill:none;" d="M132 677L132 693M243 677L243 693M421 677L421 693M529 677L529 693"/>
<path style="stroke:#fbfbfb; fill:none;" d="M582 677L582 693"/>
<path style="stroke:#030303; fill:none;" d="M289 689L289 691M349 689L349 691"/>
<path style="stroke:#dfdfdf; fill:none;" d="M478 689L478 691"/>
<path style="stroke:#fbfbfb; fill:none;" d="M233 690L233 692M411 690L411 692M519 690L519 692"/>
</svg>
