<?xml version="1.0" standalone="no"?>
<!DOCTYPE svg PUBLIC "-//W3C//DTD SVG 20010904//EN"
 "http://www.w3.org/TR/2001/REC-SVG-20010904/DTD/svg10.dtd">
<svg version="1.0" xmlns="http://www.w3.org/2000/svg"
 width="800.000000pt" height="800.000000pt" viewBox="0 0 800.000000 800.000000"
 preserveAspectRatio="xMidYMid meet">
<metadata>
Created by potrace 1.16, written by Peter Selinger 2001-2019
</metadata>
<g transform="translate(0.000000,800.000000) scale(0.100000,-0.100000)"
fill="#000000" stroke="none">
<path d="M3864 6439 c-34 -4 -95 -19 -135 -33 -176 -61 -218 -200 -125 -410
14 -32 26 -62 26 -66 0 -4 -33 -12 -72 -19 -166 -27 -414 -118 -555 -203 -74
-45 -199 -149 -246 -206 -49 -59 -67 -102 -67 -162 l0 -48 -83 -60 c-122 -89
-261 -215 -356 -325 -46 -53 -89 -97 -95 -97 -24 0 -136 60 -230 124 -113 77
-183 132 -421 336 -194 166 -322 266 -360 280 -43 16 -93 12 -218 -20 -115
-29 -336 -107 -446 -157 -121 -56 -159 -99 -128 -147 8 -11 52 -41 98 -65 46
-25 111 -63 144 -85 99 -67 231 -201 299 -306 104 -159 138 -254 220 -606 90
-387 182 -586 369 -796 l73 -83 -7 -80 c-35 -381 37 -735 201 -984 111 -169
266 -307 447 -396 52 -25 96 -51 97 -58 2 -7 9 -30 15 -52 16 -63 30 -74 107
-90 294 -61 846 -95 1549 -95 768 0 1486 50 1638 114 33 13 38 21 53 75 l17
61 90 45 c166 83 297 194 411 348 49 65 63 77 87 77 46 0 196 36 295 71 620
217 1038 773 1083 1439 31 467 -112 899 -391 1179 -129 130 -251 202 -435 257
-78 24 -106 27 -238 28 -124 0 -166 -3 -238 -22 -177 -44 -345 -127 -504 -249
l-84 -64 -102 104 c-103 104 -210 194 -318 268 -56 38 -59 42 -59 82 -1 64
-33 123 -108 196 -183 180 -456 314 -757 371 -91 17 -88 15 -66 57 31 61 61
171 61 223 0 143 -105 221 -332 250 -91 11 -115 11 -204 -1z m314 -30 c134
-34 212 -113 212 -215 0 -55 -29 -164 -61 -226 -23 -45 -17 -51 71 -67 300
-56 570 -190 755 -376 79 -79 105 -124 105 -185 0 -47 -6 -41 150 -157 58 -43
155 -129 217 -190 61 -62 117 -113 123 -113 5 0 48 29 94 64 164 125 324 206
493 248 72 19 114 22 238 22 133 -1 160 -4 240 -28 324 -98 589 -367 725 -735
95 -258 119 -621 60 -918 -80 -403 -339 -788 -686 -1019 -217 -144 -385 -209
-679 -260 -12 -2 -43 -34 -70 -71 -106 -146 -252 -268 -427 -358 -68 -35 -77
-43 -83 -73 -17 -91 -40 -105 -202 -132 -525 -87 -1868 -107 -2638 -40 -133
12 -214 23 -354 47 -107 18 -137 39 -147 103 -3 21 -9 42 -13 47 -3 6 -46 32
-96 58 -124 65 -206 125 -301 219 -256 256 -370 596 -350 1053 3 84 9 158 12
166 3 9 -26 50 -72 103 -134 154 -235 327 -295 505 -17 51 -51 178 -75 283
-57 245 -88 350 -135 459 -54 126 -134 239 -236 338 -99 95 -170 147 -289 208
-127 65 -140 94 -66 144 98 64 341 159 529 207 127 32 182 37 216 18 42 -22
183 -133 352 -278 236 -202 324 -272 434 -344 94 -61 204 -116 233 -116 8 0
53 44 99 97 95 110 234 236 356 325 l83 60 0 57 c0 68 28 118 111 200 181 179
473 319 753 363 46 7 76 16 76 24 0 6 -12 38 -26 70 -51 115 -61 220 -29 284
17 32 72 84 110 103 114 57 319 68 483 26z"/>
<path d="M3825 6356 c-190 -44 -231 -119 -162 -296 11 -30 25 -58 29 -61 5 -3
48 1 96 9 79 13 208 12 446 -1 l39 -2 24 65 c20 51 24 79 21 129 -4 56 -8 67
-36 92 -72 64 -312 98 -457 65z m303 -11 c78 -19 134 -47 161 -81 29 -37 28
-121 -2 -194 -22 -53 -24 -55 -57 -52 -19 2 -129 4 -245 6 l-209 3 -12 29
c-35 85 -20 189 26 189 23 0 25 -3 22 -40 -3 -49 14 -145 29 -160 6 -6 6 1 -2
20 -6 17 -12 66 -13 110 l-1 80 -35 0 c-33 0 -35 -2 -48 -49 -12 -42 -12 -57
0 -105 8 -31 18 -63 22 -72 6 -13 0 -18 -30 -21 -36 -4 -37 -3 -59 46 -72 163
-26 253 149 291 82 18 227 18 304 0z"/>
<path d="M3855 6315 c-127 -27 -163 -57 -172 -139 -6 -45 21 -156 37 -156 4 0
2 13 -6 30 -24 48 -29 131 -10 168 34 67 110 92 306 101 l145 8 -120 1 c-66 0
-147 -5 -180 -13z"/>
<path d="M4188 6248 c3 -45 -2 -79 -15 -118 -34 -94 -34 -97 -7 -41 29 58 44
175 27 205 -6 11 -8 -5 -5 -46z"/>
<path d="M3852 5980 c-129 -14 -142 -18 -142 -45 0 -13 4 -26 10 -30 17 -10
501 -8 512 3 5 5 8 20 6 33 -3 22 -9 25 -103 36 -114 13 -179 14 -283 3z m265
-12 c113 -11 114 -11 111 -36 l-3 -24 -250 0 c-242 1 -250 2 -253 21 -4 24 9
28 123 40 117 12 147 12 272 -1z"/>
<path d="M4064 5949 c-5 -8 -38 -10 -108 -7 -65 4 -87 3 -61 -3 67 -13 159
-11 181 6 10 8 14 15 7 15 -6 0 -15 -5 -19 -11z"/>
<path d="M3746 5937 c3 -10 9 -15 12 -12 3 3 0 11 -7 18 -10 9 -11 8 -5 -6z"/>
<path d="M3750 5860 c-335 -23 -695 -169 -888 -361 -52 -51 -61 -64 -48 -71 9
-5 82 -3 178 7 542 51 1577 45 2081 -14 100 -11 103 2 16 84 -192 181 -501
314 -804 345 -136 14 -405 19 -535 10z m535 -20 c298 -31 595 -159 788 -340
37 -34 67 -65 67 -69 0 -4 -28 -4 -62 0 -295 35 -515 44 -1123 44 -430 0 -667
-4 -775 -13 -85 -7 -175 -15 -200 -17 -25 -2 -72 -7 -104 -11 l-60 -7 23 29
c32 41 116 110 192 160 199 130 467 217 719 234 130 9 399 4 535 -10z"/>
<path d="M3578 5813 c7 -3 16 -2 19 1 4 3 -2 6 -13 5 -11 0 -14 -3 -6 -6z"/>
<path d="M4375 5782 c144 -77 248 -166 304 -262 18 -30 29 -44 26 -30 -25 94
-182 238 -337 309 -74 33 -70 24 7 -17z"/>
<path d="M3538 5803 c7 -3 16 -2 19 1 4 3 -2 6 -13 5 -11 0 -14 -3 -6 -6z"/>
<path d="M3490 5793 c-166 -59 -294 -125 -402 -206 -78 -59 -149 -127 -132
-127 6 0 23 14 40 31 81 85 272 205 414 261 96 37 117 47 105 47 -5 -1 -17 -3
-25 -6z"/>
<path d="M3560 5776 c-54 -20 -180 -85 -230 -119 -53 -36 -190 -166 -190 -180
0 -6 35 23 78 64 90 88 135 120 258 183 88 46 174 70 174 48 0 -5 -19 -21 -43
-35 -112 -66 -267 -211 -267 -250 0 -7 12 4 27 23 48 63 141 147 218 196 84
53 100 85 43 83 -18 0 -49 -6 -68 -13z"/>
<path d="M975 5465 c-201 -53 -515 -170 -515 -192 0 -7 2 -13 5 -13 13 0 328
95 405 121 139 49 222 83 211 87 -5 2 -32 -6 -58 -18 -74 -33 -223 -84 -382
-130 -79 -23 -151 -44 -160 -47 -9 -4 -13 -3 -9 2 22 24 348 140 511 181 56
14 104 28 106 30 9 8 -27 2 -114 -21z"/>
<path d="M1043 5415 c-92 -47 -243 -100 -414 -144 -68 -18 -115 -35 -117 -43
-1 -7 19 -25 46 -39 135 -75 307 -233 394 -364 104 -158 161 -307 223 -589 81
-370 157 -553 312 -753 40 -53 71 -83 83 -83 21 0 96 89 177 210 213 317 357
709 370 1010 l5 115 -78 40 c-145 73 -250 150 -556 411 -206 175 -333 275
-351 273 -7 -1 -49 -21 -94 -44z m207 -49 c35 -28 142 -117 236 -197 299 -255
396 -326 533 -395 l91 -45 0 -69 c0 -261 -117 -621 -303 -930 -86 -143 -217
-320 -237 -320 -13 0 -130 154 -172 225 -98 165 -145 297 -213 598 -92 410
-189 608 -389 795 -73 67 -246 192 -267 192 -5 0 -9 5 -9 10 0 6 9 10 19 10
38 0 330 89 438 133 86 36 112 43 128 34 46 -24 201 -148 370 -296 206 -180
308 -263 409 -330 85 -57 207 -124 213 -117 2 2 -26 21 -64 42 -152 84 -279
179 -528 398 -205 179 -228 198 -328 269 -66 48 -75 57 -60 66 21 11 36 3 133
-73z"/>
<path d="M630 5213 c85 -50 186 -132 266 -215 156 -163 266 -360 375 -673 99
-286 161 -406 280 -542 61 -69 158 -153 178 -153 8 0 -5 14 -28 30 -108 78
-233 235 -309 385 -43 86 -51 105 -137 350 -106 300 -202 463 -375 635 -100
100 -246 210 -280 210 -8 0 5 -12 30 -27z"/>
<path d="M3525 5433 c-150 -6 -408 -24 -577 -40 -188 -18 -194 -20 -182 -70 6
-23 10 -24 48 -19 106 15 480 37 795 46 495 15 1193 -6 1532 -46 42 -5 47 -3
52 17 15 56 -17 63 -408 89 -385 27 -928 37 -1260 23z m925 -13 c421 -21 721
-48 732 -64 10 -14 10 -18 0 -33 -6 -9 -31 -10 -102 -3 -376 37 -1005 54
-1471 40 -318 -9 -700 -31 -791 -46 -31 -5 -37 -2 -43 16 -4 12 -3 25 2 30 15
13 452 50 753 63 167 8 754 5 920 -3z"/>
<path d="M3395 5299 c-298 -16 -597 -40 -623 -50 -83 -32 -372 -283 -497 -432
-48 -58 -49 -58 -32 -87 32 -54 16 -300 -34 -505 -31 -132 -89 -282 -161 -425
-114 -224 -301 -482 -380 -525 -45 -24 -48 -38 -48 -253 0 -239 33 -420 110
-606 95 -228 307 -438 554 -551 107 -48 279 -70 816 -106 259 -17 1198 -23
1490 -10 468 21 864 54 988 82 175 39 434 234 557 418 282 425 269 1155 -35
1901 -187 458 -487 837 -842 1064 -68 43 -94 47 -443 72 -268 19 -1167 27
-1420 13z m1327 -17 c85 -6 100 -10 113 -29 9 -12 23 -30 33 -39 9 -10 21 -25
27 -35 5 -10 40 -62 76 -116 165 -246 253 -449 339 -788 113 -445 147 -939 85
-1267 -59 -315 -250 -553 -523 -652 -207 -74 -559 -106 -1177 -106 -635 0
-1279 54 -1692 140 -96 20 -120 23 -112 16 15 -14 417 -81 634 -105 651 -73
1556 -82 2051 -21 155 20 305 61 409 112 73 36 186 130 241 201 84 107 150
262 179 416 62 327 28 822 -85 1266 -97 381 -212 634 -410 901 l-70 94 35 0
c111 0 293 -23 333 -43 115 -56 331 -241 469 -401 253 -294 448 -683 558
-1112 124 -480 123 -938 -1 -1250 -97 -243 -289 -448 -536 -572 -93 -47 -114
-53 -218 -66 -452 -58 -967 -80 -1680 -73 -524 5 -682 12 -1045 42 -310 26
-385 40 -473 84 -240 121 -416 291 -526 509 -14 28 -22 52 -16 52 6 0 37 -7
70 -17 33 -9 62 -14 65 -11 3 3 -4 27 -15 54 -31 72 -66 216 -80 327 -12 97
-9 481 5 537 l6 25 -12 -25 c-17 -38 -24 -419 -9 -537 14 -111 49 -255 79
-326 11 -26 18 -47 15 -47 -29 0 -138 38 -145 51 -19 36 -60 199 -74 291 -15
99 -19 421 -7 466 4 12 23 30 42 40 62 31 225 244 331 432 85 151 164 349 204
510 51 204 72 463 41 521 -13 26 -11 30 78 130 51 57 126 133 167 168 77 67
239 190 274 209 20 10 300 33 620 51 174 10 1169 5 1327 -7z"/>
<path d="M3550 5230 c-376 -17 -736 -48 -777 -67 -40 -18 -249 -217 -328 -312
-75 -90 -165 -220 -165 -238 0 -8 27 26 59 74 73 108 178 230 297 342 147 140
141 136 306 150 324 26 395 31 668 42 345 14 965 1 1220 -26 42 -4 43 -4 10 5
-103 26 -943 46 -1290 30z"/>
<path d="M2818 4933 c-173 -179 -352 -467 -474 -764 -137 -334 -209 -633 -234
-977 -16 -218 6 -507 46 -583 32 -63 220 -65 261 -3 14 22 15 37 3 147 -35
322 0 742 91 1097 90 349 230 675 405 947 64 98 73 132 50 168 -13 19 -25 25
-54 25 -33 0 -45 -8 -94 -57z m134 30 c29 -26 22 -50 -44 -152 -369 -575 -569
-1402 -498 -2059 13 -122 13 -123 -10 -147 -43 -46 -182 -46 -225 1 -28 30
-41 97 -55 286 -24 309 32 706 148 1048 130 382 333 742 551 972 68 72 97 84
133 51z"/>
<path d="M6385 5135 c-130 -29 -260 -83 -392 -163 -93 -57 -109 -77 -78 -102
26 -21 115 -147 159 -223 22 -40 46 -72 51 -72 6 0 30 16 55 34 64 48 156 89
236 106 359 76 660 -167 760 -615 26 -112 24 -374 -3 -500 -55 -258 -202 -509
-384 -658 -72 -59 -173 -121 -232 -143 l-34 -12 -6 -101 c-4 -63 -15 -134 -31
-187 -14 -48 -27 -93 -28 -100 -5 -24 53 -14 157 29 175 70 320 163 461 295
239 224 389 497 461 836 24 111 27 149 27 321 0 161 -4 214 -22 305 -40 204
-110 380 -210 530 -146 220 -331 355 -572 416 -89 22 -281 24 -375 4z m377
-15 c276 -69 499 -266 656 -578 38 -75 91 -239 114 -355 18 -93 22 -145 22
-307 0 -172 -3 -210 -27 -321 -55 -262 -151 -463 -323 -680 -152 -191 -433
-391 -658 -469 -88 -30 -87 -30 -60 54 28 89 44 181 44 256 l0 55 98 47 c270
130 479 424 555 778 27 129 29 379 3 498 -38 177 -99 314 -190 424 -93 112
-216 184 -361 209 -140 24 -321 -16 -444 -98 -35 -24 -65 -43 -66 -43 -2 0
-19 28 -39 63 -19 35 -55 91 -80 125 -26 34 -46 64 -46 67 0 9 93 67 177 109
170 86 349 120 550 105 107 -9 231 -36 307 -69 25 -10 46 -17 46 -14 0 9 -92
44 -172 64 -170 44 -390 42 -552 -5 -99 -29 -253 -98 -321 -145 -44 -31 -47
-31 -66 -14 -10 9 -19 20 -19 23 0 8 167 110 235 144 63 31 162 65 240 82 95
21 286 18 377 -5z"/>
<path d="M6330 4810 c-36 -4 -76 -10 -90 -14 -59 -17 -180 -69 -180 -76 0 -5
33 6 73 24 98 46 161 59 281 58 110 0 195 -17 285 -58 29 -14 55 -23 57 -21 8
7 -110 55 -171 70 -78 19 -174 26 -255 17z"/>
<path d="M7351 4585 c75 -186 118 -435 105 -610 -24 -316 -97 -565 -234 -795
-25 -41 -53 -90 -64 -107 -37 -62 -9 -33 38 40 121 185 213 434 248 672 35
235 30 399 -19 600 -25 100 -90 280 -104 290 -4 2 9 -38 30 -90z"/>
<path d="M7180 4210 c0 -9 6 -24 14 -35 17 -25 61 -159 78 -240 19 -90 15
-359 -7 -475 -23 -121 -77 -289 -116 -358 -17 -30 -28 -56 -26 -58 9 -9 86
163 111 246 46 157 60 253 59 430 0 175 -10 245 -57 378 -27 78 -55 134 -56
112z"/>
<path d="M5812 4837 c-18 -18 -32 -38 -32 -44 0 -7 25 -47 56 -90 31 -43 81
-119 110 -170 36 -60 59 -90 68 -87 15 6 76 87 76 101 0 17 -100 175 -157 251
-30 39 -63 72 -72 72 -9 0 -31 -15 -49 -33z m111 -49 c30 -40 78 -111 106
-157 l50 -83 -31 -44 c-17 -24 -34 -44 -37 -44 -4 0 -29 39 -57 88 -29 48 -77
123 -108 166 l-57 79 32 33 c18 19 36 34 40 34 4 0 32 -33 62 -72z"/>
<path d="M2157 4621 c-26 -384 -213 -832 -497 -1185 -60 -74 -61 -76 -44 -101
23 -36 44 -31 96 23 104 107 234 307 323 495 125 265 185 506 185 740 0 96 -3
116 -16 121 -37 14 -41 8 -47 -93z m51 -21 c8 -282 -94 -614 -290 -939 -62
-102 -183 -264 -232 -310 -36 -35 -36 -35 -55 -15 -18 20 -18 21 6 50 158 189
291 412 387 649 72 180 109 322 142 553 4 24 9 32 20 28 8 -3 14 -1 14 4 0 6
-7 10 -15 10 -11 0 -15 11 -15 41 0 33 3 40 18 37 15 -3 17 -18 20 -108z"/>
<path d="M1814 3575 c11 -8 25 -15 30 -15 6 0 2 7 -8 15 -11 8 -25 15 -30 15
-6 0 -2 -7 8 -15z"/>
<path d="M6400 4642 c-109 -31 -178 -70 -251 -141 -37 -37 -70 -78 -74 -92 -4
-18 9 -59 50 -148 115 -256 193 -508 239 -781 30 -178 49 -402 44 -535 l-3
-100 50 1 c63 2 181 54 262 117 260 200 413 535 413 904 0 147 -24 276 -74
400 -73 178 -177 292 -322 353 -101 42 -233 50 -334 22z m240 -2 c124 -24 249
-114 333 -243 102 -154 147 -318 147 -530 0 -256 -62 -462 -204 -672 -114
-170 -321 -326 -454 -342 l-50 -6 5 89 c7 119 -12 366 -43 544 -47 274 -124
526 -240 781 l-56 124 18 34 c24 44 121 131 186 166 104 57 239 78 358 55z"/>
<path d="M6404 2762 c-6 -4 -22 -60 -37 -124 -14 -64 -42 -158 -62 -208 -20
-50 -34 -94 -31 -97 3 -3 32 0 65 7 l60 12 25 72 c37 106 44 133 56 219 16
126 16 127 -27 127 -21 0 -43 -4 -49 -8z m76 -24 c0 -58 -30 -211 -56 -288
-29 -84 -29 -84 -74 -97 -25 -7 -50 -12 -56 -11 -7 2 1 36 23 93 20 50 46 139
60 200 14 60 27 113 29 117 3 5 21 8 40 8 29 0 34 -4 34 -22z"/>
<path d="M2379 1778 c-3 -28 3 -54 14 -65 12 -12 133 -33 297 -53 635 -74
1980 -72 2607 5 112 14 272 41 279 47 1 2 5 20 9 41 9 44 19 43 -148 22 -479
-58 -1269 -85 -1902 -66 -463 14 -851 40 -1064 71 -86 12 -91 12 -92 -2z m92
-8 c36 -5 139 -16 230 -24 840 -77 2009 -69 2742 20 71 9 131 13 133 11 10
-10 -9 -57 -24 -61 -10 -3 -57 -12 -107 -20 -579 -95 -2046 -109 -2755 -26
-111 13 -282 40 -291 45 -9 6 -18 53 -11 60 7 6 4 6 83 -5z"/>
</g>
</svg>
