<?xml version="1.0" standalone="no"?>
<!DOCTYPE svg PUBLIC "-//W3C//DTD SVG 20010904//EN"
 "http://www.w3.org/TR/2001/REC-SVG-20010904/DTD/svg10.dtd">
<svg version="1.0" xmlns="http://www.w3.org/2000/svg"
 width="800.000000pt" height="800.000000pt" viewBox="0 0 800.000000 800.000000"
 preserveAspectRatio="xMidYMid meet">
<metadata>
Created by potrace 1.16, written by Peter Selinger 2001-2019
</metadata>
<g transform="translate(0.000000,800.000000) scale(0.100000,-0.100000)"
fill="#000000" stroke="none">
<path d="M5010 6300 c-14 -4 -159 -50 -322 -102 l-297 -95 -21 29 c-48 64 -41
65 -300 -18 -129 -42 -314 -100 -410 -131 l-175 -56 -101 -88 -101 -87 -200
-66 c-110 -36 -207 -66 -216 -66 -15 0 -148 -105 -442 -351 -44 -36 -90 -71
-103 -78 -12 -6 -22 -19 -22 -28 0 -10 -14 -66 -31 -125 -16 -59 -28 -112 -24
-117 3 -5 1 -12 -5 -16 -21 -13 -9 -77 34 -167 24 -51 69 -149 100 -218 32
-69 68 -147 81 -175 13 -27 37 -79 53 -115 16 -36 44 -96 62 -135 18 -38 52
-113 76 -165 70 -152 77 -162 120 -176 21 -6 104 -35 184 -64 247 -89 267 -94
303 -77 18 9 111 42 207 75 96 33 288 99 425 147 138 48 300 104 362 125 l112
38 41 -84 c22 -47 40 -87 40 -89 0 -3 24 -55 54 -117 29 -62 66 -140 81 -173
15 -33 42 -91 60 -130 18 -38 63 -135 99 -215 37 -80 73 -158 81 -175 73 -154
125 -267 125 -270 0 -2 22 -51 49 -107 26 -57 60 -128 74 -158 14 -30 41 -90
61 -132 20 -42 36 -79 36 -81 0 -3 32 -71 70 -151 39 -81 70 -149 70 -151 0
-2 14 -34 32 -71 25 -52 29 -70 20 -84 -6 -10 -10 -53 -10 -96 1 -78 2 -81 88
-259 83 -173 87 -183 89 -254 0 -40 3 -76 5 -80 3 -4 12 -56 20 -116 9 -61 22
-155 30 -210 9 -55 20 -143 26 -195 16 -143 24 -162 93 -237 72 -77 104 -93
187 -93 120 0 423 81 512 137 68 42 93 104 108 265 9 93 8 120 -6 175 -9 36
-22 77 -30 91 -8 15 -14 31 -14 35 0 4 -57 121 -126 260 -123 247 -125 253
-113 289 6 20 9 48 5 62 -5 22 -165 331 -203 394 -8 13 -22 26 -31 29 -9 4
-29 19 -44 35 -14 15 -36 28 -47 28 -22 0 -21 -1 -129 230 -55 118 -109 234
-150 320 -22 47 -56 119 -75 160 -54 115 -120 256 -165 351 -22 47 -59 124
-80 170 -22 46 -79 167 -127 269 -105 225 -131 279 -185 395 -23 50 -55 117
-71 149 -17 33 -26 63 -22 67 4 4 131 51 281 103 269 95 274 97 358 162 72 56
89 75 114 129 16 34 86 176 155 316 69 139 125 258 125 265 0 6 -49 116 -109
245 -59 129 -120 259 -133 289 -55 119 -111 237 -135 285 -14 28 -31 67 -38
89 -13 45 -7 41 -237 152 -165 79 -179 84 -200 71 -13 -8 -232 -81 -488 -162
-624 -197 -621 -196 -1055 -335 -209 -67 -404 -130 -432 -138 -57 -18 -65 -33
-34 -66 22 -26 45 -69 114 -216 58 -123 92 -195 196 -415 37 -77 102 -217 146
-312 55 -118 85 -172 96 -173 9 0 108 32 220 71 112 38 231 79 264 90 33 11
65 26 71 32 7 7 24 51 38 98 14 48 32 91 38 96 7 6 135 52 283 102 149 51 310
107 358 123 l88 31 107 -51 107 -52 150 53 c83 29 189 66 238 82 48 16 87 34
87 38 0 9 -195 400 -280 562 -102 195 -230 454 -230 466 0 8 -16 24 -35 37
-19 12 -35 27 -35 32 0 6 1 10 3 10 4 0 276 -133 345 -168 48 -25 56 -33 72
-81 11 -29 23 -58 28 -65 8 -9 52 -103 215 -456 54 -117 118 -254 144 -307
l26 -52 -55 -113 c-31 -62 -102 -206 -158 -320 l-101 -207 -87 -68 c-86 -68
-88 -69 -361 -164 -151 -53 -277 -101 -279 -107 -2 -6 17 -53 41 -104 25 -51
57 -120 72 -153 16 -33 54 -115 87 -183 32 -68 58 -125 58 -127 0 -2 33 -73
74 -157 70 -146 99 -208 171 -363 35 -76 106 -225 191 -403 30 -62 54 -114 54
-116 0 -2 26 -60 59 -128 86 -182 128 -271 155 -333 20 -44 30 -55 48 -55 12
0 34 -11 48 -24 14 -13 38 -37 54 -53 35 -34 226 -394 226 -426 0 -13 -4 -27
-9 -32 -18 -19 -15 -50 9 -95 87 -169 114 -222 183 -365 101 -212 111 -250 97
-396 -18 -200 -62 -254 -255 -317 -199 -64 -384 -89 -443 -58 -39 20 -140 129
-157 168 -7 19 -18 78 -24 133 -7 55 -18 145 -26 200 -9 55 -22 149 -31 210
-8 60 -17 112 -20 116 -2 4 -5 42 -6 85 -1 77 -3 82 -88 259 -84 173 -87 183
-88 252 -1 40 3 75 9 78 12 8 12 51 -1 73 -10 18 -73 153 -165 352 -31 69 -69
152 -85 185 -15 33 -56 121 -90 195 -96 208 -103 225 -179 388 -39 85 -71 155
-71 157 0 1 -29 63 -64 136 -35 74 -105 224 -156 334 -50 110 -110 237 -131
282 -21 46 -39 87 -39 92 0 5 -4 12 -9 16 -5 3 -114 -31 -243 -76 -128 -44
-350 -121 -493 -170 -143 -49 -296 -103 -340 -119 l-80 -30 -60 19 c-50 16
-147 50 -385 135 -36 13 -59 50 -124 196 -16 36 -48 106 -71 155 -42 90 -64
137 -125 270 -18 39 -42 93 -55 120 -13 28 -42 91 -65 140 -23 50 -53 113 -66
141 -25 54 -31 99 -14 109 6 4 8 14 6 23 -10 30 58 253 80 265 10 5 57 42 104
81 47 38 121 100 165 136 44 36 119 98 167 138 48 40 93 72 100 72 7 0 106 31
219 68 l205 68 102 87 101 88 168 54 c92 29 274 88 403 129 l235 76 42 -44 42
-43 298 95 c164 52 318 100 343 107 25 7 36 13 25 13 -11 0 -31 -3 -45 -8z
m92 -60 c21 -14 38 -31 38 -38 0 -13 484 -976 503 -1000 5 -7 8 -15 5 -18 -3
-2 -95 -36 -204 -73 -109 -38 -211 -74 -226 -80 -25 -9 -41 -4 -134 41 l-106
52 -257 -87 c-141 -49 -310 -107 -376 -130 l-119 -42 -31 -98 c-28 -90 -33
-100 -63 -112 -28 -12 -32 -12 -32 1 0 8 4 13 9 9 6 -3 15 3 20 14 8 14 7 22
-3 30 -11 10 -17 4 -28 -31 -10 -29 -21 -44 -39 -49 -13 -4 -116 -39 -228 -78
-112 -39 -209 -71 -215 -71 -6 0 -23 26 -38 58 -15 31 -45 95 -66 142 -81 173
-113 242 -257 545 -19 39 -63 133 -100 210 -36 77 -75 150 -87 162 -12 13 -20
25 -17 27 7 7 472 157 1009 327 74 23 329 104 565 180 237 75 432 136 435 136
3 -1 22 -13 42 -27z m-978 -1555 c-4 -8 -8 -15 -10 -15 -2 0 -4 7 -4 15 0 8 4
15 10 15 5 0 7 -7 4 -15z"/>
<path d="M5005 6165 c-55 -18 -227 -74 -383 -124 -155 -50 -407 -131 -560
-180 -152 -49 -378 -122 -502 -161 -413 -132 -449 -144 -445 -148 2 -2 52 12
112 31 59 19 209 67 333 107 124 39 350 112 502 161 153 49 405 130 560 180
392 126 515 167 498 167 -8 0 -60 -15 -115 -33z"/>
<path d="M4881 5838 c-72 -135 -81 -158 -58 -158 13 0 157 256 157 278 0 7 -6
12 -14 12 -8 0 -46 -60 -85 -132z m58 56 c-75 -141 -111 -205 -116 -200 -3 3
10 33 30 68 19 35 49 90 67 123 18 33 35 64 37 68 3 5 7 6 9 4 2 -2 -10 -30
-27 -63z"/>
<path d="M5100 5898 c-23 -50 -25 -78 -7 -78 14 0 57 77 57 103 0 32 -31 17
-50 -25z m14 -29 c-21 -37 -25 -39 -19 -15 7 33 38 83 42 69 2 -5 -8 -30 -23
-54z"/>
<path d="M4676 5570 c-38 -67 -67 -123 -65 -125 3 -2 35 50 73 116 37 66 70
118 73 115 3 -3 -25 -57 -62 -121 -36 -64 -65 -119 -62 -121 5 -5 127 208 134
235 4 14 1 21 -9 21 -8 0 -45 -54 -82 -120z"/>
<path d="M5017 5533 c-92 -170 -137 -259 -137 -273 0 -5 6 -10 14 -10 13 0
226 387 226 410 0 6 -6 10 -14 10 -8 0 -47 -61 -89 -137z m32 6 c-34 -63 -82
-151 -106 -197 -25 -46 -47 -82 -49 -79 -2 2 9 28 24 58 16 30 59 113 97 184
69 131 85 158 91 152 2 -2 -23 -55 -57 -118z"/>
<path d="M3637 5583 c-4 -4 -19 -30 -32 -60 -14 -29 -31 -52 -37 -50 -7 1 -13
-10 -13 -25 -1 -16 -6 -33 -13 -40 -16 -16 -15 -48 1 -48 12 0 92 128 85 136
-2 2 -21 -26 -42 -62 -21 -36 -39 -64 -42 -61 -6 5 97 200 110 209 8 6 8 8 0
8 -6 0 -14 -3 -17 -7z"/>
<path d="M3642 5545 c-17 -37 -14 -45 4 -12 9 16 14 31 11 33 -2 2 -9 -7 -15
-21z"/>
<path d="M3462 5481 c-18 -38 -32 -76 -32 -85 0 -33 21 -14 49 47 40 86 45
107 29 107 -8 0 -29 -31 -46 -69z m39 37 c-20 -52 -61 -132 -61 -121 0 15 58
143 65 143 2 0 1 -10 -4 -22z"/>
<path d="M4103 5327 c-96 -175 -105 -197 -79 -197 12 0 162 267 154 275 -2 2
-36 -57 -77 -131 -40 -74 -75 -133 -78 -130 -4 4 37 85 109 214 17 29 28 55
26 58 -3 2 -27 -38 -55 -89z"/>
<path d="M5322 5408 c-7 -7 -12 -19 -12 -27 1 -12 4 -11 12 4 6 11 16 23 22
27 7 5 8 8 1 8 -6 0 -16 -5 -23 -12z"/>
<path d="M5336 5383 c-6 -14 -5 -15 5 -6 7 7 10 15 7 18 -3 3 -9 -2 -12 -12z"/>
<path d="M3396 5241 c-36 -71 -44 -101 -27 -101 12 0 91 142 90 161 0 8 -20
-24 -44 -71 -24 -47 -44 -78 -44 -70 0 8 15 44 34 79 19 36 33 66 31 69 -3 2
-21 -28 -40 -67z"/>
<path d="M3876 5201 c-49 -94 -54 -111 -33 -111 12 0 113 178 105 186 -3 2
-26 -37 -52 -87 -27 -50 -50 -88 -53 -85 -3 3 16 44 41 92 26 48 45 89 42 91
-2 2 -24 -36 -50 -86z"/>
<path d="M5102 5218 c-17 -22 -42 -76 -42 -93 0 -33 27 -12 53 40 37 75 33 84
-4 11 -17 -32 -33 -56 -35 -53 -3 3 6 28 20 56 26 50 29 64 8 39z"/>
<path d="M3726 4987 c-38 -67 -56 -127 -38 -127 10 0 102 161 102 180 0 5 -7
10 -15 10 -7 0 -30 -28 -49 -63z m9 -37 c-50 -96 -62 -93 -14 3 32 63 49 90
55 84 2 -2 -17 -41 -41 -87z"/>
<path d="M5170 6202 c0 -5 9 -26 19 -48 19 -39 20 -40 98 -52 43 -6 89 -14
103 -17 14 -2 6 2 -17 9 -23 8 -67 18 -98 21 -52 7 -57 10 -76 46 -10 22 -17
39 -14 39 3 0 45 -20 93 -44 48 -24 104 -49 125 -56 24 -7 42 -21 47 -35 5
-13 22 -52 38 -87 117 -250 176 -376 214 -458 25 -52 59 -126 76 -165 17 -38
42 -92 56 -120 13 -27 23 -51 22 -52 -1 -2 -39 2 -84 9 l-82 11 -191 376
c-106 207 -206 404 -224 439 -37 70 -40 68 72 47 97 -19 93 -19 93 3 0 12 -3
13 -8 5 -6 -10 -24 -10 -86 2 -95 18 -118 19 -114 3 2 -7 103 -209 225 -449
l223 -435 91 -13 c51 -6 94 -9 97 -6 6 5 -29 82 -192 427 -25 54 -46 100 -46
102 0 2 -30 67 -66 143 -72 150 -98 208 -107 236 -4 9 -13 17 -20 17 -8 0 -64
25 -126 55 -108 53 -141 64 -141 47z"/>
<path d="M4215 6125 c-63 -21 -205 -66 -567 -182 -65 -20 -119 -42 -122 -48
-2 -7 7 -24 20 -38 23 -25 25 -25 66 -12 24 8 99 32 168 54 481 152 570 183
570 195 0 15 -42 56 -56 55 -5 0 -40 -11 -79 -24z m105 -10 l23 -24 -24 -10
c-31 -11 -731 -233 -743 -235 -5 0 -10 4 -13 11 -3 7 55 30 159 63 90 29 201
64 248 80 47 15 140 45 208 65 67 21 120 40 118 42 -4 4 -190 -53 -521 -160
-247 -79 -227 -74 -232 -60 -4 10 40 26 487 168 58 19 139 45 180 59 41 13 78
25 81 25 3 1 16 -10 29 -24z"/>
<path d="M5350 6006 c0 -16 21 -26 56 -26 31 0 32 26 2 34 -37 10 -58 7 -58
-8z m60 -6 c12 -8 9 -10 -12 -10 -15 0 -30 5 -33 10 -8 13 25 13 45 0z"/>
<path d="M5420 5928 c1 -18 25 -48 39 -48 15 0 14 33 -1 48 -16 16 -38 15 -38
0z m34 -14 c10 -25 -1 -29 -14 -5 -6 12 -7 21 -1 21 5 0 12 -7 15 -16z"/>
<path d="M3433 5837 c-66 -53 -72 -60 -49 -51 13 5 17 4 12 -4 -3 -6 18 -2 49
9 30 10 61 19 70 19 17 0 20 23 5 51 -15 27 -28 23 -87 -24z m87 -8 c0 -6 -17
-12 -110 -37 -8 -3 8 14 35 36 44 35 51 38 63 24 6 -9 12 -19 12 -23z"/>
<path d="M5440 5838 c0 -23 85 -178 98 -178 20 0 14 21 -30 108 -39 74 -68
104 -68 70z m61 -79 c22 -45 38 -83 35 -86 -4 -5 -86 149 -86 162 0 17 15 -5
51 -76z"/>
<path d="M5420 5768 c1 -7 20 -49 43 -92 41 -78 67 -105 67 -71 0 28 -81 175
-96 175 -8 0 -14 -6 -14 -12z m65 -86 c21 -40 35 -75 33 -78 -5 -5 -88 147
-88 162 0 15 18 -11 55 -84z"/>
<path d="M2928 5598 c-55 -18 -57 -20 -67 -66 -5 -26 -13 -71 -17 -100 -9 -72
-29 -82 -21 -11 3 30 9 71 13 92 5 30 4 37 -9 37 -8 0 -17 -3 -19 -8 -3 -7
-404 -341 -440 -366 -20 -14 -81 -197 -69 -209 16 -16 69 42 76 83 4 22 11 43
17 46 7 4 8 -4 3 -25 -4 -17 -3 -31 0 -31 4 0 59 41 121 91 93 74 114 96 115
117 0 15 4 36 9 47 8 18 9 17 9 -7 1 -15 5 -29 9 -32 4 -2 31 13 59 35 29 21
56 39 62 39 13 0 80 -43 81 -52 0 -3 23 -55 51 -115 54 -115 77 -164 132 -283
19 -41 48 -105 66 -142 17 -38 44 -96 60 -130 16 -35 43 -94 61 -133 18 -38
45 -98 61 -132 16 -34 29 -66 29 -71 0 -13 182 -54 216 -49 27 4 27 4 -7 6
-50 2 -192 40 -201 54 -4 6 -2 15 5 19 9 6 9 8 -1 8 -7 0 -28 34 -47 75 -19
41 -51 110 -71 153 -93 198 -114 243 -114 247 0 2 -34 74 -75 160 -41 87 -75
159 -75 161 0 2 -18 40 -40 85 -44 90 -45 93 -30 84 10 -6 66 -119 189 -378
28 -60 51 -110 51 -112 0 -1 34 -73 75 -159 41 -86 75 -160 75 -165 0 -5 7
-14 15 -21 8 -7 19 -29 25 -49 16 -59 26 -68 51 -53 63 39 151 84 155 79 3 -3
-31 -27 -75 -53 -45 -26 -79 -49 -77 -52 5 -4 117 57 149 81 9 8 17 19 17 26
0 21 -36 11 -113 -33 l-78 -45 -10 26 c-20 54 -17 67 21 75 33 6 32 6 -9 5
-43 -2 -45 -1 -70 48 -14 28 -39 78 -54 113 -16 35 -56 121 -89 190 -33 70
-73 156 -90 192 -127 269 -135 284 -183 310 -28 15 -43 30 -40 38 3 8 5 16 5
18 0 2 9 -1 19 -8 16 -10 33 -3 112 42 52 29 104 59 116 68 22 14 24 12 52
-49 16 -35 52 -113 81 -174 29 -60 67 -141 85 -180 18 -38 58 -124 90 -190 31
-66 79 -167 107 -224 l49 -105 -23 -21 c-13 -12 -44 -30 -70 -39 -27 -10 -48
-24 -48 -32 0 -31 61 -6 111 46 l37 38 16 -39 c9 -21 20 -39 24 -39 5 0 -12
42 -37 93 -25 50 -59 120 -74 154 -15 34 -57 124 -94 200 -107 225 -166 352
-219 467 -27 59 -54 110 -61 113 -6 2 -62 -25 -123 -61 -86 -51 -116 -64 -128
-56 -10 5 -12 10 -7 11 6 1 15 2 21 3 24 3 223 122 224 134 0 28 -64 113 -84
111 -6 -1 -37 -10 -68 -21z m94 -15 c32 -35 54 -76 42 -80 -5 -2 -54 -30 -109
-62 -55 -33 -102 -58 -104 -55 -6 5 20 156 29 174 6 11 72 40 111 49 3 0 17
-11 31 -26z m-202 -107 c-6 -31 -11 -69 -10 -84 3 -47 1 -52 -26 -52 -23 0
-97 -47 -116 -75 -4 -5 -8 5 -8 23 0 51 -27 41 -35 -13 -7 -42 -13 -49 -104
-122 -53 -42 -102 -84 -108 -93 -11 -12 -12 -9 -7 18 5 25 3 32 -10 32 -10 0
-19 -15 -27 -44 -6 -25 -24 -56 -40 -72 -16 -15 -29 -26 -29 -23 0 2 13 43 28
90 26 81 31 89 87 135 191 155 400 330 404 337 1 5 5 6 8 3 3 -2 0 -30 -7 -60z
m650 -1005 c0 -10 -61 -34 -68 -27 -3 4 40 27 66 35 1 1 2 -3 2 -8z"/>
<path d="M2950 5518 c-36 -11 -69 -24 -74 -28 -7 -7 124 30 159 44 29 12 -28
2 -85 -16z"/>
<path d="M2704 5365 c-7 -30 -1 -40 21 -32 20 8 20 57 0 57 -8 0 -17 -11 -21
-25z m22 -22 c-11 -11 -19 6 -11 24 8 17 8 17 12 0 3 -10 2 -21 -1 -24z"/>
<path d="M2532 5258 c-15 -15 -16 -38 -1 -38 20 0 49 21 49 35 0 18 -31 20
-48 3z m28 -13 c-7 -8 -17 -15 -22 -15 -6 0 -5 7 2 15 7 8 17 15 22 15 6 0 5
-7 -2 -15z"/>
<path d="M2412 5168 c-18 -18 -14 -38 7 -38 17 0 31 18 31 41 0 13 -24 11 -38
-3z m23 -17 c-3 -6 -11 -11 -17 -11 -6 0 -6 6 2 15 14 17 26 13 15 -4z"/>
<path d="M5590 5560 c0 -29 21 -70 37 -70 17 0 16 12 -1 55 -16 38 -36 47 -36
15z m34 -40 c7 -24 6 -24 -8 -6 -9 11 -16 29 -16 40 1 17 2 18 9 6 5 -8 12
-26 15 -40z"/>
<path d="M5530 5555 c0 -8 7 -15 15 -15 8 0 15 7 15 15 0 8 -7 15 -15 15 -8 0
-15 -7 -15 -15z"/>
<path d="M3060 5319 c0 -28 42 -99 59 -99 17 0 9 36 -20 85 -24 39 -39 45 -39
14z m56 -86 c-6 -6 -46 72 -46 89 1 7 12 -9 26 -35 14 -27 23 -51 20 -54z"/>
<path d="M5720 5320 c0 -11 7 -20 15 -20 8 0 15 9 15 20 0 11 -7 20 -15 20 -8
0 -15 -9 -15 -20z"/>
<path d="M2744 5287 c-10 -6 -119 -91 -241 -189 -250 -202 -261 -216 -224
-285 21 -38 131 -272 131 -278 0 -4 52 -117 126 -273 30 -63 54 -115 54 -117
0 -2 19 -43 41 -92 23 -48 56 -122 74 -163 30 -69 37 -77 81 -99 27 -13 66
-25 87 -25 l38 -1 177 239 c97 132 183 242 190 244 14 4 -17 -40 -231 -332
-64 -88 -117 -164 -117 -170 0 -9 179 -77 246 -94 6 -2 71 93 145 210 163 262
210 330 229 336 11 4 10 -2 -5 -24 -159 -240 -325 -513 -315 -519 4 -2 210 65
456 151 247 86 495 172 551 191 56 19 104 40 106 47 3 8 -1 26 -9 41 -30 58
-5 126 73 195 75 67 163 104 248 105 90 0 123 -22 162 -106 15 -32 34 -59 41
-59 11 0 459 153 545 186 9 3 22 20 30 37 8 18 47 102 87 187 39 85 90 192
112 237 22 45 37 86 34 92 -4 6 -18 5 -39 -4 -17 -7 -131 -49 -252 -93 -210
-77 -425 -155 -1348 -487 -288 -104 -415 -145 -433 -141 -28 7 -30 24 -10 134
7 39 10 72 6 72 -3 0 -12 -40 -19 -90 -7 -49 -16 -92 -21 -95 -7 -4 -127 22
-187 41 -15 5 -15 4 -3 -4 21 -14 180 -53 190 -47 4 3 13 -2 20 -10 7 -8 22
-15 33 -15 12 0 204 66 427 146 918 331 1135 409 1345 486 121 44 235 86 253
93 38 16 38 15 12 -33 -19 -36 -55 -112 -154 -327 -86 -188 -44 -156 -346
-262 -146 -51 -270 -93 -275 -93 -6 0 -23 27 -39 61 -18 40 -38 67 -59 79 -92
57 -257 21 -371 -81 -77 -68 -103 -146 -71 -208 19 -37 15 -40 -100 -79 -49
-16 -292 -100 -539 -186 -247 -86 -451 -156 -453 -156 -3 0 5 12 17 28 12 15
74 110 137 212 63 102 128 204 143 227 15 22 31 51 35 63 6 18 3 21 -16 18
-28 -4 -53 -39 -239 -336 -103 -166 -136 -212 -149 -207 -9 4 -62 22 -118 42
-67 23 -100 39 -96 47 4 6 55 77 114 157 226 309 241 331 231 341 -6 6 -17 8
-25 5 -8 -3 -94 -114 -192 -247 -176 -239 -178 -242 -210 -237 -50 8 -108 40
-122 67 -7 14 -43 90 -79 170 -66 145 -80 176 -149 325 -20 44 -47 103 -60
130 -12 28 -38 84 -58 125 -19 41 -49 107 -66 145 -18 39 -38 82 -46 97 -11
18 -12 33 -6 50 11 29 480 410 497 404 6 -2 17 -1 23 4 20 12 -33 9 -55 -3z"/>
<path d="M3018 5165 c-9 -46 -12 -78 -6 -81 15 -10 25 7 37 64 15 70 14 92 -3
92 -9 0 -18 -26 -28 -75z m22 -10 c-7 -36 -16 -65 -21 -65 -5 0 -7 6 -4 13 2
6 9 38 15 70 7 32 14 56 17 53 3 -3 0 -35 -7 -71z"/>
<path d="M3137 5194 c-9 -10 2 -24 19 -24 8 0 14 7 14 15 0 15 -21 21 -33 9z"/>
<path d="M5690 5144 c1 -16 5 -60 10 -98 7 -57 6 -73 -9 -100 -10 -17 -44 -87
-76 -156 -32 -69 -77 -167 -101 -218 -24 -51 -44 -97 -44 -102 0 -20 26 -8 66
28 34 30 66 87 168 292 84 170 123 257 116 264 -6 6 -10 6 -11 1 -1 -6 -2 -15
-3 -21 0 -6 -12 -34 -26 -62 -17 -34 -31 -51 -44 -52 -22 0 -45 -27 -46 -52 0
-20 15 -24 26 -6 5 7 3 8 -6 3 -8 -5 -11 -3 -8 5 3 10 38 25 38 17 0 -1 -39
-79 -88 -173 -67 -132 -97 -179 -131 -210 -24 -21 -42 -34 -40 -29 3 6 21 44
40 85 20 41 49 103 64 137 27 58 30 61 46 47 16 -14 18 -14 24 6 9 27 0 36
-20 20 -8 -7 -15 -9 -15 -6 0 16 106 226 113 226 14 0 69 42 63 47 -3 3 -17
-4 -32 -16 -44 -34 -51 -28 -58 55 -4 42 -5 78 -2 81 7 7 131 -8 147 -18 16
-11 9 -17 -80 -79 -28 -19 -51 -39 -51 -44 0 -5 10 -1 23 7 12 9 46 33 75 52
56 39 68 69 30 78 -13 4 -53 9 -90 13 l-68 7 0 -29z m-40 -384 c0 -5 -5 -10
-11 -10 -5 0 -7 5 -4 10 3 6 8 10 11 10 2 0 4 -4 4 -10z"/>
<path d="M5575 5120 c-27 -10 -214 -76 -415 -145 -201 -70 -468 -163 -595
-207 -211 -73 -656 -228 -866 -299 l-86 -30 -12 -82 c-14 -104 -14 -107 4
-107 8 0 87 27 177 60 90 32 278 100 418 150 394 142 962 346 1313 472 187 68
175 56 161 162 -8 54 -18 57 -99 26z m90 -45 c4 -30 5 -60 2 -67 -3 -7 -76
-38 -163 -70 -88 -31 -298 -106 -469 -168 -388 -140 -516 -185 -835 -300 -140
-50 -330 -118 -423 -152 -92 -34 -170 -58 -173 -55 -3 3 0 43 8 88 l13 82 225
78 c124 43 231 79 238 79 8 0 12 -13 11 -37 l-2 -38 -7 35 -7 35 -2 -37 c-1
-27 3 -38 13 -38 11 0 16 14 18 46 l3 46 95 33 c52 18 205 71 340 118 135 47
409 143 610 212 201 69 388 135 415 145 78 30 83 28 90 -35z"/>
<path d="M3068 5076 c-7 -33 8 -57 22 -36 14 22 12 60 -4 60 -7 0 -16 -11 -18
-24z m22 -6 c0 -11 -4 -20 -9 -20 -5 0 -7 9 -4 20 3 11 7 20 9 20 2 0 4 -9 4
-20z"/>
<path d="M4860 5055 c-52 -19 -207 -73 -345 -120 -137 -48 -255 -92 -261 -98
-14 -14 -59 -155 -52 -162 2 -3 83 23 179 56 96 34 185 65 199 69 14 5 124 43
245 85 121 43 242 84 268 92 27 8 47 17 44 19 -5 5 -51 -10 -312 -101 -121
-42 -231 -80 -245 -85 -14 -4 -103 -35 -198 -69 -97 -34 -172 -55 -170 -48 32
114 41 135 66 147 15 7 131 48 257 92 127 43 276 95 332 115 l103 36 69 -37
c38 -20 77 -36 86 -36 10 0 -19 18 -63 40 -44 22 -86 40 -93 39 -8 0 -57 -15
-109 -34z"/>
<path d="M2707 4863 c-15 -24 -34 -124 -25 -129 13 -8 23 4 37 45 13 41 14 91
2 91 -6 0 -12 -3 -14 -7z m3 -79 c-7 -24 -16 -44 -21 -44 -5 0 -6 6 -4 13 2 6
9 32 16 57 6 25 14 39 16 32 3 -8 0 -33 -7 -58z"/>
<path d="M3230 4842 c0 -24 28 -62 46 -62 18 0 18 14 -1 50 -17 33 -45 40 -45
12z m49 -47 c0 -5 -9 1 -19 14 -11 13 -20 28 -20 35 0 6 9 0 20 -14 11 -14 20
-29 19 -35z"/>
<path d="M3244 4685 c3 -9 6 -21 6 -26 0 -5 7 -9 16 -9 23 0 14 44 -10 48 -14
3 -17 0 -12 -13z m26 -10 c0 -8 -2 -15 -4 -15 -2 0 -6 7 -10 15 -3 8 -1 15 4
15 6 0 10 -7 10 -15z"/>
<path d="M2736 4672 c-2 -4 -7 -22 -11 -39 -5 -26 -3 -33 8 -33 11 0 37 46 37
65 0 7 -30 13 -34 7z m17 -32 c-3 -11 -10 -23 -16 -27 -7 -4 -8 0 -4 11 4 10
7 22 7 27 0 5 4 9 9 9 5 0 7 -9 4 -20z"/>
<path d="M4810 4633 c0 -6 21 -18 47 -27 57 -20 81 -20 33 0 l-35 14 35 -5
c41 -5 22 9 -25 19 -22 5 -26 4 -15 -4 13 -8 13 -10 0 -10 -9 0 -21 5 -28 12
-8 8 -12 8 -12 1z"/>
<path d="M5300 4625 c0 -8 7 -15 15 -15 8 0 15 7 15 15 0 8 -7 15 -15 15 -8 0
-15 -7 -15 -15z"/>
<path d="M3370 4606 c0 -8 9 -24 19 -37 15 -18 22 -21 31 -13 9 9 8 18 -5 38
-18 28 -45 35 -45 12z m45 -44 c-6 -7 -34 29 -34 43 0 6 9 -1 20 -14 11 -13
17 -26 14 -29z"/>
<path d="M5238 4563 c7 -3 16 -2 19 1 4 3 -2 6 -13 5 -11 0 -14 -3 -6 -6z"/>
<path d="M3376 4543 c-11 -11 -6 -23 9 -23 8 0 15 4 15 9 0 13 -16 22 -24 14z"/>
<path d="M5061 4491 c-42 -61 -51 -91 -28 -91 17 0 97 116 96 138 0 14 -2 14
-6 2 -10 -26 -86 -131 -91 -125 -3 2 14 32 38 65 23 34 40 64 37 66 -3 3 -24
-22 -46 -55z"/>
<path d="M4560 4346 c-60 -20 -103 -46 -152 -94 -57 -55 -75 -100 -58 -143 16
-38 33 -37 66 6 38 50 136 111 211 131 54 14 72 15 115 5 28 -6 53 -9 56 -6
12 12 -39 96 -64 105 -33 13 -130 11 -174 -4z m171 -6 c10 -6 28 -29 40 -52
18 -35 19 -40 4 -34 -49 18 -97 17 -167 -4 -84 -26 -165 -75 -204 -127 l-27
-36 -14 27 c-19 36 -10 60 45 119 44 47 91 78 157 104 38 15 140 16 166 3z"/>
<path d="M3055 4248 c-3 -7 -14 -44 -25 -82 -15 -54 -17 -72 -7 -78 6 -4 14
-4 18 0 8 10 39 129 39 152 0 22 -18 27 -25 8z m0 -83 c-10 -36 -21 -65 -26
-65 -4 0 1 30 12 67 10 38 19 70 19 72 0 2 3 2 6 -2 4 -3 -2 -36 -11 -72z"/>
<path d="M4017 4212 c-37 -38 -48 -72 -24 -72 16 0 97 82 97 98 0 24 -37 11
-73 -26z m23 -17 c-24 -24 -46 -42 -49 -40 -6 7 70 85 83 85 6 0 -10 -20 -34
-45z"/>
<path d="M4615 4223 c-72 -26 -137 -67 -174 -109 -58 -65 -58 -68 -2 -195 28
-62 50 -107 51 -99 0 8 -20 59 -45 114 -41 91 -43 101 -30 125 42 81 183 165
276 165 81 1 120 -23 155 -95 l27 -58 -24 -22 -24 -21 27 16 c26 15 28 15 38
-3 5 -11 10 -21 10 -23 0 -2 -41 -2 -90 0 -70 4 -101 1 -137 -13 -75 -29 -150
-107 -167 -175 -4 -14 4 -5 18 20 30 56 87 111 144 140 38 20 54 22 143 18 68
-3 99 -2 99 6 0 6 -18 50 -41 97 -33 69 -49 90 -75 102 -54 26 -122 30 -179
10z"/>
<path d="M3432 4134 c4 -21 22 -23 26 -1 2 10 -3 17 -13 17 -10 0 -15 -6 -13
-16z"/>
<path d="M3740 4079 c0 -26 38 -46 46 -24 7 18 -8 38 -31 41 -9 1 -15 -5 -15
-17z m35 -10 c11 -17 -1 -21 -15 -4 -8 9 -8 15 -2 15 6 0 14 -5 17 -11z"/>
<path d="M2786 4068 c-10 -39 -7 -68 8 -68 12 0 26 40 26 76 0 23 -27 16 -34
-8z m15 -39 c-9 -23 -10 -23 -10 -2 -1 12 2 30 6 40 6 15 8 15 11 2 1 -8 -2
-26 -7 -40z"/>
<path d="M2892 4065 c-16 -35 -15 -75 2 -75 7 0 16 12 20 28 3 15 8 37 12 50
9 32 -20 29 -34 -3z m14 -31 c-11 -30 -15 -33 -15 -16 -1 24 17 67 25 59 2 -2
-2 -21 -10 -43z"/>
<path d="M3276 3966 c-28 -38 -34 -66 -12 -66 14 0 66 68 66 88 0 23 -28 12
-54 -22z m19 -21 c-15 -19 -30 -33 -33 -31 -3 3 8 22 23 41 15 20 29 34 32 31
3 -2 -7 -21 -22 -41z"/>
<path d="M4686 3975 c-61 -21 -108 -66 -144 -136 -27 -52 -31 -69 -24 -89 9
-23 10 -23 9 10 -1 48 59 139 118 180 37 26 61 34 110 38 76 6 157 -12 182
-40 18 -21 18 -21 -2 -13 -93 38 -215 26 -288 -29 -43 -32 -90 -101 -101 -146
-4 -15 2 -8 14 15 70 140 200 203 335 161 53 -17 78 -8 55 19 -33 39 -188 57
-264 30z"/>
<path d="M3112 3921 c-33 -41 -41 -71 -19 -71 14 0 87 83 87 99 0 25 -39 8
-68 -28z m22 -16 c-20 -25 -39 -43 -42 -41 -6 7 57 86 70 86 5 0 -7 -20 -28
-45z"/>
<path d="M4725 3904 c-57 -21 -121 -88 -145 -152 -27 -73 -26 -89 20 -183 22
-46 40 -76 40 -68 0 8 -16 47 -35 88 -19 40 -35 83 -35 95 0 38 58 142 95 170
19 15 54 35 77 46 51 22 40 25 -17 4z"/>
<path d="M4765 3887 c-22 -12 -46 -34 -54 -49 -14 -24 -13 -30 19 -89 18 -35
37 -66 41 -69 5 -3 -7 -18 -26 -33 -36 -28 -95 -120 -95 -146 0 -8 11 8 25 36
34 68 110 138 166 153 24 7 82 10 129 8 99 -4 98 -8 46 105 -32 71 -34 73 -88
90 -73 23 -115 21 -163 -6z m158 -3 c50 -17 55 -23 100 -126 l25 -55 -87 4
c-59 3 -101 0 -133 -10 l-48 -15 -34 65 c-40 75 -38 87 22 128 43 29 88 32
155 9z"/>
<path d="M3180 3835 c0 -8 7 -15 15 -15 8 0 15 7 15 15 0 8 -7 15 -15 15 -8 0
-15 -7 -15 -15z"/>
<path d="M3102 3768 c3 -7 15 -15 27 -16 16 -3 22 1 19 10 -3 7 -15 15 -27 16
-16 3 -22 -1 -19 -10z m35 -4 c-3 -3 -12 -4 -19 -1 -8 3 -5 6 6 6 11 1 17 -2
13 -5z"/>
<path d="M4841 3669 c-73 -22 -131 -87 -166 -185 -14 -41 -15 -55 -6 -70 11
-17 12 -16 7 8 -15 68 95 217 177 239 54 15 181 5 213 -16 31 -20 32 -40 2
-23 -36 19 -186 17 -225 -4 -19 -11 -33 -14 -36 -8 -3 6 -4 5 -3 -2 1 -7 -10
-23 -25 -36 -16 -12 -39 -46 -52 -75 -41 -87 -41 -107 0 -27 75 146 179 187
353 139 28 -8 17 35 -14 50 -36 17 -180 24 -225 10z"/>
<path d="M4876 3595 c-71 -25 -120 -85 -157 -192 l-18 -54 42 -89 c23 -50 47
-90 53 -90 6 0 20 19 30 42 45 101 123 157 233 169 l76 8 -75 -3 c-45 -2 -88
-9 -107 -19 l-31 -17 -26 65 c-14 36 -35 81 -46 102 -23 43 -16 58 39 73 52
14 109 12 170 -6 l52 -15 48 -100 48 -99 -36 5 c-35 5 -35 5 -6 -5 45 -15 57
-7 40 27 -7 15 -29 62 -48 104 l-34 76 -60 16 c-71 20 -134 21 -187 2z m-6
-148 l45 -102 -39 -40 c-22 -22 -48 -60 -59 -84 -22 -51 -19 -54 -72 63 l-33
73 23 57 c25 62 70 136 83 136 4 0 27 -47 52 -103z"/>
<path d="M4984 3344 c-23 -8 -59 -31 -79 -51 -49 -48 -109 -183 -87 -197 13
-8 26 6 52 57 31 60 109 133 158 147 52 14 111 12 167 -5 27 -8 51 -12 53 -10
8 8 -103 35 -142 35 -51 0 -116 -17 -137 -36 -15 -13 -17 -12 -22 6 -17 64
218 82 287 22 18 -16 18 -16 8 4 -21 40 -176 57 -258 28z m-76 -112 c-18 -20
-42 -56 -52 -79 -21 -48 -39 -58 -27 -15 13 45 47 105 77 137 24 26 29 27 32
12 2 -10 -11 -34 -30 -55z"/>
<path d="M5022 3275 c-57 -25 -99 -64 -130 -123 -48 -91 -48 -106 -3 -208 22
-49 41 -82 41 -73 0 9 -16 49 -36 89 -27 56 -34 80 -28 104 8 41 51 120 79
146 l23 22 22 -49 c12 -26 31 -69 42 -95 11 -27 24 -48 29 -48 5 0 -11 -18
-34 -39 -40 -37 -95 -126 -84 -137 3 -3 15 15 26 40 30 60 93 124 148 148 51
23 149 27 197 8 42 -16 49 4 21 59 -12 25 -32 67 -43 92 -21 45 -24 47 -86 63
-79 19 -140 20 -184 1z m201 -15 c36 -10 42 -18 78 -97 21 -47 39 -89 39 -94
0 -5 -12 -4 -27 2 -43 16 -134 13 -192 -6 -29 -9 -54 -15 -56 -14 -2 2 -23 45
-48 96 l-45 92 41 21 c34 17 54 20 107 16 36 -2 82 -10 103 -16z"/>
<path d="M5130 3037 c-53 -17 -132 -102 -156 -168 -13 -34 -18 -63 -13 -75 7
-16 8 -15 7 6 -3 66 80 183 156 219 70 35 235 23 251 -17 4 -11 0 -13 -17 -8
-62 19 -153 18 -205 -2 -37 -14 -55 -16 -62 -9 -8 8 -11 8 -11 -1 0 -7 5 -12
12 -12 7 0 -7 -19 -29 -42 -37 -38 -90 -134 -80 -145 2 -2 12 16 23 39 25 57
100 137 149 159 46 21 116 24 181 8 49 -13 70 -4 51 21 -28 36 -178 52 -257
27z"/>
<path d="M5152 2958 c-57 -28 -106 -87 -136 -166 l-25 -65 33 -76 c70 -155 71
-156 100 -84 24 59 87 128 141 156 43 22 137 29 208 14 48 -10 48 -5 -11 113
l-47 95 -60 17 c-83 23 -151 22 -203 -4z m213 -9 c37 -13 44 -22 88 -108 26
-52 46 -95 45 -96 -2 -1 -31 2 -65 8 -132 23 -248 -38 -309 -161 l-30 -63 -44
93 c-24 51 -43 101 -42 110 2 37 55 137 90 171 60 57 88 68 162 63 36 -2 83
-10 105 -17z"/>
<path d="M5124 2900 c4 -15 77 -181 83 -189 2 -2 5 -2 8 1 3 2 -18 49 -45 104
-28 54 -49 92 -46 84z"/>
<path d="M5297 2715 c-63 -24 -114 -71 -147 -138 -61 -126 -44 -183 19 -61 36
69 98 130 154 151 41 15 111 16 160 2 22 -6 45 -8 53 -5 27 10 2 35 -51 51
-65 18 -137 18 -188 0z m180 -8 c53 -16 84 -43 38 -33 -16 3 -54 9 -82 12
-114 14 -218 -47 -274 -162 -41 -83 -51 -67 -11 19 38 83 72 120 134 151 58
29 126 34 195 13z"/>
<path d="M5325 2644 c-50 -18 -107 -74 -144 -139 -47 -84 -47 -87 0 -191 23
-52 47 -94 53 -94 6 0 19 20 29 44 24 58 78 120 133 152 49 29 127 36 212 21
27 -5 42 -4 42 3 0 6 -13 40 -30 75 -16 35 -30 68 -30 73 0 19 -38 41 -96 56
-75 19 -116 19 -169 0z m164 -8 c50 -14 91 -39 91 -57 0 -5 13 -37 30 -71 16
-34 29 -62 27 -64 -1 -1 -28 3 -61 8 -74 13 -156 -2 -209 -39 -48 -33 -102
-102 -117 -149 -7 -19 -15 -32 -19 -29 -4 2 -25 45 -45 95 l-38 90 27 53 c43
81 81 123 137 151 59 29 99 32 177 12z"/>
<path d="M5271 2583 c-1 -16 72 -173 81 -173 3 0 1 12 -6 28 -52 112 -75 155
-75 145z"/>
<path d="M5463 2420 c-89 -19 -165 -97 -199 -205 -13 -41 -14 -56 -5 -71 11
-17 12 -16 7 7 -13 59 58 181 132 227 26 16 68 33 94 36 66 10 166 -11 180
-37 9 -17 8 -19 -8 -12 -68 27 -199 20 -245 -14 -20 -15 -29 -17 -32 -8 -4 9
-6 9 -6 0 -1 -7 -19 -38 -41 -69 -38 -55 -67 -120 -57 -130 3 -3 8 7 12 23 10
47 87 145 136 176 39 24 57 28 113 28 37 0 83 -5 102 -11 41 -14 48 -10 39 19
-11 35 -139 58 -222 41z"/>
<path d="M5455 2336 c-16 -7 -47 -32 -68 -56 -40 -43 -97 -151 -97 -182 0 -23
89 -224 90 -203 0 6 -18 51 -40 100 -22 50 -40 97 -40 105 0 31 60 140 100
180 51 51 75 60 158 59 110 -1 130 -13 179 -105 23 -43 42 -81 43 -84 0 -3
-42 -5 -92 -5 -75 0 -101 -4 -136 -21 -30 -15 -44 -18 -50 -10 -10 16 -62 128
-69 149 -3 9 -10 17 -15 17 -5 0 -8 -3 -5 -7 2 -5 21 -44 42 -88 22 -44 43
-81 47 -83 4 -2 -8 -16 -25 -32 -35 -30 -88 -127 -86 -157 0 -12 3 -10 8 7 29
93 117 188 196 210 30 8 72 11 120 7 56 -5 75 -4 75 6 0 6 -19 50 -43 96 -40
81 -44 86 -87 98 -58 16 -166 16 -205 -1z"/>
<path d="M5589 2104 c-60 -18 -124 -80 -155 -150 -27 -62 -30 -84 -10 -84 14
0 27 14 89 100 59 81 156 115 259 91 27 -6 40 -5 48 4 14 17 -3 29 -62 44 -61
14 -112 13 -169 -5z m175 -7 c57 -17 60 -38 4 -25 -59 13 -126 6 -181 -21 -26
-12 -51 -19 -57 -16 -7 4 -10 1 -9 -6 2 -8 -13 -39 -33 -69 -60 -94 -91 -105
-47 -17 43 83 99 137 165 157 41 12 112 10 158 -3z"/>
<path d="M5620 2034 c-39 -17 -92 -63 -85 -74 3 -4 28 4 57 19 29 14 69 31 88
37 22 8 28 12 15 13 -11 0 -44 -10 -74 -24 -30 -14 -56 -24 -58 -21 -8 8 72
48 112 56 34 7 36 8 10 9 -16 0 -46 -7 -65 -15z"/>
<path d="M5798 2023 c23 -2 59 -2 80 0 20 2 1 4 -43 4 -44 0 -61 -2 -37 -4z"/>
<path d="M5795 1997 c13 -5 43 -4 67 1 41 8 40 9 -24 8 -50 -1 -61 -3 -43 -9z"/>
<path d="M5672 1966 c-11 -15 -26 -52 -32 -82 -11 -50 -9 -61 10 -109 12 -30
42 -75 65 -101 50 -53 51 -54 180 -8 l81 29 -8 43 c-9 54 -52 149 -81 180 -32
34 -91 62 -146 69 -43 5 -50 3 -69 -21z m155 -19 c21 -14 45 -33 54 -43 33
-38 72 -127 73 -166 l1 -39 -66 -24 -66 -23 -69 144 c-37 79 -72 144 -76 144
-5 0 5 -26 21 -57 42 -84 111 -232 111 -238 0 -3 -12 -5 -26 -5 -32 0 -72 43
-115 123 -30 57 -31 61 -20 115 6 31 21 66 34 80 19 20 28 23 64 18 24 -3 60
-16 80 -29z"/>
<path d="M5873 1858 c23 -55 66 -134 67 -122 0 13 -68 154 -75 154 -3 0 1 -15
8 -32z"/>
<path d="M5880 1978 l-23 -9 30 -32 c40 -41 93 -148 98 -195 l3 -37 53 3 c29
2 56 5 58 8 3 3 -24 62 -59 132 -63 122 -66 127 -101 133 -20 3 -47 2 -59 -3z
m147 -133 l61 -120 -26 -6 c-59 -14 -67 -11 -69 26 -2 44 -44 138 -83 187 -32
40 -26 49 25 39 27 -6 37 -20 92 -126z"/>
<path d="M5934 1933 c9 -18 18 -33 20 -33 9 0 -8 41 -22 52 -13 11 -12 8 2
-19z"/>
<path d="M6000 1808 c0 -11 30 -78 35 -78 3 0 -2 17 -10 37 -15 36 -25 52 -25
41z"/>
<path d="M5556 1938 c-92 -55 -175 -134 -182 -175 -4 -18 -2 -33 2 -33 5 0 35
24 67 53 31 30 86 70 121 91 59 35 94 76 81 97 -9 13 -13 12 -89 -33z m72 3
c-7 -12 -41 -38 -75 -58 -35 -20 -88 -59 -118 -88 -74 -68 -72 -37 3 35 48 47
190 142 200 134 2 -1 -3 -12 -10 -23z"/>
<path d="M5535 1836 c-76 -51 -139 -114 -152 -152 -9 -26 -4 -43 51 -157 33
-70 64 -127 69 -127 4 0 36 30 71 68 35 37 89 83 120 102 30 19 55 38 56 41 0
3 -18 25 -40 48 -52 54 -90 130 -90 179 0 49 -11 49 -85 -2z m75 -8 c0 -42 45
-130 90 -176 l35 -37 -57 -38 c-31 -20 -83 -66 -115 -101 l-60 -63 -60 124
-60 123 27 43 c23 37 81 88 160 140 34 24 40 21 40 -15z"/>
<path d="M5955 1669 c-214 -60 -452 -239 -431 -323 5 -21 36 -33 36 -14 0 4
17 26 37 49 102 113 323 224 486 244 31 4 59 11 62 15 2 3 -3 16 -11 28 -19
28 -81 28 -179 1z m172 -8 c11 -17 8 -19 -45 -25 -168 -20 -398 -136 -500
-251 -42 -48 -64 -46 -38 2 46 87 227 212 380 263 36 11 41 11 54 -6 13 -18
14 -18 8 3 -8 24 6 29 84 32 34 1 48 -3 57 -18z"/>
<path d="M5830 1591 c0 -5 5 -13 10 -16 6 -3 10 -2 10 4 0 5 -4 13 -10 16 -5
3 -10 2 -10 -4z"/>
<path d="M5756 1557 c3 -10 9 -15 12 -12 3 3 0 11 -7 18 -10 9 -11 8 -5 -6z"/>
<path d="M5960 1571 c-165 -54 -316 -149 -372 -233 -33 -48 -33 -51 -11 -73
14 -14 30 -16 92 -12 42 2 99 12 126 21 98 34 231 105 296 159 67 56 93 97 87
139 -3 21 -8 23 -68 25 -49 2 -86 -4 -150 -26z m208 -9 c8 -55 -110 -155 -273
-232 -114 -54 -170 -70 -248 -70 -76 0 -88 17 -53 70 77 116 368 263 511 257
54 -2 60 -4 63 -25z"/>
<path d="M6150 1450 c0 -5 11 -33 24 -62 13 -29 47 -111 76 -183 47 -119 52
-140 61 -248 9 -121 -2 -342 -20 -389 -14 -36 -73 -84 -128 -102 -69 -23 -176
-36 -217 -26 -89 20 -115 62 -190 310 -152 503 -143 480 -186 480 -17 0 -30
-4 -30 -9 0 -6 9 -56 19 -113 11 -57 22 -121 25 -143 3 -22 17 -114 30 -205
14 -91 28 -193 31 -227 7 -67 30 -108 99 -177 57 -56 97 -62 250 -37 133 21
341 86 385 119 43 32 61 65 77 142 11 51 14 107 11 175 -5 120 -16 151 -178
483 -70 142 -114 222 -124 222 -8 0 -15 -4 -15 -10z m124 -208 c176 -367 179
-375 184 -479 8 -169 -30 -293 -100 -325 -147 -68 -347 -119 -473 -122 -82 -1
-100 9 -177 101 -41 49 -47 63 -53 117 -3 33 -17 135 -31 226 -13 91 -27 183
-30 205 -3 22 -14 86 -25 143 -10 57 -19 105 -19 108 0 2 8 4 19 4 36 0 29 18
182 -485 66 -219 91 -268 147 -292 97 -42 320 6 376 80 37 48 47 118 48 312 1
159 -11 265 -33 304 -7 13 -81 191 -120 289 -4 12 -5 22 -1 22 4 0 52 -94 106
-208z"/>
<path d="M6070 1389 c-65 -55 -247 -139 -342 -157 -49 -9 -88 -22 -88 -28 0
-6 11 -42 24 -80 13 -38 59 -181 101 -319 42 -137 83 -261 90 -275 34 -65 88
-80 212 -60 89 14 149 38 180 71 31 34 43 123 43 314 0 158 -8 221 -35 280 -7
16 -37 87 -65 158 -58 141 -63 145 -120 96z m134 -155 l70 -169 4 -176 c6
-275 -9 -334 -98 -379 -40 -20 -145 -40 -210 -40 -37 0 -48 5 -80 38 -32 34
-43 63 -104 263 -38 123 -84 269 -102 324 -19 55 -34 103 -34 106 0 3 30 11
67 18 37 7 101 25 142 41 82 32 219 108 241 134 7 9 18 15 24 13 6 -2 42 -80
80 -173z"/>
</g>
</svg>
