<?xml version="1.0" standalone="no"?>
<!DOCTYPE svg PUBLIC "-//W3C//DTD SVG 20010904//EN"
 "http://www.w3.org/TR/2001/REC-SVG-20010904/DTD/svg10.dtd">
<svg version="1.0" xmlns="http://www.w3.org/2000/svg"
 width="800.000000pt" height="590.000000pt" viewBox="0 0 800.000000 590.000000"
 preserveAspectRatio="xMidYMid meet">
<metadata>
Created by potrace 1.16, written by Peter Selinger 2001-2019
</metadata>
<g transform="translate(0.000000,590.000000) scale(0.100000,-0.100000)"
fill="#000000" stroke="none">
<path d="M3230 5814 c-156 -17 -221 -31 -371 -80 -227 -74 -408 -173 -618
-338 -68 -54 -217 -215 -286 -308 -73 -98 -186 -310 -235 -438 -32 -86 -34
-87 -145 -99 -319 -37 -608 -160 -815 -348 -54 -49 -68 -52 -96 -20 -11 12
-74 81 -140 152 -114 124 -207 233 -266 313 -15 20 -40 54 -55 74 -16 21 -48
66 -72 100 -25 35 -50 69 -57 76 -7 7 -23 30 -35 52 -13 22 -27 40 -31 40 -10
0 30 -71 56 -102 9 -10 34 -44 57 -76 131 -186 241 -322 386 -479 63 -67 127
-137 144 -156 38 -43 56 -40 120 17 76 69 176 136 285 193 167 87 316 131 521
153 l113 13 25 53 c14 29 25 55 25 58 0 3 16 40 35 82 19 41 35 77 35 79 0 14
108 189 163 264 63 85 213 245 278 297 201 158 388 263 597 335 217 74 405 98
687 88 293 -10 750 -95 1115 -209 30 -9 89 -27 130 -40 104 -32 570 -208 597
-226 12 -8 27 -14 34 -14 10 0 208 -94 399 -189 61 -30 185 -95 335 -175 11
-6 41 -26 67 -44 26 -17 49 -32 51 -32 9 0 233 -150 302 -202 131 -99 250
-203 377 -333 70 -71 128 -133 128 -137 0 -4 30 -40 66 -80 36 -40 73 -86 81
-103 9 -16 31 -48 49 -71 19 -23 34 -44 34 -47 0 -3 20 -35 45 -70 25 -36 45
-70 45 -76 0 -6 4 -11 8 -11 5 0 19 -24 31 -52 13 -29 29 -66 36 -83 51 -117
99 -283 121 -420 20 -126 24 -449 6 -555 -25 -152 -34 -195 -42 -215 -25 -60
-30 -135 -9 -135 6 0 7 6 1 16 -5 10 -3 35 6 67 20 73 29 117 49 237 21 128
23 422 4 555 -16 111 -53 266 -76 320 -9 22 -23 60 -31 85 -9 25 -28 73 -45
108 -16 35 -29 67 -29 72 0 6 -4 10 -10 10 -5 0 -10 5 -10 11 0 6 -20 40 -45
76 -25 35 -45 67 -45 70 0 3 -15 24 -34 47 -18 23 -40 55 -49 71 -8 17 -45 63
-81 103 -36 40 -66 76 -66 80 0 13 -245 257 -337 335 -151 128 -313 245 -461
332 -10 6 -47 28 -82 51 -59 37 -189 108 -325 177 -98 50 -425 207 -430 207
-4 0 -25 8 -48 19 -56 25 -183 76 -282 114 -272 102 -516 179 -735 232 -265
63 -601 123 -730 131 -158 9 -323 8 -420 -2z"/>
<path d="M3256 5739 c-318 -33 -673 -178 -924 -377 -192 -153 -366 -365 -449
-547 -94 -210 -146 -321 -152 -327 -3 -4 -62 -12 -130 -18 -294 -27 -545 -129
-761 -309 -157 -132 -258 -258 -345 -431 -43 -85 -98 -229 -110 -285 -4 -16
-11 -39 -16 -50 -23 -53 -51 -280 -56 -470 -5 -206 8 -361 41 -480 48 -168 62
-209 112 -314 31 -64 71 -137 90 -164 19 -26 34 -50 34 -53 0 -12 145 -180
225 -259 222 -223 568 -441 881 -555 66 -24 124 -47 129 -51 36 -26 581 -147
596 -132 5 5 -20 38 -56 75 -36 37 -65 73 -65 81 0 17 25 40 39 35 5 -1 49
-41 98 -88 89 -87 202 -180 245 -203 12 -7 41 -24 64 -39 48 -31 185 -89 268
-112 274 -79 558 -53 896 82 41 17 89 37 105 46 17 9 37 16 46 16 22 0 41 -24
34 -42 -6 -14 -100 -66 -160 -87 l-30 -11 34 5 c18 3 62 19 96 36 66 32 83 56
64 92 -9 16 -18 18 -52 13 -23 -4 -47 -12 -55 -19 -8 -6 -28 -17 -46 -23 -17
-7 -67 -26 -111 -43 -159 -61 -359 -101 -512 -101 -184 0 -425 67 -563 156
-25 16 -56 34 -68 41 -44 23 -156 116 -240 197 -99 96 -107 102 -138 87 -42
-19 -31 -55 39 -127 35 -35 61 -64 58 -64 -51 1 -562 122 -586 139 -5 4 -55
24 -110 45 -253 95 -554 270 -764 444 -137 114 -304 300 -389 432 -52 83 -146
281 -166 351 -8 30 -22 79 -30 109 -35 123 -49 276 -43 485 6 195 34 427 57
467 6 10 10 25 10 33 0 31 62 193 109 285 70 136 149 249 228 327 282 278 530
392 932 430 l85 8 47 105 c26 58 67 148 91 200 150 331 456 625 828 795 166
75 283 111 475 145 92 16 402 13 536 -5 552 -76 1058 -217 1669 -467 84 -34
555 -272 618 -312 23 -14 44 -26 48 -26 18 0 382 -235 479 -309 242 -186 479
-429 650 -668 99 -138 173 -272 236 -428 123 -305 137 -776 33 -1134 l-15 -54
-107 6 c-126 8 -150 3 -158 -30 -11 -40 12 -50 146 -62 233 -22 458 -66 614
-121 33 -11 61 -18 64 -16 2 3 -45 20 -105 39 -156 51 -342 85 -588 110 -97
10 -120 15 -123 28 -2 9 4 24 13 33 15 14 33 16 134 10 l118 -7 16 59 c112
398 89 872 -58 1209 -53 121 -71 156 -126 242 -35 54 -72 110 -83 124 -12 15
-30 39 -41 55 -137 193 -383 441 -610 615 -90 69 -460 309 -477 309 -3 0 -40
20 -84 45 -70 40 -462 237 -554 278 -178 80 -625 239 -840 299 -266 74 -381
99 -755 168 -151 27 -449 42 -579 29z"/>
<path d="M3197 5664 c-2 -3 -31 -7 -63 -10 -33 -2 -75 -9 -94 -14 -19 -5 -67
-16 -106 -25 -70 -16 -174 -51 -124 -41 24 4 156 37 230 56 46 13 122 21 250
26 57 3 106 7 108 9 3 3 -41 4 -96 4 -55 -1 -103 -3 -105 -5z"/>
<path d="M3493 5663 c15 -2 37 -2 50 0 12 2 0 4 -28 4 -27 0 -38 -2 -22 -4z"/>
<path d="M3710 5639 c41 -5 93 -13 115 -18 22 -6 65 -13 95 -16 73 -8 392 -72
422 -85 30 -13 174 -51 216 -57 18 -3 35 -9 38 -14 3 -5 14 -9 25 -9 11 0 45
-9 77 -21 31 -11 71 -25 87 -29 17 -5 67 -22 113 -38 45 -17 80 -26 77 -22 -3
5 -20 14 -38 19 -18 5 -57 19 -87 30 -30 12 -60 21 -67 21 -7 0 -32 9 -56 19
-45 20 -112 40 -165 48 -18 3 -35 9 -38 14 -3 5 -15 9 -26 9 -12 0 -35 4 -52
10 -149 46 -371 95 -541 119 -38 6 -95 15 -125 20 -30 5 -75 9 -100 9 -32 0
-24 -3 30 -9z"/>
<path d="M3277 5610 c-117 -35 -154 -78 -145 -171 5 -47 10 -58 43 -86 44 -38
96 -43 179 -18 108 33 249 13 382 -55 69 -35 107 -37 151 -10 41 25 63 59 70
107 12 92 -57 155 -232 213 -90 30 -113 33 -240 36 -117 3 -151 0 -208 -16z
m442 -29 c192 -65 265 -147 216 -241 -20 -40 -76 -80 -110 -80 -15 0 -42 9
-59 19 -17 11 -73 34 -123 50 -104 35 -207 41 -289 16 -27 -8 -68 -15 -91 -15
-35 0 -49 6 -83 38 -35 34 -40 44 -40 83 1 77 42 121 144 151 49 14 88 17 201
14 126 -3 149 -6 234 -35z"/>
<path d="M2640 5509 c-74 -39 -145 -76 -157 -82 -13 -7 -23 -16 -23 -20 0 -5
15 1 33 13 17 12 87 48 154 81 67 32 125 64 128 69 8 14 16 17 -135 -61z"/>
<path d="M4963 5290 c-66 -34 -90 -109 -59 -184 23 -56 59 -76 136 -76 147 0
272 -49 387 -152 60 -55 66 -58 117 -58 87 0 136 55 136 155 0 42 -4 50 -57
103 -71 71 -110 96 -233 149 -152 66 -188 76 -290 80 -82 4 -101 1 -137 -17z
m282 -15 c69 -24 222 -94 270 -124 22 -14 66 -51 98 -83 51 -51 57 -62 57 -98
0 -81 -53 -140 -126 -140 -39 0 -50 6 -107 58 -111 99 -246 152 -392 152 -48
0 -68 5 -89 21 -86 68 -70 182 34 231 27 14 202 2 255 -17z"/>
<path d="M2809 5064 c-10 -12 -10 -22 -2 -45 13 -33 12 -34 -75 -65 l-52 -18
-30 32 c-31 35 -41 38 -71 22 -25 -14 -25 -58 1 -85 l20 -21 -30 -61 c-42 -83
-47 -134 -21 -204 26 -68 48 -90 129 -123 96 -41 191 -52 319 -38 59 7 138 12
174 12 101 0 250 -52 335 -116 37 -29 133 -73 194 -90 108 -31 229 -6 289 59
51 56 57 207 10 298 -51 102 -176 216 -299 271 -87 40 -265 95 -348 109 -37 5
-148 9 -246 8 l-179 -2 -30 36 c-31 40 -65 48 -88 21z m78 -29 l28 -36 230 -3
c251 -3 281 -8 485 -87 157 -60 306 -185 361 -303 34 -73 42 -182 16 -232 -48
-92 -185 -139 -298 -103 -55 18 -162 69 -194 93 -46 35 -102 61 -193 90 -94
30 -158 32 -325 14 -132 -14 -232 -1 -321 41 -71 34 -88 50 -117 115 -27 62
-21 113 21 190 35 66 37 77 10 101 -23 21 -26 48 -6 64 18 15 50 0 66 -29 14
-26 35 -25 107 2 68 26 75 33 61 64 -8 17 -8 27 2 39 19 23 35 18 67 -20z"/>
<path d="M2970 4920 c-135 -17 -159 -31 -105 -60 14 -7 37 -37 51 -67 37 -75
29 -127 -32 -190 -54 -57 -50 -71 5 -17 45 45 66 108 56 163 -9 49 -43 106
-72 122 -33 18 -16 25 92 38 192 23 383 8 542 -45 141 -45 230 -94 311 -169
84 -78 122 -148 122 -224 0 -47 -4 -57 -33 -86 -67 -67 -177 -53 -335 41 -193
115 -285 140 -471 130 -69 -4 -157 -11 -196 -16 l-70 -8 80 4 c44 2 132 7 196
10 173 10 256 -14 444 -126 168 -100 306 -114 371 -37 24 29 26 37 22 102 -6
90 -35 143 -126 226 -176 161 -538 250 -852 209z"/>
<path d="M5700 5016 c0 -2 44 -25 98 -51 93 -47 289 -154 362 -200 19 -12 67
-41 105 -64 39 -24 95 -60 125 -82 30 -21 80 -55 110 -75 30 -20 76 -56 101
-79 25 -23 55 -47 66 -53 29 -16 50 -35 238 -218 91 -88 165 -157 165 -153 0
7 -292 300 -346 347 -14 12 -36 28 -47 34 -11 6 -41 30 -66 53 -25 23 -71 59
-101 79 -30 20 -79 53 -109 74 -83 58 -133 89 -176 113 -22 12 -51 29 -65 39
-48 33 -255 147 -351 193 -92 45 -109 52 -109 43z"/>
<path d="M0 4852 c0 -19 153 -234 225 -319 25 -28 71 -84 103 -125 32 -40 111
-128 175 -194 65 -67 117 -127 117 -134 0 -7 -17 -33 -39 -59 -111 -133 -208
-328 -276 -553 -10 -32 -20 -58 -23 -58 -7 0 -107 86 -190 165 -41 39 -79 71
-85 73 -15 4 128 -135 204 -200 31 -27 63 -48 70 -48 9 0 21 24 32 63 55 192
169 416 278 548 22 26 39 56 39 68 0 14 -42 66 -117 144 -64 67 -143 156 -177
198 -34 41 -83 103 -111 136 -61 73 -166 217 -196 267 -21 36 -29 44 -29 28z"/>
<path d="M4583 4590 c-254 -67 -363 -174 -339 -335 10 -64 83 -142 162 -172
78 -29 219 -46 324 -38 123 9 207 -7 317 -61 51 -25 123 -66 160 -90 84 -55
147 -79 249 -94 166 -24 289 28 352 150 l28 54 51 -3 c44 -2 52 0 58 18 12 40
-36 81 -96 81 -20 0 -49 36 -49 61 0 10 16 23 41 33 38 15 40 18 37 54 -3 36
-4 37 -40 35 -21 -1 -52 -10 -69 -19 l-32 -16 -66 64 c-148 143 -296 211 -596
273 -155 32 -379 35 -492 5z m491 -15 c284 -59 461 -142 596 -279 30 -31 60
-56 66 -56 6 0 33 9 58 21 55 24 76 20 76 -16 0 -20 -8 -28 -40 -41 -44 -18
-50 -38 -27 -84 9 -18 24 -26 57 -32 51 -9 84 -36 74 -62 -5 -13 -17 -16 -53
-15 -57 3 -68 -3 -76 -40 -8 -39 -72 -104 -131 -134 -66 -33 -130 -41 -222
-27 -96 15 -141 32 -217 83 -75 51 -236 131 -295 148 -27 7 -113 13 -215 14
-194 2 -248 9 -320 41 -64 28 -142 111 -151 160 -14 74 8 131 80 209 30 32
157 91 248 115 114 30 337 27 492 -5z"/>
<path d="M4635 4519 c-76 -16 -100 -26 -103 -41 -2 -9 6 -19 17 -23 31 -9 79
-70 91 -115 15 -56 4 -102 -36 -148 -19 -22 -34 -45 -34 -50 0 -6 71 -12 183
-15 157 -3 189 -7 235 -26 88 -36 210 -99 262 -137 80 -57 149 -78 265 -78 79
-1 108 3 138 18 79 39 109 132 70 214 -24 50 -145 176 -216 224 -106 72 -339
151 -522 177 -83 12 -293 12 -350 0z m478 -33 c132 -31 291 -94 372 -146 66
-43 178 -153 219 -215 19 -28 26 -53 26 -86 0 -40 -5 -52 -38 -86 -49 -51
-108 -68 -205 -60 -87 6 -159 32 -229 82 -51 37 -156 90 -268 136 -48 20 -77
23 -233 27 l-177 4 29 34 c76 86 56 225 -42 285 l-31 18 30 11 c62 24 114 29
274 25 132 -3 187 -9 273 -29z"/>
<path d="M2329 4293 c-19 -22 -2 -56 65 -124 82 -84 123 -165 139 -270 31
-217 -77 -417 -280 -516 -78 -38 -78 -38 -203 -38 -96 0 -135 4 -168 18 -59
24 -91 22 -101 -5 -6 -18 -4 -58 3 -58 1 0 26 -9 56 -20 85 -31 219 -44 299
-29 82 15 163 42 206 69 l33 20 39 -44 c90 -102 143 -253 142 -402 0 -49 -4
-141 -9 -204 -5 -63 -17 -234 -26 -380 -35 -551 13 -823 182 -1035 59 -75 120
-126 200 -169 269 -146 598 -151 867 -14 54 28 122 73 152 100 61 56 151 171
184 236 53 105 118 295 186 542 20 74 43 155 51 179 8 24 26 85 39 136 49 183
145 331 272 420 l65 46 60 -66 c132 -144 294 -215 489 -215 116 0 141 10 137
52 l-3 33 -125 6 c-143 7 -193 21 -290 78 -95 57 -173 139 -218 230 -37 74
-37 76 -37 200 0 123 1 128 34 195 71 146 206 251 376 291 41 9 52 17 60 39 8
23 6 30 -10 42 -28 20 -67 17 -153 -12 -209 -72 -340 -220 -402 -451 -10 -39
-13 -43 -43 -43 -44 1 -138 33 -205 72 -75 42 -139 107 -191 193 -23 39 -50
81 -60 95 -11 14 -40 58 -65 98 -98 152 -237 272 -376 323 -255 93 -509 43
-795 -155 -98 -68 -182 -107 -243 -113 l-55 -6 9 44 c15 75 10 257 -9 321 -37
124 -168 290 -235 300 -20 3 -37 0 -43 -9z m123 -65 c148 -154 193 -318 152
-562 l-7 -39 60 5 c72 7 146 40 273 123 52 34 115 73 140 86 25 13 51 28 59
33 7 6 45 21 85 34 334 109 650 -15 855 -335 27 -43 59 -91 71 -108 11 -16 44
-65 71 -108 28 -43 72 -95 98 -115 82 -65 218 -122 292 -122 37 0 39 2 49 43
23 95 31 115 74 188 70 119 192 218 327 265 79 28 107 30 135 10 30 -23 7 -47
-65 -67 -111 -30 -169 -61 -246 -131 -107 -98 -155 -207 -155 -351 0 -197 86
-345 258 -446 94 -55 159 -73 297 -80 108 -5 120 -8 123 -25 7 -34 -25 -46
-122 -46 -192 0 -348 69 -477 207 -29 32 -60 62 -67 67 -21 13 -138 -71 -199
-143 -68 -80 -123 -193 -157 -322 -14 -53 -32 -116 -40 -140 -8 -24 -31 -105
-51 -179 -99 -364 -157 -506 -262 -647 -78 -104 -148 -164 -263 -222 -115 -60
-164 -74 -306 -92 -173 -22 -345 9 -502 89 -158 79 -251 176 -329 340 -64 132
-82 216 -95 427 -10 178 -3 377 32 825 16 214 13 287 -18 393 -31 103 -77 189
-128 238 l-31 30 -76 -35 c-113 -54 -207 -71 -322 -57 -94 11 -190 43 -199 66
-2 7 1 21 9 31 12 17 17 17 57 6 95 -28 116 -32 199 -32 311 -1 536 262 491
572 -17 115 -56 192 -141 280 -84 86 -91 108 -33 108 17 0 43 -19 84 -62z"/>
<path d="M3310 3863 c-52 -10 -186 -66 -202 -85 -14 -16 -17 -31 -12 -77 20
-192 98 -274 259 -275 45 0 84 6 108 17 l39 17 -7 60 c-5 42 -3 65 5 75 28 33
47 11 70 -80 47 -183 142 -259 323 -256 106 2 216 38 231 77 4 11 -18 54 -65
128 -40 61 -77 120 -84 131 -26 43 -154 162 -209 194 -93 55 -199 81 -325 80
-58 -1 -117 -4 -131 -6z m331 -29 c31 -11 83 -36 115 -55 71 -41 191 -160 229
-226 16 -26 52 -84 81 -127 29 -44 51 -83 48 -88 -7 -12 -93 -54 -126 -62 -45
-11 -161 -8 -210 4 -95 24 -176 126 -203 256 -15 74 -13 69 -41 78 -38 12 -56
-18 -52 -88 3 -58 2 -61 -27 -76 -19 -9 -57 -15 -100 -14 -113 0 -187 49 -225
149 -20 51 -31 166 -18 182 15 18 108 61 172 78 76 22 284 15 357 -11z"/>
<path d="M2952 3694 c-4 -6 -20 -19 -37 -29 -16 -10 -39 -26 -50 -35 -39 -33
-162 -70 -236 -71 -68 -2 -71 -2 -96 -38 -15 -20 -42 -52 -60 -71 -28 -31 -31
-38 -20 -56 20 -34 55 -88 64 -99 19 -21 82 -153 99 -205 26 -82 29 -247 8
-466 -13 -138 -18 -283 -18 -534 -1 -384 4 -467 28 -501 11 -16 16 -19 16 -8
0 8 -5 20 -12 27 -19 19 -23 113 -22 492 1 248 6 404 18 518 25 255 22 362
-17 500 -15 50 -68 162 -89 186 -5 6 -18 25 -28 41 -11 17 -25 38 -32 47 -11
15 -8 22 18 50 17 18 42 49 56 69 26 35 29 36 92 38 36 1 84 8 108 16 81 26
117 41 135 57 10 8 33 23 51 34 17 10 32 22 32 26 0 4 6 8 14 8 8 0 17 4 20 8
2 4 -4 8 -15 8 -11 0 -23 -5 -27 -12z"/>
<path d="M3016 3662 c7 -79 50 -185 92 -228 20 -20 60 -48 91 -62 47 -21 69
-25 150 -25 97 0 125 3 137 16 13 13 54 7 54 -7 0 -21 115 -136 137 -136 10 0
27 -6 38 -13 36 -25 140 -40 216 -33 69 7 164 36 204 63 31 21 47 16 90 -29
85 -88 156 -125 305 -160 l105 -24 7 -52 c5 -29 15 -69 23 -88 8 -20 15 -40
15 -44 0 -4 -26 -23 -57 -41 -63 -38 -94 -66 -168 -152 -49 -58 -104 -149
-105 -175 0 -7 -8 -32 -19 -55 -10 -23 -21 -50 -24 -59 -7 -20 -37 -23 -65 -8
-30 17 -105 46 -167 66 -50 16 -89 19 -240 18 -175 -1 -182 -2 -260 -32 -242
-92 -380 -227 -493 -482 -26 -60 -73 -212 -67 -218 2 -3 6 1 9 9 2 8 14 47 26
88 27 88 92 226 140 296 57 81 170 187 245 228 144 79 204 97 349 104 132 5
281 -8 300 -27 6 -6 19 -10 29 -10 10 0 31 -6 45 -13 15 -8 42 -21 60 -30 45
-23 91 -22 98 1 3 9 11 31 18 47 7 17 23 57 36 90 41 108 155 240 263 304 31
18 57 39 57 45 -1 6 -9 36 -20 66 -11 30 -19 72 -20 93 0 21 -5 39 -12 41 -7
2 -56 14 -108 25 -52 12 -111 29 -130 39 -57 27 -153 98 -178 131 -29 40 -53
39 -133 -1 -170 -84 -386 -50 -494 77 -25 29 -45 57 -45 64 0 16 -47 13 -100
-5 -34 -12 -64 -15 -123 -10 -169 14 -263 105 -303 295 -13 63 -14 64 -8 13z"/>
<path d="M3665 2340 c-93 -24 -114 -33 -198 -81 -165 -95 -288 -270 -351 -501
-24 -85 -21 -109 18 -148 l35 -33 61 13 c88 19 154 8 252 -43 l83 -42 130 0
c124 0 132 -1 180 -28 28 -16 60 -38 72 -49 32 -30 52 -19 91 52 36 67 115
276 137 365 7 28 31 111 53 185 23 74 44 152 48 173 l6 37 -84 40 c-169 79
-373 102 -533 60z m364 -10 c47 -12 120 -38 161 -59 73 -38 75 -40 72 -72 -3
-39 -74 -283 -139 -479 -39 -117 -106 -266 -133 -294 -5 -5 -22 2 -40 18 -70
58 -114 71 -250 71 l-125 1 -87 42 c-101 49 -177 61 -258 42 l-52 -12 -34 33
c-19 19 -34 43 -34 56 0 48 42 172 92 272 44 86 67 119 133 185 94 95 212 166
326 195 104 27 256 27 368 1z"/>
<path d="M2829 1696 c-37 -12 -121 -69 -153 -105 -33 -36 -8 -23 61 33 78 63
130 81 211 73 35 -3 49 -2 37 3 -28 12 -114 10 -156 -4z"/>
<path d="M2833 1611 c-44 -21 -142 -117 -143 -140 0 -30 68 -139 120 -189 146
-144 352 -212 604 -199 61 3 138 13 171 22 95 26 217 91 284 151 75 68 78 90
20 132 -78 58 -202 67 -295 22 -32 -16 -56 -38 -82 -79 -39 -58 -57 -68 -75
-40 -14 23 -1 63 34 104 17 19 29 42 27 52 -4 23 -100 70 -160 78 -79 11 -139
-16 -220 -96 -71 -71 -102 -84 -113 -48 -5 15 6 35 45 80 64 73 63 92 -4 133
-63 39 -150 46 -213 17z m195 -22 c29 -16 55 -36 58 -44 4 -8 -16 -39 -45 -73
-51 -59 -61 -88 -39 -110 26 -26 58 -12 122 53 108 110 190 129 307 70 62 -32
66 -41 36 -73 -51 -56 -64 -122 -27 -142 28 -15 53 1 84 55 48 82 168 124 271
96 47 -12 125 -66 125 -86 0 -27 -123 -124 -213 -169 -110 -55 -208 -76 -344
-76 -305 1 -540 128 -652 352 -13 26 -12 30 30 75 73 80 113 103 184 103 37 0
63 -8 103 -31z"/>
<path d="M70 3463 c41 -37 101 -92 133 -123 l57 -55 -14 -115 c-44 -351 -20
-632 74 -895 62 -173 132 -300 287 -519 25 -36 220 -228 307 -303 l59 -51 -17
-43 c-20 -49 -24 -210 -6 -250 10 -23 10 -23 5 4 -12 61 -6 205 9 236 27 51
20 64 -66 139 -90 77 -262 248 -287 285 -9 13 -49 73 -90 133 -248 367 -328
747 -265 1264 8 63 14 118 14 122 0 11 -251 238 -263 238 -6 0 22 -30 63 -67z"/>
<path d="M7265 1783 c-236 -15 -451 -103 -568 -232 -166 -184 -181 -549 -32
-756 51 -69 69 -87 147 -141 32 -21 58 -45 58 -52 0 -7 66 -78 146 -158 96
-95 144 -150 142 -162 -8 -43 -240 -132 -345 -132 -88 0 -244 57 -337 124 -77
55 -217 216 -280 323 -4 8 15 22 61 43 37 17 75 38 85 47 27 24 23 62 -8 73
-21 8 -40 3 -111 -30 -47 -22 -91 -40 -97 -40 -7 0 -30 -9 -51 -20 -64 -33
-285 -88 -435 -110 -369 -52 -710 -39 -1410 55 -58 8 -143 19 -190 25 -47 6
-93 13 -104 17 -11 3 -16 1 -12 -5 3 -5 34 -12 68 -16 35 -4 126 -16 203 -26
739 -100 1065 -113 1445 -60 97 14 316 65 385 90 33 12 83 30 110 40 28 9 79
32 113 49 50 25 66 29 82 21 42 -23 24 -47 -65 -91 -47 -22 -85 -43 -85 -45 0
-11 35 -72 71 -124 45 -67 170 -195 224 -232 96 -64 250 -118 339 -118 71 0
197 36 288 83 101 51 99 58 -76 232 -80 79 -146 150 -146 157 0 7 -24 29 -52
48 -113 76 -194 179 -230 296 -30 99 -31 290 0 389 67 217 255 360 547 415 33
6 157 14 275 17 210 6 215 5 234 -15 38 -43 14 -49 -212 -55 -227 -6 -297 -15
-416 -53 -95 -30 -135 -50 -201 -101 -118 -91 -176 -218 -178 -392 -2 -143 32
-252 110 -348 36 -44 159 -133 184 -133 8 0 19 -4 25 -9 14 -14 111 -39 203
-52 129 -18 296 -1 396 41 11 4 36 14 55 21 19 7 65 43 101 79 59 58 70 74 89
137 12 39 20 84 18 100 l-3 28 -195 7 c-195 7 -467 45 -497 70 -21 17 -15 47
10 53 12 3 74 -3 137 -14 246 -43 557 -50 675 -16 28 8 37 13 20 10 -16 -3
-74 -10 -128 -17 -120 -14 -378 1 -573 34 -110 18 -135 20 -148 9 -19 -16 -21
-55 -3 -68 30 -24 317 -65 504 -71 l188 -7 -2 -48 c-4 -138 -138 -269 -327
-322 -120 -34 -315 -29 -446 10 -152 45 -271 137 -330 254 -43 86 -54 140 -53
254 1 89 6 119 27 175 70 182 235 299 486 342 36 7 161 14 278 17 l214 6 11
25 c10 21 8 27 -12 43 -21 17 -40 19 -185 17 -88 -1 -183 -3 -211 -5z"/>
<path d="M918 924 c-3 -3 -212 -5 -463 -5 -252 1 -456 -1 -453 -4 9 -9 903 -6
933 4 22 7 25 9 9 10 -11 1 -23 -2 -26 -5z"/>
<path d="M975 921 c-6 -6 -55 -26 -110 -46 -55 -19 -113 -42 -130 -49 -16 -8
-91 -37 -165 -65 -74 -28 -144 -55 -155 -60 -11 -5 -86 -35 -166 -66 -81 -32
-171 -73 -200 -91 -71 -44 -47 -44 28 0 55 33 149 73 348 149 50 19 153 59
230 89 77 30 160 62 185 71 127 45 160 59 160 68 0 12 -13 12 -25 0z"/>
<path d="M7867 848 c-38 -87 -135 -185 -238 -240 -72 -38 -129 -98 -129 -137
0 -13 21 -31 67 -57 100 -56 212 -171 257 -265 20 -42 36 -87 36 -100 0 -13 5
-31 10 -39 13 -18 6 20 -16 97 -33 113 -151 247 -281 320 -35 19 -63 39 -63
44 0 4 14 28 30 51 22 31 50 52 101 78 78 39 199 155 225 215 l14 33 56 -14
c31 -9 58 -13 61 -10 2 2 -20 10 -51 17 -41 9 -56 17 -58 31 -2 14 -8 7 -21
-24z"/>
<path d="M1044 852 c-22 -8 -88 -34 -149 -58 -141 -55 -243 -94 -275 -104 -14
-5 -63 -24 -110 -44 -46 -20 -89 -36 -95 -36 -26 -1 -280 -112 -329 -144 -30
-20 -62 -39 -70 -42 -9 -3 -13 -10 -10 -15 3 -5 20 1 37 13 18 13 41 29 52 36
39 24 181 90 255 117 140 52 335 127 367 141 17 8 35 14 41 14 9 0 122 45 177
70 57 26 152 56 169 52 10 -2 51 -29 91 -61 72 -56 165 -117 240 -156 22 -12
75 -40 119 -63 43 -23 88 -42 100 -41 17 0 15 3 -9 12 -116 45 -322 167 -439
258 -82 64 -108 72 -162 51z"/>
<path d="M6074 569 c-3 -5 -27 -20 -53 -34 -26 -13 -48 -30 -48 -38 0 -9 53
-42 131 -81 180 -91 189 -89 100 26 -31 40 -62 84 -69 99 -15 27 -51 44 -61
28z m50 -37 c8 -15 39 -60 70 -100 58 -75 59 -85 4 -53 -18 11 -71 39 -117 63
-47 24 -86 48 -88 53 -3 10 81 62 104 64 7 0 19 -12 27 -27z"/>
<path d="M7125 544 c49 -9 124 -14 193 -12 61 2 111 0 110 -4 -6 -15 -150
-169 -167 -178 -16 -8 -32 5 -101 83 -45 51 -94 98 -108 106 -22 11 -19 6 13
-25 22 -22 69 -72 104 -112 35 -40 71 -72 80 -72 21 0 197 183 193 201 -2 11
-30 14 -135 14 -72 0 -161 3 -197 7 -62 7 -62 6 15 -8z"/>
<path d="M1595 490 c-33 -16 -94 -43 -135 -61 -41 -17 -109 -47 -150 -66 -41
-19 -88 -40 -105 -48 -16 -7 -57 -25 -90 -40 -87 -40 -125 -41 -244 -11 -97
25 -141 27 -141 5 0 -5 8 -4 18 2 13 8 41 5 117 -15 54 -14 114 -26 132 -26
42 0 124 32 361 142 45 21 85 38 87 38 3 0 24 9 48 19 23 11 72 33 110 50 37
16 67 32 67 35 0 10 -12 6 -75 -24z"/>
<path d="M1770 473 c-8 -2 -33 -13 -55 -23 -80 -37 -162 -73 -240 -105 -44
-18 -114 -48 -155 -67 -41 -19 -94 -43 -118 -53 -23 -10 -40 -20 -38 -23 5 -4
148 55 216 89 19 10 64 29 100 44 36 15 120 51 187 81 l121 54 99 -35 c233
-86 576 -172 870 -219 87 -15 181 -30 208 -35 44 -9 126 -18 235 -27 19 -1 82
-8 140 -16 75 -9 244 -13 585 -13 554 1 629 6 1035 76 363 63 382 67 660 161
113 38 216 72 230 74 15 3 43 -5 70 -20 25 -13 168 -86 318 -163 149 -76 272
-141 272 -145 0 -6 -39 -13 -120 -21 -19 -2 -42 -6 -50 -10 -23 -9 -339 -56
-397 -59 -28 -2 -49 -6 -46 -11 6 -9 60 -3 288 35 99 16 214 34 255 39 68 9
100 24 82 40 -4 4 -38 23 -77 42 -74 36 -84 41 -378 191 -103 53 -197 96 -208
96 -12 0 -35 -6 -52 -14 -50 -23 -322 -113 -427 -141 -52 -14 -153 -36 -225
-49 -568 -104 -637 -110 -1230 -111 -341 0 -510 4 -585 13 -58 8 -121 15 -140
16 -109 9 -191 18 -235 27 -27 5 -121 20 -208 35 -283 45 -620 130 -855 214
-62 22 -114 40 -115 39 -1 0 -9 -3 -17 -6z"/>
<path d="M7435 392 c-11 -2 -54 -37 -95 -76 -90 -86 -145 -126 -248 -174 -53
-25 -76 -42 -74 -52 3 -16 130 -95 138 -87 5 5 -105 77 -118 77 -4 0 -8 5 -8
10 0 6 35 26 77 46 96 44 180 104 258 183 33 34 66 61 75 61 23 0 123 -60 184
-110 77 -64 146 -173 159 -250 4 -24 4 -24 6 2 3 66 -69 186 -155 257 -71 59
-174 118 -199 113z"/>
<path d="M720 240 c0 -5 -44 -32 -97 -59 -94 -48 -213 -143 -213 -169 0 -6 19
8 43 31 63 63 103 91 195 136 48 24 82 47 82 56 0 8 -2 15 -5 15 -3 0 -5 -4
-5 -10z"/>
<path d="M1180 180 c66 -16 285 -71 497 -126 212 -54 264 -64 233 -44 -8 5
-25 10 -37 10 -12 0 -109 22 -215 49 -398 102 -444 113 -478 117 l-35 3 35 -9z"/>
<path d="M787 149 c-111 -27 -267 -109 -267 -141 0 -5 18 4 39 21 63 50 172
99 262 117 l84 17 217 -52 c119 -29 224 -51 235 -48 14 4 14 5 -5 6 -12 0
-115 24 -227 51 -112 28 -217 50 -232 49 -16 0 -63 -9 -106 -20z"/>
<path d="M6660 45 c-69 -13 -162 -24 -207 -24 -46 -1 -83 -5 -83 -9 0 -14 149
-2 298 24 154 26 174 25 274 -16 26 -11 57 -20 70 -20 30 1 -140 58 -189 64
-21 2 -94 -6 -163 -19z"/>
<path d="M1253 26 c-28 -6 -55 -14 -59 -19 -11 -10 18 -9 54 4 17 6 52 14 79
19 39 6 42 8 13 7 -19 0 -58 -5 -87 -11z"/>
</g>
</svg>
