<?xml version="1.0" standalone="no"?>
<!DOCTYPE svg PUBLIC "-//W3C//DTD SVG 20010904//EN"
 "http://www.w3.org/TR/2001/REC-SVG-20010904/DTD/svg10.dtd">
<svg version="1.0" xmlns="http://www.w3.org/2000/svg"
 width="1200.000000pt" height="630.000000pt" viewBox="0 0 1200.000000 630.000000"
 preserveAspectRatio="xMidYMid meet">
<metadata>
Created by potrace 1.16, written by Peter Selinger 2001-2019
</metadata>
<g transform="translate(0.000000,630.000000) scale(0.100000,-0.100000)"
fill="#000000" stroke="none">
<path d="M5163 5272 c-9 -6 -13 -58 -15 -182 l-3 -175 -105 -16 c-163 -26
-373 -85 -495 -140 -22 -10 -69 -31 -105 -47 -289 -128 -820 -502 -820 -577 0
-26 141 -309 195 -390 168 -256 366 -462 575 -600 223 -147 416 -219 723 -270
l37 -6 0 -153 c0 -131 2 -155 16 -160 20 -8 2538 -8 2558 0 14 6 16 135 16
1359 l0 1353 -22 6 c-34 9 -2541 7 -2555 -2z m2555 -10 c10 -7 12 -284 10
-1353 l-3 -1344 -1280 0 -1280 0 0 150 0 150 210 6 c116 4 257 14 315 23 604
95 1247 318 1606 557 144 97 144 97 71 148 -56 38 -403 231 -417 231 -5 0 -54
-37 -107 -82 -322 -269 -649 -469 -920 -562 -207 -71 -533 -117 -693 -99 l-65
8 -3 108 -3 109 32 -7 c66 -15 272 -7 365 13 313 69 643 263 980 577 147 137
237 240 230 263 -9 26 -183 202 -287 289 -250 210 -565 370 -850 432 -175 38
-415 51 -474 26 -16 -6 -18 -6 -7 6 8 9 12 60 12 179 0 92 3 170 7 173 9 10
2535 8 2551 -1z m-2287 -363 c435 -44 856 -262 1217 -628 52 -53 98 -103 103
-113 8 -14 -16 -43 -133 -161 -369 -372 -739 -603 -1078 -672 -97 -20 -326
-23 -359 -5 -19 10 -21 20 -21 96 0 75 2 85 16 80 9 -3 48 -11 87 -17 302 -47
685 169 1020 575 31 39 57 76 57 82 0 21 -113 145 -200 219 -198 169 -395 276
-605 329 -145 37 -352 49 -375 21 -8 -10 -11 -51 -8 -134 2 -89 0 -117 -8
-110 -16 13 -174 -21 -289 -61 -166 -59 -330 -154 -448 -261 -69 -62 -69 -61
-6 -205 132 -302 363 -515 649 -597 47 -14 90 -21 95 -17 7 6 10 -34 10 -116
0 -68 -1 -119 -3 -114 -2 6 -14 10 -27 10 -47 0 -214 49 -299 89 -283 131
-534 392 -700 726 -29 61 -59 127 -66 148 -14 46 -9 56 88 159 230 243 550
414 870 464 59 9 114 20 122 24 11 5 16 29 18 91 2 45 8 89 14 96 13 16 116
17 259 2z m-283 -92 c2 -65 -1 -88 -10 -91 -7 -2 -61 -11 -119 -20 -337 -53
-658 -224 -892 -477 -43 -45 -80 -93 -83 -106 -12 -45 95 -270 207 -439 92
-137 267 -315 392 -398 113 -75 244 -132 377 -163 58 -14 111 -27 118 -29 14
-4 18 -189 4 -198 -10 -6 -157 19 -257 45 -398 101 -770 389 -1053 814 -54 81
-202 366 -202 389 0 17 67 79 189 175 321 254 700 455 1011 536 124 32 243 54
285 52 l30 -2 3 -88z m257 -107 c209 -30 395 -110 606 -259 88 -63 286 -248
308 -288 9 -17 2 -31 -46 -89 -86 -105 -268 -282 -366 -355 -236 -176 -444
-248 -638 -221 -45 7 -88 17 -95 23 -11 9 -14 80 -14 368 0 264 -3 360 -12
369 -31 31 -183 -2 -293 -63 -72 -40 -160 -117 -168 -144 -7 -28 70 -196 126
-274 67 -93 171 -185 261 -230 l76 -39 0 -82 c0 -46 -3 -85 -6 -88 -3 -4 -38
3 -77 13 -275 76 -507 285 -651 589 -68 143 -68 138 1 199 120 109 320 223
478 274 95 31 232 60 246 52 5 -4 9 -49 9 -100 0 -105 1 -106 75 -120 121 -22
221 -107 324 -279 35 -58 70 -106 78 -106 22 0 343 273 343 291 0 21 -118 133
-192 182 -165 109 -381 169 -550 153 l-68 -7 0 105 c0 57 3 111 6 120 5 13 22
16 88 16 44 0 113 -5 151 -10z m90 -261 c139 -36 279 -116 397 -228 38 -35 68
-66 68 -70 0 -6 -325 -281 -333 -281 -3 0 -29 42 -60 93 -70 118 -128 190
-181 226 -42 29 -152 71 -185 71 -34 0 -42 24 -39 116 l3 89 30 7 c50 12 216
-1 300 -23z m-350 -557 c0 -199 3 -362 8 -362 4 0 7 -4 7 -9 0 -19 -166 85
-228 143 -82 77 -139 158 -196 276 -51 108 -51 107 26 172 115 95 240 150 333
145 l50 -2 0 -363z m1840 -80 c17 -10 57 -33 90 -51 254 -138 333 -190 321
-209 -18 -30 -240 -164 -401 -242 -513 -250 -1167 -415 -1675 -422 l-165 -3 3
90 c2 50 5 96 8 104 3 11 20 12 77 7 100 -9 316 10 456 39 179 38 385 113 540
197 187 101 450 285 631 442 41 35 77 65 80 65 3 1 19 -7 35 -17z"/>
<path d="M3260 1566 l0 -516 150 0 150 0 0 386 0 385 158 -3 c157 -3 159 -3
197 -32 20 -16 47 -50 59 -75 20 -43 21 -67 26 -351 l5 -305 142 -3 142 -3 7
26 c3 14 4 169 2 343 -5 312 -5 318 -33 401 -23 74 -34 92 -84 142 -50 49 -69
61 -142 85 l-84 28 -347 4 -348 4 0 -516z m762 476 c122 -41 202 -122 240
-245 21 -68 22 -89 23 -402 l0 -330 -137 -3 -138 -3 0 279 c0 366 -13 420
-110 470 -40 20 -58 22 -197 22 l-153 0 0 -385 0 -385 -140 0 -140 0 0 506 0
506 343 -4 c321 -4 346 -6 409 -26z"/>
<path d="M4337 2068 c-2 -7 18 -78 44 -158 26 -80 100 -306 164 -502 l116
-358 212 0 213 0 162 499 c89 274 162 506 162 515 0 14 -18 16 -145 16 -141 0
-146 -1 -155 -22 -16 -38 -230 -765 -229 -779 0 -8 53 162 117 376 64 215 121
396 125 403 11 17 277 17 277 0 0 -6 -52 -171 -116 -367 -64 -196 -136 -418
-161 -494 l-44 -137 -207 2 -207 3 -161 495 c-88 272 -158 499 -154 503 4 4
71 6 150 5 l144 -3 108 -375 c59 -206 108 -384 109 -395 1 -15 2 -16 6 -4 3
13 -94 368 -198 722 l-20 67 -154 0 c-114 0 -154 -3 -158 -12z"/>
<path d="M5537 2074 c-4 -4 -7 -236 -7 -516 l0 -508 150 0 150 0 -2 513 -3
512 -141 3 c-77 1 -143 -1 -147 -4z m281 -511 l2 -503 -140 0 -140 0 0 498 c0
274 3 502 7 506 4 3 66 5 137 4 l131 -3 3 -502z"/>
<path d="M5996 2064 c-9 -24 -6 -987 3 -1003 6 -10 78 -12 337 -9 308 4 333 5
396 26 74 25 154 83 186 134 58 95 90 282 73 426 -30 246 -118 359 -327 418
-47 13 -120 18 -360 21 -281 5 -302 4 -308 -13z m667 -18 c216 -61 320 -219
321 -491 1 -292 -105 -446 -334 -485 -40 -7 -175 -10 -355 -8 l-290 3 -3 489
c-1 269 0 496 3 504 8 22 575 12 658 -12z"/>
<path d="M6293 1854 c-10 -4 -13 -73 -13 -295 l0 -289 103 0 c135 0 198 18
253 74 51 50 74 120 74 219 0 144 -55 236 -160 270 -54 18 -233 32 -257 21z
m187 -15 c147 -23 220 -113 220 -271 0 -109 -16 -155 -74 -214 -62 -61 -104
-74 -240 -74 l-96 0 0 278 c0 153 3 282 7 285 10 10 110 8 183 -4z"/>
<path d="M7127 2074 c-4 -4 -7 -236 -7 -516 l0 -508 150 0 150 0 -2 513 -3
512 -141 3 c-77 1 -143 -1 -147 -4z m281 -511 l2 -503 -140 0 -140 0 0 498 c0
274 3 502 7 506 4 3 66 5 137 4 l131 -3 3 -502z"/>
<path d="M7732 1571 c-111 -280 -202 -512 -202 -515 0 -4 66 -5 146 -4 l146 3
32 85 32 85 234 0 235 0 30 -87 30 -88 157 0 c120 0 158 3 157 13 0 6 -92 237
-202 512 l-202 500 -196 3 -196 2 -201 -509z m586 487 c7 -10 248 -604 399
-985 4 -10 -29 -13 -145 -13 l-150 0 -29 88 -30 87 -242 0 -243 0 -31 -85 -32
-85 -137 -3 -137 -3 23 63 c14 35 99 252 191 483 92 231 171 430 176 443 8 22
11 22 193 22 135 0 186 -3 194 -12z"/>
<path d="M8029 1649 c-48 -126 -83 -232 -78 -235 11 -7 339 -8 345 -1 3 2 -28
91 -67 198 -39 107 -78 212 -85 234 -7 22 -13 33 -13 24 -1 -8 35 -112 78
-230 43 -118 78 -215 76 -217 -2 -3 -232 -5 -312 -3 -20 1 -16 14 63 223 47
122 83 225 82 229 -2 4 -42 -96 -89 -222z"/>
<path d="M8840 1203 c-70 -28 -79 -149 -13 -174 75 -28 132 1 140 72 4 38 1
50 -18 73 -24 27 -78 42 -109 29z m103 -34 c23 -29 22 -80 -4 -113 -42 -54
-149 -19 -149 48 0 36 19 72 44 85 31 15 88 5 109 -20z"/>
<path d="M8850 1180 c-13 -9 -13 -10 0 -10 12 0 12 -2 2 -9 -17 -10 -12 -93 6
-99 7 -2 12 5 11 20 0 22 -1 22 -9 3 -7 -15 -9 -10 -9 23 -1 30 4 44 15 49 23
8 39 -13 39 -52 0 -36 -10 -47 -18 -20 -4 11 -4 10 -3 -2 1 -10 8 -18 16 -18
9 0 15 14 17 43 3 40 1 44 -30 57 -27 12 -28 14 -9 15 35 0 65 -36 60 -75 -2
-19 0 -31 4 -29 17 11 7 66 -17 89 -25 26 -50 31 -75 15z"/>
<path d="M8812 1145 c-17 -36 -15 -48 9 -79 16 -20 28 -26 57 -24 l37 1 -37 4
c-50 6 -76 44 -60 87 14 37 9 45 -6 11z"/>
</g>
</svg>
