<?xml version="1.0" standalone="no"?>
<!DOCTYPE svg PUBLIC "-//W3C//DTD SVG 20010904//EN"
 "http://www.w3.org/TR/2001/REC-SVG-20010904/DTD/svg10.dtd">
<svg version="1.0" xmlns="http://www.w3.org/2000/svg"
 width="1200.000000pt" height="885.000000pt" viewBox="0 0 1200.000000 885.000000"
 preserveAspectRatio="xMidYMid meet">
<metadata>
Created by potrace 1.16, written by Peter Selinger 2001-2019
</metadata>
<g transform="translate(0.000000,885.000000) scale(0.100000,-0.100000)"
fill="#000000" stroke="none">
<path d="M0 8170 c0 -374 4 -680 8 -680 5 0 28 -33 52 -72 24 -40 49 -77 56
-83 20 -16 81 -101 103 -142 10 -21 31 -49 46 -63 14 -14 36 -42 48 -62 11
-21 24 -38 27 -38 4 0 12 -11 18 -24 6 -13 57 -80 114 -148 57 -67 114 -136
126 -153 13 -16 56 -64 95 -106 40 -42 97 -104 127 -139 83 -94 218 -230 229
-230 5 0 44 32 86 70 42 39 81 70 85 70 4 0 46 29 94 65 47 36 88 65 90 65 2
0 33 17 67 38 35 21 96 53 134 72 39 18 86 41 105 51 19 9 67 27 105 39 39 12
93 30 120 41 102 37 385 87 513 90 60 2 63 3 85 38 27 45 67 129 67 144 0 11
81 188 141 309 54 109 180 299 277 418 65 81 227 249 286 297 28 24 65 54 81
68 54 46 110 90 126 100 9 6 55 36 102 68 47 31 90 57 94 57 5 0 33 17 63 37
80 54 289 156 385 187 28 9 73 25 100 36 159 60 349 102 580 129 230 26 577
20 800 -15 88 -14 176 -29 196 -34 20 -6 53 -10 74 -10 20 0 69 -7 109 -16 39
-8 103 -22 141 -29 87 -18 409 -91 490 -111 33 -8 77 -18 98 -21 21 -3 40 -9
42 -13 5 -8 -42 0 -140 24 -88 22 -409 94 -490 111 -38 7 -102 21 -141 29 -40
9 -89 16 -109 16 -21 0 -54 4 -74 10 -20 5 -108 20 -196 34 -223 35 -570 41
-800 15 -249 -29 -400 -64 -622 -145 -51 -19 -94 -34 -97 -34 -15 0 -272 -131
-327 -167 -36 -24 -69 -43 -73 -43 -4 0 -53 -30 -109 -67 -94 -62 -129 -88
-212 -158 -16 -14 -52 -44 -80 -66 -179 -146 -447 -485 -561 -708 -62 -123
-133 -278 -140 -307 -4 -16 -10 -33 -14 -39 -4 -5 -13 -26 -20 -45 -8 -19 -24
-51 -37 -71 -24 -36 -26 -37 -91 -38 -114 -2 -429 -54 -487 -81 -11 -5 -58
-21 -105 -36 -76 -24 -205 -77 -253 -105 -10 -5 -44 -24 -75 -41 -31 -16 -69
-39 -84 -49 -14 -11 -29 -19 -34 -19 -4 0 -25 -15 -48 -34 -23 -18 -72 -54
-109 -79 -38 -25 -96 -72 -130 -104 -34 -32 -69 -58 -77 -58 -15 0 -143 125
-240 236 -30 34 -89 98 -130 143 -42 45 -105 117 -140 161 -35 44 -84 103
-108 130 -25 28 -56 68 -70 89 -13 22 -33 49 -43 60 -11 11 -19 24 -19 28 0 5
-17 27 -39 51 -21 23 -46 57 -55 75 -19 37 -81 122 -100 137 -7 6 -33 43 -57
84 l-44 74 -3 -99 c-2 -62 1 -100 8 -102 5 -2 10 -8 10 -14 0 -6 12 -27 28
-47 15 -20 35 -51 45 -70 10 -18 27 -43 38 -55 11 -11 46 -56 77 -99 59 -82
122 -161 207 -264 28 -33 67 -83 88 -109 21 -27 69 -81 105 -120 37 -39 83
-89 102 -112 19 -22 81 -88 137 -146 94 -96 101 -107 98 -138 -3 -19 -16 -43
-32 -59 -95 -89 -285 -411 -366 -619 -35 -91 -67 -190 -67 -210 0 -9 -4 -20
-8 -25 -5 -6 -14 -30 -21 -53 -7 -24 -15 -42 -18 -39 -5 6 17 77 29 92 4 5 8
16 8 25 0 21 62 209 93 280 90 210 253 478 341 561 35 33 39 64 12 93 -12 12
-68 72 -126 132 -58 61 -118 126 -135 146 -16 19 -58 66 -93 102 -34 37 -84
96 -110 130 -26 35 -81 104 -122 154 -89 108 -260 337 -260 349 -1 4 -16 26
-35 48 l-35 40 0 -892 c0 -491 4 -893 8 -893 5 0 31 -21 59 -47 103 -97 150
-140 238 -217 123 -108 124 -108 105 -104 -8 2 -17 6 -20 9 -3 3 -45 41 -95
84 -50 44 -104 93 -121 110 -16 16 -60 57 -98 90 -37 33 -69 62 -72 64 -2 2
-4 -35 -4 -82 0 -48 4 -86 9 -84 9 2 364 -315 385 -345 11 -15 11 -34 0 -101
-32 -202 -39 -302 -39 -572 1 -216 5 -305 18 -389 10 -60 20 -113 23 -118 3
-5 10 -37 15 -71 9 -66 67 -254 93 -305 9 -17 16 -39 16 -50 0 -10 12 -43 27
-73 76 -157 136 -275 142 -279 3 -3 12 -16 18 -30 7 -14 46 -72 88 -130 41
-58 86 -124 101 -148 14 -23 54 -71 88 -105 33 -35 104 -107 156 -160 52 -54
111 -110 129 -125 19 -15 49 -41 65 -58 17 -17 56 -49 87 -72 35 -26 55 -49
54 -59 -3 -29 -45 -110 -44 -88 0 11 6 31 14 45 23 40 18 55 -32 91 -27 18
-64 49 -85 69 -20 19 -71 67 -113 105 -42 39 -100 95 -128 125 -29 30 -80 83
-115 118 -34 35 -62 67 -62 71 0 5 -22 37 -48 72 -40 54 -131 187 -180 264 -7
11 -21 38 -32 60 -10 22 -26 51 -33 65 -36 62 -89 180 -107 235 -10 33 -28 85
-40 115 -22 55 -56 184 -84 315 -35 162 -41 243 -41 515 0 264 7 368 39 568
l13 84 -191 174 c-105 96 -194 174 -198 174 -5 0 -8 -1015 -8 -2256 l0 -2256
33 21 c51 34 180 98 264 132 43 17 83 34 88 38 6 5 57 24 115 44 58 19 128 45
155 57 28 12 93 38 145 57 52 20 119 46 148 59 29 13 59 24 67 24 7 0 16 4 19
9 3 5 18 12 33 16 16 3 78 26 138 50 61 24 142 55 180 68 39 14 79 28 89 33
13 5 17 4 13 -4 -4 -6 -44 -23 -90 -37 -45 -15 -95 -33 -112 -41 -16 -7 -48
-20 -70 -28 -22 -7 -71 -26 -110 -41 -38 -14 -86 -32 -105 -39 -46 -18 -171
-68 -290 -117 -52 -21 -133 -52 -180 -67 -47 -16 -110 -40 -140 -54 -30 -14
-65 -28 -77 -32 -35 -11 -182 -84 -250 -124 l-63 -37 0 -67 c0 -38 2 -68 4
-68 3 0 25 14 49 30 25 17 48 30 53 30 4 0 21 10 38 23 54 41 135 79 301 143
39 14 84 32 100 39 17 7 43 16 60 20 16 4 68 22 115 42 206 85 210 87 365 140
39 13 94 35 123 49 29 13 58 24 65 24 7 0 17 4 22 9 9 9 40 21 190 75 33 12
70 27 82 34 12 7 46 12 76 12 42 0 58 -5 73 -21 10 -11 39 -34 64 -51 25 -17
49 -37 53 -44 4 -8 13 -14 19 -14 6 0 26 -13 45 -30 18 -16 38 -30 44 -30 6 0
31 -16 56 -35 25 -19 51 -35 58 -35 7 0 18 -6 25 -14 6 -8 44 -31 83 -52 40
-20 79 -43 88 -50 8 -8 23 -14 32 -14 16 0 56 -18 67 -31 3 -3 37 -20 75 -39
99 -47 97 -60 -20 -110 -75 -32 -94 -40 -147 -64 -63 -28 -112 -40 -103 -25 4
5 15 9 27 9 11 0 32 6 46 14 25 13 63 30 162 73 69 30 99 47 94 55 -3 4 -24
16 -47 27 -23 11 -66 34 -95 50 -29 17 -61 31 -71 31 -10 0 -24 6 -30 13 -6 8
-44 30 -85 50 -40 20 -79 44 -86 52 -7 8 -18 15 -25 15 -7 0 -33 16 -58 35
-25 19 -50 35 -54 35 -5 0 -24 13 -43 30 -19 16 -40 29 -47 30 -7 0 -16 6 -20
13 -4 8 -34 32 -65 55 -31 23 -59 46 -63 52 -8 13 -108 13 -120 1 -6 -5 -41
-21 -80 -35 -109 -38 -165 -60 -229 -89 -32 -15 -62 -27 -67 -27 -5 0 -17 -4
-27 -10 -9 -5 -48 -20 -87 -34 -115 -40 -227 -83 -270 -102 -22 -10 -45 -19
-52 -20 -7 -1 -36 -13 -65 -27 -29 -14 -69 -28 -88 -32 -19 -3 -48 -13 -65
-20 -16 -8 -61 -26 -100 -40 -109 -41 -244 -105 -275 -130 -8 -7 -40 -26 -71
-44 -31 -17 -62 -38 -69 -46 -7 -8 -16 -12 -21 -9 -5 3 -9 -125 -9 -300 l0
-306 311 0 c213 0 308 3 304 10 -9 14 131 151 198 193 53 34 180 97 196 97 5
0 14 7 21 15 7 8 20 15 30 15 19 0 30 19 30 54 0 31 19 46 57 46 42 0 120 -18
155 -36 14 -8 37 -14 50 -14 12 0 45 -7 72 -15 62 -19 93 -19 130 0 15 8 32
15 36 15 5 0 38 14 73 30 36 17 68 30 72 30 3 0 40 16 81 35 41 19 77 35 81
35 3 0 39 16 79 35 40 19 77 35 82 35 5 0 15 7 22 15 7 8 27 14 44 14 29 -1
29 -2 6 -8 -14 -3 -68 -27 -121 -54 -53 -26 -100 -47 -104 -47 -5 0 -33 -12
-63 -26 -73 -35 -180 -79 -269 -112 l-72 -27 -68 18 c-37 9 -76 17 -86 17 -11
0 -31 6 -45 14 -33 17 -113 36 -151 36 -35 0 -46 -13 -55 -62 -4 -21 -12 -38
-18 -38 -17 0 -195 -88 -254 -126 -59 -38 -194 -164 -194 -182 0 -8 21 -12 68
-12 67 0 69 1 118 46 100 94 384 204 525 204 33 0 101 -11 152 -24 226 -60
461 -116 512 -122 31 -4 58 -10 60 -14 10 -17 -253 41 -572 126 -51 13 -119
24 -152 24 -65 0 -229 -39 -288 -69 -21 -11 -63 -31 -93 -45 -30 -14 -82 -47
-115 -73 l-60 -48 494 -3 c272 -1 497 2 500 6 3 5 26 12 51 16 25 4 72 13 105
21 87 20 141 28 132 19 -4 -4 -31 -11 -60 -16 -28 -4 -90 -16 -137 -27 -84
-19 -59 -19 4280 -19 2816 0 4353 3 4330 9 -19 6 -53 18 -75 28 -22 10 -73 27
-113 36 -70 17 -78 17 -175 1 -56 -10 -142 -24 -192 -32 -49 -8 -109 -19 -133
-24 -23 -6 -79 -9 -125 -8 l-82 1 100 8 c55 4 141 15 190 23 50 9 117 21 150
25 33 5 92 15 130 22 63 11 78 10 145 -8 41 -12 113 -35 160 -52 71 -26 100
-31 175 -31 l90 0 -51 34 c-29 19 -78 49 -110 65 -33 17 -53 31 -46 31 8 0 12
6 9 12 -2 8 35 31 97 61 56 26 108 52 116 57 8 5 29 16 46 25 42 21 206 159
284 239 69 71 95 80 139 49 13 -9 53 -31 88 -50 108 -58 185 -121 262 -218 53
-66 121 -199 121 -236 0 -61 8 -69 68 -69 l55 0 -6 50 c-3 28 -22 89 -41 135
-71 174 -202 320 -386 428 -47 28 -95 56 -107 63 -20 12 -21 17 -11 46 6 18
21 44 33 58 12 14 32 40 44 57 13 19 31 33 42 33 11 0 39 12 62 28 23 15 60
36 82 47 81 41 191 160 278 302 21 32 31 40 47 36 30 -8 32 -19 3 -18 -15 0
-30 -8 -37 -20 -77 -137 -201 -270 -291 -314 -28 -13 -66 -35 -85 -48 -19 -13
-42 -23 -52 -23 -9 0 -27 -15 -39 -32 -12 -18 -32 -44 -45 -58 -12 -14 -26
-37 -29 -52 -6 -23 -2 -29 27 -44 234 -120 397 -284 474 -481 19 -48 37 -111
41 -140 l6 -53 93 0 94 0 0 850 c0 468 -3 850 -8 850 -4 0 -23 -5 -42 -10 -19
-6 -91 -17 -160 -26 -123 -16 -156 -16 -460 1 -129 8 -334 34 -468 61 -111 22
-158 19 -177 -10 -32 -48 6 -79 115 -96 114 -18 186 -31 230 -40 93 -19 252
-32 475 -39 l230 -6 3 -51 c5 -82 -50 -232 -110 -300 -46 -53 -168 -148 -209
-163 -19 -7 -54 -21 -79 -31 -25 -11 -61 -22 -80 -26 -19 -3 -39 -10 -45 -14
-19 -14 -166 -30 -277 -30 -160 0 -264 16 -420 66 -112 35 -150 52 -210 94
-40 29 -84 59 -98 67 -32 20 -119 125 -143 172 -45 87 -89 245 -94 336 -8 132
10 283 41 351 14 31 26 65 26 75 0 34 133 196 208 254 92 70 161 104 303 149
178 56 288 68 627 71 266 2 294 4 312 20 27 24 25 41 -6 72 l-26 26 -311 -6
c-372 -7 -465 -19 -670 -88 -259 -88 -466 -267 -552 -476 -77 -190 -94 -415
-45 -603 37 -146 46 -167 96 -246 87 -135 151 -196 320 -304 13 -8 24 -19 24
-23 0 -9 -13 -2 -127 75 -107 72 -207 189 -266 313 -17 36 -53 152 -66 216
-36 167 -22 348 45 557 26 82 83 172 154 246 138 145 301 230 574 300 122 32
232 40 537 41 282 0 308 -1 327 -18 24 -22 24 -70 0 -94 -14 -14 -55 -16 -315
-18 -336 -3 -453 -15 -616 -66 -205 -63 -336 -151 -449 -299 -37 -49 -68 -96
-68 -104 0 -7 -12 -40 -26 -72 -32 -72 -49 -218 -41 -349 9 -152 72 -316 161
-420 28 -33 54 -61 57 -63 8 -4 106 -74 142 -102 15 -12 58 -33 95 -47 187
-69 313 -93 498 -93 114 0 274 18 274 30 0 4 21 11 48 15 26 3 56 12 67 19 11
7 42 20 68 30 53 20 173 110 225 170 62 70 116 216 110 292 l-3 39 -225 6
c-219 7 -378 20 -470 39 -25 5 -74 14 -110 20 -36 6 -92 16 -125 21 -33 6 -68
12 -78 13 -44 6 -67 75 -37 110 16 20 85 21 182 2 135 -27 340 -54 468 -61 47
-2 138 -7 202 -11 123 -7 277 5 401 33 l67 15 0 711 0 712 -62 19 c-35 11 -67
23 -73 26 -12 8 -82 29 -110 34 -11 1 -32 8 -46 14 -69 28 -470 97 -659 112
-145 13 -250 26 -272 35 -12 5 -18 18 -18 39 1 76 53 89 256 65 131 -16 136
-13 163 68 13 38 27 93 33 123 5 30 14 73 18 95 9 42 23 121 43 240 7 43 12
178 12 355 -1 278 -10 391 -45 530 -4 19 -14 60 -20 90 -21 96 -82 281 -120
365 -93 202 -138 285 -221 408 -32 48 -59 92 -59 97 0 5 -17 29 -37 53 -63 74
-74 88 -92 117 -9 16 -33 48 -53 72 -20 24 -70 85 -112 136 -132 160 -430 449
-597 579 -30 23 -79 62 -109 85 -50 40 -117 86 -390 268 -80 53 -96 64 -130
86 -19 12 -57 34 -85 49 -27 15 -62 36 -77 46 -14 11 -29 19 -33 19 -3 0 -68
35 -143 77 -75 42 -177 96 -227 121 -49 24 -101 52 -115 61 -14 9 -45 25 -70
36 -48 19 -156 71 -255 122 -33 17 -85 42 -115 56 -30 13 -86 39 -123 56 -37
17 -71 31 -75 31 -4 0 -66 23 -137 51 -72 28 -170 66 -220 84 -49 17 -128 46
-175 62 -269 97 -627 207 -845 260 -33 8 -105 25 -160 39 -55 13 -147 33 -205
44 -58 11 -136 27 -175 35 -147 32 -371 67 -610 96 -111 14 -603 6 -695 -11
-134 -24 -281 -57 -330 -73 -433 -148 -658 -268 -955 -507 -119 -96 -310 -281
-343 -331 -9 -15 -49 -69 -88 -120 -59 -79 -114 -161 -153 -229 -17 -29 -109
-226 -131 -280 -30 -75 -94 -213 -129 -279 -31 -60 -20 -56 -191 -65 -167 -9
-460 -63 -476 -87 -3 -5 -12 -9 -20 -9 -18 0 -188 -66 -218 -84 -11 -8 -33
-16 -47 -20 -15 -3 -49 -20 -75 -38 -27 -18 -61 -38 -74 -44 -23 -11 -187
-125 -228 -160 -151 -126 -382 -364 -382 -392 0 -6 -6 -17 -12 -24 -29 -30
-93 -137 -157 -261 -65 -126 -133 -302 -166 -431 -9 -33 -20 -65 -24 -70 -5
-6 -14 -45 -20 -86 -7 -41 -16 -97 -21 -125 -38 -210 -56 -543 -41 -759 6 -97
16 -188 21 -202 6 -14 10 -40 10 -59 0 -60 37 -219 66 -283 9 -18 16 -43 18
-55 3 -28 25 -105 36 -126 5 -9 18 -38 30 -66 44 -103 156 -313 189 -355 15
-19 36 -48 45 -65 23 -40 63 -96 84 -116 9 -8 42 -46 72 -84 63 -79 279 -298
360 -366 92 -77 302 -233 355 -263 28 -16 59 -36 70 -46 11 -9 47 -32 80 -51
104 -57 179 -98 210 -113 17 -9 37 -20 45 -25 22 -14 238 -115 290 -136 25 -9
54 -21 65 -26 75 -31 106 -43 150 -56 28 -8 60 -21 72 -29 12 -8 60 -23 105
-34 46 -12 97 -25 113 -30 81 -24 319 -79 390 -89 71 -11 130 -25 218 -51 16
-5 36 -6 45 -4 15 5 15 4 1 -5 -10 -7 -27 -7 -45 -2 -87 27 -147 41 -219 52
-69 10 -300 63 -390 89 -16 5 -68 18 -115 30 -47 11 -94 27 -106 35 -12 7 -46
21 -77 30 -31 9 -69 22 -84 29 -16 7 -73 30 -128 51 -55 21 -107 44 -115 51
-8 7 -19 13 -25 14 -5 1 -37 14 -70 30 -33 15 -67 31 -75 34 -8 4 -33 18 -55
31 -22 13 -65 37 -95 53 -120 63 -176 95 -195 112 -11 10 -42 30 -70 46 -44
25 -251 176 -330 242 -89 73 -219 201 -312 307 -58 66 -119 136 -137 155 -29
32 -54 66 -81 109 -5 9 -26 39 -46 66 -31 43 -74 119 -159 285 -31 60 -90 206
-90 223 0 9 -4 18 -9 21 -5 3 -11 23 -14 43 -3 21 -16 72 -30 113 -27 83 -47
179 -47 227 0 18 -4 43 -10 57 -5 14 -15 105 -21 202 -15 216 3 549 41 759 5
28 14 84 21 125 6 41 15 80 20 86 4 5 15 37 24 70 55 212 169 472 277 636 32
47 58 89 58 93 0 4 12 23 28 41 37 47 315 324 324 324 4 0 22 13 41 29 47 42
187 142 217 155 14 6 47 26 74 44 26 18 60 35 75 39 14 3 42 14 63 24 20 10
53 25 75 33 21 7 74 27 118 43 144 54 333 90 515 99 157 7 153 6 193 87 78
161 118 246 140 303 12 32 36 84 52 114 16 30 34 69 40 85 14 41 75 137 165
257 41 55 83 112 92 127 59 89 367 363 538 478 98 66 243 151 289 170 20 8 62
28 94 44 60 30 94 43 287 111 147 51 235 73 430 108 92 17 584 25 695 11 237
-29 464 -64 610 -96 39 -8 117 -24 175 -35 58 -11 150 -31 205 -44 55 -14 127
-31 160 -39 241 -58 617 -175 910 -282 50 -18 108 -39 130 -46 22 -7 63 -23
91 -36 28 -12 55 -23 60 -23 12 0 252 -94 322 -126 112 -52 367 -177 372 -183
3 -3 30 -14 60 -25 30 -10 66 -26 80 -36 14 -10 61 -36 105 -57 44 -22 146
-76 227 -121 80 -45 150 -82 154 -82 4 0 21 -10 38 -23 17 -13 50 -33 74 -45
39 -20 185 -112 257 -162 17 -11 88 -59 159 -106 71 -48 155 -106 185 -131 31
-24 80 -63 110 -86 165 -129 466 -420 596 -579 42 -51 93 -112 112 -135 19
-23 47 -61 63 -85 15 -24 48 -67 74 -96 25 -30 46 -58 46 -63 0 -6 27 -49 59
-97 64 -94 127 -204 167 -292 13 -30 36 -78 49 -105 14 -28 25 -57 25 -66 0
-8 4 -19 9 -24 10 -12 74 -219 91 -295 6 -30 16 -71 20 -90 35 -139 44 -252
45 -530 0 -177 -5 -312 -12 -355 -20 -119 -35 -198 -43 -240 -5 -22 -13 -67
-19 -100 -6 -33 -22 -91 -35 -130 l-23 -70 -59 1 c-32 0 -111 4 -175 9 -111 8
-117 7 -138 -14 -11 -11 -21 -32 -21 -45 0 -39 21 -44 290 -66 69 -6 132 -13
140 -15 8 -3 60 -11 115 -19 228 -33 458 -85 560 -127 75 -30 99 -39 111 -39
12 0 14 436 14 2850 l0 2850 -6000 0 -6000 0 0 -680z m6875 274 c30 -5 131
-38 170 -54 11 -5 38 -12 61 -15 22 -3 52 -12 67 -20 14 -7 56 -21 93 -30 38
-9 89 -26 114 -37 25 -11 54 -23 65 -28 11 -4 38 -15 60 -25 41 -18 60 -23
107 -32 14 -3 35 -13 46 -23 14 -14 22 -16 31 -7 8 8 11 8 11 -1 0 -7 6 -12
14 -12 12 0 57 -17 131 -50 11 -5 61 -25 110 -45 50 -20 104 -43 120 -50 80
-36 123 -54 160 -65 22 -7 42 -16 45 -20 5 -7 177 -92 410 -202 58 -27 113
-54 123 -59 174 -95 234 -127 342 -184 50 -26 122 -68 160 -94 39 -26 79 -51
89 -54 10 -4 44 -26 75 -48 78 -55 159 -109 166 -109 5 0 156 -103 179 -121 6
-5 47 -37 91 -71 81 -63 104 -82 207 -175 32 -29 62 -53 66 -53 13 0 217 -198
211 -204 -3 -3 -51 40 -108 94 -57 55 -108 100 -112 100 -5 0 -50 37 -101 83
-51 46 -129 111 -173 145 -44 34 -85 66 -91 71 -23 18 -174 121 -179 121 -6 0
-84 51 -165 108 -30 22 -66 45 -80 52 -14 7 -55 32 -92 56 -36 24 -104 63
-150 87 -45 23 -102 55 -125 70 -24 15 -47 27 -51 27 -5 0 -48 23 -96 50 -48
28 -90 50 -94 50 -7 0 -66 29 -157 79 -22 11 -44 21 -50 21 -8 0 -261 121
-408 196 -16 8 -33 14 -39 14 -6 0 -34 11 -62 24 -28 14 -76 34 -106 46 -30
13 -73 31 -95 41 -71 32 -177 69 -185 64 -4 -3 -18 4 -31 14 -13 10 -40 22
-59 26 -19 4 -53 15 -75 25 -80 36 -221 88 -269 99 -27 7 -61 18 -75 26 -15 7
-45 16 -66 20 -22 3 -49 10 -60 15 -11 4 -49 17 -85 28 -135 42 -164 52 -140
47 14 -3 39 -8 55 -11z m-1425 -25 c105 -25 212 -59 224 -70 6 -5 18 -9 29 -9
25 0 102 -45 163 -96 43 -36 52 -51 64 -97 22 -94 -1 -162 -76 -223 -38 -32
-55 -39 -102 -42 -52 -4 -65 0 -157 46 -56 28 -146 62 -200 77 -89 24 -112 26
-210 22 -70 -4 -134 -13 -175 -26 -82 -26 -150 -27 -198 -2 -143 74 -159 265
-31 357 47 34 162 69 269 83 103 13 304 3 400 -20z m2352 -473 c146 -40 404
-152 502 -218 32 -22 92 -75 132 -116 68 -71 73 -79 80 -131 18 -145 -67 -250
-203 -251 -73 0 -89 8 -185 97 -63 59 -111 92 -189 132 -129 67 -184 80 -327
81 -127 0 -159 9 -214 61 -80 76 -79 218 1 301 21 21 46 38 57 38 10 0 26 5
34 10 24 15 251 12 312 -4z m-3538 -333 c-12 -2 -30 -13 -40 -24 -17 -19 -17
-23 -2 -65 8 -24 14 -44 11 -44 -6 0 -33 68 -33 85 0 23 37 55 63 54 21 -2 22
-2 1 -6z m106 -83 l25 -33 125 13 c145 15 377 8 520 -15 178 -29 486 -135 616
-213 64 -39 115 -81 202 -169 81 -81 110 -118 133 -169 63 -139 76 -267 38
-371 -27 -73 -79 -124 -167 -165 -62 -29 -74 -31 -162 -30 -52 2 -117 9 -145
18 -71 22 -197 75 -216 91 -8 7 -20 13 -25 13 -5 0 -32 17 -59 38 -82 60 -182
105 -329 146 -90 26 -109 28 -210 23 -61 -3 -160 -11 -221 -17 -142 -16 -281
-8 -375 20 -41 12 -79 25 -85 30 -5 4 -31 15 -57 25 -26 9 -64 34 -84 54 -95
93 -114 231 -55 379 18 45 39 86 47 93 22 18 17 43 -16 74 -32 30 -39 70 -20
106 8 14 21 19 48 19 31 0 45 -7 77 -40 42 -43 60 -48 108 -26 18 8 50 20 72
26 22 7 46 17 53 23 7 6 12 6 12 0 0 -10 -43 -33 -63 -33 -7 0 -25 -7 -42 -16
-16 -8 -47 -17 -70 -20 -37 -5 -43 -2 -80 35 -44 46 -87 55 -105 22 -17 -33
-11 -56 24 -90 35 -34 38 -59 10 -91 -7 -8 -27 -47 -44 -85 -27 -59 -32 -83
-33 -150 -1 -68 3 -88 25 -130 37 -70 81 -112 157 -147 155 -71 292 -90 496
-68 283 30 370 24 519 -32 28 -11 62 -23 76 -27 43 -14 111 -51 196 -107 44
-30 98 -61 120 -70 21 -9 53 -22 69 -29 72 -31 136 -45 225 -46 89 -2 99 0
157 30 80 40 128 84 156 141 19 38 22 61 21 150 0 99 -3 110 -39 194 -35 81
-48 99 -144 196 -90 91 -127 122 -205 172 -115 74 -428 184 -606 213 -139 22
-376 30 -513 16 -64 -7 -125 -10 -136 -6 -17 5 -101 108 -101 123 1 8 40 -36
80 -88z m650 -159 c77 -9 302 -74 380 -109 25 -11 80 -36 122 -55 85 -39 152
-88 248 -182 79 -78 124 -149 146 -235 39 -152 -17 -256 -152 -281 -116 -22
-255 18 -423 121 -303 184 -480 224 -824 186 -84 -10 -174 -16 -202 -14 -48 4
-48 4 13 6 35 1 122 9 195 18 331 41 529 -4 829 -188 53 -33 132 -73 175 -91
67 -26 91 -31 170 -31 86 0 95 2 135 29 50 35 88 102 88 155 0 133 -85 264
-263 407 -59 47 -107 73 -282 152 -46 21 -218 75 -285 90 -83 18 -244 31 -390
31 -152 0 -396 -25 -417 -42 -9 -7 -13 -7 -13 1 0 14 21 19 150 36 114 15 464
13 600 -4z m-705 -73 c97 -66 131 -256 65 -362 -23 -38 -85 -96 -101 -96 -6 0
-7 -5 -3 -12 4 -6 3 -8 -4 -4 -6 3 -12 -2 -14 -11 -2 -13 -6 -14 -11 -6 -8 12
-4 17 66 75 65 54 89 105 89 198 0 73 -2 85 -32 134 -18 30 -50 65 -73 80 -23
14 -35 26 -27 26 8 0 28 -10 45 -22z m3120 -393 c196 -21 549 -115 701 -186
34 -16 65 -29 68 -29 6 0 39 -21 181 -117 18 -12 73 -60 123 -107 49 -48 96
-86 103 -86 8 0 41 11 74 25 98 40 135 31 135 -34 0 -35 -23 -71 -45 -71 -22
0 -73 -30 -79 -46 -4 -9 5 -37 19 -62 14 -25 23 -47 21 -49 -9 -9 -48 70 -50
99 -1 33 2 35 102 81 16 8 22 19 22 42 0 61 -35 69 -120 28 -30 -14 -65 -26
-77 -26 -14 -1 -54 30 -113 87 -51 48 -109 98 -129 111 -20 13 -54 38 -76 54
-38 29 -63 42 -180 97 -142 66 -490 158 -680 180 -90 10 -359 12 -425 3 -109
-15 -232 -48 -310 -83 -136 -59 -153 -70 -215 -133 -85 -88 -99 -118 -103
-224 -5 -103 11 -142 91 -226 48 -51 73 -66 170 -107 78 -32 223 -47 432 -45
208 1 329 -10 380 -34 17 -8 64 -30 105 -47 41 -18 92 -44 112 -56 21 -13 42
-24 46 -24 5 0 28 -13 50 -30 23 -16 46 -30 50 -30 5 0 17 -9 26 -19 21 -23
166 -95 221 -109 81 -22 230 -32 310 -22 141 18 301 133 335 243 25 79 22 77
90 61 70 -16 96 -8 106 32 4 16 1 31 -11 44 -18 20 -93 49 -129 51 -13 0 -16
3 -7 6 7 3 40 -3 73 -13 70 -21 93 -47 83 -94 -9 -40 -43 -54 -94 -40 -61 17
-80 13 -87 -17 -34 -140 -188 -262 -358 -283 -88 -11 -236 1 -326 26 -65 19
-186 77 -216 105 -11 10 -23 19 -27 19 -4 0 -26 14 -49 30 -22 17 -45 30 -49
30 -5 0 -30 13 -56 29 -27 16 -95 49 -153 74 -126 54 -186 62 -445 58 -129 -2
-208 2 -277 14 -108 17 -111 18 -186 51 -29 13 -56 24 -61 24 -17 0 -122 121
-141 162 -14 30 -20 65 -20 117 0 125 19 167 121 270 83 82 280 160 489 195
74 12 351 13 455 1z m45 -129 c196 -27 452 -101 622 -179 173 -80 349 -227
452 -377 l51 -75 0 -81 c0 -79 -1 -82 -38 -127 -21 -26 -57 -58 -80 -71 -88
-51 -255 -57 -407 -15 -88 24 -129 44 -239 119 -96 65 -187 113 -312 163 -146
59 -170 62 -425 59 -128 -2 -234 0 -237 5 -3 4 104 8 236 8 260 -1 294 -6 429
-61 153 -62 217 -95 318 -163 152 -102 209 -126 353 -143 168 -21 279 14 357
113 37 47 40 56 40 112 0 58 -4 67 -50 137 -94 142 -265 292 -425 373 -168 85
-433 164 -645 193 -115 16 -423 18 -506 4 -143 -25 -186 -48 -137 -74 43 -22
108 -96 127 -144 23 -61 21 -165 -5 -219 -28 -57 -119 -150 -119 -120 0 6 16
22 35 34 19 13 48 47 65 75 25 45 30 64 30 121 0 46 -6 82 -19 111 -23 49
-108 132 -145 142 -14 3 -26 9 -26 13 0 13 38 38 66 44 16 3 61 13 99 20 91
19 407 20 535 3z m-3786 -427 c179 -189 249 -360 250 -609 0 -82 -5 -134 -18
-182 -10 -37 -16 -74 -13 -82 8 -20 90 -22 151 -4 77 23 229 109 337 190 19
15 59 39 89 55 116 62 195 107 200 113 3 4 28 12 55 19 28 6 64 18 80 25 87
41 157 51 340 51 117 0 198 -5 231 -13 29 -7 59 -14 68 -16 8 -1 19 -5 22 -9
4 -4 14 -7 21 -7 30 0 160 -65 246 -122 103 -70 205 -169 289 -283 33 -44 66
-88 74 -98 8 -9 14 -19 14 -22 0 -6 72 -117 99 -151 12 -16 46 -68 74 -116 29
-48 76 -114 106 -147 83 -92 229 -182 351 -217 14 -4 28 -11 31 -16 3 -5 37
-12 75 -15 82 -7 80 -8 115 122 12 44 24 85 28 90 4 6 13 28 20 50 14 40 86
159 126 206 39 47 179 165 225 190 25 13 47 26 50 29 3 3 48 22 101 43 171 67
278 61 275 -15 -1 -18 -4 -38 -9 -44 -4 -7 -42 -19 -84 -29 -43 -9 -96 -25
-118 -35 -22 -10 -61 -28 -87 -38 -133 -57 -283 -211 -359 -370 l-50 -103 -6
-134 c-4 -91 -2 -148 6 -181 7 -27 15 -60 17 -74 3 -14 25 -66 49 -116 35 -70
63 -109 122 -171 78 -80 241 -197 292 -209 14 -4 31 -10 36 -15 6 -4 46 -17
89 -28 64 -17 110 -21 232 -21 170 0 177 -3 172 -67 -5 -59 -24 -64 -218 -60
-192 5 -286 25 -414 89 -148 74 -232 141 -343 276 -20 23 -40 42 -46 42 -5 0
-34 -16 -63 -35 -29 -19 -55 -35 -59 -35 -18 0 -85 -64 -155 -148 -83 -98
-177 -270 -206 -375 -29 -105 -46 -163 -56 -192 -5 -16 -14 -45 -19 -62 -5
-18 -13 -48 -18 -65 -5 -18 -21 -76 -35 -128 -14 -52 -35 -126 -45 -165 -11
-38 -27 -97 -36 -130 -9 -33 -26 -91 -39 -130 -13 -38 -32 -97 -42 -130 -10
-33 -21 -64 -25 -70 -4 -5 -19 -46 -34 -90 -33 -100 -107 -252 -146 -301 -16
-20 -29 -40 -29 -44 0 -12 -85 -118 -134 -169 -82 -85 -122 -119 -177 -150
-30 -18 -61 -36 -69 -41 -50 -32 -196 -94 -260 -112 -197 -54 -418 -70 -585
-42 -49 8 -117 18 -150 23 -33 5 -85 18 -115 30 -30 11 -73 27 -95 35 -22 8
-61 26 -87 41 -25 14 -65 36 -88 48 -58 31 -182 134 -216 181 -16 21 -49 62
-72 90 -70 82 -162 279 -196 416 -45 187 -48 210 -56 460 -10 311 9 833 40
1100 6 47 13 190 17 317 l6 233 -32 112 c-18 62 -40 127 -48 143 -9 17 -23 44
-31 60 -26 51 -74 118 -120 167 l-45 46 -61 -32 c-129 -69 -284 -106 -437
-106 -120 0 -202 15 -319 58 -71 26 -75 29 -78 61 -2 19 -1 44 2 57 9 33 45
31 154 -7 81 -29 97 -31 237 -32 140 -1 155 1 226 26 134 48 231 110 320 203
50 53 108 134 126 174 53 124 73 208 72 320 0 230 -82 415 -246 559 -69 60
-73 65 -73 106 0 34 4 44 23 53 52 25 74 13 181 -99z m-108 -4731 c151 -146
212 -202 269 -246 33 -25 61 -49 63 -53 2 -4 35 -27 74 -50 38 -24 92 -59 119
-76 27 -18 51 -33 54 -33 4 0 13 -6 20 -14 7 -7 44 -25 82 -40 37 -15 86 -36
108 -46 22 -11 54 -22 70 -26 17 -3 55 -14 85 -24 228 -77 643 -83 900 -13 30
9 78 20 105 25 28 6 59 14 70 18 11 5 29 11 40 14 41 10 181 64 220 83 22 11
58 26 80 33 22 7 47 18 55 24 77 61 170 39 156 -36 -5 -27 -18 -40 -67 -71
-34 -21 -64 -35 -67 -33 -2 3 23 22 57 43 68 42 84 72 56 103 -24 27 -65 25
-109 -5 -20 -14 -41 -25 -47 -25 -5 0 -40 -14 -77 -31 -37 -17 -98 -41 -137
-54 -38 -13 -93 -32 -120 -43 -28 -10 -73 -22 -99 -25 -27 -4 -54 -11 -60 -16
-6 -5 -24 -11 -41 -14 -16 -3 -84 -15 -150 -26 -238 -43 -583 -25 -766 40 -30
10 -64 19 -75 19 -10 0 -41 12 -69 25 -27 14 -55 25 -61 25 -5 0 -32 11 -60
24 -27 13 -59 26 -71 30 -13 4 -23 12 -23 17 0 5 -5 9 -10 9 -6 0 -32 15 -59
33 -27 17 -81 52 -119 76 -39 23 -72 46 -74 50 -2 4 -25 24 -53 45 -27 20
-115 99 -194 174 -79 75 -149 138 -155 140 -15 3 -52 -37 -59 -63 -4 -17 -5
-16 -6 4 -1 30 35 71 62 71 10 0 48 -28 83 -62z m52 -218 c7 0 12 -5 12 -11 0
-21 -62 28 -130 102 -100 111 -86 112 18 2 48 -51 93 -93 100 -93z m5870 -260
c33 -21 39 -41 23 -83 -9 -23 -87 -68 -194 -111 -20 -8 -40 -22 -43 -30 -8
-20 84 -161 172 -266 75 -89 188 -201 239 -237 74 -51 230 -133 255 -133 10 0
21 -4 24 -9 3 -5 38 -16 78 -26 104 -24 368 -12 368 16 0 5 8 9 18 9 23 0 153
51 217 85 28 14 60 37 73 51 15 17 22 20 22 10 0 -8 -12 -24 -26 -35 -38 -30
-170 -91 -244 -112 -25 -7 -47 -16 -50 -20 -21 -27 -279 -37 -378 -14 -40 10
-75 21 -78 26 -3 5 -15 9 -27 9 -29 0 -172 73 -257 131 -131 90 -392 402 -416
497 -7 26 8 48 39 58 12 3 59 24 104 45 109 52 130 89 72 129 -28 20 -31 21
-48 6 -10 -9 -22 -16 -26 -16 -5 0 -44 -18 -86 -40 -42 -22 -102 -46 -133 -54
-31 -8 -62 -19 -69 -23 -6 -4 -14 -8 -17 -8 -3 -1 -18 -8 -35 -16 -16 -8 -66
-26 -110 -38 -44 -13 -98 -29 -120 -37 -23 -8 -57 -14 -77 -14 -20 0 -48 -4
-63 -10 -46 -17 -220 -50 -326 -60 -57 -6 -147 -16 -199 -22 -130 -16 -685
-16 -832 0 -65 6 -171 16 -235 22 -138 11 -358 36 -458 51 -38 6 -117 15 -175
20 -58 5 -132 13 -165 18 -161 23 -225 32 -281 41 -34 6 -75 10 -92 10 -37 0
-79 17 -86 35 -5 13 24 28 79 40 17 4 39 14 49 23 15 14 18 14 14 2 -2 -8 -22
-21 -44 -28 -21 -8 -50 -18 -64 -24 l-25 -10 25 -14 c14 -7 38 -13 54 -14 16
0 56 -4 90 -10 56 -9 120 -18 281 -41 33 -5 107 -13 165 -18 58 -5 137 -14
175 -20 100 -15 320 -40 458 -51 64 -6 170 -16 235 -22 147 -16 702 -16 832 0
52 6 142 16 199 22 106 10 280 43 326 60 15 6 43 10 63 10 20 0 54 6 77 14 22
8 74 24 115 35 41 12 96 33 121 46 25 13 67 29 93 35 26 5 81 27 122 48 41 20
87 43 102 50 15 7 34 17 42 22 21 12 21 12 58 -10z m1055 -485 c135 -137 204
-215 189 -215 -6 0 -19 11 -30 25 -54 68 -237 256 -318 326 -50 43 -94 87 -96
96 -6 22 99 -74 255 -232z m-1375 174 c32 -60 153 -224 184 -251 18 -15 29
-30 26 -33 -14 -15 -166 175 -213 265 -19 37 -39 47 -58 28 -8 -7 -46 -28 -85
-47 -40 -19 -72 -41 -72 -48 0 -7 4 -13 9 -13 5 0 35 -15 68 -33 77 -44 94
-53 123 -65 41 -16 94 -42 115 -55 66 -41 88 -57 79 -57 -6 0 -23 9 -37 20
-14 11 -32 20 -40 20 -9 0 -19 4 -22 10 -3 5 -32 21 -63 35 -31 14 -75 35 -97
46 -147 76 -153 80 -148 97 2 10 40 35 84 57 43 21 79 42 79 47 0 4 11 8 25 8
19 0 31 -9 43 -31z m1572 -10 c25 -6 122 -9 222 -7 97 1 179 0 182 -3 11 -10
-394 -3 -479 8 -99 14 -113 5 -65 -41 40 -38 130 -138 191 -213 23 -29 50 -53
58 -53 20 0 101 77 204 193 43 48 82 85 87 82 4 -2 -16 -29 -44 -58 -258 -269
-244 -262 -315 -174 -99 122 -227 257 -243 257 -5 0 -8 5 -8 12 0 9 3 9 11 1
9 -9 15 -8 25 2 15 15 94 12 174 -6z m-7925 -155 c248 -87 522 -167 785 -228
211 -50 198 -47 363 -75 28 -5 90 -16 137 -25 141 -26 351 -58 410 -62 30 -2
78 -9 105 -14 28 -6 73 -12 100 -13 48 -3 47 -3 -11 -5 -34 -1 -74 2 -90 7
-16 5 -63 12 -104 15 -41 3 -97 9 -125 15 -27 5 -84 14 -125 20 -41 7 -113 19
-160 27 -47 9 -107 20 -135 24 -107 17 -131 21 -165 30 -19 5 -89 21 -155 36
-101 23 -324 82 -615 164 -36 10 -89 28 -117 39 -29 12 -53 18 -53 15 0 -4 -6
-2 -13 4 -17 15 -161 62 -187 62 -12 0 -54 -16 -93 -35 -39 -19 -74 -35 -79
-35 -4 0 -45 -18 -90 -39 -46 -22 -112 -51 -148 -66 -36 -14 -84 -35 -107 -46
-24 -10 -45 -19 -48 -19 -3 0 -52 -22 -109 -50 -57 -27 -117 -52 -133 -56 -15
-4 -35 -12 -43 -20 -8 -7 -28 -15 -45 -18 l-30 -6 32 15 c17 8 34 19 38 25 3
5 14 10 24 10 15 0 188 74 327 140 23 11 45 20 49 20 8 0 23 7 158 69 48 23
100 44 115 47 15 4 37 15 50 25 13 10 36 21 52 24 17 4 32 11 35 16 12 19 74
7 200 -37z m6165 -87 c14 -8 45 -23 70 -35 101 -46 192 -92 203 -100 7 -6 62
-35 124 -66 62 -31 115 -61 118 -66 3 -6 13 -10 21 -10 19 0 242 -108 250
-122 8 -13 14 -15 -121 50 -135 66 -112 55 -470 239 -38 19 -95 47 -125 61
-64 29 -72 33 -165 85 -88 49 -128 55 -186 29 -24 -11 -82 -32 -129 -47 -47
-15 -94 -31 -105 -35 -11 -5 -29 -11 -40 -14 -11 -2 -51 -17 -90 -31 -71 -27
-186 -61 -240 -71 -16 -2 -41 -9 -55 -14 -78 -28 -426 -98 -436 -88 -2 3 54
15 124 27 70 13 161 32 202 42 212 54 317 81 335 89 11 5 54 20 95 35 41 15
84 30 95 34 37 15 239 82 285 95 44 13 46 13 130 -30 47 -24 96 -50 110 -57z
m-7117 -321 c62 -19 164 -46 227 -61 160 -36 198 -45 255 -61 28 -7 100 -25
160 -40 61 -14 137 -35 170 -45 33 -11 87 -23 120 -28 44 -6 51 -9 24 -10 -32
-1 -66 7 -239 55 -30 8 -75 20 -100 25 -65 14 -105 24 -195 47 -44 12 -132 33
-195 48 -108 25 -350 93 -359 100 -12 11 32 1 132 -30z m7892 -106 c-3 -5 -30
-10 -59 -10 -28 0 -57 -5 -64 -12 -7 -7 -36 -13 -66 -14 -29 -1 -68 -6 -87
-12 -19 -6 -74 -16 -124 -22 -49 -6 -124 -17 -165 -25 -192 -36 -252 -45 -302
-43 -52 1 -52 1 17 8 81 8 264 37 315 50 19 5 78 14 130 20 52 6 110 16 129
22 19 6 57 11 86 12 29 1 59 7 67 13 7 7 36 13 63 16 28 2 54 4 58 5 5 1 5 -2
2 -8z"/>
<path d="M5048 8429 c-212 -27 -322 -98 -342 -218 -12 -78 23 -144 106 -197
47 -30 109 -31 198 -3 42 13 104 22 175 26 96 4 123 1 207 -21 104 -26 201
-65 258 -103 25 -17 49 -23 86 -23 46 0 58 5 104 41 114 90 120 215 16 303
-170 143 -532 230 -808 195z"/>
<path d="M7475 7937 c-50 -18 -109 -87 -122 -141 -20 -88 12 -161 94 -215 45
-30 50 -31 162 -31 145 -1 202 -14 337 -81 80 -39 125 -69 178 -119 112 -105
121 -110 185 -110 129 1 217 109 197 242 -6 37 -18 56 -80 120 -106 109 -158
142 -391 248 -69 31 -170 68 -233 86 -63 17 -282 18 -327 1z"/>
<path d="M3518 6436 c-10 -7 -18 -26 -18 -43 0 -26 12 -42 73 -94 164 -144
247 -336 247 -573 0 -101 -41 -277 -71 -311 -5 -5 -9 -15 -9 -23 0 -19 -62
-105 -119 -166 -76 -79 -159 -135 -283 -189 -128 -56 -365 -59 -515 -7 -107
37 -131 38 -139 6 -13 -53 -2 -68 68 -97 242 -99 563 -72 778 66 30 19 47 14
87 -28 44 -46 123 -155 123 -170 0 -5 9 -21 19 -36 11 -15 23 -40 26 -57 4
-16 21 -74 38 -128 l30 -100 -6 -235 c-4 -130 -11 -274 -17 -321 -48 -410 -58
-1243 -16 -1425 9 -38 24 -99 32 -135 23 -98 129 -327 179 -385 24 -28 59 -72
79 -98 63 -82 162 -163 266 -216 30 -16 69 -36 85 -45 82 -43 175 -76 250 -87
33 -5 101 -15 150 -23 214 -36 522 2 690 84 33 16 80 38 105 49 47 22 52 24
140 82 52 35 151 130 217 209 52 62 144 209 180 288 19 42 39 85 44 94 5 10 9
23 9 29 0 6 18 56 39 112 50 132 107 320 187 617 14 52 30 110 35 128 5 17 13
47 18 65 5 17 14 46 19 62 10 29 26 84 57 194 22 80 79 205 131 286 55 86 203
245 228 245 7 0 35 16 62 35 59 42 86 44 113 9 141 -179 320 -302 520 -356
106 -29 389 -38 426 -14 27 18 34 63 13 84 -8 8 -58 12 -158 12 -116 0 -163 4
-225 21 -44 11 -84 23 -90 27 -5 3 -16 7 -23 8 -60 9 -220 120 -315 218 -90
92 -144 192 -178 328 -18 71 -21 102 -16 218 6 142 11 160 83 307 54 108 229
274 333 314 25 10 61 25 80 35 18 9 70 25 114 35 105 23 132 54 86 100 -19 19
-29 21 -86 16 -57 -6 -239 -67 -253 -86 -3 -3 -25 -17 -50 -30 -47 -25 -187
-143 -225 -190 -81 -97 -149 -234 -181 -366 -26 -101 -34 -109 -117 -102 -38
3 -74 11 -81 17 -7 5 -33 16 -57 24 -87 28 -115 41 -195 93 -97 64 -171 144
-241 261 -28 48 -62 100 -74 116 -34 43 -99 146 -99 156 0 4 -4 10 -8 12 -4 2
-31 37 -60 78 -132 191 -380 386 -547 431 -16 4 -57 16 -90 25 -89 27 -403 27
-495 1 -36 -11 -76 -25 -90 -32 -14 -7 -49 -18 -77 -25 -29 -6 -53 -16 -53
-20 0 -4 -12 -13 -27 -19 -16 -6 -50 -24 -78 -41 -27 -17 -68 -39 -90 -50 -22
-10 -61 -34 -85 -52 -200 -145 -336 -208 -452 -208 -73 0 -78 10 -54 99 22 82
33 279 17 308 -6 12 -15 51 -20 88 -18 122 -101 265 -236 403 -101 103 -122
115 -157 88z m1791 -637 c89 -15 225 -56 286 -86 125 -63 323 -248 395 -369
19 -33 59 -97 90 -143 30 -46 60 -91 65 -100 6 -9 18 -28 28 -44 10 -15 17
-32 15 -38 -2 -6 -14 9 -27 33 -13 24 -32 52 -41 63 -10 11 -42 61 -73 110
-30 50 -68 110 -83 133 -67 109 -263 287 -379 345 -114 57 -283 97 -410 97
-80 0 -229 -23 -295 -45 -25 -8 -54 -18 -65 -22 -10 -3 -51 -23 -90 -42 -67
-34 -70 -38 -73 -74 -5 -59 25 -211 52 -270 38 -80 86 -130 158 -163 58 -27
72 -29 173 -29 91 1 118 4 156 22 l46 21 -5 96 c-5 109 2 126 53 126 45 0 57
-19 77 -120 23 -124 58 -191 148 -281 65 -65 83 -77 135 -92 101 -29 150 -34
247 -26 100 8 176 32 239 74 21 14 44 25 51 25 7 0 -7 -14 -32 -30 -103 -68
-280 -99 -423 -73 -105 19 -163 45 -221 101 -87 84 -132 173 -157 312 -13 72
-31 100 -64 100 -40 0 -48 -22 -44 -127 l4 -98 -65 -22 c-117 -40 -279 -24
-377 36 -43 27 -98 104 -119 166 -33 99 -53 251 -38 290 8 19 120 74 217 105
140 45 316 61 446 39z m-769 -318 c6 -41 14 -79 19 -85 5 -6 11 -27 14 -46 17
-140 179 -287 347 -315 116 -19 276 -7 293 21 5 9 26 14 52 14 38 0 46 -4 59
-28 8 -15 23 -36 35 -46 12 -11 21 -22 21 -26 0 -22 101 -106 159 -132 132
-60 146 -62 298 -61 129 1 149 3 215 28 40 16 96 39 123 53 85 44 101 42 160
-21 27 -29 66 -65 85 -77 19 -13 56 -41 81 -62 25 -21 51 -38 58 -38 7 0 30
-8 50 -19 20 -10 61 -24 91 -31 30 -6 69 -16 85 -20 76 -22 131 -34 143 -32
23 5 42 -19 42 -54 0 -38 28 -164 40 -179 16 -20 21 -70 8 -87 -19 -25 -76
-64 -133 -91 -28 -13 -63 -39 -78 -58 -37 -48 -98 -118 -124 -144 -13 -12 -23
-27 -23 -32 0 -5 -11 -19 -25 -31 -26 -23 -105 -180 -105 -209 0 -10 -8 -31
-17 -48 -9 -16 -26 -57 -39 -90 -13 -33 -23 -53 -23 -45 -1 18 37 120 50 136
5 7 16 36 24 66 17 65 80 188 106 206 11 7 19 17 19 22 0 5 12 22 28 38 34 37
84 96 120 141 14 19 49 45 77 58 49 23 106 61 134 88 12 12 12 20 -3 60 -24
60 -45 152 -46 191 0 30 -24 63 -36 51 -3 -3 -24 1 -46 9 -22 8 -53 14 -69 14
-15 0 -30 4 -33 9 -5 8 -67 23 -111 26 -11 1 -39 12 -62 23 -23 12 -48 22 -54
22 -7 0 -33 17 -58 38 -25 20 -64 50 -86 66 -22 16 -60 51 -85 78 -25 26 -51
48 -57 48 -7 0 -41 -13 -75 -29 -151 -71 -197 -82 -345 -84 -160 -2 -193 5
-350 80 -32 16 -123 98 -123 112 0 4 -9 16 -21 27 -12 10 -27 31 -35 46 -12
22 -22 28 -48 28 -18 0 -39 -6 -45 -14 -24 -29 -187 -40 -303 -20 -104 17
-204 71 -268 144 -26 30 -51 66 -55 80 -4 14 -14 34 -21 45 -8 11 -14 36 -14
57 0 20 -4 39 -9 43 -6 3 -13 27 -16 53 -13 100 -14 102 -47 102 -20 0 -37 -8
-50 -25 -18 -23 -35 -34 -98 -67 -14 -7 -31 -21 -38 -30 -7 -10 -37 -25 -67
-34 -30 -8 -55 -19 -55 -24 0 -4 -12 -10 -27 -13 -16 -3 -48 -10 -72 -17 -24
-6 -87 -13 -139 -15 -76 -3 -97 -7 -105 -20 -5 -10 -18 -26 -28 -36 -11 -11
-19 -22 -19 -27 0 -4 -29 -39 -65 -77 -36 -39 -65 -76 -65 -84 0 -8 -3 -12 -6
-8 -4 3 -3 14 0 24 4 10 7 19 7 20 0 1 24 27 53 57 29 30 69 78 89 107 l36 52
100 3 c91 2 219 27 231 45 3 4 25 12 49 19 24 6 53 21 65 33 12 12 33 28 46
35 67 35 80 44 98 67 18 22 77 38 94 25 4 -3 12 -39 18 -79z m-820 -428 c0 -7
4 -13 9 -13 5 0 18 -16 30 -35 32 -54 10 -41 -32 20 -21 30 -42 55 -48 55 -6
0 -7 5 -4 11 8 13 45 -18 45 -38z m71 -106 c14 -11 45 -62 88 -147 4 -8 13
-25 20 -38 6 -12 13 -50 16 -85 l4 -62 -10 65 c-5 35 -17 72 -26 82 -9 10 -13
18 -8 18 4 0 2 6 -4 13 -6 8 -25 40 -42 72 -17 32 -41 67 -53 76 -24 20 -10
25 15 6z m176 -452 c11 -74 12 -131 2 -314 -6 -123 -15 -235 -20 -248 -5 -14
-9 -46 -9 -73 0 -27 -4 -82 -9 -122 -30 -232 -26 -1170 5 -1243 8 -19 12 -35
9 -35 -39 0 -54 356 -40 935 4 149 11 303 16 343 5 40 9 95 9 122 0 27 4 59 9
73 5 13 14 125 20 248 10 186 9 239 -2 314 -8 50 -18 99 -22 110 -6 20 -6 20
6 0 7 -10 18 -60 26 -110z m2058 -854 c69 -9 220 -56 246 -78 8 -6 31 -16 51
-22 21 -7 40 -17 43 -22 4 -5 21 -10 38 -10 30 -2 30 -2 5 -6 -19 -3 -59 11
-122 41 -52 25 -108 47 -124 49 -15 2 -39 11 -52 20 -14 9 -43 17 -65 17 -22
0 -75 5 -118 12 -96 14 -469 -5 -502 -26 -11 -7 -37 -19 -58 -26 -22 -7 -51
-18 -65 -26 -15 -8 -34 -14 -43 -14 -8 0 -26 -11 -39 -25 -13 -14 -31 -25 -39
-25 -9 0 -25 -7 -35 -15 -30 -23 -42 -18 -13 5 14 11 32 20 40 20 7 0 22 9 32
20 9 10 34 25 54 31 20 6 41 15 46 19 6 4 24 10 40 14 17 4 48 16 70 27 73 35
405 46 610 20z m-65 -116 c23 -8 54 -15 69 -15 49 0 141 -34 303 -109 82 -39
96 -58 78 -106 -5 -14 -10 -38 -10 -52 0 -14 -6 -39 -14 -56 -8 -18 -26 -72
-41 -122 -15 -49 -35 -117 -45 -150 -10 -33 -26 -95 -35 -138 -9 -43 -27 -102
-39 -130 -13 -29 -35 -90 -51 -137 -15 -47 -33 -98 -40 -115 -27 -64 -115
-241 -128 -257 -21 -27 -53 -22 -94 15 -21 18 -74 51 -118 73 -80 39 -80 39
-200 39 -66 -1 -147 -4 -180 -7 -59 -7 -59 -7 -10 3 86 17 239 22 294 10 70
-15 177 -67 224 -108 54 -48 56 -47 109 42 35 60 104 212 111 245 3 14 26 79
51 145 26 66 55 156 65 200 17 72 37 141 91 320 10 33 23 74 28 90 34 101 34
165 0 165 -7 0 -48 18 -93 40 -94 47 -217 90 -255 90 -15 0 -47 7 -70 15 -31
11 -85 15 -192 15 -109 0 -158 -4 -185 -15 -19 -8 -50 -15 -67 -15 -46 0 -183
-51 -248 -93 -31 -21 -62 -37 -68 -37 -27 0 -202 -155 -290 -257 -35 -40 -101
-163 -183 -343 -12 -25 -24 -65 -28 -90 -4 -25 -17 -72 -28 -104 -12 -33 -19
-68 -15 -78 3 -10 27 -39 55 -65 27 -27 49 -52 49 -58 0 -17 -108 97 -114 120
-3 13 4 49 15 81 11 33 24 79 28 104 14 88 151 374 211 443 88 102 263 257
290 257 6 0 35 15 63 34 61 38 219 96 264 96 17 0 46 7 64 15 48 21 320 21
379 0z m-860 -59 c0 -1 -28 -25 -62 -51 -35 -27 -69 -55 -76 -64 -7 -8 -37
-41 -67 -72 -58 -60 -127 -153 -171 -231 -15 -27 -31 -48 -36 -48 -15 0 99
183 147 235 97 106 138 147 190 187 54 43 75 55 75 44z m-460 -583 c-22 -43
-43 -93 -46 -111 -4 -18 -10 -35 -15 -38 -5 -3 -9 -22 -9 -43 0 -22 -6 -44
-15 -51 -8 -7 -15 -25 -15 -39 0 -15 -7 -36 -16 -47 -15 -19 -16 -19 -8 1 4
11 9 32 12 47 2 15 10 33 18 39 8 6 14 28 14 48 0 20 4 41 9 46 4 6 14 33 21
60 7 28 18 57 25 65 6 8 20 34 30 58 10 23 22 42 26 42 5 0 -9 -35 -31 -77z
m-175 -329 c28 -10 31 -13 10 -8 -37 8 -72 8 -150 -1 -61 -6 -145 -32 -145
-45 0 -4 -26 -24 -57 -45 -32 -22 -68 -52 -81 -67 -29 -34 -67 -37 -83 -5 -6
12 -19 31 -29 42 -20 24 -34 59 -20 50 6 -3 10 -12 10 -20 0 -8 6 -18 13 -22
8 -4 22 -20 32 -35 22 -36 39 -35 67 2 12 17 25 30 30 30 11 0 99 68 115 89 7
9 13 13 13 9 0 -4 17 -1 38 7 20 8 63 16 95 18 31 2 60 7 64 11 10 10 35 7 78
-10z m14 -120 c43 -15 117 -60 157 -96 31 -27 21 -52 -49 -128 -33 -36 -68
-78 -78 -94 -17 -29 -17 -30 2 -57 11 -15 29 -30 42 -32 18 -4 18 -4 -6 -6
-21 -1 -32 6 -46 30 -26 43 -16 68 69 161 39 42 70 83 70 92 0 20 -77 77 -149
112 -48 23 -62 25 -115 19 -93 -10 -170 -52 -254 -138 -39 -41 -72 -82 -72
-90 0 -28 40 -104 90 -171 158 -215 405 -352 704 -392 192 -25 370 -17 516 23
119 32 271 102 350 161 64 48 170 155 170 172 0 24 -70 85 -122 109 -71 32
-108 41 -162 41 -148 -1 -256 -60 -321 -175 -19 -35 -41 -68 -48 -72 -19 -12
-71 -3 -84 15 -31 39 3 141 68 210 17 18 29 39 26 46 -3 7 -43 32 -89 55 -96
48 -194 63 -264 41 -59 -19 -154 -91 -228 -172 -36 -39 -68 -70 -71 -67 -9 9
121 143 183 189 97 70 179 85 296 55 81 -21 180 -77 184 -103 2 -13 -8 -33
-23 -49 -39 -41 -85 -124 -85 -154 0 -39 21 -61 55 -57 25 2 36 14 69 71 45
79 94 121 173 148 148 53 309 26 413 -67 59 -54 55 -76 -27 -155 -84 -81 -120
-107 -207 -154 -167 -88 -356 -135 -553 -135 -266 0 -520 66 -700 182 -149 96
-323 315 -323 407 0 35 130 165 198 197 92 43 171 53 241 28z m606 -40 c33 -8
71 -23 85 -32 14 -9 30 -15 37 -14 6 1 14 -2 18 -8 3 -5 13 -10 22 -10 9 0 31
-11 49 -25 18 -14 37 -25 43 -25 6 0 11 -8 10 -17 0 -11 -3 -13 -6 -5 -2 6 -9
12 -15 12 -5 0 -24 11 -42 25 -18 14 -38 25 -45 25 -7 0 -46 16 -87 36 -63 31
-87 37 -161 41 -63 4 -106 1 -152 -11 -35 -9 -66 -14 -69 -11 -3 3 -1 5 4 5 5
1 32 7 59 15 67 18 178 18 250 -1z"/>
<path d="M11080 514 c-78 -80 -242 -218 -284 -239 -17 -9 -38 -19 -46 -24 -8
-5 -51 -26 -95 -46 -44 -20 -87 -40 -95 -44 -26 -14 -22 -35 10 -49 16 -8 64
-36 105 -63 l76 -49 464 0 465 0 -6 43 c-11 77 -49 154 -126 252 -74 95 -151
160 -261 218 -35 19 -75 41 -88 50 -13 10 -30 17 -39 17 -9 0 -45 -30 -80 -66z"/>
</g>
</svg>
