<?xml version="1.0" standalone="no"?>
<!DOCTYPE svg PUBLIC "-//W3C//DTD SVG 20010904//EN"
 "http://www.w3.org/TR/2001/REC-SVG-20010904/DTD/svg10.dtd">
<svg version="1.0" xmlns="http://www.w3.org/2000/svg"
 width="1200.000000pt" height="885.000000pt" viewBox="0 0 1200.000000 885.000000"
 preserveAspectRatio="xMidYMid meet">
<metadata>
Created by potrace 1.16, written by Peter Selinger 2001-2019
</metadata>
<g transform="translate(0.000000,885.000000) scale(0.100000,-0.100000)"
fill="#000000" stroke="none">
<path d="M4830 8719 c-220 -25 -419 -70 -575 -129 -27 -11 -72 -27 -100 -36
-96 -31 -305 -133 -385 -187 -30 -20 -58 -37 -63 -37 -4 0 -47 -26 -94 -57
-47 -32 -93 -62 -102 -68 -16 -10 -72 -54 -126 -100 -16 -14 -53 -44 -81 -68
-59 -48 -221 -216 -286 -297 -97 -119 -223 -309 -277 -418 -60 -121 -141 -298
-141 -309 0 -15 -40 -99 -67 -144 -22 -35 -25 -36 -85 -38 -128 -3 -411 -53
-513 -90 -27 -11 -81 -29 -120 -41 -38 -12 -86 -30 -105 -39 -19 -10 -66 -33
-105 -51 -38 -19 -99 -51 -134 -72 -34 -21 -65 -38 -67 -38 -2 0 -43 -29 -90
-65 -48 -36 -90 -65 -94 -65 -4 0 -43 -31 -85 -70 -42 -38 -81 -70 -86 -70
-11 0 -146 136 -229 230 -30 35 -87 97 -127 139 -39 42 -82 90 -95 106 -12 17
-69 86 -126 153 -57 68 -108 135 -114 148 -6 13 -14 24 -18 24 -3 0 -16 17
-27 38 -12 20 -34 48 -48 62 -15 14 -36 42 -46 63 -22 41 -83 126 -103 142 -7
6 -32 43 -56 83 -24 39 -47 72 -51 72 -12 0 74 -145 98 -165 19 -17 81 -101
99 -137 9 -18 34 -52 55 -75 22 -24 39 -46 39 -51 0 -4 8 -17 19 -28 10 -11
30 -38 43 -60 14 -21 45 -61 70 -89 24 -27 73 -86 108 -130 35 -44 98 -116
140 -161 41 -45 100 -109 130 -143 97 -111 225 -236 240 -236 8 0 43 26 77 58
34 32 92 79 130 104 37 25 86 61 109 79 23 19 44 34 48 34 5 0 20 8 34 19 15
10 53 33 84 49 31 17 65 36 75 41 48 28 177 81 253 105 47 15 94 31 105 36 58
27 373 79 487 81 65 1 67 2 91 38 13 20 29 52 37 71 7 19 16 40 20 45 4 6 10
23 14 39 7 29 78 184 140 307 114 223 382 562 561 708 28 22 64 52 80 66 83
70 118 96 212 158 56 37 105 67 109 67 4 0 37 19 73 43 55 36 312 167 327 167
3 0 46 15 97 34 222 81 373 116 622 145 230 26 577 20 800 -15 88 -14 176 -29
196 -34 20 -6 53 -10 74 -10 20 0 69 -7 109 -16 39 -8 103 -22 141 -29 81 -17
402 -89 490 -111 98 -24 145 -32 140 -24 -2 4 -21 10 -42 13 -21 3 -65 13 -98
21 -81 20 -403 93 -490 111 -38 7 -102 21 -141 29 -40 9 -89 16 -109 16 -21 0
-54 4 -74 10 -20 5 -108 20 -196 34 -216 33 -588 40 -805 15z"/>
<path d="M4880 8604 c-14 -2 -63 -9 -110 -15 -47 -6 -103 -14 -125 -19 -126
-28 -213 -53 -315 -88 -194 -68 -227 -81 -287 -111 -32 -16 -74 -36 -94 -44
-46 -19 -191 -104 -289 -170 -171 -115 -479 -389 -538 -478 -9 -15 -51 -72
-92 -127 -90 -120 -151 -216 -165 -257 -6 -16 -24 -55 -40 -85 -16 -30 -40
-82 -52 -114 -22 -57 -62 -142 -140 -303 -40 -81 -36 -80 -193 -87 -182 -9
-371 -45 -515 -99 -44 -16 -97 -36 -118 -43 -22 -8 -55 -23 -75 -33 -21 -10
-49 -21 -63 -24 -15 -4 -49 -21 -75 -39 -27 -18 -60 -38 -74 -44 -30 -13 -170
-113 -217 -155 -19 -16 -37 -29 -41 -29 -9 0 -287 -277 -324 -324 -16 -18 -28
-37 -28 -41 0 -4 -26 -46 -58 -93 -108 -164 -222 -424 -277 -636 -9 -33 -20
-65 -24 -70 -5 -6 -14 -45 -20 -86 -7 -41 -16 -97 -21 -125 -38 -210 -56 -543
-41 -759 6 -97 16 -188 21 -202 6 -14 10 -39 10 -57 0 -48 20 -144 47 -227 14
-41 27 -92 30 -113 3 -20 9 -40 14 -43 5 -3 9 -12 9 -21 0 -17 59 -163 90
-223 85 -166 128 -242 159 -285 20 -27 41 -57 46 -66 27 -43 52 -77 81 -109
18 -19 79 -89 137 -155 93 -106 223 -234 312 -307 79 -66 286 -217 330 -242
28 -16 59 -36 70 -46 19 -17 75 -49 195 -112 30 -16 73 -40 95 -53 22 -13 47
-27 55 -31 8 -3 42 -19 75 -34 33 -16 65 -29 70 -30 6 -1 17 -7 25 -14 8 -7
60 -30 115 -51 55 -21 112 -44 128 -51 15 -7 53 -20 84 -29 31 -9 65 -23 77
-30 12 -8 59 -24 106 -35 47 -12 99 -25 115 -30 90 -26 321 -79 390 -89 72
-11 132 -25 219 -52 18 -5 35 -5 45 2 14 9 14 10 -1 5 -9 -2 -29 -1 -45 4 -88
26 -147 40 -218 51 -71 10 -309 65 -390 89 -16 5 -67 18 -113 30 -45 11 -93
26 -105 34 -12 8 -44 21 -72 29 -44 13 -75 25 -150 56 -11 5 -40 17 -65 26
-52 21 -268 122 -290 136 -8 5 -28 16 -45 25 -31 15 -106 56 -210 113 -33 19
-69 42 -80 51 -11 10 -42 30 -70 46 -53 30 -263 186 -355 263 -81 68 -297 287
-360 366 -30 38 -63 76 -72 84 -21 20 -61 76 -84 116 -9 17 -30 46 -45 65 -33
42 -145 252 -189 355 -12 28 -25 57 -30 66 -11 21 -33 98 -36 126 -2 12 -9 37
-18 55 -29 64 -66 223 -66 283 0 19 -4 45 -10 59 -5 14 -15 105 -21 202 -15
216 3 549 41 759 5 28 14 84 21 125 6 41 15 80 20 86 4 5 15 37 24 70 33 129
101 305 166 431 64 124 128 231 157 261 6 7 12 18 12 24 0 28 231 266 382 392
41 35 205 149 228 160 13 6 47 26 74 44 26 18 60 35 75 38 14 4 36 12 47 20
30 18 200 84 218 84 8 0 17 4 20 9 16 24 309 78 476 87 171 9 160 5 191 65 35
66 99 204 129 279 22 54 114 251 131 280 39 68 94 150 153 229 39 51 79 105
88 120 33 50 224 235 343 331 297 239 522 359 955 507 49 16 196 49 330 73 92
17 584 25 695 11 239 -29 463 -64 610 -96 39 -8 117 -24 175 -35 58 -11 150
-31 205 -44 55 -14 127 -31 160 -39 218 -53 576 -163 845 -260 47 -16 126 -45
175 -62 50 -18 148 -56 220 -84 71 -28 133 -51 137 -51 4 0 38 -14 75 -31 37
-17 93 -43 123 -56 30 -14 82 -39 115 -56 99 -51 207 -103 255 -122 25 -11 56
-27 70 -36 14 -9 66 -37 115 -61 50 -25 152 -79 227 -121 75 -42 140 -77 143
-77 4 0 19 -8 33 -19 15 -10 50 -31 77 -46 28 -15 66 -37 85 -49 46 -30 73
-48 345 -230 66 -44 145 -100 175 -124 30 -23 79 -62 109 -85 167 -130 465
-419 597 -579 42 -51 92 -112 112 -136 20 -24 44 -56 53 -72 18 -29 29 -43 92
-117 20 -24 37 -48 37 -53 0 -5 27 -49 59 -97 83 -123 128 -206 221 -408 38
-84 99 -269 120 -365 6 -30 16 -71 20 -90 35 -139 44 -252 45 -530 0 -177 -5
-312 -12 -355 -20 -119 -34 -198 -43 -240 -4 -22 -13 -65 -18 -95 -6 -30 -20
-85 -33 -123 -27 -81 -32 -84 -163 -68 -203 24 -255 11 -256 -65 0 -21 6 -34
18 -39 22 -9 127 -22 272 -35 104 -8 170 -17 370 -50 112 -19 261 -51 289 -62
14 -6 37 -13 51 -15 23 -3 57 -14 105 -33 56 -22 112 -40 125 -40 8 1 -10 10
-40 20 -30 11 -64 24 -75 29 -91 39 -330 93 -560 127 -55 8 -107 16 -115 19
-8 2 -71 9 -140 15 -269 22 -290 27 -290 66 0 13 10 34 21 45 21 21 27 22 138
14 64 -5 143 -9 175 -9 l59 -1 23 70 c13 39 29 97 35 130 6 33 14 78 19 100 8
42 23 121 43 240 7 43 12 178 12 355 -1 278 -10 391 -45 530 -4 19 -14 60 -20
90 -17 76 -81 283 -91 295 -5 5 -9 16 -9 24 0 9 -11 38 -25 66 -13 27 -36 75
-49 105 -40 88 -103 198 -167 292 -32 48 -59 91 -59 97 0 5 -21 33 -46 63 -26
29 -59 72 -74 96 -16 24 -44 62 -63 85 -19 23 -70 84 -112 135 -130 159 -431
450 -596 579 -30 23 -79 62 -110 86 -30 25 -114 83 -185 131 -71 47 -142 95
-159 106 -72 50 -218 142 -257 162 -24 12 -57 32 -74 45 -17 13 -34 23 -38 23
-4 0 -74 37 -154 82 -81 45 -183 99 -227 121 -44 21 -91 47 -105 57 -14 10
-50 26 -80 36 -30 11 -57 22 -60 25 -5 6 -260 131 -372 183 -70 32 -310 126
-322 126 -5 0 -32 11 -60 23 -28 13 -69 29 -91 36 -22 7 -80 28 -130 46 -293
107 -669 224 -910 282 -33 8 -105 25 -160 39 -55 13 -147 33 -205 44 -58 11
-136 27 -175 35 -38 9 -97 20 -130 26 -33 5 -85 14 -115 19 -60 10 -244 36
-355 50 -66 9 -531 11 -585 4z"/>
<path d="M6845 8444 c28 -9 79 -25 115 -36 36 -11 74 -24 85 -28 11 -5 38 -12
60 -15 21 -4 51 -13 66 -20 14 -8 48 -19 75 -26 48 -11 189 -63 269 -99 22
-10 56 -21 75 -25 19 -4 46 -16 59 -26 13 -10 27 -17 31 -14 8 5 114 -32 185
-64 22 -10 65 -28 95 -41 30 -12 78 -32 106 -46 28 -13 56 -24 62 -24 6 0 23
-6 39 -14 147 -75 400 -196 408 -196 6 0 28 -10 50 -21 91 -50 150 -79 157
-79 4 0 46 -22 94 -50 48 -27 91 -50 96 -50 4 0 27 -12 51 -27 23 -15 80 -47
125 -70 46 -24 114 -63 150 -87 37 -24 78 -49 92 -56 14 -7 50 -30 80 -52 81
-57 159 -108 165 -108 5 0 156 -103 179 -121 6 -5 47 -37 91 -71 44 -34 122
-99 173 -145 51 -46 96 -83 101 -83 4 0 55 -45 112 -100 57 -54 105 -97 108
-94 6 6 -198 204 -211 204 -4 0 -34 24 -66 53 -103 93 -126 112 -207 175 -44
34 -85 66 -91 71 -23 18 -174 121 -179 121 -7 0 -88 54 -166 109 -31 22 -65
44 -75 48 -10 3 -50 28 -89 54 -38 26 -110 68 -160 94 -108 57 -168 89 -342
184 -10 5 -65 32 -123 59 -233 110 -405 195 -410 202 -3 4 -23 13 -45 20 -37
11 -80 29 -160 65 -16 7 -70 30 -120 50 -49 20 -99 40 -110 45 -74 33 -119 50
-131 50 -8 0 -14 5 -14 12 0 9 -3 9 -11 1 -9 -9 -17 -7 -31 7 -11 10 -32 20
-46 23 -47 9 -66 14 -107 32 -22 10 -49 21 -60 25 -11 5 -40 17 -65 28 -25 11
-76 28 -114 37 -37 9 -79 23 -93 30 -15 8 -45 17 -67 20 -23 3 -50 10 -61 15
-39 16 -140 49 -170 54 -16 3 -41 8 -55 11 -14 3 -2 -2 25 -11z"/>
<path d="M5050 8439 c-107 -14 -222 -49 -269 -83 -128 -92 -112 -283 31 -357
48 -25 116 -24 198 2 41 13 105 22 175 26 98 4 121 2 210 -22 54 -15 144 -49
200 -77 92 -46 105 -50 157 -46 47 3 64 10 102 42 75 61 98 129 76 223 -12 46
-21 61 -64 97 -61 51 -138 96 -163 96 -11 0 -23 4 -29 9 -12 11 -119 45 -224
70 -96 23 -297 33 -400 20z m400 -30 c197 -47 315 -98 406 -175 104 -88 98
-213 -16 -303 -46 -36 -58 -41 -104 -41 -37 0 -61 6 -86 23 -57 38 -154 77
-258 103 -84 22 -111 25 -207 21 -71 -4 -133 -13 -175 -26 -89 -28 -151 -27
-198 3 -83 53 -118 119 -106 197 20 120 130 191 342 218 105 13 305 3 402 -20z"/>
<path d="M7490 7950 c-8 -5 -24 -10 -34 -10 -11 0 -36 -17 -57 -38 -80 -83
-81 -225 -1 -301 55 -52 87 -61 214 -61 143 -1 198 -14 327 -81 78 -40 126
-73 189 -132 96 -89 112 -97 185 -97 136 1 221 106 203 251 -7 52 -12 60 -80
131 -40 41 -100 94 -132 116 -98 66 -356 178 -502 218 -61 16 -288 19 -312 4z
m312 -14 c63 -18 164 -55 233 -86 233 -106 285 -139 391 -248 62 -64 74 -83
80 -120 20 -133 -68 -241 -197 -242 -64 0 -73 5 -185 110 -53 50 -98 80 -178
119 -135 67 -192 80 -337 81 -112 0 -117 1 -162 31 -82 54 -114 127 -94 215
13 54 72 123 122 141 45 17 264 16 327 -1z"/>
<path d="M4220 7600 c-24 -24 -25 -39 -6 -85 21 -50 26 -43 8 9 -15 42 -15 46
2 65 10 11 28 22 40 24 21 4 20 4 -1 6 -13 0 -32 -8 -43 -19z"/>
<path d="M4290 7618 c0 -15 84 -118 101 -123 11 -4 72 -1 136 6 137 14 374 6
513 -16 178 -29 491 -139 606 -213 78 -50 115 -81 205 -172 96 -97 109 -115
144 -196 36 -84 39 -95 39 -194 1 -89 -2 -112 -21 -150 -28 -57 -76 -101 -156
-141 -58 -30 -68 -32 -157 -30 -89 1 -153 15 -225 46 -16 7 -48 20 -69 29 -22
9 -76 40 -120 70 -85 56 -153 93 -196 107 -14 4 -48 16 -76 27 -149 56 -236
62 -519 32 -204 -22 -341 -3 -496 68 -76 35 -120 77 -157 147 -22 42 -26 62
-25 130 1 67 6 91 33 150 17 38 37 77 44 85 28 32 25 57 -10 91 -35 34 -41 57
-24 90 18 33 61 24 105 -22 37 -37 43 -40 80 -35 23 3 54 12 70 20 17 9 35 16
42 16 20 0 63 23 63 33 0 6 -5 6 -12 0 -7 -6 -31 -16 -53 -23 -22 -6 -54 -18
-72 -26 -48 -22 -66 -17 -108 26 -32 33 -46 40 -77 40 -27 0 -40 -5 -48 -19
-19 -36 -12 -76 20 -106 33 -31 38 -56 16 -74 -8 -7 -29 -48 -47 -93 -59 -148
-40 -286 55 -379 20 -20 58 -45 84 -54 26 -10 52 -21 57 -25 6 -5 44 -18 85
-30 94 -28 233 -36 375 -20 61 6 160 14 221 17 101 5 120 3 210 -23 147 -41
247 -86 329 -146 27 -21 54 -38 59 -38 5 0 17 -6 25 -13 19 -16 145 -69 216
-91 28 -9 93 -16 145 -18 88 -1 100 1 162 30 88 41 140 92 167 165 38 104 25
232 -38 371 -41 91 -214 265 -335 338 -130 78 -438 184 -616 213 -143 23 -375
30 -520 15 l-125 -13 -25 33 c-40 52 -79 96 -80 88z"/>
<path d="M4420 7375 c-129 -17 -150 -22 -150 -36 0 -8 4 -8 13 -1 21 17 265
42 417 42 146 0 307 -13 390 -31 67 -15 239 -69 285 -90 175 -79 223 -105 282
-152 178 -143 263 -274 263 -407 0 -53 -38 -120 -88 -155 -40 -27 -49 -29
-135 -29 -79 0 -103 5 -170 31 -43 18 -122 58 -175 91 -142 87 -227 127 -343
163 -135 41 -293 49 -486 25 -73 -9 -160 -17 -195 -18 -61 -2 -61 -2 -13 -6
28 -2 118 4 202 14 344 38 521 -2 824 -186 168 -103 307 -143 423 -121 135 25
191 129 152 281 -22 86 -67 157 -146 235 -96 94 -163 143 -248 182 -42 19 -97
44 -122 55 -78 35 -303 100 -380 109 -136 17 -486 19 -600 4z"/>
<path d="M4297 7294 c23 -15 55 -50 73 -80 30 -49 32 -61 32 -134 0 -93 -24
-144 -89 -198 -70 -58 -74 -63 -66 -75 5 -8 9 -7 11 6 2 9 8 14 14 11 7 -4 8
-2 4 4 -4 7 -3 12 3 12 16 0 78 58 101 96 46 74 43 220 -6 298 -27 43 -79 86
-104 86 -8 0 4 -12 27 -26z"/>
<path d="M4 7266 c1 -7 15 -31 31 -52 17 -21 32 -44 35 -50 9 -21 182 -251
260 -346 41 -50 96 -119 122 -154 26 -34 76 -93 110 -130 35 -36 77 -83 93
-102 17 -20 77 -85 135 -146 58 -60 114 -120 126 -132 27 -29 23 -60 -12 -93
-88 -83 -251 -351 -341 -561 -31 -71 -93 -259 -93 -280 0 -9 -4 -20 -8 -26
-12 -14 -34 -85 -29 -91 3 -3 11 15 18 39 7 23 16 47 21 52 4 6 8 17 8 26 0
20 32 119 67 210 81 208 271 530 366 619 16 16 29 40 32 59 3 31 -4 42 -98
138 -56 58 -118 124 -137 146 -19 23 -65 73 -102 112 -36 39 -84 93 -105 120
-21 26 -60 76 -88 109 -85 103 -148 182 -207 264 -31 43 -66 88 -77 99 -11 12
-28 37 -38 55 -10 19 -30 50 -45 70 -16 20 -28 41 -28 47 0 7 -4 12 -9 12 -5
0 -8 -6 -7 -14z"/>
<path d="M6980 6904 c-118 -20 -217 -48 -330 -97 -105 -45 -171 -96 -234 -182
-49 -66 -63 -223 -26 -303 19 -41 124 -162 141 -162 5 0 32 -11 61 -24 75 -33
78 -34 186 -51 69 -12 148 -16 277 -14 259 4 319 -4 445 -58 58 -25 126 -58
153 -74 26 -16 51 -29 56 -29 4 0 27 -13 49 -30 23 -16 45 -30 49 -30 4 0 16
-9 27 -19 30 -28 151 -86 216 -105 90 -25 238 -37 326 -26 170 21 324 143 358
283 7 30 26 34 87 17 51 -14 85 0 94 40 10 47 -13 73 -83 94 -33 10 -66 16
-73 13 -9 -3 -6 -6 7 -6 36 -2 111 -31 129 -51 12 -13 15 -28 11 -44 -10 -40
-36 -48 -106 -32 -68 16 -65 18 -90 -61 -34 -110 -194 -225 -335 -243 -80 -10
-229 0 -310 22 -55 14 -200 86 -221 109 -9 10 -21 19 -26 19 -4 0 -27 14 -50
30 -22 17 -45 30 -50 30 -4 0 -25 11 -46 24 -20 12 -71 38 -112 56 -41 17 -88
39 -105 47 -51 24 -172 35 -380 34 -338 -3 -492 36 -602 152 -80 84 -96 123
-91 226 4 106 18 136 103 224 62 63 79 74 215 133 78 35 201 68 310 83 66 9
335 7 425 -3 190 -22 538 -114 680 -180 117 -55 142 -68 180 -97 22 -16 56
-41 76 -54 20 -13 78 -63 129 -111 59 -57 99 -88 113 -87 12 0 47 12 77 26 85
41 120 33 120 -28 0 -23 -6 -34 -22 -42 -100 -46 -103 -48 -102 -81 2 -29 41
-108 50 -99 2 2 -7 24 -21 49 -14 25 -23 53 -19 62 6 16 57 46 79 46 22 0 45
36 45 71 0 65 -37 74 -135 34 -33 -14 -66 -25 -74 -25 -7 0 -54 38 -103 86
-50 47 -105 95 -123 107 -142 96 -175 117 -181 117 -3 0 -34 13 -68 29 -152
71 -505 165 -701 186 -104 12 -381 11 -455 -1z"/>
<path d="M6945 6773 c-38 -7 -83 -17 -99 -20 -28 -6 -66 -31 -66 -44 0 -4 12
-10 26 -13 37 -10 122 -93 145 -142 13 -29 19 -65 19 -111 0 -57 -5 -76 -30
-121 -17 -28 -46 -62 -65 -75 -19 -12 -35 -28 -35 -34 0 -30 91 63 119 120 26
54 28 158 5 219 -19 48 -84 122 -127 144 -49 26 -6 49 137 74 83 14 391 12
506 -4 212 -29 477 -108 645 -193 160 -81 331 -231 425 -373 46 -70 50 -79 50
-137 0 -56 -3 -65 -40 -112 -78 -99 -189 -134 -357 -113 -144 17 -201 41 -353
143 -101 68 -165 101 -318 163 -135 55 -169 60 -429 61 -132 0 -239 -4 -236
-8 3 -5 109 -7 237 -5 255 3 279 0 425 -59 125 -50 216 -98 312 -163 110 -75
151 -95 239 -119 152 -42 319 -36 407 15 23 13 59 45 80 71 37 45 38 48 38
127 l0 81 -51 75 c-103 150 -279 297 -452 377 -170 78 -426 152 -622 179 -128
17 -444 16 -535 -3z"/>
<path d="M3513 6448 c-19 -9 -23 -19 -23 -53 0 -41 4 -46 73 -106 164 -144
246 -329 246 -559 1 -112 -19 -196 -72 -320 -18 -40 -76 -121 -126 -174 -89
-93 -186 -155 -320 -203 -71 -25 -86 -27 -226 -26 -140 1 -156 3 -237 32 -109
38 -145 40 -154 7 -3 -13 -4 -38 -2 -57 3 -32 7 -35 78 -61 117 -43 199 -58
319 -58 153 0 308 37 437 106 l61 32 45 -46 c46 -49 94 -116 120 -167 8 -16
22 -43 31 -60 8 -16 30 -81 48 -143 l32 -112 -6 -233 c-4 -127 -11 -270 -17
-317 -31 -267 -50 -789 -40 -1100 8 -250 11 -273 56 -460 34 -137 126 -334
196 -416 23 -28 56 -69 72 -90 34 -47 158 -150 216 -181 23 -12 63 -34 88 -48
26 -15 65 -33 87 -41 22 -8 65 -24 95 -35 30 -12 82 -25 115 -30 33 -5 101
-15 150 -23 167 -28 388 -12 585 42 64 18 210 80 260 112 8 5 39 23 69 41 55
31 95 65 177 150 49 51 134 157 134 169 0 4 13 24 29 44 39 49 113 201 146
301 15 44 30 85 34 90 4 6 15 37 25 70 10 33 29 92 42 130 13 39 30 97 39 130
9 33 25 92 36 130 10 39 31 113 45 165 14 52 30 110 35 128 5 17 13 47 18 65
5 17 14 46 19 62 10 29 27 87 56 192 29 105 123 277 206 375 70 84 137 148
155 148 4 0 30 16 59 35 29 19 58 35 63 35 6 0 26 -19 46 -42 111 -135 195
-202 343 -276 128 -64 222 -84 414 -89 194 -4 213 1 218 60 5 64 -2 67 -172
67 -122 0 -168 4 -232 21 -43 11 -83 24 -89 28 -5 5 -22 11 -36 15 -51 12
-214 129 -292 209 -59 62 -87 101 -122 171 -24 50 -46 102 -49 116 -2 14 -10
47 -17 74 -8 33 -10 90 -6 181 l6 134 50 103 c76 159 226 313 359 370 26 10
65 28 87 38 22 10 75 26 118 35 42 10 80 22 84 29 5 6 8 26 9 44 3 76 -104 82
-275 15 -53 -21 -98 -40 -101 -43 -3 -3 -25 -16 -50 -29 -46 -25 -186 -143
-225 -190 -40 -47 -112 -166 -126 -206 -7 -22 -16 -44 -20 -50 -4 -5 -16 -46
-28 -90 -35 -130 -33 -129 -115 -122 -38 3 -72 10 -75 15 -3 5 -17 12 -31 16
-122 35 -268 125 -351 217 -30 33 -77 99 -106 147 -28 48 -62 100 -74 116 -27
34 -99 145 -99 151 0 3 -6 13 -14 22 -8 10 -41 54 -74 98 -84 114 -186 213
-289 283 -86 57 -216 122 -246 122 -7 0 -17 3 -21 7 -3 4 -14 8 -22 9 -9 2
-39 9 -68 16 -33 8 -114 13 -231 13 -183 0 -253 -10 -340 -51 -16 -7 -52 -19
-80 -25 -27 -7 -52 -15 -55 -19 -5 -6 -84 -51 -200 -113 -30 -16 -70 -40 -89
-55 -108 -81 -260 -167 -337 -190 -61 -18 -143 -16 -151 4 -3 8 3 45 13 82 13
48 18 100 18 182 -1 249 -71 420 -250 609 -107 112 -129 124 -181 99z m162
-100 c135 -138 218 -281 236 -403 5 -37 14 -76 20 -88 16 -29 5 -226 -17 -308
-24 -89 -19 -99 54 -99 116 0 252 63 452 208 24 18 63 42 85 52 22 11 63 33
90 50 28 17 62 35 78 41 15 6 27 15 27 19 0 4 24 14 53 20 28 7 63 18 77 25
14 7 54 21 90 32 92 26 406 26 495 -1 33 -9 74 -21 90 -25 167 -45 415 -240
547 -431 29 -41 56 -76 60 -78 4 -2 8 -8 8 -12 0 -10 65 -113 99 -156 12 -16
46 -68 74 -116 70 -117 144 -197 241 -261 80 -52 108 -65 195 -93 24 -8 50
-19 57 -24 7 -6 43 -14 81 -17 83 -7 91 1 117 102 32 132 100 269 181 366 38
47 178 165 225 190 25 13 47 27 50 30 14 19 196 80 253 86 57 5 67 3 86 -16
46 -46 19 -77 -86 -100 -44 -10 -96 -26 -114 -35 -19 -10 -55 -25 -80 -35
-104 -40 -279 -206 -333 -314 -72 -147 -77 -165 -83 -307 -5 -116 -2 -147 16
-218 34 -136 88 -236 178 -328 95 -98 255 -209 315 -218 7 -1 18 -5 23 -8 6
-4 46 -16 90 -27 62 -17 109 -21 225 -21 100 0 150 -4 158 -12 21 -21 14 -66
-13 -84 -37 -24 -320 -15 -426 14 -200 54 -379 177 -520 356 -27 35 -54 33
-113 -9 -27 -19 -55 -35 -62 -35 -25 0 -173 -159 -228 -245 -52 -81 -109 -206
-131 -286 -31 -110 -47 -165 -57 -194 -5 -16 -14 -45 -19 -62 -5 -18 -13 -48
-18 -65 -5 -18 -21 -76 -35 -128 -80 -297 -137 -485 -187 -617 -21 -56 -39
-106 -39 -112 0 -6 -4 -19 -9 -29 -5 -9 -25 -52 -44 -94 -85 -185 -263 -408
-397 -497 -88 -58 -93 -60 -140 -82 -25 -11 -72 -33 -105 -49 -168 -82 -476
-120 -690 -84 -49 8 -117 18 -150 23 -75 11 -168 44 -250 87 -16 9 -55 29 -85
45 -104 53 -203 134 -266 216 -20 26 -55 70 -79 98 -50 58 -156 287 -179 385
-8 36 -23 97 -32 135 -42 182 -32 1015 16 1425 6 47 13 191 17 321 l6 235 -30
100 c-17 54 -34 112 -38 128 -3 17 -15 42 -26 57 -10 15 -19 31 -19 36 0 15
-79 124 -123 170 -40 42 -57 47 -87 28 -123 -79 -294 -125 -461 -125 -122 0
-215 17 -317 59 -70 29 -81 44 -68 97 8 32 32 31 139 -6 150 -52 387 -49 515
7 124 54 207 110 283 189 57 61 119 147 119 166 0 8 4 18 9 23 30 34 71 210
71 311 0 237 -83 429 -247 573 -61 52 -73 68 -73 94 0 32 23 56 55 57 12 0 58
-39 120 -102z"/>
<path d="M5008 5795 c-138 -23 -348 -105 -362 -140 -15 -39 5 -191 38 -290 21
-62 76 -139 119 -166 98 -60 260 -76 377 -36 l65 22 -4 98 c-4 105 4 127 44
127 33 0 51 -28 64 -100 25 -139 70 -228 157 -312 58 -56 116 -82 221 -101
143 -26 320 5 423 73 25 16 39 30 32 30 -7 0 -30 -11 -51 -25 -63 -42 -139
-66 -239 -74 -97 -8 -146 -3 -247 26 -52 15 -70 27 -135 92 -90 90 -125 157
-148 281 -20 101 -32 120 -77 120 -51 0 -58 -17 -53 -126 l5 -96 -46 -21 c-38
-18 -65 -21 -156 -22 -101 0 -115 2 -173 29 -72 33 -120 83 -158 163 -27 59
-57 211 -52 270 3 36 6 40 73 74 39 19 80 39 90 42 11 4 40 14 65 22 66 22
215 45 295 45 127 0 296 -40 410 -97 116 -58 312 -236 379 -345 15 -23 53 -83
83 -133 31 -49 63 -99 73 -110 9 -11 28 -39 41 -63 13 -24 25 -39 27 -33 2 6
-5 23 -15 38 -10 16 -22 35 -28 44 -5 9 -35 54 -65 100 -31 46 -71 110 -90
143 -45 75 -191 230 -278 294 -86 63 -146 93 -252 125 -164 49 -297 58 -452
32z"/>
<path d="M4481 5562 c-21 -2 -41 -13 -53 -27 -18 -23 -31 -32 -98 -67 -13 -7
-34 -23 -46 -35 -12 -12 -41 -27 -65 -33 -24 -7 -46 -15 -49 -19 -12 -18 -140
-43 -231 -45 l-100 -3 -36 -52 c-20 -29 -60 -77 -89 -107 -29 -30 -53 -56 -53
-57 0 -1 -3 -10 -7 -20 -3 -10 -4 -21 0 -24 3 -4 6 0 6 8 0 8 29 45 65 84 36
38 65 73 65 77 0 5 8 16 19 27 10 10 23 26 28 36 8 13 29 17 105 20 52 2 115
9 139 15 24 7 56 14 72 17 15 3 27 9 27 13 0 5 25 16 55 24 30 9 60 24 67 34
7 9 24 23 38 30 63 33 80 44 98 67 13 17 30 25 50 25 33 0 34 -2 47 -102 3
-26 10 -50 16 -53 5 -4 9 -23 9 -43 0 -21 6 -46 14 -57 7 -11 17 -31 21 -45 4
-14 29 -50 55 -80 64 -73 164 -127 268 -144 116 -20 279 -9 303 20 6 8 27 14
45 14 26 0 36 -6 48 -28 8 -15 23 -36 35 -46 12 -11 21 -23 21 -27 0 -14 91
-96 123 -112 157 -75 190 -82 350 -80 148 2 194 13 345 84 34 16 68 29 75 29
6 0 32 -22 57 -48 25 -27 63 -62 85 -78 22 -16 61 -46 86 -66 25 -21 51 -38
58 -38 6 0 31 -10 54 -22 23 -11 51 -22 62 -23 44 -3 106 -18 111 -26 3 -5 18
-9 33 -9 16 0 47 -6 69 -14 22 -8 43 -12 46 -9 12 12 36 -21 36 -51 1 -39 22
-131 46 -191 15 -40 15 -48 3 -60 -28 -27 -85 -65 -134 -88 -28 -13 -63 -39
-77 -58 -36 -45 -86 -104 -120 -141 -16 -16 -28 -33 -28 -38 0 -5 -8 -15 -19
-22 -26 -18 -89 -141 -106 -206 -8 -30 -19 -59 -24 -66 -13 -16 -51 -118 -50
-136 0 -8 10 12 23 45 13 33 30 74 39 90 9 17 17 38 17 48 0 29 79 186 105
209 14 12 25 26 25 31 0 5 10 20 23 32 26 26 87 96 124 144 15 19 50 45 78 58
57 27 114 66 133 91 13 17 8 67 -8 87 -12 15 -40 141 -40 179 0 35 -19 59 -42
54 -12 -2 -67 10 -143 32 -16 4 -55 14 -85 20 -30 7 -71 21 -91 31 -20 11 -43
19 -50 19 -7 0 -33 17 -58 38 -25 21 -62 49 -81 62 -19 12 -58 48 -85 77 -59
63 -75 65 -160 21 -27 -14 -83 -37 -123 -53 -66 -25 -86 -27 -215 -28 -152 -1
-166 1 -298 61 -58 26 -159 110 -159 132 0 4 -9 15 -21 26 -12 10 -27 31 -35
46 -13 24 -21 28 -59 28 -26 0 -47 -5 -52 -14 -17 -28 -177 -40 -293 -21 -168
28 -330 175 -347 315 -3 19 -9 40 -14 46 -5 6 -13 44 -19 85 -6 40 -14 76 -18
79 -4 3 -22 4 -41 2z"/>
<path d="M3675 5091 c-3 -6 -2 -11 4 -11 6 0 27 -25 48 -55 42 -61 64 -74 32
-20 -12 19 -25 35 -30 35 -5 0 -9 6 -9 13 0 20 -37 51 -45 38z"/>
<path d="M3776 4941 c12 -9 36 -44 53 -76 17 -32 36 -64 42 -72 6 -7 8 -13 4
-13 -5 0 -1 -8 8 -18 9 -10 21 -47 26 -82 l10 -65 -4 62 c-3 35 -10 73 -16 85
-7 13 -16 30 -20 38 -63 125 -88 159 -114 159 -5 0 0 -8 11 -18z"/>
<path d="M3935 4605 c4 -11 14 -60 22 -110 11 -75 12 -128 2 -314 -6 -123 -15
-235 -20 -248 -5 -14 -9 -46 -9 -73 0 -27 -4 -82 -9 -122 -30 -232 -26 -1170
5 -1243 8 -19 17 -35 19 -35 3 0 -1 16 -9 35 -31 73 -35 1011 -5 1243 5 40 9
95 9 122 0 27 4 59 9 73 5 13 14 125 20 248 10 183 9 240 -2 314 -8 50 -19
100 -26 110 -12 20 -12 20 -6 0z"/>
<path d="M5580 3649 c-87 -6 -137 -15 -165 -28 -22 -11 -53 -23 -70 -27 -16
-4 -34 -10 -40 -14 -5 -4 -26 -13 -46 -19 -20 -6 -45 -21 -54 -31 -10 -11 -25
-20 -32 -20 -8 0 -26 -9 -40 -20 -29 -23 -17 -28 13 -5 10 8 26 15 35 15 8 0
26 11 39 25 13 14 31 25 39 25 9 0 28 6 43 14 14 8 43 19 65 26 21 7 47 19 58
26 33 21 406 40 502 26 43 -7 96 -12 118 -12 22 0 51 -8 65 -17 13 -9 37 -18
52 -20 16 -2 72 -24 124 -49 63 -30 103 -44 122 -41 25 4 25 4 -5 6 -17 0 -34
5 -38 10 -3 5 -22 15 -43 22 -20 6 -43 16 -51 22 -26 22 -177 69 -246 78 -115
14 -312 18 -445 8z"/>
<path d="M5581 3525 c-18 -8 -47 -15 -64 -15 -45 0 -203 -58 -264 -96 -28 -19
-57 -34 -63 -34 -27 0 -202 -155 -290 -257 -60 -69 -197 -355 -211 -443 -4
-25 -17 -71 -28 -104 -11 -32 -18 -68 -15 -81 6 -23 114 -137 114 -120 0 6
-22 31 -49 58 -28 26 -52 55 -55 65 -4 10 3 45 15 78 11 32 24 79 28 104 4 25
16 65 28 90 82 180 148 303 183 343 88 102 263 257 290 257 6 0 37 16 68 37
65 42 202 93 248 93 17 0 48 7 67 15 27 11 76 15 185 15 107 0 161 -4 192 -15
23 -8 55 -15 70 -15 38 0 161 -43 255 -90 45 -22 86 -40 93 -40 34 0 34 -64 0
-165 -5 -16 -18 -57 -28 -90 -54 -179 -74 -248 -91 -320 -10 -44 -39 -134 -65
-200 -25 -66 -48 -131 -51 -145 -7 -33 -76 -185 -111 -245 -53 -89 -55 -90
-109 -42 -47 41 -154 93 -224 108 -55 12 -208 7 -294 -10 -49 -10 -49 -10 10
-3 33 3 114 6 180 7 120 0 120 0 200 -39 44 -22 97 -55 118 -73 41 -37 73 -42
94 -15 13 16 101 193 128 257 7 17 25 68 40 115 16 47 38 108 51 137 12 28 30
87 39 130 9 43 25 105 35 138 10 33 30 101 45 150 15 50 33 104 41 122 8 17
14 42 14 56 0 14 5 38 10 52 18 48 4 67 -78 106 -162 75 -254 109 -303 109
-15 0 -46 7 -69 15 -59 21 -331 21 -379 0z"/>
<path d="M5025 3422 c-52 -40 -93 -81 -190 -187 -48 -52 -162 -235 -147 -235
5 0 21 21 36 48 44 78 113 171 171 231 30 31 60 64 67 72 7 9 41 37 76 64 34
26 62 50 62 51 0 11 -21 -1 -75 -44z"/>
<path d="M4645 2918 c-10 -24 -24 -50 -30 -58 -7 -8 -18 -37 -25 -65 -7 -27
-17 -54 -21 -60 -5 -5 -9 -26 -9 -46 0 -20 -6 -42 -14 -48 -8 -6 -16 -24 -18
-39 -3 -15 -8 -36 -12 -47 -8 -20 -7 -20 8 -1 9 11 16 32 16 47 0 14 7 32 15
39 9 7 15 29 15 51 0 21 4 40 9 43 5 3 11 20 15 38 3 18 24 68 46 111 22 42
36 77 31 77 -4 0 -16 -19 -26 -42z"/>
<path d="M4387 2564 c-4 -4 -33 -9 -64 -11 -32 -2 -75 -10 -95 -18 -21 -8 -38
-11 -38 -7 0 4 -6 0 -13 -9 -16 -21 -104 -89 -115 -89 -5 0 -18 -13 -30 -30
-28 -37 -45 -38 -67 -2 -10 15 -24 31 -32 35 -7 4 -13 14 -13 22 0 8 -4 17
-10 20 -14 9 0 -26 20 -50 10 -11 23 -30 29 -42 16 -32 54 -29 83 5 13 15 49
45 81 67 31 21 57 41 57 45 0 13 84 39 145 45 78 9 113 9 150 1 21 -5 18 -2
-10 8 -43 17 -68 20 -78 10z"/>
<path d="M4333 2440 c-79 -16 -147 -57 -221 -134 -81 -84 -84 -94 -47 -175 50
-107 184 -255 298 -329 260 -167 690 -230 997 -145 98 27 185 60 256 98 87 47
123 73 207 154 82 79 86 101 27 155 -104 93 -265 120 -413 67 -79 -27 -128
-69 -173 -148 -33 -57 -44 -69 -69 -71 -34 -4 -55 18 -55 57 0 30 46 113 85
154 15 16 25 36 23 49 -4 26 -103 82 -184 103 -117 30 -199 15 -296 -55 -62
-46 -192 -180 -183 -189 3 -3 35 28 71 67 74 81 169 153 228 172 70 22 168 7
264 -41 46 -23 86 -48 89 -55 3 -7 -9 -28 -26 -46 -65 -69 -99 -171 -68 -210
13 -18 65 -27 84 -15 7 4 29 37 48 72 65 115 173 174 321 175 54 0 91 -9 162
-41 52 -24 122 -85 122 -109 0 -17 -106 -124 -170 -172 -49 -36 -156 -92 -231
-122 -142 -54 -259 -76 -416 -76 -407 0 -728 141 -923 406 -50 67 -90 143 -90
171 0 8 33 49 72 90 84 86 161 128 254 138 53 6 67 4 115 -19 72 -35 149 -92
149 -112 0 -9 -31 -50 -70 -92 -85 -93 -95 -118 -69 -161 14 -24 25 -31 46
-30 24 2 24 2 6 6 -13 2 -31 17 -42 32 -19 27 -19 28 -2 57 10 16 45 58 78 94
90 98 89 106 -18 178 -84 57 -144 70 -236 52z"/>
<path d="M4835 2395 c-27 -8 -54 -14 -59 -15 -5 0 -7 -2 -4 -5 3 -3 34 2 69
11 46 12 89 15 152 11 74 -4 98 -10 161 -41 41 -20 80 -36 87 -36 7 0 27 -11
45 -25 18 -14 37 -25 42 -25 6 0 13 -6 15 -12 3 -8 6 -6 6 5 1 9 -4 17 -10 17
-6 0 -25 11 -43 25 -18 14 -40 25 -49 25 -9 0 -19 5 -22 10 -4 6 -12 9 -18 8
-7 -1 -23 5 -37 14 -66 44 -235 61 -335 33z"/>
<path d="M51 5418 c64 -60 116 -107 244 -221 50 -44 92 -83 95 -86 3 -3 12 -7
20 -9 19 -4 18 -4 -105 104 -88 77 -135 120 -238 217 -28 26 -55 47 -61 47 -6
0 15 -24 45 -52z"/>
<path d="M7 5294 c-3 -3 11 -20 31 -37 20 -18 109 -98 198 -179 l161 -147 -13
-83 c-32 -200 -39 -304 -39 -568 0 -272 6 -353 41 -515 28 -131 62 -260 84
-315 12 -30 30 -82 40 -115 18 -55 71 -173 107 -235 7 -14 23 -43 33 -65 11
-22 25 -49 32 -60 49 -77 140 -210 180 -264 26 -35 48 -67 48 -72 0 -4 28 -36
63 -71 34 -35 85 -88 114 -118 28 -30 86 -86 128 -125 42 -38 93 -86 113 -105
21 -20 58 -51 85 -69 50 -36 55 -51 32 -91 -8 -14 -14 -34 -14 -45 -1 -22 41
59 44 88 1 10 -19 33 -54 59 -31 23 -70 55 -87 72 -16 17 -46 43 -65 58 -18
15 -77 71 -129 125 -52 53 -123 125 -156 160 -34 34 -74 82 -88 105 -15 24
-60 90 -101 148 -42 58 -81 116 -88 130 -6 14 -15 27 -18 30 -6 4 -66 122
-142 279 -15 30 -27 63 -27 73 0 11 -7 33 -16 50 -26 51 -84 239 -93 305 -5
34 -12 66 -15 71 -3 5 -13 58 -23 118 -13 84 -17 173 -18 389 0 269 7 370 39
570 7 45 11 86 8 93 -2 6 -72 74 -155 150 -229 208 -234 212 -240 206z"/>
<path d="M10905 2673 c-284 -19 -562 -109 -730 -236 -130 -98 -230 -228 -269
-349 -67 -209 -81 -390 -45 -557 13 -64 49 -180 66 -216 59 -124 159 -241 266
-313 114 -77 127 -84 127 -75 0 4 -11 15 -24 23 -169 108 -233 169 -320 304
-50 79 -59 100 -96 246 -49 188 -32 413 45 603 86 209 293 388 552 476 205 69
298 81 670 88 l311 6 26 -26 c31 -31 33 -48 6 -72 -18 -16 -46 -18 -312 -20
-339 -3 -449 -15 -627 -71 -142 -45 -211 -79 -303 -149 -75 -58 -208 -220
-208 -254 0 -10 -12 -44 -26 -75 -31 -68 -49 -219 -41 -351 5 -91 49 -249 94
-336 24 -47 111 -152 143 -172 14 -8 58 -38 98 -67 60 -42 98 -59 210 -94 156
-50 260 -66 420 -66 111 0 258 16 277 30 6 4 26 11 45 14 19 4 55 15 80 26 25
10 60 24 79 31 41 15 163 110 209 163 60 68 115 218 110 300 l-3 51 -230 6
c-223 7 -382 20 -475 39 -44 9 -116 22 -230 40 -109 17 -147 48 -115 96 19 29
66 32 177 10 135 -27 340 -54 468 -61 47 -2 138 -7 202 -11 74 -4 158 -2 225
5 111 13 248 40 240 47 -2 2 -33 -2 -68 -10 -118 -27 -274 -39 -397 -32 -64 4
-155 9 -202 11 -128 7 -333 34 -468 61 -97 19 -166 18 -182 -2 -30 -35 -7
-104 37 -110 10 -1 45 -7 78 -13 33 -5 89 -15 125 -21 36 -6 85 -15 110 -20
92 -19 251 -32 470 -39 l225 -6 3 -39 c6 -76 -48 -222 -110 -292 -52 -60 -172
-150 -225 -170 -26 -10 -57 -23 -68 -30 -11 -7 -41 -16 -67 -19 -27 -4 -48
-11 -48 -15 0 -12 -160 -30 -274 -30 -185 0 -311 24 -498 93 -37 14 -80 35
-95 47 -36 28 -134 98 -142 102 -3 2 -29 30 -57 63 -89 104 -152 268 -161 420
-8 131 9 277 41 349 14 32 26 65 26 72 0 8 31 55 68 104 113 148 244 236 449
299 163 51 280 63 616 66 260 2 301 4 315 18 24 24 24 72 0 94 -18 16 -44 18
-282 19 -143 0 -283 -1 -311 -3z"/>
<path d="M3462 1657 c-12 -13 -21 -34 -21 -48 1 -20 2 -21 6 -4 7 26 44 66 59
63 6 -2 76 -65 155 -140 79 -75 167 -154 194 -174 28 -21 51 -41 53 -45 2 -4
35 -27 74 -50 38 -24 92 -59 119 -76 27 -18 53 -33 59 -33 5 0 10 -4 10 -9 0
-5 10 -13 23 -17 12 -4 44 -17 71 -30 28 -13 55 -24 60 -24 6 0 34 -11 61 -25
28 -13 59 -25 69 -25 11 0 45 -9 75 -19 183 -65 528 -83 766 -40 66 11 134 23
150 26 17 3 35 9 41 14 6 5 33 12 60 16 26 3 71 15 99 25 27 11 82 30 120 43
39 13 100 37 137 54 37 17 72 31 77 31 6 0 27 11 47 25 44 30 85 32 109 5 28
-31 12 -61 -56 -103 -34 -21 -59 -40 -57 -43 3 -2 33 12 67 33 49 31 62 44 67
71 14 75 -79 97 -156 36 -8 -6 -33 -17 -55 -24 -22 -7 -58 -22 -80 -33 -39
-19 -179 -73 -220 -83 -11 -3 -29 -9 -40 -14 -11 -4 -42 -12 -70 -18 -27 -5
-75 -16 -105 -25 -197 -54 -497 -66 -715 -28 -71 12 -155 30 -185 41 -30 10
-68 21 -85 24 -16 4 -48 15 -70 26 -22 10 -71 31 -108 46 -38 15 -75 33 -82
40 -7 8 -16 14 -20 14 -3 0 -27 15 -54 33 -27 17 -81 52 -119 76 -39 23 -72
46 -74 50 -2 4 -30 28 -63 53 -57 44 -118 100 -269 246 -35 34 -73 62 -83 62
-11 0 -29 -10 -41 -23z"/>
<path d="M3450 1577 c0 -5 31 -43 70 -86 68 -74 130 -123 130 -102 0 6 -5 11
-12 11 -7 0 -52 42 -100 93 -48 50 -88 88 -88 84z"/>
<path d="M1410 1353 c-36 -13 -121 -46 -190 -73 -69 -27 -137 -52 -153 -55
-15 -4 -30 -11 -33 -16 -3 -5 -12 -9 -19 -9 -8 0 -38 -11 -67 -24 -29 -13 -96
-39 -148 -59 -52 -19 -117 -45 -145 -57 -27 -12 -97 -38 -155 -57 -58 -20
-109 -39 -115 -44 -5 -4 -45 -21 -88 -38 -134 -53 -305 -146 -293 -159 3 -2
27 9 53 26 51 32 219 116 256 128 12 4 47 18 77 32 30 14 93 38 140 54 47 15
128 46 180 67 128 53 242 98 320 128 36 13 83 31 105 40 22 8 58 21 80 29 22
8 54 21 70 28 17 8 67 26 112 41 46 14 85 31 88 36 8 13 -1 10 -75 -18z"/>
<path d="M1565 1277 c-11 -6 -47 -21 -80 -33 -146 -53 -181 -66 -190 -75 -5
-5 -15 -9 -22 -9 -7 0 -36 -11 -65 -24 -29 -14 -84 -36 -123 -49 -155 -53
-159 -55 -365 -140 -47 -20 -99 -38 -115 -42 -17 -4 -43 -13 -60 -20 -16 -7
-61 -25 -100 -39 -152 -59 -253 -105 -285 -131 -8 -7 -37 -25 -65 -41 -66 -36
-98 -61 -86 -68 5 -3 14 1 21 9 7 8 38 29 69 46 31 18 63 37 71 44 31 25 166
89 275 130 39 14 84 32 100 40 17 7 46 17 65 20 19 4 59 18 88 32 29 14 58 26
65 27 7 1 30 10 52 20 43 19 155 62 270 102 39 14 78 29 87 34 10 6 22 10 27
10 5 0 35 12 67 27 64 29 120 51 229 89 39 14 74 30 80 35 12 12 112 12 120
-1 4 -6 32 -29 63 -52 31 -23 61 -47 65 -55 4 -7 13 -13 20 -13 7 -1 28 -14
47 -30 19 -17 38 -30 43 -30 4 0 29 -16 54 -35 25 -19 51 -35 58 -35 7 0 18
-7 25 -15 7 -8 46 -32 86 -52 41 -20 79 -42 85 -50 6 -7 20 -13 30 -13 10 0
42 -14 71 -31 29 -16 72 -39 95 -50 23 -11 44 -23 47 -27 6 -10 -40 -33 -194
-99 -19 -8 -47 -21 -62 -29 -14 -8 -35 -14 -46 -14 -12 0 -23 -4 -27 -9 -9
-15 40 -3 103 25 53 24 72 32 147 64 117 50 119 63 20 110 -38 19 -72 36 -75
39 -11 13 -51 31 -67 31 -9 0 -24 6 -32 14 -9 7 -48 30 -88 50 -39 21 -77 44
-83 52 -7 8 -18 14 -25 14 -7 0 -33 16 -58 35 -25 19 -50 35 -56 35 -6 0 -26
14 -44 30 -19 17 -39 30 -45 30 -6 0 -15 6 -19 14 -4 7 -28 27 -53 44 -25 17
-54 40 -64 51 -15 17 -31 21 -75 21 -31 0 -65 -6 -76 -13z"/>
<path d="M11793 1247 c-87 -142 -197 -261 -278 -302 -22 -11 -59 -32 -82 -47
-23 -16 -51 -28 -62 -28 -11 0 -29 -14 -42 -32 -12 -18 -32 -44 -44 -58 -12
-14 -27 -40 -33 -58 -10 -29 -9 -34 11 -46 12 -7 60 -35 107 -63 184 -108 315
-254 386 -426 18 -46 38 -108 43 -138 l10 -54 -4 55 c-3 31 -20 95 -39 143
-77 197 -240 361 -474 481 -29 15 -33 21 -27 44 3 15 17 38 29 52 13 14 33 40
45 58 12 17 30 32 39 32 10 0 33 10 52 23 19 13 57 35 85 48 90 44 214 177
291 314 7 12 22 20 37 20 29 -1 27 10 -3 18 -16 4 -26 -4 -47 -36z"/>
<path d="M9450 1150 c-8 -5 -27 -15 -42 -22 -15 -7 -61 -30 -102 -50 -41 -21
-96 -43 -122 -48 -26 -6 -68 -22 -93 -35 -25 -13 -80 -34 -121 -46 -41 -11
-93 -27 -115 -35 -23 -8 -57 -14 -77 -14 -20 0 -48 -4 -63 -10 -46 -17 -220
-50 -326 -60 -57 -6 -147 -16 -199 -22 -130 -16 -685 -16 -832 0 -65 6 -171
16 -235 22 -138 11 -358 36 -458 51 -38 6 -117 15 -175 20 -58 5 -132 13 -165
18 -161 23 -225 32 -281 41 -34 6 -74 10 -90 10 -16 1 -40 7 -54 14 l-25 14
25 10 c14 6 43 16 64 24 22 7 42 20 44 28 4 12 1 12 -14 -2 -10 -9 -32 -19
-49 -23 -55 -12 -84 -27 -79 -40 7 -18 49 -35 86 -35 17 0 58 -4 92 -10 56 -9
120 -18 281 -41 33 -5 107 -13 165 -18 58 -5 137 -14 175 -20 100 -15 320 -40
458 -51 64 -6 170 -16 235 -22 147 -16 702 -16 832 0 52 6 142 16 199 22 106
10 280 43 326 60 15 6 43 10 63 10 20 0 54 6 77 14 22 8 76 24 120 37 44 12
94 30 110 38 17 8 32 15 35 16 3 0 11 4 17 8 7 4 38 15 69 23 31 8 91 32 133
54 42 22 81 40 86 40 4 0 16 7 26 16 17 15 20 14 48 -6 58 -40 37 -77 -72
-129 -45 -21 -92 -42 -104 -45 -31 -10 -46 -32 -39 -58 24 -95 285 -407 416
-497 85 -58 228 -131 257 -131 12 0 24 -4 27 -9 3 -5 38 -16 78 -26 99 -23
357 -13 378 14 3 4 25 13 50 20 74 21 206 82 244 112 14 11 26 27 26 35 0 10
-7 7 -22 -10 -13 -14 -45 -37 -73 -51 -64 -34 -194 -85 -217 -85 -10 0 -18 -4
-18 -9 0 -28 -264 -40 -368 -16 -40 10 -75 21 -78 26 -3 5 -14 9 -24 9 -25 0
-181 82 -255 133 -51 36 -164 148 -239 237 -88 105 -180 246 -172 266 3 8 23
22 43 30 107 43 185 88 194 111 16 42 10 62 -23 83 -37 22 -37 22 -58 10z"/>
<path d="M10308 887 c2 -9 46 -53 96 -96 81 -70 264 -258 318 -326 11 -14 24
-25 30 -25 15 0 -54 78 -189 215 -156 158 -261 254 -255 232z"/>
<path d="M9120 852 c0 -5 -36 -26 -79 -47 -44 -22 -82 -47 -84 -57 -5 -17 1
-21 148 -97 22 -11 66 -32 97 -46 31 -14 60 -30 63 -35 3 -6 13 -10 22 -10 8
0 26 -9 40 -20 14 -11 31 -20 37 -20 9 0 -13 16 -79 57 -21 13 -74 39 -115 55
-29 12 -46 21 -123 65 -33 18 -63 33 -68 33 -5 0 -9 6 -9 13 0 7 32 29 72 48
39 19 77 40 85 47 19 19 39 9 58 -28 47 -90 199 -280 213 -265 3 3 -8 18 -26
33 -31 27 -152 191 -184 251 -12 22 -24 31 -43 31 -14 0 -25 -4 -25 -8z"/>
<path d="M10586 825 c-10 -10 -16 -11 -25 -2 -8 8 -11 8 -11 -1 0 -7 3 -12 8
-12 16 0 144 -135 243 -257 71 -88 57 -95 315 174 28 29 48 56 44 58 -5 3 -44
-34 -87 -82 -103 -116 -184 -193 -204 -193 -8 0 -35 24 -58 53 -61 75 -151
175 -191 213 -48 46 -34 55 65 41 85 -11 490 -18 479 -8 -3 3 -85 4 -182 3
-100 -2 -197 1 -222 7 -80 18 -159 21 -174 6z"/>
<path d="M2635 701 c-3 -5 -18 -12 -35 -16 -16 -3 -39 -14 -52 -24 -13 -10
-35 -21 -50 -25 -15 -3 -67 -24 -115 -47 -135 -62 -150 -69 -158 -69 -4 0 -26
-9 -49 -20 -139 -66 -312 -140 -327 -140 -10 0 -21 -5 -24 -10 -4 -6 -21 -17
-38 -25 l-32 -15 30 6 c17 3 37 11 45 18 8 8 28 16 43 20 16 4 76 29 133 56
57 28 106 50 109 50 3 0 24 9 48 19 23 11 71 32 107 46 36 15 102 44 148 66
45 21 86 39 90 39 5 0 40 16 79 35 39 19 81 35 93 35 26 0 170 -47 187 -62 7
-6 13 -8 13 -4 0 3 24 -3 53 -15 28 -11 81 -29 117 -39 291 -82 514 -141 615
-164 66 -15 136 -31 155 -36 34 -9 58 -13 165 -30 28 -4 88 -15 135 -24 47 -8
119 -20 160 -27 41 -6 98 -15 125 -20 28 -6 84 -12 125 -15 41 -3 88 -10 104
-15 16 -5 56 -8 90 -7 58 2 59 2 11 5 -27 1 -72 7 -100 13 -27 5 -75 12 -105
14 -59 4 -269 36 -410 62 -47 9 -109 20 -137 25 -165 28 -152 25 -363 75 -263
61 -537 141 -785 228 -126 44 -188 56 -200 37z"/>
<path d="M8760 664 c-46 -13 -248 -80 -285 -95 -11 -4 -54 -19 -95 -34 -41
-15 -84 -30 -95 -35 -18 -8 -123 -35 -335 -89 -41 -10 -132 -29 -202 -42 -70
-12 -126 -24 -124 -27 10 -10 358 60 436 88 14 5 39 12 55 14 54 10 169 44
240 71 39 14 79 29 90 31 11 3 29 9 40 14 11 4 58 20 105 35 47 15 105 36 129
47 58 26 98 20 186 -29 93 -52 101 -56 165 -85 30 -14 87 -42 125 -61 358
-184 335 -173 470 -239 135 -65 129 -63 121 -50 -8 14 -231 122 -250 122 -8 0
-18 4 -21 10 -3 5 -56 35 -118 66 -62 31 -117 60 -124 66 -11 8 -102 54 -203
100 -25 12 -56 27 -70 35 -14 7 -63 33 -110 57 -84 43 -86 43 -130 30z"/>
<path d="M2080 595 c-7 -8 -17 -15 -22 -15 -5 0 -42 -16 -82 -35 -40 -19 -76
-35 -79 -35 -4 0 -40 -16 -81 -35 -41 -19 -78 -35 -81 -35 -4 0 -36 -13 -72
-30 -35 -16 -68 -30 -73 -30 -4 0 -21 -7 -36 -15 -37 -19 -68 -19 -130 0 -27
8 -60 15 -72 15 -13 0 -36 6 -50 14 -35 18 -113 36 -155 36 -38 0 -57 -15 -57
-46 0 -35 -11 -54 -30 -54 -10 0 -23 -7 -30 -15 -7 -8 -16 -15 -21 -15 -16 0
-143 -63 -196 -97 -69 -44 -207 -179 -198 -193 5 -8 14 -1 25 17 21 34 132
134 191 172 54 34 231 121 247 121 6 0 14 17 18 38 9 49 20 62 55 62 38 0 118
-19 151 -36 14 -8 34 -14 45 -14 10 0 49 -8 86 -17 l68 -18 72 27 c89 33 196
77 269 112 30 14 58 26 63 26 4 0 51 21 104 47 53 27 107 51 121 54 23 6 23 7
-6 8 -17 0 -37 -6 -44 -14z"/>
<path d="M11070 524 c-78 -80 -242 -218 -284 -239 -17 -9 -38 -20 -46 -25 -8
-5 -60 -31 -116 -57 -62 -30 -99 -53 -97 -60 3 -7 -1 -13 -9 -13 -7 0 10 -12
37 -26 28 -14 78 -44 113 -66 34 -22 65 -38 68 -36 6 6 -123 91 -168 110 -30
14 -34 35 -8 49 8 4 51 24 95 44 44 20 87 41 95 46 8 5 29 15 46 24 42 21 206
159 284 239 35 36 71 66 80 66 9 0 26 -7 39 -17 13 -9 53 -31 88 -50 66 -35
132 -82 185 -131 33 -30 116 -135 136 -169 45 -83 62 -123 63 -152 0 -14 4
-35 9 -46 6 -13 7 -2 3 30 -10 95 -105 259 -201 347 -53 49 -119 96 -185 131
-35 19 -75 41 -88 50 -44 31 -70 22 -139 -49z"/>
<path d="M1751 286 c9 -7 251 -75 359 -100 63 -15 151 -36 195 -48 90 -23 130
-33 195 -47 25 -5 70 -17 100 -25 173 -48 207 -56 239 -55 27 1 20 4 -24 10
-33 5 -87 17 -120 28 -33 10 -109 31 -170 45 -60 15 -132 33 -160 40 -57 16
-95 25 -255 61 -63 15 -165 42 -227 61 -100 31 -144 41 -132 30z"/>
<path d="M1182 224 c-52 -13 -139 -46 -195 -73 -98 -46 -207 -121 -207 -141 0
-6 28 13 63 40 34 28 87 62 117 76 30 14 72 34 93 45 59 30 223 69 288 69 33
0 101 -11 152 -24 319 -85 582 -143 572 -126 -2 4 -29 10 -60 14 -51 6 -286
62 -512 122 -116 30 -192 30 -311 -2z"/>
<path d="M9715 153 c-27 -3 -56 -9 -63 -16 -8 -6 -38 -12 -67 -13 -29 -1 -67
-6 -86 -12 -19 -6 -77 -16 -129 -22 -52 -6 -111 -15 -130 -20 -51 -13 -234
-42 -315 -50 -69 -7 -69 -7 -17 -8 50 -2 110 7 302 43 41 8 116 19 165 25 50
6 105 16 124 22 19 6 58 11 87 12 30 1 59 7 66 14 7 7 36 12 64 12 29 0 56 5
59 10 3 6 3 9 -2 8 -4 -1 -30 -3 -58 -5z"/>
<path d="M10140 89 c-19 -4 -66 -13 -105 -18 -38 -6 -110 -18 -160 -27 -49 -8
-135 -19 -190 -23 l-100 -8 82 -1 c46 -1 102 2 125 8 24 5 84 16 133 24 50 8
136 22 192 32 97 16 105 16 175 -1 40 -9 91 -26 113 -36 44 -19 117 -41 122
-35 5 5 -133 52 -221 77 -74 20 -110 22 -166 8z"/>
<path d="M2005 60 c-186 -37 -225 -46 -225 -51 0 -7 68 4 153 26 32 8 71 15
85 15 15 0 34 5 42 10 13 9 13 10 0 9 -8 -1 -33 -5 -55 -9z"/>
</g>
</svg>
