<?xml version="1.0" standalone="no"?>
<!DOCTYPE svg PUBLIC "-//W3C//DTD SVG 20010904//EN"
 "http://www.w3.org/TR/2001/REC-SVG-20010904/DTD/svg10.dtd">
<svg version="1.0" xmlns="http://www.w3.org/2000/svg"
 width="1200.000000pt" height="1200.000000pt" viewBox="0 0 1200.000000 1200.000000"
 preserveAspectRatio="xMidYMid meet">
<metadata>
Created by potrace 1.16, written by Peter Selinger 2001-2019
</metadata>
<g transform="translate(0.000000,1200.000000) scale(0.100000,-0.100000)"
fill="#000000" stroke="none">
<path d="M638 9235 l-3 -324 -309 319 c-171 176 -313 320 -318 320 -4 0 -8
-155 -8 -345 0 -299 2 -345 15 -345 13 0 15 45 17 325 l3 324 309 -319 c171
-176 313 -320 318 -320 4 0 8 155 8 345 0 299 -2 345 -15 345 -13 0 -15 -45
-17 -325z"/>
<path d="M1002 9402 c-29 -11 -70 -33 -90 -49 -20 -17 -50 -52 -67 -78 -24
-39 -30 -61 -33 -120 -3 -56 0 -83 16 -117 10 -24 34 -60 51 -81 18 -20 58
-49 89 -64 48 -24 70 -28 137 -28 60 0 92 6 126 21 25 12 61 35 81 53 20 18
48 55 62 83 20 40 26 67 26 118 0 51 -6 78 -26 118 -14 28 -42 65 -62 83 -20
18 -56 41 -81 52 -25 11 -75 22 -111 24 -46 2 -80 -2 -118 -15z m226 -28 c29
-14 67 -44 86 -66 19 -22 42 -61 50 -86 9 -25 16 -62 16 -82 0 -20 -7 -57 -16
-82 -8 -25 -31 -64 -50 -86 -19 -22 -57 -52 -86 -66 -41 -21 -66 -26 -122 -26
-47 0 -85 7 -111 19 -22 10 -55 30 -73 46 -18 15 -45 48 -60 74 -23 39 -27 57
-27 121 0 64 4 82 27 121 15 26 42 59 60 74 18 16 51 36 73 46 26 12 64 19
111 19 56 0 81 -5 122 -26z"/>
<path d="M2092 9401 c-29 -10 -70 -32 -90 -48 -20 -17 -50 -52 -67 -78 -24
-39 -30 -61 -33 -120 -3 -56 0 -83 16 -117 10 -24 34 -60 51 -81 18 -20 58
-49 89 -64 48 -24 70 -28 137 -28 54 0 96 6 128 18 26 10 47 24 47 31 0 9 -14
6 -47 -10 -37 -19 -62 -24 -123 -24 -62 0 -86 5 -128 26 -29 14 -67 44 -86 66
-19 22 -42 61 -50 86 -9 25 -16 62 -16 82 0 20 7 57 16 82 8 25 31 64 50 86
19 22 57 52 86 66 41 21 67 26 123 26 56 0 82 -5 118 -24 26 -13 49 -20 52
-16 3 4 -2 13 -10 20 -8 6 -35 18 -61 26 -26 8 -70 14 -98 14 -28 -1 -75 -9
-104 -19z"/>
<path d="M2662 9402 c-29 -11 -70 -33 -90 -49 -20 -17 -50 -52 -67 -78 -24
-39 -30 -61 -33 -120 -3 -56 0 -83 16 -117 10 -24 34 -60 51 -81 18 -20 58
-49 89 -64 48 -24 70 -28 137 -28 60 0 92 6 126 21 25 12 61 35 81 53 20 18
48 55 62 83 20 40 26 67 26 118 0 51 -6 78 -26 118 -14 28 -42 65 -62 83 -20
18 -56 41 -81 52 -25 11 -75 22 -111 24 -46 2 -80 -2 -118 -15z m226 -28 c29
-14 67 -44 86 -66 19 -22 42 -61 50 -86 9 -25 16 -62 16 -82 0 -20 -7 -57 -16
-82 -8 -25 -31 -64 -50 -86 -19 -22 -57 -52 -86 -66 -41 -21 -66 -26 -122 -26
-47 0 -85 7 -111 19 -22 10 -55 30 -73 46 -18 15 -45 48 -60 74 -23 39 -27 57
-27 121 0 64 4 82 27 121 15 26 42 59 60 74 18 16 51 36 73 46 26 12 64 19
111 19 56 0 81 -5 122 -26z"/>
<path d="M3200 9140 c0 -242 2 -280 15 -280 13 0 15 38 15 280 0 242 -2 280
-15 280 -13 0 -15 -38 -15 -280z"/>
<path d="M3920 9163 l0 -258 -253 253 c-138 138 -255 252 -260 252 -4 0 -7
-124 -7 -275 0 -238 2 -275 15 -275 13 0 15 35 15 257 l0 258 253 -253 c138
-138 255 -252 260 -252 4 0 7 124 7 275 0 238 -2 275 -15 275 -13 0 -15 -35
-15 -257z"/>
<path d="M5180 9163 l0 -258 -253 253 c-138 138 -255 252 -260 252 -4 0 -7
-124 -7 -275 0 -238 2 -275 15 -275 13 0 15 35 15 257 l0 258 253 -253 c138
-138 255 -252 260 -252 4 0 7 124 7 275 0 238 -2 275 -15 275 -13 0 -15 -35
-15 -257z"/>
<path d="M5532 9402 c-29 -11 -70 -33 -90 -49 -20 -17 -50 -52 -67 -78 -24
-39 -30 -61 -33 -120 -3 -56 0 -83 16 -117 10 -24 34 -60 51 -81 18 -20 58
-49 89 -64 48 -24 70 -28 137 -28 60 0 92 6 126 21 25 12 61 35 81 53 20 18
48 55 62 83 20 40 26 67 26 118 0 51 -6 78 -26 118 -14 28 -42 65 -62 83 -20
18 -56 41 -81 52 -25 11 -75 22 -111 24 -46 2 -80 -2 -118 -15z m226 -28 c29
-14 67 -44 86 -66 19 -22 42 -61 50 -86 9 -25 16 -62 16 -82 0 -20 -7 -57 -16
-82 -8 -25 -31 -64 -50 -86 -19 -22 -57 -52 -86 -66 -41 -21 -66 -26 -122 -26
-47 0 -85 7 -111 19 -22 10 -55 30 -73 46 -18 15 -45 48 -60 74 -23 39 -27 57
-27 121 0 64 4 82 27 121 15 26 42 59 60 74 18 16 51 36 73 46 26 12 64 19
111 19 56 0 81 -5 122 -26z"/>
<path d="M6460 9140 l0 -280 63 0 c45 0 75 6 107 23 24 12 52 34 63 48 10 14
21 44 24 66 3 27 0 52 -12 77 -11 23 -34 46 -62 63 l-45 26 26 14 c14 7 33 27
41 43 8 16 15 45 15 65 0 20 -7 49 -15 65 -9 17 -33 39 -55 50 -25 13 -59 20
-95 20 l-55 0 0 -280z m162 231 c30 -27 33 -35 33 -86 0 -51 -3 -59 -33 -86
-26 -24 -41 -29 -82 -29 l-50 0 0 115 0 115 50 0 c41 0 56 -5 82 -29z m-8
-235 c18 -7 42 -26 54 -41 16 -20 22 -42 22 -77 0 -28 -7 -62 -16 -78 -9 -15
-29 -35 -44 -44 -17 -10 -50 -16 -84 -16 l-56 0 0 135 0 135 45 0 c25 0 60 -6
79 -14z"/>
<path d="M6850 9140 c0 -242 2 -280 15 -280 13 0 15 37 15 270 l0 270 55 0
c46 0 60 -4 87 -29 29 -26 33 -35 33 -81 0 -46 -4 -55 -33 -81 -26 -23 -42
-29 -78 -29 -38 0 -45 -3 -40 -16 3 -8 54 -78 113 -156 59 -77 113 -143 121
-145 7 -3 15 -3 17 -1 3 2 -47 68 -110 146 -63 78 -115 144 -115 147 0 3 8 5
17 5 9 0 35 9 58 20 22 11 48 33 58 49 9 16 17 43 17 61 0 17 -7 44 -15 59 -8
16 -34 38 -58 50 -28 14 -63 21 -100 21 l-57 0 0 -280z"/>
<path d="M7250 9140 l0 -280 120 0 c73 0 120 4 120 10 0 6 -42 10 -105 10
l-105 0 0 260 0 260 105 0 c63 0 105 4 105 10 0 6 -47 10 -120 10 l-120 0 0
-280z"/>
<path d="M8200 9140 l0 -283 78 5 c52 3 91 12 119 26 23 12 58 38 77 58 19 19
42 52 52 72 11 22 20 67 22 113 3 62 0 83 -19 123 -12 27 -38 64 -56 82 -18
19 -53 44 -76 56 -28 14 -67 23 -119 26 l-78 5 0 -283z m198 229 c35 -20 63
-46 83 -77 16 -26 34 -65 40 -87 6 -22 9 -63 6 -91 -3 -28 -17 -74 -31 -102
-14 -28 -40 -62 -58 -75 -18 -14 -47 -32 -65 -41 -18 -9 -56 -16 -88 -16 l-55
0 0 260 0 260 58 0 c45 0 68 -6 110 -31z"/>
<path d="M7793 9348 c-18 -35 -82 -159 -142 -275 -61 -117 -106 -213 -101
-213 6 0 34 47 62 105 l53 105 160 0 160 0 53 -105 c31 -64 58 -105 67 -105
10 0 -19 66 -96 213 -60 116 -124 240 -142 275 -17 34 -34 62 -37 62 -3 0 -20
-28 -37 -62z m107 -108 c38 -77 70 -142 70 -145 0 -3 -65 -5 -145 -5 -80 0
-145 3 -145 6 0 4 32 69 72 145 39 77 73 139 75 139 1 0 34 -63 73 -140z"/>
<path d="M7325 9160 c-23 -6 -12 -8 43 -9 42 -1 72 3 72 9 0 6 -19 9 -42 9
-24 -1 -56 -5 -73 -9z"/>
<path d="M4081 8879 c-18 -55 -31 -103 -28 -105 2 -2 23 39 46 91 23 52 39
100 36 105 -3 6 -9 10 -13 10 -4 0 -23 -45 -41 -101z"/>
<path d="M8654 8906 c-3 -9 -3 -23 0 -32 3 -8 14 -14 23 -12 12 2 18 12 18 28
0 16 -6 26 -18 28 -9 2 -20 -4 -23 -12z"/>
<path d="M137 8226 c-75 -145 -137 -272 -137 -282 1 -11 17 11 36 49 l34 67
203 0 202 0 68 -135 c43 -88 72 -135 83 -135 11 0 0 29 -44 113 -33 61 -115
218 -182 347 -68 129 -123 236 -124 237 -1 1 -63 -117 -139 -261z m231 45 c51
-98 92 -181 92 -185 0 -3 -85 -6 -190 -6 l-190 0 92 185 c51 102 95 185 99
185 3 0 47 -80 97 -179z"/>
<path d="M1282 8331 c-29 -10 -70 -32 -90 -48 -20 -17 -50 -52 -67 -78 -24
-39 -30 -61 -33 -120 -3 -56 0 -83 16 -117 10 -24 34 -60 51 -81 18 -20 58
-49 89 -64 48 -24 70 -28 137 -28 54 0 96 6 128 18 26 10 47 24 47 31 0 9 -14
6 -47 -10 -37 -19 -62 -24 -123 -24 -62 0 -86 5 -128 26 -29 14 -67 44 -86 66
-19 22 -42 61 -50 86 -9 25 -16 62 -16 82 0 20 7 57 16 82 8 25 31 64 50 86
19 22 57 52 86 66 41 21 67 26 123 26 56 0 82 -5 118 -24 26 -13 49 -20 52
-16 3 4 -2 13 -10 20 -8 6 -35 18 -61 26 -26 8 -70 14 -98 14 -28 -1 -75 -9
-104 -19z"/>
<path d="M1852 8332 c-29 -11 -70 -33 -90 -49 -20 -17 -50 -52 -67 -78 -24
-39 -30 -61 -33 -120 -3 -56 0 -83 16 -117 10 -24 34 -60 51 -81 18 -20 58
-49 89 -64 48 -24 70 -28 137 -28 60 0 92 6 126 21 25 12 61 35 81 53 20 18
48 55 62 83 20 40 26 67 26 118 0 51 -6 78 -26 118 -14 28 -42 65 -62 83 -20
18 -56 41 -81 52 -25 11 -75 22 -111 24 -46 2 -80 -2 -118 -15z m226 -28 c29
-14 67 -44 86 -66 19 -22 42 -61 50 -86 9 -25 16 -62 16 -82 0 -20 -7 -57 -16
-82 -8 -25 -31 -64 -50 -86 -19 -22 -57 -52 -86 -66 -41 -21 -66 -26 -122 -26
-47 0 -85 7 -111 19 -22 10 -55 30 -73 46 -18 15 -45 48 -60 74 -23 39 -27 57
-27 121 0 64 4 82 27 121 15 26 42 59 60 74 18 16 51 36 73 46 26 12 64 19
111 19 56 0 81 -5 122 -26z"/>
<path d="M2380 8070 l0 -280 120 0 c73 0 120 4 120 10 0 6 -42 10 -105 10
l-105 0 0 270 c0 233 -2 270 -15 270 -13 0 -15 -38 -15 -280z"/>
<path d="M2710 8070 l0 -283 78 5 c52 3 91 12 119 26 23 12 58 38 77 58 19 19
42 52 52 72 11 22 20 67 22 113 3 62 0 83 -19 123 -12 27 -38 64 -56 82 -18
19 -53 44 -76 56 -28 14 -67 23 -119 26 l-78 5 0 -283z m198 229 c35 -20 63
-46 83 -77 16 -26 34 -65 40 -87 6 -22 9 -63 6 -91 -3 -28 -17 -74 -31 -102
-14 -28 -40 -62 -58 -75 -18 -14 -47 -32 -65 -41 -18 -9 -56 -16 -88 -16 l-55
0 0 260 0 260 58 0 c45 0 68 -6 110 -31z"/>
<path d="M3740 8070 l0 -280 63 0 c45 0 75 6 107 23 24 12 52 34 63 48 10 14
21 44 24 66 3 27 0 52 -12 77 -11 23 -34 46 -62 63 l-45 26 26 14 c14 7 33 27
41 43 8 16 15 45 15 65 0 20 -7 49 -15 65 -9 17 -33 39 -55 50 -25 13 -59 20
-95 20 l-55 0 0 -280z m162 231 c30 -27 33 -35 33 -86 0 -51 -3 -59 -33 -86
-26 -24 -41 -29 -82 -29 l-50 0 0 115 0 115 50 0 c41 0 56 -5 82 -29z m-8
-235 c18 -7 42 -26 54 -41 16 -20 22 -42 22 -77 0 -28 -7 -62 -16 -78 -9 -15
-29 -35 -44 -44 -17 -10 -50 -16 -84 -16 l-56 0 0 135 0 135 45 0 c25 0 60 -6
79 -14z"/>
<path d="M4710 8070 c0 -242 2 -280 15 -280 13 0 15 37 15 270 l0 270 55 0
c46 0 60 -4 87 -29 29 -26 33 -35 33 -81 0 -46 -4 -55 -33 -81 -26 -23 -42
-29 -78 -29 -38 0 -45 -3 -40 -16 3 -8 54 -78 113 -156 59 -77 113 -143 121
-145 7 -3 15 -3 17 -1 3 2 -47 68 -110 146 -63 78 -115 144 -115 147 0 3 8 5
17 5 9 0 35 9 58 20 22 11 48 33 58 49 9 16 17 43 17 61 0 17 -7 44 -15 59 -8
16 -34 38 -58 50 -28 14 -63 21 -100 21 l-57 0 0 -280z"/>
<path d="M5110 8070 l0 -280 120 0 c73 0 120 4 120 10 0 6 -42 10 -105 10
l-105 0 0 260 0 260 105 0 c63 0 105 4 105 10 0 6 -47 10 -120 10 l-120 0 0
-280z"/>
<path d="M5880 8070 l0 -280 63 0 c45 0 75 6 107 23 24 12 52 34 63 48 10 14
21 44 24 66 3 27 0 52 -12 77 -11 23 -34 46 -62 63 l-45 26 26 14 c14 7 33 27
41 43 8 16 15 45 15 65 0 20 -7 49 -15 65 -9 17 -33 39 -55 50 -25 13 -59 20
-95 20 l-55 0 0 -280z m162 231 c30 -27 33 -35 33 -86 0 -51 -3 -59 -33 -86
-26 -24 -41 -29 -82 -29 l-50 0 0 115 0 115 50 0 c41 0 56 -5 82 -29z m-8
-235 c18 -7 42 -26 54 -41 16 -20 22 -42 22 -77 0 -28 -7 -62 -16 -78 -9 -15
-29 -35 -44 -44 -17 -10 -50 -16 -84 -16 l-56 0 0 135 0 135 45 0 c25 0 60 -6
79 -14z"/>
<path d="M6270 8070 l0 -280 120 0 c73 0 120 4 120 10 0 6 -42 10 -105 10
l-105 0 0 260 0 260 105 0 c63 0 105 4 105 10 0 6 -47 10 -120 10 l-120 0 0
-280z"/>
<path d="M6640 8070 l0 -283 78 5 c52 3 91 12 119 26 23 12 58 38 77 58 19 19
42 52 52 72 11 22 20 67 22 113 3 62 0 83 -19 123 -12 27 -38 64 -56 82 -18
19 -53 44 -76 56 -28 14 -67 23 -119 26 l-78 5 0 -283z m198 229 c35 -20 63
-46 83 -77 16 -26 34 -65 40 -87 6 -22 9 -63 6 -91 -3 -28 -17 -74 -31 -102
-14 -28 -40 -62 -58 -75 -18 -14 -47 -32 -65 -41 -18 -9 -56 -16 -88 -16 l-55
0 0 260 0 260 58 0 c45 0 68 -6 110 -31z"/>
<path d="M4303 8278 c-18 -35 -82 -159 -142 -275 -61 -117 -106 -213 -101
-213 6 0 34 47 62 105 l53 105 160 0 160 0 53 -105 c31 -64 58 -105 67 -105
10 0 -19 66 -96 213 -60 116 -124 240 -142 275 -17 34 -34 62 -37 62 -3 0 -20
-28 -37 -62z m107 -108 c38 -77 70 -142 70 -145 0 -3 -65 -5 -145 -5 -80 0
-145 3 -145 6 0 4 32 69 72 145 39 77 73 139 75 139 1 0 34 -63 73 -140z"/>
<path d="M5185 8090 c-23 -6 -12 -8 43 -9 42 -1 72 3 72 9 0 6 -19 9 -42 9
-24 -1 -56 -5 -73 -9z"/>
<path d="M6345 8090 c-23 -6 -12 -8 43 -9 42 -1 72 3 72 9 0 6 -19 9 -42 9
-24 -1 -56 -5 -73 -9z"/>
<path d="M3161 7809 c-18 -55 -31 -103 -28 -105 2 -2 23 39 46 91 23 52 39
100 36 105 -3 6 -9 10 -13 10 -4 0 -23 -45 -41 -101z"/>
<path d="M7094 7836 c-3 -9 -3 -23 0 -32 3 -8 14 -14 23 -12 12 2 18 12 18 28
0 16 -6 26 -18 28 -9 2 -20 -4 -23 -12z"/>
<path d="M0 7410 c0 -6 43 -10 110 -10 l110 0 0 -340 c0 -296 2 -340 15 -340
13 0 15 44 15 340 l0 340 155 0 c97 0 155 4 155 10 0 6 -100 10 -280 10 -180
0 -280 -4 -280 -10z"/>
<path d="M4050 7315 c0 -63 4 -105 10 -105 6 0 10 42 10 105 0 63 -4 105 -10
105 -6 0 -10 -42 -10 -105z"/>
<path d="M650 7000 c0 -242 2 -280 15 -280 13 0 15 23 15 145 l0 145 200 0
200 0 0 -145 c0 -122 2 -145 15 -145 13 0 15 38 15 280 0 242 -2 280 -15 280
-13 0 -15 -21 -15 -125 l0 -125 -200 0 -200 0 0 125 c0 104 -2 125 -15 125
-13 0 -15 -38 -15 -280z"/>
<path d="M1270 7000 l0 -280 120 0 c73 0 120 4 120 10 0 6 -42 10 -105 10
l-105 0 0 260 0 260 105 0 c63 0 105 4 105 10 0 6 -47 10 -120 10 l-120 0 0
-280z"/>
<path d="M2040 7000 c0 -242 2 -280 15 -280 13 0 15 23 15 145 l0 145 200 0
200 0 0 -145 c0 -122 2 -145 15 -145 13 0 15 38 15 280 0 242 -2 280 -15 280
-13 0 -15 -21 -15 -125 l0 -125 -200 0 -200 0 0 125 c0 104 -2 125 -15 125
-13 0 -15 -38 -15 -280z"/>
<path d="M2822 7262 c-29 -11 -70 -33 -90 -49 -20 -17 -50 -52 -67 -78 -24
-39 -30 -61 -33 -120 -3 -56 0 -83 16 -117 10 -24 34 -60 51 -81 18 -20 58
-49 89 -64 48 -24 70 -28 137 -28 60 0 92 6 126 21 25 12 61 35 81 53 20 18
48 55 62 83 20 40 26 67 26 118 0 51 -6 78 -26 118 -14 28 -42 65 -62 83 -20
18 -56 41 -81 52 -25 11 -75 22 -111 24 -46 2 -80 -2 -118 -15z m226 -28 c29
-14 67 -44 86 -66 19 -22 42 -61 50 -86 9 -25 16 -62 16 -82 0 -20 -7 -57 -16
-82 -8 -25 -31 -64 -50 -86 -19 -22 -57 -52 -86 -66 -41 -21 -66 -26 -122 -26
-47 0 -85 7 -111 19 -22 10 -55 30 -73 46 -18 15 -45 48 -60 74 -23 39 -27 57
-27 121 0 64 4 82 27 121 15 26 42 59 60 74 18 16 51 36 73 46 26 12 64 19
111 19 56 0 81 -5 122 -26z"/>
<path d="M3350 7000 c0 -242 2 -280 15 -280 13 0 15 21 15 130 l0 130 38 0
c20 0 55 10 77 23 22 12 50 38 62 56 14 20 23 49 23 71 0 22 -9 51 -23 71 -12
18 -40 44 -62 56 -27 16 -57 23 -92 23 l-53 0 0 -280z m144 241 c16 -11 35
-30 42 -43 8 -13 13 -43 13 -68 0 -25 -5 -55 -13 -68 -7 -13 -26 -32 -42 -43
-17 -11 -46 -19 -71 -19 l-43 0 0 130 0 130 43 0 c25 0 54 -8 71 -19z"/>
<path d="M3710 7000 l0 -280 120 0 c73 0 120 4 120 10 0 6 -42 10 -105 10
l-105 0 0 260 0 260 105 0 c63 0 105 4 105 10 0 6 -47 10 -120 10 l-120 0 0
-280z"/>
<path d="M4238 7259 c-21 -10 -44 -33 -53 -49 -8 -16 -15 -42 -15 -58 0 -16
12 -46 26 -67 14 -21 38 -48 52 -59 15 -11 51 -43 79 -70 36 -33 55 -59 59
-82 3 -19 3 -46 0 -60 -4 -14 -18 -37 -31 -50 -19 -19 -34 -24 -77 -24 -35 0
-64 7 -85 20 -19 11 -35 15 -38 9 -4 -5 13 -18 37 -29 24 -11 60 -20 80 -20
21 0 53 7 71 16 19 9 41 29 51 44 9 16 16 47 16 70 0 26 -8 56 -21 76 -11 18
-49 56 -84 84 -36 28 -74 63 -85 77 -13 17 -20 41 -20 70 0 36 6 50 29 74 25
24 38 29 78 29 28 0 58 -7 71 -16 19 -13 22 -13 22 -1 0 8 -14 20 -31 26 -18
6 -46 11 -63 11 -17 -1 -48 -10 -68 -21z"/>
<path d="M4950 7000 c0 -242 2 -280 15 -280 13 0 15 37 15 270 l0 270 100 0
c60 0 100 4 100 10 0 6 -45 10 -115 10 l-115 0 0 -280z"/>
<path d="M5300 7000 c0 -242 2 -280 15 -280 13 0 15 37 15 270 l0 270 55 0
c46 0 60 -4 87 -29 29 -26 33 -35 33 -81 0 -46 -4 -55 -33 -81 -26 -23 -42
-29 -78 -29 -38 0 -45 -3 -40 -16 3 -8 54 -78 113 -156 59 -77 113 -143 121
-145 7 -3 15 -3 17 -1 3 2 -47 68 -110 146 -63 78 -115 144 -115 147 0 3 8 5
17 5 9 0 35 9 58 20 22 11 48 33 58 49 9 16 17 43 17 61 0 17 -7 44 -15 59 -8
16 -34 38 -58 50 -28 14 -63 21 -100 21 l-57 0 0 -280z"/>
<path d="M6290 7000 c0 -242 2 -280 15 -280 13 0 15 38 15 280 0 242 -2 280
-15 280 -13 0 -15 -38 -15 -280z"/>
<path d="M6490 7000 l0 -280 120 0 c73 0 120 4 120 10 0 6 -42 10 -105 10
l-105 0 0 270 c0 233 -2 270 -15 270 -13 0 -15 -38 -15 -280z"/>
<path d="M7168 7237 c9 -24 60 -148 112 -275 52 -127 97 -232 100 -232 3 0 48
110 100 245 52 134 98 241 102 237 3 -4 45 -108 93 -232 47 -123 90 -231 95
-240 7 -12 10 -11 18 10 5 14 55 136 111 272 55 136 101 249 101 252 0 3 -4 6
-9 6 -4 0 -52 -112 -106 -250 -54 -137 -101 -250 -104 -250 -3 0 -34 73 -68
163 -34 89 -76 199 -94 245 -17 46 -35 80 -39 75 -4 -4 -49 -117 -101 -250
-52 -133 -97 -239 -101 -235 -4 4 -48 113 -98 242 -51 129 -94 241 -97 248 -3
6 -11 12 -19 12 -11 0 -10 -8 4 -43z"/>
<path d="M9200 7023 l0 -258 -253 253 c-138 138 -255 252 -260 252 -4 0 -7
-124 -7 -275 0 -238 2 -275 15 -275 13 0 15 35 15 257 l0 258 253 -253 c138
-138 255 -252 260 -252 4 0 7 124 7 275 0 238 -2 275 -15 275 -13 0 -15 -35
-15 -257z"/>
<path d="M9390 7000 l0 -280 120 0 c73 0 120 4 120 10 0 6 -42 10 -105 10
l-105 0 0 260 0 260 105 0 c63 0 105 4 105 10 0 6 -47 10 -120 10 l-120 0 0
-280z"/>
<path d="M5873 7208 c-18 -35 -82 -159 -142 -275 -61 -117 -106 -213 -101
-213 6 0 34 47 62 105 l53 105 160 0 160 0 53 -105 c31 -64 58 -105 67 -105
10 0 -19 66 -96 213 -60 116 -124 240 -142 275 -17 34 -34 62 -37 62 -3 0 -20
-28 -37 -62z m107 -108 c38 -77 70 -142 70 -145 0 -3 -65 -5 -145 -5 -80 0
-145 3 -145 6 0 4 32 69 72 145 39 77 73 139 75 139 1 0 34 -63 73 -140z"/>
<path d="M8273 7208 c-18 -35 -82 -159 -142 -275 -61 -117 -106 -213 -101
-213 6 0 34 47 62 105 l53 105 160 0 160 0 53 -105 c31 -64 58 -105 67 -105
10 0 -19 66 -96 213 -60 116 -124 240 -142 275 -17 34 -34 62 -37 62 -3 0 -20
-28 -37 -62z m107 -108 c38 -77 70 -142 70 -145 0 -3 -65 -5 -145 -5 -80 0
-145 3 -145 6 0 4 32 69 72 145 39 77 73 139 75 139 1 0 34 -63 73 -140z"/>
<path d="M1345 7020 c-23 -6 -12 -8 43 -9 42 -1 72 3 72 9 0 6 -19 9 -42 9
-24 -1 -56 -5 -73 -9z"/>
<path d="M3785 7020 c-23 -6 -12 -8 43 -9 42 -1 72 3 72 9 0 6 -19 9 -42 9
-24 -1 -56 -5 -73 -9z"/>
<path d="M5025 7020 c-23 -6 -15 -8 38 -9 39 -1 67 3 67 9 0 6 -17 9 -37 9
-21 -1 -51 -5 -68 -9z"/>
<path d="M9465 7020 c-23 -6 -12 -8 43 -9 42 -1 72 3 72 9 0 6 -19 9 -42 9
-24 -1 -56 -5 -73 -9z"/>
<path d="M9734 6766 c-3 -9 -3 -23 0 -32 3 -8 14 -14 23 -12 12 2 18 12 18 28
0 16 -6 26 -18 28 -9 2 -20 -4 -23 -12z"/>
<path d="M0 6340 c0 -6 43 -10 110 -10 l110 0 0 -340 c0 -296 2 -340 15 -340
13 0 15 44 15 340 l0 340 155 0 c97 0 155 4 155 10 0 6 -100 10 -280 10 -180
0 -280 -4 -280 -10z"/>
<path d="M650 5930 c0 -242 2 -280 15 -280 13 0 15 23 15 145 l0 145 200 0
200 0 0 -145 c0 -122 2 -145 15 -145 13 0 15 38 15 280 0 242 -2 280 -15 280
-13 0 -15 -21 -15 -125 l0 -125 -200 0 -200 0 0 125 c0 104 -2 125 -15 125
-13 0 -15 -38 -15 -280z"/>
<path d="M1270 5930 c0 -242 2 -280 15 -280 13 0 15 37 15 270 l0 270 55 0
c46 0 60 -4 87 -29 29 -26 33 -35 33 -81 0 -46 -4 -55 -33 -81 -26 -23 -42
-29 -78 -29 -38 0 -45 -3 -40 -16 3 -8 54 -78 113 -156 59 -77 113 -143 121
-145 7 -3 15 -3 17 -1 3 2 -47 68 -110 146 -63 78 -115 144 -115 147 0 3 8 5
17 5 9 0 35 9 58 20 22 11 48 33 58 49 9 16 17 43 17 61 0 17 -7 44 -15 59 -8
16 -34 38 -58 50 -28 14 -63 21 -100 21 l-57 0 0 -280z"/>
<path d="M1832 6192 c-29 -11 -70 -33 -90 -49 -20 -17 -50 -52 -67 -78 -24
-39 -30 -61 -33 -120 -3 -56 0 -83 16 -117 10 -24 34 -60 51 -81 18 -20 58
-49 89 -64 48 -24 70 -28 137 -28 60 0 92 6 126 21 25 12 61 35 81 53 20 18
48 55 62 83 20 40 26 67 26 118 0 51 -6 78 -26 118 -14 28 -42 65 -62 83 -20
18 -56 41 -81 52 -25 11 -75 22 -111 24 -46 2 -80 -2 -118 -15z m226 -28 c29
-14 67 -44 86 -66 19 -22 42 -61 50 -86 9 -25 16 -62 16 -82 0 -20 -7 -57 -16
-82 -8 -25 -31 -64 -50 -86 -19 -22 -57 -52 -86 -66 -41 -21 -66 -26 -122 -26
-47 0 -85 7 -111 19 -22 10 -55 30 -73 46 -18 15 -45 48 -60 74 -23 39 -27 57
-27 121 0 64 4 82 27 121 15 26 42 59 60 74 18 16 51 36 73 46 26 12 64 19
111 19 56 0 81 -5 122 -26z"/>
<path d="M2362 6013 c3 -181 5 -202 25 -240 13 -22 39 -54 58 -71 20 -16 53
-34 74 -41 21 -6 56 -11 77 -11 22 0 57 9 79 19 22 10 48 27 57 37 10 11 27
42 39 69 19 42 22 72 27 242 3 134 2 193 -6 193 -7 0 -12 -66 -14 -197 -3
-184 -5 -201 -26 -245 -13 -27 -37 -58 -54 -70 -17 -12 -52 -23 -79 -26 -26
-2 -64 -1 -84 2 -19 4 -52 21 -72 39 -20 17 -44 50 -54 72 -16 34 -19 68 -19
233 0 169 -2 192 -16 192 -14 0 -15 -22 -12 -197z"/>
<path d="M3154 6201 c-16 -4 -52 -18 -78 -32 -26 -13 -62 -39 -78 -58 -17 -19
-39 -53 -49 -75 -12 -26 -19 -64 -19 -106 0 -47 7 -79 24 -115 12 -28 40 -65
61 -84 22 -19 59 -43 84 -55 34 -15 66 -21 126 -21 66 0 89 4 129 25 28 14 58
37 69 51 10 14 21 43 23 65 4 27 -1 51 -14 77 l-20 37 43 0 c24 0 47 5 50 10
4 6 -42 10 -129 10 -84 0 -136 -4 -136 -10 0 -6 32 -10 75 -10 72 0 75 -1 90
-30 8 -16 15 -49 15 -73 0 -30 -7 -53 -22 -72 -12 -15 -40 -36 -62 -46 -27
-12 -64 -19 -111 -19 -49 0 -84 7 -115 21 -25 11 -60 35 -78 52 -19 18 -43 49
-54 71 -11 21 -22 62 -25 91 -4 36 0 69 12 106 12 35 33 68 64 99 29 29 65 53
96 63 27 10 80 17 120 17 57 0 82 -5 119 -25 33 -18 46 -21 46 -11 0 8 -19 22
-42 31 -24 10 -74 19 -113 21 -38 2 -84 0 -101 -5z"/>
<path d="M3600 5930 c0 -242 2 -280 15 -280 13 0 15 23 15 145 l0 145 200 0
200 0 0 -145 c0 -122 2 -145 15 -145 13 0 15 38 15 280 0 242 -2 280 -15 280
-13 0 -15 -21 -15 -125 l0 -125 -200 0 -200 0 0 125 c0 104 -2 125 -15 125
-13 0 -15 -38 -15 -280z"/>
<path d="M4620 5930 l0 -280 63 0 c45 0 75 6 107 23 24 12 52 34 63 48 10 14
21 44 24 66 3 27 0 52 -12 77 -11 23 -34 46 -62 63 l-45 26 26 14 c14 7 33 27
41 43 8 16 15 45 15 65 0 20 -7 49 -15 65 -9 17 -33 39 -55 50 -25 13 -59 20
-95 20 l-55 0 0 -280z m162 231 c30 -27 33 -35 33 -86 0 -51 -3 -59 -33 -86
-26 -24 -41 -29 -82 -29 l-50 0 0 115 0 115 50 0 c41 0 56 -5 82 -29z m-8
-235 c18 -7 42 -26 54 -41 16 -20 22 -42 22 -77 0 -28 -7 -62 -16 -78 -9 -15
-29 -35 -44 -44 -17 -10 -50 -16 -84 -16 l-56 0 0 135 0 135 45 0 c25 0 60 -6
79 -14z"/>
<path d="M5020 5930 c0 -242 2 -280 15 -280 13 0 15 38 15 280 0 242 -2 280
-15 280 -13 0 -15 -38 -15 -280z"/>
<path d="M5140 6198 c0 -8 35 -9 130 -5 l130 7 0 -275 c0 -238 2 -275 15 -275
13 0 15 37 15 275 l0 275 125 -6 c92 -5 125 -4 125 4 0 9 -73 12 -270 12 -197
0 -270 -3 -270 -12z"/>
<path d="M5690 6198 c0 -8 35 -9 130 -5 l130 7 0 -275 c0 -238 2 -275 15 -275
13 0 15 37 15 275 l0 275 125 -6 c92 -5 125 -4 125 4 0 9 -73 12 -270 12 -197
0 -270 -3 -270 -12z"/>
<path d="M6320 5930 l0 -280 120 0 c73 0 120 4 120 10 0 6 -42 10 -105 10
l-105 0 0 260 0 260 105 0 c63 0 105 4 105 10 0 6 -47 10 -120 10 l-120 0 0
-280z"/>
<path d="M6690 5930 c0 -242 2 -280 15 -280 13 0 15 37 15 270 l0 270 55 0
c46 0 60 -4 87 -29 29 -26 33 -35 33 -81 0 -46 -4 -55 -33 -81 -26 -23 -42
-29 -78 -29 -38 0 -45 -3 -40 -16 3 -8 54 -78 113 -156 59 -77 113 -143 121
-145 7 -3 15 -3 17 -1 3 2 -47 68 -110 146 -63 78 -115 144 -115 147 0 3 8 5
17 5 9 0 35 9 58 20 22 11 48 33 58 49 9 16 17 43 17 61 0 17 -7 44 -15 59 -8
16 -34 38 -58 50 -28 14 -63 21 -100 21 l-57 0 0 -280z"/>
<path d="M7640 5930 c0 -242 2 -280 15 -280 13 0 15 23 15 145 l0 145 200 0
200 0 0 -145 c0 -122 2 -145 15 -145 13 0 15 38 15 280 0 242 -2 280 -15 280
-13 0 -15 -21 -15 -125 l0 -125 -200 0 -200 0 0 125 c0 104 -2 125 -15 125
-13 0 -15 -38 -15 -280z"/>
<path d="M8840 5930 c0 -242 2 -280 15 -280 13 0 15 37 15 270 l0 270 55 0
c46 0 60 -4 87 -29 29 -26 33 -35 33 -81 0 -46 -4 -55 -33 -81 -26 -23 -42
-29 -78 -29 -38 0 -45 -3 -40 -16 3 -8 54 -78 113 -156 59 -77 113 -143 121
-145 7 -3 15 -3 17 -1 3 2 -47 68 -110 146 -63 78 -115 144 -115 147 0 3 8 5
17 5 9 0 35 9 58 20 22 11 48 33 58 49 9 16 17 43 17 61 0 17 -7 44 -15 59 -8
16 -34 38 -58 50 -28 14 -63 21 -100 21 l-57 0 0 -280z"/>
<path d="M9240 5930 l0 -283 78 5 c52 3 91 12 119 26 23 12 58 38 77 58 19 19
42 52 52 72 11 22 20 67 22 113 3 62 0 83 -19 123 -12 27 -38 64 -56 82 -18
19 -53 44 -76 56 -28 14 -67 23 -119 26 l-78 5 0 -283z m198 229 c35 -20 63
-46 83 -77 16 -26 34 -65 40 -87 6 -22 9 -63 6 -91 -3 -28 -17 -74 -31 -102
-14 -28 -40 -62 -58 -75 -18 -14 -47 -32 -65 -41 -18 -9 -56 -16 -88 -16 l-55
0 0 260 0 260 58 0 c45 0 68 -6 110 -31z"/>
<path d="M10120 5930 c0 -242 2 -280 15 -280 13 0 15 37 15 270 l0 270 55 0
c46 0 60 -4 87 -29 29 -26 33 -35 33 -81 0 -46 -4 -55 -33 -81 -26 -23 -42
-29 -78 -29 -38 0 -45 -3 -40 -16 3 -8 54 -78 113 -156 59 -77 113 -143 121
-145 7 -3 15 -3 17 -1 3 2 -47 68 -110 146 -63 78 -115 144 -115 147 0 3 8 5
17 5 9 0 35 9 58 20 22 11 48 33 58 49 9 16 17 43 17 61 0 17 -7 44 -15 59 -8
16 -34 38 -58 50 -28 14 -63 21 -100 21 l-57 0 0 -280z"/>
<path d="M11110 5930 c0 -242 2 -280 15 -280 13 0 15 38 15 280 0 242 -2 280
-15 280 -13 0 -15 -38 -15 -280z"/>
<path d="M11830 5953 l0 -258 -253 253 c-138 138 -255 252 -260 252 -4 0 -7
-124 -7 -275 0 -238 2 -275 15 -275 13 0 15 35 15 257 l0 258 253 -253 c138
-138 255 -252 260 -252 4 0 7 124 7 275 0 238 -2 275 -15 275 -13 0 -15 -35
-15 -257z"/>
<path d="M8433 6138 c-18 -35 -82 -159 -142 -275 -61 -117 -106 -213 -101
-213 6 0 34 47 62 105 l53 105 160 0 160 0 53 -105 c31 -64 58 -105 67 -105
10 0 -19 66 -96 213 -60 116 -124 240 -142 275 -17 34 -34 62 -37 62 -3 0 -20
-28 -37 -62z m107 -108 c38 -77 70 -142 70 -145 0 -3 -65 -5 -145 -5 -80 0
-145 3 -145 6 0 4 32 69 72 145 39 77 73 139 75 139 1 0 34 -63 73 -140z"/>
<path d="M10693 6138 c-18 -35 -82 -159 -142 -275 -61 -117 -106 -213 -101
-213 6 0 34 47 62 105 l53 105 160 0 160 0 53 -105 c31 -64 58 -105 67 -105
10 0 -19 66 -96 213 -60 116 -124 240 -142 275 -17 34 -34 62 -37 62 -3 0 -20
-28 -37 -62z m107 -108 c38 -77 70 -142 70 -145 0 -3 -65 -5 -145 -5 -80 0
-145 3 -145 6 0 4 32 69 72 145 39 77 73 139 75 139 1 0 34 -63 73 -140z"/>
<path d="M6395 5950 c-23 -6 -12 -8 43 -9 42 -1 72 3 72 9 0 6 -19 9 -42 9
-24 -1 -56 -5 -73 -9z"/>
<path d="M7061 5669 c-18 -55 -31 -103 -28 -105 2 -2 23 39 46 91 23 52 39
100 36 105 -3 6 -9 10 -13 10 -4 0 -23 -45 -41 -101z"/>
<path d="M11992 5680 c0 -14 2 -19 5 -12 2 6 2 18 0 25 -3 6 -5 1 -5 -13z"/>
<path d="M137 5016 c-75 -145 -137 -272 -137 -282 1 -11 17 11 36 49 l34 67
203 0 202 0 68 -135 c43 -88 72 -135 83 -135 11 0 0 29 -44 113 -33 61 -115
218 -182 347 -68 129 -123 236 -124 237 -1 1 -63 -117 -139 -261z m231 45 c51
-98 92 -181 92 -185 0 -3 -85 -6 -190 -6 l-190 0 92 185 c51 102 95 185 99
185 3 0 47 -80 97 -179z"/>
<path d="M1158 5119 c-21 -10 -44 -33 -53 -49 -8 -16 -15 -42 -15 -58 0 -16
12 -46 26 -67 14 -21 38 -48 52 -59 15 -11 51 -43 79 -70 36 -33 55 -59 59
-82 3 -19 3 -46 0 -60 -4 -14 -18 -37 -31 -50 -19 -19 -34 -24 -77 -24 -35 0
-64 7 -85 20 -19 11 -35 15 -38 9 -4 -5 13 -18 37 -29 24 -11 60 -20 80 -20
21 0 53 7 71 16 19 9 41 29 51 44 9 16 16 47 16 70 0 26 -8 56 -21 76 -11 18
-49 56 -84 84 -36 28 -74 63 -85 77 -13 17 -20 41 -20 70 0 36 6 50 29 74 25
24 38 29 78 29 28 0 58 -7 71 -16 19 -13 22 -13 22 -1 0 8 -14 20 -31 26 -18
6 -46 11 -63 11 -17 -1 -48 -10 -68 -21z"/>
<path d="M1470 4860 c0 -242 2 -280 15 -280 13 0 15 21 15 130 l0 130 38 0
c20 0 55 10 77 23 22 12 50 38 62 56 14 20 23 49 23 71 0 22 -9 51 -23 71 -12
18 -40 44 -62 56 -27 16 -57 23 -92 23 l-53 0 0 -280z m144 241 c16 -11 35
-30 42 -43 8 -13 13 -43 13 -68 0 -25 -5 -55 -13 -68 -7 -13 -26 -32 -42 -43
-17 -11 -46 -19 -71 -19 l-43 0 0 130 0 130 43 0 c25 0 54 -8 71 -19z"/>
<path d="M1840 4860 c0 -242 2 -280 15 -280 13 0 15 38 15 280 0 242 -2 280
-15 280 -13 0 -15 -38 -15 -280z"/>
<path d="M2040 4860 c0 -242 2 -280 15 -280 13 0 15 37 15 270 l0 270 55 0
c46 0 60 -4 87 -29 29 -26 33 -35 33 -81 0 -46 -4 -55 -33 -81 -26 -23 -42
-29 -78 -29 -38 0 -45 -3 -40 -16 3 -8 54 -78 113 -156 59 -77 113 -143 121
-145 7 -3 15 -3 17 -1 3 2 -47 68 -110 146 -63 78 -115 144 -115 147 0 3 8 5
17 5 9 0 35 9 58 20 22 11 48 33 58 49 9 16 17 43 17 61 0 17 -7 44 -15 59 -8
16 -34 38 -58 50 -28 14 -63 21 -100 21 l-57 0 0 -280z"/>
<path d="M2450 4860 c0 -242 2 -280 15 -280 13 0 15 38 15 280 0 242 -2 280
-15 280 -13 0 -15 -38 -15 -280z"/>
<path d="M2570 5128 c0 -8 35 -9 130 -5 l130 7 0 -275 c0 -238 2 -275 15 -275
13 0 15 37 15 275 l0 275 125 -6 c92 -5 125 -4 125 4 0 9 -73 12 -270 12 -197
0 -270 -3 -270 -12z"/>
<path d="M3750 4860 l0 -283 78 5 c52 3 91 12 119 26 23 12 58 38 77 58 19 19
42 52 52 72 11 22 20 67 22 113 3 62 0 83 -19 123 -12 27 -38 64 -56 82 -18
19 -53 44 -76 56 -28 14 -67 23 -119 26 l-78 5 0 -283z m198 229 c35 -20 63
-46 83 -77 16 -26 34 -65 40 -87 6 -22 9 -63 6 -91 -3 -28 -17 -74 -31 -102
-14 -28 -40 -62 -58 -75 -18 -14 -47 -32 -65 -41 -18 -9 -56 -16 -88 -16 l-55
0 0 260 0 260 58 0 c45 0 68 -6 110 -31z"/>
<path d="M4230 4860 l0 -280 120 0 c73 0 120 4 120 10 0 6 -42 10 -105 10
l-105 0 0 260 0 260 105 0 c63 0 105 4 105 10 0 6 -47 10 -120 10 l-120 0 0
-280z"/>
<path d="M4600 4860 l0 -280 120 0 c73 0 120 4 120 10 0 6 -42 10 -105 10
l-105 0 0 260 0 260 105 0 c63 0 105 4 105 10 0 6 -47 10 -120 10 l-120 0 0
-280z"/>
<path d="M4970 4860 c0 -242 2 -280 15 -280 13 0 15 21 15 130 l0 130 38 0
c20 0 55 10 77 23 22 12 50 38 62 56 14 20 23 49 23 71 0 22 -9 51 -23 71 -12
18 -40 44 -62 56 -27 16 -57 23 -92 23 l-53 0 0 -280z m144 241 c16 -11 35
-30 42 -43 8 -13 13 -43 13 -68 0 -25 -5 -55 -13 -68 -7 -13 -26 -32 -42 -43
-17 -11 -46 -19 -71 -19 l-43 0 0 130 0 130 43 0 c25 0 54 -8 71 -19z"/>
<path d="M5330 4860 l0 -280 120 0 c73 0 120 4 120 10 0 6 -42 10 -105 10
l-105 0 0 270 c0 233 -2 270 -15 270 -13 0 -15 -38 -15 -280z"/>
<path d="M5590 5135 c0 -2 47 -82 105 -177 l105 -172 0 -103 c0 -85 3 -103 15
-103 12 0 15 18 15 106 l0 106 105 175 c58 96 100 173 93 171 -7 -3 -55 -76
-105 -163 -51 -87 -97 -163 -102 -168 -5 -5 -49 62 -107 162 -55 94 -105 171
-111 171 -7 0 -13 -2 -13 -5z"/>
<path d="M6568 5119 c-21 -10 -44 -33 -53 -49 -8 -16 -15 -42 -15 -58 0 -16
12 -46 26 -67 14 -21 38 -48 52 -59 15 -11 51 -43 79 -70 36 -33 55 -59 59
-82 3 -19 3 -46 0 -60 -4 -14 -18 -37 -31 -50 -19 -19 -34 -24 -77 -24 -35 0
-64 7 -85 20 -19 11 -35 15 -38 9 -4 -5 13 -18 37 -29 24 -11 60 -20 80 -20
21 0 53 7 71 16 19 9 41 29 51 44 9 16 16 47 16 70 0 26 -8 56 -21 76 -11 18
-49 56 -84 84 -36 28 -74 63 -85 77 -13 17 -20 41 -20 70 0 36 6 50 29 74 25
24 38 29 78 29 28 0 58 -7 71 -16 19 -13 22 -13 22 -1 0 8 -14 20 -31 26 -18
6 -46 11 -63 11 -17 -1 -48 -10 -68 -21z"/>
<path d="M7042 5121 c-29 -10 -70 -32 -90 -48 -20 -17 -50 -52 -67 -78 -24
-39 -30 -61 -33 -120 -3 -56 0 -83 16 -117 10 -24 34 -60 51 -81 18 -20 58
-49 89 -64 48 -24 70 -28 137 -28 54 0 96 6 128 18 26 10 47 24 47 31 0 9 -14
6 -47 -10 -37 -19 -62 -24 -123 -24 -62 0 -86 5 -128 26 -29 14 -67 44 -86 66
-19 22 -42 61 -50 86 -9 25 -16 62 -16 82 0 20 7 57 16 82 8 25 31 64 50 86
19 22 57 52 86 66 41 21 67 26 123 26 56 0 82 -5 118 -24 26 -13 49 -20 52
-16 3 4 -2 13 -10 20 -8 6 -35 18 -61 26 -26 8 -70 14 -98 14 -28 -1 -75 -9
-104 -19z"/>
<path d="M8030 4860 c0 -242 2 -280 15 -280 13 0 15 37 15 270 l0 270 55 0
c46 0 60 -4 87 -29 29 -26 33 -35 33 -81 0 -46 -4 -55 -33 -81 -26 -23 -42
-29 -78 -29 -38 0 -45 -3 -40 -16 3 -8 54 -78 113 -156 59 -77 113 -143 121
-145 7 -3 15 -3 17 -1 3 2 -47 68 -110 146 -63 78 -115 144 -115 147 0 3 8 5
17 5 9 0 35 9 58 20 22 11 48 33 58 49 9 16 17 43 17 61 0 17 -7 44 -15 59 -8
16 -34 38 -58 50 -28 14 -63 21 -100 21 l-57 0 0 -280z"/>
<path d="M8430 4860 c0 -242 2 -280 15 -280 13 0 15 37 15 270 l0 270 55 0
c46 0 60 -4 87 -29 29 -26 33 -35 33 -81 0 -46 -4 -55 -33 -81 -26 -23 -42
-29 -78 -29 -38 0 -45 -3 -40 -16 3 -8 54 -78 113 -156 59 -77 113 -143 121
-145 7 -3 15 -3 17 -1 3 2 -47 68 -110 146 -63 78 -115 144 -115 147 0 3 8 5
17 5 9 0 35 9 58 20 22 11 48 33 58 49 9 16 17 43 17 61 0 17 -7 44 -15 59 -8
16 -34 38 -58 50 -28 14 -63 21 -100 21 l-57 0 0 -280z"/>
<path d="M8830 4860 l0 -280 120 0 c73 0 120 4 120 10 0 6 -42 10 -105 10
l-105 0 0 260 0 260 105 0 c63 0 105 4 105 10 0 6 -47 10 -120 10 l-120 0 0
-280z"/>
<path d="M9200 4860 l0 -283 78 5 c52 3 91 12 119 26 23 12 58 38 77 58 19 19
42 52 52 72 11 22 20 67 22 113 3 62 0 83 -19 123 -12 27 -38 64 -56 82 -18
19 -53 44 -76 56 -28 14 -67 23 -119 26 l-78 5 0 -283z m198 229 c35 -20 63
-46 83 -77 16 -26 34 -65 40 -87 6 -22 9 -63 6 -91 -3 -28 -17 -74 -31 -102
-14 -28 -40 -62 -58 -75 -18 -14 -47 -32 -65 -41 -18 -9 -56 -16 -88 -16 l-55
0 0 260 0 260 58 0 c45 0 68 -6 110 -31z"/>
<path d="M7623 5068 c-18 -35 -82 -159 -142 -275 -61 -117 -106 -213 -101
-213 6 0 34 47 62 105 l53 105 160 0 160 0 53 -105 c31 -64 58 -105 67 -105
10 0 -19 66 -96 213 -60 116 -124 240 -142 275 -17 34 -34 62 -37 62 -3 0 -20
-28 -37 -62z m107 -108 c38 -77 70 -142 70 -145 0 -3 -65 -5 -145 -5 -80 0
-145 3 -145 6 0 4 32 69 72 145 39 77 73 139 75 139 1 0 34 -63 73 -140z"/>
<path d="M4305 4880 c-23 -6 -12 -8 43 -9 42 -1 72 3 72 9 0 6 -19 9 -42 9
-24 -1 -56 -5 -73 -9z"/>
<path d="M4675 4880 c-23 -6 -12 -8 43 -9 42 -1 72 3 72 9 0 6 -19 9 -42 9
-24 -1 -56 -5 -73 -9z"/>
<path d="M8905 4880 c-23 -6 -12 -8 43 -9 42 -1 72 3 72 9 0 6 -19 9 -42 9
-24 -1 -56 -5 -73 -9z"/>
<path d="M3171 4599 c-18 -55 -31 -103 -28 -105 2 -2 23 39 46 91 23 52 39
100 36 105 -3 6 -9 10 -13 10 -4 0 -23 -45 -41 -101z"/>
<path d="M9654 4626 c-3 -9 -3 -23 0 -32 3 -8 14 -14 23 -12 12 2 18 12 18 28
0 16 -6 26 -18 28 -9 2 -20 -4 -23 -12z"/>
<path d="M0 3860 l0 -350 68 0 c37 0 84 5 105 11 21 5 53 24 73 41 19 17 42
44 50 59 7 15 14 51 14 79 0 28 -6 63 -14 78 -8 15 -25 37 -38 49 -13 12 -41
29 -62 38 l-40 17 35 20 c19 10 45 34 57 52 16 23 22 47 22 85 0 37 -7 64 -20
87 -12 19 -42 43 -72 58 -39 20 -67 26 -115 26 l-63 0 0 -350z m181 307 c19
-12 42 -38 51 -57 10 -19 18 -51 18 -70 0 -19 -8 -51 -18 -70 -9 -19 -32 -45
-51 -57 -26 -17 -48 -23 -92 -23 l-59 0 0 150 0 150 59 0 c44 0 66 -6 92 -23z
m4 -316 c23 -10 53 -32 68 -50 14 -17 29 -47 33 -66 3 -19 3 -50 0 -67 -3 -18
-15 -47 -26 -65 -10 -18 -37 -41 -59 -53 -28 -14 -60 -20 -106 -20 l-65 0 0
170 0 170 58 0 c34 0 74 -8 97 -19z"/>
<path d="M2560 4105 c0 -63 4 -105 10 -105 6 0 10 42 10 105 0 63 -4 105 -10
105 -6 0 -10 -42 -10 -105z"/>
<path d="M390 4065 c0 -2 47 -82 105 -177 l105 -172 0 -103 c0 -85 3 -103 15
-103 12 0 15 18 15 106 l0 106 105 175 c58 96 100 173 93 171 -7 -3 -55 -76
-105 -163 -51 -87 -97 -163 -102 -168 -5 -5 -49 62 -107 162 -55 94 -105 171
-111 171 -7 0 -13 -2 -13 -5z"/>
<path d="M1330 3790 l0 -280 120 0 c73 0 120 4 120 10 0 6 -42 10 -105 10
l-105 0 0 270 c0 233 -2 270 -15 270 -13 0 -15 -38 -15 -280z"/>
<path d="M1670 3790 c0 -242 2 -280 15 -280 13 0 15 38 15 280 0 242 -2 280
-15 280 -13 0 -15 -38 -15 -280z"/>
<path d="M1870 3790 c0 -242 2 -280 15 -280 13 0 15 37 15 270 l0 270 100 0
c60 0 100 4 100 10 0 6 -45 10 -115 10 l-115 0 0 -280z"/>
<path d="M2220 3790 l0 -280 120 0 c73 0 120 4 120 10 0 6 -42 10 -105 10
l-105 0 0 260 0 260 105 0 c63 0 105 4 105 10 0 6 -47 10 -120 10 l-120 0 0
-280z"/>
<path d="M2748 4049 c-21 -10 -44 -33 -53 -49 -8 -16 -15 -42 -15 -58 0 -16
12 -46 26 -67 14 -21 38 -48 52 -59 15 -11 51 -43 79 -70 36 -33 55 -59 59
-82 3 -19 3 -46 0 -60 -4 -14 -18 -37 -31 -50 -19 -19 -34 -24 -77 -24 -35 0
-64 7 -85 20 -19 11 -35 15 -38 9 -4 -5 13 -18 37 -29 24 -11 60 -20 80 -20
21 0 53 7 71 16 19 9 41 29 51 44 9 16 16 47 16 70 0 26 -8 56 -21 76 -11 18
-49 56 -84 84 -36 28 -74 63 -85 77 -13 17 -20 41 -20 70 0 36 6 50 29 74 25
24 38 29 78 29 28 0 58 -7 71 -16 19 -13 22 -13 22 -1 0 8 -14 20 -31 26 -18
6 -46 11 -63 11 -17 -1 -48 -10 -68 -21z"/>
<path d="M3460 3790 c0 -242 2 -280 15 -280 13 0 15 23 15 145 l0 145 200 0
200 0 0 -145 c0 -122 2 -145 15 -145 13 0 15 38 15 280 0 242 -2 280 -15 280
-13 0 -15 -21 -15 -125 l0 -125 -200 0 -200 0 0 125 c0 104 -2 125 -15 125
-13 0 -15 -38 -15 -280z"/>
<path d="M5180 3813 l0 -258 -253 253 c-138 138 -255 252 -260 252 -4 0 -7
-124 -7 -275 0 -238 2 -275 15 -275 13 0 15 35 15 257 l0 258 253 -253 c138
-138 255 -252 260 -252 4 0 7 124 7 275 0 238 -2 275 -15 275 -13 0 -15 -35
-15 -257z"/>
<path d="M5370 3790 l0 -283 78 5 c52 3 91 12 119 26 23 12 58 38 77 58 19 19
42 52 52 72 11 22 20 67 22 113 3 62 0 83 -19 123 -12 27 -38 64 -56 82 -18
19 -53 44 -76 56 -28 14 -67 23 -119 26 l-78 5 0 -283z m198 229 c35 -20 63
-46 83 -77 16 -26 34 -65 40 -87 6 -22 9 -63 6 -91 -3 -28 -17 -74 -31 -102
-14 -28 -40 -62 -58 -75 -18 -14 -47 -32 -65 -41 -18 -9 -56 -16 -88 -16 l-55
0 0 260 0 260 58 0 c45 0 68 -6 110 -31z"/>
<path d="M7620 3790 c0 -242 2 -280 15 -280 13 0 15 37 15 270 l0 270 55 0
c46 0 60 -4 87 -29 29 -26 33 -35 33 -81 0 -46 -4 -55 -33 -81 -26 -23 -42
-29 -78 -29 -38 0 -45 -3 -40 -16 3 -8 54 -78 113 -156 59 -77 113 -143 121
-145 7 -3 15 -3 17 -1 3 2 -47 68 -110 146 -63 78 -115 144 -115 147 0 3 8 5
17 5 9 0 35 9 58 20 22 11 48 33 58 49 9 16 17 43 17 61 0 17 -7 44 -15 59 -8
16 -34 38 -58 50 -28 14 -63 21 -100 21 l-57 0 0 -280z"/>
<path d="M8020 3790 c0 -242 2 -280 15 -280 13 0 15 37 15 270 l0 270 55 0
c46 0 60 -4 87 -29 29 -26 33 -35 33 -81 0 -46 -4 -55 -33 -81 -26 -23 -42
-29 -78 -29 -38 0 -45 -3 -40 -16 3 -8 54 -78 113 -156 59 -77 113 -143 121
-145 7 -3 15 -3 17 -1 3 2 -47 68 -110 146 -63 78 -115 144 -115 147 0 3 8 5
17 5 9 0 35 9 58 20 22 11 48 33 58 49 9 16 17 43 17 61 0 17 -7 44 -15 59 -8
16 -34 38 -58 50 -28 14 -63 21 -100 21 l-57 0 0 -280z"/>
<path d="M8420 3790 l0 -280 120 0 c73 0 120 4 120 10 0 6 -42 10 -105 10
l-105 0 0 260 0 260 105 0 c63 0 105 4 105 10 0 6 -47 10 -120 10 l-120 0 0
-280z"/>
<path d="M8790 3790 l0 -283 78 5 c52 3 91 12 119 26 23 12 58 38 77 58 19 19
42 52 52 72 11 22 20 67 22 113 3 62 0 83 -19 123 -12 27 -38 64 -56 82 -18
19 -53 44 -76 56 -28 14 -67 23 -119 26 l-78 5 0 -283z m198 229 c35 -20 63
-46 83 -77 16 -26 34 -65 40 -87 6 -22 9 -63 6 -91 -3 -28 -17 -74 -31 -102
-14 -28 -40 -62 -58 -75 -18 -14 -47 -32 -65 -41 -18 -9 -56 -16 -88 -16 l-55
0 0 260 0 260 58 0 c45 0 68 -6 110 -31z"/>
<path d="M4253 3998 c-18 -35 -82 -159 -142 -275 -61 -117 -106 -213 -101
-213 6 0 34 47 62 105 l53 105 160 0 160 0 53 -105 c31 -64 58 -105 67 -105
10 0 -19 66 -96 213 -60 116 -124 240 -142 275 -17 34 -34 62 -37 62 -3 0 -20
-28 -37 -62z m107 -108 c38 -77 70 -142 70 -145 0 -3 -65 -5 -145 -5 -80 0
-145 3 -145 6 0 4 32 69 72 145 39 77 73 139 75 139 1 0 34 -63 73 -140z"/>
<path d="M6273 3788 c-34 -150 -60 -275 -57 -278 3 -2 8 1 12 7 4 7 29 117 56
245 26 128 51 237 56 241 4 5 51 -65 105 -155 54 -90 104 -171 110 -180 9 -14
27 11 115 163 57 99 106 182 110 184 4 2 26 -89 49 -203 24 -114 47 -228 53
-254 6 -32 15 -48 25 -48 8 0 13 6 11 13 -3 6 -31 130 -64 274 -32 145 -61
263 -64 263 -3 0 -52 -83 -110 -184 -58 -101 -108 -182 -112 -180 -3 2 -55 85
-115 184 -59 99 -110 180 -113 180 -3 0 -33 -123 -67 -272z"/>
<path d="M7213 3998 c-18 -35 -82 -159 -142 -275 -61 -117 -106 -213 -101
-213 6 0 34 47 62 105 l53 105 160 0 160 0 53 -105 c31 -64 58 -105 67 -105
10 0 -19 66 -96 213 -60 116 -124 240 -142 275 -17 34 -34 62 -37 62 -3 0 -20
-28 -37 -62z m107 -108 c38 -77 70 -142 70 -145 0 -3 -65 -5 -145 -5 -80 0
-145 3 -145 6 0 4 32 69 72 145 39 77 73 139 75 139 1 0 34 -63 73 -140z"/>
<path d="M1945 3810 c-23 -6 -15 -8 38 -9 39 -1 67 3 67 9 0 6 -17 9 -37 9
-21 -1 -51 -5 -68 -9z"/>
<path d="M2295 3810 c-23 -6 -12 -8 43 -9 42 -1 72 3 72 9 0 6 -19 9 -42 9
-24 -1 -56 -5 -73 -9z"/>
<path d="M8495 3810 c-23 -6 -12 -8 43 -9 42 -1 72 3 72 9 0 6 -19 9 -42 9
-24 -1 -56 -5 -73 -9z"/>
<path d="M9244 3556 c-3 -9 -3 -23 0 -32 3 -8 14 -14 23 -12 12 2 18 12 18 28
0 16 -6 26 -18 28 -9 2 -20 -4 -23 -12z"/>
<path d="M20 2800 c0 -204 -4 -359 -11 -389 -6 -28 -9 -59 -7 -68 2 -11 11 1
22 32 17 44 19 92 24 408 4 323 3 357 -12 357 -14 0 -16 -34 -16 -340z"/>
<path d="M232 2803 c3 -181 5 -202 25 -240 13 -22 39 -54 58 -71 20 -16 53
-34 74 -41 21 -6 56 -11 77 -11 22 0 57 9 79 19 22 10 48 27 57 37 10 11 27
42 39 69 19 42 22 72 27 242 3 134 2 193 -6 193 -7 0 -12 -66 -14 -197 -3
-184 -5 -201 -26 -245 -13 -27 -37 -58 -54 -70 -17 -12 -52 -23 -79 -26 -26
-2 -64 -1 -84 2 -19 4 -52 21 -72 39 -20 17 -44 50 -54 72 -16 34 -19 68 -19
233 0 169 -2 192 -16 192 -14 0 -15 -22 -12 -197z"/>
<path d="M868 2979 c-21 -10 -44 -33 -53 -49 -8 -16 -15 -42 -15 -58 0 -16 12
-46 26 -67 14 -21 38 -48 52 -59 15 -11 51 -43 79 -70 36 -33 55 -59 59 -82 3
-19 3 -46 0 -60 -4 -14 -18 -37 -31 -50 -19 -19 -34 -24 -77 -24 -35 0 -64 7
-85 20 -19 11 -35 15 -38 9 -4 -5 13 -18 37 -29 24 -11 60 -20 80 -20 21 0 53
7 71 16 19 9 41 29 51 44 9 16 16 47 16 70 0 26 -8 56 -21 76 -11 18 -49 56
-84 84 -36 28 -74 63 -85 77 -13 17 -20 41 -20 70 0 36 6 50 29 74 25 24 38
29 78 29 28 0 58 -7 71 -16 19 -13 22 -13 22 -1 0 8 -14 20 -31 26 -18 6 -46
11 -63 11 -17 -1 -48 -10 -68 -21z"/>
<path d="M1100 2988 c0 -8 35 -9 130 -5 l130 7 0 -275 c0 -238 2 -275 15 -275
13 0 15 37 15 275 l0 275 125 -6 c92 -5 125 -4 125 4 0 9 -73 12 -270 12 -197
0 -270 -3 -270 -12z"/>
<path d="M2292 2981 c-29 -10 -70 -32 -90 -48 -20 -17 -50 -52 -67 -78 -24
-39 -30 -61 -33 -120 -3 -56 0 -83 16 -117 10 -24 34 -60 51 -81 18 -20 58
-49 89 -64 48 -24 70 -28 137 -28 54 0 96 6 128 18 26 10 47 24 47 31 0 9 -14
6 -47 -10 -37 -19 -62 -24 -123 -24 -62 0 -86 5 -128 26 -29 14 -67 44 -86 66
-19 22 -42 61 -50 86 -9 25 -16 62 -16 82 0 20 7 57 16 82 8 25 31 64 50 86
19 22 57 52 86 66 41 21 67 26 123 26 56 0 82 -5 118 -24 26 -13 49 -20 52
-16 3 4 -2 13 -10 20 -8 6 -35 18 -61 26 -26 8 -70 14 -98 14 -28 -1 -75 -9
-104 -19z"/>
<path d="M2862 2982 c-29 -11 -70 -33 -90 -49 -20 -17 -50 -52 -67 -78 -24
-39 -30 -61 -33 -120 -3 -56 0 -83 16 -117 10 -24 34 -60 51 -81 18 -20 58
-49 89 -64 48 -24 70 -28 137 -28 60 0 92 6 126 21 25 12 61 35 81 53 20 18
48 55 62 83 20 40 26 67 26 118 0 51 -6 78 -26 118 -14 28 -42 65 -62 83 -20
18 -56 41 -81 52 -25 11 -75 22 -111 24 -46 2 -80 -2 -118 -15z m226 -28 c29
-14 67 -44 86 -66 19 -22 42 -61 50 -86 9 -25 16 -62 16 -82 0 -20 -7 -57 -16
-82 -8 -25 -31 -64 -50 -86 -19 -22 -57 -52 -86 -66 -41 -21 -66 -26 -122 -26
-47 0 -85 7 -111 19 -22 10 -55 30 -73 46 -18 15 -45 48 -60 74 -23 39 -27 57
-27 121 0 64 4 82 27 121 15 26 42 59 60 74 18 16 51 36 73 46 26 12 64 19
111 19 56 0 81 -5 122 -26z"/>
<path d="M3390 2720 l0 -280 120 0 c73 0 120 4 120 10 0 6 -42 10 -105 10
l-105 0 0 270 c0 233 -2 270 -15 270 -13 0 -15 -38 -15 -280z"/>
<path d="M3720 2720 l0 -283 78 5 c52 3 91 12 119 26 23 12 58 38 77 58 19 19
42 52 52 72 11 22 20 67 22 113 3 62 0 83 -19 123 -12 27 -38 64 -56 82 -18
19 -53 44 -76 56 -28 14 -67 23 -119 26 l-78 5 0 -283z m198 229 c35 -20 63
-46 83 -77 16 -26 34 -65 40 -87 6 -22 9 -63 6 -91 -3 -28 -17 -74 -31 -102
-14 -28 -40 -62 -58 -75 -18 -14 -47 -32 -65 -41 -18 -9 -56 -16 -88 -16 l-55
0 0 260 0 260 58 0 c45 0 68 -6 110 -31z"/>
<path d="M4750 2720 l0 -280 120 0 c73 0 120 4 120 10 0 6 -42 10 -105 10
l-105 0 0 260 0 260 105 0 c63 0 105 4 105 10 0 6 -47 10 -120 10 l-120 0 0
-280z"/>
<path d="M5910 2720 c0 -242 2 -280 15 -280 13 0 15 21 15 130 l0 130 38 0
c20 0 55 10 77 23 22 12 50 38 62 56 14 20 23 49 23 71 0 22 -9 51 -23 71 -12
18 -40 44 -62 56 -27 16 -57 23 -92 23 l-53 0 0 -280z m144 241 c16 -11 35
-30 42 -43 8 -13 13 -43 13 -68 0 -25 -5 -55 -13 -68 -7 -13 -26 -32 -42 -43
-17 -11 -46 -19 -71 -19 l-43 0 0 130 0 130 43 0 c25 0 54 -8 71 -19z"/>
<path d="M6190 2988 c0 -8 35 -9 130 -5 l130 7 0 -275 c0 -238 2 -275 15 -275
13 0 15 37 15 275 l0 275 125 -6 c92 -5 125 -4 125 4 0 9 -73 12 -270 12 -197
0 -270 -3 -270 -12z"/>
<path d="M6750 2995 c0 -2 47 -82 105 -177 l105 -172 0 -103 c0 -85 3 -103 15
-103 12 0 15 18 15 106 l0 106 105 175 c58 96 100 173 93 171 -7 -3 -55 -76
-105 -163 -51 -87 -97 -163 -102 -168 -5 -5 -49 62 -107 162 -55 94 -105 171
-111 171 -7 0 -13 -2 -13 -5z"/>
<path d="M7690 2720 l0 -283 78 5 c52 3 91 12 119 26 23 12 58 38 77 58 19 19
42 52 52 72 11 22 20 67 22 113 3 62 0 83 -19 123 -12 27 -38 64 -56 82 -18
19 -53 44 -76 56 -28 14 -67 23 -119 26 l-78 5 0 -283z m198 229 c35 -20 63
-46 83 -77 16 -26 34 -65 40 -87 6 -22 9 -63 6 -91 -3 -28 -17 -74 -31 -102
-14 -28 -40 -62 -58 -75 -18 -14 -47 -32 -65 -41 -18 -9 -56 -16 -88 -16 l-55
0 0 260 0 260 58 0 c45 0 68 -6 110 -31z"/>
<path d="M8170 2720 c0 -242 2 -280 15 -280 13 0 15 37 15 270 l0 270 55 0
c46 0 60 -4 87 -29 29 -26 33 -35 33 -81 0 -46 -4 -55 -33 -81 -26 -23 -42
-29 -78 -29 -38 0 -45 -3 -40 -16 3 -8 54 -78 113 -156 59 -77 113 -143 121
-145 7 -3 15 -3 17 -1 3 2 -47 68 -110 146 -63 78 -115 144 -115 147 0 3 8 5
17 5 9 0 35 9 58 20 22 11 48 33 58 49 9 16 17 43 17 61 0 17 -7 44 -15 59 -8
16 -34 38 -58 50 -28 14 -63 21 -100 21 l-57 0 0 -280z"/>
<path d="M8570 2720 l0 -280 120 0 c73 0 120 4 120 10 0 6 -42 10 -105 10
l-105 0 0 260 0 260 105 0 c63 0 105 4 105 10 0 6 -47 10 -120 10 l-120 0 0
-280z"/>
<path d="M9520 2720 l0 -283 78 5 c52 3 91 12 119 26 23 12 58 38 77 58 19 19
42 52 52 72 11 22 20 67 22 113 3 62 0 83 -19 123 -12 27 -38 64 -56 82 -18
19 -53 44 -76 56 -28 14 -67 23 -119 26 l-78 5 0 -283z m198 229 c35 -20 63
-46 83 -77 16 -26 34 -65 40 -87 6 -22 9 -63 6 -91 -3 -28 -17 -74 -31 -102
-14 -28 -40 -62 -58 -75 -18 -14 -47 -32 -65 -41 -18 -9 -56 -16 -88 -16 l-55
0 0 260 0 260 58 0 c45 0 68 -6 110 -31z"/>
<path d="M5143 2718 c-34 -150 -60 -275 -57 -278 3 -2 8 1 12 7 4 7 29 117 56
245 26 128 51 237 56 241 4 5 51 -65 105 -155 54 -90 104 -171 110 -180 9 -14
27 11 115 163 57 99 106 182 110 184 4 2 26 -89 49 -203 24 -114 47 -228 53
-254 6 -32 15 -48 25 -48 8 0 13 6 11 13 -3 6 -31 130 -64 274 -32 145 -61
263 -64 263 -3 0 -52 -83 -110 -184 -58 -101 -108 -182 -112 -180 -3 2 -55 85
-115 184 -59 99 -110 180 -113 180 -3 0 -33 -123 -67 -272z"/>
<path d="M9113 2928 c-18 -35 -82 -159 -142 -275 -61 -117 -106 -213 -101
-213 6 0 34 47 62 105 l53 105 160 0 160 0 53 -105 c31 -64 58 -105 67 -105
10 0 -19 66 -96 213 -60 116 -124 240 -142 275 -17 34 -34 62 -37 62 -3 0 -20
-28 -37 -62z m107 -108 c38 -77 70 -142 70 -145 0 -3 -65 -5 -145 -5 -80 0
-145 3 -145 6 0 4 32 69 72 145 39 77 73 139 75 139 1 0 34 -63 73 -140z"/>
<path d="M4825 2740 c-23 -6 -12 -8 43 -9 42 -1 72 3 72 9 0 6 -19 9 -42 9
-24 -1 -56 -5 -73 -9z"/>
<path d="M8645 2740 c-23 -6 -12 -8 43 -9 42 -1 72 3 72 9 0 6 -19 9 -42 9
-24 -1 -56 -5 -73 -9z"/>
<path d="M4171 2459 c-18 -55 -31 -103 -28 -105 2 -2 23 39 46 91 23 52 39
100 36 105 -3 6 -9 10 -13 10 -4 0 -23 -45 -41 -101z"/>
<path d="M9974 2486 c-3 -9 -3 -23 0 -32 3 -8 14 -14 23 -12 12 2 18 12 18 28
0 16 -6 26 -18 28 -9 2 -20 -4 -23 -12z"/>
</g>
</svg>
