<?xml version="1.0" standalone="no"?>
<!DOCTYPE svg PUBLIC "-//W3C//DTD SVG 20010904//EN"
 "http://www.w3.org/TR/2001/REC-SVG-20010904/DTD/svg10.dtd">
<svg version="1.0" xmlns="http://www.w3.org/2000/svg"
 width="800.000000pt" height="800.000000pt" viewBox="0 0 800.000000 800.000000"
 preserveAspectRatio="xMidYMid meet">
<metadata>
Created by potrace 1.16, written by Peter Selinger 2001-2019
</metadata>
<g transform="translate(0.000000,800.000000) scale(0.100000,-0.100000)"
fill="#000000" stroke="none">
<path d="M3130 5664 c-124 -7 -262 -20 -308 -28 -55 -10 -102 -26 -145 -49
-34 -20 -81 -52 -105 -72 -23 -21 -54 -59 -67 -86 -14 -27 -32 -77 -40 -111
-9 -36 -22 -185 -31 -343 -13 -243 -14 -389 -4 -1100 6 -451 15 -876 21 -945
5 -69 14 -178 19 -243 5 -65 14 -136 20 -158 6 -22 19 -59 30 -83 10 -25 35
-63 55 -85 20 -22 55 -51 79 -64 23 -13 68 -31 101 -40 33 -9 98 -21 145 -27
47 -5 227 -15 400 -21 173 -6 371 -8 440 -4 69 4 469 10 890 15 733 8 768 9
845 29 50 13 100 35 133 58 29 20 66 53 83 74 17 21 40 65 51 96 16 46 23 99
30 248 5 106 7 685 5 1310 -3 733 -8 1153 -16 1215 -6 52 -18 123 -27 158 -9
34 -29 80 -45 102 -16 22 -53 56 -82 74 -29 19 -84 43 -122 55 -55 17 -103 23
-240 26 -93 3 -557 6 -1030 9 -628 2 -921 0 -1085 -10z m2115 -9 c116 -3 188
-10 225 -21 30 -9 80 -31 110 -49 30 -19 67 -46 82 -62 15 -15 36 -49 47 -74
12 -25 25 -77 31 -115 5 -38 14 -157 21 -264 7 -132 9 -566 6 -1340 -3 -965
-6 -1154 -19 -1200 -8 -30 -20 -66 -28 -80 -7 -14 -26 -42 -42 -62 -16 -20
-56 -55 -88 -77 -37 -24 -86 -46 -127 -56 -58 -14 -182 -18 -848 -27 -429 -6
-922 -11 -1095 -10 -173 0 -389 6 -480 12 -90 6 -196 17 -234 25 -39 8 -94 27
-124 42 -29 15 -70 46 -92 69 -21 23 -47 59 -58 81 -11 21 -25 57 -31 80 -6
23 -16 95 -21 160 -5 65 -14 174 -19 243 -6 69 -15 494 -21 945 -10 711 -9
857 4 1100 9 154 22 307 30 340 8 33 27 81 41 107 15 26 45 64 68 84 23 20 73
53 111 74 51 28 89 41 150 50 44 7 178 18 296 25 151 8 471 11 1075 8 473 -2
937 -5 1030 -8z"/>
<path d="M3135 5603 c-126 -7 -263 -19 -303 -27 -40 -8 -93 -25 -119 -38 -26
-13 -70 -45 -99 -71 -38 -34 -59 -64 -73 -103 -12 -30 -25 -94 -30 -142 -5
-48 -15 -188 -21 -312 -10 -173 -10 -417 -1 -1050 6 -454 16 -881 21 -950 6
-69 20 -161 31 -204 11 -44 29 -95 39 -115 10 -20 36 -52 57 -72 21 -20 52
-44 68 -52 17 -8 57 -23 90 -33 53 -16 121 -18 604 -21 300 -3 555 -2 568 2
l23 5 0 689 c0 619 -2 689 -16 695 -9 3 -78 6 -155 6 -136 0 -140 1 -148 23
-4 12 -14 100 -21 196 l-13 174 23 19 c19 15 41 18 154 18 72 0 141 3 154 6
22 6 22 9 22 149 0 88 6 175 16 226 8 45 28 107 44 138 15 31 46 76 68 101 22
25 65 60 96 79 30 18 88 42 128 53 59 17 106 21 248 22 96 0 188 -3 203 -7 16
-4 32 -18 37 -33 6 -14 10 -94 10 -179 0 -85 -4 -165 -9 -178 -9 -24 -14 -25
-123 -29 -82 -3 -123 -9 -150 -22 -22 -11 -43 -32 -55 -54 -14 -29 -18 -61
-18 -147 l0 -110 173 0 c141 -1 175 -3 182 -15 6 -8 10 -23 10 -32 0 -9 -15
-91 -34 -182 -19 -90 -39 -173 -45 -184 -6 -11 -25 -22 -42 -26 -17 -3 -73 -6
-123 -6 -50 0 -97 -4 -104 -9 -11 -7 -12 -126 -5 -685 7 -573 10 -678 22 -686
9 -5 191 -7 420 -4 223 3 441 9 484 14 46 6 100 20 132 36 30 14 67 40 80 59
14 18 34 57 45 87 10 30 24 101 30 159 7 69 11 440 11 1099 -1 565 -5 1079
-11 1190 -6 107 -15 223 -21 258 -5 35 -17 81 -25 103 -9 21 -36 57 -60 78
-24 21 -69 48 -101 60 -33 13 -98 25 -157 31 -56 5 -524 11 -1041 13 -699 3
-999 0 -1170 -10z m2215 -14 c84 -7 117 -15 167 -39 36 -18 78 -49 102 -76 25
-28 43 -62 50 -92 7 -26 16 -94 22 -152 6 -58 14 -463 17 -900 4 -437 4 -973
0 -1190 -4 -277 -10 -413 -20 -456 -8 -33 -26 -82 -42 -108 -17 -29 -46 -59
-74 -77 -25 -16 -62 -34 -82 -40 -21 -7 -217 -14 -495 -20 -305 -5 -463 -5
-470 2 -6 6 -13 254 -18 671 -5 363 -6 666 -3 674 4 11 28 14 98 14 51 0 110
3 131 7 29 4 41 12 49 32 5 14 25 99 44 189 19 90 34 173 34 185 0 12 -4 29
-10 37 -7 11 -41 14 -182 15 l-173 0 -3 94 c-2 77 1 100 17 135 11 23 35 50
53 61 26 15 58 21 153 25 117 5 119 6 126 30 4 14 7 93 8 176 1 83 -2 166 -5
184 -5 21 -15 35 -33 43 -16 6 -98 11 -206 11 -156 0 -191 -3 -265 -22 -47
-13 -109 -37 -139 -55 -29 -18 -71 -52 -94 -77 -22 -25 -52 -72 -68 -106 -15
-33 -35 -98 -43 -143 -10 -51 -16 -137 -16 -221 0 -116 -2 -139 -16 -144 -9
-3 -73 -6 -144 -6 -71 0 -140 -4 -153 -9 -14 -6 -28 -20 -32 -32 -4 -12 -2
-95 5 -183 7 -89 15 -174 19 -191 l7 -30 155 -5 154 -5 0 -685 0 -685 -550 0
c-436 0 -561 3 -605 14 -30 7 -75 24 -100 36 -25 13 -60 38 -78 56 -19 18 -44
54 -56 79 -13 25 -31 77 -40 115 -9 39 -21 122 -26 185 -5 63 -15 489 -21 945
-9 639 -9 882 1 1055 6 124 16 265 21 315 6 55 19 109 33 140 12 27 38 65 57
83 19 18 60 49 91 68 37 22 84 41 130 50 40 8 177 20 303 27 171 10 471 13
1170 10 517 -2 987 -8 1045 -14z"/>
<path d="M4445 4959 c-38 -5 -92 -17 -120 -26 -27 -8 -66 -24 -86 -34 -20 -10
-59 -43 -87 -73 -30 -34 -59 -78 -71 -112 -12 -30 -26 -86 -31 -122 -5 -37
-10 -138 -10 -225 l0 -157 -26 -10 c-14 -6 -90 -10 -169 -10 -86 0 -146 -4
-150 -10 -3 -6 -1 -72 5 -148 6 -75 13 -145 16 -154 5 -16 21 -18 153 -18 113
0 151 -3 160 -14 8 -9 11 -206 12 -697 1 -376 3 -694 6 -706 5 -23 6 -23 203
-23 177 0 199 2 202 17 2 9 -1 323 -5 697 -5 438 -4 689 2 702 9 21 18 22 139
25 72 2 134 7 137 11 4 4 22 74 39 156 18 82 30 154 28 160 -3 9 -53 12 -167
12 -158 0 -164 1 -179 22 -12 17 -16 48 -16 121 0 54 5 119 12 144 7 30 25 60
52 88 25 27 56 47 81 54 22 6 77 11 121 11 65 0 83 3 88 16 3 9 6 78 6 154 0
77 -4 141 -10 145 -5 3 -67 7 -137 10 -70 2 -159 0 -198 -6z m327 -17 c5 -5 7
-71 6 -148 l-3 -139 -100 -6 c-55 -3 -116 -13 -136 -21 -19 -9 -49 -32 -66
-53 -19 -23 -35 -58 -43 -94 -7 -32 -10 -103 -8 -160 2 -88 6 -105 22 -117 15
-11 57 -14 176 -14 86 0 159 -2 162 -5 2 -3 -9 -71 -27 -152 -25 -119 -34
-148 -50 -154 -11 -4 -69 -8 -130 -8 -60 -1 -117 -6 -125 -11 -13 -8 -15 -50
-15 -277 0 -147 1 -461 3 -698 1 -236 2 -436 2 -442 0 -10 -45 -13 -189 -13
-172 0 -190 2 -194 18 -3 9 -5 327 -6 706 -1 486 -4 693 -12 702 -8 10 -51 14
-163 16 l-151 3 -7 60 c-3 33 -8 101 -10 150 l-3 90 160 5 c88 3 166 9 173 13
9 6 12 52 12 170 0 89 5 193 10 232 6 38 21 93 34 121 13 29 44 74 68 100 23
26 59 57 78 69 19 12 58 29 85 38 28 9 82 21 120 26 39 6 126 8 194 6 68 -2
128 -8 133 -13z"/>
<path d="M2580 2503 c0 -6 10 -21 23 -34 12 -14 38 -35 58 -47 20 -12 72 -32
115 -44 75 -21 105 -22 644 -27 l565 -6 3 -24 c2 -13 0 -27 -5 -32 -5 -5 -193
-9 -424 -9 -228 0 -472 4 -544 10 -71 5 -161 17 -200 25 -38 9 -93 29 -122 45
-28 16 -67 49 -86 72 -19 24 -37 50 -40 58 -4 12 -6 12 -6 -2 -1 -9 14 -36 32
-60 18 -23 53 -55 77 -70 25 -15 79 -36 120 -47 41 -10 139 -24 217 -30 79 -6
330 -11 559 -11 228 0 420 2 425 5 5 4 9 18 9 33 0 15 -4 32 -8 39 -5 8 -156
13 -572 16 -457 3 -576 7 -621 19 -31 8 -77 25 -103 38 -26 12 -63 38 -82 58
-19 19 -34 31 -34 25z"/>
<path d="M5626 2471 c-16 -16 -49 -39 -75 -50 -26 -11 -76 -25 -112 -30 -35
-6 -188 -11 -339 -12 -151 -1 -345 -4 -430 -8 l-155 -6 -3 -42 -3 -43 338 0
c186 0 398 5 471 10 102 8 148 16 195 35 41 17 80 43 115 77 28 29 52 57 52
63 0 6 -30 -19 -67 -55 -47 -45 -83 -70 -118 -83 -27 -9 -106 -22 -175 -27
-69 -5 -277 -10 -462 -10 l-338 0 0 30 c0 17 6 33 13 35 6 3 217 9 467 14 429
8 459 10 524 30 47 16 81 35 110 62 22 21 36 39 30 39 -5 0 -23 -13 -38 -29z"/>
<path d="M4068 2363 c-13 -3 -18 -15 -18 -43 0 -30 5 -40 20 -45 12 -4 102 -3
201 1 176 7 179 7 185 30 3 12 3 32 -1 43 -6 20 -13 21 -188 20 -100 -1 -190
-3 -199 -6z m377 -38 l0 -30 -177 -9 c-98 -4 -185 -6 -193 -2 -9 3 -15 18 -15
35 0 16 6 32 13 34 6 3 93 5 192 4 l180 -2 0 -30z"/>
</g>
</svg>
