<?xml version="1.0" standalone="no"?>
<!DOCTYPE svg PUBLIC "-//W3C//DTD SVG 20010904//EN"
 "http://www.w3.org/TR/2001/REC-SVG-20010904/DTD/svg10.dtd">
<svg version="1.0" xmlns="http://www.w3.org/2000/svg"
 width="800.000000pt" height="800.000000pt" viewBox="0 0 800.000000 800.000000"
 preserveAspectRatio="xMidYMid meet">
<metadata>
Created by potrace 1.16, written by Peter Selinger 2001-2019
</metadata>
<g transform="translate(0.000000,800.000000) scale(0.100000,-0.100000)"
fill="#000000" stroke="none">
<path d="M5976 6428 c-8 -13 -40 -75 -70 -138 -30 -63 -80 -178 -111 -255 -32
-77 -61 -148 -67 -158 -5 -10 -13 -15 -19 -12 -5 4 -41 12 -80 18 l-71 12 -59
180 c-33 99 -72 204 -87 235 -22 44 -32 55 -52 55 -24 0 -25 -3 -23 -57 1 -40
21 -113 64 -240 34 -101 63 -188 66 -194 2 -5 -21 -27 -51 -48 -30 -20 -65
-54 -78 -74 -13 -20 -29 -49 -36 -64 -10 -23 -18 -28 -49 -28 -21 0 -114 -5
-208 -10 -93 -5 -381 -14 -640 -20 -258 -6 -693 -17 -965 -25 -272 -9 -664
-24 -870 -35 -206 -11 -429 -25 -495 -31 -66 -5 -179 -17 -251 -24 -73 -8
-165 -25 -207 -38 -46 -15 -101 -43 -140 -70 -35 -25 -87 -71 -116 -103 -28
-31 -65 -76 -82 -100 -17 -25 -39 -64 -50 -88 -10 -24 -28 -88 -39 -142 -11
-54 -25 -152 -31 -218 -7 -73 -8 -199 -4 -316 3 -107 10 -238 16 -290 5 -52
16 -174 24 -270 9 -100 19 -401 25 -700 5 -289 12 -574 15 -635 3 -60 13 -171
21 -245 8 -74 26 -180 40 -235 13 -55 37 -127 53 -160 15 -33 47 -81 71 -108
30 -33 66 -59 124 -86 44 -22 113 -49 151 -60 39 -11 102 -25 140 -31 39 -6
138 -11 220 -11 83 0 222 7 310 16 88 8 257 24 375 35 118 11 332 29 475 40
144 11 425 24 625 31 201 6 518 11 705 11 187 0 450 -5 585 -11 135 -6 315
-16 400 -23 85 -6 288 -11 450 -11 256 0 313 2 429 21 74 12 182 38 240 58 58
20 128 51 156 69 27 18 68 52 91 76 22 24 50 60 62 79 11 19 30 69 42 110 18
62 23 111 27 275 3 110 0 277 -6 370 -6 94 -20 283 -31 420 -11 138 -29 385
-40 550 -11 165 -27 444 -35 620 -9 176 -22 399 -30 496 -8 98 -23 231 -35
298 -11 66 -29 148 -39 181 -10 33 -33 82 -50 109 -18 27 -54 70 -82 96 -27
26 -78 59 -112 74 -34 15 -89 35 -122 44 -33 9 -103 20 -155 26 -52 6 -166 13
-253 17 l-158 6 -16 32 c-8 17 -26 42 -39 56 l-24 26 51 113 c27 62 71 167 96
234 25 67 53 153 63 191 9 38 15 78 12 88 -2 10 -10 18 -18 18 -7 0 -20 -10
-28 -22z m32 -52 c-5 -22 -18 -70 -30 -106 -11 -36 -34 -99 -50 -140 -16 -41
-33 -84 -38 -95 -5 -11 -26 -58 -48 -105 -21 -47 -42 -96 -47 -108 -5 -18 -1
-30 18 -50 14 -15 32 -41 40 -58 l16 -31 163 -7 c90 -4 206 -11 258 -17 52 -6
122 -17 155 -26 33 -9 86 -29 118 -45 32 -16 79 -48 104 -71 26 -23 64 -69 85
-101 21 -33 45 -82 53 -110 9 -28 24 -104 36 -169 11 -66 26 -198 34 -296 8
-97 21 -320 30 -496 8 -176 24 -455 35 -620 11 -165 29 -412 40 -550 11 -137
25 -326 31 -420 6 -93 9 -260 6 -370 -4 -140 -10 -218 -22 -260 -9 -33 -28
-80 -42 -105 -14 -25 -46 -67 -72 -93 -25 -27 -71 -64 -102 -82 -30 -19 -96
-48 -146 -65 -51 -16 -152 -40 -225 -52 -115 -19 -173 -21 -428 -21 -162 0
-365 5 -450 11 -85 7 -265 17 -400 23 -135 6 -398 11 -585 11 -187 0 -504 -5
-705 -11 -200 -7 -481 -20 -625 -31 -143 -11 -357 -29 -475 -40 -118 -11 -287
-27 -375 -35 -88 -9 -227 -16 -310 -16 -82 0 -181 5 -220 11 -38 6 -101 20
-140 31 -38 12 -105 39 -148 61 -52 27 -92 57 -121 90 -24 28 -55 73 -70 102
-14 28 -37 96 -50 151 -14 55 -32 161 -40 235 -8 74 -18 185 -21 245 -3 61
-10 346 -15 635 -5 289 -14 577 -20 640 -5 63 -17 192 -26 285 -11 106 -17
267 -18 430 0 210 3 279 18 359 10 55 24 124 32 154 8 30 34 84 57 120 24 37
68 93 97 125 29 32 82 79 117 104 35 25 95 56 133 69 41 15 121 30 202 38 73
8 187 20 253 25 66 6 289 20 495 31 206 11 598 26 870 35 272 8 707 19 965 25
259 6 547 15 640 20 94 5 189 10 213 10 36 0 44 4 52 25 5 13 21 42 36 64 14
22 50 57 80 77 30 21 54 40 54 42 0 3 -29 92 -65 198 -42 125 -66 212 -68 246
-2 41 1 53 13 53 8 0 29 -29 47 -65 18 -36 58 -142 88 -236 l57 -172 60 -6
c33 -4 70 -11 82 -16 13 -4 27 -5 33 -2 5 4 17 27 27 52 10 25 24 59 31 75 7
17 35 80 60 140 26 61 68 151 92 200 25 50 50 96 56 103 7 10 12 10 17 1 4 -6
3 -30 -2 -53z"/>
<path d="M5528 5761 c-26 -11 -61 -30 -77 -43 -18 -15 -26 -30 -22 -37 6 -9
47 -11 169 -5 123 5 162 10 162 20 0 7 -15 24 -32 38 -18 13 -51 29 -73 35
-22 6 -49 11 -60 10 -11 0 -41 -8 -67 -18z m122 -1 c20 -5 51 -23 70 -39 l35
-30 -60 -1 c-33 0 -105 -3 -160 -7 l-100 -6 20 23 c11 13 43 33 70 46 28 13
59 24 70 24 11 0 36 -5 55 -10z"/>
<path d="M5790 5543 c-41 -2 -286 -12 -545 -23 -258 -11 -684 -25 -945 -30
-261 -5 -612 -14 -780 -20 -168 -6 -415 -15 -550 -21 -135 -5 -360 -16 -500
-25 -140 -8 -365 -24 -500 -35 -135 -11 -247 -22 -249 -25 -2 -2 1 -4 8 -4 7
0 119 9 250 20 130 11 351 26 491 34 140 9 365 20 500 25 135 6 382 15 550 21
168 6 519 15 780 20 261 5 684 19 940 31 256 11 573 21 705 21 132 0 281 -5
330 -11 50 -7 100 -15 113 -18 12 -3 22 -9 22 -14 0 -5 -6 -9 -14 -9 -7 0
-105 -55 -217 -123 -112 -68 -316 -193 -454 -279 -137 -86 -359 -228 -492
-315 -132 -87 -364 -239 -514 -338 -151 -99 -330 -209 -399 -244 l-125 -63
-100 4 c-69 4 -116 12 -152 26 -29 12 -103 50 -165 85 -62 35 -293 166 -513
291 -220 126 -499 281 -620 346 -121 64 -326 174 -455 243 -129 68 -285 151
-347 183 -62 32 -114 56 -117 53 -3 -3 45 -31 107 -63 62 -32 218 -115 347
-183 129 -69 334 -179 455 -243 121 -65 400 -220 620 -346 220 -125 447 -254
505 -287 58 -32 134 -70 170 -85 55 -22 81 -26 176 -26 l111 -1 114 57 c63 31
239 139 392 240 154 101 388 254 520 341 133 87 352 227 487 311 135 84 316
197 404 250 87 54 188 113 224 132 36 20 67 41 68 48 1 9 -21 17 -70 25 -39 7
-138 16 -221 21 -82 5 -177 9 -210 8 -33 -1 -94 -3 -135 -5z"/>
<path d="M6520 5411 c-14 -5 -43 -17 -66 -29 -23 -11 -115 -65 -205 -120 -90
-54 -290 -177 -444 -274 -154 -97 -362 -229 -462 -294 -100 -66 -305 -199
-454 -298 -150 -98 -324 -210 -388 -249 -64 -39 -140 -81 -168 -93 -39 -18
-53 -29 -53 -44 0 -12 9 -39 21 -61 11 -22 55 -77 97 -121 42 -45 169 -160
281 -257 112 -97 253 -217 313 -268 60 -50 191 -154 291 -230 99 -76 248 -190
331 -253 83 -64 266 -204 406 -311 140 -108 323 -245 406 -306 83 -61 181
-129 218 -151 37 -22 81 -44 98 -47 24 -6 35 -2 58 20 16 15 38 49 49 75 11
26 26 81 32 121 8 50 10 160 6 344 -4 149 -13 347 -21 440 -8 94 -24 296 -35
450 -12 154 -25 357 -31 450 -5 94 -17 307 -25 475 -8 168 -22 386 -31 485 -8
99 -26 233 -39 297 -13 65 -32 137 -44 160 -11 24 -32 55 -46 71 -14 15 -36
27 -48 26 -12 0 -33 -4 -47 -8z m85 -28 c14 -16 37 -50 50 -78 13 -27 33 -99
44 -160 11 -60 27 -186 35 -280 9 -93 20 -267 26 -385 6 -118 17 -336 25 -485
9 -148 25 -394 36 -545 11 -151 27 -351 35 -445 8 -93 17 -291 21 -440 4 -186
2 -293 -6 -345 -7 -41 -21 -94 -33 -117 -12 -23 -34 -55 -50 -70 l-28 -27 -37
18 c-21 10 -60 32 -88 49 -27 17 -124 86 -215 152 -91 67 -302 226 -470 355
-168 129 -399 306 -515 394 -115 87 -263 201 -328 253 -65 52 -171 140 -235
196 -64 56 -178 155 -252 218 -74 64 -170 152 -212 197 -42 44 -86 99 -97 121
-12 22 -21 45 -21 51 0 6 25 22 55 35 30 14 106 56 169 94 62 38 235 149 385
247 149 99 354 232 454 298 100 65 308 197 462 294 154 97 354 220 444 274 90
55 182 109 205 121 23 12 50 25 61 28 11 4 28 7 37 8 9 1 29 -11 43 -26z"/>
<path d="M6502 5158 c-7 -7 -12 -31 -12 -54 0 -23 7 -79 16 -125 9 -46 22 -98
29 -116 10 -25 20 -33 38 -33 14 0 31 7 38 17 9 11 14 43 14 97 0 61 -6 96
-24 144 -13 34 -32 67 -42 72 -10 6 -24 10 -31 10 -8 0 -19 -5 -26 -12z m81
-59 c21 -41 30 -77 33 -130 4 -51 1 -82 -8 -99 -8 -14 -21 -26 -30 -28 -10 -2
-23 8 -32 25 -8 16 -22 66 -30 112 -9 46 -16 100 -16 120 0 20 6 43 12 49 7 7
19 11 28 10 8 -2 28 -28 43 -59z"/>
<path d="M6583 4461 c-4 -9 -9 -169 -11 -356 -2 -187 1 -466 7 -620 6 -154 18
-413 27 -575 8 -162 22 -326 30 -365 7 -38 20 -75 27 -82 8 -8 21 -11 31 -7
10 4 22 18 27 32 5 14 12 73 15 131 4 58 1 221 -5 361 -6 140 -17 388 -26 550
-8 162 -22 390 -30 505 -9 116 -20 246 -26 290 -5 44 -14 96 -19 116 -6 20
-16 36 -25 36 -8 0 -18 -7 -22 -16z m52 -112 c8 -52 21 -193 30 -314 8 -121
22 -350 30 -510 9 -159 20 -405 26 -545 6 -140 8 -304 5 -364 -4 -77 -11 -117
-22 -134 l-17 -26 -18 22 c-9 12 -22 52 -28 89 -6 38 -18 194 -26 348 -8 154
-19 411 -26 570 -6 160 -9 439 -7 620 1 182 7 336 12 343 5 9 12 10 18 4 5 -5
16 -52 23 -103z"/>
<path d="M4942 4265 c-19 -8 -37 -26 -43 -42 -6 -15 -11 -65 -11 -111 1 -50 7
-103 17 -133 14 -42 23 -54 53 -66 25 -10 45 -12 65 -6 17 4 39 21 51 36 18
24 21 42 20 112 -1 47 -7 104 -14 129 -7 25 -22 53 -34 64 -11 11 -32 22 -46
25 -14 3 -40 -1 -58 -8z m95 -28 c12 -11 27 -35 33 -53 7 -19 12 -71 13 -117
2 -65 -2 -89 -16 -110 -10 -16 -29 -33 -42 -39 -18 -8 -32 -8 -56 2 -22 10
-37 27 -51 57 -13 29 -19 68 -20 125 -1 46 2 93 6 106 4 13 22 32 39 43 19 11
40 16 52 13 11 -4 30 -15 42 -27z"/>
<path d="M5100 5384 c-30 -2 -197 -11 -370 -19 -173 -8 -445 -20 -605 -25
-159 -5 -438 -10 -620 -10 -181 0 -436 -5 -565 -10 -129 -5 -327 -17 -440 -26
-113 -9 -208 -18 -212 -21 -5 -2 -8 -11 -8 -19 0 -11 16 -14 68 -16 37 0 105
0 152 1 47 1 326 -5 620 -14 378 -12 646 -15 915 -11 209 4 517 11 685 16 168
6 393 15 500 20 107 6 239 15 292 21 53 5 116 15 140 22 36 11 44 17 46 40 3
22 -2 29 -25 39 -18 8 -112 12 -273 13 -135 1 -270 1 -300 -1z m568 -22 c13
-8 22 -21 20 -30 -2 -9 -20 -22 -40 -29 -19 -6 -80 -16 -134 -22 -55 -6 -187
-15 -294 -21 -107 -5 -332 -14 -500 -20 -168 -5 -476 -12 -685 -16 -269 -4
-537 -1 -915 11 -294 9 -573 15 -620 14 -47 -1 -114 -1 -149 -1 -41 1 -61 6
-55 11 5 6 99 17 209 25 110 9 306 21 435 26 129 5 384 10 565 10 182 0 461 5
620 10 160 5 432 17 605 25 173 8 340 17 370 19 30 2 165 3 300 2 180 -1 251
-5 268 -14z"/>
<path d="M1487 5234 c-32 -31 -71 -76 -88 -100 -17 -24 -37 -60 -45 -80 -8
-19 -24 -79 -36 -132 -19 -87 -21 -128 -22 -387 0 -164 6 -340 13 -405 6 -63
19 -196 27 -295 8 -99 19 -425 24 -725 5 -300 14 -599 20 -665 5 -66 15 -154
20 -196 6 -41 22 -118 36 -170 14 -51 36 -113 49 -136 14 -23 42 -55 62 -72
20 -17 57 -37 82 -46 45 -15 47 -15 106 15 33 16 89 52 125 79 36 27 130 109
210 183 80 74 395 377 700 673 305 296 667 644 803 774 140 133 274 270 308
314 32 43 62 89 65 103 3 13 4 30 1 38 -3 7 -54 39 -114 71 -59 32 -256 142
-438 245 -181 103 -460 260 -620 350 -159 89 -328 184 -375 210 -47 26 -144
79 -216 118 -72 39 -203 106 -290 150 -88 43 -189 91 -226 106 -37 14 -80 29
-95 32 -24 4 -37 -3 -86 -52z m145 22 c35 -13 142 -63 238 -111 96 -48 234
-119 305 -158 72 -38 168 -91 215 -117 47 -26 216 -121 375 -210 160 -90 443
-249 630 -355 187 -106 385 -217 440 -246 55 -30 101 -61 103 -70 1 -9 -17
-44 -40 -80 -24 -35 -77 -98 -118 -140 -41 -41 -185 -180 -320 -309 -135 -129
-472 -455 -750 -724 -278 -269 -570 -550 -650 -624 -80 -74 -176 -158 -215
-187 -38 -29 -94 -64 -123 -79 l-52 -26 -54 25 c-30 14 -68 42 -85 61 -17 19
-40 52 -50 73 -11 21 -29 74 -40 118 -11 44 -25 111 -30 149 -6 38 -15 125
-21 194 -6 69 -15 370 -20 670 -5 300 -16 626 -24 725 -8 99 -21 232 -27 295
-7 65 -13 241 -13 405 1 260 3 300 22 388 12 53 29 112 38 130 9 17 30 51 45
73 16 23 54 67 86 98 32 31 61 56 65 56 4 0 36 -11 70 -24z"/>
<path d="M1534 4846 c-3 -8 -4 -23 -2 -33 2 -10 14 -19 27 -21 13 -2 28 1 33
6 6 6 8 22 4 36 -5 19 -13 26 -32 26 -13 0 -27 -6 -30 -14z m50 -12 c3 -9 4
-20 0 -25 -3 -5 -11 -9 -19 -9 -8 0 -17 5 -20 10 -4 6 -4 17 -1 25 3 8 12 15
20 15 7 0 17 -7 20 -16z"/>
<path d="M1890 4808 c-14 -4 -34 -21 -43 -37 -9 -16 -17 -43 -17 -60 0 -24 6
-34 22 -40 12 -4 30 -6 40 -3 10 2 30 18 44 35 18 22 24 39 22 65 -2 24 -9 37
-23 42 -11 4 -31 3 -45 -2z m60 -44 c0 -16 -13 -39 -35 -61 -29 -29 -37 -33
-55 -23 -13 7 -20 21 -20 38 1 15 8 36 18 48 9 11 26 25 37 31 13 8 26 8 37 2
10 -6 18 -21 18 -35z"/>
<path d="M3067 4182 c-8 -9 -20 -30 -26 -45 -6 -16 -11 -65 -11 -110 0 -45 5
-99 11 -119 5 -21 20 -50 32 -64 16 -19 33 -26 60 -27 28 -1 44 6 65 26 26 26
27 31 27 135 0 80 -5 119 -18 155 -10 26 -27 52 -37 57 -10 6 -34 10 -53 10
-20 0 -41 -7 -50 -18z m108 -18 c14 -15 29 -49 35 -81 7 -31 10 -90 8 -131 -3
-69 -6 -76 -36 -104 -24 -21 -39 -27 -55 -23 -12 4 -34 20 -48 37 -15 16 -30
43 -33 60 -3 17 -6 66 -6 110 0 44 5 89 11 101 6 12 18 30 27 40 8 9 28 17 44
17 18 0 38 -10 53 -26z"/>
<path d="M1675 2674 c-10 -10 -15 -29 -13 -48 2 -26 8 -32 31 -34 16 -2 34 2
41 8 8 6 16 21 18 34 3 13 1 31 -4 40 -5 9 -20 16 -33 16 -13 0 -31 -7 -40
-16z m63 -7 c8 -9 7 -20 -1 -37 -8 -17 -21 -25 -37 -25 -18 0 -26 6 -28 21 -2
12 4 29 13 38 9 9 22 16 29 16 8 0 18 -6 24 -13z"/>
<path d="M1675 2525 c4 -27 15 -90 25 -140 10 -49 32 -126 49 -171 20 -52 44
-94 67 -117 25 -24 51 -39 82 -46 26 -5 48 -8 50 -6 2 2 -5 5 -15 8 -10 3 -29
8 -43 11 -14 3 -40 20 -59 38 -18 17 -43 53 -56 78 -12 25 -32 74 -43 110 -11
36 -27 112 -36 170 -10 57 -20 107 -22 110 -3 3 -3 -17 1 -45z"/>
<path d="M5467 4996 c-119 -57 -330 -162 -469 -234 -139 -71 -343 -181 -453
-244 -110 -63 -260 -152 -334 -197 -73 -45 -157 -98 -187 -118 -30 -20 -52
-38 -50 -41 3 -2 65 34 138 81 73 46 211 130 306 186 96 56 244 141 330 188
87 47 337 175 557 284 220 109 395 199 389 199 -5 0 -108 -47 -227 -104z"/>
<path d="M4085 3903 c-27 -20 -147 -134 -265 -253 -118 -119 -462 -455 -765
-746 -302 -292 -635 -611 -740 -711 -104 -100 -235 -220 -290 -268 -55 -48
-117 -99 -137 -113 -21 -13 -38 -30 -38 -37 0 -7 10 -15 23 -19 12 -3 90 -6
172 -6 83 1 215 7 295 15 80 7 269 25 420 39 151 14 383 32 515 41 132 8 391
19 575 25 184 5 488 10 675 10 187 0 450 -5 585 -10 135 -5 322 -15 415 -21
94 -6 298 -12 455 -12 223 0 308 4 390 17 58 10 139 27 181 38 47 12 76 25 75
33 -1 7 -53 47 -116 90 -63 42 -245 176 -405 296 -159 120 -450 341 -646 491
-196 150 -389 300 -430 333 -41 32 -195 163 -344 291 -148 127 -302 265 -341
306 -39 41 -95 104 -124 141 -30 37 -61 67 -69 67 -9 0 -38 -17 -66 -37z m125
-40 c29 -37 85 -100 124 -141 39 -41 193 -179 341 -306 149 -128 303 -259 344
-291 41 -33 234 -183 430 -333 196 -150 489 -373 651 -495 162 -122 343 -254
402 -292 58 -39 105 -74 104 -79 -1 -5 -22 -15 -47 -23 -24 -7 -100 -23 -169
-35 -108 -18 -163 -21 -410 -21 -157 0 -361 6 -455 12 -93 6 -280 16 -415 21
-135 5 -398 10 -585 10 -187 0 -491 -5 -675 -10 -184 -6 -443 -17 -575 -25
-132 -9 -364 -27 -515 -41 -151 -14 -340 -32 -420 -39 -80 -8 -215 -14 -300
-15 -85 0 -161 4 -168 9 -9 5 -2 15 25 33 21 14 83 65 138 113 55 48 230 211
390 364 159 152 503 482 765 734 261 252 561 545 665 651 105 106 213 209 240
229 28 20 53 37 56 37 3 0 29 -30 59 -67z"/>
<path d="M4021 3803 c2 -6 85 -83 184 -170 99 -87 257 -224 350 -304 94 -80
240 -201 325 -270 85 -69 202 -161 260 -205 58 -45 202 -150 320 -234 118 -85
337 -236 487 -337 150 -101 278 -183 284 -183 7 0 10 2 8 4 -2 2 -122 82 -266
178 -144 97 -375 257 -515 356 -139 100 -325 238 -413 307 -88 69 -232 186
-320 259 -88 73 -272 231 -410 351 -137 120 -261 227 -274 239 -13 12 -22 16
-20 9z"/>
<path d="M3802 3543 c-18 -10 -80 -58 -138 -108 -59 -49 -232 -217 -385 -373
-170 -173 -279 -291 -279 -303 0 -12 7 -19 18 -19 10 0 49 26 88 57 38 32 105
91 149 133 44 41 136 129 205 195 69 67 187 174 263 239 76 65 142 128 146
140 5 11 7 28 6 36 -1 8 -10 16 -21 18 -10 1 -34 -5 -52 -15z m61 -5 c2 -7 0
-21 -5 -30 -4 -10 -70 -70 -146 -135 -75 -65 -207 -185 -292 -267 -85 -82
-193 -183 -240 -225 -47 -42 -102 -89 -123 -105 -21 -16 -40 -26 -44 -23 -3 4
44 59 105 124 61 65 197 204 304 309 106 104 222 215 258 246 36 30 85 69 109
87 24 17 50 31 57 31 7 0 14 -6 17 -12z"/>
<path d="M2756 2570 c-43 -45 -76 -88 -76 -100 0 -11 6 -20 13 -20 6 0 51 34
100 76 64 56 87 82 87 100 0 19 -5 24 -24 24 -16 0 -46 -24 -100 -80z m114 56
c0 -7 -33 -42 -72 -76 -40 -35 -81 -70 -90 -78 -12 -10 -18 -11 -18 -3 0 6 34
47 76 91 42 44 83 80 90 80 8 0 14 -6 14 -14z"/>
<path d="M5150 5967 c0 -13 13 -42 30 -65 16 -23 39 -46 50 -52 12 -6 33 -10
48 -8 21 2 28 9 30 29 2 20 -8 36 -47 72 -37 35 -58 47 -81 47 -25 0 -30 -4
-30 -23z m100 -33 c28 -26 50 -53 50 -61 0 -7 -7 -16 -16 -20 -8 -3 -26 -1
-39 5 -14 6 -38 30 -55 53 -16 23 -30 48 -30 56 0 7 9 13 20 13 12 0 43 -21
70 -46z"/>
<path d="M1170 1900 c-74 -15 -169 -38 -210 -50 -41 -12 -97 -32 -125 -45 -28
-12 -61 -35 -73 -50 -12 -15 -22 -35 -22 -44 0 -10 13 -29 28 -44 15 -15 56
-38 90 -51 35 -14 87 -32 117 -40 29 -9 96 -25 148 -36 52 -10 137 -26 189
-34 51 -8 167 -24 258 -35 91 -12 264 -30 385 -41 121 -10 328 -26 460 -35
132 -8 350 -19 485 -25 135 -5 459 -15 720 -21 261 -6 608 -8 770 -4 162 3
439 10 615 16 176 5 400 14 498 19 98 5 251 14 340 20 89 6 259 19 377 31 118
11 285 29 370 40 85 11 207 29 270 40 63 11 167 32 230 48 64 16 142 41 175
56 33 14 70 36 82 47 15 14 23 33 23 55 0 29 -6 37 -45 62 -25 16 -82 41 -128
55 -45 15 -131 37 -190 50 -60 13 -105 20 -100 16 4 -4 64 -20 132 -34 69 -15
148 -36 176 -47 28 -10 72 -32 98 -49 34 -21 47 -36 47 -53 0 -13 -10 -33 -22
-45 -13 -11 -46 -32 -75 -46 -28 -15 -104 -40 -170 -56 -65 -16 -170 -38 -233
-49 -63 -11 -185 -29 -270 -40 -85 -11 -252 -29 -370 -40 -118 -12 -288 -25
-377 -31 -89 -6 -242 -15 -340 -20 -98 -5 -322 -14 -498 -19 -176 -6 -453 -13
-615 -16 -162 -4 -509 -2 -770 4 -261 6 -585 16 -720 21 -135 6 -353 17 -485
25 -132 9 -339 25 -460 35 -121 11 -294 29 -385 41 -91 11 -207 27 -258 35
-52 8 -137 24 -189 34 -52 11 -120 27 -151 36 -31 9 -82 28 -112 41 -30 13
-67 36 -82 50 -16 15 -28 32 -28 38 0 6 12 23 28 37 15 14 45 35 67 46 22 11
74 30 115 42 41 12 137 35 213 50 76 16 141 31 144 34 4 3 2 6 -3 5 -5 0 -70
-13 -144 -29z"/>
</g>
</svg>
