<?xml version="1.0" standalone="no"?>
<!DOCTYPE svg PUBLIC "-//W3C//DTD SVG 20010904//EN"
 "http://www.w3.org/TR/2001/REC-SVG-20010904/DTD/svg10.dtd">
<svg version="1.0" xmlns="http://www.w3.org/2000/svg"
 width="800.000000pt" height="800.000000pt" viewBox="0 0 800.000000 800.000000"
 preserveAspectRatio="xMidYMid meet">
<metadata>
Created by potrace 1.16, written by Peter Selinger 2001-2019
</metadata>
<g transform="translate(0.000000,800.000000) scale(0.100000,-0.100000)"
fill="#000000" stroke="none">
<path d="M3600 7683 c-329 -18 -600 -115 -900 -321 -211 -144 -338 -275 -490
-504 -99 -149 -164 -276 -239 -466 -78 -199 -112 -258 -426 -757 -309 -491
-409 -756 -422 -1120 -7 -202 14 -337 79 -507 10 -27 38 -39 38 -18 0 5 -5 9
-11 7 -17 -3 -65 149 -85 265 -21 128 -14 366 15 509 48 238 161 480 396 854
310 493 339 543 410 725 111 286 238 502 424 723 210 251 640 505 963 571 234
48 638 34 858 -29 30 -9 98 -20 151 -25 164 -15 437 -70 559 -112 186 -66 391
-175 552 -295 166 -123 263 -235 359 -408 l41 -75 -33 -27 c-17 -16 -39 -32
-48 -37 -30 -17 -30 -29 0 -88 29 -58 79 -240 79 -289 0 -43 17 -49 92 -30
l67 17 31 -130 c17 -72 37 -158 45 -191 21 -91 52 -267 70 -395 16 -111 69
-474 81 -553 3 -22 19 -74 35 -117 41 -114 98 -259 109 -278 12 -21 219 -450
265 -547 170 -363 231 -719 175 -1006 -12 -57 -23 -113 -26 -124 -4 -15 -3
-17 4 -5 5 8 19 65 31 125 51 263 10 561 -124 895 -29 74 -119 269 -199 433
-80 164 -146 300 -146 303 0 3 -8 24 -19 47 -77 172 -100 276 -156 687 -54
402 -122 722 -217 1025 -147 470 -327 698 -731 923 -199 111 -398 180 -637
223 -198 35 -224 39 -277 39 -28 0 -64 5 -79 10 -118 45 -473 84 -664 73z
m2371 -1247 c27 -83 49 -158 49 -167 0 -13 -15 -21 -62 -32 -35 -8 -66 -12
-70 -10 -5 2 -8 16 -8 31 0 45 -47 223 -76 292 -22 50 -25 65 -14 68 7 3 29
19 49 37 l35 32 24 -51 c13 -28 46 -118 73 -200z"/>
<path d="M2385 7024 c-76 -89 -204 -286 -276 -429 -86 -167 -88 -175 -54 -175
33 0 90 -24 131 -55 18 -14 36 -25 41 -25 9 0 55 108 103 240 17 47 59 142 92
213 47 98 59 130 50 139 -7 7 -12 41 -12 80 0 85 -10 87 -75 12z m76 -104 c2
-8 -17 -58 -43 -110 -41 -86 -118 -271 -118 -286 0 -3 -16 -43 -36 -90 l-36
-84 -42 30 c-22 16 -64 35 -93 42 l-52 12 72 141 c78 152 204 348 283 439 l49
58 6 -69 c4 -37 8 -75 10 -83z"/>
<path d="M2473 6797 c-28 -50 -64 -121 -79 -157 -39 -94 -104 -291 -104 -315
0 -18 13 -26 83 -48 128 -41 269 -69 473 -92 l52 -5 25 42 c42 72 200 389 196
392 -2 2 -42 16 -89 31 -117 38 -296 124 -395 190 -46 30 -89 55 -97 55 -7 0
-36 -42 -65 -93z m150 29 c72 -48 171 -99 287 -149 19 -8 72 -27 117 -41 l81
-27 -75 -147 c-41 -81 -90 -175 -109 -209 l-34 -62 -53 5 c-262 27 -537 95
-537 133 0 26 73 238 109 316 32 70 123 235 129 235 2 0 41 -24 85 -54z"/>
<path d="M4696 6822 c-39 -7 -41 -10 -90 -107 -180 -356 -411 -633 -684 -817
-78 -53 -296 -168 -318 -168 -6 0 -26 -28 -44 -62 -59 -113 -129 -221 -198
-309 -60 -76 -72 -98 -100 -190 -18 -57 -43 -134 -54 -172 -26 -80 -47 -104
-77 -87 -14 7 -21 7 -21 0 0 -5 8 -10 18 -10 14 0 15 -2 2 -10 -16 -10 -44 6
-35 20 3 5 1 11 -4 14 -15 10 -78 140 -95 198 -13 44 -27 65 -78 114 -83 79
-114 100 -193 129 -73 28 -139 32 -189 11 -75 -31 -202 -203 -252 -341 -31
-85 -31 -161 0 -251 32 -93 71 -156 181 -293 178 -223 210 -249 323 -271 60
-11 143 2 163 26 10 12 20 9 71 -18 101 -54 158 -145 158 -252 -1 -66 -27
-124 -85 -181 -58 -58 -121 -87 -206 -93 -56 -4 -75 -1 -121 20 -75 35 -122
79 -158 150 -52 106 -39 231 32 306 18 17 27 32 22 32 -19 0 -63 -55 -79 -99
-22 -63 -19 -159 6 -228 42 -110 160 -193 278 -193 l47 0 -2 -62 -3 -63 8 63
c4 34 10 63 12 65 2 1 29 11 59 21 30 10 64 26 74 35 14 12 20 13 23 3 3 -7
21 -24 41 -37 l36 -24 -41 -39 c-69 -66 -124 -87 -228 -87 -77 0 -98 4 -147
27 -75 35 -148 104 -187 177 -66 125 -62 244 14 378 42 74 48 80 73 75 34 -6
26 3 -10 12 -25 6 -30 1 -72 -77 -100 -183 -73 -375 69 -506 77 -70 146 -95
260 -96 82 0 96 3 158 33 49 24 79 47 109 85 69 87 83 127 82 242 0 90 -3 106
-30 165 -17 36 -51 85 -75 109 -40 40 -127 91 -156 91 -6 0 -15 4 -18 10 -4 6
5 7 23 4 23 -5 32 -1 46 20 21 32 32 27 40 -18 5 -24 21 -47 59 -79 105 -91
152 -209 141 -357 l-6 -86 45 -41 c100 -92 396 -296 597 -411 93 -53 170 -91
305 -152 22 -9 57 -25 79 -35 53 -24 254 -73 347 -84 136 -18 291 21 358 88
21 21 48 66 64 106 71 173 116 274 212 470 301 616 345 753 345 1079 0 95 -3
175 -6 178 -3 4 -28 -8 -55 -24 -48 -30 -51 -31 -136 -25 -49 4 -121 15 -162
26 -40 11 -70 16 -65 12 16 -15 148 -43 225 -48 83 -6 132 5 167 38 l22 20 0
-175 c0 -132 -5 -199 -19 -273 -19 -94 -74 -277 -91 -298 -4 -5 -27 -55 -50
-110 -23 -55 -95 -208 -160 -340 -103 -211 -159 -336 -228 -508 -49 -123 -135
-187 -276 -206 -217 -30 -569 89 -954 323 -187 113 -424 281 -509 359 l-45 41
7 76 c13 147 -43 287 -148 373 -33 27 -50 49 -57 77 -12 46 -32 51 -56 15 -14
-21 -22 -25 -45 -20 -22 5 -29 3 -29 -8 0 -9 5 -17 12 -19 6 -2 -6 -15 -27
-28 -55 -34 -145 -32 -219 4 -60 30 -99 69 -242 247 -237 296 -259 426 -111
665 61 97 130 175 179 200 83 43 228 -10 357 -132 66 -62 80 -81 90 -121 19
-78 102 -233 133 -249 36 -19 78 -18 78 1 0 10 -10 15 -32 15 l-33 0 30 19
c24 15 34 33 53 97 74 248 80 262 151 350 69 85 140 196 200 309 31 60 34 62
118 98 231 100 456 274 629 487 115 141 270 388 324 517 l22 51 75 8 c42 3
108 3 147 -1 39 -4 112 -8 162 -9 91 -1 91 -1 133 -39 112 -101 271 -297 330
-408 21 -41 56 -126 75 -189 36 -114 106 -387 106 -412 0 -9 -23 -14 -88 -16
-86 -2 -223 -22 -293 -42 -33 -9 -39 -17 -59 -73 -13 -34 -23 -70 -22 -79 0
-9 -6 -19 -13 -22 -18 -6 -70 -110 -103 -201 -19 -54 -25 -94 -27 -175 -1 -58
0 -80 2 -50 2 30 7 57 11 60 4 3 14 34 21 70 13 66 28 106 82 214 16 33 27 62
24 64 -3 3 -16 -21 -31 -52 -14 -32 -28 -55 -31 -53 -4 4 42 104 54 117 2 2
37 7 77 11 40 4 146 22 235 39 89 18 165 29 169 26 3 -4 -7 -57 -22 -119 -15
-62 -26 -126 -23 -142 4 -29 4 -29 6 4 0 19 13 83 28 142 20 81 24 112 16 120
-8 8 -53 3 -173 -21 -178 -35 -261 -46 -284 -37 -14 6 -13 13 6 64 12 32 26
63 32 69 24 26 368 76 396 59 24 -15 20 35 -15 178 -47 194 -116 405 -156 476
-57 102 -229 309 -326 392 l-43 38 -93 0 c-50 0 -141 2 -202 5 -60 2 -128 1
-149 -2z m449 -1471 c-8 -17 -24 -66 -34 -108 -11 -43 -20 -69 -20 -58 -1 47
58 233 66 208 2 -6 -3 -25 -12 -42z m-1956 -487 c10 -9 -45 -3 -59 6 -11 7 -5
8 20 4 19 -4 37 -8 39 -10z m-114 -639 c155 -106 211 -321 124 -473 l-30 -53
-39 31 -40 31 31 39 31 38 35 -14 c19 -8 32 -10 28 -5 -3 6 -12 11 -18 11 -32
1 -38 16 -22 59 34 96 8 217 -62 287 -23 23 -66 54 -95 69 -38 19 -44 25 -23
21 17 -4 53 -22 80 -41z"/>
<path d="M5115 6688 c120 -127 286 -347 359 -476 71 -127 156 -358 156 -424 0
-9 4 -19 9 -22 12 -8 -13 105 -42 189 -75 215 -126 310 -277 510 -97 129 -273
325 -292 325 -6 0 34 -46 87 -102z"/>
<path d="M4350 6615 c-23 -30 -151 -161 -285 -292 -213 -209 -249 -250 -300
-333 -62 -101 -74 -130 -56 -130 6 0 51 25 99 56 108 70 277 237 387 385 75
100 220 338 211 346 -4 4 -39 -51 -105 -165 -116 -200 -356 -464 -508 -560
-46 -28 -83 -49 -83 -46 0 2 8 17 19 32 10 15 43 65 74 112 43 67 105 133 287
309 127 123 249 250 271 282 22 33 38 59 36 59 -3 0 -24 -25 -47 -55z"/>
<path d="M5700 6591 c-12 -8 -11 -17 7 -58 43 -99 84 -220 98 -291 5 -24 12
-32 23 -30 13 3 16 13 14 43 -4 54 -45 208 -74 281 -24 59 -40 72 -68 55z m55
-53 c24 -54 69 -212 78 -280 7 -44 -10 -52 -19 -10 -12 57 -87 278 -102 300
-13 20 -13 25 -1 33 8 5 15 9 17 9 2 0 14 -24 27 -52z"/>
<path d="M3190 6573 c-52 -37 -250 -336 -250 -378 0 -11 13 -15 54 -15 65 0
86 7 87 29 0 12 3 10 9 -5 7 -18 19 -22 76 -26 57 -4 70 -8 90 -31 13 -15 27
-27 31 -26 4 0 33 30 63 66 30 36 107 118 170 182 63 64 115 121 116 127 1 7
-29 14 -81 18 -45 3 -142 21 -214 39 -113 28 -135 31 -151 20z m353 -69 c42
-3 77 -9 77 -11 0 -2 -40 -43 -88 -91 -48 -48 -125 -128 -170 -179 -72 -82
-83 -90 -92 -74 -13 25 -61 41 -121 41 -27 0 -49 4 -49 9 0 4 10 32 22 60 15
37 18 55 10 63 -10 10 -21 -7 -56 -94 -15 -38 -16 -38 -70 -38 -31 0 -56 2
-56 5 0 3 19 40 43 83 46 83 103 165 173 248 l42 50 129 -32 c70 -18 163 -36
206 -40z m-428 -239 c-10 -25 -20 -43 -23 -41 -2 3 4 25 14 50 24 58 31 51 9
-9z"/>
<path d="M5613 6541 l-20 -19 47 -94 c26 -51 57 -123 71 -160 20 -57 28 -68
46 -68 31 0 30 13 -13 139 -45 134 -83 221 -98 221 -7 0 -21 -9 -33 -19z m107
-161 c49 -137 56 -170 37 -170 -9 0 -27 33 -47 88 -18 48 -48 118 -67 155 -32
65 -33 70 -16 82 15 11 20 9 37 -19 10 -17 36 -78 56 -136z"/>
<path d="M3649 6482 c-8 -11 -83 -93 -166 -183 -84 -89 -153 -168 -153 -175 0
-12 109 -54 140 -54 9 0 48 37 86 82 38 46 115 135 171 199 75 86 99 120 90
127 -7 5 -44 13 -83 17 -63 6 -72 5 -85 -13z m159 -7 c3 -3 -278 -336 -324
-384 -11 -12 -21 -12 -74 4 -34 10 -63 22 -65 25 -2 4 64 80 148 170 84 89
158 171 166 182 13 17 22 18 80 12 36 -3 67 -8 69 -9z"/>
<path d="M3691 6271 c-88 -110 -161 -205 -161 -210 0 -11 9 -14 97 -31 l63
-13 45 37 c25 21 64 60 88 87 23 27 99 100 170 162 70 61 127 117 127 123 0 7
-44 16 -112 23 -62 6 -122 14 -134 17 -18 5 -46 -26 -183 -195z m306 168 c59
-6 109 -12 110 -13 1 -1 -55 -52 -125 -114 -70 -61 -146 -134 -169 -161 -24
-27 -63 -66 -87 -86 l-45 -37 -58 12 c-32 7 -64 14 -71 16 -8 2 52 84 149 204
102 127 166 199 175 196 7 -3 62 -10 121 -17z"/>
<path d="M4012 6192 c-101 -92 -193 -180 -205 -197 -12 -16 32 20 98 80 66 61
150 136 186 168 53 46 120 119 107 116 -2 0 -86 -75 -186 -167z"/>
<path d="M1824 5943 c-9 -21 -31 -81 -49 -133 -70 -204 -111 -302 -225 -531
-166 -336 -237 -560 -260 -830 -18 -213 6 -346 95 -534 43 -88 134 -204 244
-310 45 -43 70 -40 52 7 -29 77 -36 370 -12 528 7 42 7 40 15 -40 29 -330 172
-665 334 -786 44 -32 319 -173 370 -188 29 -10 29 -9 -13 195 -40 196 -44 236
-11 129 33 -108 67 -192 119 -296 l46 -92 -30 -46 c-23 -37 -42 -53 -87 -73
-117 -52 -412 -143 -558 -172 -138 -28 -489 -128 -704 -200 -253 -86 -649
-240 -690 -269 -14 -10 -50 -30 -80 -45 -46 -22 -70 -45 -141 -134 -114 -142
-239 -313 -239 -327 0 -14 1 -13 117 144 181 245 237 305 303 325 14 4 32 13
40 21 37 32 382 170 670 268 220 75 578 177 719 206 156 31 302 75 496 147
133 49 143 56 175 116 l23 43 -46 89 c-79 156 -118 257 -141 365 -12 55 -15
59 -17 30 l-2 -35 -7 35 c-5 22 -8 27 -9 13 0 -12 17 -110 39 -219 23 -108 39
-201 38 -205 -4 -12 -278 124 -351 173 -179 122 -328 456 -353 794 -5 64 -10
91 -20 91 -38 0 -37 -496 2 -602 10 -28 -59 38 -157 150 -176 200 -243 416
-219 704 23 262 92 487 244 790 112 223 155 323 230 540 26 74 51 140 55 145
9 12 21 56 15 56 -2 0 -11 -17 -20 -37z"/>
<path d="M1798 5937 c-8 -17 -72 -117 -140 -222 -276 -420 -371 -609 -441
-875 -54 -202 -66 -442 -34 -650 14 -93 44 -205 46 -173 1 6 -4 24 -9 39 -39
101 -56 431 -32 599 47 319 153 551 479 1049 112 170 159 253 150 262 -2 2
-10 -11 -19 -29z"/>
<path d="M3950 5754 c-30 -8 -84 -28 -119 -45 -71 -32 -228 -127 -237 -141 -8
-12 43 14 110 56 176 112 256 136 461 136 156 0 479 -31 527 -51 40 -16 55
-69 32 -109 -22 -37 -13 -37 -279 -4 -115 13 -291 27 -390 31 -172 5 -185 4
-284 -22 -104 -26 -171 -49 -171 -59 0 -3 15 1 33 9 18 7 80 26 138 40 99 26
112 27 284 22 99 -4 275 -18 390 -31 277 -34 269 -34 289 9 13 28 15 42 7 73
-14 50 -36 57 -252 82 -209 24 -457 26 -539 4z"/>
<path d="M4801 5665 c0 -16 -8 -43 -16 -59 -9 -16 -13 -31 -10 -34 9 -10 36
70 32 97 -4 25 -4 25 -6 -4z"/>
<path d="M4781 5665 c-1 -11 -8 -33 -16 -49 -8 -15 -15 -33 -15 -40 1 -6 10 8
21 32 11 24 18 51 16 60 -4 14 -5 13 -6 -3z"/>
<path d="M5500 5514 c-78 -27 -101 -43 -153 -109 -40 -50 -18 -37 36 22 41 45
89 72 162 92 64 18 65 17 49 -41 -7 -29 -13 -62 -13 -73 0 -14 32 96 39 133 1
9 -57 -2 -120 -24z"/>
<path d="M4330 5469 c-81 -20 -59 -20 57 2 40 7 75 11 78 8 3 -3 2 -20 -1 -38
-6 -31 -9 -32 -38 -26 -17 3 -75 10 -129 15 -106 10 -193 3 -362 -31 -145 -28
-146 -29 -139 -40 4 -7 9 -7 13 -2 7 10 196 48 313 63 72 9 214 2 311 -16 33
-6 37 -4 37 14 0 11 3 28 6 37 5 13 8 14 15 3 6 -10 9 -8 9 7 0 17 -7 20 -48
22 -26 1 -81 -7 -122 -18z"/>
<path d="M4510 5466 c0 -5 29 -39 63 -76 72 -75 127 -164 127 -204 0 -31 -4
-32 -80 -23 l-45 6 50 -13 c67 -17 85 -11 85 28 0 50 -50 134 -127 215 -40 42
-72 72 -73 67z"/>
<path d="M4481 5411 c-1 -26 7 -43 34 -73 25 -27 34 -45 30 -58 -5 -15 3 -24
34 -40 54 -27 54 -45 1 -36 -22 3 -40 2 -40 -3 0 -5 12 -34 26 -65 14 -32 24
-59 22 -61 -10 -10 -32 18 -69 86 -22 41 -37 63 -33 49 3 -14 20 -51 36 -82
22 -42 38 -60 61 -67 16 -6 33 -9 35 -6 3 3 -1 5 -9 5 -11 0 -11 2 1 10 9 6
10 10 3 10 -8 0 -63 99 -63 115 0 1 19 1 43 1 55 -1 56 20 2 51 -29 16 -39 28
-37 42 2 12 -11 36 -32 58 -19 21 -36 52 -39 68 -4 30 -4 30 -6 -4z"/>
<path d="M4090 5399 c-89 -10 -284 -47 -255 -48 11 -1 56 6 100 14 138 27 255
35 362 26 109 -10 151 -26 196 -74 27 -28 27 -29 5 -23 -100 31 -144 37 -268
38 -143 0 -307 -13 -454 -38 -49 -8 -122 -16 -162 -17 -40 -1 -65 -5 -56 -9
15 -6 14 -7 -3 -8 -17 -1 -17 -3 5 -11 84 -34 127 -38 262 -24 73 7 176 15
228 17 l95 3 -3 -27 c-3 -26 -1 -28 36 -28 38 0 69 -19 55 -33 -3 -4 -30 -7
-60 -7 -29 0 -53 -3 -53 -7 0 -58 65 -153 104 -153 20 0 20 1 -3 13 -31 16
-77 75 -85 110 -6 27 -6 27 46 27 77 0 101 21 55 47 -12 7 -37 12 -55 13 -30
0 -32 2 -26 25 4 17 2 25 -7 26 -43 4 -212 -4 -327 -16 -115 -12 -140 -12
-189 1 -32 8 -59 17 -61 19 -2 2 23 6 55 10 32 3 101 12 153 20 335 51 627 50
709 -2 38 -24 48 -1 17 40 -36 46 -91 67 -206 78 -107 9 -107 9 -210 -2z"/>
<path d="M5336 5356 c-82 -30 -156 -88 -156 -122 0 -23 20 -16 61 21 21 19 56
43 77 54 80 41 243 51 271 17 9 -10 -6 -14 -77 -19 -82 -6 -183 -32 -244 -63
-63 -32 -159 -138 -157 -173 0 -11 3 -10 9 5 15 38 108 130 159 157 74 41 135
57 239 64 94 6 110 15 75 44 -23 20 -164 17 -235 -4 -36 -11 -79 -35 -113 -62
-30 -25 -55 -41 -55 -36 0 16 84 79 136 103 37 17 74 23 151 26 l103 4 30 -32
c33 -35 41 -26 11 11 -18 22 -28 24 -118 27 -83 2 -108 -1 -167 -22z"/>
<path d="M2557 5240 c96 -14 225 -127 316 -278 21 -33 37 -65 37 -71 0 -13
-30 -58 -72 -109 -43 -51 -38 -82 22 -132 82 -69 78 -113 -11 -123 -28 -4 -66
-16 -85 -28 -19 -12 -37 -19 -40 -16 -7 7 90 67 109 67 24 0 47 11 47 23 0 5
-25 36 -55 68 -30 32 -55 65 -55 74 0 23 17 53 62 107 53 62 49 86 -17 109
-27 10 -61 18 -75 18 -14 0 -1 -7 28 -15 64 -17 92 -31 92 -46 0 -7 -18 -33
-40 -59 -76 -90 -76 -127 2 -206 54 -54 54 -55 -6 -68 -17 -3 -41 -15 -55 -25
-20 -13 -29 -15 -38 -6 -27 25 -41 35 -46 30 -8 -8 -66 68 -93 122 l-25 51 37
63 c20 35 53 81 73 103 24 27 29 36 15 29 -27 -14 -62 -61 -102 -135 -30 -56
-30 -60 -16 -99 20 -58 80 -135 120 -154 28 -14 33 -20 28 -40 -8 -32 11 -31
72 1 26 14 64 25 85 25 78 0 77 75 -2 141 -27 22 -49 49 -49 60 0 10 14 34 30
52 17 19 30 38 30 41 0 4 10 20 21 36 28 37 21 62 -38 154 -92 142 -228 247
-317 245 -40 -1 -39 -2 11 -9z"/>
<path d="M2506 5196 c-18 -20 -42 -56 -52 -79 -10 -23 -18 -43 -19 -44 -1 -2
-20 5 -44 14 -33 13 -44 14 -54 4 -9 -10 -9 -11 4 -6 19 7 69 -11 69 -25 0 -7
-6 -8 -19 0 -11 5 -29 10 -41 10 -19 0 -21 -5 -18 -47 3 -43 5 -48 28 -48 24
0 40 20 55 70 6 19 7 19 16 2 15 -26 -34 -87 -71 -87 -38 0 -53 22 -46 67 4
27 3 32 -4 18 -25 -56 0 -100 53 -97 31 2 35 0 30 -18 -6 -24 15 -80 31 -80 6
0 20 17 31 37 13 24 36 45 68 62 42 21 51 22 72 11 13 -7 22 -17 19 -22 -10
-16 22 -18 61 -3 22 8 29 13 15 10 -14 -3 -36 -7 -50 -10 -18 -4 -16 -1 10 12
22 10 62 17 105 18 39 1 72 5 74 9 7 13 -80 124 -137 177 -76 70 -93 72 -148
18 -25 -24 -59 -64 -76 -89 -27 -40 -30 -42 -24 -16 9 36 72 133 94 145 9 5
14 13 10 17 -4 4 -23 -10 -42 -30z m151 -32 c37 -31 76 -74 158 -176 12 -15 9
-16 -38 -11 -32 3 -71 -1 -102 -11 -45 -14 -51 -14 -67 1 -35 31 -144 -18
-168 -77 -12 -30 -13 -30 -27 -10 -19 27 -11 85 15 113 11 12 27 36 36 54 19
37 124 153 139 153 5 0 30 -16 54 -36z m-268 -118 c9 -10 9 -20 0 -40 -18 -39
-43 -29 -47 17 -3 31 0 37 16 37 11 0 25 -6 31 -14z"/>
<path d="M4467 5179 c5 -46 1 -65 -18 -103 -12 -26 -37 -55 -53 -66 -36 -23
-28 -26 13 -5 51 26 87 149 61 210 -5 12 -6 -2 -3 -36z"/>
<path d="M5598 5151 c-3 -58 -10 -87 -27 -115 -62 -100 -182 -79 -197 36 l-7
47 44 3 c32 2 45 8 47 20 3 14 -6 19 -37 24 -35 6 -41 10 -41 30 0 29 -9 30
-88 3 -42 -14 -76 -35 -105 -63 -43 -41 -86 -115 -88 -152 -1 -10 -5 -3 -9 16
-6 28 -8 30 -9 10 -1 -24 47 -228 125 -532 28 -111 42 -148 53 -148 12 0 13 2
4 8 -7 4 -24 53 -38 107 -62 235 -96 378 -92 388 3 10 36 -105 103 -363 18
-69 33 -119 33 -112 1 16 -34 159 -87 352 -70 255 -76 288 -62 315 l13 24 16
-32 c15 -29 23 -33 101 -49 189 -37 258 -36 310 9 41 34 55 64 74 153 14 69
14 76 -1 88 -9 6 -20 12 -24 12 -3 0 -8 -35 -11 -79z m36 26 c-13 -75 -45
-164 -66 -184 -23 -22 -69 -43 -91 -43 -7 0 6 9 28 19 72 33 104 91 105 193 0
46 3 56 15 52 10 -4 13 -15 9 -37z m-266 11 c-2 -16 -26 -33 -88 -65 -82 -43
-124 -72 -116 -80 2 -2 24 10 49 27 25 17 66 40 91 51 25 11 48 24 51 29 7 11
55 13 79 4 27 -10 7 -24 -36 -24 l-41 0 6 -51 c8 -62 28 -96 70 -115 31 -14
30 -15 -33 -9 -84 8 -212 34 -227 47 -6 5 -16 22 -22 39 -9 27 -7 32 39 78 31
31 69 57 102 70 69 26 80 26 76 -1z m-239 -333 c0 -11 -7 3 -15 30 -7 28 -13
59 -13 70 0 11 7 -2 15 -30 7 -27 13 -59 13 -70z"/>
<path d="M4080 5194 c-19 -2 -91 -9 -160 -15 -69 -5 -129 -14 -133 -18 -5 -5
15 -5 43 0 28 4 102 11 163 15 62 4 119 10 127 15 8 5 11 8 5 7 -5 -1 -26 -3
-45 -4z"/>
<path d="M3694 5148 c-10 -31 47 -77 171 -138 122 -60 196 -80 295 -80 87 0
234 16 297 32 72 18 43 19 -38 1 -48 -10 -127 -16 -229 -17 -173 -1 -193 4
-341 85 -101 54 -158 103 -142 120 10 10 19 8 45 -11 111 -82 183 -117 298
-145 59 -14 217 -29 165 -15 -16 4 -48 8 -70 9 -100 3 -250 63 -354 140 -62
46 -86 51 -97 19z"/>
<path d="M4550 5048 c0 -8 -10 -28 -22 -43 l-21 -28 21 12 c22 12 40 56 28 68
-3 4 -6 -1 -6 -9z"/>
<path d="M4690 5052 c0 -5 -16 -34 -35 -66 -19 -32 -35 -62 -35 -67 0 -15 23
-10 67 13 47 25 61 57 44 101 -9 24 -41 39 -41 19z m40 -51 c0 -23 -10 -34
-51 -59 -48 -29 -54 -28 -31 6 11 15 27 44 37 66 17 35 19 37 32 20 7 -10 13
-25 13 -33z"/>
<path d="M4425 4990 c-27 -7 -27 -8 -5 -8 14 0 39 4 55 8 27 7 27 8 5 8 -14 0
-38 -4 -55 -8z"/>
<path d="M4467 4923 c-26 -19 -78 -50 -115 -69 -37 -19 -61 -34 -54 -34 20 0
132 59 185 97 26 19 47 31 47 26 0 -22 -142 -111 -212 -133 l-33 -10 33 5 c75
11 222 104 222 141 0 22 -21 15 -73 -23z"/>
<path d="M4335 4887 c-76 -40 -100 -57 -100 -72 0 -14 7 -20 23 -21 20 -2 20
-1 2 3 -37 8 -17 27 82 78 53 28 100 53 104 58 16 16 -16 3 -111 -46z"/>
<path d="M2345 4920 c3 -5 12 -7 20 -3 21 7 19 13 -6 13 -11 0 -18 -4 -14 -10z"/>
<path d="M2678 4881 c-25 -27 -58 -75 -74 -105 l-29 -56 23 -44 c13 -24 37
-59 53 -77 21 -24 16 -13 -17 39 -41 65 -45 76 -35 102 13 39 67 118 104 153
17 15 27 30 25 33 -3 2 -26 -18 -50 -45z"/>
<path d="M5192 4914 c2 -9 24 -34 49 -56 61 -51 110 -54 204 -9 74 34 106 39
125 16 7 -8 17 -15 23 -15 5 0 2 9 -8 20 -25 28 -64 25 -140 -9 -104 -48 -140
-46 -200 10 -25 23 -43 44 -40 47 2 3 25 -14 50 -37 24 -22 47 -41 51 -41 3 0
-16 20 -43 45 -50 46 -77 57 -71 29z"/>
<path d="M2592 4907 c-13 -16 -46 -137 -39 -144 3 -2 10 19 16 49 7 29 19 63
27 76 17 26 14 41 -4 19z"/>
<path d="M3050 4865 c0 -18 96 -91 133 -100 50 -13 30 18 -43 68 -76 50 -90
55 -90 32z m40 -9 c6 -8 34 -29 61 -47 27 -17 48 -34 45 -37 -7 -6 -98 52
-121 78 -10 11 -13 20 -8 20 6 0 16 -7 23 -14z"/>
<path d="M5295 4773 c3 -23 30 -125 60 -225 30 -100 55 -189 55 -197 0 -19
-61 -99 -143 -187 -73 -78 -92 -87 -219 -100 -72 -7 -89 -2 -222 73 -32 19
-64 32 -69 30 -6 -2 40 -29 103 -61 113 -58 113 -59 181 -52 146 13 163 21
247 113 86 94 132 158 132 183 0 10 -19 78 -41 151 -23 74 -52 175 -66 224
-13 50 -21 71 -18 48z"/>
<path d="M2440 4763 c0 -26 92 -163 110 -163 5 0 -4 14 -20 32 -16 17 -42 56
-59 87 -17 31 -31 51 -31 44z"/>
<path d="M2460 4766 c0 -12 92 -148 96 -143 2 2 -16 35 -42 73 -52 78 -54 80
-54 70z"/>
<path d="M6261 4704 c0 -11 3 -14 6 -6 3 7 2 16 -1 19 -3 4 -6 -2 -5 -13z"/>
<path d="M6281 4714 c-1 -12 22 -84 38 -119 5 -11 22 -47 37 -80 15 -33 61
-130 102 -215 269 -558 339 -806 344 -1219 1 -91 4 -146 7 -121 10 73 -5 367
-24 470 -30 174 -106 415 -180 577 -8 17 -15 34 -15 37 0 8 -52 119 -165 351
-69 143 -109 233 -138 315 -3 8 -6 10 -6 4z"/>
<path d="M6276 4640 c10 -89 4 -330 -16 -570 -46 -566 -17 -839 125 -1193 67
-167 223 -436 261 -451 8 -3 -3 18 -25 47 -22 28 -63 93 -91 142 -256 442
-315 769 -261 1445 23 280 27 531 11 590 -9 33 -9 33 -4 -10z"/>
<path d="M3320 4561 c0 -35 186 -192 243 -207 44 -10 33 18 -16 44 -24 13 -82
59 -128 102 -46 44 -87 80 -91 80 -5 0 -8 -9 -8 -19z m204 -160 c69 -48 62
-55 -9 -10 -55 35 -185 156 -185 173 0 6 30 -19 68 -56 37 -36 94 -85 126
-107z"/>
<path d="M4679 4474 c-14 -17 -44 -94 -61 -156 -14 -51 5 -84 70 -120 68 -39
67 -31 -3 16 -32 21 -57 46 -60 59 -4 13 3 50 14 82 24 68 37 85 27 35 -4 -19
-10 -56 -13 -81 -5 -43 -4 -47 33 -77 50 -41 56 -33 8 11 l-38 34 13 69 c17
97 33 118 82 111 28 -4 39 -1 39 8 0 28 -89 35 -111 9z m94 -1 c3 -5 -13 -8
-36 -8 -34 0 -43 -4 -54 -25 -7 -14 -13 -19 -13 -12 0 34 21 52 60 52 21 0 41
-3 43 -7z"/>
<path d="M2769 4391 c-16 -13 -23 -29 -23 -55 0 -45 21 -67 64 -68 64 -2 92
71 45 117 -29 30 -55 32 -86 6z m81 -13 c27 -29 25 -62 -5 -86 -29 -23 -59
-19 -80 11 -20 28 -19 39 6 71 25 32 51 33 79 4z"/>
<path d="M2780 4360 c-18 -33 -3 -60 31 -60 33 0 44 17 35 55 -8 32 -50 35
-66 5z m55 -20 c0 -18 -6 -26 -23 -28 -27 -4 -40 22 -22 44 19 22 45 13 45
-16z"/>
<path d="M5110 4325 c0 -8 9 -15 20 -15 11 0 20 7 20 15 0 8 -9 15 -20 15 -11
0 -20 -7 -20 -15z"/>
<path d="M4740 4310 c-41 -10 -68 -18 -59 -19 9 -1 49 6 88 15 71 16 74 16
180 -10 103 -25 234 -35 244 -18 3 4 -25 6 -63 4 -48 -3 -98 4 -173 22 -121
30 -118 30 -217 6z"/>
<path d="M5223 4288 c-58 -66 -119 -118 -160 -135 -41 -17 -58 -43 -30 -43 63
0 182 69 217 126 40 63 18 105 -27 52z m37 -2 c0 -48 -124 -147 -200 -160 -34
-6 -34 -6 9 14 50 23 112 75 156 132 16 21 31 38 32 38 2 0 3 -11 3 -24z"/>
<path d="M4763 4260 c-25 -10 -31 -45 -10 -53 6 -2 22 0 34 6 31 14 71 1 105
-34 35 -34 44 -36 53 -8 9 26 -17 56 -70 80 -44 20 -78 23 -112 9z m105 -19
c45 -23 76 -56 67 -71 -4 -7 -14 -1 -26 14 -27 34 -90 53 -124 38 -31 -14 -47
5 -20 25 26 18 59 16 103 -6z"/>
<path d="M3107 4095 c3 -16 12 -46 20 -65 7 -19 11 -24 8 -10 -15 67 -13 80 5
30 10 -30 19 -48 19 -39 2 29 -31 112 -39 99 -6 -9 -9 -9 -13 1 -4 8 -3 1 0
-16z"/>
<path d="M5011 3973 c-1 -14 5 -23 14 -23 8 0 15 8 15 18 0 14 -2 14 -9 3 -7
-11 -10 -10 -14 5 -4 16 -5 16 -6 -3z"/>
<path d="M2528 3933 c6 -2 18 -2 25 0 6 3 1 5 -13 5 -14 0 -19 -2 -12 -5z"/>
<path d="M4710 3881 c-63 -22 -160 -61 -216 -89 -68 -34 -108 -48 -125 -45
-29 5 -54 -18 -45 -43 5 -13 13 -15 39 -9 52 13 473 17 515 5 29 -8 46 -6 80
7 37 14 46 14 69 2 14 -7 29 -23 34 -34 8 -20 8 -20 9 0 1 16 3 15 10 -6 13
-43 0 -76 -47 -129 -44 -49 -87 -70 -176 -86 -55 -9 -164 14 -194 42 -26 24
-17 32 17 14 30 -16 171 -28 234 -19 47 6 66 14 93 41 39 37 63 78 62 105 0
11 -4 8 -9 -9 -10 -34 -57 -96 -84 -110 -56 -31 -238 -25 -319 11 -23 10 -53
23 -67 28 -14 6 -56 39 -93 73 -37 34 -70 60 -73 58 -8 -9 163 -161 207 -183
15 -8 29 -19 31 -25 2 -6 39 -18 84 -27 83 -17 98 -16 232 23 17 5 22 2 22
-13 0 -28 -42 -63 -87 -74 -77 -17 -117 -11 -173 26 -63 43 -79 39 -20 -4 54
-39 98 -47 179 -33 75 13 114 42 109 83 -2 19 8 38 34 67 39 43 60 98 51 132
-4 15 0 20 16 20 14 0 21 6 21 19 0 11 -4 21 -10 23 -5 2 -3 24 6 56 19 63 7
112 -31 132 -21 11 -34 11 -81 0 -44 -11 -67 -11 -113 -2 -73 15 -58 18 -191
-27z m192 17 c46 -9 68 -9 109 1 94 24 135 -25 103 -125 -13 -43 -15 -59 -6
-62 7 -2 12 -8 12 -13 0 -15 -31 -10 -72 13 -38 22 -40 22 -87 5 -36 -13 -56
-14 -82 -7 -47 14 -475 13 -500 -1 -12 -6 -27 -8 -36 -5 -24 9 5 39 31 32 11
-3 40 4 64 14 51 23 56 24 47 10 -3 -6 1 -7 10 -3 13 4 14 8 4 14 -16 9 89 58
226 105 116 39 103 37 177 22z m-267 -368 c8 -13 -5 -13 -25 0 -13 8 -13 10 2
10 9 0 20 -4 23 -10z"/>
<path d="M5037 3893 c-4 -3 -37 -10 -75 -13 l-67 -7 55 -1 c48 0 151 25 109
27 -9 1 -19 -2 -22 -6z"/>
<path d="M4798 3883 c6 -2 18 -2 25 0 6 3 1 5 -13 5 -14 0 -19 -2 -12 -5z"/>
<path d="M4868 3883 c7 -3 16 -2 19 1 4 3 -2 6 -13 5 -11 0 -14 -3 -6 -6z"/>
<path d="M4675 3845 c-25 -12 -26 -14 -5 -9 28 7 60 23 45 23 -5 0 -23 -6 -40
-14z"/>
<path d="M4610 3820 c-8 -5 -10 -10 -5 -10 6 0 17 5 25 10 8 5 11 10 5 10 -5
0 -17 -5 -25 -10z"/>
<path d="M5091 3786 c-11 -44 -26 -64 -38 -52 -4 4 -1 12 5 18 15 15 15 28 0
28 -6 0 -36 -12 -66 -26 -48 -23 -63 -25 -111 -19 -61 8 -423 7 -431 -2 -3 -2
81 -4 185 -3 105 1 215 -1 245 -5 47 -6 63 -3 114 19 68 30 73 31 56 11 -6 -8
-9 -19 -5 -25 11 -19 32 -10 43 18 15 36 25 82 19 82 -2 0 -10 -20 -16 -44z"/>
<path d="M4550 3790 c-9 -6 -10 -10 -3 -10 6 0 15 5 18 10 8 12 4 12 -15 0z"/>
<path d="M2550 3873 c-14 -7 -18 -13 -10 -13 17 0 47 17 40 23 -3 2 -16 -2
-30 -10z"/>
<path d="M3091 3705 c29 -51 29 -51 29 -32 0 9 -12 29 -26 44 l-26 28 23 -40z"/>
<path d="M3191 3664 c-12 -15 -19 -35 -16 -48 2 -11 9 -57 15 -101 27 -197
103 -517 162 -672 22 -60 64 -137 102 -188 13 -16 25 -37 29 -45 5 -13 6 -13
6 0 1 8 -15 39 -34 68 -114 169 -201 463 -264 892 -8 59 -7 67 12 87 11 13 18
25 15 28 -3 4 -15 -6 -27 -21z"/>
<path d="M3230 3678 c0 -28 119 -225 320 -528 42 -63 103 -155 135 -205 75
-115 186 -228 251 -256 51 -21 113 -20 141 3 17 14 17 15 -18 -77 -49 -127
-77 -223 -94 -319 -19 -110 -19 -126 0 -126 8 0 15 6 15 14 0 16 79 278 86
285 2 2 13 -7 24 -22 24 -30 148 -113 287 -191 89 -50 127 -82 156 -132 11
-18 -51 -53 -312 -173 -134 -61 -253 -118 -263 -126 -19 -13 -19 -13 -1 -19
25 -8 297 95 437 165 59 30 126 69 148 88 39 33 41 41 23 84 -7 16 -4 15 29
-4 33 -19 36 -25 36 -66 0 -36 -7 -55 -36 -94 -74 -102 -327 -315 -536 -454
-32 -21 -58 -42 -58 -47 0 -100 -58 -408 -101 -541 -46 -141 -159 -347 -189
-347 -25 0 -142 215 -185 340 -53 155 -77 228 -111 345 -20 66 -43 128 -52
138 -9 10 -48 33 -87 51 -139 64 -577 350 -755 492 -150 120 -292 253 -284
265 3 5 -1 6 -9 3 -16 -6 -237 222 -350 361 -51 62 -63 83 -54 92 7 6 66 25
132 42 l120 31 47 -53 c67 -77 421 -365 706 -575 68 -49 117 -92 110 -95 -7
-2 -2 -2 10 0 15 2 21 0 17 -7 -3 -5 -16 -10 -28 -11 -12 0 12 -13 53 -29 41
-17 98 -41 125 -54 85 -42 208 -96 211 -93 3 3 -282 138 -333 157 -18 7 -30
16 -27 21 3 5 10 7 15 4 5 -4 9 -4 9 -1 0 2 -62 51 -137 107 -320 237 -653
509 -722 587 l-48 54 -133 -34 c-82 -21 -138 -41 -144 -50 -28 -45 415 -503
719 -744 165 -131 608 -419 734 -477 91 -42 108 -60 132 -142 44 -151 133
-414 167 -495 44 -105 111 -218 136 -232 31 -17 65 19 122 126 87 164 157 416
183 658 6 54 11 99 11 101 0 2 26 21 58 42 216 144 478 367 542 463 26 40 30
54 28 100 -3 50 -5 55 -40 74 -44 25 -56 19 -39 -19 12 -26 11 -30 -27 -63
-52 -46 -275 -157 -435 -215 -71 -26 -130 -45 -133 -43 -4 5 74 43 231 113
173 78 346 167 352 181 3 9 -7 33 -25 57 -23 32 -63 61 -172 124 -150 87 -247
155 -257 179 -3 8 -13 14 -22 14 -12 0 -27 -36 -61 -150 -24 -82 -46 -147 -48
-145 -3 2 3 48 12 102 17 103 43 192 96 331 18 46 29 86 26 89 -3 3 -21 -2
-40 -11 -19 -9 -44 -16 -55 -16 -70 0 -208 126 -313 285 -36 55 -121 186 -190
290 -131 201 -198 308 -242 390 -14 27 -26 42 -26 33z"/>
<path d="M3086 3207 c-6 -23 49 -217 88 -312 23 -57 23 -60 6 -63 -10 -2 -21
-13 -23 -25 -4 -22 -4 -22 -6 1 -1 26 6 23 -221 97 -95 32 -210 73 -254 91
-44 19 -85 34 -91 34 -5 0 -22 -20 -36 -44 -15 -24 -42 -54 -60 -68 -33 -25
-154 -73 -296 -119 -85 -27 -89 -38 -35 -93 70 -73 550 -462 764 -620 59 -43
105 -83 101 -89 -3 -6 -1 -7 6 -3 6 4 25 -2 41 -14 17 -12 90 -50 163 -85 72
-35 126 -64 119 -65 -15 0 -6 -20 9 -20 6 0 7 5 4 10 -3 6 0 10 7 10 7 1 -57
36 -142 80 -121 61 -193 107 -325 207 -369 278 -775 615 -775 644 0 4 62 28
138 54 184 62 240 91 278 142 18 23 34 47 36 53 2 8 39 -2 103 -28 114 -45
400 -142 419 -142 26 0 37 -29 57 -147 21 -123 95 -451 109 -487 9 -20 9 -21
10 -1 1 13 7 5 15 -20 24 -72 16 -26 -25 138 -30 125 -100 468 -100 493 0 2 9
4 21 4 23 0 22 8 -16 100 -21 50 -85 260 -85 278 0 4 26 -47 58 -113 32 -66
80 -156 107 -200 48 -80 206 -287 213 -280 2 2 -22 38 -54 80 -108 140 -164
229 -243 387 -60 118 -80 151 -85 135z m164 -843 c18 -74 30 -137 28 -140 -10
-9 -103 419 -112 513 -3 32 7 -8 23 -89 16 -82 44 -209 61 -284z"/>
<path d="M5985 2970 c-14 -371 -11 -601 9 -670 16 -58 16 -59 -5 85 -12 81
-11 224 2 402 5 82 9 216 7 298 -3 144 -3 139 -13 -115z"/>
<path d="M6011 3214 c-2 -42 102 -313 169 -440 68 -130 133 -201 244 -267 88
-52 224 -113 233 -104 2 2 -22 14 -54 26 -31 12 -104 50 -162 84 -87 51 -114
73 -161 132 -87 110 -208 366 -254 537 -8 29 -15 44 -15 32z"/>
<path d="M3404 3205 c53 -204 123 -433 139 -453 5 -7 7 -15 4 -18 -6 -6 -65
22 -89 44 -16 13 -18 13 -24 -2 -4 -9 -2 -27 4 -39 11 -21 11 -20 6 5 l-6 26
48 -24 c47 -24 74 -30 74 -17 0 3 -11 35 -25 69 -14 35 -44 132 -66 215 -23
84 -48 166 -56 183 -8 17 -12 22 -9 11z"/>
<path d="M3425 3200 c23 -84 195 -360 265 -423 48 -44 152 -86 181 -74 9 3 6
6 -7 6 -46 2 -117 35 -163 77 -54 49 -147 187 -229 339 -29 55 -50 89 -47 75z"/>
<path d="M4245 2914 c-14 -33 -30 -68 -35 -79 -5 -11 -27 -65 -50 -120 -22
-55 -47 -113 -55 -128 -22 -43 -19 -53 31 -99 61 -57 129 -99 358 -225 544
-300 849 -496 996 -643 105 -105 137 -157 245 -405 31 -71 78 -170 105 -220
75 -139 250 -496 250 -509 0 -3 17 -43 38 -88 22 -46 47 -105 57 -133 10 -27
22 -54 26 -60 4 -5 21 -46 39 -89 17 -43 38 -88 47 -100 22 -29 38 -68 -179
434 -40 91 -143 306 -230 479 -87 173 -158 318 -158 323 0 6 -29 71 -65 145
-62 128 -71 140 -163 232 -149 148 -453 344 -998 644 -230 126 -297 168 -359
226 l-47 43 31 72 c16 39 53 127 82 196 29 69 57 131 63 138 7 10 30 12 95 7
225 -17 376 -53 480 -114 62 -37 72 -38 90 -10 12 21 15 18 52 -48 21 -39 59
-90 84 -114 28 -27 45 -52 45 -66 0 -13 5 -23 10 -23 17 0 48 59 87 169 l37
106 18 -105 c9 -58 17 -111 18 -117 0 -26 30 -12 43 19 l13 33 12 -33 c6 -17
17 -32 24 -32 20 0 158 -93 192 -129 47 -49 60 -42 96 52 17 45 34 96 36 112
3 17 -9 -11 -28 -60 -51 -140 -48 -137 -102 -87 -49 45 -140 106 -180 122 -14
5 -28 20 -32 34 -7 30 -34 44 -34 18 0 -10 -6 -26 -13 -37 -12 -16 -15 -12
-25 41 -6 32 -15 85 -18 117 -4 33 -12 57 -18 57 -7 0 -22 -30 -34 -67 -31
-97 -90 -215 -91 -183 -1 17 -18 42 -48 72 -27 25 -64 75 -83 112 -37 70 -50
78 -73 46 -14 -20 -15 -19 -68 9 -117 64 -272 100 -497 116 l-92 7 -25 -58z"/>
<path d="M2545 2821 c105 -39 308 -122 361 -146 35 -16 195 -69 239 -80 59
-13 17 5 -66 29 -46 14 -156 55 -244 91 -200 84 -361 145 -378 145 -6 -1 33
-18 88 -39z"/>
<path d="M3230 2766 c0 -19 49 -149 61 -160 19 -21 8 -28 -33 -23 -49 7 -23
-6 32 -16 25 -5 31 -4 20 3 -8 5 -10 10 -4 10 7 0 -3 29 -21 68 -19 37 -37 81
-40 97 -6 28 -5 29 9 11 90 -111 237 -262 271 -277 44 -21 75 -24 75 -9 0 15
-90 153 -96 147 -3 -3 16 -37 41 -77 l46 -73 -28 8 c-44 10 -80 43 -198 178
-104 119 -135 145 -135 113z"/>
<path d="M1904 2664 c-29 -30 -42 -54 -31 -54 1 0 20 20 40 45 45 54 39 60 -9
9z"/>
<path d="M1477 2609 c-299 -92 -568 -187 -852 -299 -111 -44 -208 -80 -217
-80 -9 0 -27 -15 -39 -32 -13 -18 -66 -89 -120 -158 -131 -170 -252 -340 -246
-346 2 -3 55 64 116 148 166 227 280 373 294 376 6 2 113 43 237 92 255 99
409 155 414 149 2 -2 57 -112 123 -244 322 -646 746 -1270 1199 -1767 143
-156 439 -448 454 -448 6 0 -63 72 -153 160 -384 375 -679 732 -982 1190 -189
285 -361 581 -510 878 l-122 242 185 60 c101 33 191 60 199 60 8 0 26 -26 40
-57 137 -306 387 -786 535 -1026 318 -520 728 -996 1143 -1327 116 -93 240
-180 255 -180 7 0 -29 29 -79 65 -340 240 -697 595 -991 985 -262 348 -464
688 -717 1210 -69 140 -134 272 -145 293 -11 21 -18 40 -15 43 5 5 257 84 270
84 4 0 7 -7 7 -16 0 -27 126 -180 265 -323 269 -277 474 -449 747 -629 285
-189 358 -233 454 -279 51 -24 96 -49 101 -56 6 -6 29 -77 53 -157 71 -239
118 -369 180 -495 69 -140 103 -179 156 -179 47 0 65 21 137 156 85 159 166
452 183 666 l7 83 81 56 c224 156 397 300 482 403 43 51 57 76 66 122 12 59
13 59 56 30 10 -7 -1 -47 -53 -188 -37 -98 -71 -183 -75 -189 -4 -5 -11 -21
-15 -35 -10 -31 -72 -166 -132 -285 -196 -388 -501 -813 -786 -1094 l-86 -84
-25 17 c-55 36 -250 197 -374 309 -324 292 -648 674 -895 1052 -162 250 -376
636 -517 935 -50 107 -80 161 -80 143 0 -22 326 -659 414 -808 252 -428 505
-763 833 -1105 187 -196 576 -532 631 -546 59 -16 420 400 646 745 197 300
361 632 486 986 24 66 46 123 49 127 3 3 25 -5 48 -18 l42 -25 -31 -87 c-219
-621 -628 -1288 -1053 -1718 -60 -61 -132 -130 -160 -152 -27 -23 -45 -42 -39
-42 19 0 173 140 266 241 281 306 552 699 741 1074 98 194 232 512 268 633 7
23 14 42 17 42 4 0 160 -87 170 -95 6 -5 -74 -219 -128 -345 -197 -454 -539
-982 -918 -1414 -62 -71 -110 -131 -107 -135 3 -3 9 -1 13 5 4 6 52 62 108
125 313 354 654 859 838 1242 52 110 155 362 182 450 10 31 22 57 27 57 9 0
97 -58 97 -65 0 -7 -83 -231 -102 -275 -32 -75 -35 -83 -63 -145 -158 -351
-463 -836 -792 -1258 -46 -60 -87 -116 -90 -125 -7 -24 19 8 166 203 419 557
658 970 837 1450 29 77 56 139 61 138 28 -6 248 -165 304 -220 80 -78 125
-155 219 -371 39 -90 84 -187 99 -215 96 -178 256 -508 320 -662 24 -55 51
-118 60 -140 10 -22 33 -75 51 -118 18 -43 34 -76 37 -74 3 4 -69 181 -127
312 -5 11 -21 49 -35 85 -14 36 -107 227 -205 425 -98 198 -200 410 -225 470
-98 234 -156 299 -435 487 -173 117 -508 318 -528 318 -5 0 -12 -22 -16 -49
-4 -31 -18 -65 -38 -92 -70 -99 -282 -281 -511 -439 -83 -58 -83 -57 -92 -165
-9 -98 -51 -301 -87 -420 -33 -109 -135 -313 -179 -357 -15 -16 -34 -28 -43
-28 -82 0 -245 352 -352 760 -10 36 -22 71 -27 77 -5 7 -50 32 -101 56 -96 46
-169 90 -454 279 -273 180 -478 352 -747 629 -140 143 -267 299 -263 321 6 25
-41 15 -295 -63z"/>
<path d="M5722 2635 c-2 -69 19 -169 48 -224 16 -32 34 -46 105 -81 47 -23 92
-52 100 -63 13 -18 15 -19 15 -4 0 19 -59 59 -122 83 -84 32 -124 109 -138
269 -7 78 -7 78 -8 20z"/>
<path d="M1987 2493 c64 -61 241 -166 433 -260 96 -47 184 -89 195 -94 117
-49 287 -111 292 -106 2 2 -31 17 -74 32 -43 15 -91 33 -108 40 -16 8 -58 25
-91 39 -179 73 -476 237 -634 348 l-55 39 42 -38z"/>
<path d="M1230 2502 c0 -15 269 -552 342 -683 335 -598 670 -1056 1078 -1472
173 -177 366 -354 376 -345 2 3 -40 44 -94 91 -144 126 -429 420 -576 597
-278 332 -529 702 -771 1135 -74 133 -273 524 -318 628 -23 51 -37 70 -37 49z"/>
<path d="M4098 2332 c-36 -15 -70 -31 -75 -35 -8 -8 54 14 127 46 60 26 18 17
-52 -11z"/>
<path d="M2155 2311 c6 -6 28 -20 50 -31 37 -20 38 -21 10 -16 l-30 5 34 -15
c18 -8 38 -13 45 -10 6 2 2 5 -9 6 -16 1 -17 3 -4 8 11 5 -1 15 -45 35 -34 16
-56 23 -51 18z"/>
<path d="M2310 2198 c36 -10 182 -57 325 -103 143 -46 261 -82 263 -80 7 7
-620 206 -642 204 -6 0 18 -10 54 -21z"/>
<path d="M4429 2193 c6 -12 11 -40 11 -62 0 -34 -4 -42 -35 -61 -47 -29 -44
-35 5 -10 38 20 40 22 40 68 0 29 -6 56 -16 68 -15 18 -15 18 -5 -3z"/>
<path d="M3281 2164 c0 -11 3 -14 6 -6 3 7 2 16 -1 19 -3 4 -6 -2 -5 -13z"/>
<path d="M450 2087 c0 -7 25 -37 56 -67 115 -113 247 -300 353 -501 33 -63 61
-110 61 -106 0 5 -25 58 -57 119 -96 190 -251 409 -358 507 -26 23 -44 45 -42
48 9 8 95 -77 160 -157 90 -112 190 -268 257 -402 33 -66 60 -113 60 -106 0
24 -109 229 -177 333 -88 133 -145 207 -220 283 -60 59 -93 77 -93 49z"/>
<path d="M4405 1954 c-16 -8 -21 -12 -10 -8 11 3 33 8 49 11 27 6 28 5 16 -18
-23 -44 -244 -253 -367 -347 l-123 -93 2 -52 1 -52 6 50 c6 49 6 49 116 132
182 137 385 337 385 379 0 18 -36 17 -75 -2z"/>
<path d="M3434 1786 c-7 -18 17 -74 62 -141 37 -56 51 -66 60 -41 5 12 -101
196 -112 196 -3 0 -7 -6 -10 -14z m73 -105 c44 -69 57 -104 23 -61 -26 32 -90
144 -89 156 0 5 6 1 12 -10 7 -10 31 -48 54 -85z"/>
<path d="M3470 1786 c0 -2 15 -13 34 -24 24 -14 44 -40 65 -84 36 -72 38 -90
14 -82 -15 5 -16 4 -3 -5 25 -18 33 -12 26 21 -8 40 -51 131 -68 146 -15 12
-68 34 -68 28z"/>
<path d="M3836 1700 c-16 -39 -26 -73 -23 -77 15 -14 37 11 57 64 25 68 25 77
8 81 -8 1 -25 -26 -42 -68z m28 3 c-23 -52 -56 -103 -41 -63 23 62 51 120 58
120 5 0 -3 -26 -17 -57z"/>
<path d="M5515 1238 c-2 -7 -7 -48 -10 -90 -6 -74 -8 -78 -31 -78 -17 0 -29
-10 -43 -37 -24 -47 -81 -275 -80 -317 0 -18 6 -2 14 39 19 107 56 236 78 272
22 39 56 45 59 11 1 -13 5 4 9 37 5 45 6 36 3 -37 -4 -98 -45 -363 -63 -408
-14 -37 -12 -4 4 65 8 33 14 69 14 80 0 17 -33 -113 -53 -210 -5 -25 -4 -26 4
-10 8 15 9 10 5 -25 -9 -81 53 159 76 295 16 91 23 175 23 277 1 82 0 148 -2
148 -1 0 -4 -6 -7 -12z m-78 -660 c-3 -7 -5 -2 -5 12 0 14 2 19 5 13 2 -7 2
-19 0 -25z"/>
<path d="M3941 1227 c-2 -35 -72 -207 -116 -283 -90 -161 -119 -168 -232 -60
-24 22 -43 35 -43 29 0 -15 86 -92 116 -103 67 -26 105 2 172 129 49 94 115
267 109 290 -4 14 -5 13 -6 -2z"/>
<path d="M5533 1190 c0 -25 2 -35 4 -22 2 12 2 32 0 45 -2 12 -4 2 -4 -23z"/>
<path d="M1020 1187 c0 -1 18 -52 39 -113 67 -190 166 -536 250 -879 27 -110
50 -193 50 -185 1 20 -85 370 -143 580 -54 198 -114 395 -155 508 -16 45 -28
82 -25 82 2 0 31 -55 63 -122 32 -68 82 -166 110 -218 29 -52 66 -129 83 -170
25 -63 103 -305 121 -375 3 -14 5 -15 6 -4 1 23 -80 286 -121 389 -18 47 -63
142 -100 211 -37 69 -85 165 -107 213 -25 54 -46 86 -56 86 -8 0 -15 -1 -15
-3z"/>
<path d="M5493 975 c0 -22 2 -30 4 -17 2 12 2 30 0 40 -3 9 -5 -1 -4 -23z"/>
<path d="M5482 900 c0 -19 2 -27 5 -17 2 9 2 25 0 35 -3 9 -5 1 -5 -18z"/>
<path d="M1151 865 c1 -19 18 -51 18 -35 0 8 -4 22 -9 30 -5 8 -9 11 -9 5z"/>
<path d="M5297 849 c-4 -15 0 -114 8 -220 8 -107 20 -279 25 -384 14 -248 19
-289 14 -95 -3 85 -12 243 -20 350 -21 263 -16 315 14 145 23 -132 41 -274 44
-351 2 -25 6 -38 10 -31 5 8 8 7 8 -5 0 -10 42 63 92 161 97 188 130 233 61
84 -86 -187 -100 -223 -129 -332 -13 -51 -23 -112 -23 -135 1 -35 3 -32 10 21
16 123 75 289 183 512 30 62 31 71 13 71 -8 0 -29 -30 -48 -67 -19 -38 -63
-121 -97 -185 -69 -132 -65 -134 -82 32 -10 99 -52 360 -68 425 l-8 30 -7 -26z
m10 -61 c-2 -13 -4 -5 -4 17 -1 22 1 32 4 23 2 -10 2 -28 0 -40z m297 -173
c-4 -8 -8 -15 -10 -15 -2 0 -4 7 -4 15 0 8 4 15 10 15 5 0 7 -7 4 -15z"/>
<path d="M5472 830 c0 -19 2 -27 5 -17 2 9 2 25 0 35 -3 9 -5 1 -5 -18z"/>
<path d="M1399 843 c-2 -10 -4 35 20 -338 12 -176 26 -363 31 -415 l8 -95 -4
115 c-3 63 -14 247 -25 408 -11 161 -18 298 -15 305 2 7 5 3 5 -8 1 -11 10
-103 21 -205 11 -102 27 -262 36 -357 8 -95 19 -192 24 -215 9 -43 9 -43 4 9
-2 29 -11 123 -19 210 -19 213 -54 543 -60 571 -5 21 -24 31 -26 15z"/>
<path d="M1171 800 c0 -8 4 -24 9 -35 5 -13 9 -14 9 -5 0 8 -4 24 -9 35 -5 13
-9 14 -9 5z"/>
<path d="M1200 705 c0 -5 29 -104 64 -219 36 -116 79 -269 97 -341 17 -72 35
-134 40 -139 13 -15 -59 259 -128 484 -61 201 -73 236 -73 215z"/>
<path d="M5481 555 c3 -36 9 -68 12 -71 8 -8 -4 120 -12 129 -4 4 -4 -22 0
-58z"/>
<path d="M5402 510 c0 -14 2 -19 5 -12 2 6 2 18 0 25 -3 6 -5 1 -5 -13z"/>
<path d="M5506 265 c7 -87 41 -272 49 -264 2 2 -1 27 -7 54 -5 28 -18 102 -29
165 -14 89 -17 99 -13 45z"/>
<path d="M1272 184 c-1 -50 -4 -113 -7 -140 l-4 -49 10 48 c5 27 8 90 6 140
l-3 92 -2 -91z"/>
</g>
</svg>
