<?xml version="1.0" standalone="no"?>
<!DOCTYPE svg PUBLIC "-//W3C//DTD SVG 20010904//EN"
 "http://www.w3.org/TR/2001/REC-SVG-20010904/DTD/svg10.dtd">
<svg version="1.0" xmlns="http://www.w3.org/2000/svg"
 width="800.000000pt" height="800.000000pt" viewBox="0 0 800.000000 800.000000"
 preserveAspectRatio="xMidYMid meet">
<metadata>
Created by potrace 1.16, written by Peter Selinger 2001-2019
</metadata>
<g transform="translate(0.000000,800.000000) scale(0.100000,-0.100000)"
fill="#000000" stroke="none">
<path d="M3150 6420 c-155 -9 -235 -31 -389 -107 -246 -121 -298 -275 -247
-723 16 -135 45 -428 71 -720 18 -195 50 -539 69 -735 26 -260 54 -549 85
-880 17 -176 38 -385 46 -465 8 -80 27 -266 41 -415 70 -745 71 -755 103 -847
11 -31 27 -68 36 -82 10 -15 16 -29 13 -31 -3 -3 -76 -14 -164 -25 -171 -22
-306 -53 -325 -76 -45 -55 116 -99 490 -134 562 -53 1657 -55 2291 -4 433 34
620 79 571 138 -30 36 -358 90 -606 100 l-120 5 155 -14 c318 -27 510 -61 552
-95 l22 -17 -25 -16 c-116 -76 -787 -127 -1686 -127 -842 0 -1494 49 -1613
122 -30 17 -31 21 -18 35 25 25 138 51 319 73 l170 22 53 -50 c118 -112 219
-129 561 -97 88 9 167 18 175 20 8 2 128 16 265 30 794 80 1214 146 1312 206
59 37 120 115 145 187 21 63 23 82 22 292 0 156 -8 317 -27 525 -14 165 -40
458 -57 650 -17 193 -37 420 -45 505 -8 85 -24 254 -35 375 -84 909 -183 1770
-220 1910 -70 263 -176 363 -425 399 -268 39 -1288 82 -1565 66z m725 -20
c366 -14 711 -37 840 -56 137 -20 217 -56 284 -130 87 -95 128 -206 161 -434
49 -335 125 -1028 190 -1735 11 -121 27 -290 35 -375 8 -85 28 -312 45 -505
17 -192 43 -485 57 -650 19 -212 27 -367 27 -530 1 -218 0 -233 -22 -287 -27
-67 -97 -149 -156 -182 -104 -60 -475 -118 -1241 -196 -165 -17 -307 -33 -315
-35 -8 -2 -87 -11 -175 -20 -341 -32 -431 -16 -552 97 -56 54 -95 112 -118
179 -27 75 -30 105 -99 834 -14 149 -33 335 -41 415 -8 80 -29 289 -46 465
-31 331 -59 620 -85 880 -19 196 -51 540 -69 735 -27 295 -55 585 -71 720 -19
167 -22 370 -5 430 37 137 107 212 276 298 201 102 313 111 1080 82z"/>
<path d="M3054 6355 c-116 -21 -193 -85 -235 -195 -27 -69 -36 -257 -20 -410
5 -58 20 -195 31 -305 40 -387 60 -583 95 -920 19 -187 44 -425 55 -530 11
-104 27 -253 35 -330 8 -77 24 -228 35 -335 11 -107 27 -258 35 -335 64 -611
121 -1151 135 -1274 28 -247 186 -392 430 -394 47 0 173 10 280 22 107 11 260
28 340 37 634 68 930 116 1035 165 52 24 110 85 132 138 40 93 52 272 33 458
-6 54 -24 260 -40 458 -44 537 -121 1395 -140 1575 -6 52 -22 212 -35 355 -48
488 -99 944 -135 1190 -69 479 -141 554 -565 589 -268 22 -317 25 -715 41
-435 18 -689 18 -786 0z m791 -10 c361 -15 718 -37 861 -55 197 -25 308 -126
363 -330 24 -89 70 -422 106 -755 14 -132 30 -278 35 -325 6 -47 21 -202 35
-345 14 -143 29 -303 35 -355 19 -180 96 -1038 140 -1575 16 -198 34 -404 40
-458 20 -189 5 -379 -34 -455 -25 -48 -74 -100 -120 -127 -94 -55 -469 -113
-1226 -190 -80 -8 -208 -21 -285 -29 -172 -19 -251 -10 -344 37 -126 63 -203
181 -221 338 -14 123 -71 662 -135 1274 -8 77 -24 228 -35 335 -11 107 -27
258 -35 335 -8 77 -24 226 -35 330 -11 105 -36 343 -55 530 -35 337 -55 533
-95 920 -11 110 -26 247 -31 305 -6 58 -9 161 -7 230 4 107 8 134 30 180 49
108 121 167 228 186 91 17 352 17 785 -1z"/>
<path d="M3175 6246 c-44 -7 -102 -24 -130 -39 -152 -77 -170 -180 -115 -682
17 -159 44 -420 60 -580 17 -159 37 -353 45 -430 8 -77 31 -295 50 -485 20
-190 44 -426 55 -525 11 -99 29 -268 40 -375 11 -107 25 -233 30 -280 5 -47
19 -173 30 -280 74 -696 76 -709 100 -807 28 -109 63 -175 121 -227 110 -99
229 -109 724 -62 501 49 841 96 979 137 132 39 192 102 227 237 18 68 19 88 9
172 -5 52 -17 185 -25 295 -37 491 -115 1386 -160 1840 -8 83 -26 267 -40 410
-49 492 -119 1098 -145 1249 -37 212 -116 321 -262 364 -128 38 -259 51 -648
61 -720 20 -860 21 -945 7z m945 -17 c525 -14 661 -36 758 -124 78 -70 117
-151 142 -291 26 -151 96 -757 145 -1249 14 -143 32 -327 40 -410 45 -456 123
-1355 160 -1840 8 -110 19 -241 25 -291 9 -76 8 -103 -5 -160 -27 -119 -99
-202 -207 -240 -130 -46 -801 -131 -1287 -164 -242 -16 -356 12 -444 110 -54
59 -72 96 -97 195 -24 95 -26 111 -100 805 -11 107 -25 233 -30 280 -5 47 -19
173 -30 280 -11 107 -29 276 -40 375 -11 99 -35 335 -55 525 -19 190 -42 408
-50 485 -8 77 -28 271 -45 430 -16 160 -43 421 -60 580 -54 500 -40 586 115
675 91 52 159 54 1065 29z"/>
<path d="M3230 6200 c-197 -18 -260 -75 -280 -254 -10 -86 -6 -143 30 -416 6
-41 19 -160 31 -265 20 -187 28 -265 68 -655 12 -107 30 -280 41 -385 11 -104
32 -298 46 -430 22 -213 52 -492 100 -940 8 -77 21 -203 29 -280 66 -640 81
-751 110 -842 34 -108 71 -155 153 -195 l67 -33 185 0 c232 1 704 49 1125 115
297 46 359 83 401 238 16 56 16 77 5 210 -7 81 -21 251 -31 377 -63 750 -91
1070 -136 1545 -14 146 -34 355 -44 465 -46 483 -113 1090 -140 1265 -34 220
-79 325 -162 373 -106 62 -251 80 -793 96 -529 17 -714 19 -805 11z m805 -21
c420 -12 564 -23 666 -49 181 -46 241 -138 283 -432 26 -176 95 -809 136
-1243 10 -110 30 -319 44 -465 46 -478 75 -818 136 -1550 11 -129 25 -297 31
-373 14 -159 6 -217 -41 -290 -34 -53 -108 -101 -185 -117 -226 -49 -951 -135
-1235 -147 -84 -3 -173 -1 -211 5 -126 20 -207 95 -249 230 -24 78 -41 210
-105 827 -8 77 -21 203 -29 280 -48 448 -78 727 -100 940 -14 132 -35 326 -46
430 -11 105 -29 278 -41 385 -40 390 -48 468 -68 655 -12 105 -25 224 -31 265
-36 274 -40 330 -30 416 13 116 43 167 123 208 93 48 169 50 952 25z"/>
<path d="M3753 5940 c-19 -8 -23 -17 -23 -50 0 -34 4 -42 26 -50 35 -14 490
-13 515 0 24 13 26 72 2 91 -12 11 -70 14 -257 16 -133 1 -251 -2 -263 -7z
m497 -13 c28 -14 38 -51 20 -73 -10 -11 -55 -14 -252 -14 -146 0 -247 4 -259
10 -25 14 -26 65 -1 79 26 16 461 14 492 -2z"/>
<path d="M4005 5890 l240 -5 -240 -5 -240 -5 243 -3 c209 -2 242 0 242 13 0
13 -33 15 -242 13 l-243 -2 240 -6z"/>
<path d="M3597 5933 c-12 -11 -8 -68 5 -81 20 -20 57 -14 69 11 17 37 -4 77
-39 77 -16 0 -32 -3 -35 -7z m65 -28 c10 -21 9 -29 -5 -43 -29 -28 -69 12 -53
54 9 23 45 16 58 -11z"/>
<path d="M4363 2256 c-122 -39 -183 -128 -183 -267 0 -91 24 -153 83 -214 67
-69 139 -93 226 -76 104 21 166 83 196 196 36 138 -38 298 -162 350 -51 21
-114 26 -160 11z m172 -31 c190 -111 200 -385 18 -492 -36 -21 -59 -27 -107
-27 -73 0 -125 24 -179 83 -63 70 -72 95 -72 201 0 91 2 98 33 147 72 112 202
150 307 88z"/>
<path d="M4342 2189 c-49 -25 -79 -63 -98 -126 -18 -59 -18 -87 2 -154 23 -77
91 -144 157 -154 93 -14 164 18 207 95 34 61 35 175 3 235 -58 110 -171 153
-271 104z m186 -26 c20 -16 51 -50 67 -74 27 -39 30 -52 30 -119 0 -64 -4 -81
-27 -116 -68 -105 -183 -125 -269 -47 -60 54 -83 105 -84 183 0 92 43 162 125
202 8 4 39 6 68 5 40 -3 61 -11 90 -34z"/>
<path d="M4395 2069 c-66 -11 -78 -28 -70 -104 11 -97 25 -108 125 -95 67 9
83 28 75 90 -12 91 -15 98 -47 109 -17 6 -31 10 -32 10 -1 -1 -23 -5 -51 -10z
m79 -11 c28 -12 32 -20 41 -93 5 -42 3 -54 -12 -68 -24 -21 -124 -27 -146 -9
-9 7 -18 39 -22 73 -9 73 2 89 67 100 24 3 44 7 45 8 1 0 13 -4 27 -11z"/>
<path d="M4371 2021 c-10 -6 -11 -21 -6 -60 l7 -51 53 0 c60 0 65 5 56 70 l-6
45 -45 3 c-25 1 -51 -2 -59 -7z m100 -46 c4 -22 5 -43 2 -47 -2 -5 -24 -8 -48
-8 -43 0 -43 1 -50 40 -9 52 -1 62 48 58 40 -3 42 -4 48 -43z"/>
<path d="M2735 6237 c-95 -62 -137 -115 -165 -203 -22 -72 -28 -194 -9 -194 6
0 49 15 95 33 l84 32 1 65 c0 36 2 73 4 84 15 77 31 128 56 171 l29 50 -27
-32 c-16 -19 -37 -63 -48 -103 l-20 -71 -63 -28 c-56 -25 -97 -51 -80 -51 4 0
33 14 65 30 31 17 62 30 68 30 6 0 9 -26 7 -69 l-4 -70 -46 -17 c-26 -10 -62
-23 -81 -31 -18 -7 -35 -13 -37 -13 -2 0 -4 26 -4 57 0 131 57 236 170 310 59
40 101 73 90 73 -3 0 -41 -24 -85 -53z"/>
<path d="M2648 5826 c-43 -18 -82 -36 -87 -41 -6 -6 -6 -41 0 -90 12 -105 69
-688 113 -1165 17 -178 74 -771 111 -1145 8 -82 21 -220 29 -305 9 -85 24
-247 36 -360 11 -113 29 -304 41 -425 39 -413 57 -586 61 -590 8 -8 207 39
211 49 2 6 -5 85 -14 176 -23 213 -44 406 -69 655 -12 110 -30 281 -40 380
-11 99 -28 268 -40 375 -11 107 -40 389 -65 625 -51 488 -69 668 -90 875 -8
80 -23 235 -35 345 -11 110 -27 265 -35 345 -23 219 -35 314 -43 321 -4 3 -42
-8 -84 -25z m91 -66 c6 -47 17 -150 26 -230 8 -80 24 -235 35 -345 12 -110 27
-265 35 -345 21 -207 39 -387 90 -875 25 -236 54 -518 65 -625 12 -107 29
-276 40 -375 10 -99 28 -270 40 -380 27 -265 47 -455 69 -655 10 -91 15 -168
12 -172 -7 -8 -184 -48 -190 -42 -4 4 -19 146 -60 579 -12 121 -30 312 -41
425 -12 113 -27 275 -36 360 -8 85 -21 223 -29 305 -37 374 -94 967 -111 1145
-43 464 -101 1057 -113 1165 -5 44 -7 82 -5 85 6 5 158 68 161 66 1 -1 7 -40
12 -86z"/>
<path d="M2660 5330 c-24 -24 -25 -42 -5 -270 10 -115 21 -182 31 -197 33 -52
114 -11 114 57 0 40 -29 344 -36 377 -10 52 -67 70 -104 33z m78 -10 c15 -16
22 -56 37 -220 l19 -200 -24 -25 c-28 -30 -51 -32 -74 -7 -12 15 -20 63 -33
220 -15 188 -15 202 1 226 20 31 48 33 74 6z"/>
<path d="M2682 5293 c-9 -17 20 -368 33 -400 6 -18 34 -16 41 1 6 15 -23 367
-32 399 -3 9 -12 17 -19 17 -8 0 -18 -8 -23 -17z m53 -195 c16 -178 14 -221
-6 -201 -15 15 -48 376 -36 391 5 7 14 9 18 5 4 -4 15 -92 24 -195z"/>
<path d="M3090 1685 c-30 -7 -72 -16 -94 -19 -38 -7 -38 -7 -32 -47 20 -123
101 -236 204 -285 61 -29 184 -43 258 -29 l38 7 -55 29 c-119 66 -200 179
-233 332 -7 30 -9 31 -86 12z m87 -55 c33 -129 107 -232 208 -292 l50 -29
-105 3 c-93 3 -111 7 -158 33 -96 52 -179 164 -197 267 -6 33 -5 38 16 42 13
3 53 12 89 20 36 8 69 13 74 12 5 -1 15 -27 23 -56z"/>
<path d="M5078 1413 c7 -3 16 -2 19 1 4 3 -2 6 -13 5 -11 0 -14 -3 -6 -6z"/>
</g>
</svg>
