<?xml version="1.0" standalone="no"?>
<!DOCTYPE svg PUBLIC "-//W3C//DTD SVG 20010904//EN"
 "http://www.w3.org/TR/2001/REC-SVG-20010904/DTD/svg10.dtd">
<svg version="1.0" xmlns="http://www.w3.org/2000/svg"
 width="800.000000pt" height="800.000000pt" viewBox="0 0 800.000000 800.000000"
 preserveAspectRatio="xMidYMid meet">
<metadata>
Created by potrace 1.16, written by Peter Selinger 2001-2019
</metadata>
<g transform="translate(0.000000,800.000000) scale(0.100000,-0.100000)"
fill="#000000" stroke="none">
<path d="M7755 7723 c-8 -270 4 -664 25 -858 12 -111 12 -605 -1 -810 -13
-216 -13 -705 0 -1037 5 -141 6 -269 2 -285 -5 -16 -4 -39 1 -53 15 -37 14
-565 -1 -700 -17 -153 -31 -207 -90 -331 -68 -143 -78 -177 -91 -314 -6 -66
-26 -201 -45 -300 -46 -245 -62 -334 -79 -445 -69 -453 -99 -636 -104 -641 -4
-4 -105 -25 -226 -49 -178 -34 -220 -39 -227 -28 -5 7 -9 36 -9 65 0 28 -5 64
-11 80 -6 15 -11 42 -10 58 0 17 -4 39 -9 50 -5 11 -18 82 -30 158 -24 153
-37 200 -54 194 -11 -4 -14 -22 -36 -242 -6 -66 -19 -154 -28 -195 -8 -41 -15
-105 -13 -142 1 -36 -2 -69 -7 -72 -22 -13 -199 -46 -327 -60 -231 -25 -217
-26 -227 9 -6 22 -38 259 -38 282 0 7 -30 2 -30 -4 -2 -46 -22 -158 -30 -168
-6 -7 -11 -46 -13 -86 l-2 -74 -100 -12 c-147 -17 -170 -16 -155 2 14 17 9 45
-24 118 -22 48 -56 160 -56 185 0 6 24 12 52 14 72 4 74 24 11 91 -64 67 -103
127 -113 171 -7 33 -6 37 16 42 24 6 24 8 24 129 0 115 -2 125 -24 152 -13 15
-34 61 -46 102 -13 40 -34 89 -46 107 -23 33 -23 34 -4 44 32 17 34 53 7 147
-14 48 -28 122 -32 163 -4 41 -15 117 -26 168 -11 51 -17 97 -15 101 3 5 39
14 81 20 118 19 253 59 335 98 95 45 212 157 229 218 14 52 14 108 -1 140 -20
44 -35 30 -34 -32 0 -46 -5 -67 -26 -98 -57 -89 -185 -179 -306 -214 -91 -28
-273 -63 -281 -56 -3 4 -10 34 -16 68 -8 52 -13 62 -30 62 -17 0 -22 -10 -31
-68 -6 -37 -14 -71 -18 -74 -4 -4 -73 -15 -153 -25 -81 -9 -160 -20 -177 -24
-29 -6 -29 -6 -11 12 34 35 122 158 168 239 48 81 129 273 142 333 7 35 17 41
91 61 53 14 75 40 81 94 7 60 -8 102 -61 165 l-44 54 -5 151 c-5 172 -26 283
-83 452 -60 178 -176 385 -287 510 -21 25 -37 49 -34 52 4 3 41 9 84 14 253
26 532 -15 613 -91 18 -16 30 -23 30 -15 0 39 -154 95 -314 115 -105 14 -355
7 -399 -9 -21 -8 -30 -3 -68 35 -24 24 -41 44 -38 44 3 0 57 9 120 21 149 27
361 29 469 4 129 -30 230 -96 246 -162 15 -60 -40 -161 -163 -299 -42 -48 -65
-79 -51 -70 14 9 49 44 77 76 146 168 182 280 115 360 -32 38 -128 83 -224
105 -108 25 -320 23 -469 -4 -63 -12 -118 -21 -123 -21 -20 0 -4 -27 53 -88
277 -300 424 -647 436 -1030 5 -141 7 -155 29 -185 71 -96 84 -122 84 -163 0
-62 -35 -99 -105 -114 -55 -11 -55 -11 -70 -63 -28 -95 -78 -211 -133 -307
-53 -91 -140 -216 -175 -252 -29 -28 -21 -41 19 -33 20 3 104 15 186 25 82 10
151 20 154 23 3 2 9 33 15 68 16 101 36 103 46 5 5 -52 5 -54 -23 -65 -24 -9
-25 -10 -4 -6 14 3 46 8 71 10 135 13 329 69 415 121 123 73 187 160 188 250
0 44 2 49 13 35 17 -22 16 -94 -2 -136 -20 -50 -107 -138 -181 -185 -78 -49
-174 -82 -333 -114 -67 -13 -125 -26 -128 -29 -3 -3 4 -52 16 -109 11 -57 24
-137 27 -178 4 -41 18 -111 30 -154 30 -100 30 -112 -1 -132 -29 -19 -32 -36
-10 -54 19 -16 47 -79 65 -145 7 -27 24 -61 36 -76 22 -23 24 -33 24 -140 0
-113 -1 -116 -24 -127 -23 -10 -24 -14 -15 -54 12 -52 46 -105 112 -175 27
-29 46 -57 42 -62 -3 -6 -28 -11 -56 -11 -40 0 -49 -3 -49 -18 0 -30 39 -158
65 -216 31 -68 31 -70 -1 -94 l-27 -19 43 -129 c23 -71 67 -181 97 -246 56
-118 61 -148 23 -148 -13 0 -20 -7 -20 -20 0 -31 22 -70 40 -70 19 0 44 58 47
110 6 99 13 149 27 181 22 53 37 158 26 180 -7 12 -4 36 11 81 11 35 22 101
25 147 2 46 8 89 13 95 5 6 12 34 16 61 13 108 17 122 25 100 4 -11 10 -56 14
-100 4 -44 16 -120 28 -170 11 -49 22 -122 23 -162 3 -45 12 -91 26 -123 17
-40 19 -54 10 -60 -15 -9 -6 -107 14 -157 8 -17 11 -41 8 -52 -6 -24 13 -86
34 -107 14 -14 17 -13 27 8 16 32 41 34 77 4 35 -30 65 -33 91 -9 10 9 31 16
47 16 21 0 31 6 35 19 4 16 8 18 25 9 18 -10 21 -8 27 16 3 16 12 41 19 57 7
16 11 35 8 43 -3 7 4 28 14 46 28 47 37 88 21 98 -10 6 -9 18 6 56 24 59 32
131 17 146 -16 16 -14 38 8 80 24 47 45 167 38 218 -3 22 1 62 8 90 14 52 39
243 50 382 7 81 19 99 30 45 11 -48 55 -308 59 -343 1 -17 8 -46 14 -65 5 -19
13 -69 16 -112 3 -42 13 -98 22 -125 15 -41 22 -105 25 -213 1 -40 26 -125 55
-190 26 -59 28 -60 59 -54 36 6 112 -26 122 -52 4 -12 15 -14 44 -9 33 6 39 4
40 -12 0 -14 2 -13 10 6 9 24 23 109 73 466 33 229 45 308 122 800 25 158 52
316 89 510 19 99 39 234 45 300 13 137 24 173 90 305 83 168 104 312 103 730
0 160 -5 296 -10 310 -6 14 -7 37 -2 53 4 16 4 144 -2 285 -14 362 -14 766 1
1047 14 274 8 759 -11 935 -8 76 -13 266 -12 558 0 243 -1 442 -2 442 -2 0 -6
-125 -10 -277z m-385 -5812 c0 -10 -14 -110 -30 -222 -17 -112 -35 -238 -41
-279 -17 -129 -16 -127 -56 -133 -29 -5 -39 -2 -50 13 -18 25 -96 54 -128 46
-23 -6 -27 -1 -54 56 -39 86 -46 125 -54 273 -2 39 -12 94 -21 123 -10 29 -17
54 -15 56 6 5 399 83 427 85 15 1 22 -5 22 -18z m-665 -138 c-4 -20 -15 -54
-26 -75 -21 -40 -25 -83 -9 -93 17 -10 11 -73 -10 -117 -23 -47 -26 -84 -8
-90 8 -3 3 -21 -16 -58 -15 -29 -26 -61 -23 -71 3 -10 -1 -26 -8 -36 -7 -10
-15 -30 -17 -43 -2 -19 -8 -24 -25 -23 -14 2 -24 -4 -28 -17 -3 -10 -11 -17
-18 -14 -7 2 -30 -5 -52 -16 -49 -25 -51 -25 -87 5 -36 30 -72 32 -91 5 -14
-20 -15 -20 -31 15 -11 23 -15 47 -11 65 4 17 1 40 -8 57 -19 37 -32 143 -18
143 17 0 13 37 -10 81 -13 27 -21 65 -23 112 -2 40 -7 84 -11 99 -8 33 -16 31
195 53 85 9 191 25 235 35 112 26 108 26 100 -17z m-665 -69 c0 -3 -9 -37 -21
-75 -15 -51 -18 -73 -10 -82 13 -16 -2 -117 -25 -173 -9 -22 -16 -55 -15 -75
0 -20 -6 -54 -13 -75 -8 -22 -15 -31 -15 -21 -1 9 -24 63 -52 119 -52 103
-143 354 -134 369 3 4 20 6 38 3 17 -2 61 -1 97 4 79 11 150 14 150 6z m-80
-529 c0 -15 -34 -85 -41 -85 -11 0 -29 34 -29 54 0 9 8 16 19 16 11 0 23 5 26
10 6 10 25 14 25 5z"/>
<path d="M7807 7938 c-10 -127 1 -862 14 -963 18 -134 18 -794 0 -1155 -10
-214 -11 -327 -2 -510 6 -129 16 -412 22 -629 16 -611 -5 -860 -89 -1028 -64
-127 -89 -209 -97 -314 -4 -52 -18 -152 -32 -224 -78 -419 -119 -667 -199
-1200 -82 -551 -106 -708 -114 -755 -5 -30 -21 -122 -35 -205 -27 -165 -59
-318 -75 -360 -5 -14 -10 -44 -10 -66 0 -28 -4 -39 -15 -39 -11 0 -15 12 -17
43 l-1 42 -4 -39 c-6 -51 1 -66 26 -59 17 4 21 13 21 49 0 23 5 55 10 69 16
42 48 195 75 360 14 83 30 175 35 205 8 47 32 204 114 755 80 533 121 781 199
1200 14 72 28 172 32 223 8 106 23 158 88 290 93 187 115 427 98 1053 -6 217
-16 500 -22 628 -9 183 -8 298 2 515 19 389 18 970 -1 1161 -11 108 -15 271
-15 583 0 237 -1 432 -2 432 0 0 -3 -28 -6 -62z"/>
<path d="M7322 7943 c2 -22 8 -28 28 -28 20 0 25 5 25 25 0 20 -6 26 -28 28
-26 3 -28 1 -25 -25z m43 -3 c0 -22 -29 -18 -33 3 -3 14 1 18 15 15 10 -2 18
-10 18 -18z"/>
<path d="M5461 7893 c0 -13 2 -14 6 -4 5 11 7 11 14 0 7 -11 9 -10 9 4 0 9 -7
17 -15 17 -8 0 -15 -8 -14 -17z"/>
<path d="M380 7835 c0 -8 7 -15 15 -15 8 0 15 7 15 15 0 8 -7 15 -15 15 -8 0
-15 -7 -15 -15z"/>
<path d="M3301 7721 c-19 -12 -6 -43 16 -39 10 2 18 12 18 22 0 22 -14 29 -34
17z m23 -22 c-3 -5 -10 -7 -15 -3 -5 3 -7 10 -3 15 3 5 10 7 15 3 5 -3 7 -10
3 -15z"/>
<path d="M490 7546 c0 -8 7 -16 15 -20 10 -4 15 1 15 14 0 11 -7 20 -15 20 -8
0 -15 -6 -15 -14z"/>
<path d="M5384 7376 c-10 -27 1 -51 26 -54 28 -5 50 20 43 48 -6 24 -61 28
-69 6z m59 -10 c7 -19 -18 -40 -38 -32 -15 6 -20 28 -8 39 12 12 41 7 46 -7z"/>
<path d="M6069 7361 c11 -7 11 -9 0 -14 -10 -4 -9 -6 4 -6 9 -1 17 6 17 14 0
8 -8 15 -17 15 -14 0 -15 -2 -4 -9z"/>
<path d="M5537 7333 c-14 -13 -6 -33 13 -33 13 0 20 7 20 20 0 19 -20 27 -33
13z m23 -13 c0 -5 -5 -10 -11 -10 -5 0 -7 5 -4 10 3 6 8 10 11 10 2 0 4 -4 4
-10z"/>
<path d="M0 7317 c0 -3 13 -108 29 -234 30 -227 50 -344 70 -396 21 -54 122
-444 136 -526 34 -196 45 -618 38 -1461 -2 -146 2 -308 7 -360 6 -52 14 -286
20 -519 12 -522 32 -853 65 -1076 14 -93 30 -251 36 -350 11 -175 20 -232 90
-593 45 -231 62 -227 95 23 9 65 21 89 27 55 5 -26 26 -168 34 -233 4 -28 10
-37 24 -37 23 0 43 30 69 105 23 66 25 106 8 123 -9 9 -8 18 1 39 34 74 51
163 31 163 -13 0 -13 36 1 62 11 21 29 131 35 218 9 129 14 165 37 275 14 66
31 179 39 250 13 137 24 137 27 0 2 -92 18 -231 38 -325 9 -41 17 -109 18
-150 1 -41 9 -101 19 -133 12 -42 14 -62 6 -72 -18 -21 12 -177 43 -224 22
-34 25 -44 17 -73 -12 -41 -3 -98 16 -98 8 0 14 8 15 18 5 75 11 115 48 287
27 127 40 226 29 219 -4 -3 -8 -18 -8 -35 0 -16 -12 -87 -26 -157 -38 -184
-45 -223 -49 -262 -6 -65 -6 -66 -16 -42 -6 15 -5 39 2 67 10 41 9 46 -18 87
-34 50 -60 182 -41 205 8 10 6 31 -7 76 -10 34 -19 98 -20 142 -2 44 -10 112
-19 150 -9 39 -21 129 -27 200 -6 72 -13 158 -16 193 -8 106 -26 69 -44 -95
-10 -83 -29 -204 -43 -269 -14 -66 -25 -130 -26 -144 -2 -115 -23 -278 -39
-308 -14 -26 -15 -72 -1 -72 17 0 11 -42 -15 -105 -27 -65 -31 -90 -15 -100
15 -9 12 -45 -6 -101 -17 -50 -49 -104 -62 -104 -9 0 -42 170 -43 220 -2 83
-34 106 -44 32 -4 -26 -13 -79 -21 -119 -8 -40 -14 -81 -14 -93 0 -11 -4 -20
-8 -20 -7 0 -105 472 -117 565 -3 22 -9 114 -15 205 -6 91 -21 242 -35 335
-33 223 -53 555 -65 1076 -6 233 -14 467 -20 519 -5 52 -9 214 -7 360 7 843
-4 1265 -38 1461 -14 82 -115 472 -136 526 -20 52 -40 169 -70 397 -16 126
-32 232 -34 234 -3 3 -5 3 -5 -1z"/>
<path d="M3307 7184 c-4 -4 -7 -18 -7 -30 0 -17 7 -25 26 -30 31 -8 47 6 42
37 -2 17 -10 25 -28 27 -14 2 -29 0 -33 -4z m51 -27 c4 -20 -25 -34 -40 -19
-15 15 -1 44 19 40 10 -2 19 -11 21 -21z"/>
<path d="M6850 7078 c0 -10 7 -18 15 -18 8 0 15 8 15 18 0 10 -7 19 -15 19 -8
0 -15 -9 -15 -19z"/>
<path d="M513 7035 c0 -8 9 -15 19 -15 10 0 18 7 18 15 0 8 -8 15 -18 15 -10
0 -19 -7 -19 -15z"/>
<path d="M1840 6955 c0 -8 7 -15 15 -15 8 0 15 7 15 15 0 8 -7 15 -15 15 -8 0
-15 -7 -15 -15z"/>
<path d="M7630 6930 c0 -13 7 -20 20 -20 13 0 20 7 20 20 0 13 -7 20 -20 20
-13 0 -20 -7 -20 -20z m30 0 c0 -5 -4 -10 -10 -10 -5 0 -10 5 -10 10 0 6 5 10
10 10 6 0 10 -4 10 -10z"/>
<path d="M0 6933 c0 -35 35 -196 65 -303 158 -551 159 -565 160 -1490 0 -410
6 -824 13 -970 6 -140 17 -417 22 -615 11 -390 28 -630 59 -831 11 -71 24
-196 30 -279 19 -260 22 -286 51 -429 123 -610 123 -610 271 -833 100 -148
203 -222 331 -238 40 -4 72 -16 105 -38 43 -28 50 -40 70 -99 21 -68 46 -111
91 -161 15 -16 20 -27 13 -27 -8 0 -11 -6 -7 -16 6 -15 -2 -16 -69 -10 -42 4
-146 20 -233 35 -86 16 -200 32 -252 36 -84 6 -103 11 -165 45 -38 22 -90 59
-115 84 -50 50 -86 62 -75 24 11 -37 82 -103 158 -148 63 -38 78 -43 171 -51
55 -6 162 -21 236 -35 119 -22 301 -47 443 -61 45 -5 47 -4 47 20 0 18 -14 37
-44 64 -40 34 -133 143 -122 143 2 0 64 -9 137 -21 74 -11 244 -33 379 -50
287 -34 356 -46 850 -143 124 -25 349 -61 500 -81 151 -19 348 -47 438 -60 89
-14 235 -36 325 -50 271 -41 587 -83 672 -88 l80 -5 -65 9 c-36 5 -155 21
-265 35 -110 14 -288 39 -395 55 -107 16 -267 41 -355 54 -88 14 -284 41 -435
60 -151 20 -376 56 -500 81 -494 97 -563 109 -850 143 -135 17 -305 39 -379
50 -155 24 -151 24 -151 11 0 -17 78 -112 126 -153 58 -51 58 -71 2 -64 -201
23 -323 40 -438 61 -74 14 -180 29 -235 34 -87 9 -107 14 -154 44 -61 38 -178
145 -168 154 4 4 29 -15 57 -42 28 -27 81 -65 118 -85 59 -31 81 -37 163 -43
52 -4 168 -20 259 -36 91 -16 206 -34 257 -40 51 -6 100 -13 110 -17 10 -3 15
-3 11 2 -4 4 -22 11 -40 16 -30 8 -29 8 11 4 30 -2 40 -1 30 6 -7 5 -27 9 -44
10 -16 0 -24 3 -17 6 18 7 15 27 -8 48 -34 31 -81 113 -99 172 -23 76 -67 109
-171 127 -137 24 -229 91 -329 239 -131 195 -157 260 -212 532 -95 465 -88
419 -110 720 -6 83 -19 208 -30 279 -31 201 -48 441 -59 831 -5 198 -16 475
-22 615 -7 146 -13 560 -13 970 -1 925 -2 939 -160 1490 -19 69 -43 166 -51
215 -14 81 -24 117 -24 88z"/>
<path d="M857 6924 c-9 -10 4 -34 19 -34 8 0 14 9 14 20 0 19 -19 27 -33 14z"/>
<path d="M7490 6810 c0 -11 7 -20 15 -20 8 0 15 9 15 20 0 11 -7 20 -15 20 -8
0 -15 -9 -15 -20z"/>
<path d="M1550 6785 c0 -8 7 -15 15 -15 8 0 15 7 15 15 0 8 -7 15 -15 15 -8 0
-15 -7 -15 -15z"/>
<path d="M4874 6566 c-12 -31 0 -51 31 -51 24 0 31 5 33 24 6 36 -51 60 -64
27z m45 -5 c17 -11 7 -41 -13 -41 -19 0 -29 17 -22 35 6 17 15 18 35 6z"/>
<path d="M7724 6275 c-4 -9 -2 -21 4 -27 15 -15 44 -1 40 19 -4 23 -36 29 -44
8z m30 -16 c-3 -5 -10 -7 -15 -3 -5 3 -7 10 -3 15 3 5 10 7 15 3 5 -3 7 -10 3
-15z"/>
<path d="M1483 6134 c-3 -8 -1 -20 4 -25 14 -14 43 0 43 22 0 24 -38 26 -47 3z
m37 -2 c0 -13 -12 -22 -22 -16 -10 6 -1 24 13 24 5 0 9 -4 9 -8z"/>
<path d="M3600 6124 c-395 -50 -769 -234 -1024 -504 -284 -302 -446 -708 -446
-1120 0 -96 23 -296 44 -375 l13 -50 -117 -125 c-268 -286 -341 -387 -389
-544 -11 -37 -21 -87 -21 -110 0 -60 40 -139 87 -170 63 -43 185 -77 298 -82
559 -25 576 -25 741 -3 88 11 177 18 199 16 22 -2 90 -25 151 -51 211 -87 411
-126 651 -126 425 0 844 164 1143 446 l75 70 199 22 c110 12 201 21 202 19 5
-4 -34 -190 -55 -267 -25 -89 -26 -128 -5 -158 13 -19 14 -29 4 -55 -6 -18
-15 -86 -20 -152 -10 -126 -21 -176 -64 -289 -33 -87 -33 -109 2 -134 l27 -20
-28 -79 c-30 -85 -33 -123 -15 -153 16 -25 -1 -92 -42 -173 -33 -63 -38 -104
-15 -113 12 -5 14 -23 11 -93 -5 -110 -15 -131 -64 -132 -20 0 -100 -8 -177
-18 -77 -10 -141 -17 -143 -16 -2 2 -6 37 -9 79 -4 54 -10 76 -19 76 -10 0
-14 -16 -14 -59 0 -98 -7 -107 -87 -116 -37 -4 -129 -15 -203 -26 -74 -10
-140 -19 -146 -19 -18 0 -26 31 -13 46 8 10 6 23 -10 54 -11 22 -18 46 -15 53
3 8 -4 46 -15 84 -10 39 -22 105 -26 146 -5 50 -12 78 -21 81 -11 4 -14 -5
-14 -37 0 -42 -17 -165 -49 -352 l-17 -99 -164 -28 c-91 -15 -246 -36 -345
-48 -99 -11 -189 -22 -200 -25 -31 -9 -608 -46 -613 -40 -10 10 -23 110 -27
205 -2 52 -11 118 -19 145 -9 28 -19 84 -22 125 -8 86 -14 103 -33 91 -9 -6
-16 -42 -21 -107 -4 -55 -12 -119 -18 -144 -30 -124 -34 -151 -24 -163 5 -7 6
-21 1 -32 -4 -11 -8 -37 -8 -57 -2 -80 -5 -82 -142 -96 -68 -7 -178 -22 -244
-33 -134 -23 -155 -22 -305 19 l-105 29 -8 69 c-4 38 -10 94 -12 124 -10 147
-17 200 -30 262 -8 37 -15 89 -15 115 0 26 -7 75 -14 108 -8 33 -18 104 -22
157 -6 93 -18 125 -28 76 -3 -13 -10 -72 -16 -133 -6 -60 -18 -129 -27 -152
-8 -23 -13 -55 -10 -70 3 -17 -2 -42 -14 -65 -21 -41 -25 -74 -9 -80 6 -2 -1
-38 -19 -91 -24 -73 -28 -101 -26 -167 2 -44 0 -82 -5 -85 -8 -5 -319 61 -327
69 -3 3 0 13 7 21 10 13 11 21 0 43 -23 49 -30 84 -20 102 6 12 5 35 -6 69 -8
28 -16 81 -19 118 -6 107 -22 235 -35 270 -6 18 -15 72 -20 120 l-9 88 4 -90
c2 -49 9 -103 15 -120 13 -32 29 -157 35 -268 3 -37 11 -90 20 -119 10 -36 12
-55 4 -64 -11 -13 4 -88 23 -111 6 -8 5 -19 -2 -33 -9 -18 -8 -31 5 -66 9 -24
14 -47 12 -51 -3 -5 9 -9 26 -10 32 -2 67 -33 67 -59 0 -8 9 -14 20 -14 11 0
20 -4 20 -10 0 -15 26 -12 40 5 17 20 54 19 71 -2 11 -13 11 -17 1 -21 -20 -6
6 -32 33 -32 22 0 55 -28 55 -47 0 -6 -13 -13 -30 -16 -18 -4 -30 -13 -30 -23
0 -13 7 -15 43 -9 23 4 50 14 60 23 15 14 19 14 35 -1 23 -21 92 -23 92 -4 0
21 34 47 60 47 13 0 32 -7 42 -17 10 -9 18 -11 18 -5 0 15 -33 32 -67 33 l-28
1 30 9 c27 7 26 8 -9 4 -22 -2 -44 -9 -49 -14 -6 -6 -2 -8 13 -4 23 6 23 6 4
-13 -10 -11 -22 -16 -25 -11 -3 5 -9 1 -12 -8 -4 -9 -3 -13 3 -10 6 3 10 1 10
-4 0 -17 -66 -13 -80 4 -8 9 -9 15 -2 15 6 0 14 -5 17 -10 3 -6 14 -10 23 -10
9 0 -1 9 -22 21 -21 11 -45 18 -52 15 -9 -4 -18 4 -24 20 -6 15 -23 31 -41 37
-32 13 -32 16 -5 80 9 20 13 37 8 37 -4 0 -15 -22 -25 -50 -18 -49 -18 -49
-37 -30 -24 24 -58 26 -88 4 -12 -8 -22 -10 -22 -5 0 6 -8 11 -18 11 -11 0
-24 13 -33 33 -10 23 -22 33 -42 35 -18 2 -32 13 -43 33 -8 17 -14 34 -12 38
2 5 73 -7 158 -25 85 -19 161 -32 167 -29 9 3 11 28 9 87 -4 72 0 95 26 177
22 65 28 96 20 99 -17 5 -15 22 8 67 14 26 18 50 14 68 -3 16 1 48 10 75 9 26
22 101 29 167 l13 120 8 -90 c4 -49 14 -117 22 -150 7 -33 14 -82 14 -108 0
-26 7 -78 15 -115 8 -37 17 -101 20 -142 22 -339 44 -414 128 -434 15 -4 32
-17 38 -30 6 -13 25 -29 42 -37 28 -12 32 -18 30 -49 -4 -51 16 -110 38 -110
10 0 22 -6 26 -14 4 -7 18 -18 31 -25 16 -9 22 -21 22 -47 l0 -36 43 7 c23 4
44 11 47 16 19 28 93 26 112 -4 5 -8 8 -7 8 5 0 31 -88 42 -119 15 -9 -8 -31
-18 -48 -22 -32 -6 -33 -6 -33 29 0 29 -5 38 -24 45 -13 5 -26 17 -29 25 -4 9
-15 16 -26 16 -25 0 -43 52 -35 97 7 37 -8 63 -37 63 -10 0 -25 13 -34 29 -9
18 -26 32 -44 36 -30 6 -60 34 -81 74 -12 23 -12 24 25 17 21 -4 75 -18 121
-32 99 -28 112 -29 225 -9 105 18 313 45 354 45 28 0 30 -3 29 -35 -1 -21 -12
-51 -27 -72 -17 -24 -23 -41 -18 -52 5 -9 6 -22 4 -29 -3 -7 0 -19 7 -27 9
-11 3 -23 -29 -58 -46 -50 -51 -67 -18 -67 21 -1 21 -1 3 -12 -11 -6 -34 -12
-52 -13 -47 -3 -92 -24 -100 -47 -3 -11 -3 -22 0 -25 3 -4 6 1 6 9 0 25 48 50
96 50 35 1 49 7 69 29 l25 28 -33 -6 -32 -6 36 39 c40 42 56 79 39 89 -6 3 -8
11 -5 16 4 5 2 16 -3 26 -8 13 -3 26 18 52 17 22 28 48 28 66 -1 27 8 80 32
190 5 24 5 44 -1 51 -10 12 -7 27 25 166 9 36 16 93 16 125 0 121 24 140 33
26 4 -43 14 -100 23 -128 8 -27 17 -90 18 -140 3 -84 20 -212 29 -221 7 -8
506 26 617 41 58 8 152 19 210 25 58 6 187 24 286 41 234 37 228 38 220 -4 -6
-32 -11 -77 -20 -175 -3 -30 -15 -72 -29 -95 -36 -64 -53 -125 -39 -139 9 -9
7 -17 -10 -35 -12 -13 -27 -23 -35 -23 -7 0 -13 -7 -13 -15 0 -20 -30 -34 -54
-25 -29 10 -67 -6 -73 -31 -3 -11 -16 -25 -29 -30 -17 -6 -24 -16 -24 -34 0
-19 -5 -25 -22 -25 -13 0 -141 -3 -285 -7 -191 -4 -263 -3 -263 5 0 6 -9 19
-19 29 -10 10 -25 37 -32 61 -7 24 -18 42 -27 42 -7 0 -27 14 -42 30 -45 48
-102 37 -123 -22 -9 -25 -44 -22 -79 7 -29 24 -29 25 -6 26 13 0 17 3 10 6 -7
3 -20 2 -29 -1 -14 -6 -12 -11 12 -36 16 -17 34 -30 41 -30 8 0 10 -8 6 -22
-5 -21 -6 -21 -13 -2 -7 18 -8 17 -8 -3 -1 -14 5 -23 14 -23 8 0 15 9 15 20 0
12 10 25 25 32 14 6 25 17 25 23 0 7 9 20 20 30 25 22 64 13 86 -20 9 -14 25
-25 35 -25 13 0 21 -12 30 -42 6 -23 20 -48 30 -56 10 -7 19 -20 19 -29 0 -15
26 -16 268 -10 147 4 279 7 295 7 22 0 27 4 27 25 0 17 8 29 25 37 14 6 25 17
25 24 0 24 40 44 65 32 26 -12 65 4 65 27 0 8 6 15 13 15 8 0 24 11 37 25 21
22 22 29 12 45 -13 21 -10 32 35 126 13 28 26 73 28 100 3 27 7 72 11 99 3 28
7 75 10 105 2 30 10 93 18 140 26 155 46 295 47 330 1 19 7 -3 14 -50 7 -47
18 -105 25 -130 6 -25 13 -63 14 -86 2 -23 10 -52 19 -64 11 -17 13 -27 6 -36
-14 -17 0 -64 20 -64 9 0 77 9 151 19 74 11 168 23 208 27 l72 7 -6 -34 c-3
-19 -10 -47 -14 -64 -5 -16 -8 -37 -8 -45 -2 -60 -17 -141 -34 -169 -11 -19
-17 -43 -15 -53 6 -22 -12 -87 -30 -109 -7 -8 -13 -22 -13 -30 0 -8 -4 -19 -9
-24 -5 -6 -11 -21 -13 -35 -3 -28 -47 -55 -62 -40 -6 6 -23 10 -38 10 -15 0
-28 4 -28 9 0 5 -9 11 -20 14 -12 3 -20 14 -20 26 0 12 -16 53 -35 91 -19 38
-35 80 -35 92 -1 13 -7 34 -14 47 -9 16 -12 47 -9 93 3 49 -1 82 -13 114 -9
24 -19 43 -21 40 -2 -2 3 -21 11 -41 12 -27 15 -58 11 -112 -3 -54 -1 -83 10
-103 8 -16 15 -38 15 -50 0 -12 16 -51 35 -89 19 -37 35 -77 35 -88 0 -22 47
-53 81 -53 10 0 20 -4 23 -8 3 -5 27 -9 53 -9 37 0 42 2 23 7 -24 8 -13 13 20
11 10 0 11 1 3 5 -15 7 -17 50 -3 59 6 3 10 14 10 24 0 10 6 24 14 30 14 12
31 82 28 114 -1 10 5 29 14 42 13 21 36 135 36 185 0 8 4 29 8 45 10 33 19 95
29 200 l6 70 8 -78 c4 -43 14 -106 23 -139 8 -34 17 -82 19 -109 1 -26 7 -53
11 -61 5 -7 10 -24 11 -38 1 -14 6 -47 12 -75 5 -27 12 -68 16 -90 4 -22 14
-48 22 -57 8 -9 12 -22 8 -27 -3 -6 -2 -11 3 -11 20 0 20 29 1 46 -11 10 -18
22 -16 28 2 6 0 22 -6 36 -10 25 -24 98 -31 155 -1 17 -8 43 -15 58 -6 16 -10
41 -10 55 1 15 -5 53 -14 85 -15 56 -15 57 6 62 39 8 276 35 306 35 l30 0 -16
-37 c-17 -42 -35 -137 -37 -198 -1 -26 -17 -72 -49 -132 -52 -102 -57 -135
-26 -157 26 -18 21 -50 -15 -103 l-24 -34 -6 35 c-7 39 -23 44 -76 25 -19 -7
-15 -8 17 -4 41 5 43 4 51 -27 5 -19 5 -43 0 -56 -4 -13 -5 -28 -2 -34 4 -5 1
-21 -7 -34 l-12 -24 -201 -2 -201 -2 200 -6 200 -5 20 25 c22 27 25 40 13 56
-4 6 8 32 27 61 18 27 37 67 41 87 5 31 3 40 -15 52 -11 8 -21 23 -21 33 0 10
22 61 50 113 36 69 50 105 49 134 -1 63 17 156 39 205 28 61 40 119 40 201 0
49 -3 68 -14 72 -19 7 -18 35 4 71 25 41 62 152 62 186 0 15 -4 31 -10 34 -17
10 -11 62 15 131 14 36 25 73 25 81 0 8 -11 24 -25 35 -31 24 -31 39 1 124 43
113 54 163 63 285 5 64 15 134 22 157 11 36 10 44 -4 60 -22 25 -21 62 4 152
24 88 61 271 55 277 -2 2 -98 -7 -214 -20 l-211 -23 -73 -70 c-226 -214 -550
-373 -866 -425 -106 -17 -157 -20 -307 -16 -255 6 -427 42 -630 133 -116 51
-122 52 -334 24 -159 -21 -192 -21 -736 4 -226 11 -375 106 -375 242 0 146
105 316 378 611 l150 162 -13 53 c-8 29 -21 106 -30 171 -54 415 51 823 299
1158 246 332 592 551 1011 640 96 21 138 24 320 23 238 0 309 -10 516 -74 186
-58 385 -165 534 -286 l55 -45 117 28 c107 25 136 27 313 28 176 0 202 -2 267
-23 114 -35 196 -91 229 -154 53 -102 -46 -295 -207 -403 -82 -55 -222 -175
-214 -183 2 -3 37 24 77 60 40 35 108 88 151 117 157 105 251 290 206 408 -25
68 -104 122 -239 165 -68 21 -93 23 -270 23 -176 -1 -206 -3 -309 -28 l-114
-27 -46 39 c-190 159 -469 287 -746 343 -97 19 -414 33 -505 22z m-1992 -4865
c18 -6 35 -22 42 -40 10 -24 17 -28 39 -24 14 3 19 2 11 -1 -8 -4 -22 -12 -30
-19 -19 -16 -83 -28 -75 -15 3 6 17 10 31 10 16 0 24 6 24 17 0 25 -40 63 -67
63 -13 0 -23 5 -23 10 0 13 10 13 48 -1z"/>
<path d="M3648 6050 c-163 -15 -286 -45 -458 -111 -196 -76 -354 -176 -503
-318 -219 -209 -360 -452 -431 -742 -34 -139 -45 -229 -46 -375 0 -250 51
-471 161 -699 22 -43 39 -80 39 -82 0 -2 -16 -3 -35 -3 -33 0 -35 2 -79 93
-24 50 -52 116 -62 145 -10 28 -24 52 -31 52 -15 0 -222 -220 -312 -332 -124
-155 -185 -289 -179 -391 7 -99 57 -141 213 -178 76 -18 135 -23 390 -29 285
-8 407 -3 553 20 l57 9 -65 -5 c-36 -2 -103 -8 -150 -13 -47 -5 -220 -6 -390
-1 -409 10 -512 33 -578 130 -20 30 -23 44 -20 97 8 128 131 316 375 572 l109
115 34 -90 c19 -49 46 -112 61 -141 14 -29 24 -55 21 -58 -13 -12 -169 -5
-188 10 -28 22 -46 19 -42 -7 6 -41 69 -63 179 -61 90 1 97 -1 107 -21 18 -40
130 -181 203 -256 113 -116 301 -261 336 -259 15 0 15 2 3 7 -41 19 -160 107
-251 186 -124 108 -302 332 -277 348 33 21 54 7 108 -69 112 -159 327 -346
513 -448 154 -84 378 -154 575 -179 155 -20 237 -20 387 0 527 68 966 362
1218 814 145 261 214 626 173 910 -68 471 -311 856 -698 1107 -290 188 -679
284 -1020 253z m397 -26 c227 -37 415 -110 615 -239 315 -203 543 -510 654
-883 68 -231 68 -537 0 -792 -76 -279 -261 -566 -489 -758 -257 -216 -524
-334 -850 -376 -150 -20 -231 -20 -387 0 -203 25 -397 87 -563 178 -70 38 -80
47 -77 68 4 36 -37 94 -81 114 -51 24 -99 79 -95 110 5 39 19 33 37 -16 19
-52 62 -80 123 -80 27 0 49 -10 87 -40 53 -42 66 -66 30 -55 -15 5 -19 4 -15
-4 4 -6 16 -11 27 -11 36 0 21 38 -32 80 -40 31 -59 40 -90 40 -22 0 -53 7
-69 15 -30 15 -60 61 -60 89 0 19 -14 28 -34 20 -10 -4 -16 -18 -16 -40 0 -41
43 -93 97 -118 21 -10 48 -33 61 -52 21 -34 29 -64 16 -64 -3 0 -45 28 -92 62
-109 78 -260 229 -332 331 l-55 78 -70 -8 c-120 -13 -209 -8 -246 13 -42 25
-53 50 -12 29 46 -24 293 -15 293 10 0 7 -18 48 -40 92 -156 303 -202 682
-125 1022 l17 71 91 -95 c251 -266 649 -523 1122 -725 55 -24 104 -46 108 -50
21 -18 -182 -79 -461 -140 -291 -62 -580 -138 -607 -157 -31 -23 -33 -53 -4
-53 12 0 78 15 148 34 69 18 207 53 306 76 380 88 465 110 557 143 53 19 106
41 118 50 20 14 29 12 118 -23 406 -157 859 -258 1227 -274 l120 -5 -150 14
c-258 23 -510 64 -690 113 -166 46 -197 55 -326 98 -113 37 -136 48 -132 62
12 46 59 77 96 63 13 -5 52 -28 87 -50 35 -23 71 -41 81 -41 9 0 36 -21 59
-47 35 -41 39 -43 26 -16 -17 34 -61 73 -83 73 -8 0 -41 18 -74 41 -34 22 -74
45 -91 49 -50 15 -107 -19 -108 -64 0 -21 -7 -20 -86 12 l-51 20 -56 -28 c-31
-15 -91 -40 -134 -54 -76 -25 -125 -37 -508 -126 -99 -23 -237 -58 -306 -76
-130 -35 -159 -40 -159 -26 0 33 214 95 644 187 258 56 456 117 456 141 0 6
-17 18 -37 27 -280 118 -579 277 -790 418 l-106 72 26 14 c31 16 36 55 13 106
-8 18 -20 51 -25 73 -14 54 -32 68 -76 61 -33 -5 -35 -4 -41 28 -7 40 -1 53
32 65 20 8 24 16 24 49 0 27 -5 43 -16 49 -16 9 -16 11 0 33 22 32 20 76 -4
96 -11 10 -20 30 -20 46 0 15 -7 44 -15 63 -14 35 -14 37 20 81 36 47 46 97
23 106 -37 14 -88 -38 -107 -109 -7 -25 -22 -48 -41 -62 -36 -27 -55 -63 -65
-121 -9 -56 -40 -107 -67 -115 -12 -3 -20 -8 -16 -11 9 -10 58 14 58 29 0 7 6
19 14 25 8 6 17 37 21 67 6 49 13 62 50 100 27 27 48 59 55 83 12 44 73 117
90 106 19 -12 10 -42 -27 -90 -34 -45 -36 -50 -23 -79 7 -17 15 -50 17 -74 4
-28 11 -46 24 -53 23 -12 26 -61 4 -79 -8 -7 -15 -20 -15 -30 0 -10 7 -20 15
-24 9 -3 15 -18 15 -36 0 -23 -6 -33 -25 -42 -30 -14 -38 -36 -29 -83 6 -35 7
-36 43 -30 44 7 65 -11 76 -65 4 -19 14 -47 21 -62 29 -56 5 -117 -33 -87 -16
13 -17 12 -4 -3 18 -23 5 -23 -25 1 -13 10 -20 22 -16 26 4 3 2 5 -5 3 -7 -1
-48 27 -92 64 -57 49 -81 76 -86 98 -5 25 -11 30 -28 28 -16 -2 -37 14 -80 62
-67 74 -66 73 -17 198 132 332 399 628 720 801 191 102 424 169 645 185 83 5
264 -5 360 -20z m-1611 -1250 c5 -14 4 -15 -9 -4 -17 14 -19 20 -6 20 5 0 12
-7 15 -16z"/>
<path d="M3855 5996 c-12 -8 -16 -19 -12 -31 6 -14 14 -16 42 -11 42 8 85 -2
85 -20 0 -15 30 -34 55 -34 10 0 64 -23 122 -51 71 -35 122 -52 160 -56 l56
-6 25 -56 c33 -74 48 -90 92 -97 32 -5 41 -13 59 -50 27 -53 70 -90 120 -104
80 -21 94 14 29 76 -72 68 -109 94 -131 94 -19 -1 -17 -3 8 -14 48 -21 162
-132 149 -145 -31 -32 -136 35 -169 108 -15 34 -23 41 -46 41 -40 0 -78 37
-103 101 l-22 54 -60 7 c-39 4 -85 19 -126 40 -92 47 -139 67 -168 70 -14 2
-29 12 -35 25 -9 22 -52 34 -104 30 -34 -3 -38 21 -4 29 35 9 160 -12 190 -31
16 -11 48 -14 115 -13 l93 2 -89 3 c-50 2 -95 8 -101 13 -16 13 -133 40 -176
40 -19 0 -44 -6 -54 -14z"/>
<path d="M3794 5895 c-9 -24 5 -35 46 -35 40 0 58 18 37 39 -16 16 -77 14 -83
-4z m74 -12 c2 -9 -7 -13 -27 -13 -30 0 -46 11 -34 24 11 11 56 2 61 -11z"/>
<path d="M4442 5858 c15 -47 65 -97 89 -91 23 6 59 -23 59 -48 0 -10 -12 -27
-26 -38 -19 -15 -22 -21 -11 -21 19 0 47 37 47 62 0 26 -36 58 -64 58 -25 0
-86 60 -86 85 0 7 -4 16 -10 20 -5 3 -5 -8 2 -27z"/>
<path d="M3112 5702 c-25 -17 -10 -54 28 -66 51 -16 73 -64 64 -136 -16 -133
-4 -155 92 -165 57 -7 67 -11 95 -44 60 -71 72 -81 98 -87 62 -14 75 -21 82
-47 6 -22 2 -33 -22 -56 -16 -16 -29 -34 -29 -40 0 -12 40 -41 57 -41 7 0 22
-9 33 -20 26 -26 90 -27 113 -2 11 11 17 36 17 62 l0 44 28 -26 c77 -70 192
-80 192 -16 0 18 5 19 50 13 46 -6 50 -5 50 13 0 15 -11 24 -37 32 -21 7 -46
19 -56 28 -9 8 -19 13 -22 10 -9 -9 26 -32 63 -43 20 -6 37 -16 40 -23 3 -10
-8 -11 -47 -6 -47 6 -51 5 -51 -13 0 -21 -13 -36 -41 -46 -21 -7 -108 33 -133
62 -31 34 -46 27 -46 -22 0 -52 -22 -77 -68 -77 -21 0 -36 7 -44 20 -7 11 -22
20 -33 20 -11 0 -29 8 -40 16 -20 15 -19 16 12 44 30 27 32 33 25 67 -7 35
-11 39 -54 48 -49 11 -73 28 -125 92 -29 37 -37 41 -95 47 -81 8 -104 29 -99
89 12 145 -1 193 -58 212 -61 20 -50 55 18 55 39 0 94 -50 105 -96 4 -16 17
-35 28 -42 17 -13 19 -21 14 -63 -8 -55 1 -64 75 -75 56 -8 81 -24 109 -69
l22 -35 88 1 c104 1 146 -14 233 -85 58 -48 58 -48 105 -37 102 22 132 24 158
6 43 -28 19 -38 -80 -32 -66 4 -77 3 -41 -3 86 -14 145 -12 152 6 3 8 -2 23
-11 32 -20 20 -106 21 -174 2 -42 -11 -43 -10 -104 40 -78 63 -136 82 -237 81
l-77 -1 -31 44 c-26 36 -39 46 -70 51 -21 3 -54 12 -73 19 -35 12 -35 13 -32
64 3 41 0 53 -13 58 -9 4 -27 30 -39 58 -13 28 -30 57 -40 65 -20 17 -106 26
-124 13z"/>
<path d="M4310 5601 c0 -17 6 -21 31 -21 24 0 30 4 27 18 -2 10 -14 18 -31 20
-22 3 -27 -1 -27 -17z m45 -1 c3 -5 -3 -10 -14 -10 -12 0 -21 5 -21 10 0 6 6
10 14 10 8 0 18 -4 21 -10z"/>
<path d="M3756 5458 c-29 -41 22 -84 113 -95 58 -7 91 8 91 41 0 42 -65 76
-146 76 -33 0 -46 -5 -58 -22z m143 -6 c45 -22 59 -45 42 -66 -25 -30 -125
-15 -168 25 -21 21 -22 24 -6 41 21 23 87 24 132 0z"/>
<path d="M2910 5360 c-23 -44 15 -95 62 -82 26 6 33 47 14 77 -20 31 -61 33
-76 5z m62 -7 c24 -21 23 -50 -2 -63 -15 -8 -24 -6 -40 10 -23 23 -25 41 -8
58 16 16 28 15 50 -5z"/>
<path d="M4813 5242 c-19 -12 -3 -52 24 -58 30 -8 46 6 41 37 -3 25 -41 37
-65 21z m52 -26 c0 -26 -19 -31 -39 -11 -20 21 -11 37 17 33 14 -2 22 -10 22
-22z"/>
<path d="M4517 5179 c-20 -12 -22 -42 -4 -56 25 -20 65 -24 81 -7 19 19 20 28
3 42 -25 21 -63 30 -80 21z m77 -38 c11 -17 -20 -32 -47 -22 -32 13 -42 28
-27 46 10 13 16 13 40 0 16 -8 31 -19 34 -24z"/>
<path d="M4832 5148 c-7 -7 -12 -21 -12 -31 0 -16 -3 -17 -14 -8 -21 18 -69 9
-81 -14 -6 -11 -22 -33 -38 -49 -21 -22 -27 -39 -27 -71 0 -26 6 -48 15 -55 8
-7 15 -23 15 -36 0 -12 8 -29 18 -36 10 -7 32 -41 49 -75 l30 -63 -36 -18
c-20 -11 -115 -62 -211 -114 -220 -119 -206 -114 -214 -75 -4 17 -21 46 -38
64 -29 30 -38 33 -90 33 -57 0 -58 0 -58 -28 0 -16 -2 -31 -5 -34 -3 -3 -28 6
-55 19 l-50 24 5 52 c7 85 57 110 122 61 30 -23 38 -25 59 -15 14 6 29 11 34
11 18 0 81 -90 100 -142 11 -30 19 -44 20 -31 1 56 -85 183 -123 183 -12 0
-28 -4 -36 -9 -9 -6 -26 0 -50 16 -27 19 -44 23 -70 19 -49 -8 -61 -24 -67
-94 -5 -61 -5 -62 23 -73 15 -6 40 -18 56 -26 34 -18 47 -10 47 28 0 28 1 29
49 29 44 0 52 -4 85 -40 67 -75 70 -72 -226 -220 -234 -116 -270 -137 -325
-191 -67 -65 -75 -79 -42 -79 11 0 18 -4 14 -9 -3 -5 0 -13 6 -17 6 -3 36 19
69 51 52 51 87 72 297 175 l238 116 22 -35 c12 -20 23 -50 23 -67 0 -41 26
-91 51 -99 29 -10 52 -50 45 -80 -7 -27 15 -85 40 -106 21 -17 66 -14 81 7 17
24 18 168 0 182 -6 6 -26 14 -42 18 -30 7 -74 49 -75 71 0 7 -13 32 -29 55
-16 24 -33 56 -36 70 -7 26 -2 29 92 77 54 27 156 81 228 120 71 38 132 66
135 62 3 -4 28 -22 55 -41 69 -46 77 -57 69 -106 -5 -37 -3 -43 28 -68 18 -15
59 -50 90 -79 54 -49 57 -54 52 -88 -6 -32 -2 -39 35 -71 37 -32 41 -39 41
-82 0 -41 3 -48 27 -57 19 -7 29 -6 37 2 8 9 8 10 -1 5 -7 -4 -22 -2 -33 4
-16 8 -20 21 -20 57 0 42 -4 50 -41 81 -37 32 -40 38 -34 69 6 33 3 38 -55 91
-33 32 -74 68 -91 80 -25 21 -29 29 -23 57 9 52 -2 70 -71 115 l-65 42 47 26
c27 14 103 56 171 94 68 38 127 66 131 63 16 -10 41 -74 41 -106 0 -18 5 -48
12 -66 11 -30 15 -33 43 -27 26 5 33 2 42 -18 7 -14 12 -17 12 -8 1 29 -16 43
-48 38 -26 -4 -32 -1 -41 25 -5 17 -10 43 -10 58 0 37 -29 109 -44 109 -6 0
13 14 42 31 30 17 52 33 49 35 -3 3 -103 -49 -223 -116 -121 -67 -264 -146
-319 -175 -55 -29 -165 -87 -245 -130 -80 -42 -267 -137 -416 -211 -203 -101
-280 -145 -309 -174 -30 -31 -47 -40 -72 -40 l-33 0 75 69 c42 40 96 79 127
92 57 25 636 317 653 329 6 4 51 29 100 55 137 73 209 112 340 185 66 37 145
80 175 95 74 37 133 75 127 81 -3 3 -23 -6 -46 -20 -50 -32 -54 -32 -66 -3 -7
15 -24 25 -52 32 -24 6 -62 25 -85 43 -39 30 -88 43 -88 23 0 -5 9 -7 20 -4
13 3 33 -7 61 -31 24 -20 53 -36 66 -36 33 0 63 -17 72 -42 7 -19 -1 -26 -63
-58 -39 -20 -121 -64 -182 -98 -61 -34 -113 -62 -116 -62 -2 0 -18 28 -34 63
-16 34 -37 68 -46 75 -10 7 -18 24 -18 36 0 13 -7 29 -15 36 -25 21 -19 75 13
107 16 15 31 36 35 46 9 24 36 32 59 18 22 -14 26 -12 42 21 14 28 48 35 66
13 8 -9 17 -35 21 -58 l8 -42 -3 47 c-2 27 -9 55 -16 63 -15 18 -61 20 -78 3z
m-430 -795 c57 -121 83 -157 116 -164 54 -11 62 -24 62 -105 0 -63 -3 -75 -22
-88 -27 -19 -49 -8 -78 39 -14 22 -19 42 -15 56 9 29 -14 79 -41 89 -26 10
-50 57 -57 113 -3 20 -15 50 -26 66 l-20 28 22 11 c12 6 24 11 27 11 3 1 17
-25 32 -56z m-667 -303 c-3 -5 -11 -10 -16 -10 -6 0 -7 5 -4 10 3 6 11 10 16
10 6 0 7 -4 4 -10z"/>
<path d="M2438 4692 c2 -15 10 -34 17 -42 7 -8 16 -34 20 -57 8 -48 33 -75 71
-75 31 0 46 19 33 43 -6 12 -5 19 4 22 7 3 5 6 -5 6 -20 1 -24 -19 -7 -36 8
-8 6 -14 -9 -22 -32 -17 -72 22 -79 76 -3 24 -12 48 -19 54 -8 6 -14 20 -14
30 0 10 -4 20 -9 23 -4 3 -6 -7 -3 -22z"/>
<path d="M2532 4482 c-29 -29 -19 -57 58 -174 61 -94 65 -104 50 -115 -35 -25
-34 -76 3 -150 19 -37 37 -85 41 -105 5 -26 18 -46 44 -68 55 -45 61 -36 8 13
-34 32 -46 51 -46 73 0 16 -16 58 -35 94 -39 71 -40 111 -4 133 10 6 19 15 19
20 0 4 -29 52 -65 106 -82 126 -90 144 -65 166 33 30 65 1 133 -119 25 -43 56
-83 69 -90 17 -8 23 -21 24 -46 1 -19 14 -54 30 -78 28 -42 28 -42 76 -36 l49
7 59 -60 c47 -47 60 -66 60 -90 0 -18 8 -37 22 -49 l22 -19 -17 25 c-9 13 -17
37 -17 53 0 21 -14 44 -54 85 -54 56 -56 57 -112 57 -46 0 -59 4 -68 20 -6 11
-18 30 -28 43 -9 12 -14 31 -11 41 6 24 -13 61 -32 61 -8 0 -35 38 -61 85 -68
122 -113 156 -152 117z"/>
<path d="M4546 4411 c-10 -16 5 -42 23 -39 21 4 21 42 -1 46 -9 2 -19 -1 -22
-7z m32 -12 c-2 -6 -8 -10 -13 -10 -5 0 -11 4 -13 10 -2 6 4 11 13 11 9 0 15
-5 13 -11z"/>
<path d="M3801 3914 c0 -17 5 -37 13 -44 8 -6 16 -23 18 -38 3 -22 12 -29 63
-47 33 -11 78 -33 100 -48 22 -15 45 -27 52 -27 7 0 29 -11 49 -25 66 -45 134
-24 134 40 0 37 -18 85 -32 85 -5 0 -2 -13 7 -30 20 -39 19 -73 -3 -93 -26
-24 -57 -21 -100 8 -20 14 -41 25 -46 25 -5 0 -30 13 -55 29 -25 16 -66 35
-91 42 -57 16 -70 26 -70 54 0 12 -6 28 -14 35 -8 6 -17 24 -19 38 -4 25 -4
25 -6 -4z"/>
<path d="M3374 3762 c-18 -12 -24 -41 -14 -67 11 -29 88 -81 140 -95 42 -11
131 -84 188 -155 23 -27 50 -59 62 -71 11 -12 20 -26 20 -32 0 -12 -51 -42
-70 -42 -7 0 -27 -7 -46 -16 -25 -12 -34 -23 -34 -40 0 -26 8 -29 107 -39 35
-3 79 -13 99 -21 48 -20 118 -20 148 0 33 21 53 20 101 -4 43 -22 105 -26 136
-10 27 15 26 74 -1 93 l-20 14 20 18 c25 23 26 61 1 75 -11 5 -45 10 -76 10
-46 0 -63 5 -87 25 -39 33 -73 40 -124 27 -73 -20 -191 32 -210 91 -4 12 -24
43 -46 71 -21 27 -42 62 -45 77 -3 15 -15 36 -27 47 -39 37 -189 67 -222 44z
m142 -17 c57 -17 86 -44 103 -96 6 -19 27 -53 46 -74 19 -20 35 -43 35 -50 0
-8 12 -27 26 -44 33 -40 154 -79 191 -62 39 18 74 13 112 -16 29 -22 50 -29
105 -33 83 -6 104 -25 68 -63 -27 -29 -28 -39 -2 -55 26 -16 26 -58 1 -72 -31
-16 -83 -12 -119 10 -40 24 -73 25 -115 3 -38 -19 -91 -19 -140 2 -21 8 -71
18 -113 22 -53 4 -78 11 -81 21 -7 17 12 30 87 58 62 23 78 54 43 83 -11 9
-32 33 -47 55 -56 75 -135 140 -228 186 -103 51 -137 85 -119 119 14 26 72 28
147 6z"/>
<path d="M5006 3749 c-15 -12 -25 -24 -22 -26 3 -3 17 4 32 16 15 11 33 21 40
21 21 0 25 -17 8 -34 -13 -13 -13 -16 -1 -16 15 0 30 37 21 52 -10 15 -51 8
-78 -13z"/>
<path d="M4840 3490 c-6 -10 -9 -24 -8 -31 2 -6 -20 -19 -48 -29 -99 -35 -117
-54 -127 -145 -4 -34 -3 -42 3 -25 4 14 8 37 9 52 1 41 56 90 124 111 47 15
57 22 52 36 -3 10 1 24 10 31 13 11 26 10 82 -5 10 -3 5 1 -12 9 -42 21 -72
19 -85 -4z"/>
<path d="M3390 3465 c-21 -25 -4 -43 53 -55 64 -13 107 -5 107 19 0 39 -133
69 -160 36z m121 -12 c16 -10 29 -21 29 -24 0 -22 -89 -20 -133 3 -15 7 -16
12 -6 24 16 19 75 18 110 -3z"/>
<path d="M3045 3215 c22 -18 42 -24 76 -25 25 0 54 -7 65 -15 10 -8 33 -15 50
-15 59 0 93 -12 134 -48 29 -24 38 -38 31 -45 -7 -7 -16 -6 -28 5 -51 43 -182
76 -237 60 -24 -6 -15 -8 40 -8 54 0 81 -5 126 -26 31 -15 59 -32 63 -37 10
-17 45 -13 52 6 14 37 -93 103 -168 103 -15 0 -40 7 -55 15 -16 8 -46 15 -67
15 -24 0 -49 8 -64 20 -37 29 -54 25 -18 -5z"/>
<path d="M3450 3016 c0 -2 11 -6 25 -8 14 -3 25 -1 25 3 0 5 -11 9 -25 9 -14
0 -25 -2 -25 -4z"/>
<path d="M1930 5905 c0 -8 7 -15 15 -15 8 0 15 7 15 15 0 8 -7 15 -15 15 -8 0
-15 -7 -15 -15z"/>
<path d="M1780 5770 c0 -13 7 -20 20 -20 13 0 20 7 20 20 0 13 -7 20 -20 20
-13 0 -20 -7 -20 -20z m30 0 c0 -5 -4 -10 -10 -10 -5 0 -10 5 -10 10 0 6 5 10
10 10 6 0 10 -4 10 -10z"/>
<path d="M5510 5058 c-60 -56 -108 -103 -105 -106 5 -5 136 111 194 172 67 70
20 35 -89 -66z"/>
<path d="M5430 4322 c-1 -21 -7 -65 -14 -99 -16 -74 -10 -87 36 -78 50 10 59
18 65 61 4 30 -2 51 -24 93 -35 66 -63 76 -63 23z m53 -31 c29 -53 34 -88 15
-114 -14 -18 -84 -28 -81 -12 1 6 7 48 14 93 8 45 16 82 20 82 3 0 18 -22 32
-49z"/>
<path d="M5571 4216 c2 -2 39 -17 81 -34 133 -53 169 -83 232 -193 15 -27 26
-61 26 -83 0 -70 -49 -97 -270 -152 -109 -28 -143 -30 -159 -10 -10 11 -7 17
11 30 12 9 30 16 39 16 24 0 246 58 286 75 37 16 41 37 22 96 -28 81 -77 125
-203 178 -57 24 -88 28 -36 5 136 -63 161 -79 196 -129 39 -58 53 -115 32
-132 -13 -11 -172 -57 -292 -85 -65 -14 -88 -36 -67 -62 19 -23 63 -20 192 14
179 47 197 53 225 75 37 30 44 98 15 159 -34 70 -77 123 -123 152 -48 30 -229
100 -207 80z"/>
<path d="M2075 3814 c-69 -69 -153 -159 -186 -201 -65 -82 -150 -244 -148
-283 1 -21 2 -21 6 -5 15 69 84 192 162 290 31 39 113 127 184 198 71 70 124
127 118 127 -6 0 -67 -57 -136 -126z"/>
<path d="M5445 3450 c-17 -8 -16 -9 7 -7 15 2 30 6 34 10 10 10 -17 8 -41 -3z"/>
<path d="M6 2500 c4 -19 12 -73 19 -120 7 -47 13 -73 14 -58 2 40 -20 181 -31
198 -6 10 -6 3 -2 -20z"/>
<path d="M277 2408 c-7 -22 4 -47 19 -41 18 7 18 53 0 53 -8 0 -16 -6 -19 -12z
m23 -14 c0 -8 -5 -12 -10 -9 -6 4 -8 11 -5 16 9 14 15 11 15 -7z"/>
<path d="M6 2320 c3 -14 7 -36 9 -50 1 -14 3 -28 4 -32 0 -5 8 -8 16 -8 10 0
15 10 15 30 0 18 -5 30 -13 30 -7 0 -18 12 -25 28 -11 25 -11 25 -6 2z m34
-62 c0 -16 -3 -19 -11 -11 -6 6 -8 16 -5 22 11 17 16 13 16 -11z"/>
<path d="M545 1553 c25 -105 65 -192 148 -320 100 -154 189 -223 311 -243 37
-6 85 -19 106 -30 48 -24 98 -85 106 -127 5 -28 11 -33 43 -38 20 -3 61 -10
91 -15 69 -12 325 -46 405 -55 120 -12 292 -36 365 -50 74 -15 373 -71 665
-125 83 -15 177 -31 210 -34 177 -21 579 -77 855 -121 442 -69 819 -116 994
-122 132 -5 206 0 636 43 557 56 625 72 940 229 159 80 218 108 345 165 112
51 334 124 407 135 54 8 45 -15 83 219 14 87 23 161 20 164 -3 3 -5 2 -5 -1 0
-9 -50 -318 -55 -344 -4 -16 -15 -23 -47 -28 -145 -24 -481 -157 -768 -305
-123 -64 -294 -139 -317 -140 -7 0 -15 16 -19 36 -6 33 -9 36 -35 30 -23 -4
-29 -2 -29 13 0 26 32 51 57 45 17 -5 22 -1 25 18 2 17 8 22 26 20 16 -2 22 2
22 16 0 45 53 34 90 -18 12 -16 28 -30 35 -30 16 0 85 70 85 86 0 6 9 23 21
38 16 20 29 26 61 26 l40 0 -6 35 c-10 52 8 78 48 71 25 -5 37 -2 51 14 16 18
17 26 8 50 -21 57 40 93 102 60 33 -18 74 -5 86 28 14 36 38 62 58 62 9 0 34
-14 54 -31 35 -29 40 -31 64 -18 37 20 39 37 9 68 -54 57 -14 140 61 126 28
-5 33 -3 33 14 0 11 -5 23 -10 26 -18 11 -10 56 15 80 37 38 71 33 121 -20
l43 -44 33 15 33 15 -36 -6 c-31 -5 -39 -2 -53 20 -37 57 -127 70 -161 22 -17
-24 -20 -83 -5 -92 18 -11 11 -23 -10 -18 -26 7 -78 -15 -90 -38 -17 -31 -11
-76 15 -107 l25 -30 -22 -14 c-20 -14 -26 -12 -64 15 -56 39 -89 32 -112 -23
-18 -41 -53 -60 -76 -41 -16 13 -64 17 -94 7 -29 -10 -42 -43 -30 -75 13 -35
-12 -58 -56 -53 -42 5 -61 -22 -52 -73 7 -34 7 -34 -36 -37 -37 -3 -45 -7 -64
-41 -24 -44 -78 -107 -92 -107 -5 0 -14 11 -20 25 -16 34 -66 59 -92 45 -11
-6 -20 -17 -20 -26 0 -8 -6 -14 -12 -13 -29 3 -38 -2 -38 -22 0 -16 -4 -19
-19 -14 -26 8 -61 -27 -61 -61 0 -24 3 -26 28 -21 26 5 30 2 39 -28 l11 -33
-62 -11 c-153 -27 -478 -63 -902 -101 -248 -23 -562 6 -1254 115 -276 44 -678
100 -855 121 -33 3 -127 19 -210 34 -292 54 -591 110 -665 125 -74 14 -249 38
-365 50 -113 12 -414 54 -501 71 -14 2 -25 16 -33 43 -25 86 -90 131 -215 151
-51 8 -82 20 -125 49 -57 39 -130 111 -150 149 -10 19 -8 22 26 27 64 11 66
12 59 50 -6 29 -3 36 18 50 18 12 35 15 57 10 37 -8 99 20 99 46 0 28 22 36
99 35 60 -1 76 -5 82 -19 5 -9 13 -25 19 -34 38 -68 47 -92 37 -102 -7 -7 -5
-12 6 -17 24 -9 37 4 37 35 0 36 18 59 55 70 29 9 29 9 4 10 -32 1 -59 -27
-68 -70 -4 -18 -13 -35 -21 -37 -13 -5 -13 -3 -1 11 10 12 11 21 3 30 -6 7 -9
22 -6 33 3 12 -3 30 -15 45 -11 13 -20 19 -21 13 0 -6 7 -17 15 -24 8 -7 15
-19 15 -28 0 -10 -7 -6 -20 11 -20 26 -28 73 -10 62 6 -3 7 1 3 10 -4 12 -8
13 -13 5 -5 -9 -9 -9 -14 -1 -4 6 -19 11 -34 12 l-27 1 25 8 c30 10 5 12 -29
3 -23 -6 -24 -7 -5 -15 11 -4 -4 -5 -37 -2 -44 5 -58 2 -69 -11 -10 -13 -15
-13 -22 -3 -5 8 -6 3 -3 -13 6 -23 2 -29 -26 -43 -18 -9 -39 -16 -48 -16 -9 1
3 10 27 21 23 11 42 22 42 24 0 6 -32 -6 -47 -17 -7 -5 -21 -7 -33 -3 -52 16
-120 -38 -105 -85 4 -14 -2 -19 -32 -25 -31 -6 -34 -9 -19 -15 19 -6 19 -7 0
-12 -18 -4 -30 10 -76 86 -56 92 -108 223 -108 270 0 14 -4 26 -9 26 -5 0 -3
-26 4 -57z m321 -203 c-48 -15 -67 -39 -60 -77 6 -32 5 -33 -27 -32 -31 1 -32
2 -9 8 18 6 24 13 23 30 -5 45 31 80 82 80 14 -1 11 -3 -9 -9z"/>
<path d="M43 1428 c3 -48 19 -112 46 -187 42 -120 74 -169 97 -150 11 9 8 21
-13 62 -35 71 -80 203 -95 282 -8 44 -17 65 -27 65 -11 0 -13 -14 -8 -72z m85
-197 c18 -46 39 -95 48 -109 12 -18 13 -23 2 -20 -41 14 -118 214 -124 327
l-4 66 23 -90 c13 -49 38 -128 55 -174z"/>
<path d="M2840 1323 c0 -5 4 -14 9 -22 6 -9 5 -21 -2 -32 -8 -13 -4 -25 19
-55 24 -32 29 -45 23 -69 -4 -16 -7 -38 -8 -47 -1 -19 55 -88 71 -88 6 0 -6
18 -26 40 -37 41 -38 45 -19 113 2 10 -8 33 -26 56 -20 25 -27 41 -20 48 6 6
6 19 0 36 -10 25 -21 36 -21 20z"/>
<path d="M6996 1298 c-8 -12 -18 -42 -22 -65 -4 -26 -12 -43 -20 -43 -8 0 -28
-13 -45 -28 -26 -23 -32 -36 -32 -70 0 -23 8 -53 17 -66 23 -37 20 -38 -20
-11 -20 14 -51 25 -69 25 -34 0 -53 -16 -79 -67 -12 -24 -21 -31 -34 -26 -13
4 -14 3 -6 -6 15 -17 41 -4 48 25 16 64 76 81 138 39 37 -25 62 -19 38 9 -43
53 -26 135 34 157 29 10 36 18 36 39 0 14 9 43 20 65 22 43 20 59 -4 23z"/>
<path d="M1424 1272 c21 -24 41 -28 52 -10 5 7 2 9 -8 5 -9 -3 -26 2 -39 11
l-24 16 19 -22z"/>
<path d="M1985 1166 c10 -14 19 -26 22 -26 7 0 -17 39 -28 46 -6 3 -3 -5 6
-20z"/>
<path d="M5920 1060 c0 -8 7 -24 15 -34 17 -22 20 -61 5 -51 -5 3 -10 1 -10
-4 0 -6 7 -11 16 -11 13 0 15 7 11 35 -6 36 -37 92 -37 65z"/>
<path d="M4910 1030 c-13 -8 -12 -10 3 -10 9 0 17 5 17 10 0 12 -1 12 -20 0z"/>
<path d="M5910 972 c0 -14 20 -47 67 -110 33 -43 35 -62 7 -62 -25 0 -15 -42
29 -125 47 -86 61 -93 103 -54 11 10 30 19 41 19 30 0 81 -31 87 -52 2 -10 8
-18 13 -18 10 0 52 55 83 107 12 20 31 35 51 40 27 7 32 14 34 41 4 48 31 74
75 70 33 -3 35 -2 32 27 -1 17 0 40 3 52 7 31 60 56 104 50 30 -5 32 -4 14 5
-31 15 -86 2 -113 -27 -18 -20 -22 -31 -17 -62 l6 -38 -37 -2 c-20 -1 -59 -5
-87 -10 l-50 -7 40 -7 c22 -4 -52 -6 -165 -3 -116 2 -206 8 -208 13 -2 5 -18
29 -35 53 -18 24 -42 59 -54 78 -12 19 -23 29 -23 22z m432 -181 l77 -1 -2
-27 c-2 -23 -9 -30 -36 -38 -26 -8 -40 -21 -58 -55 -13 -25 -35 -56 -48 -70
-23 -23 -25 -23 -25 -5 -1 22 -56 55 -94 55 -13 0 -35 -9 -49 -20 -14 -11 -29
-20 -34 -20 -11 0 -93 147 -93 166 0 21 20 23 155 19 72 -2 165 -4 207 -4z"/>
<path d="M1975 925 c22 -8 50 -15 61 -15 12 0 24 -7 28 -15 3 -8 16 -15 28
-16 22 0 22 -1 3 -9 -29 -13 -33 -12 -40 9 -3 12 -18 21 -38 24 -18 3 -43 8
-57 12 -23 6 -22 5 4 -9 15 -9 39 -16 53 -16 17 0 27 -7 30 -21 5 -16 11 -19
30 -14 19 4 26 1 30 -15 6 -21 61 -51 92 -49 9 0 0 7 -19 15 l-35 14 35 -5 35
-4 -32 11 c-18 6 -35 20 -39 30 -3 11 -21 26 -40 34 -19 8 -34 19 -34 24 0 6
-15 10 -34 10 -19 0 -38 5 -41 10 -3 6 -18 10 -33 10 -24 -1 -22 -3 13 -15z
m162 -81 c8 -17 8 -24 1 -22 -13 5 -31 48 -20 48 4 0 12 -12 19 -26z"/>
<path d="M2372 870 c16 -16 35 -30 42 -30 15 0 46 -32 46 -47 0 -11 46 -23 89
-23 26 0 77 -28 56 -30 -5 -1 -82 -6 -170 -11 -88 -6 -203 -14 -255 -18 l-95
-8 95 3 c171 4 428 22 441 29 17 11 -29 44 -62 45 -52 0 -87 12 -92 31 -3 11
-20 26 -39 33 -18 8 -42 24 -52 35 -11 12 -23 21 -27 21 -4 0 6 -13 23 -30z"/>
<path d="M2290 882 c0 -6 -8 -13 -17 -15 -16 -4 -16 -5 -1 -6 18 -1 34 16 24
26 -3 4 -6 1 -6 -5z"/>
<path d="M4370 811 c10 -7 111 -11 296 -11 l282 0 -5 -44 c-5 -38 -3 -45 16
-51 11 -3 21 -11 21 -16 0 -5 -32 -41 -71 -80 -55 -57 -69 -77 -65 -94 3 -12
-3 -38 -13 -58 -32 -62 -32 -67 -8 -77 15 -6 5 -7 -34 -3 -64 6 -90 -10 -88
-55 1 -26 1 -26 10 5 11 38 33 47 94 37 38 -5 45 -4 45 10 0 9 -7 16 -15 16
-19 0 -19 9 2 50 9 19 17 48 17 65 1 25 15 46 69 98 70 69 83 101 46 110 -20
5 -21 11 -16 51 l7 46 -284 0 c-157 0 -293 3 -303 6 -15 5 -15 4 -3 -5z"/>
<path d="M2870 800 l255 -6 -251 -2 c-138 -1 -253 -5 -257 -8 -7 -7 38 -46 68
-59 13 -6 -34 -12 -140 -17 -88 -5 -205 -12 -260 -17 l-100 -10 100 5 c55 2
173 7 263 10 142 6 163 9 160 23 -2 9 -11 17 -22 19 -10 2 -26 12 -37 23 -18
18 -13 18 234 23 139 2 279 5 312 6 l60 2 -55 8 c-30 4 -174 7 -320 7 l-265
-1 255 -6z"/>
<path d="M7110 794 c-134 -35 -534 -191 -575 -224 -24 -19 -284 -145 -344
-166 -36 -13 -58 -24 -49 -24 30 0 165 58 338 145 91 46 185 92 210 103 25 11
79 34 120 52 90 40 288 105 348 115 l43 7 -7 -39 c-11 -61 -37 -102 -118 -190
-92 -98 -136 -128 -186 -125 -21 2 -57 -4 -81 -12 -24 -7 -61 -17 -81 -20 -29
-5 -38 -12 -38 -27 0 -19 4 -20 58 -14 31 4 61 11 67 16 5 5 17 9 27 9 16 0
16 -2 0 -30 -13 -23 -14 -34 -6 -47 15 -24 112 -29 174 -9 38 13 74 14 226 6
99 -5 263 -18 364 -29 102 -11 235 -22 295 -25 l110 -5 -100 10 c-55 5 -188
18 -296 29 -312 32 -546 42 -594 25 -22 -8 -68 -14 -103 -15 -74 0 -87 15 -53
60 l21 30 -24 6 c-13 3 -32 1 -43 -4 -29 -15 -113 -25 -113 -13 0 6 12 13 28
16 15 3 53 13 84 22 31 9 70 13 86 10 42 -8 100 31 191 129 77 83 104 130 116
202 6 39 5 42 -17 41 -12 0 -48 -7 -78 -15z"/>
<path d="M265 643 c-158 -19 -165 -21 -165 -38 0 -23 32 -26 156 -13 66 7 161
12 212 12 74 -2 92 1 92 13 0 22 -63 43 -122 42 -29 -1 -107 -8 -173 -16z
m271 -14 c14 -15 8 -16 -73 -15 -48 1 -143 -5 -211 -12 -67 -7 -127 -10 -132
-7 -21 13 2 25 48 26 26 0 85 7 132 14 111 17 215 15 236 -6z"/>
<path d="M7095 539 c-30 -36 -83 -82 -132 -115 -46 -30 -83 -61 -83 -69 0 -21
79 -20 128 1 46 19 264 13 542 -17 102 -11 246 -22 320 -24 l135 -4 -133 9
c-73 5 -217 18 -320 29 -103 11 -258 23 -344 26 -134 6 -164 4 -201 -10 -24
-9 -61 -15 -83 -13 l-39 3 78 51 c71 46 187 161 187 185 0 13 -1 13 -55 -52z"/>
<path d="M1570 535 c0 -18 5 -25 20 -25 15 0 20 7 20 25 0 18 -5 25 -20 25
-15 0 -20 -7 -20 -25z m30 0 c0 -8 -4 -15 -10 -15 -5 0 -10 7 -10 15 0 8 5 15
10 15 6 0 10 -7 10 -15z"/>
<path d="M1500 530 c0 -13 7 -20 20 -20 13 0 20 7 20 20 0 13 -7 20 -20 20
-13 0 -20 -7 -20 -20z m30 0 c0 -5 -4 -10 -10 -10 -5 0 -10 5 -10 10 0 6 5 10
10 10 6 0 10 -4 10 -10z"/>
<path d="M6617 403 c-12 -12 -7 -23 11 -23 13 0 14 2 3 9 -11 7 -11 9 0 14 8
3 9 6 3 6 -6 1 -14 -2 -17 -6z"/>
<path d="M6148 363 c25 -10 -1 -23 -36 -17 -21 3 -107 -3 -192 -15 -154 -20
-298 -37 -585 -66 -82 -9 -247 -20 -365 -25 -200 -8 -317 -21 -660 -75 -52 -8
-171 -26 -265 -40 -93 -14 -231 -34 -305 -45 -74 -11 -206 -29 -293 -40 -87
-12 -168 -25 -180 -31 -19 -8 -18 -9 8 -4 17 2 98 14 180 25 83 11 211 29 285
40 74 11 212 31 305 45 94 14 213 32 265 40 343 54 460 67 660 75 118 5 283
16 365 25 285 29 431 46 580 65 83 11 172 19 200 18 40 -3 50 0 53 15 2 11 -3
17 -15 16 -10 0 -13 -3 -5 -6z"/>
<path d="M2550 251 c0 -17 6 -21 31 -21 24 0 30 4 27 18 -2 10 -14 18 -31 20
-22 3 -27 -1 -27 -17z m45 -1 c3 -5 -3 -10 -14 -10 -12 0 -21 5 -21 10 0 6 6
10 14 10 8 0 18 -4 21 -10z"/>
<path d="M4495 233 c-16 -2 -124 -19 -240 -38 -115 -19 -262 -41 -325 -50
-566 -77 -818 -119 -839 -141 -3 -3 3 -4 14 -1 107 28 241 52 460 82 143 20
310 43 370 51 61 8 205 31 322 50 116 18 249 38 295 43 67 7 72 8 28 8 -30 0
-68 -2 -85 -4z"/>
<path d="M5803 233 c-18 -7 -16 -30 3 -37 45 -17 124 -2 124 25 0 17 -8 19
-57 18 -32 0 -64 -3 -70 -6z m117 -12 c0 -13 -26 -21 -70 -21 -37 0 -56 10
-43 24 10 9 113 7 113 -3z"/>
<path d="M15 139 c-17 -8 -15 -8 8 -4 15 3 33 2 40 -2 7 -5 -4 -10 -28 -14
l-40 -6 43 -2 c36 -1 43 2 40 17 -4 20 -34 25 -63 11z"/>
<path d="M4920 115 c0 -9 9 -15 25 -15 16 0 25 6 25 15 0 9 -9 15 -25 15 -16
0 -25 -6 -25 -15z m37 -1 c-3 -3 -12 -4 -19 -1 -8 3 -5 6 6 6 11 1 17 -2 13
-5z"/>
<path d="M5033 40 c-13 -5 -23 -16 -23 -25 0 -12 4 -11 20 5 11 11 32 20 46
20 33 0 22 -17 -17 -25 -17 -4 -28 -9 -25 -12 9 -10 76 19 76 33 0 16 -42 18
-77 4z"/>
</g>
</svg>
